<svg xmlns="http://www.w3.org/2000/svg" viewBox="0 0 580 480"><defs><style>.cls-1,.cls-17{isolation:isolate;}.cls-2{fill:#939393;}.cls-3{fill:#ebebeb;}.cls-4{fill:#2b4751;}.cls-5{fill:#455a64;}.cls-6{fill:#20e57e;}.cls-7{fill:#82172a;opacity:0.3;}.cls-20,.cls-7{mix-blend-mode:multiply;}.cls-8{fill:#c49b6c;}.cls-9{fill:#eba87f;}.cls-10{fill:#f1dec1;}.cls-11{fill:#0b6d53;}.cls-12{fill:#ffbe9d;}.cls-13{fill:#eb996e;}.cls-14{fill:#ced9d7;}.cls-15{fill:#272f44;}.cls-16{fill:#ed8869;}.cls-17{opacity:0.61;}.cls-18{fill:#442736;}.cls-19{fill:#daff7e;opacity:0.2;mix-blend-mode:screen;}.cls-20{fill:#9fc04c;}.cls-21{fill:#c9baa7;}</style></defs><g class="cls-1"><g id="_1" data-name="1"><polygon class="cls-2" points="341.91 331.96 226.27 331.96 226.27 318.03 346.56 318.03 341.91 331.96"/><polygon class="cls-2" points="255.39 329 247.94 376.03 236.39 448.98 230.06 448.98 236.79 369.31 240.19 329 255.39 329"/><polygon class="cls-2" points="337.19 448.98 330.86 448.98 318.44 370.49 311.87 329 327.07 329 331.21 378.08 337.19 448.98"/><polygon class="cls-2" points="250.68 448.98 254.57 448.98 266.26 329 256.91 329 250.68 448.98"/><polygon class="cls-2" points="316.59 448.98 312.69 448.98 301.01 329 310.36 329 316.59 448.98"/><polygon class="cls-2" points="242.73 387.25 324.54 387.25 324.54 392.31 242.73 394.42 242.73 387.25"/><path class="cls-3" d="M236.79,369.31c3.86,2.28,7.83,4.69,11.15,6.72l-11.55,73h-6.33Z"/><polygon class="cls-3" points="331.21 378.08 337.19 448.98 330.86 448.98 318.44 370.49 331.21 378.08"/><path class="cls-4" d="M407.35,328.13c-18.85,45.36-50.77,109.13-50.77,109.13H349.3s2.47-40.93,7.42-76.47c2.56-18.41,5.79-35.37,9.67-44.45-6.45,3.12-18.2,5.55-32.92,5.07-17.71-.57-100,0-100,0s1.27,3.8,0,14.56c-.45,3.89-2.57,18.17-5.07,34.84-4.44,29.49-10.12,66.45-10.12,66.45h-5.07S188.81,329.92,182.77,302c-.63-2.92-1.06-5-1.24-5.94-1.9-10.13,3.8-23.42,34.19-28.49h131s70.27,1.27,73.94,17.73C421.86,290.49,416,307.38,407.35,328.13Z"/><path class="cls-4" d="M417.48,301.53c-2.39,7.35-5.93,16.52-10.13,26.6a21.51,21.51,0,0,1-4.66-2.92c-15.43-12.77-34.21,14-46,35.58,2.56-18.41,5.79-35.37,9.67-44.45-6.45,3.12-18.2,5.55-32.92,5.07-17.71-.57-100,0-100,0s1.27,3.8,0,14.56c-.45,3.89-2.57,18.17-5.07,34.84-3.3-29.7-24-86.07-45.6-68.79-.63-2.92-1.06-5-1.24-5.94a18.64,18.64,0,0,1-.32-2.92c15-2.72,30.25-11.83,30.52-24.82,1.28-.26,2.61-.52,4-.75h131s7,.13,16.61.82C363,287.63,396.83,297.36,417.48,301.53Z"/><polygon class="cls-5" points="218.25 437.26 220.78 448.98 181.2 448.98 213.19 437.26 218.25 437.26"/><path class="cls-5" d="M349.3,437.26V449h31a40.61,40.61,0,0,0-12-4.44c-6-1-11.71-7.28-11.71-7.28Z"/><path class="cls-6" d="M387.29,210.62s-8.29,6.44-17.93,22.95a157.43,157.43,0,0,0-8.47,16.72c-.92,2.07-1.83,4.26-2.73,6.54C348,282.67,308.54,311.21,261.3,298c-15.83-4.43-24.06-22.79-45.58-30.39-.79-6-1-11.25-1.53-16.32a64.63,64.63,0,0,0-9.24-28.5,127.19,127.19,0,0,0-7.59-11.52Z"/><path class="cls-7" d="M387.29,210.62s-8.29,6.44-17.93,22.95c-41.23-2.73-134.87-8.92-164.41-10.8a127.19,127.19,0,0,0-7.59-11.52Z"/><path class="cls-8" d="M301,76.4a181.23,181.23,0,0,1,42.15,4l-8.44,16.88-38.62-2.53Z"/><path class="cls-9" d="M295.49,90.54c2.53-1.9,49.38-14.14,49.38-14.14v53.79L290,171.35Z"/><path class="cls-6" d="M302.45,200.49,219.24,193l-70.63-6.39-14.56-50.65-.63-2.53A234.14,234.14,0,0,1,161,117.31c56.15-27.8,108.44-25.65,127.51-23.6,4.91.53,7.62,1.05,7.62,1.05l12.66,21.53s-9.89,22.7-11.27,43c-.06.88-.1,1.74-.12,2.6.64-1.05,1.27-2.07,1.91-3.07,19.22-30.41,32.27-38.72,32.27-38.72l65.21-8.86s3.81,2.8,9,6.81c8.92,7,21.84,17.55,25.85,23.58C437.93,151.11,302.45,200.49,302.45,200.49Z"/><path class="cls-7" d="M302.45,200.49,219.24,193c-16.25-12.63-63-50.92-63-50.92,45.45,16.81,101.92,27.19,141.3,17.24.61-.14,1.21-.29,1.79-.47,13.23-3.58,24.44-9.56,32.49-18.46,29.06-32.12,35.25,20.31,33.65,31.06C370,164,391.49,136.25,405.75,118c8.92,7,21.84,17.55,25.85,23.58C437.93,151.11,302.45,200.49,302.45,200.49Z"/><path class="cls-6" d="M288.5,93.71c-25.35,34.36-105.12,50.62-127.51,23.6C217.14,89.51,269.43,91.66,288.5,93.71Z"/><path class="cls-10" d="M387.67,145.75c11-6.67,33.17-11.74,43.3-7.94s22.79,48.12,22.79,58.25S443,206.18,443,206.18Z"/><path class="cls-11" d="M161.27,146c-13.29-20.89-31.65-18.36-42.42-8.23s-16.46,47.48-5.69,68.37C134.68,194.79,161.27,146,161.27,146Z"/><path class="cls-12" d="M443,206.18H287.26l-3.8-13.29s15.83,3.8,15.83,1.9c0-.84,11.4-9.28,27-19.07,7.2-4.51,15.29-9.28,23.57-13.74,14.61-7.87,29.82-14.72,41.81-17.21C425.27,137.81,443.63,165,443,206.18Z"/><path class="cls-13" d="M443,206.18H287.26l-3.8-13.29s15.83,3.8,15.83,1.9c0-.84,11.4-9.28,27-19.07-17.15,24.6,91.32,24.84,105.89,11.89,15.2-13.5-47.26-32.92-82.71-23.63.11-.67.25-1.34.39-2,14.61-7.87,29.82-14.72,41.81-17.21C425.27,137.81,443.63,165,443,206.18Z"/><polygon class="cls-4" points="136.13 211.67 113.34 448.98 119.04 448.98 153.49 211.67 136.13 211.67"/><polygon class="cls-4" points="449.17 211.67 471.96 448.98 466.26 448.98 431.82 211.67 449.17 211.67"/><polygon class="cls-14" points="63.35 206.19 516.65 206.19 514.96 217.16 68.42 217.16 63.35 206.19"/><polygon class="cls-14" points="95.43 211.67 72.64 448.98 78.34 448.98 112.78 211.67 95.43 211.67"/><polygon class="cls-14" points="489.88 211.67 512.67 448.98 506.97 448.98 472.52 211.67 489.88 211.67"/><path class="cls-4" d="M429.7,93.07c14.77-2.95,21.95-12.66,16-24.06s-50.65-38.4-62.46-38-43.34,9-38,18.15c-9.29,7.17-18.15,42.63-20.68,64.57s7.6,53.61,13.93,43.05c4.22,11.82,18.15,11.4,24,1.27,10.13,4.22,30.39-5.91,34.61-11.82S405.64,126,405.64,126Z"/><path class="cls-11" d="M308.78,116.29c-14.56-1.9-26.16,13.9-26.16,13.9S277.13,98.71,279,92.62,301,76.4,301,76.4,298.65,93.49,308.78,116.29Z"/><path class="cls-12" d="M429.7,93.08S421.26,114.6,417.89,118l-.05,0c-3.46,3.41-16.42,12.22-19.79,16.41-2.31,2.87-12.42-2.46-22.38-10.83a96.18,96.18,0,0,1-13.08-13.23c-11.81-14.76-13.92-21.94-12.24-27.85S370.61,54.66,385,53,422.11,68.59,429.7,93.08Z"/><path class="cls-13" d="M417.84,118c-3.46,3.41-16.42,12.22-19.79,16.41-2.31,2.87-12.42-2.46-22.38-10.83l22.69-25.19S410,108,417.84,118Z"/><path class="cls-4" d="M405.64,97.29c-4.54,2.28,7.18,21.95,12.24,20.68S411.55,94.34,405.64,97.29Z"/><path class="cls-4" d="M398.05,92.23C395.61,98.32,374,81.68,376.1,76.61S400.58,85.9,398.05,92.23Z"/><path class="cls-15" d="M371.46,88.85s-5.07,17.73,12.24,11C372.72,100.77,371.46,88.85,371.46,88.85Z"/><path class="cls-15" d="M395.83,110.54s-5.06,17.72,12.24,11C397.1,122.46,395.83,110.54,395.83,110.54Z"/><path class="cls-12" d="M398.36,98.4c-7.75,16.78-21.52,30.39-25.79,31.5s-7.92-16.3-7.28-18.52S398.36,98.4,398.36,98.4Z"/><path class="cls-16" d="M353.26,130.37c12.66.63,21.05,7.6,23.26,12C379.37,132.75,366.23,125.78,353.26,130.37Z"/><path class="cls-12" d="M342.76,78.41C343.6,61.42,334,55,328,58.46s-5.17,26,4.32,29.13S342.76,78.41,342.76,78.41Z"/><path class="cls-17" d="M267,137.28v62.05a5.35,5.35,0,0,1-5.42,5.3H233.44a5.35,5.35,0,0,1-5.42-5.3V137.28A21.72,21.72,0,0,1,231.18,126l3.15-5.18c1.67-2.73,2.71-24.2,3-27.36l3.9-17.62H240a1.69,1.69,0,0,1-1.71-1.67V67.33A1.69,1.69,0,0,1,240,65.66H255a1.69,1.69,0,0,1,1.71,1.67V74.2A1.69,1.69,0,0,1,255,75.87h-1.3l3.9,17.62c.34,3.16,1.38,24.63,3,27.36l3.15,5.18A21.54,21.54,0,0,1,267,137.28Z"/><rect class="cls-18" x="228.02" y="142.22" width="38.98" height="48.17"/><path class="cls-19" d="M244.36,79.4c0,.79-3.75,37.26-3.75,37.26s-7.23,12.44-8,16,0,65.33,0,65.33h4.83s-.27-61.43-.27-64,5.89-10.43,7.23-15.24S244.36,79.4,244.36,79.4Z"/><path class="cls-20" d="M267,137.28v62.05a5.36,5.36,0,0,1-5.43,5.3h-2.21c1.81-1,3.49-2.44,3.22-4.51-.57-4.29,2.68-51.29,0-63.49s-8.31-14.76-8.84-20,0-40.79,0-40.79l3.9,17.62c.34,3.16,1.38,24.63,3,27.36l3.16,5.18A21.72,21.72,0,0,1,267,137.28Z"/><path class="cls-21" d="M259.28,155.77c-6.5-7.87-17-7.87-23.54,0l-2-2.37c7.58-9.17,19.87-9.17,27.46,0Z"/><path class="cls-5" d="M256.75,67.33V74.2A1.69,1.69,0,0,1,255,75.87H240a1.69,1.69,0,0,1-1.71-1.67V67.33A1.69,1.69,0,0,1,240,65.66H255A1.69,1.69,0,0,1,256.75,67.33Z"/><rect class="cls-21" x="235.53" y="163.62" width="23.97" height="5.2"/><rect class="cls-21" x="232.94" y="173.29" width="29.14" height="5.95"/><path class="cls-12" d="M294.85,206.18H113.16s-2.36-25.71,4.76-44.6c3.31-8.84,8.71-16.18,17.39-18.7C179,130.21,259.4,194.16,259.4,194.16s18.36-10.13,24.06-8.23S294.85,206.18,294.85,206.18Z"/><path class="cls-13" d="M268.44,206.18H113.16s-2.36-25.71,4.76-44.6C126.55,198.66,221.25,205.22,268.44,206.18Z"/><path class="cls-6" d="M289.58,231.51c-75.14,1-69.22,50.65,3.37,44.74S352,230.66,289.58,231.51Z"/><path class="cls-7" d="M360.89,250.29c-.92,2.07-1.83,4.26-2.73,6.54C348,282.67,308.54,311.21,261.3,298c-15.83-4.43-24.06-22.79-45.58-30.39-.79-6-1-11.25-1.53-16.32C248.47,284.57,336,267.73,360.89,250.29Z"/></g></g></svg>