<svg id="_1" data-name="1" xmlns="http://www.w3.org/2000/svg" viewBox="0 0 580 480"><defs><style>.cls-1{fill:#20e57e;}.cls-2{fill:#ced9d7;}.cls-3{fill:#ebebeb;}.cls-4{fill:#f5f5f5;}.cls-5{fill:#2b4751;}.cls-6{opacity:0.3;}.cls-7{fill:#ef9d78;}.cls-8{fill:#d37a57;}.cls-9{fill:#455a64;}</style></defs><path class="cls-1" d="M217,232.67l-8.94,4.8-19.81,15.24s-60.64,8-63,9.8S92.88,278.58,88.74,297.8,76.28,442.4,76.28,442.4l11,37,220.88.35,51.8-.74s19.89-46.49,19.89-59.27-5.81-108.89-5.81-108.89l-62.13-43.81Z"/><rect class="cls-2" x="219.79" y="125.68" width="9.77" height="9.77"/><rect class="cls-2" x="219.79" y="146.46" width="9.77" height="9.77"/><rect class="cls-2" x="196.18" y="166.79" width="9.77" height="9.77"/><rect class="cls-2" x="219.79" y="167.24" width="9.77" height="9.77"/><path class="cls-3" d="M453.27,238.54c6.32,9,18.61,6,24.31.54s8.1-13.51,10.29-21.13c5-17.4,10.07-35.66,6.34-53.37-1.12-5.3-3.1-10.59-6.82-14.54s-9.45-6.28-14.68-4.89c-6.2,1.63-10.07,7.71-12.83,13.42a127.19,127.19,0,0,0-12.58,54.61c0,8.8,1,18,6,25.28"/><path class="cls-3" d="M435.91,251.53c6.87-8.16,8.17-20,5.11-30.2s-9.95-18.89-17.89-26a96.36,96.36,0,0,0-32.07-18.92c-4.63-1.63-9.53-2.92-14.42-2.45s-9.82,3-12.1,7.32c-3.35,6.44-.14,14.24,3.36,20.61A243,243,0,0,0,389,234c6.32,8.14,13.55,16.17,23.18,19.85s19.61,3.24,24.71-3.43"/><path class="cls-2" d="M452.84,374.75a19.57,19.57,0,0,0,.57-4.1c.3-3,.66-6.71,1.12-11.18a165.65,165.65,0,0,1,2.53-16.42,126.14,126.14,0,0,1,6-19.38,71.34,71.34,0,0,1,9.91-17.55,37.1,37.1,0,0,1,12.51-10.4A35.51,35.51,0,0,1,496,292.43a20.17,20.17,0,0,0,4.08-.58,18.09,18.09,0,0,0-4.16-.06,31.74,31.74,0,0,0-11,2.86,36.81,36.81,0,0,0-13.21,10.49A69.75,69.75,0,0,0,461.46,323a118,118,0,0,0-5.93,19.71,138.52,138.52,0,0,0-2.26,16.6c-.36,4.76-.49,8.6-.56,11.27A19.76,19.76,0,0,0,452.84,374.75Z"/><path class="cls-2" d="M453.62,366.13a9.29,9.29,0,0,0,.11-1.9v-5.45c0-4.71,0-11.56.24-20,.42-16.89,1.87-35.06,4.69-60.68,2.65-24.09,6.23-52.13,10-70.36.81-4.14,1.62-7.82,2.39-11.18s1.35-6.09,2-8.39.92-3.9,1.26-5.29a8,8,0,0,0,.34-1.87,8.11,8.11,0,0,0-.66,1.78L472.36,188c-.71,2.23-1.42,5.06-2.24,8.33s-1.74,7-2.63,11.11A620.94,620.94,0,0,0,457,272.74c-2.82,25.67-4.08,49.05-4.19,66-.1,8.47.08,15.32.29,20,.14,2.24.25,4,.33,5.44A8.82,8.82,0,0,0,453.62,366.13Z"/><path class="cls-2" d="M453.73,321.05a36,36,0,0,0,0-5.69A153.25,153.25,0,0,0,452,300a202.49,202.49,0,0,0-5-22.44A181.67,181.67,0,0,0,437.59,251C429.76,232.47,419.23,217.4,410,208a72.49,72.49,0,0,0-6.48-6c-1-.83-1.87-1.67-2.76-2.33l-2.52-1.74a37.58,37.58,0,0,0-4.8-3.07c-.27.37,6.79,4.53,15.66,14S428.27,233.3,436,251.62a210,210,0,0,1,9.48,26.31,223.89,223.89,0,0,1,5.34,22.23c1.17,6.4,1.85,11.63,2.23,15.26A38.19,38.19,0,0,0,453.73,321.05Z"/><polygon class="cls-2" points="410.15 400.58 414.67 462.48 494.18 462.48 498.7 400.58 410.15 400.58"/><rect class="cls-2" x="402.46" y="376.19" width="105.72" height="24.4"/><path class="cls-4" d="M497.22,420.81a3.82,3.82,0,0,1-.37.57L495.67,423,491,428.88l-.22.27-.2-.28-11.37-15.73h.65L468.71,429l-.35.51L468,429l-13.28-15.82h.76l-.73.92c-4.12,5.17-8.11,10.18-11.89,14.9l-.39.5-.37-.51c-4-5.72-7.82-11-11.18-15.87h.65l-13.8,15.73-.25.28-.19-.32L413,421.58l-1.12-1.94a2.77,2.77,0,0,1-.34-.69,3.16,3.16,0,0,1,.47.62l1.22,1.86,4.54,7.13h-.43l13.58-15.94.35-.39.3.42,11.32,15.8h-.76L454,413.53l.73-.92.38-.47.39.46,13.24,15.85H468l11.32-15.78.33-.46.32.46,11.18,15.91h-.41l4.82-5.78,1.3-1.5A3.17,3.17,0,0,1,497.22,420.81Z"/><path class="cls-4" d="M499.8,400.17c0,.27-19.91.5-44.5.5s-44.49-.23-44.49-.5,19.93-.49,44.49-.49S499.8,399.89,499.8,400.17Z"/><path class="cls-5" d="M187.72,251.81a2.62,2.62,0,0,1-.3.51c-.27.38-.58.85-1,1.42-.87,1.21-2.06,3-3.43,5.29-.68,1.12-1.44,2.39-2.14,3.79s-1.47,2.89-2.24,4.47a91.53,91.53,0,0,0-4,10.72,145.21,145.21,0,0,0-4.3,20.33c-.38,2.57-.68,4.69-.9,6.25-.1.68-.18,1.24-.25,1.7a1.88,1.88,0,0,1-.13.58,1.94,1.94,0,0,1,0-.59c0-.46.09-1,.14-1.72.14-1.49.38-3.64.72-6.28a130.62,130.62,0,0,1,4.2-20.45,87.71,87.71,0,0,1,4.09-10.75c.76-1.61,1.49-3.12,2.23-4.47s1.51-2.64,2.24-3.78c1.44-2.24,2.67-4,3.6-5.21l1.06-1.36A2.8,2.8,0,0,1,187.72,251.81Z"/><g class="cls-6"><path d="M189.1,288.67c-.37-1.19-.84-2.52-2-3-.9-.37-.54.21-1.43.59-8.39,3.46-12.44,11.19-16,20l.2-.21a3.5,3.5,0,0,0,1.37,4.06c1.89,1.12,4.32.51,6.26-.5s3.73-2.41,5.85-2.94c4.59-1.19,9.16,1.95,12.41,5.42s6.15,7.58,10.57,9.29A102,102,0,0,1,189.1,288.67Z"/></g><path class="cls-5" d="M169,306.87a53,53,0,0,1,3.55-7.11,53.87,53.87,0,0,1,5.32-7.65,31.06,31.06,0,0,1,4.19-4.08,13.89,13.89,0,0,1,5.9-2.83h.17l.07.17c1.39,3.65,2.87,7.65,4.58,11.85a94.1,94.1,0,0,0,6.25,12.95,63.07,63.07,0,0,0,9.62,12.44,78.85,78.85,0,0,0,13.16,10.44c1.63.95,3.19,2,4.81,2.87l4.84,2.58h-.29l8.08-5.59,3.91-2.7c1.3-.88,2.56-1.77,3.76-2.7a99.74,99.74,0,0,0,12.53-11.78h0A47.36,47.36,0,0,0,271,303.16a43.13,43.13,0,0,0,5.18-12,44.54,44.54,0,0,0,1.32-8.35c.07-1,0-1.73.08-2.23a1.82,1.82,0,0,0,0-.76v3a41.09,41.09,0,0,1-1.19,8.41,42.86,42.86,0,0,1-5.11,12.19,47.49,47.49,0,0,1-11.46,12.72h0A99.53,99.53,0,0,1,247.23,328c-1.21.95-2.47,1.84-3.77,2.72l-3.91,2.71L231.47,339l-.13.1-.16-.08-4.86-2.59c-1.64-.89-3.21-1.91-4.83-2.87A78.09,78.09,0,0,1,208.21,323a62.75,62.75,0,0,1-9.67-12.56,93,93,0,0,1-6.19-13.08c-1.7-4.23-3.15-8.23-4.53-11.89l.24.13a13.67,13.67,0,0,0-5.74,2.72,31.4,31.4,0,0,0-4.16,4,56.23,56.23,0,0,0-5.38,7.55c-1.31,2.24-2.23,4-2.83,5.16l-.68,1.37A1.83,1.83,0,0,1,169,306.87Z"/><path class="cls-5" d="M294,279.34a111.61,111.61,0,0,1-.8,17.05,129.21,129.21,0,0,1-3.42,18.31,154.59,154.59,0,0,1-7.4,21.67l-.42,1-.14-1.12c-.08-.65-.13-1.35-.24-2.07a59.57,59.57,0,0,0-2.79-11.78q-1-2.79-2.15-5.37c-.39-.86-.8-1.7-1.23-2.53a15.56,15.56,0,0,0-1.36-2.33,4.56,4.56,0,0,0-2-1.61,2.26,2.26,0,0,0-2.24.43,16.18,16.18,0,0,0-1.7,1.81l-1.62,1.85-5.91,6.71-8.6,9.74-2.3,2.68-.62.67-.23.21.18-.25.59-.71,2.23-2.7,8.46-9.87,5.86-6.8c.53-.61,1.11-1.23,1.61-1.86a17.4,17.4,0,0,1,1.76-1.88,2.73,2.73,0,0,1,2.7-.52,5,5,0,0,1,2.17,1.78,16.17,16.17,0,0,1,1.43,2.4c.42.83.85,1.68,1.24,2.54.8,1.74,1.53,3.55,2.24,5.42a60.81,60.81,0,0,1,2.82,11.92c.11.71.16,1.43.24,2.09l-.56-.08a159.82,159.82,0,0,0,7.43-21.58,137.86,137.86,0,0,0,3.52-18.22c.65-5.23.92-9.5,1-12.44.08-1.47.08-2.61.11-3.35v-.89A.55.55,0,0,1,294,279.34Z"/><path class="cls-5" d="M210.59,248.44s0,.09-.16.22l-.54.61c-.49.51-1.12,1.33-2,2.39a44.48,44.48,0,0,0-5.37,10.07,64.76,64.76,0,0,0-4,16.35,65.64,65.64,0,0,0,.89,20.55,55,55,0,0,0,3.13,10.21,53.14,53.14,0,0,0,4.67,8.78,56.87,56.87,0,0,0,11.18,12.55c1.8,1.59,3.64,2.77,5.17,3.91a37.3,37.3,0,0,0,4.17,2.58l2.72,1.5.7.41a1,1,0,0,1,.24.15.59.59,0,0,1-.26-.1l-.73-.36-2.78-1.39c-1.19-.64-2.59-1.54-4.24-2.52a36.58,36.58,0,0,1-5.25-3.87,56.26,56.26,0,0,1-11.38-12.57,53.55,53.55,0,0,1-4.66-9,54.56,54.56,0,0,1-3.18-10.3,65.06,65.06,0,0,1-.85-20.74,63.93,63.93,0,0,1,4.16-16.44,42.69,42.69,0,0,1,5.59-10,25.46,25.46,0,0,1,2.07-2.34l.57-.57Z"/><path class="cls-5" d="M115.47,355.9a1.7,1.7,0,0,1,.22.31l.6,1h-.17c-.8-3.75-3-15.27-5.44-28.91-1.47-8.38-2.82-16-3.81-21.58-.45-2.71-.82-4.92-1.12-6.55-.1-.73-.19-1.31-.26-1.79a2.68,2.68,0,0,1,0-.63,4.37,4.37,0,0,1,.17.62c.1.46.22,1,.36,1.76.33,1.61.75,3.83,1.28,6.52,1,5.6,2.44,13.17,4,21.55,2.46,13.62,4.47,25.19,5,29l.09.57-.25-.51-.53-1.12C115.54,356.07,115.5,356,115.47,355.9Z"/><path class="cls-5" d="M112.77,353.6c-.14.06-3-5.6-6.29-12.65s-5.91-12.84-5.76-12.91,3,5.59,6.29,12.65S112.92,353.53,112.77,353.6Z"/><path class="cls-5" d="M219.73,479.05a1.42,1.42,0,0,1-.11-.35c-.07-.27-.15-.61-.25-1.05-.2-.93-.57-2.24-.86-4A101.69,101.69,0,0,1,217,458.42a145.51,145.51,0,0,1,1.21-22.57c1-8.46,2.74-17.66,4.73-27.28s4.3-18.68,6.25-26.95a128.6,128.6,0,0,0,3.59-22.23,81,81,0,0,0-.56-15.17c-.19-1.78-.49-3.15-.63-4.09l-.15-1.06a1.15,1.15,0,0,1,0-.37,1.45,1.45,0,0,1,.08.36c.06.27.14.61.23,1.05.16.93.5,2.24.73,4.08a78.31,78.31,0,0,1,.74,15.22,125.29,125.29,0,0,1-3.47,22.37c-1.93,8.28-4.31,17.32-6.21,27s-3.71,18.79-4.78,27.22a150.65,150.65,0,0,0-1.35,22.47,109.61,109.61,0,0,0,1.35,15.13c.26,1.78.6,3.13.75,4.07.08.43.15.79.19,1.06S219.73,479.05,219.73,479.05Z"/><path class="cls-5" d="M238.55,353c-.13-.09,1.79-3.17,3.94-7.09s3.7-7.2,3.86-7.14a9,9,0,0,1-.81,2.24c-.58,1.35-1.46,3.19-2.54,5.17s-2.16,3.7-3,4.92A9.29,9.29,0,0,1,238.55,353Z"/><g class="cls-6"><path d="M242.15,348.31A186.53,186.53,0,0,1,261,329.17c1.85-1.62,3.85-3.26,6.27-3.67,3-.49,6,1,8,3.22a27.49,27.49,0,0,1,4.56,7.7c2.93-7.2-.11-15.32-3.13-22.49-1-2.34-2.68-5.11-5.19-4.73a5.77,5.77,0,0,0-3.22,2.3A350.9,350.9,0,0,0,241.5,347"/></g><path class="cls-5" d="M284.88,114.32c-5.41-6.71-3.63-17.44,2.56-23.49s15.66-7.72,24.13-6.29a39.67,39.67,0,0,1,28.75,21.75c2.91,6.09,4.47,13.3,9.81,17.43,4.67,3.65,11.11,4,16.44,6.58,7.13,3.49,11.74,11,13.42,18.74s.64,15.87-1,23.66c-1.51,7.13-3.52,14.85-.46,21.46s10,10,14.54,15.41c8.66,10.21,6.71,27.59-4,35.62-3.42,2.56-7.73,4.47-9.37,8.45-1.48,3.6-.22,7.68-.3,11.57-.19,10.07-11.25,18.29-20.92,15.66-4.88-1.34-9.37-4.94-14.39-4.26s-8.31,5.29-12.31,8.28a21.67,21.67,0,0,1-27.24-2.05c-2.93-2.92-5.29-6.89-9.29-7.95s-8.2,1.23-12.3.67c-5.36-.73-8.88-6.05-10.47-11.18s-2-10.78-4.67-15.48c-3.53-6.22-10.24-9.68-15.83-14a54.83,54.83,0,0,1-4.7-82.64"/><path class="cls-7" d="M209.88,248.47a51.53,51.53,0,0,0-10.94,45.68c4,15.78,17.19,38.85,32.43,44.57,9.89-7.24,22.59-17.37,31.81-25.44,6-5.22,9.12-12.86,12.07-20.22,1.7-4.25,3.44-8.83,2.38-13.28-.8-3.28-3-6-5.35-8.44a68.38,68.38,0,0,0-59.2-19.75"/><path class="cls-7" d="M255.14,134.86h0a27.14,27.14,0,0,1,31-14.29l38.15,9.73c19.06,6.14,34,35.65,22.75,61.51-8.88,20.41-18,46.05-27.08,60.14-18.34,28.32-43.42,21.84-43.42,21.84L263,304l-55.32-51.88Z"/><path class="cls-5" d="M319.55,199.78c.72-.27,2.6,3.36,6.71,5.29s8.19,1.39,8.39,2.12c.11.33-.82,1-2.61,1.31a11.65,11.65,0,0,1-7-1.11,11.19,11.19,0,0,1-5-4.83C319.19,201,319.2,199.89,319.55,199.78Z"/><path class="cls-5" d="M276.35,180.11c.81-.16,2.66,3.81,7.11,6.58s9,2.84,9.14,3.61c.1.36-1,.88-3,.9a14.86,14.86,0,0,1-7.69-2.31,14,14,0,0,1-5.29-5.83C275.88,181.31,276,180.17,276.35,180.11Z"/><path class="cls-5" d="M294.66,222.29c.09-.24,2.89.46,7.37,1.8,1.12.36,2.23.61,2.74-.05a6.79,6.79,0,0,0,.69-3.5c.15-3,.3-6.23.45-9.59.76-13.58,1.8-24.6,2.35-24.54s.39,11.08-.36,24.68q-.31,5-.61,9.57c-.13,1.4-.05,3.1-1.3,4.47a3,3,0,0,1-2.48.79,8.18,8.18,0,0,1-1.93-.55C297.22,223.69,294.57,222.54,294.66,222.29Z"/><path class="cls-8" d="M276.57,273.89s-22.08-8.27-37-29.49c0,0,.84,25.9,33.62,37.09Z"/><path class="cls-5" d="M279.82,165.77c.69-1.11,5.06.41,10.48.89s10-.06,10.45,1.18c.2.6-.78,1.59-2.75,2.41a18.34,18.34,0,0,1-16-1.58C280.28,167.47,279.5,166.31,279.82,165.77Z"/><path class="cls-5" d="M328.57,178.08c1.4,0,3.15,3.47,6.17,6.79s6.14,5.6,5.94,7c-.14.63-1.31.91-3.17.36a14.58,14.58,0,0,1-6.32-4.31,14.34,14.34,0,0,1-3.43-6.8C327.47,179.23,327.91,178.12,328.57,178.08Z"/><path class="cls-8" d="M285,234s2.6-1.35,1.39-6.34-7.54-9.5-11.55-5.39c0,0-4.05.3-2.46,5s10.82,11.27,12.54,7.51"/><path class="cls-5" d="M283.45,237.79c-.74-.13.38-5-3-9.41s-8.66-5.09-8.54-5.78c0-.33,1.38-.68,3.58-.23a12.38,12.38,0,0,1,7.18,4.55,10.81,10.81,0,0,1,2.18,7.83C284.6,236.82,283.78,237.89,283.45,237.79Z"/><path class="cls-5" d="M222.51,119a23.89,23.89,0,0,0-9.17,19.54c.17,4.18,1.19,9.11-1.89,12s-8.07,1.33-12.3,1.36A15.85,15.85,0,0,0,184,165.42c-.3,2.63,0,5.49-1.3,7.82s-4.22,3.46-6.59,4.9a19.73,19.73,0,0,0,.66,34.13c2.74,1.51,5.94,2.46,7.94,4.87,2.24,2.76,2.37,6.71,3.5,10.06a16.58,16.58,0,0,0,31.41.23"/><path class="cls-5" d="M284.4,108.27a23.61,23.61,0,0,0,14.67,30,23,23,0,0,0,4.24,1c5.3.77,11.63.1,15.06,4.23,3.6,4.34,1.46,11.25,4.31,16.13,4.06,6.94,11,12.49,17.58,17.14,5.09,3.59-.72,13.58,1.49,19.39s11.33,19.09,17.55,19.33c1.36-5.2,9.1-28,9.23-33.42s-1.11-11-4.4-15.19c-1.82-2.31-4.22-4.16-5.79-6.64-3.42-5.38-2.24-12.3-3.36-18.6a25.83,25.83,0,0,0-14.54-18.74c-6.2-2.84-13.49-3.15-19.22-6.86-4.24-2.74-7.27-7.11-11.67-9.59-8.55-4.83-19.26-1.12-28.11,3.13"/><path class="cls-5" d="M243.17,173.24c-.88-.59-6.71,3.85-1,7.4,10.14,6.19,18.85-14.77,18.48-21.73,5.17-2.24,10.39-4.4,14.95-7.83S287,136.34,288.2,130.59c3.89,1.58,22.64,1.72,21,.59-3.7-2.56-11.19-8.05-12.18-12.3-2.16-9.34-8.79-17.47-17.56-19.9A21.81,21.81,0,0,0,255.33,109c-10.44-3.44-22.81-.35-31.13,7.83a36.37,36.37,0,0,0-9.92,32.36c.61,3,1.61,6.09.66,9-1.18,3.65-4.85,5.59-7.77,8-7.95,6.46-11.37,17.9-10.4,28.15s2.74,14.38,7.83,18.11c10,7.27-10.75,25.85,7.83,32.14"/><path class="cls-9" d="M381.7,244.31c0-.06.66-.46,1.74-1.47a15.79,15.79,0,0,0,3.75-5.26,16,16,0,0,0,1-10c-.87-3.91-3.82-7.62-7.75-10.79s-8.85-6.21-12.4-11.39-4.2-12.3-3.06-19,4-13.42,5.77-20.48A38.66,38.66,0,0,0,372.17,155a21.7,21.7,0,0,0-2.93-10.66,19.7,19.7,0,0,0-8.32-7.21,38.49,38.49,0,0,0-10.51-3.2,76.52,76.52,0,0,1-10.74-2.06,13.38,13.38,0,0,1-8.35-6.59c-1.63-3.2-2-6.58-2.69-9.66a19.47,19.47,0,0,0-3.62-8.21,22.41,22.41,0,0,0-13.77-8.16A23.54,23.54,0,0,0,298,100.87a30.13,30.13,0,0,0-8.59,5.59,45.82,45.82,0,0,0-5.68,6.76,2.83,2.83,0,0,1,.25-.53,14.75,14.75,0,0,1,.86-1.49A28,28,0,0,1,289,106a30.22,30.22,0,0,1,8.66-5.92,24.32,24.32,0,0,1,13.77-1.87,23.39,23.39,0,0,1,14.48,8.48,20.53,20.53,0,0,1,3.92,8.67c.74,3.15,1.12,6.46,2.63,9.33a12.1,12.1,0,0,0,7.58,5.86,72.75,72.75,0,0,0,10.54,2,39.81,39.81,0,0,1,10.93,3.36,21.21,21.21,0,0,1,8.95,7.75,23.09,23.09,0,0,1,3.13,11.38,40.46,40.46,0,0,1-1.43,11.32c-1.89,7.19-4.73,13.75-5.84,20.34s-.58,13.22,2.73,18.08,8.21,7.9,12.06,11.28,7,7.22,7.83,11.39a16.34,16.34,0,0,1-1.33,10.39,15,15,0,0,1-4.06,5.25A7.77,7.77,0,0,1,381.7,244.31Z"/><path class="cls-9" d="M347.35,176.79c.13.05-.54,1.6-1.23,4.53a33.19,33.19,0,0,0-.39,12.6,31,31,0,0,0,2.53,8.31,41.48,41.48,0,0,0,5.48,8.39,24.5,24.5,0,0,1,3,4.8,11.83,11.83,0,0,1,1.06,5.92c-.33,4.16-2.37,7.83-3.9,11.62s-2.49,7.71-1,11.19,4.12,6.08,6.64,8.58a34.33,34.33,0,0,1,6.57,8,12.37,12.37,0,0,1,1.12,9,14.94,14.94,0,0,1-8,10,11.85,11.85,0,0,1-3.41.95,4.22,4.22,0,0,1-1.23,0,22.71,22.71,0,0,0,4.4-1.46,14.65,14.65,0,0,0,7.23-9.69,11.52,11.52,0,0,0-1.11-8.2,33.21,33.21,0,0,0-6.45-7.58c-2.52-2.5-5.46-5.18-7-9.05a12.49,12.49,0,0,1-.75-6.2,24.27,24.27,0,0,1,1.77-6.05c1.57-3.85,3.52-7.44,3.81-11.18s-1.58-7-3.69-9.82a41.09,41.09,0,0,1-5.5-8.7,32.1,32.1,0,0,1-1.58-21.55,21.9,21.9,0,0,1,1.2-3.35A3.75,3.75,0,0,1,347.35,176.79Z"/><path class="cls-9" d="M179.56,211.89a3.72,3.72,0,0,1-.64-.47,12,12,0,0,1-1.63-1.64,17.5,17.5,0,0,1-3.71-7.95,17.06,17.06,0,0,1,2.74-13.28,18.43,18.43,0,0,1,15.73-7.7l-.61.83A28.27,28.27,0,0,1,189.55,170a14.9,14.9,0,0,1,6-11.18,11.2,11.2,0,0,1,6.54-2.24,16.54,16.54,0,0,1,6.77,1.92,26.2,26.2,0,0,0,6.23,2.41,6.7,6.7,0,0,0,5.91-1.75,13.06,13.06,0,0,0,3.67-8.8c.26-3.29-.06-6.64.29-10a28,28,0,0,1,8.23-17,26.68,26.68,0,0,1,15.14-7.35,27.43,27.43,0,0,1,14.22,1.78l-.63.25a14.64,14.64,0,0,1,7.7-7.06,16,16,0,0,1,7.75-1.12,13.32,13.32,0,0,1,4.7,1.36,6.48,6.48,0,0,1,1.42.94,17.24,17.24,0,0,0-6.17-1.77,15.93,15.93,0,0,0-7.4,1.34,13.85,13.85,0,0,0-7.1,6.76l-.2.42-.44-.17a26.82,26.82,0,0,0-13.68-1.53,25.68,25.68,0,0,0-14.37,7.13,26.74,26.74,0,0,0-7.75,16.14c-.32,3.16,0,6.5-.26,10a14.42,14.42,0,0,1-4.12,9.75,8.24,8.24,0,0,1-7.15,2.13,27.62,27.62,0,0,1-6.63-2.54,15.09,15.09,0,0,0-6.15-1.8,9.79,9.79,0,0,0-5.72,1.95,13.53,13.53,0,0,0-5.48,10.19,27.37,27.37,0,0,0,1.72,11.12l.31.87H192a17.46,17.46,0,0,0-14.84,7.06,16.4,16.4,0,0,0-2.85,12.57,17.89,17.89,0,0,0,3.35,7.83C178.79,211.13,179.62,211.83,179.56,211.89Z"/><path class="cls-9" d="M283.9,116.69c.07.26-2.24-.11-5,2s-5.34,6.91-6.07,13.13l-.05.52h-.54a20.06,20.06,0,0,0-16.46,6.88,15.55,15.55,0,0,0-2.65,4.47,30.33,30.33,0,0,0-1.12,5.42,41.5,41.5,0,0,1-1.12,5.84,9.74,9.74,0,0,1-3.52,5.29c-3.71,2.9-8.28,3.36-12.3,4a35,35,0,0,0-11.18,2.9,25.89,25.89,0,0,0-12.94,13.94,27.09,27.09,0,0,0-1.54,13c.41,3.13,1.12,4.79.93,4.83a4.48,4.48,0,0,1-.55-1.17,23.13,23.13,0,0,1-.93-3.57,26.35,26.35,0,0,1,1.11-13.49,26.73,26.73,0,0,1,13.32-14.87,36,36,0,0,1,11.56-3.1c4-.63,8.3-1.19,11.55-3.75,3.2-2.24,3.54-6.49,4.16-10.22a31.24,31.24,0,0,1,1.24-5.66,17.13,17.13,0,0,1,2.93-4.87,21.1,21.1,0,0,1,17.61-7.08l-.59.49c.89-6.47,3.62-11.48,6.8-13.52a8.7,8.7,0,0,1,3.92-1.46A4.83,4.83,0,0,1,283.9,116.69Z"/><path class="cls-7" d="M245.33,176.45c3.19-6.24-1.12-14.1-8.11-14.09-3.86,0-8,2.11-11.44,8.7-9.18,17.61,10.39,23.2,10.68,22.71C236.64,193.46,241.59,183.78,245.33,176.45Z"/><path class="cls-8" d="M234.56,184.29c0-.1-.41.06-1.12,0a3.4,3.4,0,0,1-2.31-1.12c-1.5-1.65-1.54-5.42,0-8.63a11.08,11.08,0,0,1,3.14-3.95,4,4,0,0,1,3.53-1.11,1.76,1.76,0,0,1,1.38,1.78c0,.62-.32.91-.25,1s.54-.1.77-.9a2.15,2.15,0,0,0,0-1.46,2.57,2.57,0,0,0-1.47-1.33,4.86,4.86,0,0,0-4.63,1.05A11.91,11.91,0,0,0,230,174c-1.73,3.61-1.64,7.83.52,9.94a3.74,3.74,0,0,0,3,1C234.31,184.7,234.6,184.36,234.56,184.29Z"/><path class="cls-8" d="M339.29,307.06a13.57,13.57,0,0,1,.17-1.75c.17-1.17.32-2.9.57-5.14.51-4.53,1.27-11.18,2.23-19.65l.11.16A14,14,0,0,1,337.6,278a13,13,0,0,1-3.58-4.73,18.34,18.34,0,0,1-1.32-6.25c-.12-2.24-.18-4.51-.15-6.82.1-9.37.82-19.86,1.89-31.25v.09c-1.76-5.52-3.71-11.35-6.14-17.25-.62-1.48-1.27-3-2-4.4a35.3,35.3,0,0,1-2.15-4.47,9.22,9.22,0,0,1-.27-2.56,9.05,9.05,0,0,1,.38-2.58,3.79,3.79,0,0,1,1.57-2.15,7.59,7.59,0,0,1,1.19-.56l1.19-.49.2-.08.12.18,14,20.56-.52.11a21.29,21.29,0,0,0-.07-5.17,44.1,44.1,0,0,0-.89-5.24A81.72,81.72,0,0,0,338,194.59c-1.23-3.45-2.79-6.81-4.3-10.26a9.23,9.23,0,0,1-.6-5.7,8.41,8.41,0,0,1,3.2-4.83l-.12.22a20.85,20.85,0,0,1,1.18-5.05,10.25,10.25,0,0,1,1.32-2.38,4.68,4.68,0,0,1,2.24-1.73l.18-.06.12.18.26.38,21.42,32.26-.52.19A115.6,115.6,0,0,0,360,185c-.25-1-.54-2.06-.88-3.05a8.83,8.83,0,0,1-.54-3.22,7,7,0,0,1,3.17-5.47l.23-.16.15.26,8.67,15h0q1.91,14,3.65,26.73h0c-.15,13.84-.23,26.51-.21,37.72,0,5.59,0,10.84.17,15.65.07,2.42.2,4.72.42,6.94s.33,4.32.46,6.33c.53,8,.84,14.29,1.06,18.57.11,2.14.18,3.77.23,4.89s.05,1.68.05,1.68-.05-.57-.12-1.68-.18-2.75-.3-4.88c-.27-4.28-.64-10.57-1.2-18.57-.14-2-.29-4.11-.48-6.32s-.39-4.53-.46-6.95c-.15-4.85-.2-10.06-.23-15.65-.06-11.19,0-23.88.13-37.72h0q-1.75-12.69-3.7-26.72v.09l-8.69-15,.38.1a6.5,6.5,0,0,0-2.89,5,8.38,8.38,0,0,0,.51,3c.35,1,.65,2,.91,3.09a116.62,116.62,0,0,1,2.31,12.86l.16,1.22-.68-1-21.44-32.25-.25-.38.3.12a4.23,4.23,0,0,0-1.9,1.52,9.58,9.58,0,0,0-1.23,2.24,20.51,20.51,0,0,0-1.12,4.9v.12l-.11.09a7.86,7.86,0,0,0-3,4.47,8.71,8.71,0,0,0,.58,5.35c1.49,3.41,3.06,6.81,4.29,10.28a81.25,81.25,0,0,1,3.16,10.46,45.45,45.45,0,0,1,.93,5.44,22.63,22.63,0,0,1,.06,5.33l-.1.72-.41-.61L328.1,195l.32.09c-.77.35-1.66.64-2.32,1a3.29,3.29,0,0,0-1.34,1.88,8.57,8.57,0,0,0-.35,2.41,8.89,8.89,0,0,0,.24,2.41,36.41,36.41,0,0,0,2.1,4.47c.74,1.47,1.4,2.95,2,4.48,2.43,5.93,4.37,11.76,6.11,17.31v.09c-1.11,11.37-1.83,21.85-2,31.21,0,2.33,0,4.6.13,6.79a17.76,17.76,0,0,0,1.26,6.14,13.45,13.45,0,0,0,8.11,7.22h.12v.11c-1,8.49-1.84,15.11-2.39,19.63l-.64,5.13C339.39,306.47,339.29,307.06,339.29,307.06Z"/><path class="cls-8" d="M355.84,217.47a10.6,10.6,0,0,1-.4-1.84c-.21-1.2-.57-2.92-1.05-5a84.53,84.53,0,0,0-5.54-16,107.67,107.67,0,0,0-8.44-14.71c-1.21-1.8-2.24-3.25-2.92-4.24a15,15,0,0,1-1-1.59,11.28,11.28,0,0,1,1.22,1.45c.76.95,1.82,2.36,3.09,4.14a95,95,0,0,1,8.62,14.71,76.49,76.49,0,0,1,5.41,16.15c.42,2.13.74,3.88.87,5.09A9.9,9.9,0,0,1,355.84,217.47Z"/><path class="cls-8" d="M367.47,209.14a35.82,35.82,0,0,1-2.74-5.81,34.39,34.39,0,0,1-2.23-6,36.47,36.47,0,0,1,2.72,5.8A36.25,36.25,0,0,1,367.47,209.14Z"/><g class="cls-6"><path d="M340.48,295l.41-3.54c-4.26.4-9.5.9-12.9,3.5-4,3-5.59,8.18-6.86,13-3,10.94,5.59,67.25,5.14,78.6,3.77-1.6,6.43-25.72,7.1-29.82,1.66-9.85-1.68-16-.67-18.75s1-5.74,1.07-8.66c.36-13.07,1.66-22.26,6.71-34.32"/></g><path class="cls-7" d="M326.46,195.61c-1.93.81-2.32,3.12-2.29,5.21,0,2.62.69,3,2.83,7.43,3.5,7.17,7.68,20.76,7.68,20.76s-3.43,34.34-1.12,42.4a13.69,13.69,0,0,0,8.95,9.14l-3.13,26.51h37.45s-1.33-25.72-2.13-33.55c-.85-8.27-.29-58.32-.29-58.32l-3.68-26.71-8.67-15a6.76,6.76,0,0,0-2.56,8.22c2,5.49,3.24,16,3.24,16l-21.68-32.63s-4.26,1-4.48,8.95c0,0-6.3,4.1-2.23,10.77,4.38,7.45,9.1,29.81,7.45,29.81l-13.42-19.76Z"/><path class="cls-1" d="M336.3,296.08h0c-6.57,58-15.13,119.77-25,183.92h76.24c14.33-31.74,5.59-59.43,1.74-98.89L376.74,291.5Z"/><path class="cls-5" d="M311.33,480a2.29,2.29,0,0,1,0-.37l.14-1.12c.14-1,.33-2.41.58-4.21.53-3.71,1.31-8.95,2.23-15.53,1.93-13.12,4.59-31.2,7.52-51.17s5.31-38.11,6.91-51.25c.82-6.58,1.43-11.89,1.85-15.57.21-1.81.38-3.23.5-4.24l.13-1.12a2.45,2.45,0,0,1,.08-.37v.37l-.09,1.12c-.09,1-.22,2.44-.39,4.25-.35,3.68-.89,9-1.67,15.59-1.48,13.15-3.85,31.31-6.71,51.3s-5.65,38-7.69,51.15c-1,6.51-1.86,11.79-2.44,15.49-.29,1.79-.52,3.2-.68,4.2-.08.45-.15.82-.19,1.12A2.33,2.33,0,0,1,311.33,480Z"/><g id="freepik--lighting-bolts--inject-2"><polygon class="cls-1" points="226.9 79.09 223.91 51.01 209.59 54.24 197.24 32.44 204.94 61.91 219.46 58.58 226.9 79.09"/><polygon class="cls-1" points="221.06 84.39 207.75 70.69 201.48 78.4 185.81 71.95 202.21 84.43 208.55 76.59 221.06 84.39"/><polygon class="cls-1" points="364.92 96.5 377.02 74.5 387.66 82.07 405.27 68.42 388.84 89.96 378.06 82.25 364.92 96.5"/><polygon class="cls-1" points="387.12 109.06 399.63 103.73 401.64 110.51 413.7 110.58 399.5 114.26 397.49 107.38 387.12 109.06"/></g><g id="freepik--Line--inject-2"><path class="cls-5" d="M285.17,31.38s.66-.42,2-1.21a54.79,54.79,0,0,1,6.08-3.05,59.17,59.17,0,0,1,25.83-4.72,44,44,0,0,1,4.45.37,27.36,27.36,0,0,1,4.65.85,18.66,18.66,0,0,1,4.59,1.86,10.33,10.33,0,0,1,3.76,3.61,7.89,7.89,0,0,1,.9,5.34,10.59,10.59,0,0,1-2.7,5,24.9,24.9,0,0,1-10.22,6.21,63.87,63.87,0,0,1-26.38,3.78,64.93,64.93,0,0,1-28.76-8.76l-.21-.13.14-.21A39.8,39.8,0,0,1,284.43,26.4a53.18,53.18,0,0,1,21.13-6,81.07,81.07,0,0,1,23.19,1.88c3.92.84,7.83,1.87,11.68,3.08a66.19,66.19,0,0,1,11.68,4.38,22.51,22.51,0,0,1,9.36,8.57,15.58,15.58,0,0,1,2,6.21A13.1,13.1,0,0,1,362.42,51,20.38,20.38,0,0,1,353,60.16a53,53,0,0,1-12.79,4.48,133.47,133.47,0,0,1-56.27,1.46c-1.21-.2-2.39-.5-3.61-.74s-2.39-.53-3.59-.84a49,49,0,0,1-7.11-2.17,24.08,24.08,0,0,1-6.49-3.81,11.16,11.16,0,0,1-3.93-6.5,10.32,10.32,0,0,1,1.63-7.46,20.58,20.58,0,0,1,5.45-5.44A40.46,40.46,0,0,1,273,35.37c1.14-.59,2.34-1.1,3.52-1.59s2.38-1,3.61-1.46a91.65,91.65,0,0,1,30.8-5.84,92.94,92.94,0,0,1,16,1.11c1.32.2,2.65.42,4,.73s2.64.52,3.94.89a44.65,44.65,0,0,1,7.75,2.51,25.67,25.67,0,0,1,7,4.31A13.57,13.57,0,0,1,354,43l.22,1,.09,1.06a15,15,0,0,1,0,2.12,13,13,0,0,1-1.23,4,19.84,19.84,0,0,1-5.28,6.48,36.54,36.54,0,0,1-7,4.6c-1.24.66-2.53,1.21-3.81,1.75s-2.57,1.1-3.88,1.59A114.73,114.73,0,0,1,317,70.58,118,118,0,0,1,283,73.39,39.77,39.77,0,0,1,266.36,69a18.24,18.24,0,0,1-6.53-5.84,14,14,0,0,1-2.1-8.53A15.49,15.49,0,0,1,260,47.81a25.23,25.23,0,0,1,4.7-5.45,43.12,43.12,0,0,1,12.16-7.3,85.68,85.68,0,0,1,27.24-6.57,87.17,87.17,0,0,1,13.9.1c2.31.21,4.6.5,6.88.89a38.08,38.08,0,0,1,6.73,1.68,23.94,23.94,0,0,1,6.19,3.1,12.46,12.46,0,0,1,4.47,5.3,9.63,9.63,0,0,1,.22,6.89,13.64,13.64,0,0,1-3.87,5.68c-3.51,3.09-8,4.38-12.34,5.44s-8.66,2.06-13,3a188.06,188.06,0,0,1-25.94,4.16,93.67,93.67,0,0,1-25.73-1.22A62.83,62.83,0,0,1,238.38,54l-.38-.25.34-.3a81.25,81.25,0,0,1,42-19,80.08,80.08,0,0,1,43.55,5.44,21.57,21.57,0,0,1,4.56,2.92,10.65,10.65,0,0,1,3.17,4.38,7.6,7.6,0,0,1-.27,5.41,10.93,10.93,0,0,1-3.44,4.1,32.47,32.47,0,0,1-9.46,4.38,66.88,66.88,0,0,1-10,2.36,64.79,64.79,0,0,1-20,0,9.8,9.8,0,0,1-4.61-1.65,4.84,4.84,0,0,1-1.68-4.6,8.42,8.42,0,0,1,2.6-4.16,17.14,17.14,0,0,1,3.94-2.76,69,69,0,0,1,35.48-5.62,32.51,32.51,0,0,1,8.42,1.94,15.34,15.34,0,0,1,6.82,5,11.39,11.39,0,0,1,2.28,7.9,10.8,10.8,0,0,1-4.09,6.85,41,41,0,0,1-6.51,4.23,61.51,61.51,0,0,1-6.92,3.27,66.26,66.26,0,0,1-14,3.87A64.69,64.69,0,0,1,284,76.58h-.27l.16-.22a31.48,31.48,0,0,1,14.6-10.9,31,31,0,0,1,15.94-1.58,16.23,16.23,0,0,1,6.74,2.54,8.88,8.88,0,0,1,2.38,2.43,7.2,7.2,0,0,1,1.08,3.08,8.75,8.75,0,0,1-1.6,5.75,16.24,16.24,0,0,1-3.77,3.9,32.21,32.21,0,0,1-8.07,3.91,44.62,44.62,0,0,0-5.87,2.61,16.8,16.8,0,0,0-3.18,2.29c-.33.3-.54.54-.71.7l-.23.24c.29-.34.59-.67.91-1A16.41,16.41,0,0,1,305.22,88a42.16,42.16,0,0,1,5.84-2.68,33.15,33.15,0,0,0,8-3.94,15.64,15.64,0,0,0,3.7-3.87,8.45,8.45,0,0,0,1.55-5.59A6.61,6.61,0,0,0,323.26,69a7.88,7.88,0,0,0-2.32-2.35,15.8,15.8,0,0,0-6.63-2.47,30.75,30.75,0,0,0-15.78,1.59A31.23,31.23,0,0,0,284.11,76.6l-.1-.29a64.68,64.68,0,0,0,26.1,1.08,66.31,66.31,0,0,0,14-3.89A64.32,64.32,0,0,0,331,70.29a41.12,41.12,0,0,0,6.47-4.23,10.44,10.44,0,0,0,3.91-6.54A10.86,10.86,0,0,0,339.09,52a14.77,14.77,0,0,0-6.55-4.83,31.14,31.14,0,0,0-8.28-2A68.11,68.11,0,0,0,289,50.79a15.91,15.91,0,0,0-3.8,2.65,8,8,0,0,0-2.38,3.87,4.23,4.23,0,0,0,1.46,4,9.26,9.26,0,0,0,4.38,1.74,64.68,64.68,0,0,0,19.74,0,67.15,67.15,0,0,0,9.89-2.37,31.29,31.29,0,0,0,9.27-4.38,10.33,10.33,0,0,0,3.24-3.85,7,7,0,0,0,.23-4.94,9.74,9.74,0,0,0-2.92-4.13,20.15,20.15,0,0,0-4.38-2.92A79.47,79.47,0,0,0,280.46,35a80.66,80.66,0,0,0-41.62,19v-.57a62.28,62.28,0,0,0,23,9.38A92.54,92.54,0,0,0,287.38,64a189.8,189.8,0,0,0,25.84-4.2c4.38-1,8.64-2,13-3s8.76-2.32,12-5.27a12.79,12.79,0,0,0,3.58-5.42,9,9,0,0,0-.22-6.38,11.66,11.66,0,0,0-4.21-5,23.07,23.07,0,0,0-6-3,36.61,36.61,0,0,0-6.61-1.6c-2.25-.39-4.53-.68-6.8-.89a87.1,87.1,0,0,0-13.8-.08,84.59,84.59,0,0,0-27,6.51,42.13,42.13,0,0,0-12,7.18c-3.45,3.07-6.43,7.11-6.81,11.78a13.26,13.26,0,0,0,2,8,17.49,17.49,0,0,0,6.25,5.59A38.89,38.89,0,0,0,283,72.64a117.52,117.52,0,0,0,33.71-2.77A116.33,116.33,0,0,0,332.75,65c1.3-.5,2.58-1,3.86-1.58s2.54-1.09,3.77-1.74a36.5,36.5,0,0,0,6.86-4.49,19.46,19.46,0,0,0,5.09-6.24,12.26,12.26,0,0,0,1.16-3.79,13.22,13.22,0,0,0,0-2l-.09-1-.21-1a12.85,12.85,0,0,0-4.11-6.61,25.18,25.18,0,0,0-6.82-4.18,45.43,45.43,0,0,0-7.64-2.48c-1.3-.35-2.61-.61-3.92-.89s-2.62-.51-3.95-.72a91.93,91.93,0,0,0-46.41,4.67c-1.21.43-2.39.91-3.57,1.46s-2.36,1-3.49,1.58a41.2,41.2,0,0,0-6.65,3.71,19.82,19.82,0,0,0-5.25,5.24,9.66,9.66,0,0,0-1.55,7A10.55,10.55,0,0,0,263.52,58a23.3,23.3,0,0,0,6.31,3.7,46.58,46.58,0,0,0,7,2.14c1.19.31,2.37.6,3.56.84s2.38.54,3.58.74a133.14,133.14,0,0,0,56-1.46,51.75,51.75,0,0,0,12.64-4.38c3.87-2,7.48-4.91,9.23-8.86a12.55,12.55,0,0,0,1-6.19,14.9,14.9,0,0,0-2-6,22.18,22.18,0,0,0-9.11-8.33,67,67,0,0,0-11.51-4.38c-3.9-1.21-7.79-2.25-11.68-3.08a80.44,80.44,0,0,0-23-1.9,52.55,52.55,0,0,0-20.91,6,39.35,39.35,0,0,0-15,13.73l-.09-.34a64.56,64.56,0,0,0,54.78,5.11,24.59,24.59,0,0,0,10.15-6.12,10.44,10.44,0,0,0,2.64-4.83,7.5,7.5,0,0,0-.86-5.12,9.88,9.88,0,0,0-3.64-3.51,18.54,18.54,0,0,0-4.52-1.85,28.89,28.89,0,0,0-4.6-.86c-1.46-.21-2.92-.31-4.38-.38a59.45,59.45,0,0,0-25.77,4.63,56.88,56.88,0,0,0-6.1,2.92C285.86,31,285.17,31.38,285.17,31.38Z"/></g><g class="cls-6"><path d="M180.12,273.07l.72-3.74c4.21,1.79,9.37,4,12,7.73,3.06,4.36,3,10.13,2.79,15.43-.44,12.11-27.4,66.61-30.61,78.3-3.32-2.84,1.76-28.24,2.4-32.62,1.5-10.56,6.88-15.74,6.74-18.87s.85-6.15,1.71-9.14c3.85-13.42,5.5-23.19,4.26-37.09"/></g><path class="cls-7" d="M226.49,176.44c1.7,1.45,1.35,3.93.64,6.05-.84,2.66-1.68,2.87-5.27,6.64-5.88,6.16-14.52,18.64-14.52,18.64s-7.6,36-12.56,43.49a14.53,14.53,0,0,1-12.05,6.41l-5.38,28-38.1-12.1s9.66-25.74,13-33.44c3.54-8.14,19.13-59.24,19.13-59.24l12.37-26,13.66-12.47a7.21,7.21,0,0,1,0,9.19c-3.76,4.95-8.47,15.27-8.47,15.27l32.59-26.2s4,2.41,1.67,10.55c0,0,5.09,6.21-1.21,11.68-6.86,6.16-18.89,27.39-17.2,27.92l20-15.77Z"/><path class="cls-1" d="M184,275.48h0C172,336.63,161.51,390,150.81,458.41L72.48,446c-4.34-36.92,13.5-62.26,30.16-101.17l41.73-87.11Z"/><path class="cls-1" d="M77.48,461.67A27.94,27.94,0,0,0,92.9,471.88,49,49,0,0,0,103.71,473c8.68.2,18-.35,24.94-5.57,3.55-2.66,6.18-6.34,8.53-10.09,3.89-6.23,7.2-12.92,8.79-20.09a25.86,25.86,0,0,0,.55-9.71c-2,1.95-4.6,3-7.17,4a67,67,0,0,1-10.74,3.5c-5,1-10.12.92-15.2.85-8.89-.13-17.79-.15-26.68-.17-3.9,0-8.12-.15-11.88,1.06-2.8.9-2.73,2.46-2.85,5.12C71.68,449.08,73.09,455.86,77.48,461.67Z"/></svg>