<svg id="_1" data-name="1" xmlns="http://www.w3.org/2000/svg" viewBox="0 0 580 480"><defs><style>.cls-1{fill:#ebebeb;}.cls-2{fill:#e0e0e0;}.cls-3{fill:#ffbe9d;}.cls-4{fill:#eb996e;}.cls-5{fill:#009e9e;}.cls-6{fill:#fff;}.cls-7{fill:#455a64;}.cls-8{fill:#263238;}.cls-9{fill:#20e57e;}.cls-10{opacity:0.3;}.cls-11{fill:#fafafa;}</style></defs><g id="freepik--background-complete--inject-2"><path class="cls-1" d="M43.3,230.9s-13.8,2.2-5.4,32.3S53,309,53,309s1.2,6.8-4.3,6.7-16.9-4.4-20.7,1.6-.2,13.7,8.6,21.4,27.5,25,29.3,26.6,2.9,4.9-.8,5.5-30.9-2.2-31.4,10.7,27.6,30.2,30.6,32.1,3.5,3.5,2.9,5.3-9.6,0-17.4-.5-16.7.4-16.3,7.9,15.2,26,58,39.3l20.2,4.8,14.6-14.9c29.4-33.8,32.2-57.5,28.5-64s-11.8-2.5-18.1,2-13,10.7-14.5,9.5-1.8-2.7-.3-6,16.3-32.7,9.1-43.4-28.8,5.8-32.2,7.4-4.2-2-3.6-4.1,7.3-27,10.7-38.2,2.6-19.3-3.9-22.6-13.8,6.4-18.4,9.5-7.3-3.5-7.3-3.5S74,285.4,65.2,255.3,43.1,231,43.1,231"/><path class="cls-2" d="M111.8,475.4c-6.5-22-17.2-61.4-26.6-95.2s-17.9-64.4-24.3-86.5c-3.1-11-5.7-20-7.4-26.2l-2.1-7.1-.5-1.8a3.2,3.2,0,0,1-.1-.7,1.5,1.5,0,0,0,.2.6c.1.5.3,1.1.5,1.9s1.3,4,2.2,7.1c1.9,6.2,4.5,15,7.7,26.1,6.4,22,15,52.6,24.4,86.4s20.1,73.2,26.4,95.3"/><path class="cls-2" d="M43.7,323.9l1.3.7,3.5,2.1c3,1.8,7,4.5,11.3,7.5L71,341.8l3.4,2.3a4.7,4.7,0,0,1,1.2.9l-1.3-.7-3.5-2.1-11.3-7.5-11.1-7.5L45,324.9Z"/><path class="cls-2" d="M77.2,343.9c-.1-.1,4.9-8.5,11.2-18.9s11.7-18.7,11.8-18.6-4.8,8.6-11.2,19S77.4,344,77.2,343.9Z"/><path class="cls-2" d="M89.3,396.5a5.7,5.7,0,0,1,1.1-1.1l3.1-2.8c2.6-2.4,6.2-5.7,10-9.5s7.2-7.3,9.6-9.9l2.8-3a11.4,11.4,0,0,1,1.1-1.1,2.7,2.7,0,0,1-.9,1.2c-.6.8-1.5,1.9-2.7,3.2s-5.6,6.2-9.5,10.1-7.4,7-10.1,9.3l-3.3,2.6A4,4,0,0,1,89.3,396.5Z"/><path class="cls-2" d="M55,385l1.4.4,3.7,1,12.2,3.7,12.1,4,3.6,1.2,1.3.6-1.4-.2-3.7-1.1-12.1-3.8L60,386.9l-3.7-1.3A3.1,3.1,0,0,1,55,385Z"/><path class="cls-2" d="M59.8,432.8l1.8.4,4.7,1.4c4,1.1,9.6,2.8,15.6,4.7l15.6,4.9,4.7,1.6,1.7.6a5.8,5.8,0,0,1-1.8-.4l-4.7-1.3L81.8,440l-15.6-5-4.7-1.5Z"/><path class="cls-2" d="M102.9,445.8a10,10,0,0,1,1.4-1.5l3.8-3.7c3.2-3.1,7.6-7.4,12.3-12.4s8.9-9.4,11.9-12.7l3.5-4a9.3,9.3,0,0,1,1.4-1.4l-1.2,1.6c-.8,1-1.9,2.4-3.4,4.1-2.9,3.4-7,8-11.8,12.9s-9.1,9.2-12.4,12.3l-4,3.5A6.4,6.4,0,0,1,102.9,445.8Z"/></g><g id="freepik--character-1--inject-2"><path class="cls-3" d="M542.8,260.1c-1.2-.4-5.1.4-9.4,1.5,6.1-2.5,8.5-4.7,8-6.3s-15.5,1.3-22.3,3.3c5.6-1.8,16.4-5.3,18.6-6.7s-1.3-3.3-5-3.3-28.9,3.3-36.1,4c-4.9.4-5.1-4-5.1-4,1.1-10.4-3.7-19.1-6.1-20.8s-5.5.9-4.5,4,1,7.1.9,10.6a23.9,23.9,0,0,1-1.5,8.3c-1.1,3.1-2.2,5.6-3.2,7.8l-23.2,13.3-59.4,28s-81.2-46.1-84.2-48.4l-3,.6-20.4,44.3,96,57.3a21.6,21.6,0,0,0,21.7.2L474,311.1l27.4-16.6,8.8-5.7h0l21.4-14c8.9-4.3,12.2-6.7,11.3-8.3s-.7-1.4-17.9,4.1C525,270.7,549.5,262.6,542.8,260.1Z"/><path class="cls-4" d="M516,274.5c.2.5,5.5-1,12-3.2s11.6-4.5,11.4-4.9-5.5,1.1-11.9,3.3S515.9,274.1,516,274.5Z"/><path class="cls-4" d="M511.2,267.4c.1.5,5.9-.8,12.9-2.7s12.6-4,12.5-4.4-5.9.8-12.9,2.8S511,267,511.2,267.4Z"/><path class="cls-4" d="M507.4,261.3c.1.4,5.6-.6,12.3-2.5s11.9-3.5,11.8-4-5.6.7-12.3,2.5S507.2,260.9,507.4,261.3Z"/><path class="cls-5" d="M346.5,266.3s-53-37.5-59.7-41.2-26.6-6.1-28.4-6.5L222,210.7l-55.4,1.6-15.9,9.6-40.3,18.6a47.9,47.9,0,0,0-24.2,25.1L60.8,327.8l63.1,18.6,2,65.5L111.3,480H296l-9.7-162.6,19.2,4.2Z"/><path class="cls-6" d="M125,320.1l-1.9,1.2a17.5,17.5,0,0,1-5.9,2.2,22.2,22.2,0,0,1-9.2-1.4,69.1,69.1,0,0,1-10.5-4.5c-3.6-1.9-7-3.8-10.1-5.3a54.5,54.5,0,0,0-8.7-3.5,32.4,32.4,0,0,0-6.2-1.2l-1.7-.2h1.7a32.4,32.4,0,0,1,6.2,1.2,54.5,54.5,0,0,1,8.7,3.5c3.1,1.5,6.5,3.4,10.1,5.3a68,68,0,0,0,10.4,4.5,22.4,22.4,0,0,0,9.2,1.4,15.6,15.6,0,0,0,5.8-2.1,8.3,8.3,0,0,0,1.5-.9Z"/><path class="cls-6" d="M122.3,289.5h-1.6c-1.1,0-2.6-.2-4.4-.4a113.8,113.8,0,0,1-14.4-2.4,118.1,118.1,0,0,1-14-4.2c-1.8-.6-3.2-1.2-4.1-1.6l-1.1-.5h0l1.1.4,4.2,1.6a130.6,130.6,0,0,0,28.3,6.5l4.4.4h1.6Z"/><path class="cls-6" d="M162,225.1a14.3,14.3,0,0,1-1.4,2,33.1,33.1,0,0,1-5,4.9,43.8,43.8,0,0,1-8.8,5.3,97.8,97.8,0,0,1-11.8,4.3c-4.3,1.2-8.4,2.4-12,3.6a66.1,66.1,0,0,0-9.6,3.8,50.8,50.8,0,0,0-5.9,3.5l-1.5,1.1-.5.4,2-1.6a38.7,38.7,0,0,1,5.9-3.6,60.7,60.7,0,0,1,9.5-3.8c3.7-1.3,7.8-2.4,12-3.6a97.8,97.8,0,0,0,11.8-4.3,48.5,48.5,0,0,0,8.8-5.2,27.8,27.8,0,0,0,4.9-4.8c.6-.6.9-1.2,1.2-1.5Z"/><path class="cls-6" d="M275.6,233.5l-.5-.2-1.4-.8a34.3,34.3,0,0,0-5.2-2.3,59.3,59.3,0,0,0-8.3-2.1c-3.1-.6-6.7-1.1-10.3-1.6L231,223.9l-5.7-.9-1.5-.2h0l1.6.2,5.7.7,18.8,2.6c3.7.6,7.2,1,10.3,1.6a72.1,72.1,0,0,1,8.3,2.2,27.9,27.9,0,0,1,5.3,2.4Z"/><path class="cls-6" d="M249.9,246.1l-1.3.5-3.5,1.5c-3.2,1.2-7.7,2.9-13.5,4.6a142.8,142.8,0,0,1-20.6,4.6,158.2,158.2,0,0,1-25.8.9c-9.1-.3-17.8-.7-25.7-.2a76.3,76.3,0,0,0-20.7,3.7,49.9,49.9,0,0,0-12.7,6.2,31,31,0,0,0-3.1,2.3l-1,.9,1-.9c.6-.6,1.7-1.4,3-2.4a51.9,51.9,0,0,1,12.7-6.3,77.1,77.1,0,0,1,20.7-3.8c8-.5,16.7-.1,25.9.2A157.8,157.8,0,0,0,211,257a145.5,145.5,0,0,0,20.6-4.5c5.7-1.7,10.3-3.4,13.4-4.6l3.6-1.4Z"/><path class="cls-6" d="M267.3,257.2h-.2l-.6.3-2.3.7a32.6,32.6,0,0,1-7.6,1.2,27.4,27.4,0,0,1-7.6-1.1l-2.3-.8-.6-.2h.1l.6.2,2.2.7a28,28,0,0,0,15.2-.1l2.2-.6.6-.2Z"/><path class="cls-6" d="M231.5,289.3s-5.5,1.1-14.4,2.4c-4.4.7-9.7,1.4-15.6,2s-12.4,1-19.3,1.2-13.4.2-19.4.1-11.3-.4-15.7-.8c-9-.6-14.5-1.4-14.5-1.4h1l2.9.3,10.6.9c4.5.3,9.8.6,15.7.7s12.5.1,19.4-.1,13.3-.8,19.2-1.3,11.3-1.2,15.7-1.8l10.5-1.7,2.9-.5Z"/><path class="cls-6" d="M275.9,286.1h-6c-3.7,0-8.8-.2-14.3-.7a122.5,122.5,0,0,1-14.3-1.9l-4.3-.8-1.1-.3h0l1.2.3,4.3.7c3.6.6,8.6,1.4,14.2,1.8s10.6.7,14.3.7h5.6Z"/><path class="cls-6" d="M219.2,332.8l-.9.2-2.7.3-4.2.5c-1.7.1-3.6.4-5.7.4l-6.9.2H195l-4-.2c-5.6-.2-11.7-.6-18-1.2l-18-1.5c-5.6-.4-10.6-.6-14.7-.5h-5.7l-4.3.3-2.6.3h0l2.6-.4,4.3-.3h5.7c4.2-.1,9.2.1,14.7.4l18,1.5c6.4.5,12.4,1,18,1.2h14.7c2.1,0,4-.2,5.6-.3l4.3-.4,2.7-.4Z"/><path class="cls-6" d="M286,319.5h-1.9l-5.3.5c-4.6.3-10.8.5-17.7.3s-13.1-.7-17.6-1.2l-5.3-.7-1.4-.3h0l1.4.2,5.3.7c4.5.5,10.7,1,17.6,1.2s13.1,0,17.6-.3l5.4-.3,1.4-.2Z"/><path class="cls-6" d="M286.8,360.8h-1.6c-1.1,0-2.7-.3-4.8-.3a172.3,172.3,0,0,0-17.5.1c-7.3.4-16.1,1.2-25.8,2.5s-20.3,2.9-31.5,4.3a280,280,0,0,1-31.7,2.4,140.5,140.5,0,0,1-25.9-1.9,100.5,100.5,0,0,1-17-4.2l-2.5-1-1.9-.7-1.6-.6,1.6.5,1.9.8,2.6.9a99.4,99.4,0,0,0,16.9,4.2,140.5,140.5,0,0,0,25.9,1.8,258.7,258.7,0,0,0,31.7-2.5c11.1-1.4,21.8-3.1,31.5-4.3s18.4-2.1,25.8-2.5a170.2,170.2,0,0,1,17.5,0Z"/><path class="cls-6" d="M224.4,403.1s-5.5.9-14.4,1.9c-4.4.5-9.7.9-15.6,1.2s-12.4.5-19.3.5-13.3-.4-19.2-.8-11.2-.9-15.6-1.5c-8.9-1-14.4-2-14.4-2H127l2.8.4,4.5.6c1.8.3,3.7.6,6,.8,4.4.5,9.7,1,15.6,1.4s12.4.7,19.2.7,13.4-.1,19.3-.4,11.1-.7,15.6-1.3l6-.6,4.5-.6,2.9-.4Z"/><path class="cls-6" d="M286.1,395l-.6.2-1.7.5-6.4,1.8c-5.5,1.5-13.1,3.3-21.6,4.9s-16.3,2.5-21.9,3.1l-6.7.6h0l6.7-.7c5.6-.6,13.3-1.6,21.8-3.2s16.1-3.3,21.6-4.7l6.5-1.8,1.7-.5Z"/><path class="cls-6" d="M181.1,450.4a64,64,0,0,1-8.8.9,76.9,76.9,0,0,1-9.6,0,115,115,0,0,1-11.8-1.2c-3.8-.7-7.7-1.6-11.5-2.7s-6.5-2.1-9.1-3.1-5.4-2.4-8-3.7l.5.2,1.6.8,2.6,1.1,3.4,1.4a95.1,95.1,0,0,0,9.1,3.1,112.5,112.5,0,0,0,11.5,2.6c3.9.6,7.8,1,11.7,1.3h9.6a37,37,0,0,0,3.7-.3l2.8-.2,1.8-.2Z"/><path class="cls-6" d="M290.3,447.5l-1.1.2-3.3.6L274,450.1c-10.1,1.4-24.1,3.2-39.6,4.7s-29.6,2.5-39.8,3.1l-12.1.6h-3.2l3.2-.2,12.1-.7c10.2-.6,24.3-1.6,39.7-3.2s29.5-3.2,39.7-4.7l11.9-1.7,3.3-.4Z"/><path class="cls-6" d="M329.5,256.1a20.5,20.5,0,0,1-1,2.5,49.5,49.5,0,0,1-3.7,6.3,80.1,80.1,0,0,1-6.9,8.5c-2.7,3-5.9,6.2-9.1,9.7a84.1,84.1,0,0,0-8.3,10.4,43.1,43.1,0,0,0-4.8,9.6,30,30,0,0,0-1.6,7.2,15.6,15.6,0,0,0-.1,2,1.4,1.4,0,0,0,0,.7,24.4,24.4,0,0,1,.1-2.7,28.8,28.8,0,0,1,1.5-7.2,43.8,43.8,0,0,1,4.8-9.7,84.1,84.1,0,0,1,8.3-10.4c3.2-3.5,6.4-6.7,9.1-9.7a90.4,90.4,0,0,0,6.9-8.4,49.5,49.5,0,0,0,3.7-6.3,14.8,14.8,0,0,1,.9-1.8A1.7,1.7,0,0,0,329.5,256.1Z"/><path class="cls-6" d="M277.3,275.7l.4-.3,1.1-.7,4.1-3c1.6-1.3,3.6-2.9,5.6-4.8a65,65,0,0,0,6.3-6.6,76.1,76.1,0,0,0,5.5-7.2,73.9,73.9,0,0,0,3.9-6.4,43.6,43.6,0,0,0,2.2-4.5l.6-1.2.2-.4a48.5,48.5,0,0,1-2.9,6.1,52.6,52.6,0,0,1-3.8,6.5c-1.7,2.5-3.5,4.9-5.5,7.3a77.6,77.6,0,0,1-6.3,6.5q-3.1,2.8-5.7,4.8T277.3,275.7Z"/><path class="cls-7" d="M196.2,328.8h.2l.9-.4,3.1-1.3a38.7,38.7,0,0,0,10-7.1,79.2,79.2,0,0,0,11.5-14.3,209.2,209.2,0,0,0,11.2-19.5A327.1,327.1,0,0,0,249,248.4l4.2-11.7c.4-1.4.8-2.4,1.1-3.2l.3-.8v-.3a.4.4,0,0,1-.1.3,3.1,3.1,0,0,1-.2.8c-.2.8-.6,1.9-1,3.2-.9,2.8-2.3,6.9-4,11.8a298.4,298.4,0,0,1-15.8,37.8,181.1,181.1,0,0,1-11.3,19.6,75.8,75.8,0,0,1-11.6,14.2,39.8,39.8,0,0,1-10.2,7.1c-1.1.4-2.1.9-3.2,1.2l-.8.3Z"/><path class="cls-7" d="M194.3,352.8l.6-.5,1.8-1.2,6.6-4.9c5.5-4.1,12.8-10.4,20.5-17.5,3.9-3.6,7.7-7,10.9-10.2a76.6,76.6,0,0,0,8-9.1,62,62,0,0,0,4.4-6.9,12.2,12.2,0,0,0,1-2l.4-.6-.3.7-.9,2a51.6,51.6,0,0,1-4.3,7.1,98.3,98.3,0,0,1-7.9,9.2c-3.3,3.2-7,6.6-10.9,10.2-6.6,6.2-13.5,12-20.6,17.5l-6.8,4.7-1.8,1.2Z"/><path class="cls-7" d="M163.7,474.1a.3.3,0,0,1,.1-.2,5.6,5.6,0,0,0,.5-.8l1.8-2.7c1.7-2.3,4.2-5.5,7.5-9.3,6.8-7.5,16.1-17.8,26.6-29.2l26.7-29.1L235,394l2.2-2.4.6-.6.2-.2v.2l-.6.7-2.1,2.5-8.1,8.9-26.6,29.2-26.6,29.1c-3.4,3.8-6,7-7.7,9.2s-1.4,2.1-1.9,2.7l-.5.6Z"/><path class="cls-7" d="M269.6,270.2a11.6,11.6,0,0,1-.4-1.8,14.2,14.2,0,0,1-.4-2,21.9,21.9,0,0,1-.3-2.8,32.5,32.5,0,0,1-.2-3.3c0-1.2,0-2.5.1-3.9a47.4,47.4,0,0,1,4.3-17,28.5,28.5,0,0,1,1.7-3.5c.6-1,1.1-2,1.7-2.9l1.6-2.2,1.2-1.7,1.2-1.3a4.5,4.5,0,0,1-1,1.4,13.6,13.6,0,0,1-1.2,1.7l-1.5,2.3-1.6,2.9c-.6,1.1-1.1,2.3-1.7,3.5a51.1,51.1,0,0,0-4.1,16.9c-.1,1.3-.2,2.6-.2,3.8s0,2.3.1,3.3.2,1.9.2,2.7.2,1.5.3,2.1A11,11,0,0,1,269.6,270.2Z"/><path class="cls-7" d="M286.1,310.9c-.1,0-2.2-4.5-4.6-10.1-1.5-3.4-2.8-6.8-4-10.3a108.7,108.7,0,0,1,4.6,10.1C283.6,303.9,284.9,307.4,286.1,310.9Z"/><path class="cls-7" d="M123.9,274.9c-.1,0-1-1.6-2.7-4.1a57.5,57.5,0,0,0-16.5-16.1l-4.1-2.4,1.2.5a20.6,20.6,0,0,1,3.1,1.7,45.8,45.8,0,0,1,9.3,7.1,49.3,49.3,0,0,1,7.4,9c.8,1.3,1.4,2.3,1.8,3.1Z"/><path class="cls-7" d="M168.5,248a2,2,0,0,1,0-1.1,6.8,6.8,0,0,1,.7-2.8,7.3,7.3,0,0,1,1.9-2.8h0a4.3,4.3,0,0,1,.1.5l-.3-.5h.2a17.5,17.5,0,0,0-1.8,2.9A17.2,17.2,0,0,0,168.5,248Z"/><path class="cls-7" d="M183.5,255.8a3.6,3.6,0,0,1-.2-1.1,8.8,8.8,0,0,1,.1-2.8,13.4,13.4,0,0,1,.7-2.7l.6-1a17.3,17.3,0,0,0-1.1,3.7A17,17,0,0,0,183.5,255.8Z"/><path class="cls-7" d="M199.9,254.5a13.5,13.5,0,0,0-1.7-6.1,2.2,2.2,0,0,1,.5.8,6.7,6.7,0,0,1,.9,2.1,8.3,8.3,0,0,1,.3,2.2A3.3,3.3,0,0,1,199.9,254.5Z"/><path class="cls-7" d="M214.2,248.3a27.5,27.5,0,0,0-1.7-2.9,17.5,17.5,0,0,0-2.4-2.3l.8.5a7.3,7.3,0,0,1,1.8,1.7,7.2,7.2,0,0,1,1.2,2.1Z"/><path class="cls-7" d="M224,238.5a6.1,6.1,0,0,0-5.3-4.5h1.1a5.5,5.5,0,0,1,2.4,1.2,5,5,0,0,1,1.6,2.2,1.9,1.9,0,0,1,.2.8C224,238.4,224.1,238.4,224,238.5Z"/><path class="cls-7" d="M229.3,220.6a7.7,7.7,0,0,0-3-1.5,8.5,8.5,0,0,0-3.2.3,4.8,4.8,0,0,1,3.3-.5A4.8,4.8,0,0,1,229.3,220.6Z"/><path class="cls-7" d="M158.6,235.9a2.9,2.9,0,0,1,.2-.9,5.7,5.7,0,0,1,1.3-2.1,5.2,5.2,0,0,1,1.9-1.4l1-.4a9,9,0,0,0-2.7,2A8.1,8.1,0,0,0,158.6,235.9Z"/><path class="cls-7" d="M155,224a3.5,3.5,0,0,1,.6-.9,8.1,8.1,0,0,1,1.9-1.8,6.6,6.6,0,0,1,2.4-1.1l1-.2a10.9,10.9,0,0,0-3.3,1.5A15.2,15.2,0,0,0,155,224Z"/><path class="cls-8" d="M126.8,293.7h-.1a.6.6,0,0,1-.1.4c0,.3-.1.9-.1,1.5s-.3,3.3-.5,5.7c-.3,4.7-.7,11.4-1,18.7s-.7,13.9-.8,18.7c-.1,2.3-.2,4.2-.2,5.6a7.1,7.1,0,0,1-.1,1.6v-7.2c0-4.8.3-11.5.6-18.8s.8-13.9,1.3-18.7c.2-2.3.4-4.3.6-5.6a7.7,7.7,0,0,1,.2-1.5.8.8,0,0,1,.1-.4C126.8,293.6,126.8,293.8,126.8,293.7Z"/><path class="cls-8" d="M251.9,64.5c-9.5-2.9-19.4,5.6-29.1,3.7-5.9-1.1-10.3-5.9-15.6-8.8-7.8-4.4-18.9-5.1-27-1S167.1,66.8,166,75.7c-7.3-4.2-19.5,5-23.6,13.9s-3.2,18-.8,27.5a129.6,129.6,0,0,0,21.3,45.4c.9,1.3,2.4,2.5,3.8,1.9a3.6,3.6,0,0,0,1.4-2.6c1.4-8.6.3-17.5-.5-26.3s-1.1-17.8,1.6-26.1,9.3-16,18-17.7c6.4-1.2,13,.8,18.6,4s10.7,7.4,16.1,11,11.5,6.7,18,7,13.4-2.8,16.2-8.7-.3-14.2-6.7-15.5a12.8,12.8,0,0,0,2.6-25Z"/><path class="cls-3" d="M222.7,216.7l-1-18.7s24.8-4.8,24.2-29.8c-.2-12-2.8-36.7-5.4-59.1a46.4,46.4,0,0,0-47.7-41h-2.5c-25.8,2.5-38.2,25.7-35.1,51.5l6,100.3a30.8,30.8,0,0,0,32.3,28.9h0A30.9,30.9,0,0,0,222.7,216.7Z"/><path class="cls-4" d="M221.8,197.9s-15.7,1.9-32.8-8.1c0,0,8.3,17.7,33,14.6Z"/><path class="cls-8" d="M234.8,126.1a3.5,3.5,0,0,1-3.3,3.7,3.4,3.4,0,0,1-3.7-3h0a3.5,3.5,0,0,1,3.3-3.7,3.4,3.4,0,0,1,3.7,3Z"/><path class="cls-8" d="M235.5,121.6c-.4.4-3.2-1.5-7-1.3s-6.6,2.2-7,1.7.2-1,1.4-2a10.2,10.2,0,0,1,5.6-1.9,9.4,9.4,0,0,1,5.6,1.6C235.3,120.5,235.8,121.3,235.5,121.6Z"/><path class="cls-8" d="M198.1,127.8a3.5,3.5,0,0,1-3.3,3.7,3.4,3.4,0,0,1-3.8-3h0a3.6,3.6,0,0,1,7.1-.7Z"/><path class="cls-8" d="M198,123.6c-.4.5-3.2-1.4-7-1.2s-6.6,2.1-7,1.7.2-1.1,1.4-2a10,10,0,0,1,5.5-2,10.5,10.5,0,0,1,5.7,1.6C197.8,122.6,198.2,123.4,198,123.6Z"/><path class="cls-8" d="M212.9,151.5c0-.2,2.3-.7,6.2-1.4.9-.1,1.8-.3,2-1a5.1,5.1,0,0,0-.8-2.9l-3.1-7.3c-4.4-10.5-7.6-19.1-7.2-19.2s4.3,8.1,8.7,18.5q1.5,3.9,3,7.5a5,5,0,0,1,.6,3.8,2.5,2.5,0,0,1-1.5,1.5l-1.7.2C215.3,151.6,212.9,151.7,212.9,151.5Z"/><path class="cls-8" d="M215.4,164.9c-.5.3-2.6-3.3-7.2-4.1s-8.1,1.8-8.5,1.3.5-1.2,2.1-2.1a10.1,10.1,0,0,1,7-1.3,9.3,9.3,0,0,1,5.7,3.5C215.5,163.6,215.6,164.7,215.4,164.9Z"/><path class="cls-8" d="M180.7,113.7c.2-1.1,4-1.2,8.4-2.4s7.7-3,8.5-2.2-.2,1.5-1.5,2.7a15.1,15.1,0,0,1-12.9,3.5C181.5,114.8,180.6,114.2,180.7,113.7Z"/><path class="cls-8" d="M223.6,108.7c.8-.7,3.2.7,6.3,1.4s5.9.6,6.3,1.6-.4,1.2-1.7,1.8a9.4,9.4,0,0,1-5.5.4,9.2,9.2,0,0,1-4.7-2.8C223.4,110,223.2,109.1,223.6,108.7Z"/><path class="cls-3" d="M157.9,138.1c-.4-.2-17.3-4.4-16.1,12.6s18,12.3,18,11.8S157.9,138.1,157.9,138.1Z"/><path class="cls-4" d="M154.1,156.4l-.7.5a3,3,0,0,1-2.3.2c-1.8-.5-3.5-3.3-3.8-6.3a10.2,10.2,0,0,1,.6-4.3,3.2,3.2,0,0,1,2-2.5,1.4,1.4,0,0,1,1.8.7c.3.4.2.8.3.8s.3-.3.2-1a2,2,0,0,0-.8-1,1.9,1.9,0,0,0-1.6-.3,4.1,4.1,0,0,0-3,2.8,11.2,11.2,0,0,0-.7,4.8c.4,3.4,2.3,6.5,4.8,7.1a3.2,3.2,0,0,0,2.7-.7C154.1,156.8,154.2,156.4,154.1,156.4Z"/><path class="cls-8" d="M245.6,103.8a35.8,35.8,0,0,1-32.2-6.1c-6.2-4.9-11.2-12.1-18.9-14.2a20.4,20.4,0,0,0-15.4,2.7,39.8,39.8,0,0,0-11.3,11.1c5.3,12.5,2.5,26.7-.3,40a7.3,7.3,0,0,1-1.8,4c-2,1.6-5.1.5-6.9-1.3s-4.1-6.9-5-10.9a69.4,69.4,0,0,1-.8-27.6A47.7,47.7,0,0,1,165.3,77a44.7,44.7,0,0,1,31.2-13.1,55.3,55.3,0,0,1,32.6,10.4c4.4,3,8.5,6.8,10.9,11.6"/><path class="cls-7" d="M259.2,70.3a3.4,3.4,0,0,1-.1,1.4,7.1,7.1,0,0,1-2.2,3.6,10.5,10.5,0,0,1-6.3,2.4,20.6,20.6,0,0,1-4.3-.1,10.2,10.2,0,0,1-4.4-1.9,6.1,6.1,0,0,1-2.3-4.7,5.3,5.3,0,0,1,3.5-4.5,6.1,6.1,0,0,1,3-.5,5.3,5.3,0,0,1,3,1.2,8.3,8.3,0,0,1,2.8,5.9,9.3,9.3,0,0,1-2.5,6.3,12.9,12.9,0,0,1-6.1,3.7c-4.6,1.5-9.9.8-14.6-1A69.6,69.6,0,0,1,215.9,75a69.1,69.1,0,0,0-11.7-6.9,25.3,25.3,0,0,0-11.8-2.5,24.1,24.1,0,0,0-10.1,3,29.9,29.9,0,0,0-10.9,10.6c-1,1.6-1.6,2.9-2.1,3.7l-.6,1.4a1,1,0,0,1,.1-.4c.1-.2.2-.6.4-1s1.2-2.6,1.9-3.8a29.5,29.5,0,0,1,10.9-11,25.3,25.3,0,0,1,10.4-3.2,26.6,26.6,0,0,1,12.1,2.5,81,81,0,0,1,11.8,6.9,65.8,65.8,0,0,0,12.7,7,21.4,21.4,0,0,0,14.1,1.1,12.2,12.2,0,0,0,5.7-3.5,8.1,8.1,0,0,0,2.3-5.7,6.7,6.7,0,0,0-2.5-5.3,5.1,5.1,0,0,0-5.3-.7,4.7,4.7,0,0,0-3.1,3.9,5.4,5.4,0,0,0,2.1,4.2,7.6,7.6,0,0,0,4.1,1.8,18.5,18.5,0,0,0,4.1.2,11.2,11.2,0,0,0,6.1-2.1,7.1,7.1,0,0,0,2.3-3.4Z"/><path class="cls-7" d="M139.8,104.3a24,24,0,0,0,5.3,1.2,16.1,16.1,0,0,0,5.7-.8,24.6,24.6,0,0,0,6.2-3.3A19.7,19.7,0,0,0,164.3,91a48.9,48.9,0,0,0,.9-5.3,3.3,3.3,0,0,1,.1,1.4,13.3,13.3,0,0,1-.5,4,18.8,18.8,0,0,1-7.3,11,23.4,23.4,0,0,1-6.5,3.3,13.6,13.6,0,0,1-6,.7,14.3,14.3,0,0,1-3.9-1.1A4.2,4.2,0,0,1,139.8,104.3Z"/><path class="cls-7" d="M141,116.6a51.3,51.3,0,0,0,5.2-.1,23.3,23.3,0,0,0,19.4-13.8,32.7,32.7,0,0,0,1.8-4.9,3.4,3.4,0,0,1-.1,1.4,22.4,22.4,0,0,1-21,17.9,25.5,25.5,0,0,1-3.9-.2A3.5,3.5,0,0,1,141,116.6Z"/><path class="cls-4" d="M185.8,140.3c-.2.1-.4-.1-.5-.3h0c0-.3.1-.5.4-.5s.4.1.5.3A.5.5,0,0,1,185.8,140.3Z"/><path class="cls-4" d="M193.1,138.4a.5.5,0,0,1-.5-.4.4.4,0,0,1,.2-.6c.3-.1.5.1.6.4S193.3,138.3,193.1,138.4Z"/><path class="cls-4" d="M198,138.1a.6.6,0,0,1-.5-.6.7.7,0,0,1,.3-.8c.2,0,.4.3.5.7S198.2,138.1,198,138.1Z"/><path class="cls-4" d="M189.6,144.8c-.2,0-.4-.1-.4-.3s.1-.3.4-.3.4.1.4.3A.4.4,0,0,1,189.6,144.8Z"/><path class="cls-4" d="M196.2,143a.4.4,0,0,1-.4-.4.5.5,0,0,1,.3-.6.5.5,0,0,1,.5.5h0A.5.5,0,0,1,196.2,143Z"/><path class="cls-4" d="M231,137.6a.5.5,0,0,1-.5-.5c-.1-.2.1-.4.3-.4s.4.1.5.3a.5.5,0,0,1-.3.6Z"/><path class="cls-4" d="M236,137a.5.5,0,0,1-.5-.5.4.4,0,0,1,.3-.6.5.5,0,0,1,.5.5h0C236.4,136.6,236.2,136.9,236,137Z"/><path class="cls-4" d="M226.6,137.9a.5.5,0,0,1-.5-.3h0a.4.4,0,1,1,.8-.2C227,137.6,226.8,137.8,226.6,137.9Z"/><path class="cls-4" d="M230.5,142.7a.4.4,0,0,1-.6-.2.5.5,0,0,1,.1-.7c.3,0,.6.1.6.4a.4.4,0,0,1-.1.5Z"/><path class="cls-4" d="M234.7,141.7c-.2,0-.4-.2-.3-.4a.4.4,0,0,1,.5-.3.5.5,0,0,1,.3.5A.4.4,0,0,1,234.7,141.7Z"/><path class="cls-3" d="M270.1,367.5c-1.2-.7-5.7-.3-10.6.3,7.2-1.8,9.9-4,9.7-5.9s-17.2-.6-24.9.8c6.4-1.3,18.6-3.7,21.2-5s-.9-3.7-5-4.3-32.2,0-40.2-.3c-5.5-.2-5.1-5-5.1-5,2.5-11.2-1.5-21.4-3.9-23.6s-6.2.3-5.5,3.8.1,8-.4,11.7a27.6,27.6,0,0,1-2.7,9c-1,1.8-1.9,3.5-2.8,5l-85.3,17.8L123,346,70.6,330.3,51.1,381.2A40.7,40.7,0,0,0,64,427.6h0a40.5,40.5,0,0,0,38,6.4l112.7-36.4L255.8,382c10.3-3.5,14.3-5.7,13.5-7.6s-.5-1.6-20.1,2.2C249.1,376.6,277.1,371,270.1,367.5Z"/><path class="cls-4" d="M238.8,379.7c.1.5,6.2-.4,13.6-2s13.3-3.3,13.2-3.8-6.2.4-13.6,2S238.7,379.3,238.8,379.7Z"/><path class="cls-4" d="M234.4,371.3c.1.5,6.6-.1,14.6-1.3s14.3-2.7,14.3-3.2-6.6.1-14.6,1.3S234.3,370.8,234.4,371.3Z"/><path class="cls-4" d="M231,364.1c.1.5,6.3,0,13.8-1.1s13.7-2.3,13.6-2.8-6.2,0-13.8,1S231,363.6,231,364.1Z"/><path class="cls-4" d="M115.2,371.7l-1.2.7-3.3,1.6L100,379.8c-4.2,2.4-7.8,4.6-10.5,6.3L86.4,388l-1.3.7,1.1-.9,3-2.1a119.3,119.3,0,0,1,10.4-6.4c4.2-2.4,8-4.3,10.9-5.7l3.4-1.5Z"/></g><g id="freepik--character-1--inject-2-2" data-name="freepik--character-1--inject-2"><path class="cls-8" d="M405.2,107.5c-11.2-10-25.4-1.4-33.1,4.4-15.3,11.7-12.5,30.8-18.5,46.9-3.8,9.6-11.2,18.4-12.9,28.4s3,21.8-.9,32-19.9,20.4-17.5,33.7c5.7,17.4,35.1,23.2,52.7,22.4,50-4,24-59.4,18.5-90.1-4.5-25,1.8-53.9,11.7-77.7"/><path class="cls-7" d="M339.1,269.5c-4.7-7.8-1-17.3,2-24.9A309.6,309.6,0,0,0,358.9,185a298.6,298.6,0,0,0,4.6-34c.7-16.8,4.4-40.3,24.5-42.8-19.8,3.4-23.3,25.9-24,42.9a281.7,281.7,0,0,1-4.5,34.1c-4.1,24.1-13.2,46.8-21.6,69.7C336.7,259.7,336.6,265,339.1,269.5Z"/><path class="cls-9" d="M339.4,240.7l47.2-2c25.4,8.2,80.6,27.2,104.4,38.2L440.7,454.4l7.7,25.6H304.3l6.5-135.4Z"/><g class="cls-10"><path d="M437,455.9c-4.4-30-8.8-59.9-13.3-89.9-.8-5.5-1.8-11.4-5.8-15.3s-9.4-4.7-14.6-5.4c-24.6-4.3-43.1,3.8-55.2,25.7-17.8,29.8-42.2,49.2-42.7,85.7,13.6-4.2,26.6-17.5,34.1-29.5,11.6-15.9,28.5-73.7,55.4-56.5,12.8,28.3,6,67.4,33.2,88.5C431.5,462.8,438.7,462.2,437,455.9Z"/></g><path class="cls-9" d="M280.7,308.2c0-1.3,20.8-67.5,58.7-67.5L327.8,320Z"/><path class="cls-9" d="M491,276.9s11.8,10.1,13.6,18.6,3.9,50,3.9,50l-46.1-3.2Z"/><path class="cls-8" d="M332,275.3c-2.9,25.1-11.5,59.6-15.5,84.5C319.3,334.8,327.8,300.1,332,275.3Z"/><path class="cls-8" d="M473.8,306c-1.5,14.2-5.8,33.8-8.6,47.9C466.9,339.7,471.2,320.1,473.8,306Z"/><path class="cls-11" d="M492.1,278.8c-7.2,6.4-18.1,8.1-27,4.7s-17.3-13.3-28.1-10.8c-24.6,7.4-41.6,13.9-61.7-8.3-3.9-4.3-9.2-7.4-15.1-7.4-11.8-.4-22.3,6.7-33.9,4.6-5.3-1-10.9-4.5-12.4-10,3.5,9.6,15.5,11.3,24.3,9,6.6-1.4,14.7-4.5,22.1-4.2s11.5,3.1,15.5,7.5c19.8,22,36.8,15.4,61.1,8.2,10.9-2.6,19.7,7.2,28.4,10.9S484.6,284.6,492.1,278.8Z"/><path class="cls-11" d="M324.8,303.7c-14.4,4.1-22.6-26.5-36.8-13.1,4.5-7.2,14.6-2.8,19,2.5S316.9,304.6,324.8,303.7Z"/><path class="cls-11" d="M461.2,339.8c-13.7,8.5-31.4,2.8-40.9-9.4-6.3-7-14.1-14.2-24.2-13.8s-19.1,4.4-28.2,6.3c-14.9,3-31.1,1.3-44.7-5.3,13.7,5.9,29.8,7.9,44.5,4.7,9.2-1.9,18.7-6.2,28.4-6.3a24.7,24.7,0,0,1,14.4,4.4c7.2,5.2,12.2,13,19.5,18.1A30.9,30.9,0,0,0,461.2,339.8Z"/><path class="cls-11" d="M507.3,314.9c-10.7,16-23.4-4.5-36.9,7.8C482.3,309.4,496.1,329.8,507.3,314.9Z"/><path class="cls-11" d="M457,379.2c-22.3-1.3-38.7,22.3-60.3,2.9-8.6-7.7-20.6-5.5-30-.8-23.3,12.8-40,2.6-56.1-15.3,17.3,17.4,31.9,27.5,55.8,14.7,9.4-4.8,21.9-6.9,30.6.7C418.6,400.9,435,376.6,457,379.2Z"/><path class="cls-11" d="M441.9,443.8a19.5,19.5,0,0,0-19.8-7.1c-10.5,2-14.7,17.3-26.7,14.9s-18.3-18.7-31.8-20.2c-19.6-2.4-40.3,23.6-57.8,5.8,18,16.8,38-8.9,57.8-6.4,13.6,1.3,18.9,17.8,31.8,20.2s15.9-13,26.5-14.8C429.2,434.5,437.7,437.5,441.9,443.8Z"/><g class="cls-10"><path d="M476.5,268.3C459,255.8,435,244.9,414,241c-5.1,14.6-8.3,31.5-15.6,45-1,1.8-2.1,3.8-1.6,5.9,6.2,10.6,28.2,10.6,38.8,6.8V305C457.3,312.3,483.4,290.8,476.5,268.3Z"/></g><path class="cls-3" d="M449.9,122.7a9.5,9.5,0,0,1,8.1,10.2h0L446,262.3c-1,15.4-23.8,22.9-40.2,21.7s-16.6-9-16.1-24.7c.8-24.1,1.3-33,1.3-32.6-29.7-5.9-25.5-55.2-21.2-86.6C380.3,85.4,416.4,115.5,449.9,122.7Z"/><path class="cls-8" d="M380.7,161.1c-.4,4.3,6.5,5.2,6.9.7S381.1,156.7,380.7,161.1Z"/><path class="cls-8" d="M373.9,153.4c.4.5,3.1-1.3,6.9-1.2s6.4,2.2,6.8,1.8C386.4,149.1,375.5,148.6,373.9,153.4Z"/><path class="cls-8" d="M416.5,164.4c-.4,4.4,6.5,5.2,6.9.8S416.9,160,416.5,164.4Z"/><path class="cls-8" d="M411.2,156.2c.4.4,3.1-1.4,6.9-1.2s6.4,2.2,6.9,1.8C423.7,151.9,412.9,151.4,411.2,156.2Z"/><path class="cls-8" d="M395.9,182.2c-11.4-3-9-.2-4.1-12.4,10.5-24,9-24.6-1.5-.7C385.9,179.4,382.7,182.7,395.9,182.2Z"/><path class="cls-4" d="M390.9,226.8a70.2,70.2,0,0,0,37.1-7.9s-10.2,18.8-37.4,14.8Z"/><path class="cls-4" d="M396.9,191.4c3.4-4.8,13.8-1.3,10.5,4.8-2.7,3.8-12.1-2-10.6-4.7"/><path class="cls-8" d="M407.5,186.2c-.6-.1-.8,4-4.5,6.8s-8,2-8,2.6c1.6,1.9,7.4.9,9.4-1S409.1,188.1,407.5,186.2Z"/><path class="cls-8" d="M409.6,141.2c.5,1,4.2.3,8.6.6s8.1,1.3,8.7.3C425.4,137.1,411.6,136.4,409.6,141.2Z"/><path class="cls-8" d="M374.3,148.6c.6.9,3.4.4,6.6.8s5.9,1.4,6.6.6C387.7,145.2,375.1,143.7,374.3,148.6Z"/><path class="cls-3" d="M446.4,174.3c2.4-12.1,18.3-8.4,16.1,5-1.5,16.4-17.6,11.6-17.6,11.1S445.7,181.1,446.4,174.3Z"/><path class="cls-4" d="M450.4,184.6c3.3,2.6,6.3-1.2,6.8-5.3.5-2.3-1.1-8.7-4.2-5.9-.7,2.4-1-2.1,2-1.5,5.7,2.2,3.6,13.3-1.5,14.2C452.5,186.5,450.4,185.7,450.4,184.6Z"/><path class="cls-8" d="M480.9,243.7c-1.3-11.3,3.2-18.6,3.1-30-1.2-27.7-7.5-55.3-17.6-81.2-8.6-23.6-42.2-47-64.6-27-18.1-2.8-24.6,11.8-23.8,12.5,11.9-11.1,20.1-1.3,20.1-1.3,7.3-7.5,19.4-1,23.6,6.1,5.8,10.1,6.4,16.1,7.9,21.4,3.9,13.2,15.8,15.8,15,29.5-.9,17.6-10.9,31.2-12.2,48.7a97.2,97.2,0,0,1-2.2,15.3c-1.4,5.2-27.4,49.2-8.5,49.3l17-.9,13.8-8.8-.5,9,22.6,1.5c5.5-4.6,7.1-12.4,6.5-19.5S481.7,250.7,480.9,243.7Z"/><path class="cls-7" d="M397.4,115.3c13.7-28.5,32.7,11,38,24.7C428.7,126.9,411.9,88.3,397.4,115.3Z"/><path class="cls-7" d="M422.6,124.4c-2.4-4.3-7.5-13.7-13.5-15.2s-7.5,4.9-11,7.5c2.7-3.1,6.2-8.6,11.1-8.2C416,110.8,420.1,118.1,422.6,124.4Z"/><path class="cls-7" d="M448.5,277c22.1-39.7,13.1-89.5.1-130.3-6.2-20.1-10.4-39.7-30.9-46.9,20.9,6.4,25,26.9,31.5,46.8a361.4,361.4,0,0,1,9.5,36.4C465,214.2,465,248.9,448.5,277Z"/><path class="cls-7" d="M453.2,284.1c32-36.2,15.6-89.2,3.3-129.7-6.2-21.2-9.1-38.8-25-53.2,16.4,13.8,19.3,32,25.6,53.1C469.5,195,486,248.6,453.2,284.1Z"/><path class="cls-7" d="M441.3,242.3c-8.3-15.4,5.5-30.2,10.4-44.4,4.5-11.2-.3-23.3-5.2-33.4-5.4-11.8-10.1-21.8-14.9-33,5.2,10.3,9.9,20.8,15.6,32.8,8.1,15.5,10,28.3.6,44C442.1,218.8,435.9,230.6,441.3,242.3Z"/><path class="cls-3" d="M287.3,309.9c-4.4,20.1-24.5,95.5-16.8,120.5,4.6,10.9,19.5,17.5,28.6,15.2s64.2-80.9,64.2-82.8h0l-17.7-20-29.6,20,7.7-43.8Z"/><rect class="cls-7" x="369.7" y="259.8" width="46.3" height="88.2" rx="4.6"/><path class="cls-3" d="M399.8,310.8c-9.1-.6-25.4,3.1-33.8,3.9l7.1-8.8s19.4-3.4,23.5-4.6,1-6.8-2.4-6.3l-26.5.5-18.3,15.9v23.4l-5.2,8.9,18.2,19.6c2-1.4,16.7-7.7,14.5-14.3l15.5-5.2a4.3,4.3,0,0,0,2.8-4.6l-19.7-1.5,21.4-3.7a2.8,2.8,0,0,0-.2-5.5l-24.9-2.4,20.7-6.9a73.5,73.5,0,0,0,10.2-3.8C404.5,314.5,403.6,311.5,399.8,310.8Z"/><path class="cls-4" d="M319.7,360.2c-9.8,7.6-26.4,18.1-32.5,29.7C293.5,376.5,308.5,367.6,319.7,360.2Z"/><path class="cls-2" d="M395.3,270.4a2.1,2.1,0,0,1-2.2,2.1c-2.7.1-2.7-4.3,0-4.2A2.1,2.1,0,0,1,395.3,270.4Z"/><path class="cls-3" d="M438.3,314.9l-11.7-18s-26.6-8.8-30-8.2-3,4.8-2.9,6.8l3.4,2.3,15.6,2.9,9.2,6.3-6.3-3-18.3-2.8c-2.7-.5-6.8,1-6.7,4,1.2,4.6,17.4,7,21.2,8.8l4.9,8.9-17-5.3s-10.4,3.5-11.1,4.8c-.1,2.8,18.5,8.9,21,10.7l-12.4.5-13.4,2.5,5.5,2.6,10.5,1.3,9,4.4-.5,8.2s4,8.4,7.7,10.5,18.7-18.4,18.7-18.4l1.1-9.8,2.5-9.2C436.9,319.6,436.6,321.1,438.3,314.9Z"/><path class="cls-3" d="M416,363.1l19.2,90.2s5.9,19,27,19c34.1-3.2,34.7-103.8,43.5-127l-37.9-3.4-10.4,53.6-22.7-50.8Z"/><path class="cls-4" d="M470.5,446.1a75.2,75.2,0,0,0-14-53.1A65.7,65.7,0,0,1,470.5,446.1Z"/><path class="cls-8" d="M508.5,345.5c-1.7-15.5-2.4-33.8-4.7-51.9-2.4-7.5-9.2-12.6-15.1-17.4-1.5-.7-6.3-2.6-7.6-3.4,1.3.4,6.3,2.5,7.8,3,6.1,4.8,13.1,10,15.4,17.7C506.7,311.6,507.5,329.8,508.5,345.5Z"/></g></svg>