<svg id="_1" data-name="1" xmlns="http://www.w3.org/2000/svg" viewBox="0 0 580 480"><defs><style>.cls-1{fill:#ced9d7;}.cls-2{fill:#ebebeb;}.cls-3{fill:#2b4751;}.cls-4{fill:#20e57e;}.cls-5{opacity:0.3;}.cls-6{fill:#f5f5f5;}.cls-7{fill:#455a64;}.cls-8{fill:#b78876;}.cls-9{fill:#a36957;}.cls-10{fill:#ffbe9d;}.cls-11{fill:#009e9e;}.cls-12{fill:#eb996e;}.cls-13{fill:#fafafa;}.cls-14{opacity:0.2;}.cls-15{fill:#fff;}.cls-16{fill:#4d4d4d;}.cls-17{fill:#cccece;}</style></defs><path class="cls-1" d="M139.8,439.9c1.2-4.9-1.9-9.8-5.2-13.3s-7.4-6.7-9.2-11.4c-2.8-7.5.9-17.4-4-23.7-2.8-3.7-8-5-10.5-8.9a21.9,21.9,0,0,1-2.3-7.1,73.6,73.6,0,0,0-17-33.6,66.6,66.6,0,0,0,6.8,32.4c2,4,4.4,7.9,5.1,12.3,1.1,7.2-2.7,14.7-1,21.8s10.5,13.5,11,21.8-5.4,13.3-4.9,20.3a20.7,20.7,0,0,0,3,8.4c5.1,9,12.6,15.2,24,15l13.9.4Z"/><path class="cls-1" d="M152.4,474.4a10.2,10.2,0,0,0,3.9-.1,25.4,25.4,0,0,0,4.5-1.3,16.9,16.9,0,0,0,5.6-3.3,8.6,8.6,0,0,0,2.3-3.3,16.3,16.3,0,0,0,.6-4.5c0-1.6.2-3.2.3-4.8a13.8,13.8,0,0,1,1.7-4.8c1.6-3.1,4.3-6,5.1-10.2s.3-8.6-.4-13.1-1.3-9.3.2-13.9,4.5-8.9,6-14.2.8-11,1.1-16.6a23.3,23.3,0,0,1,1.8-8.3c1.1-2.6,2.6-5.1,3.8-7.9,2.5-5.6,2.8-12,3.5-18.2.3-3.2.6-6.3,1-9.5a38.5,38.5,0,0,1,1.5-9.6c.9-3.1,2-6.2,3.2-9.2a30,30,0,0,0,1.6-4.8,43.8,43.8,0,0,0,.4-5.1,58.8,58.8,0,0,0-.4-10.3c-.4-3.5-1-6.9-1.4-10.3v-1.3l-.5.3a22.2,22.2,0,0,0-7.5,6.8,38.6,38.6,0,0,0-4.5,9.1c-2.3,6.4-3.1,13.1-4.3,19.6s-2.5,12.7-5.6,18c-1.5,2.6-3.3,5.1-4.9,7.7a21.1,21.1,0,0,0-3.4,8.5c-.8,6.3,2.4,11.8,1.8,17.4a20.5,20.5,0,0,1-2.5,7.7c-1.3,2.4-2.7,4.6-4.1,6.8a45.8,45.8,0,0,0-3.7,6.9,22.1,22.1,0,0,0-1.7,7.6c-.3,5,.4,9.7,0,14.2a34.7,34.7,0,0,1-3.4,12.3c-1.6,3.7-3.5,7-5,10.2a34.8,34.8,0,0,0-2.1,4.8,19.1,19.1,0,0,0-1.2,4.7,30.3,30.3,0,0,0,0,8.5,23.3,23.3,0,0,0,4,10.8,14.2,14.2,0,0,0,1.2,1.3,2.4,2.4,0,0,0,.9.8l.8.6a23.7,23.7,0,0,1-2.7-2.8,23.1,23.1,0,0,1-3.9-10.8,29.6,29.6,0,0,1,.2-8.4,19.5,19.5,0,0,1,1.2-4.6,48.4,48.4,0,0,1,2.1-4.7c1.6-3.1,3.4-6.4,5.1-10.1a34.4,34.4,0,0,0,3.5-12.5c.4-4.6-.3-9.4,0-14.3a22.3,22.3,0,0,1,1.7-7.2,40,40,0,0,1,3.6-6.8l4.2-6.9a20.4,20.4,0,0,0,2.6-8c.6-6.1-2.6-11.5-1.8-17.4a19.9,19.9,0,0,1,3.3-8.1c1.6-2.6,3.4-5,5-7.7,3.1-5.5,4.6-11.9,5.7-18.4s2-13.1,4.2-19.3a35.5,35.5,0,0,1,4.5-8.9,20.1,20.1,0,0,1,7.1-6.5l-.6-.4v.6c.3,3.5.9,6.9,1.4,10.3a68.8,68.8,0,0,1,.4,10.1c-.1,1.7-.2,3.4-.4,5a35.3,35.3,0,0,1-1.5,4.6,80.7,80.7,0,0,0-3.3,9.4,44.7,44.7,0,0,0-1.6,9.7l-.9,9.5c-.6,6.3-1,12.5-3.4,17.9-1.1,2.7-2.7,5.2-3.8,8a22.8,22.8,0,0,0-1.9,8.5c-.2,5.8.5,11.4-.9,16.5s-4.5,9.3-6,14.1-.9,9.9-.2,14.4,1.4,8.8.5,12.8-3.4,6.9-5,10.1a14.3,14.3,0,0,0-1.8,5,39.1,39.1,0,0,0-.3,4.9,15.9,15.9,0,0,1-.6,4.3,8.5,8.5,0,0,1-2.1,3.2,20.1,20.1,0,0,1-5.4,3.3,25.4,25.4,0,0,1-4.5,1.3,13.3,13.3,0,0,1-2.8.3Z"/><path class="cls-1" d="M195.5,298.8a.6.6,0,0,0-.1.4,12.1,12.1,0,0,1-.3,1.4c-.3,1.1-.6,3-1.1,5.1s-1.8,4.7-2.8,7.8-2.3,6.6-3.3,10.5-1.9,8.4-2.9,13.1a56.1,56.1,0,0,1-4.4,14.6c-1.1,2.4-2.4,4.9-3.4,7.5a41.4,41.4,0,0,0-2,8.6,156.9,156.9,0,0,1-2.9,18c-2.7,12.2-5.3,23.9-7.6,34.5s-4.7,20-6.5,28-3.3,14.5-4.3,19c-.5,2.2-.9,4-1.1,5.2s-.2,1-.3,1.4v.4s0-.1.2-.4l.3-1.3c.3-1.3.8-3,1.3-5.2,1.1-4.5,2.6-10.9,4.6-18.8s4.1-17.6,6.6-28.1,5-22.2,7.7-34.3c1.2-6,2.2-12,2.9-18.1a34.4,34.4,0,0,1,1.9-8.3c.9-2.6,2.2-5.1,3.3-7.5a58.7,58.7,0,0,0,4.4-14.8c.9-4.8,1.8-9.1,2.8-13.1a105,105,0,0,1,3.1-10.5c1-3,2.2-5.6,2.7-7.9s.7-4,1-5.2l.2-1.4Z"/><path class="cls-2" d="M154.9,474.4c9.1-5.8,11.6-23.4,7.7-33.9s-10.5-20.1-11.6-31.4c-.8-8.6,1.8-17.5-.1-26-2.7-11.4-13.1-20.2-13.1-31.9,0-6.6,3.5-12.8,3.2-19.4s-6.2-14.4-9.8-21.5c-5.6-10.8-6-23.7-7.9-35.9s-6.4-25.2-16.5-31.1c-1.4,10.3-4,17.4-3.1,31.4.3,5.1,5.8,14.7,6.6,25.7.5,6.6.9,13.2,1.3,19.8s.8,13,3,19,4.3,8.8,5.6,13.5c2.4,9-.6,18.7,1.3,27.7s6.6,14.3,7.7,22.1c1.4,10.9-5.1,22.3-1.7,32.7,1.7,5.2,5.8,9.3,6.9,14.7s0,8.5.8,12.7c1.3,6.7,13.3,12.3,19.7,11.8"/><path class="cls-1" d="M109.3,253.5v.6c0,.4.2,1,.3,1.7s.4,3.7.9,6.5,1.9,6,3,10,2.4,8.3,3.4,13.3,2,10.5,2.9,16.4,2,12.4,4.8,18.6a99,99,0,0,1,3.8,9.5,41.5,41.5,0,0,1,2,10.5c.6,7.6,1.5,15.1,2.8,22.6l8.1,43.2c2.6,13.3,5,25.2,7,35.2s3.6,18.1,4.7,23.7l1.4,6.5.4,1.6a5.8,5.8,0,0,1,.1,1,1.7,1.7,0,0,0,0-1,14.9,14.9,0,0,0-.2-1.7l-1.2-6.4c-1.1-5.7-2.6-13.8-4.5-23.8s-4.2-22-6.8-35.2-5.1-27.9-8-43.2c-1.3-7.5-2.2-15-2.8-22.6a43.9,43.9,0,0,0-2-10.7c-1.2-3.4-2.6-6.5-3.9-9.6-2.8-6.1-3.8-12.4-4.8-18.3s-1.9-11.5-3-16.5-2.2-8.9-3.6-13.3-2.6-7-3.1-9.8-.9-5-1.2-6.5a12.8,12.8,0,0,1-.2-1.7Z"/><g id="freepik--Plant--inject-2"><path class="cls-3" d="M475.4,446.7l-.3-.9-1.1-2.6a67.5,67.5,0,0,1-2.9-10c-1.8-9.1-2.2-22.6,1.4-38.6a229,229,0,0,1,7.5-25.7c3.1-9.1,6.7-18.7,9.7-29.2S495.1,318,495,306s-3-24.1-6.3-36.1-6.7-23.8-7.5-35.6a57.6,57.6,0,0,1,7-32.4c5.1-9.4,11.5-17.3,16.3-25.6a94.1,94.1,0,0,0,10-24.8,99.4,99.4,0,0,0,1.7-38.8,80.4,80.4,0,0,0-3.3-13.9,2.9,2.9,0,0,0,.2.9c.1.7.3,1.5.6,2.7a94,94,0,0,1,2.1,10.3,100.4,100.4,0,0,1-2.1,38.6,97.1,97.1,0,0,1-10,24.5c-4.8,8.1-11.2,16-16.4,25.5a58.2,58.2,0,0,0-7.2,33.1c.8,12,4.2,23.8,7.5,35.9s6.2,24,6.3,35.7a121.4,121.4,0,0,1-5.3,33.4c-2.9,10.4-6.4,20.1-9.5,29.2a205.5,205.5,0,0,0-7.3,25.8c-3.6,16.1-3.1,29.8-1.1,38.8a65.8,65.8,0,0,0,3.1,10.1l1.2,2.5A3.6,3.6,0,0,0,475.4,446.7Z"/><path class="cls-4" d="M498,184.4s10.2-31.3-5.8-50.4a1.1,1.1,0,0,0-1.5-.1l-.3.6C489.4,139.7,487.8,155.5,498,184.4Z"/><path class="cls-3" d="M493.7,144.6a29.3,29.3,0,0,0,.4,5.9c.5,4,1.1,8.7,1.7,14l1.7,14a28.9,28.9,0,0,0,.8,5.8,29.1,29.1,0,0,0,0-5.9c-.2-3.6-.7-8.6-1.3-14.1s-1.4-10.4-2.1-14A29,29,0,0,0,493.7,144.6Z"/><path class="cls-4" d="M485,258.5s-4.7-32.7-27.2-41.6a1.1,1.1,0,0,0-1.4.5,1.1,1.1,0,0,0,0,.8C457.8,223.4,463.3,238.2,485,258.5Z"/><path class="cls-3" d="M463.7,225.6a30.6,30.6,0,0,0,3,4.9l7.6,11.5,7.6,11.6a24.9,24.9,0,0,0,3.3,4.7,31.6,31.6,0,0,0-2.6-5.2c-1.8-3.1-4.4-7.3-7.3-11.8s-5.9-8.5-8-11.3A21.7,21.7,0,0,0,463.7,225.6Z"/><path class="cls-4" d="M488.7,340.4s4.4-32.8-14.7-48.3a1.2,1.2,0,0,0-1.5.2,1.4,1.4,0,0,0-.2.7C472.2,298.3,473.5,314.2,488.7,340.4Z"/><path class="cls-3" d="M477.4,302.2a26.5,26.5,0,0,0,1.5,5.7l4.2,13.4,4.1,13.4a32.4,32.4,0,0,0,1.9,5.5,27.4,27.4,0,0,0-1.1-5.7c-.8-3.6-2.2-8.4-3.8-13.6s-3.3-9.9-4.5-13.3A25.8,25.8,0,0,0,477.4,302.2Z"/><path class="cls-4" d="M469.1,421.9s3.3-32.9-16.3-47.6a.9.9,0,0,0-1.4.3,1.1,1.1,0,0,0-.2.6C451.3,380.5,453.1,396.3,469.1,421.9Z"/><path class="cls-3" d="M456.5,384.3a26.9,26.9,0,0,0,1.7,5.5c1.3,3.9,2.9,8.3,4.6,13.3l4.6,13.2a27.9,27.9,0,0,0,2,5.5,23.2,23.2,0,0,0-1.3-5.8c-.9-3.4-2.4-8.2-4.2-13.4s-3.6-9.8-4.9-13.1A31.1,31.1,0,0,0,456.5,384.3Z"/><path class="cls-4" d="M512.1,157.1S540,142.6,541.3,117a1,1,0,0,0-.9-1.1c-.3,0-.5,0-.6.2C535.6,118.9,524,128.9,512.1,157.1Z"/><path class="cls-3" d="M535.4,125.7a19.8,19.8,0,0,0-3.6,4.5l-8,11.1-8.1,11.2a26.4,26.4,0,0,0-3.3,4.7,19.5,19.5,0,0,0,3.9-4.2c2.3-2.7,5.2-6.5,8.4-10.9s5.9-8.5,7.9-11.4A35.3,35.3,0,0,0,535.4,125.7Z"/><path class="cls-4" d="M480.7,223.9s28.6-12.6,31.4-38c0-.6-.4-1.2-.9-1.2a.6.6,0,0,0-.6.1C506.2,187.4,494.1,196.6,480.7,223.9Z"/><path class="cls-3" d="M505.6,194.1a30.7,30.7,0,0,0-3.8,4.2l-8.7,10.6-8.7,10.7a25.8,25.8,0,0,0-3.5,4.5,21.6,21.6,0,0,0,4.1-3.9c2.4-2.6,5.6-6.2,9-10.4s6.4-8,8.4-10.9A25.1,25.1,0,0,0,505.6,194.1Z"/><path class="cls-4" d="M494.7,300.1S514.8,275,506.4,251a.9.9,0,0,0-1.3-.7l-.5.4C501.9,255.2,495,269.3,494.7,300.1Z"/><path class="cls-3" d="M504.2,261.4a28.2,28.2,0,0,0-1.5,5.7l-3.2,13.7c-1.2,5.1-2.3,9.7-3.3,13.6a57.8,57.8,0,0,0-1.2,5.7,20.6,20.6,0,0,0,2-5.4c1.1-3.5,2.4-8.3,3.6-13.6s2.2-10.3,2.8-13.9A22.5,22.5,0,0,0,504.2,261.4Z"/><path class="cls-4" d="M472.8,388.6s28.5-13.1,30.8-38.6a1,1,0,0,0-.9-1.2.7.7,0,0,0-.6.1C497.8,351.6,485.8,361,472.8,388.6Z"/><path class="cls-3" d="M497.3,358.3a25.4,25.4,0,0,0-3.7,4.3l-8.5,10.7-8.6,10.8a38.7,38.7,0,0,0-3.5,4.5,22.1,22.1,0,0,0,4.1-4c2.4-2.6,5.5-6.3,8.9-10.5s6.2-8.1,8.2-11A24.6,24.6,0,0,0,497.3,358.3Z"/><path class="cls-3" d="M420.8,256.5v2.9c0,1.9,0,4.6.1,8,.2,7.1.4,16.9.6,28.7h0c1.7,12,7,25.6,14.3,38.7,5.3,9.7,10.9,18.5,15.8,26.7A184.4,184.4,0,0,1,463.3,384a91.6,91.6,0,0,1,5.4,16.3l.9,4.6a7.5,7.5,0,0,0,.4,1.6,8.6,8.6,0,0,0-.1-1.6c-.2-1.1-.4-2.7-.8-4.7a85,85,0,0,0-5-16.5A201.8,201.8,0,0,0,452.5,361c-4.9-8.2-10.5-17.1-15.8-26.7-7.2-13.1-12.5-26.4-14.2-38.2h0c-.5-11.7-.8-21.6-1.1-28.7-.1-3.3-.3-6-.4-8a13.4,13.4,0,0,0-.1-2.1A2,2,0,0,0,420.8,256.5Z"/><path class="cls-4" d="M435.3,332.4s-11-31,4.5-50.5a1,1,0,0,1,1.5-.2.9.9,0,0,1,.3.6C442.8,287.5,444.8,303.3,435.3,332.4Z"/><path class="cls-3" d="M438.6,292.5a37.1,37.1,0,0,0-1.1,5.8c-.5,3.5-1.1,8.5-1.7,14s-.8,10.5-.9,14.1a29.1,29.1,0,0,0,.1,5.9,38.3,38.3,0,0,0,.7-5.8c.4-4.1.8-8.8,1.3-14.1s.9-10,1.3-14A29.2,29.2,0,0,0,438.6,292.5Z"/><g class="cls-5"><path d="M435.3,332.4s-11-31,4.5-50.5a1,1,0,0,1,1.5-.2.9.9,0,0,1,.3.6C442.8,287.5,444.8,303.3,435.3,332.4Z"/></g><path class="cls-4" d="M469.9,407.3s-8.6-31.8,8.4-50a1,1,0,0,1,1.4,0,.9.9,0,0,1,.3.6C480.8,363.2,481.6,379.1,469.9,407.3Z"/><path class="cls-3" d="M476.3,367.8a21.9,21.9,0,0,0-1.6,5.7c-.8,3.5-1.8,8.4-2.7,13.8s-1.7,10.4-2.1,14a23.2,23.2,0,0,0-.2,5.9,54,54,0,0,0,1.1-5.8c.6-4,1.4-8.7,2.3-13.9l2.4-13.8A39.8,39.8,0,0,0,476.3,367.8Z"/><g class="cls-5"><path d="M469.9,407.3s-8.6-31.8,8.4-50a1,1,0,0,1,1.4,0,.9.9,0,0,1,.3.6C480.8,363.2,481.6,379.1,469.9,407.3Z"/></g><path class="cls-4" d="M421.3,294.5s-24.8-19.8-21.5-45.2a1,1,0,0,1,1.1-1,.9.9,0,0,1,.6.3C405.1,252.3,414.7,264.5,421.3,294.5Z"/><g class="cls-5"><path d="M421.3,294.5s-24.8-19.8-21.5-45.2a1,1,0,0,1,1.1-1,.9.9,0,0,1,.6.3C405.1,252.3,414.7,264.5,421.3,294.5Z"/></g><path class="cls-3" d="M404.1,258.9a25.5,25.5,0,0,0,1.9,5.5c1.4,3.4,3.4,7.9,5.7,12.8s4.5,9.4,6.2,12.5a31.2,31.2,0,0,0,3.1,4.9,25.3,25.3,0,0,0-2.4-5.3l-5.9-12.6-5.9-12.6A32,32,0,0,0,404.1,258.9Z"/><path class="cls-4" d="M460.6,375.7s-30.4-6.1-38-30.5a1.2,1.2,0,0,1,.7-1.4c.2,0,.4-.1.6,0C428.7,345.4,442.3,351.9,460.6,375.7Z"/><g class="cls-5"><path d="M460.6,375.7s-30.4-6.1-38-30.5a1.2,1.2,0,0,1,.7-1.4c.2,0,.4-.1.6,0C428.7,345.4,442.3,351.9,460.6,375.7Z"/></g><path class="cls-3" d="M430.5,351.9a30.2,30.2,0,0,0,4,4c2.6,2.3,6.2,5.5,10.4,8.8s7.9,6.3,10.7,8.3a29.2,29.2,0,0,0,4.8,2.9,24.2,24.2,0,0,0-4.3-3.6l-10.5-8.5L435,355.2A23.6,23.6,0,0,0,430.5,351.9Z"/><polygon class="cls-6" points="488 436.9 492.8 480.8 442.1 480.8 448.5 435.6 488 436.9"/><path class="cls-3" d="M445.7,455.4c0,.3,10,.9,22.4,1.4s22.5.4,22.5.1-10-1-22.4-1.4S445.7,455,445.7,455.4Z"/><path class="cls-3" d="M444.5,460.5c0,.4,10.3,1,23.1,1.4s23.2.5,23.2.2-10.4-1-23.2-1.4S444.5,460.1,444.5,460.5Z"/></g><g id="freepik--Characters--inject-2"><path class="cls-3" d="M252.4,53C242,47,226,47,214.7,63.8s-7.3,30.5-4.4,44.5c1.6,7.5,4.9,15.6,2,22.7s-11.6,10.5-17.3,16.2a26.1,26.1,0,0,0-5.3,27.5c4.1,9.8,14,16.3,16.5,26.7s-1.9,18.2-7.6,25.1-12.8,12.1-18.8,18.6-11.1,15-10.6,24.1c.7,12,10.4,21,19.5,28.1,5.4,4.3,11.1,8.6,17.5,11,15,5.7,54.9,12.7,69.4,5.7,21.8-10.5,34.9-32.3,49.1-52.7,17.1-24.6,27.9-75.2,1.2-106"/><path class="cls-7" d="M177.3,285.1l-1.1-2.3a16.6,16.6,0,0,1-1.5-7c0-3.2,1.8-6.8,4.8-10a38.7,38.7,0,0,1,11.7-8.4c4.7-2.5,10.1-4.4,15.8-6.8s11.6-5.7,16.1-11.3a25.2,25.2,0,0,0,5-9.6,22,22,0,0,0-.6-11.4,59.3,59.3,0,0,0-5.1-10.8,73.6,73.6,0,0,1-5.7-11.2,26.6,26.6,0,0,1-1.7-12.5,14.5,14.5,0,0,1,2.2-5.9,17.2,17.2,0,0,1,4.2-4.3c3.2-2.4,6.5-4,9.3-6.5a15.4,15.4,0,0,0,4.9-9.4,24.5,24.5,0,0,0-1-10.4,45.6,45.6,0,0,0-4-9c-3.3-5.6-6.8-10.3-9.9-14.9a84.7,84.7,0,0,1-11.6-23.3,40.6,40.6,0,0,1-1.6-6.9,22.9,22.9,0,0,1-.2-2.5s.1.8.4,2.4a38.8,38.8,0,0,0,1.8,6.9,85.2,85.2,0,0,0,11.7,23.1c3.1,4.5,6.7,9.2,10,14.8a44.9,44.9,0,0,1,4.2,9.2,23.4,23.4,0,0,1,1,10.8,15.5,15.5,0,0,1-5.2,9.9c-2.8,2.6-6.2,4.3-9.2,6.6a15.2,15.2,0,0,0-4,4,15.9,15.9,0,0,0-2,5.5,25,25,0,0,0,1.7,12.1,67,67,0,0,0,5.6,11,58.4,58.4,0,0,1,5.2,11,20.9,20.9,0,0,1,.5,11.9,25,25,0,0,1-5.1,10c-4.6,5.7-10.8,8.9-16.4,11.3s-11.2,4.4-15.9,6.7a39.2,39.2,0,0,0-11.6,8.3c-2.9,3-4.7,6.5-4.8,9.6a18.1,18.1,0,0,0,1.4,6.9A19,19,0,0,1,177.3,285.1Z"/><path class="cls-7" d="M207.2,92.4a1.9,1.9,0,0,1-.2-.7,15.5,15.5,0,0,1-.4-2.1,26.2,26.2,0,0,1,0-7.9A35.8,35.8,0,0,1,210,70.6a27.3,27.3,0,0,1,21.7-15.1,28.5,28.5,0,0,1,10.9,1,24.9,24.9,0,0,1,6.8,3.2l1.6,1.2c.2.2.4.3.5.5a36.9,36.9,0,0,0-9-4.2,27.6,27.6,0,0,0-10.7-.9,27.2,27.2,0,0,0-21.1,14.8,35.4,35.4,0,0,0-3.5,10.7A37.6,37.6,0,0,0,207.2,92.4Z"/><path class="cls-8" d="M331.3,80.1l69.9,129.7-50.6,40.8-30.7-47s-26.2,13.8-43.1-11.2a443.8,443.8,0,0,1-31.4-57c-14.3-31.6-5.9-57.8,18.9-73.5h0C288.7,46.6,316.8,54.2,331.3,80.1Z"/><path class="cls-9" d="M315.8,200.8s15.8-9.9,24.7-32.5c0,0,4.7,23.6-20.4,39Z"/><path class="cls-3" d="M307.2,109c-.2.7-4.3,0-8.3,1.9s-6,5.4-6.7,5.1-.4-1.2.4-2.8a11.4,11.4,0,0,1,5-4.7,11.9,11.9,0,0,1,7-.9C306.4,108,307.3,108.7,307.2,109Z"/><path class="cls-3" d="M266.4,126.4c0,.7-4.2.8-7.7,3.6s-4.7,6.6-5.5,6.5-.6-1.1-.1-2.9a10.3,10.3,0,0,1,3.8-5.6,11.4,11.4,0,0,1,6.7-2.4C265.4,125.5,266.4,126,266.4,126.4Z"/><path class="cls-9" d="M309.1,143a5,5,0,0,1,1.8,3.4,26,26,0,0,1-.3,4,9.9,9.9,0,0,1-1.7,4.7,6.2,6.2,0,0,1-3.7,2,6.6,6.6,0,0,1-4.4-.3,5.9,5.9,0,0,1-2.9-6.2,7.8,7.8,0,0,1,4.1-5.8,12.4,12.4,0,0,1,6.8-1.5"/><path class="cls-3" d="M306.4,159.9c.6-.4-2.2-4.6-.8-10.1s5.9-8.2,5.6-8.9-1.4-.1-3.2,1.2a12.2,12.2,0,0,0-4.8,7.1,11.6,11.6,0,0,0,.8,8.4C305,159.4,306.1,160.2,306.4,159.9Z"/><path class="cls-3" d="M300.7,92.6c-.8-1-4.8,1.2-9.9,2.4s-9.6,1.4-9.8,2.7.9,1.5,2.9,2.1A16.8,16.8,0,0,0,299,95.9C300.5,94.5,301,93.1,300.7,92.6Z"/><path class="cls-3" d="M253.5,111.8c-1.3-.1-2.5,3.1-4.9,6s-5,5-4.7,6.3,1.2,1,2.8.6a11.8,11.8,0,0,0,7.8-10C254.6,112.9,254.1,111.8,253.5,111.8Z"/><path class="cls-3" d="M290.6,147.2c-.1-.3-2.7.6-6.8,2.2-1,.4-2,.7-2.5.1a6.7,6.7,0,0,1-.9-3.4c-.3-3-.6-6.2-1-9.5-1.5-13.4-3.1-24.3-3.6-24.2s.3,11,1.8,24.5c.4,3.3.8,6.4,1.1,9.4a7.4,7.4,0,0,0,1.4,4.4,2.7,2.7,0,0,0,2.4.6,6.7,6.7,0,0,0,1.8-.7C288.3,148.7,290.7,147.4,290.6,147.2Z"/><path class="cls-3" d="M347.2,135.1c-1.2,7.5.1,16,.4,23.7s2.9,15.8,9,19.9,15.1,4.2,17.9,11.2c1.2,3,.9,6.4,1.7,9.5s4.9,7.9,8.9,9.7a18.2,18.2,0,0,0,3,1.1l5.5,10.1c6.8,12.5,14.4,25.7,26.6,31.7a25.8,25.8,0,0,0,21.4,1.2,21.6,21.6,0,0,0,12.9-17.7c.5-5.9-1.6-11.7-1.7-17.7-.2-12.4,8.5-24.3,5.6-36.3-3.4-14.7-21.3-19.7-28.4-32.8-2.9-5.5-3.7-12.1-6.6-17.6-5.3-10.3-16.5-15.1-26.6-20a70.3,70.3,0,0,1-9.9-5.7l1.4-1.6c4.2-5.7,4.4-14.1,1.1-20.4a23,23,0,0,0-16.1-11.8c-4.3-.8-9-.6-12.7-3.1s-6.4-8.4-10.9-10.5-7.1-.5-10.8-.4c-8,.4-16.6-5.8-26.2-12.9-6.8-6-14.4-11.2-23.1-11.7-10.4-.6-19.8,5.7-28.5,11.7s-16.7,12.9-16.2,22.9h0c10.5,18.9,26.4,36.7,55.1,21.3,6.5-3.5,16-3.7,20.9,2.2s2.4,18.5,9.4,22.3a10.4,10.4,0,0,0,4.6,1.1,14.4,14.4,0,0,1,5.9,3S347.7,126.6,347.2,135.1Z"/><path class="cls-7" d="M360.6,109a10,10,0,0,0,.4-1.4,6.1,6.1,0,0,0-.7-4,7.8,7.8,0,0,0-4.5-3.9,57.5,57.5,0,0,0-8-1.8,13,13,0,0,1-4.6-1.8,11.3,11.3,0,0,1-3.7-4.1c-1.9-3.3-2.8-7.5-4.2-11.4a27.2,27.2,0,0,0-19-17,21.5,21.5,0,0,0-6.7-.7,23.4,23.4,0,0,0-6.4,1.2c-4.2,1.3-8,3.2-11.8,4.7a36.8,36.8,0,0,1-11.3,2.8,40.9,40.9,0,0,1-9.9-.6,36.3,36.3,0,0,1-13.4-5.7,19.6,19.6,0,0,1-3.2-2.5,4.7,4.7,0,0,1-1-1l1.1.9,3.2,2.3a38.8,38.8,0,0,0,13.4,5.3,35.7,35.7,0,0,0,9.8.5,37.9,37.9,0,0,0,11-2.8c3.7-1.5,7.5-3.4,11.8-4.8a25.5,25.5,0,0,1,6.7-1.2,23.2,23.2,0,0,1,6.9.7A28.2,28.2,0,0,1,336,80.3c1.4,4.1,2.2,8.1,4,11.3a11.7,11.7,0,0,0,3.4,3.9,14.9,14.9,0,0,0,4.4,1.7,55.1,55.1,0,0,1,8,2,8.8,8.8,0,0,1,4.8,4.3,6.4,6.4,0,0,1,.5,4.1A3.4,3.4,0,0,1,360.6,109Z"/><path class="cls-7" d="M320.7,50.5c-.1-.3-.3-.5-.4-.8a18.9,18.9,0,0,0-.9-2.1,11.1,11.1,0,0,0-2.2-3,8.5,8.5,0,0,0-4.1-2.1c-3.4-.5-7.5,1.3-11.1,4.3s-8.2,5.7-12.8,8.7a44.7,44.7,0,0,1-26.6,6.7,45.2,45.2,0,0,1-8.2-1.3l-2.2-.7-.8-.3a13.3,13.3,0,0,1,3,.6,45.9,45.9,0,0,0,8.3,1,45.7,45.7,0,0,0,26.1-6.8c4.6-3,9-5.8,12.7-8.6s8-4.9,11.6-4.2a8.2,8.2,0,0,1,4.4,2.3,16.9,16.9,0,0,1,2.1,3.1,20.9,20.9,0,0,1,.8,2.3A1.6,1.6,0,0,1,320.7,50.5Z"/><path class="cls-10" d="M467.4,297.5c-15.6,7.5-22.2,11-37.8,13v.2l-20.7-53.2c2.2-2.2,4.8-4.8,7.6-8.1a33.3,33.3,0,0,0,5.8-9.6c1.7-4.2,3.8-10,4-13.5s5.4-6.1,7.4-2.7,1.5,15.4-4.8,27.8,12.9,3.9,20,1Z"/><path class="cls-11" d="M341.8,226a45.3,45.3,0,0,1,31.5-18.6c11.1-1.4,20.4-2.7,31.3,2.5,24.3,11.5,28.1,25.9,41.1,50.7,10.1,19.3,16.4,53.6,13.2,88.2s-9,79.6-9,79.6l31.7,53.4H317.8V380.5L263.3,343Z"/><path class="cls-10" d="M452.2,264.3l-8.1,16.4c-1.3,2.7-3.2,5.7-6,5.6s-4.5-2.9-4.6-5.6a17.2,17.2,0,0,1,2.2-7.8l9.2-20,.6-1.8s2.9-5.4,6.4-3.6S456.4,256,452.2,264.3Z"/><path class="cls-10" d="M458,277.8l-8.1,16.4c-1.3,2.7-3.2,5.7-6,5.6s-4.5-2.9-4.6-5.6a18,18,0,0,1,2.2-7.9l9.2-19.9.6-1.8s2.9-5.5,6.4-3.6S462.2,269.4,458,277.8Z"/><path class="cls-10" d="M463.5,291.7l-7.7,15.5c-1.3,2.5-3.1,5.4-5.7,5.4s-4.3-2.8-4.4-5.4a17.1,17.1,0,0,1,2.1-7.4c2.9-6.3,5.8-12.6,8.8-18.9l.5-1.7s2.8-5.2,6.1-3.4S467.4,283.7,463.5,291.7Z"/><path class="cls-10" d="M468.5,298.5l-5.8,11.6c-1,1.8-2.3,4-4.2,3.9a4,4,0,0,1-3.3-4,13.4,13.4,0,0,1,1.6-5.5l6.5-14.1.4-1.3s2.1-3.8,4.6-2.5S471.4,292.6,468.5,298.5Z"/><path class="cls-12" d="M453.3,261.2c-.3.9-.7,1.7-1.1,2.6l-3.2,6.8-4.9,10.2a13,13,0,0,1-4.1,5.4,4.3,4.3,0,0,1-3.5.3,6.4,6.4,0,0,1-2.9-2.5,9.3,9.3,0,0,1-.4-7.3,37.6,37.6,0,0,1,2.7-6.2l4.9-10.1c1.5-2.9,2.6-5,3.4-6.8a18.8,18.8,0,0,1,1.4-2.4,13.9,13.9,0,0,1-1,2.6l-3.2,6.9-4.8,10.2a54.2,54.2,0,0,0-2.6,6,8.8,8.8,0,0,0,.4,6.6,3.8,3.8,0,0,0,5.2,1.9,10.8,10.8,0,0,0,3.7-5l5.1-10,3.5-6.8C452.3,262.8,452.8,262,453.3,261.2Z"/><path class="cls-12" d="M459,275.6a20.3,20.3,0,0,1-1.1,2.6l-3.2,6.9-4.9,10.1a12.4,12.4,0,0,1-4.1,5.4,3.8,3.8,0,0,1-3.6.3,5.6,5.6,0,0,1-2.8-2.5,9.9,9.9,0,0,1-.4-7.4,66.5,66.5,0,0,1,2.7-6.1c1.9-3.8,3.5-7.2,5-10.1s2.5-5.1,3.4-6.8a13.8,13.8,0,0,1,1.4-2.4,13.6,13.6,0,0,1-1.1,2.5l-3.1,7-4.8,10.2a40.2,40.2,0,0,0-2.6,6,8.4,8.4,0,0,0,.3,6.6,3.9,3.9,0,0,0,5.3,1.9,12.4,12.4,0,0,0,3.7-5l5.1-10.1,3.5-6.7A14.1,14.1,0,0,1,459,275.6Z"/><path class="cls-12" d="M465.5,286.3c-.3.9-.7,1.8-1.1,2.7l-2.9,7.1c-1.2,3-2.7,6.6-4.5,10.5a14.9,14.9,0,0,1-3.9,5.6,4.2,4.2,0,0,1-3.6.7,5.7,5.7,0,0,1-3-2.3,9.1,9.1,0,0,1-.7-7.4,35.2,35.2,0,0,1,2.7-6.3l5-10.2,3.5-6.9a8.4,8.4,0,0,1,1.4-2.4c-.3.9-.7,1.7-1.1,2.6l-3.2,7-4.9,10.3a46,46,0,0,0-2.5,6.1,7.9,7.9,0,0,0,.6,6.7,4.7,4.7,0,0,0,2.5,1.9,3.8,3.8,0,0,0,2.9-.6,13.5,13.5,0,0,0,3.6-5.2c1.8-3.8,3.3-7.4,4.6-10.4s2.4-5.4,3.3-7A11.9,11.9,0,0,1,465.5,286.3Z"/><path class="cls-10" d="M369.9,46l-5.4.6-29.9,63.7h0L323.9,133a86.6,86.6,0,0,1-8.9,12.6c-12.4,14.6-48.6,35.3-48.6,35.3l69.5,40.8,37-27.3h.1s26.9,12.3,42.5-13.7,46.7-89,46.7-89C441.5,59.8,406.2,42.3,369.9,46Z"/><path class="cls-12" d="M373.3,194.1c-14.7-6.5-25.4-20.3-28.7-37,0,0-4,28.1,21.8,42.1Z"/><path class="cls-10" d="M351.6,75.7c-.3-.4-13.7-16.5-23.6,1.7s10.5,25.8,10.8,25.3S351.6,75.7,351.6,75.7Z"/><path class="cls-12" d="M336.2,91.9c0-.1-.5,0-1.1,0a3.2,3.2,0,0,1-2.2-1.3c-1.4-1.9-1.3-5.9.4-9.2a10.8,10.8,0,0,1,3.3-4,3.8,3.8,0,0,1,3.6-1.1,2,2,0,0,1,1.3,2c0,.6-.4.9-.3,1s.5-.1.8-.9a1.9,1.9,0,0,0,0-1.5,2.9,2.9,0,0,0-1.4-1.5,4.5,4.5,0,0,0-4.7.9,11.9,11.9,0,0,0-3.8,4.5c-1.9,3.7-2,8.3,0,10.6a3.5,3.5,0,0,0,3,1.2C335.9,92.3,336.2,92,336.2,91.9Z"/><path class="cls-3" d="M420.9,116.3c.7-.3,2.4,3.5,6.4,5.6s7.8,1.7,8,2.4-.8,1-2.5,1.3a10.2,10.2,0,0,1-6.8-1.3,11.1,11.1,0,0,1-4.7-5.1C420.5,117.6,420.5,116.4,420.9,116.3Z"/><path class="cls-3" d="M384,93.1c.7-.2,2.2,3.7,6,6s7.8,2.2,7.9,3-.9,1-2.6,1.2a11.3,11.3,0,0,1-6.7-1.8,10.7,10.7,0,0,1-4.4-5.4C383.5,94.4,383.6,93.3,384,93.1Z"/><path class="cls-3" d="M394.7,140.5c.1-.2,2.7.9,6.8,3,1.1.5,2.1.9,2.7.3a6.1,6.1,0,0,0,1.1-3.5c.6-3.1,1.1-6.3,1.7-9.7,2.6-13.8,5.1-24.9,5.7-24.8s-1.2,11.4-3.8,25.2l-1.9,9.7a7,7,0,0,1-1.8,4.4,2.8,2.8,0,0,1-2.5.4l-1.8-.8C397,142.3,394.6,140.8,394.7,140.5Z"/><path class="cls-3" d="M382,135.9c.7.4-1.9,4.7-.2,10.2s6.3,7.9,6,8.5-1.4.2-3.4-1a12.5,12.5,0,0,1-5.1-6.8,12.1,12.1,0,0,1,.4-8.4C380.7,136.5,381.8,135.7,382,135.9Z"/><path class="cls-3" d="M408.8,86.4c-1,.9-4.5-2.2-9.2-4.5s-9.1-3.5-9.1-4.9,1.2-1.2,3.3-1.3a14.9,14.9,0,0,1,7.7,1.9,15.9,15.9,0,0,1,6.2,5.3C408.9,84.6,409.3,86,408.8,86.4Z"/><path class="cls-3" d="M441.4,113c-1.2.5-3.2-2.2-6.3-4.4s-6.1-3.2-6.2-4.6,1-1.2,2.7-1.3a10.7,10.7,0,0,1,10,7.2C442.2,111.6,442,112.8,441.4,113Z"/><path class="cls-3" d="M483.8,83.3a12.1,12.1,0,0,0,1.7-10.9,7.5,7.5,0,0,0-8.7-4.9,9.8,9.8,0,0,0-.1-13.3l-.6-.7c-3.9-3-9.2-2-13.7-3.5s-7.9-5-10.6-9-4.8-8.4-7.7-12.3c-12.4-17.1-35.4-20.3-51.6-7.1-4.3-5.4-12.1-6.6-18.2-4s-10.8,8.5-13.6,14.9a71.1,71.1,0,0,0-4.1,13.6l-.6,1c-8.2,14.6-16.6,32.5-10.9,36.5,9.9,6.8,19.4-14.9,19.4-14.9,15.2,3.1,22.2-19.6,27-20.6s15.3-3.5,32.8,27.8c6.8,12.1,20.2,20.8,28.5,24l.7.3h.5a23.9,23.9,0,0,0,8.3,1.5,15.2,15.2,0,0,0,9.2-2.8,9.2,9.2,0,0,0,3.4-9.2A18.3,18.3,0,0,0,483.8,83.3Z"/><path class="cls-13" d="M463.7,76.4a2.5,2.5,0,0,1-1.2-1.1,7.2,7.2,0,0,1-1.2-4.6,6.9,6.9,0,0,1,.9-3.4,6.1,6.1,0,0,1,2.9-2.8,7.8,7.8,0,0,1,8.9,1.9,10.6,10.6,0,0,1,1.3,11.8A12.2,12.2,0,0,1,464.2,85,18.6,18.6,0,0,1,451,78.7a39.7,39.7,0,0,1-8.4-14c-2-5.2-3.5-10.6-5.2-15.6a56.5,56.5,0,0,0-6.2-13.7l-1-1.5a13.4,13.4,0,0,0-1.1-1.4l-1-1.3L426.9,30a26,26,0,0,0-5.1-3.8,25.3,25.3,0,0,0-26.4.4,24.2,24.2,0,0,0-3.6,2.7,6.9,6.9,0,0,1-1.3,1.1,20.9,20.9,0,0,1,4.8-4.1,25.5,25.5,0,0,1,15.8-4.2,26,26,0,0,1,16.3,7.3l1.2,1.2,1.1,1.3,1.2,1.4,1,1.5a58.9,58.9,0,0,1,6.3,14c1.7,5,3.2,10.3,5.2,15.6a40.7,40.7,0,0,0,8.2,13.7,18.1,18.1,0,0,0,12.5,6,11.6,11.6,0,0,0,10.5-6.3,9.9,9.9,0,0,0-1-10.9,7.6,7.6,0,0,0-8.4-2,6.8,6.8,0,0,0-3.6,5.8,7.1,7.1,0,0,0,1.1,4.5A4,4,0,0,0,463.7,76.4Z"/><path class="cls-4" d="M317.8,376.1l44.4-144.5-10.6-21.5-64.2-44.6c-2.3,1.7-77.3,32.8-99.8,106-16.1,52.5-25.7,160.6-25.7,160.6l-8.4,49.7H317.8V376.1"/><g class="cls-14"><path d="M189.7,429.1c11.8,8.8,23.8,17.8,37.3,23.2s28.9,7,42.2,1c5.9-2.7,11.8-6.9,18.2-6s12.7,8.9,19.2,13.3c3.5,2.4,7.4,5.5,10.6,2.6l.2-12.3c-.1-15.6.3-49.6.3-49.6-.1-1.7,0-.4-.6-.8-2.8-2.1-6.5-.4-9.2,2-12.1,11.3-22.3,25.6-36.9,33.1-12.5,6.5-27.1,7.2-40.9,4.7s-26.8-7.9-39.8-13.3"/></g><path class="cls-4" d="M303.8,221.7s-38.5,30.1-15.2,90.4,44.6,91.5,44.6,91.5l74.7-65.2-13.5-26.9a140.2,140.2,0,0,1-12.7-37.6c-3.2-17.1-11-43.5-29.7-58.6C340.6,206.2,324,208.6,303.8,221.7Z"/><path class="cls-13" d="M243.9,192.7a28.8,28.8,0,0,1,6.5.7,21.2,21.2,0,0,1,7.2,2.8,15,15,0,0,1,3.7,3.4,16.9,16.9,0,0,1,2.6,5.2,25.3,25.3,0,0,1,.6,13.1,24,24,0,0,1-7.2,13.1c-3.7,3.6-8.5,6-13.1,9.1a32.8,32.8,0,0,0-6.4,5.3,19,19,0,0,0-4.2,7.6c-1.6,5.9-1,12-1.4,17.8a35.1,35.1,0,0,1-1.4,8.5,29.2,29.2,0,0,1-3.4,7.4,31,31,0,0,1-10.6,10.1,25.2,25.2,0,0,1-12,3.1,28,28,0,0,1-16.9-5.7,29.8,29.8,0,0,1-3.6-3.5l-.9-1-.2-.4a29.7,29.7,0,0,0,4.9,4.5,26.5,26.5,0,0,0,6.8,3.7,25.3,25.3,0,0,0,9.8,1.7,24.1,24.1,0,0,0,11.7-3.1,29.8,29.8,0,0,0,14.9-25.4c.4-5.7-.2-11.9,1.4-18a21.2,21.2,0,0,1,4.4-7.9,31.1,31.1,0,0,1,6.6-5.5c4.6-3,9.4-5.5,13.1-9a23.9,23.9,0,0,0,7-12.6,25.3,25.3,0,0,0-.5-12.8,16,16,0,0,0-2.4-4.9,12.9,12.9,0,0,0-3.6-3.4,21.8,21.8,0,0,0-7-3c-2-.5-3.7-.6-4.7-.8h-1.7Z"/><path class="cls-13" d="M279.6,179.9l.7-.3,2.1-.8a13.8,13.8,0,0,1,7.8.5,12.7,12.7,0,0,1,4.7,3.2,13.2,13.2,0,0,1,2.8,6.1,11.7,11.7,0,0,1-1,7.4,11,11,0,0,1-5.9,5,12.6,12.6,0,0,1-13.7-3.2A12.9,12.9,0,0,1,274,186a11.2,11.2,0,0,1,4.8-6.6l2-.9h.8l-2.6,1.3a11.1,11.1,0,0,0-4.4,6.5,12.2,12.2,0,0,0,3.1,11,11.8,11.8,0,0,0,12.8,2.9,9.5,9.5,0,0,0,5.4-4.5,10.5,10.5,0,0,0,1-6.8,11.9,11.9,0,0,0-2.6-5.7A11,11,0,0,0,290,180a13.1,13.1,0,0,0-7.6-.7C280.6,179.6,279.7,180,279.6,179.9Z"/><path class="cls-13" d="M312.3,365.4a10.2,10.2,0,0,0,2,2.2,10.4,10.4,0,0,0,7.8,1.8,20.3,20.3,0,0,0,11-7,38.2,38.2,0,0,0,4.9-7,46.1,46.1,0,0,0,3.3-9,39.2,39.2,0,0,0-1.3-22,45.7,45.7,0,0,0-6.1-10.5c-2.5-3.4-5.3-6.8-7.6-10.6a28.5,28.5,0,0,1-4.2-13.3,65.1,65.1,0,0,1,1.4-14.6,62.9,62.9,0,0,0,1.2-15,35.4,35.4,0,0,0-8.9-20.6,28,28,0,0,0-5.6-4.7,22,22,0,0,0-13.4-3.5,24.2,24.2,0,0,0-6.6,1.3,30.6,30.6,0,0,0-6,3,26.7,26.7,0,0,0-4.9,4.6,20.8,20.8,0,0,0-3.3,5.8,47,47,0,0,0-2.1,12.9,47.1,47.1,0,0,1-1.7,12.5,42.5,42.5,0,0,1-5.3,10.4c-2.1,3-4.2,5.9-5.9,8.8a25.5,25.5,0,0,0-3.2,9,24.8,24.8,0,0,0,.6,8.6,23,23,0,0,0,3.2,6.7,16.4,16.4,0,0,0,2.1,2.5l1.1,1,1.1.9a19.1,19.1,0,0,0,7.5,3.5l2.1.4h0l-2.2-.3a18.6,18.6,0,0,1-7.6-3.4l-1.2-.8-1.1-1.1a21.2,21.2,0,0,1-5.4-9.3,21.9,21.9,0,0,1-.7-8.8,23.4,23.4,0,0,1,3.2-9.3c1.7-3,3.8-5.8,5.8-8.9a38.7,38.7,0,0,0,5.2-10.1,52.2,52.2,0,0,0,1.7-12.4,42.4,42.4,0,0,1,2.1-13.2,19.8,19.8,0,0,1,3.4-6,25.3,25.3,0,0,1,5-4.8,27.7,27.7,0,0,1,6.2-3.1,22.9,22.9,0,0,1,6.9-1.4,24.7,24.7,0,0,1,7.1.6,28.7,28.7,0,0,1,6.7,3,26,26,0,0,1,5.7,4.8,31.8,31.8,0,0,1,4.6,6.3,36.9,36.9,0,0,1,4.5,14.9,55.5,55.5,0,0,1-1.2,15.2,69,69,0,0,0-1.4,14.4,28,28,0,0,0,4.1,12.9c4.6,7.5,10.9,13.5,13.7,21.4a38.5,38.5,0,0,1,1.2,22.3,42.3,42.3,0,0,1-3.4,9.2,36.2,36.2,0,0,1-5,7.1,20.3,20.3,0,0,1-11.2,7,10.1,10.1,0,0,1-8-2.1,5.7,5.7,0,0,1-1.5-1.6A2.5,2.5,0,0,1,312.3,365.4Z"/><path class="cls-13" d="M373.1,253.3l-.4.7a14.3,14.3,0,0,1-1.4,2,18.2,18.2,0,0,1-7.3,4.8,17.9,17.9,0,0,1-12.7-.4,23.8,23.8,0,0,1-11.7-10.9,32.2,32.2,0,0,1-3.7-16.2c.2-5.1,1.2-9.9,3.3-13.1a10.3,10.3,0,0,1,7.1-5h2.4l.8.2h-3.1a10.9,10.9,0,0,0-6.7,5,27.1,27.1,0,0,0-3,12.8,32.6,32.6,0,0,0,3.6,15.7,23.7,23.7,0,0,0,11.3,10.6,18.3,18.3,0,0,0,12.2.6,17.8,17.8,0,0,0,7.2-4.6C372.4,254.2,373,253.2,373.1,253.3Z"/><path class="cls-13" d="M388,298a12.7,12.7,0,0,0-2.7-2.5,10,10,0,0,0-9.2-.7c-3.8,1.5-7.2,5.7-9,11.2s-1.8,12-2.6,18.7-1.7,13.1-2.2,18.9a72.1,72.1,0,0,0,.2,15.4,43.7,43.7,0,0,0,2.4,10.1,32.7,32.7,0,0,1,1.4,3.5,3.5,3.5,0,0,1-.5-.8,15.1,15.1,0,0,1-1.2-2.6,38.8,38.8,0,0,1-2.8-10.1,67.9,67.9,0,0,1-.3-15.6c.4-5.9,1.4-12.2,2.1-18.9s.9-13.2,2.7-18.9,5.5-10,9.6-11.6a10.6,10.6,0,0,1,9.6,1.1,9,9,0,0,1,2,1.9A4.1,4.1,0,0,1,388,298Z"/><path class="cls-13" d="M159,454.3a17.5,17.5,0,0,0,1.1,2.4,27.2,27.2,0,0,0,3.8,6.1,25,25,0,0,0,3.8,3.5,11.1,11.1,0,0,0,5.5,2.2,11.2,11.2,0,0,0,6.4-1.7,67.1,67.1,0,0,0,6.8-4c4.6-3,9.7-6.6,16.1-8s13.2-1.7,19.7-4.7A35,35,0,0,0,238,433.9a64.8,64.8,0,0,0,6.3-24.5,72.8,72.8,0,0,0-1.8-25.5,37.8,37.8,0,0,0-4.9-10.8,25.8,25.8,0,0,0-8.1-7.7c-3-2-6.3-3.4-9.2-5.3a25.3,25.3,0,0,1-7.5-7.1c-3.8-5.5-5.9-11.6-8.2-16.8a46.9,46.9,0,0,0-7.8-13.1,19.5,19.5,0,0,0-9.4-5.6,13.4,13.4,0,0,0-6.9.2c-1.5.5-2.2,1-2.2.9a11.3,11.3,0,0,1,2.2-1.1,12.8,12.8,0,0,1,7-.4,19.3,19.3,0,0,1,9.7,5.7,42.7,42.7,0,0,1,8,13.1c2.3,5.2,4.5,11.2,8.3,16.6a23.7,23.7,0,0,0,7.2,6.9c2.9,1.9,6.2,3.3,9.3,5.2a27.2,27.2,0,0,1,8.3,7.9,40.6,40.6,0,0,1,5.1,11.2,74.5,74.5,0,0,1,1.8,25.8,66.9,66.9,0,0,1-6.4,24.9,35.5,35.5,0,0,1-16.2,16.5,39.7,39.7,0,0,1-10.2,2.9c-3.3.6-6.6,1-9.7,1.8-6.2,1.3-11.3,4.9-15.9,7.8a68.5,68.5,0,0,1-6.9,4,23.3,23.3,0,0,1-3.3,1.4l-.9.2h-2.5a12,12,0,0,1-5.7-2.4,20.9,20.9,0,0,1-3.7-3.6,22.5,22.5,0,0,1-3.8-6.3A18.6,18.6,0,0,1,159,454.3Z"/><path class="cls-3" d="M407.9,338.4l-.4.3-1,1-4,3.6-15.3,13.5-53.7,47.1-.4.3-.2-.3c-2.8-4.4-5.4-9.1-8-13.8l-7.7-14.7c-5.1-10.1-10.2-20.7-15.2-31.7s-9.5-21.2-13.6-31.4c-2.1-5.2-4.1-10.2-5.9-15.3-.8-2.5-1.7-5-2.4-7.5s-.5-2.6-.8-3.8-.5-2.6-.7-3.9a65.7,65.7,0,0,1,2.3-28.9,69.2,69.2,0,0,1,11.8-22.1A56.4,56.4,0,0,1,308,217.7a47.2,47.2,0,0,1,13.9-5.4,42,42,0,0,1,9.3-1l2.5.2h-2.5a47.3,47.3,0,0,0-9.2,1.2,49.8,49.8,0,0,0-13.8,5.5,55.1,55.1,0,0,0-15,13.1,65.2,65.2,0,0,0-13.8,50.4c.2,1.2.5,2.5.7,3.8s.6,2.5.9,3.8a71.6,71.6,0,0,0,2.3,7.5c1.8,5,3.8,10.1,5.8,15.2,4.3,10.2,8.8,20.7,13.7,31.3S312.9,364.9,318,375c2.6,5,5.1,9.9,7.7,14.7s5.1,9.4,7.8,13.7H333c22-19.1,40.6-35.4,53.9-46.8l15.4-13.4,4.2-3.5,1-.9Z"/><path class="cls-10" d="M471.7,402.5c-3.7-19.3-15.8-23.9-15.8-23.9l-2.8,23.7-32.3-14.2-25.2-38.5-53.2,46.5s42.4,46.6,60.2,48.5,59.8-.1,59.8-.1S475.4,421.8,471.7,402.5Z"/><path class="cls-8" d="M271.7,348.8l-32.8,41.9-70.1-10.8v-1l2.1-23.8c-20.9,3.3-24.1,20.6-25.1,32.6s14.3,25.8,17.5,28.2v.6s71,41.1,103.1,29.8c15-5.3,51.3-46.1,51.3-46.1V380.5Z"/><path class="cls-11" d="M262.5,342.7l55.3,44.9,2.9-5.3q-17.6-33.9-31.8-69.5Z"/><path class="cls-8" d="M192.5,248.6l8.1,16.4c1.3,2.7,3.2,5.7,6,5.6s4.5-2.9,4.6-5.6a17.2,17.2,0,0,0-2.2-7.8l-9.2-20-.5-1.8s-3-5.4-6.5-3.6S188.3,240.3,192.5,248.6Z"/><path class="cls-8" d="M186.7,262.1l8.1,16.4c1.3,2.7,3.1,6.6,5.9,6.5a6.3,6.3,0,0,0,5.2-5.8c.1-2.7-1.5-6.1-2.7-8.6L194,250.7l-.5-1.8s-3-5.4-6.5-3.6S182.5,253.8,186.7,262.1Z"/><path class="cls-8" d="M181.2,276l7.7,15.5c1.3,2.5,3.1,5.4,5.8,5.4s4.2-2.8,4.3-5.4a17.1,17.1,0,0,0-2.1-7.4l-8.8-18.9-.4-1.8s-2.9-5.1-6.2-3.3S177.3,268,181.2,276Z"/><path class="cls-8" d="M176.2,282.8l5.8,11.5c.9,1.9,2.2,4.1,4.2,4a3.9,3.9,0,0,0,3.2-4,13.3,13.3,0,0,0-1.5-5.5l-6.5-14.1-.4-1.3s-2.1-3.8-4.6-2.5S173.3,276.9,176.2,282.8Z"/><path class="cls-9" d="M191.4,245.5c.5.8,1,1.6,1.4,2.4l3.5,6.7c1.4,2.8,3.2,6.3,5,10.1a11.7,11.7,0,0,0,3.8,5,3.9,3.9,0,0,0,5.2-1.9,8.4,8.4,0,0,0,.3-6.6,39.9,39.9,0,0,0-2.5-6l-4.8-10.3-3.2-6.9a11.7,11.7,0,0,1-1-2.6,20.1,20.1,0,0,1,1.4,2.5l3.4,6.7,4.9,10.2a33.3,33.3,0,0,1,2.7,6.1,9.5,9.5,0,0,1-.4,7.4,4.9,4.9,0,0,1-2.8,2.5,3.8,3.8,0,0,1-3.6-.3,11.5,11.5,0,0,1-4-5.4L195.8,255l-3.3-6.9A20.3,20.3,0,0,1,191.4,245.5Z"/><path class="cls-9" d="M185.8,259.9l1.4,2.5,3.4,6.7,5.1,10a11.7,11.7,0,0,0,3.7,5,3.9,3.9,0,0,0,5.3-1.8,8.7,8.7,0,0,0,.3-6.7,45.3,45.3,0,0,0-2.6-6l-4.8-10.2-3.1-6.9a20.3,20.3,0,0,1-1.1-2.6,14.9,14.9,0,0,1,1.4,2.4c.9,1.8,2.1,4.1,3.4,6.8l5,10.1a37.6,37.6,0,0,1,2.7,6.2,9.7,9.7,0,0,1-.5,7.3,5.7,5.7,0,0,1-2.8,2.5,4.2,4.2,0,0,1-3.5-.3,11.5,11.5,0,0,1-4.1-5.4l-4.9-10.2-3.2-6.8A8.5,8.5,0,0,1,185.8,259.9Z"/><path class="cls-9" d="M179.2,270.7a8.4,8.4,0,0,1,1.4,2.4c.9,1.7,2,4,3.3,7s2.8,6.6,4.6,10.4a14.7,14.7,0,0,0,3.6,5.2,3.8,3.8,0,0,0,2.9.6,4.7,4.7,0,0,0,2.5-1.9,8.7,8.7,0,0,0,.6-6.7,46.6,46.6,0,0,0-2.6-6.1c-1.8-3.8-3.4-7.3-4.9-10.3l-3.1-7a14.5,14.5,0,0,1-1.1-2.6,18.8,18.8,0,0,1,1.4,2.4l3.4,6.9c1.4,2.8,3.2,6.4,5,10.2a35.2,35.2,0,0,1,2.7,6.3,8.8,8.8,0,0,1-.7,7.4,5.7,5.7,0,0,1-3,2.3,4.3,4.3,0,0,1-3.6-.7,13.6,13.6,0,0,1-3.8-5.6c-1.9-3.9-3.3-7.5-4.5-10.5l-3-7.1C179.9,272.4,179.5,271.6,179.2,270.7Z"/></g><path class="cls-15" d="M309.2,377.8c1.9,4.5,3.2,8.6,5.3,11.2s3.3,7.1,3.8,11.7l.2,2v.2c.4,4.1,1.2,9.1,4.1,13.1a16.6,16.6,0,0,0,2.6,2.7c2.5.4,5,1.1,7.3,1.7-.9-3.7-1.7-7-3.3-9.2s-2.5-7-2.9-11.5l-.2-2v-.2c-.7-4.5-1.9-9.7-5.4-13.8s-7.9-6-12.1-7.2Z"/><path class="cls-15" d="M321.4,383.1l1,1.3,2-3.6h-1.2l-3.5.5A13.7,13.7,0,0,1,321.4,383.1Z"/><path class="cls-15" d="M307.3,376c-2.1-4.1-5.5-8.9-11.3-11.2a20.3,20.3,0,0,0-15.6.8l1.4.6c4.8,2,8.1,5,11.3,6.2s6,5.1,7.8,9.1l.9,2c1.6,3.7,3,8,5.9,11.3s6.4,5.4,9.8,7.3v-1.3c-.5-4.4-1.4-8.7-3.6-11.2s-3.5-6.9-5.5-11.4C308,377.4,307.6,376.7,307.3,376Z"/><path class="cls-15" d="M327.1,398.3v1.3c.4,4.3.8,8.5,2.7,11s2.6,6,3.6,9.9c2.2-1.8,4.5-3.7,6.9-5.3-.3-1.2-.7-2.4-1-3.6a26.2,26.2,0,0,0-2.9-5.8C334.1,402.5,330.5,400.3,327.1,398.3Z"/><path class="cls-15" d="M252.7,381.5a23.8,23.8,0,0,0-3.1,2.6,11.5,11.5,0,0,0-1.4,1.7,12.7,12.7,0,0,0-1.3,1.9,19.5,19.5,0,0,0-1.9,4.4,20.7,20.7,0,0,0-.5,5,17.1,17.1,0,0,0,.9,4.6,16.6,16.6,0,0,0,2,4,18,18,0,0,0,5.5,5.5l-.3-1.5c-.7-5.2.2-9.6,0-13s2.7-7.6,6.3-9.5l1.7-.9c3.4-1.6,7.1-2.2,10.3-3.9a13.7,13.7,0,0,0,2.1-1.5,11.2,11.2,0,0,0,2.2-1.6,44,44,0,0,1,3.9-3.5l-1-.4a17.2,17.2,0,0,0-5.9-1.2,10.1,10.1,0,0,0-5.3,1.1c-3,1.7-7.3,2.3-12,4.9A9.8,9.8,0,0,0,252.7,381.5Z"/><path class="cls-15" d="M346.1,375.1l1.3,1.3v.2c2.8,2.9,5,6.4,7.5,8.6s5.3,3.3,7.9,5.6l.3-1.1c.7-3.8-.3-8.3-2.8-10.5s-4.9-6.1-8.5-9.8l-1.6-1.6h-.2a20.6,20.6,0,0,0-7.1-4.2,18.5,18.5,0,0,0-9.1-.9c-6,1-10.3,4.9-13,8.5l1.5-.2c5-.4,9.5.2,12.8-.3S343.1,372,346.1,375.1Z"/><path class="cls-15" d="M272.1,373.3a19,19,0,0,1,6.2,1.2l1.6.8h.2c3.5,1.7,6.3,4.2,9.7,5.5s7,1.6,10.8,2.3l-.5-1.2c-1.8-3.8-4.2-7.5-7.4-8.7s-6.5-4.1-11.4-6.2l-2.1-.8h-.3a22.5,22.5,0,0,0-8-1,30.3,30.3,0,0,0-4.2.6,20.9,20.9,0,0,0-4.1,1.7,19.8,19.8,0,0,0-9.4,12.6l1.3-.7c4.7-2.5,9.1-3.2,12-4.8a11.7,11.7,0,0,1,2.6-1A15.1,15.1,0,0,1,272.1,373.3Z"/><path class="cls-15" d="M322.4,371.9l-2.4.3a26.6,26.6,0,0,0-10.7,3.6,28.2,28.2,0,0,1,9.6,4.9,27,27,0,0,1,4.1-.7l2.1-.2c4.1-.2,8.2.3,11.6-.3s6.1-2,9.7-2.9l-.8-.8c-2.9-2.9-6.9-4.9-10.2-4.3S327.5,371.4,322.4,371.9Z"/><path class="cls-15" d="M299.7,391.2l1.2-.7,2.4-1.2-1.8-4.1A34.2,34.2,0,0,0,299.7,391.2Z"/><path class="cls-15" d="M320.9,427.4c3.6-.2,7.8,1.3,12.5,2.6l2.3.5c4.5,1,10.1,1.6,15.4-.7s8.4-6.5,10.5-10.6a3.3,3.3,0,0,1-1.4.4c-4.9,1.3-9.3,1.3-12.4,2.7s-7.9.9-12.3-.2l-2.1-.5c-4.1-1.1-8.5-2.6-13-2.3a37.4,37.4,0,0,0-12,3.8l1.1.6C313.6,425.8,317.6,427.7,320.9,427.4Z"/><path class="cls-15" d="M311,421l2.8-1.1a14.1,14.1,0,0,0-2.9-.1,19.1,19.1,0,0,0-7.1,1l3.5,1.8Z"/><path class="cls-15" d="M357.6,427.9h.9a26,26,0,0,0,7.2-1.3c4.5-1.5,7.7-5.3,10.3-8.4h-7.8a17.5,17.5,0,0,0-5.4.8,25.1,25.1,0,0,1-5.8,7.9l.3.4Z"/><path class="cls-15" d="M270.3,421.2a18.9,18.9,0,0,0-2.8-2.3c-3.1-1.9-5.2-6.1-5.9-10.4l-.3-1.8v-.2a26.2,26.2,0,0,0-.1-2.8c.1-1,.1-1.9.2-2.7s.1-1.7.2-2.5v-1.1a2.1,2.1,0,0,0,0-1.1c-.2-2.6-1.1-5.5-1.1-9l-1,.5c-3.4,1.9-6.2,5.5-6,8.9s-.7,7.8.1,13l.4,2.3v.2c1.1,4.8,4.1,10.4,9.2,13.6a14.7,14.7,0,0,0,2.8,1.4A34.8,34.8,0,0,1,270.3,421.2Z"/><path class="cls-15" d="M306.5,398.9l-1.2.5c-3.9,2-7.7,4.5-9.5,7.3s-6.1,5.1-10.3,7l-2.1.8c-1.9.9-4,1.7-6,2.8a28,28,0,0,0-5.6,3.6,30.3,30.3,0,0,0-3.9,4.8c-1,1.8-2.1,3.5-3,5.2h1.2a29.2,29.2,0,0,0,6.3-1.3,11.5,11.5,0,0,0,4.9-2.6c2.7-2.3,6.9-3.8,11.4-5.7l2.1-1c4.1-1.9,8.7-4.7,11.7-9a20.9,20.9,0,0,0,2.8-6.3C305.9,402.7,306.1,400.9,306.5,398.9Z"/><path class="cls-15" d="M271.2,420.3a29.1,29.1,0,0,1,5.6-3.8l1-.4a24.6,24.6,0,0,0-5.5-4.8c-3.1-2-6.7-2.8-10-4.2v1.2c.7,4,2.7,8.1,5.6,9.9a12.8,12.8,0,0,1,2.9,2.4C271.1,420.5,271.1,420.4,271.2,420.3Z"/><path class="cls-15" d="M304.9,398.6l1.8-.9h.2l1.5-.7a10,10,0,0,1-1.4-1.5,24,24,0,0,1-3.3-5.2c-.8.4-1.6.7-2.4,1.2l-1.9,1h-.2l-3.1,1.8a31.5,31.5,0,0,0-2.9,2.2,21.5,21.5,0,0,0-4.9,5.1c-2.5,3.6-3.4,7.9-4.4,11.8l1.2-.5c4.1-1.9,8-3.9,9.9-6.7S300.9,400.7,304.9,398.6Z"/><path class="cls-15" d="M369.4,398.3c.5-1,.9-2.1,1.4-3.2s.9-2.4,1.2-3.7.3-1.8.4-2.6a21.2,21.2,0,0,0-.9-8.5,18.6,18.6,0,0,0-5.1-7.9,20.4,20.4,0,0,0-14.9-4.6l1.1,1c3.6,3.6,5.9,7.4,8.4,9.7s3.9,7.2,3,11.2l-.4,1.9a26.2,26.2,0,0,1-2.2,4.8,33.6,33.6,0,0,0-2.2,4.2c-1,2.6-1.4,6.2-2.6,9.7l1.1-.3c4-1,7.9-3.3,9.1-6.5.3-.8.7-1.6,1.1-2.5S368.8,399.2,369.4,398.3Z"/><path class="cls-15" d="M376.1,397.8a18.6,18.6,0,0,0-2.9-7.6l-.3,1.5c-1.3,5.4-4.1,9-5.3,12.1s-5.4,6-9.6,7l-1.8.5H356c-3.9.9-8.1,1.1-11.8,2.8s-6.7,4.3-9.7,6.8l1.2.3c4.2,1,8.7,1.7,11.7.3s7.7-1.5,12.7-2.8l2.1-.6h.3a23.1,23.1,0,0,0,7.1-3.7,18.8,18.8,0,0,0,5.6-7.5A17.5,17.5,0,0,0,376.1,397.8Z"/><path class="cls-15" d="M350.1,434.4a13.4,13.4,0,0,0-1.6-2.3l-.3-.4a26.7,26.7,0,0,1-10.5.2,18.7,18.7,0,0,0,10,7.9l3.2.9,3.2.4-.7-1.1C352.2,438.1,351.2,436,350.1,434.4Z"/><path class="cls-15" d="M333.2,430.9c-4.7-1.3-8.8-2.8-12.2-2.5s-7.7-1.7-11.9-3.9l-1.8-.9h-.2c-3.6-1.8-7.5-4-11.7-4.7a39.8,39.8,0,0,1-4.1,2.1,25.9,25.9,0,0,1-1.4,4.5,10.9,10.9,0,0,0,3.7,1.3c3.6.6,7.4,2.8,11.7,5.1l1.9.9h.2c4,1.9,8.8,4,14.2,3.7a24.1,24.1,0,0,0,7-1.8,41.8,41.8,0,0,0,5.9-3.5Z"/><path class="cls-15" d="M289,422c-2.2,1-4.4,1.8-6.2,2.7a19.2,19.2,0,0,0-4.9,2.9,13.2,13.2,0,0,1-5.1,2.8,32.5,32.5,0,0,1-6.5,1.3l-2,.2h-.2l-3.2.4-3.2.3-3.2.7a28,28,0,0,0-3.1.9,38,38,0,0,0-9.8,7l1.2.3c2.1.4,4.3.8,6.3,1a11.6,11.6,0,0,0,5.4-.8,43.5,43.5,0,0,1,5.7-1.3c2.1-.3,4.6-.3,7-.6l2.1-.3h.2c4.6-.6,9.9-2.1,13.9-5.8s5.7-8,6.9-12.1Z"/><path class="cls-15" d="M393.3,448.3a10,10,0,0,1-3.6-.8,15.3,15.3,0,0,1-3.3-2.3l-2.4-1.9-1.7-1.2c-3-2.8-6.2-5.5-10-7.1l-2.7-.7-2.8-.5c-2-.2-4-.1-5.8-.3l.6,1.1a47.8,47.8,0,0,0,3.6,4.9,17.5,17.5,0,0,0,2,1.9,11.9,11.9,0,0,0,2.2,1.2,17.6,17.6,0,0,1,4.7,3c1.6,1.2,3.3,2.7,5.1,4.2a12.4,12.4,0,0,0,1.8,1.4c4.1,2.8,7.5,4.2,9.9,4.1s4.3-.8,4.8-1.3a3,3,0,0,0,1-3.4A3.8,3.8,0,0,0,393.3,448.3Z"/><path class="cls-15" d="M373.6,446.4a15.5,15.5,0,0,0-4.5-2.9,14.1,14.1,0,0,1-2.4-1.3l-2.1-2a29.1,29.1,0,0,1-3.7-5.1l-.9-1.6v-.2c-1.1-1.7-2.1-3.5-3.2-5.3l-.4-.5a22.6,22.6,0,0,1-4.9,3.1l-2.3.8c.7.8,1.2,1.6,1.8,2.4s2,3.8,3.3,5.7l1.1,1.7v.2c.6,1,1.3,1.9,2,2.9s1.6,1.7,2.4,2.6a17.2,17.2,0,0,0,6.4,4.1,13.3,13.3,0,0,0,3.4,1l1.7.2a10.8,10.8,0,0,0,1.8,0,45.8,45.8,0,0,0,6.6-.8l-1.1-.9C376.8,449,375.2,447.5,373.6,446.4Z"/><path class="cls-15" d="M304.9,432.6c-4.3-2.3-8-4.5-11.4-5a12.8,12.8,0,0,1-4-1.4,12.2,12.2,0,0,1-.7,1.7,18.4,18.4,0,0,1-3.7,5.2,20.6,20.6,0,0,0,7.3,2.6c5,.7,9.8-.9,13.7-2.5Z"/><path class="cls-15" d="M303.4,435.2a24.1,24.1,0,0,0,7.5,1.7,16.5,16.5,0,0,0,3.2-.4,63.8,63.8,0,0,1-7-2.8Z"/><path class="cls-15" d="M386.9,444.5a12.5,12.5,0,0,0,3.8,2.4c2.9-.8,4-3.1,3.6-4.9s-1.5-2.8-4.2-2.1a41,41,0,0,0-6.6,1.9l1,.8Z"/><path class="cls-15" d="M335.7,431.5a32.1,32.1,0,0,1-4.1,2.6,21.4,21.4,0,0,0,6.7.2,21.1,21.1,0,0,1-1.8-2.7Z"/><path class="cls-15" d="M456.5,313.5c-.1,0-.1,0-.1-.1l-.7,1c-3,3.6-5.9,6.8-6.7,10s-4.1,6.4-7.4,9.4l-1.6,1.5c-2.9,2.8-6.7,5.7-8.6,9.7a26.6,26.6,0,0,0-1.8,5.9c-.4,2-.6,4.1-.8,6l1.1-.6c1.9-1.2,3.7-2.3,5.3-3.5a14,14,0,0,0,3.4-4.1,17.7,17.7,0,0,1,3.5-4.5c1.6-1.4,3.4-2.8,5-4.4l1.7-1.5a48.8,48.8,0,0,0,4.7-5.2,22.8,22.8,0,0,0,2.1-3,20.6,20.6,0,0,0,1.2-3.5,22.8,22.8,0,0,0,.7-6.8A31.9,31.9,0,0,0,456.5,313.5Z"/><path class="cls-15" d="M447.8,340.5c-1.6,1.6-3.5,2.9-5,4.3a14.6,14.6,0,0,0-3.4,4.3,12.5,12.5,0,0,1-3.5,4.3,52.1,52.1,0,0,1-5.5,3.6l-1.7,1h-.2l-5.3,3.6a17.2,17.2,0,0,0-4.9,4.4,19.6,19.6,0,0,0-2.8,5.6,38.1,38.1,0,0,0-1.9,5.7l1.2-.5a53.5,53.5,0,0,0,5.8-2.4,13.1,13.1,0,0,0,4.1-3.5c2-2.8,6.2-4.6,10-7.1l1.7-1.1h.2c3.7-2.4,8.1-5.4,10.1-10a23.4,23.4,0,0,0,2-13.1Z"/><path class="cls-15" d="M455.1,312.1a3.1,3.1,0,0,1-.5-1l-.7.6a12.6,12.6,0,0,1-3.3,1,4.1,4.1,0,0,1-3.7-.9l-.3-.4c-1.1,1.4-2.3,2.9-3.4,4.5a19.6,19.6,0,0,0-2.9,6,15.5,15.5,0,0,0-.4,3.1c-.1,1-.3,2-.3,3a58.5,58.5,0,0,0,.4,6l1-.8c3.2-2.9,6.5-5.9,7.2-9.1s3.8-6.5,6.7-10.3l.8-1Z"/><path class="cls-15" d="M407.6,391.2c-2.6,2.3-6.7,3.5-11.3,4.1l-1.9.4h-.2a35.6,35.6,0,0,0-6.3,1.4,23.4,23.4,0,0,0-6.2,2.4,18.9,18.9,0,0,0-4.7,4.2,19.1,19.1,0,0,1-1,3.4,6.1,6.1,0,0,1-.5,1.2h2.4l3-.4a15.3,15.3,0,0,0,5.1-1.6,14.3,14.3,0,0,1,5.4-1.8c2-.5,4.2-.9,6.5-1.3l2-.4h.2a48.2,48.2,0,0,0,6.8-1.7,20.4,20.4,0,0,0,10.4-9.3,52.7,52.7,0,0,0,2.4-6.2l-1.3.5C414.2,387.9,410,389,407.6,391.2Z"/><path class="cls-15" d="M378,409.3h-3a18.4,18.4,0,0,1-4.8,5.8,20.6,20.6,0,0,1-3.9,2.4h10.6a33.7,33.7,0,0,0,7-.6,21.1,21.1,0,0,0,6.9-2.7,19.9,19.9,0,0,0,5.1-4.5,36.4,36.4,0,0,0,3.4-5.6l-1.3.3-6.3,1.2a16.7,16.7,0,0,0-5.2,1.7,15,15,0,0,1-5.4,1.8Z"/><path class="cls-15" d="M421.2,375.2a48.5,48.5,0,0,1-6.1,2.5l-2,.8a49.6,49.6,0,0,0-5.9,2.5,22.4,22.4,0,0,0-5.7,3.5,19.8,19.8,0,0,0-3.7,4.9,46.3,46.3,0,0,0-2.9,5.3l1.2-.2c4.5-.6,8.4-1.9,10.9-4a16.6,16.6,0,0,1,4.9-2.8l6.2-2.4,2.1-.9a49.9,49.9,0,0,0,6.3-2.9,19.8,19.8,0,0,0,5.4-5,25.5,25.5,0,0,0,3.2-6.1,30,30,0,0,0,1.2-6.4l-1.1.7-5.6,3.4a13.1,13.1,0,0,0-4.1,3.5A15.3,15.3,0,0,1,421.2,375.2Z"/><path class="cls-15" d="M174,312.4l.7-2.1c1.3-4,2.5-8.4,2.1-12.8s-2.1-8-4.1-11.5l-.5,1.2c-1.9,3.9-3.6,7.8-3.5,11s-.9,7.5-2.4,12l-.7,2.2a30.3,30.3,0,0,0-1.3,6.8,26.8,26.8,0,0,0,.6,7.4,21.9,21.9,0,0,0,1.2,3.3,17.3,17.3,0,0,0,1.9,2.8,35,35,0,0,0,4.3,4.9l.2-1.3c.5-4.6.9-8.7.2-11.9S172.7,316.7,174,312.4Z"/><path class="cls-15" d="M165.3,256.8l.8-1.1c3-3.6,5.8-6.8,6.6-9.9s4.2-6.5,7.5-9.5l1.4-1.3.2-.2c2.9-2.8,6.7-5.7,8.6-9.7a26.6,26.6,0,0,0,1.8-5.9c.4-2,.6-4,.8-6l-1.1.7a55.5,55.5,0,0,0-5.4,3.4,12.7,12.7,0,0,0-3.3,4.2,15.9,15.9,0,0,1-3.6,4.4c-1.5,1.4-3.3,2.8-5,4.4l-1.4,1.4-.2.2a46.6,46.6,0,0,0-4.7,5.1,20.2,20.2,0,0,0-2.1,3,20.9,20.9,0,0,0-1.3,3.5,23.1,23.1,0,0,0-.6,6.9A34.1,34.1,0,0,0,165.3,256.8Z"/><path class="cls-15" d="M165.4,310c1.5-4.5,2.6-8.4,2.4-11.7s1.6-7.5,3.5-11.5l.8-1.7.2-.2c2.1-3.7,4.3-7.8,4.5-12.3a28.8,28.8,0,0,0-1.9-12l-.7,1c-2.6,3.5-5.3,7-5.5,10.3s-2.3,7.2-4.6,11.3l-1,1.9v.2c-1.7,3.9-3.5,8.7-3.3,13.8s3.1,8.8,5.3,12.2Z"/><path class="cls-15" d="M185.9,216.7a47.6,47.6,0,0,1,5.5-3.6l1.8-1.1,5.4-3.5a19.2,19.2,0,0,0,4.9-4.5,18.3,18.3,0,0,0,2.5-4.8c-.4-1.3-.8-2.6-1.3-3.8l-.6-1.1a16.4,16.4,0,0,0-3,1.4,15.5,15.5,0,0,0-4.1,3.4c-2,2.8-6.1,4.6-9.9,7.1l-1.9,1.2c-3.7,2.4-8.1,5.4-10.1,10a23.4,23.4,0,0,0-2,13.1l.9-.9c1.6-1.6,3.5-2.9,4.9-4.3a15.7,15.7,0,0,0,3.4-4.2A13.4,13.4,0,0,1,185.9,216.7Z"/><path class="cls-15" d="M174.7,259.4c1.1-1.7,2.6-3.4,3.9-5.2a18.3,18.3,0,0,0,2.8-6,15.7,15.7,0,0,0,.5-3c.1-1.1.2-2.1.2-3.1a39.5,39.5,0,0,0-.3-6l-1,.8c-3.2,3-6.5,5.9-7.2,9.1s-3.8,6.6-6.8,10.3l-1.2,1.8c-2.5,3.5-5.4,7.9-5.9,13s1.3,9.2,2.9,12.9l.7-1.2c2.2-4.1,4.4-7.7,4.5-11s3-7.1,5.6-10.7Z"/><path class="cls-15" d="M192.2,202.1a14.5,14.5,0,0,0,4.1-3.6,17.1,17.1,0,0,1,4.3-3.6l3.1-1.4c-1.2-2.3-2.8-4.6-5.1-5.8a1,1,0,0,1-.6-.5l-2.8,1.5a20.7,20.7,0,0,0-5.4,4.9,22,22,0,0,0-3.1,6.1,24.8,24.8,0,0,0-1.2,6.5l1.1-.7C188.5,204.2,190.4,203.1,192.2,202.1Z"/><path class="cls-15" d="M239.8,410.3a18.5,18.5,0,0,1,1.9,2.7,31.7,31.7,0,0,1,2.1,2.7l1.3,1.6h.1c2.7,3.4,6,7.6,10.9,9.2a22.5,22.5,0,0,0,6.7,1.2h2.3a13.4,13.4,0,0,1-2.4-1.2,22,22,0,0,1-8.7-11.2,45.2,45.2,0,0,1-3.7-4.7l-.7-.9a20.7,20.7,0,0,1-2.7-3.1l-.9-1.5a14.7,14.7,0,0,1-1-1.3,18.7,18.7,0,0,0-4.9-4.4,24.2,24.2,0,0,0-5.8-2.3c-1.9-.6-3.9-1-5.8-1.4l.5,1.2a48.6,48.6,0,0,0,3,5.6,13.7,13.7,0,0,0,3.8,3.8A13.4,13.4,0,0,1,239.8,410.3Z"/><path class="cls-15" d="M231,414a23.3,23.3,0,0,0,12.9,3.3l-.8-1.1-2.1-2.6c-.6-1-1.2-1.8-1.8-2.7a15.5,15.5,0,0,0-3.9-3.8,13.4,13.4,0,0,1-4-3.9,52.1,52.1,0,0,1-3.1-5.8l-.9-1.9a53.3,53.3,0,0,0-3.1-5.7,18.7,18.7,0,0,0-3.9-5.3,19.6,19.6,0,0,0-5.3-3.3c-1.8-.9-3.7-1.7-5.5-2.4l.3,1.2c1,4.4,2.6,8.3,5,10.5s4,6.5,6.2,10.6l1,2a56,56,0,0,0,3.6,6A18.1,18.1,0,0,0,231,414Z"/><path class="cls-15" d="M236.9,450l-4.7-1.4c-3,1.1-4.1,3.4-3.5,5.2s2.2,2.6,5.5,1.6a34.9,34.9,0,0,0,7.4-4l-1.4-.3Z"/><path class="cls-15" d="M254.9,442.6a13.4,13.4,0,0,1-5.8.8,51.3,51.3,0,0,1-6.5-1,16.6,16.6,0,0,1-2.1-.6,27.2,27.2,0,0,0-10.2-1.5,5.8,5.8,0,0,0-3.7,1.6,3.4,3.4,0,0,0-.9,3.5,3.6,3.6,0,0,0,3.6,2,9.7,9.7,0,0,1,3.9.5l4,1.3,3.3,1,2.3.6c4.5.8,10.2,1.5,15.2-.8a18,18,0,0,0,3.4-1.7l2.8-2.4a24.8,24.8,0,0,0,4.4-5.4l-1.3.2C262.3,441.1,258.1,441.4,254.9,442.6Z"/><path class="cls-15" d="M214.2,391.2a14,14,0,0,1-3.2-4.6,35.8,35.8,0,0,1-2-6.3l-.5-1.9v-.2a47.6,47.6,0,0,0-1.9-6.1,22.5,22.5,0,0,0-3-6,20.1,20.1,0,0,0-4.5-4.2c-1.8-1.1-3.3-2.3-5-3.3v1.3a29.1,29.1,0,0,0,.8,6.2A15.7,15.7,0,0,0,197,371a13.7,13.7,0,0,1,2.3,5.2c.7,2,1.3,4.1,1.9,6.4l.6,1.9v.2a66.4,66.4,0,0,0,2.4,6.6,23.1,23.1,0,0,0,4.5,5.9,26.5,26.5,0,0,0,5.7,3.7,38.3,38.3,0,0,0,6.4,1.8l-.6-1.2C218,397.5,216.6,393.3,214.2,391.2Z"/><path class="cls-15" d="M183.6,354.4a13.8,13.8,0,0,0-1.3-5.3,15.8,15.8,0,0,1-1.2-5.5,24.2,24.2,0,0,1,.3-6.5l.2-2v-.2a43.7,43.7,0,0,0,.5-6.4,18.3,18.3,0,0,0-.2-3.3,12.6,12.6,0,0,0-.5-3.3,18.8,18.8,0,0,0-2.5-5.6c-1.1-1.7-2.6-3.3-3.7-4.9l-.4,1.2c-1.1,4.2-2,8.4-1.2,11.5s.3,7.6-.2,12.3l-.2,2v.2a25,25,0,0,0,2,14.1,16.9,16.9,0,0,0,4,5.5,49.1,49.1,0,0,0,5.3,4v-1.4C184.1,358.5,183.9,356.4,183.6,354.4Z"/><path class="cls-15" d="M193,357.8a36.5,36.5,0,0,0-2.6-12.8c-1.7-3.7-5.3-6.4-8-9.1v1.2a27.6,27.6,0,0,0-.3,6.3,12.5,12.5,0,0,0,1.2,5.3,20.2,20.2,0,0,1,1.3,5.5c.3,2,.5,4.2.7,6.6l.2,2.2a34.1,34.1,0,0,0,1.1,6.9,24,24,0,0,0,3.3,6.6,24.7,24.7,0,0,0,5,4.7,40.2,40.2,0,0,0,5.9,2.9l-.4-1.3c-.6-2.2-1.2-4.3-1.8-6.2a13.5,13.5,0,0,0-2.2-5c-2-2.9-3-7-3.1-11.6Z"/><path class="cls-15" d="M307.3,427v0Z"/><path class="cls-15" d="M358.8,400.4l.4.2Z"/><path class="cls-16" d="M455.7,314.4l.7-1-.7-.6-.8,1c-2.9,3.8-5.9,7-6.7,10.3l.8.3C449.8,321.2,452.7,318,455.7,314.4Z"/><path class="cls-16" d="M457.6,314.3c0-.1-.1-.1-.2-.1l-.9-.7a31.9,31.9,0,0,1,1,6.3,22.8,22.8,0,0,1-.7,6.8,20.6,20.6,0,0,1-1.2,3.5,22.8,22.8,0,0,1-2.1,3,48.8,48.8,0,0,1-4.7,5.2l-1.7,1.5c-1.6,1.6-3.4,3-5,4.4a17.7,17.7,0,0,0-3.5,4.5,14,14,0,0,1-3.4,4.1c-1.6,1.2-3.4,2.3-5.3,3.5l-1.1.6c.2-1.9.4-4,.8-6a26.6,26.6,0,0,1,1.8-5.9c1.9-4,5.7-6.9,8.6-9.7l1.6-1.5c3.3-3,6.7-6,7.4-9.4l-.4-.2h-.4c-.7,3.2-4,6.2-7.2,9.1l-1,.8a58.5,58.5,0,0,1-.4-6c0-1,.2-2,.3-3a15.5,15.5,0,0,1,.4-3.1,19.6,19.6,0,0,1,2.9-6c1.1-1.6,2.3-3.1,3.4-4.5a3.1,3.1,0,0,1-.5-1c-.6.8-1.1,1.7-1.8,2.5l-2,2.7a18.8,18.8,0,0,0-2.8,6.1,12.6,12.6,0,0,0-.5,3.3,18.4,18.4,0,0,0-.3,3.3,46.2,46.2,0,0,0,.5,6.5c-2.9,2.8-6.7,5.7-8.7,9.8a37.1,37.1,0,0,0-2.6,12.9,56.3,56.3,0,0,0-5.4,3.6,19.5,19.5,0,0,0-5,4.5,22.5,22.5,0,0,0-3,6c-.8,2-1.4,4.1-2,6.1s-4,1.6-5.9,2.6a22.4,22.4,0,0,0-5.7,3.5,17.7,17.7,0,0,0-4,5.4,52.1,52.1,0,0,0-3.1,5.6c-2.1.4-4.2.8-6.3,1.4a28.5,28.5,0,0,0-6.3,2.5,18.5,18.5,0,0,0-4,3.4,21.2,21.2,0,0,0-.3-5.1,18.2,18.2,0,0,0-3.6-8.2,20.9,20.9,0,0,0-.9-8.8,18.7,18.7,0,0,0-5.4-8.3,20.1,20.1,0,0,0-8.3-4.3l-4.2-.6h-3.9a24.7,24.7,0,0,0-7.3-4.3,18.2,18.2,0,0,0-9.6-.9c-6.7,1.1-11.3,5.6-14,9.6a26.8,26.8,0,0,0-11.6,4.2.1.1,0,0,0-.1-.1c-2.1-4.2-5.7-9.1-11.7-11.4a21.1,21.1,0,0,0-17.2,1.2,22,22,0,0,0-8.3-1,20,20,0,0,0-8.7,2.4c-5.7,3-9.1,9.1-10,14.2a19.9,19.9,0,0,0-3.2,2.7l-1.5,1.7-1.3,2a17.6,17.6,0,0,0-2.5,10,15.8,15.8,0,0,0,1,4.9,16.9,16.9,0,0,0-4.1-3.4,27.8,27.8,0,0,0-6.2-2.5c-2.1-.6-4.2-1-6.3-1.4a52.1,52.1,0,0,0-3.1-5.6,19.5,19.5,0,0,0-4-5.4,22.4,22.4,0,0,0-5.7-3.5c-2-1-4-1.8-6-2.6a47.6,47.6,0,0,0-1.9-6.1,26.2,26.2,0,0,0-3.1-6,17.6,17.6,0,0,0-4.9-4.5,56.3,56.3,0,0,0-5.4-3.6,39.7,39.7,0,0,0-2.7-12.9c-1.9-4.1-5.7-7-8.6-9.8.2-2.1.5-4.3.5-6.5s-.1-2.2-.3-3.3a18.8,18.8,0,0,0-.5-3.3,21.2,21.2,0,0,0-2.8-6.1l-2-2.7c-.7-.8-1.3-1.7-1.9-2.5,1.4-4.1,2.5-8.5,2.1-13s-2.4-8.6-4.5-12.3c2.1-3.8,4.3-7.9,4.5-12.4a31,31,0,0,0-2.1-12.9l1.9-2.6,2-2.7a20.6,20.6,0,0,0,2.8-6,19.9,19.9,0,0,0,.5-3.4c.2-1.1.2-2.2.3-3.3s-.3-4.4-.5-6.5c2.9-2.8,6.7-5.7,8.6-9.8a39.2,39.2,0,0,0,2.7-12.9,54.9,54.9,0,0,0,5.4-3.5,17.9,17.9,0,0,0,4.9-4.6,14.5,14.5,0,0,0,2.2-3.8,8.3,8.3,0,0,0-.4-1.5,18.3,18.3,0,0,1-2.5,4.8,19.2,19.2,0,0,1-4.9,4.5l-5.4,3.5-1.8,1.1a47.6,47.6,0,0,0-5.5,3.6,13.4,13.4,0,0,0-3.6,4.4,15.7,15.7,0,0,1-3.4,4.2c-1.4,1.4-3.3,2.7-4.9,4.3l-.9.9a23.4,23.4,0,0,1,2-13.1c2-4.6,6.4-7.6,10.1-10l1.9-1.2c3.8-2.5,7.9-4.3,9.9-7.1a15.5,15.5,0,0,1,4.1-3.4,16.4,16.4,0,0,1,3-1.4,2,2,0,0,0-.4-.8l-3.1,1.4a17.1,17.1,0,0,0-4.3,3.6,14.5,14.5,0,0,1-4.1,3.6c-1.8,1-3.7,2.1-5.6,3.4l-1.1.7a24.8,24.8,0,0,1,1.2-6.5,22,22,0,0,1,3.1-6.1,20.7,20.7,0,0,1,5.4-4.9l2.8-1.5a1,1,0,0,1-.1-.9l-3.3,1.7a20.4,20.4,0,0,0-5.5,5.1,26.5,26.5,0,0,0-3.4,6.7,35.4,35.4,0,0,0-1.2,7c-3.7,2.4-8.1,5.4-10.2,10.2a23.6,23.6,0,0,0-2.3,10.2c0,1.4.1,2.8.2,4.1a63.5,63.5,0,0,0-4.8,5.3c-.7.9-1.4,2-2.1,3.1a19,19,0,0,0-1.2,3.6,24.2,24.2,0,0,0-.7,7.5c.1,1.2.2,2.4.4,3.6a31.8,31.8,0,0,0,.9,3.3c-2.5,3.6-5.4,8.1-5.9,13.3a26.9,26.9,0,0,0,1.8,10.3l1.5,3.8c-1.8,3.9-3.5,8.8-3.3,14s3.4,9.7,5.9,13.3a33.7,33.7,0,0,0-.9,3.4c-.2,1.1-.3,2.3-.4,3.5a23.9,23.9,0,0,0,.7,7.5c.7,3.6,3,6.5,5.3,9.1l2.8,2.9a25,25,0,0,0,2.1,14.3c2.1,4.8,6.5,7.8,10.2,10.2a35.4,35.4,0,0,0,1.2,7,26.5,26.5,0,0,0,3.4,6.7,19,19,0,0,0,8.2,6.5,30.4,30.4,0,0,0,3.7,1.7,55.9,55.9,0,0,0,2.5,6.7,20.1,20.1,0,0,0,4.6,5.9,22.7,22.7,0,0,0,6.3,4.1,46.9,46.9,0,0,0,6.9,1.8,39.7,39.7,0,0,0,3.7,6.1,18.9,18.9,0,0,0,5.5,5,22.2,22.2,0,0,0,10,3.2l4.1.2c2.8,3.3,6.2,7.6,11.1,9.2a25.4,25.4,0,0,0,9.3,1.4l-1.2,2.3-3.2.3-3.3.4a18,18,0,0,0-3.2.6l-3.1,1a28.1,28.1,0,0,0-5.5,3.4c-1.8,1.2-3.4,2.8-5,4.1a31.6,31.6,0,0,0-9.8-1.6,6.7,6.7,0,0,0-4.7,1.9,4.4,4.4,0,0,0-1.1,4.6,4.2,4.2,0,0,0,4.4,2.5h1.3c-2.5,1.4-3.5,3.8-2.9,5.7s3.1,3.3,6.8,2.2a36.5,36.5,0,0,0,8.3-4.6,29.8,29.8,0,0,0,7.5.8,18.9,18.9,0,0,0,8.1-1.6,23.5,23.5,0,0,0,8.1-6v-.2l.4-.4a20.7,20.7,0,0,0,2.8-4,27.8,27.8,0,0,0,13.2-5.1,23.6,23.6,0,0,0,4.6.1,23.2,23.2,0,0,0,4.7,1.3,22.8,22.8,0,0,0,9.8-1,23.3,23.3,0,0,0,8.8,2.2,21.8,21.8,0,0,0,5.1-.9,20.5,20.5,0,0,0,5.6.5,22.6,22.6,0,0,0,8.7-2.6,22.5,22.5,0,0,0,8.6.3l2.1,2,2.2,1.7,2.5,1.2a29.1,29.1,0,0,0,5,1.6l4.1.5c.6,1,1.3,1.9,2,2.9a30.8,30.8,0,0,0,2.5,2.7,19.2,19.2,0,0,0,6.5,4.2c5.1,2,10.5,1.2,14.8.2,4.6,3.1,8.4,4.3,11,4.1a6.9,6.9,0,0,0,4.7-1.5,3.8,3.8,0,0,0,1.2-4.4,4.5,4.5,0,0,0-4.2-2.9l-1.1-.2a4.9,4.9,0,0,0,2.9-5.4,3.7,3.7,0,0,0-3.5-3l-1.6.2a40.6,40.6,0,0,0-7.3,2.2c-3.1-2.7-6.2-5.4-10.1-7a21.3,21.3,0,0,0-2.7-.8h-.3l-2.2-.4-3.5-.2-3.4-.2c-.7-1.3-1.5-2.5-2.3-3.8a26.7,26.7,0,0,0,7.8-1.4c5-1.6,8.4-5.9,11.2-9.2a33.7,33.7,0,0,0,7-.6,23.3,23.3,0,0,0,7-2.8,19.8,19.8,0,0,0,4.2-3.3,30.3,30.3,0,0,0,3.1-4.2c.7-1.2,1.4-2.4,2-3.6a50.4,50.4,0,0,0,6.9-1.8,22.7,22.7,0,0,0,6.3-4.1,21.9,21.9,0,0,0,4.6-5.9,54.6,54.6,0,0,0,2.4-6.7,42.4,42.4,0,0,0,6.5-3.1,18.9,18.9,0,0,0,5.5-5.1,20.9,20.9,0,0,0,2.6-4.6,22.1,22.1,0,0,0,1.5-5c.2-1.4.4-2.8.5-4.1,3.7-2.4,8.1-5.4,10.2-10.2a24.9,24.9,0,0,0,2-14.3,48.5,48.5,0,0,0,4.8-5.2,22,22,0,0,0,2.1-3.2,14,14,0,0,0,1.3-3.6,28.2,28.2,0,0,0,.4-10.4A16,16,0,0,0,457.6,314.3Zm-91.2,58.1a18.6,18.6,0,0,1,5.1,7.9,21.2,21.2,0,0,1,.9,8.5c-.1.8-.3,1.7-.4,2.6s-.8,2.5-1.2,3.7-.9,2.2-1.4,3.2-1,1.9-1.5,2.7-.8,1.7-1.1,2.5l.4.2h.4c1.2-3.1,4-6.7,5.3-12.1l.3-1.5a18.6,18.6,0,0,1,2.9,7.6,17.5,17.5,0,0,1-.9,9,18.8,18.8,0,0,1-5.6,7.5,23.1,23.1,0,0,1-7.1,3.7h-.3l-2.1.6c-5,1.3-9.4,1.3-12.7,2.8s-7.5.7-11.7-.3l-1.2-.3c3-2.5,6.2-5.2,9.7-6.8s7.9-1.9,11.8-2.8h.2l1.8-.5c4.2-1,8.3-3.5,9.6-7l-.8-.3c-1.2,3.2-5.1,5.5-9.1,6.5l-1.1.3c1.2-3.5,1.6-7.1,2.6-9.7a33.6,33.6,0,0,1,2.2-4.2,26.2,26.2,0,0,0,2.2-4.8l.4-1.9c.9-4-.2-8.8-3-11.2s-4.8-6.1-8.4-9.7l-1.1-1A20.4,20.4,0,0,1,366.4,372.4Zm-55.5,47.4a14.1,14.1,0,0,1,2.9.1L311,421l-3.7,1.6-3.5-1.8A19.1,19.1,0,0,1,310.9,419.8Zm-8.2.5a35.2,35.2,0,0,0-6.2-2.2,25,25,0,0,0,6.7-6.3,23.1,23.1,0,0,0,3.6-9.7c.2-1.2.5-2.5.7-3.8l1.6-.8a28.5,28.5,0,0,0,5.3,3.8l3.2,1.9c.4,4.2,1.3,9.2,4.3,13.3l1.8,2h-3.4a37.3,37.3,0,0,0-4.6.9,19.6,19.6,0,0,0-4.8-.5A20.6,20.6,0,0,0,302.7,420.3Zm17.7-1c4.5-.3,8.9,1.2,13,2.3l2.1.5c4.4,1.1,9,1.8,12.3.2s7.5-1.4,12.4-2.7a3.3,3.3,0,0,0,1.4-.4c-2.1,4.1-5.6,8.4-10.5,10.6s-10.9,1.7-15.4.7l-2.3-.5c-4.7-1.3-8.9-2.8-12.5-2.6s-7.3-1.6-11.4-3.7l-1.1-.6A37.4,37.4,0,0,1,320.4,419.3Zm5.1-38.6c4-.2,8,.3,11.3-.3a50.3,50.3,0,0,0,7-2.1c1.1-.4,2.2-.6,3.3-.9,2.7,2.9,4.9,6.3,7.3,8.5s5.5,3.4,8.3,5.8a28,28,0,0,1-2.2,4.6,30,30,0,0,0-2.2,3.9c-.7,2-1.1,4.4-1.8,7a31.8,31.8,0,0,1-.9,3.3c-3.9.8-8,1.1-11.8,2.7l-2.6,1.4c-.3-1.1-.7-2.3-1.1-3.5a22.5,22.5,0,0,0-2.9-5.8c-2.6-3.6-6.6-6-10.2-8.1-.6-3.9-1.6-8.2-4-11.9C323.8,383.7,324.6,382.2,325.5,380.7Zm-3.1,3.7-1-1.3a13.7,13.7,0,0,0-1.7-1.7l3.5-.5h1.2Zm14.1,21.4a26.2,26.2,0,0,1,2.9,5.8c.3,1.2.7,2.4,1,3.6-2.4,1.6-4.7,3.5-6.9,5.3-1-3.9-1.8-7.5-3.6-9.9s-2.3-6.7-2.7-11v-1.3C330.5,400.3,334.1,402.5,336.5,405.8Zm-2.6-43.2a18.5,18.5,0,0,1,9.1.9,20.6,20.6,0,0,1,7.1,4.2h.2l1.6,1.6c3.6,3.7,5.9,7.5,8.5,9.8s3.5,6.7,2.8,10.5l-.3,1.1c-2.6-2.3-5.6-3.5-7.9-5.6s-4.7-5.7-7.5-8.6v-.2l-1.3-1.3c-3-3.1-7.2-5.1-10.9-4.5s-7.8-.1-12.8.3l-1.5.2C323.6,367.5,327.9,363.6,333.9,362.6ZM320,372.2l2.4-.3c5.1-.5,9.5.1,13-.4s7.3,1.4,10.2,4.3l.8.8c-3.6.9-6.6,2.3-9.7,2.9s-7.5.1-11.6.3l-2.1.2a27,27,0,0,0-4.1.7,28.2,28.2,0,0,0-9.6-4.9A26.6,26.6,0,0,1,320,372.2Zm.7,11.5c3.5,4.1,4.7,9.3,5.4,13.8v.2l.2,2c.4,4.5.9,8.7,2.9,11.5s2.4,5.5,3.3,9.2c-2.3-.6-4.8-1.3-7.3-1.7a16.6,16.6,0,0,1-2.6-2.7c-2.9-4-3.7-9-4.1-13.1v-.2l-.2-2c-.5-4.6-1.4-9-3.8-11.7s-3.4-6.7-5.3-11.2l-.6-1.3C312.8,377.7,317.5,379.9,320.7,383.7ZM296,364.8c5.8,2.3,9.2,7.1,11.3,11.2.3.7.7,1.4,1,2.2,2,4.5,3.2,8.7,5.5,11.4s3.1,6.8,3.6,11.2v1.3c-3.4-1.9-7.2-4.1-9.8-7.3s-4.3-7.6-5.9-11.3l-.9-2c-1.8-4-4.4-7.8-7.8-9.1s-6.5-4.2-11.3-6.2l-1.4-.6A20.3,20.3,0,0,1,296,364.8Zm-25.7,56.4a34.8,34.8,0,0,0-4.3,6,14.7,14.7,0,0,1-2.8-1.4c-5.1-3.2-8.1-8.8-9.2-13.6V412l-.4-2.3c-.8-5.2.1-9.6-.1-13s2.6-7,6-8.9l1-.5c0,3.5.9,6.4,1.1,9a2.1,2.1,0,0,1,0,1.1v1.1c-.1.8-.1,1.6-.2,2.5s-.1,1.7-.2,2.7a26.2,26.2,0,0,1,.1,2.8v.2l.3,1.8c.7,4.3,2.8,8.5,5.9,10.4l.5-.7c-2.9-1.8-4.9-5.9-5.6-9.9v-1.2c3.3,1.4,6.9,2.2,10,4.2a24.6,24.6,0,0,1,5.5,4.8l-1,.4a29.1,29.1,0,0,0-5.6,3.8c-.1.1-.1.2-.3.3a12.8,12.8,0,0,0-2.9-2.4l-.3.3-.2.4A18.9,18.9,0,0,1,270.3,421.2Zm-17-8-.9-1.2.7.6C253.2,412.8,253.2,413,253.3,413.2Zm19.5-2.7a35.3,35.3,0,0,0-7.5-3.2c-1.1-.3-2.1-.8-3.2-1.2v-2.8l.2-2.6a36.1,36.1,0,0,0,.3-4.4c-.1-1.4-.5-2.7-.7-4.3l-.3-1.2v-1.2a12.3,12.3,0,0,1-.2-2.7c3.4-1.5,6.8-2,10-3.7a23.7,23.7,0,0,0,3.3-2.2l2.9-2.7a24.3,24.3,0,0,1,2.5-2c3.4,1.6,6.1,4,9.4,5.3s7.6,1.7,11.6,2.5a32.6,32.6,0,0,0-2.4,7.7,24.8,24.8,0,0,0-3.1,1.8l-3,2.3a24.7,24.7,0,0,0-5,5.2c-2.7,3.9-3.6,8.6-4.6,12.7l-4.2,1.9A31.5,31.5,0,0,0,272.8,410.5Zm28.7-25.3,1.8,4.1-2.4,1.2-1.2.7A34.2,34.2,0,0,1,301.5,385.2Zm-57,11.9a20.7,20.7,0,0,1,.5-5,19.5,19.5,0,0,1,1.9-4.4,12.7,12.7,0,0,1,1.3-1.9,11.5,11.5,0,0,1,1.4-1.7,23.8,23.8,0,0,1,3.1-2.6,9.8,9.8,0,0,1,2.2-1.3c4.7-2.6,9-3.2,12-4.9l-.2-.4-.2-.4c-2.9,1.6-7.3,2.3-12,4.8l-1.3.7a19.8,19.8,0,0,1,9.4-12.6,20.9,20.9,0,0,1,4.1-1.7,30.3,30.3,0,0,1,4.2-.6,22.5,22.5,0,0,1,8,1h.3l2.1.8c4.9,2.1,8.2,5,11.4,6.2s5.6,4.9,7.4,8.7l.5,1.2c-3.8-.7-7.7-1.1-10.8-2.3s-6.2-3.8-9.7-5.5h-.2l-1.6-.8a19,19,0,0,0-6.2-1.2,15.1,15.1,0,0,0-3,.2,11.7,11.7,0,0,0-2.6,1l.4.8a10.1,10.1,0,0,1,5.3-1.1,17.2,17.2,0,0,1,5.9,1.2l1,.4a44,44,0,0,0-3.9,3.5,11.2,11.2,0,0,1-2.2,1.6,13.7,13.7,0,0,1-2.1,1.5c-3.2,1.7-6.9,2.3-10.3,3.9l-1.7.9c-3.6,1.9-6.5,5.8-6.3,9.5s-.7,7.8,0,13l.3,1.5a18,18,0,0,1-5.5-5.5,16.6,16.6,0,0,1-2-4A17.1,17.1,0,0,1,244.5,397.1ZM164.3,250.4a23.1,23.1,0,0,1,.6-6.9,20.9,20.9,0,0,1,1.3-3.5,20.2,20.2,0,0,1,2.1-3,46.6,46.6,0,0,1,4.7-5.1l.2-.2,1.4-1.4c1.7-1.6,3.5-3,5-4.4a15.9,15.9,0,0,0,3.6-4.4,12.7,12.7,0,0,1,3.3-4.2,55.5,55.5,0,0,1,5.4-3.4l1.1-.7c-.2,2-.4,4-.8,6a26.6,26.6,0,0,1-1.8,5.9c-1.9,4-5.7,6.9-8.6,9.7l-.2.2-1.4,1.3c-3.3,3-6.8,6-7.5,9.5s-3.6,6.3-6.6,9.9l-.8,1.1A34.1,34.1,0,0,1,164.3,250.4Zm-4.6,20.7c.5-5.1,3.4-9.5,5.9-13l1.2-1.8c3-3.7,6-6.9,6.8-10.3s4-6.1,7.2-9.1l1-.8a39.5,39.5,0,0,1,.3,6c0,1-.1,2-.2,3.1a15.7,15.7,0,0,1-.5,3,18.3,18.3,0,0,1-2.8,6c-1.3,1.8-2.8,3.5-3.9,5.2l-1.3,1.7c-2.6,3.6-5.3,7.2-5.6,10.7s-2.3,6.9-4.5,11l-.7,1.2C161,280.3,159.5,275.8,159.7,271.1Zm0,28c-.2-5.1,1.6-9.9,3.3-13.8v-.2l1-1.9c2.3-4.1,4.5-7.9,4.6-11.3s2.9-6.8,5.5-10.3l.7-1a28.8,28.8,0,0,1,1.9,12c-.2,4.5-2.4,8.6-4.5,12.3l-.2.2-.8,1.7c-1.9,4-3.7,8-3.5,11.5s-.9,7.2-2.4,11.7l-.4,1.3C162.8,307.9,160.1,303.7,159.7,299.1Zm19.4,59.1a16.9,16.9,0,0,1-4-5.5,25,25,0,0,1-2-14.1v-.2l.2-2c.5-4.7.9-8.9.2-12.3l-.9.3c.7,3.2.3,7.3-.2,11.9l-.2,1.3a35,35,0,0,1-4.3-4.9,17.3,17.3,0,0,1-1.9-2.8,21.9,21.9,0,0,1-1.2-3.3,26.8,26.8,0,0,1-.6-7.4,30.3,30.3,0,0,1,1.3-6.8l.7-2.2c1.5-4.5,2.7-8.5,2.4-12s1.6-7.1,3.5-11l.5-1.2c2,3.5,3.9,7.3,4.1,11.5s-.8,8.8-2.1,12.8l-.7,2.1c-1.3,4.3-2.1,8.6-1.3,12l.5-.2h.4c-.8-3.1.1-7.3,1.2-11.5l.4-1.2c1.1,1.6,2.6,3.2,3.7,4.9a18.8,18.8,0,0,1,2.5,5.6,12.6,12.6,0,0,1,.5,3.3,18.3,18.3,0,0,1,.2,3.3,43.7,43.7,0,0,1-.5,6.4v.2l-.2,2a24.2,24.2,0,0,0-.3,6.5,15.8,15.8,0,0,0,1.2,5.5,13.8,13.8,0,0,1,1.3,5.3c.3,2,.5,4.1.7,6.4v1.4A49.1,49.1,0,0,1,179.1,358.2Zm15.7,23a24.7,24.7,0,0,1-5-4.7,24,24,0,0,1-3.3-6.6,34.1,34.1,0,0,1-1.1-6.9l-.2-2.2c-.2-2.4-.4-4.6-.7-6.6a20.2,20.2,0,0,0-1.3-5.5,12.5,12.5,0,0,1-1.2-5.3,27.6,27.6,0,0,1,.3-6.3v-1.2c2.7,2.7,6.3,5.4,8,9.1a36.5,36.5,0,0,1,2.6,12.8l.2,2.2c.1,4.6,1.1,8.7,3.1,11.6a13.5,13.5,0,0,1,2.2,5c.6,1.9,1.2,4,1.8,6.2l.4,1.3A40.2,40.2,0,0,1,194.8,381.2Zm19.6,19.7a26.5,26.5,0,0,1-5.7-3.7,23.1,23.1,0,0,1-4.5-5.9,66.4,66.4,0,0,1-2.4-6.6v-.2l-.6-1.9c-.6-2.3-1.2-4.4-1.9-6.4A13.7,13.7,0,0,0,197,371a15.7,15.7,0,0,1-2.1-4.9,29.1,29.1,0,0,1-.8-6.2v-1.3c1.7,1,3.2,2.2,5,3.3a20.1,20.1,0,0,1,4.5,4.2,22.5,22.5,0,0,1,3,6,47.6,47.6,0,0,1,1.9,6.1v.2l.5,1.9a35.8,35.8,0,0,0,2,6.3,14,14,0,0,0,3.2,4.6c2.4,2.1,3.8,6.3,6,10.3l.6,1.2A38.3,38.3,0,0,1,214.4,400.9ZM231,414a18.1,18.1,0,0,1-5.4-4.9,56,56,0,0,1-3.6-6l-1-2c-2.2-4.1-3.6-8.3-6.2-10.6s-4-6.1-5-10.5l-.3-1.2c1.8.7,3.7,1.5,5.5,2.4a19.6,19.6,0,0,1,5.3,3.3,18.7,18.7,0,0,1,3.9,5.3,53.3,53.3,0,0,1,3.1,5.7l.9,1.9a52.1,52.1,0,0,0,3.1,5.8,13.4,13.4,0,0,0,4,3.9,15.5,15.5,0,0,1,3.9,3.8c.6.9,1.2,1.7,1.8,2.7l2.1,2.6.8,1.1A23.3,23.3,0,0,1,231,414Zm31.8,13.8a22.5,22.5,0,0,1-6.7-1.2c-4.9-1.6-8.2-5.8-10.9-9.2h-.1l-1.3-1.6a31.7,31.7,0,0,0-2.1-2.7,18.5,18.5,0,0,0-1.9-2.7,13.4,13.4,0,0,0-4-3.9,13.7,13.7,0,0,1-3.8-3.8,48.6,48.6,0,0,1-3-5.6l-.5-1.2c1.9.4,3.9.8,5.8,1.4a24.2,24.2,0,0,1,5.8,2.3,18.7,18.7,0,0,1,4.9,4.4,14.7,14.7,0,0,0,1,1.3l.9,1.5a20.7,20.7,0,0,0,2.7,3.1l.7.9a45.2,45.2,0,0,0,3.7,4.7,22,22,0,0,0,8.7,11.2,13.4,13.4,0,0,0,2.4,1.2Zm5.1-2.1a30.3,30.3,0,0,1,3.9-4.8,28,28,0,0,1,5.6-3.6c2-1.1,4.1-1.9,6-2.8l2.1-.8c4.2-1.9,8.2-4,10.3-7l-.4-.3-.4-.2c-1.9,2.8-5.8,4.8-9.9,6.7l-1.2.5c1-3.9,1.9-8.2,4.4-11.8a21.5,21.5,0,0,1,4.9-5.1,31.5,31.5,0,0,1,2.9-2.2l3.1-1.8h.2l1.9-1c.8-.5,1.6-.8,2.4-1.2a24,24,0,0,0,3.3,5.2,10,10,0,0,0,1.4,1.5l-1.5.7h-.2l-1.8.9c-4,2.1-7.9,4.7-9.9,7.6l.8.5c1.8-2.8,5.6-5.3,9.5-7.3l1.2-.5c-.4,2-.6,3.8-1.2,6a20.9,20.9,0,0,1-2.8,6.3c-3,4.3-7.6,7.1-11.7,9l-2.1,1c-4.5,1.9-8.7,3.4-11.4,5.7a11.5,11.5,0,0,1-4.9,2.6,29.2,29.2,0,0,1-6.3,1.3h-1.2C265.8,429.2,266.9,427.5,267.9,425.7Zm-33.7,29.7c-3.3,1-5.1-.3-5.5-1.6s.5-4.1,3.5-5.2l4.7,1.4,3.3,1.1,1.4.3A34.9,34.9,0,0,1,234.2,455.4Zm30-9.5-2.8,2.4A18,18,0,0,1,258,450c-5,2.3-10.7,1.6-15.2.8l-2.3-.6-3.3-1-4-1.3a9.7,9.7,0,0,0-3.9-.5,3.6,3.6,0,0,1-3.6-2,3.4,3.4,0,0,1,.9-3.5,5.8,5.8,0,0,1,3.7-1.6,27.2,27.2,0,0,1,10.2,1.5,16.6,16.6,0,0,0,2.1.6,51.3,51.3,0,0,0,6.5,1,13.4,13.4,0,0,0,5.8-.8c3.2-1.2,7.4-1.5,12.4-1.9l1.3-.2A24.8,24.8,0,0,1,264.2,445.9Zm5.3-6.5h-.2l-2.1.3c-2.4.3-4.9.3-7,.6a43.5,43.5,0,0,0-5.7,1.3,11.6,11.6,0,0,1-5.4.8c-2-.2-4.2-.6-6.3-1l-1.2-.3a38,38,0,0,1,9.8-7,28,28,0,0,1,3.1-.9l3.2-.7,3.2-.3,3.2-.4h.2l2-.2a32.5,32.5,0,0,0,6.5-1.3,13.2,13.2,0,0,0,5.1-2.8,19.2,19.2,0,0,1,4.9-2.9c1.8-.9,4-1.7,6.2-2.7l1.3-.5c-1.2,4.1-3.2,8.7-6.9,12.1S274.1,438.8,269.5,439.4Zm14.5-5.1.5-.5,1.2.6Zm8.4,1.4a20.6,20.6,0,0,1-7.3-2.6,18.4,18.4,0,0,0,3.7-5.2,12.2,12.2,0,0,0,.7-1.7,12.8,12.8,0,0,0,4,1.4c3.4.5,7.1,2.7,11.4,5l1.2.6C302.2,434.8,297.4,436.4,292.4,435.7Zm18.5,1.2a24.1,24.1,0,0,1-7.5-1.7l3.7-1.5a63.8,63.8,0,0,0,7,2.8A16.5,16.5,0,0,1,310.9,436.9Zm17.7-2.2a24.1,24.1,0,0,1-7,1.8c-5.4.3-10.2-1.8-14.2-3.7h-.2l-1.9-.9c-4.3-2.3-8.1-4.5-11.7-5.1a10.9,10.9,0,0,1-3.7-1.3,25.9,25.9,0,0,0,1.4-4.5,39.8,39.8,0,0,0,4.1-2.1c4.2.7,8.1,2.9,11.7,4.7h.2l1.8.9c4.2,2.2,8.3,4.1,11.9,3.9v0c3.4-.3,7.5,1.2,12.2,2.5l1.3.3A41.8,41.8,0,0,1,328.6,434.7Zm3-.6a32.1,32.1,0,0,0,4.1-2.6h.8a21.1,21.1,0,0,0,1.8,2.7A21.4,21.4,0,0,1,331.6,434.1Zm19.3,6.6-3.2-.9a18.7,18.7,0,0,1-10-7.9,26.7,26.7,0,0,0,10.5-.2l.3.4a13.4,13.4,0,0,1,1.6,2.3c1.1,1.6,2.1,3.7,3.3,5.6l.7,1.1Zm39.2-.8c2.7-.7,3.9.7,4.2,2.1s-.7,4.1-3.6,4.9a12.5,12.5,0,0,1-3.8-2.4l-2.4-1.9-1-.8A41,41,0,0,1,390.1,439.9Zm-23.3-6.1,2.8.5,2.7.7c3.8,1.6,7,4.3,10,7.1l1.7,1.2,2.4,1.9a15.3,15.3,0,0,0,3.3,2.3,10,10,0,0,0,3.6.8,3.8,3.8,0,0,1,3.4,2.3,3,3,0,0,1-1,3.4c-.5.5-2,1.4-4.8,1.3s-5.8-1.3-9.9-4.1a12.4,12.4,0,0,1-1.8-1.4c-1.8-1.5-3.5-3-5.1-4.2a17.6,17.6,0,0,0-4.7-3,11.9,11.9,0,0,1-2.2-1.2,17.5,17.5,0,0,1-2-1.9,47.8,47.8,0,0,1-3.6-4.9l-.6-1.1C362.8,433.7,364.8,433.6,366.8,433.8Zm-6.9-.5v.2l.9,1.6a29.1,29.1,0,0,0,3.7,5.1l2.1,2a14.1,14.1,0,0,0,2.4,1.3,15.5,15.5,0,0,1,4.5,2.9c1.6,1.1,3.2,2.6,5,4.1l1.1.9a45.8,45.8,0,0,1-6.6.8,10.8,10.8,0,0,1-1.8,0l-1.7-.2a13.3,13.3,0,0,1-3.4-1,17.2,17.2,0,0,1-6.4-4.1c-.8-.9-1.7-1.7-2.4-2.6s-1.4-1.9-2-2.9v-.2l-1.1-1.7c-1.3-1.9-2.3-4-3.3-5.7s-1.1-1.6-1.7-2.3l2.2-.9a22.6,22.6,0,0,0,4.9-3.1l.4.5C357.8,429.8,358.8,431.6,359.9,433.3Zm5.8-6.7a26,26,0,0,1-7.2,1.3h-.9l-.3-.6-.3-.4a25.1,25.1,0,0,0,5.8-7.9,17.5,17.5,0,0,1,5.4-.8H376C373.4,421.3,370.2,425.1,365.7,426.6Zm30.2-17.1a19.9,19.9,0,0,1-5.1,4.5,21.1,21.1,0,0,1-6.9,2.7,33.7,33.7,0,0,1-7,.6H366.3a20.6,20.6,0,0,0,3.9-2.4,18.4,18.4,0,0,0,4.8-5.8h3l3.1-.4a15,15,0,0,0,5.4-1.8,16.7,16.7,0,0,1,5.2-1.7l6.3-1.2,1.3-.3A36.4,36.4,0,0,1,395.9,409.5Zm21.4-17.7a20.4,20.4,0,0,1-10.4,9.3,48.2,48.2,0,0,1-6.8,1.7h-.2l-2,.4c-2.3.4-4.5.8-6.5,1.3a14.3,14.3,0,0,0-5.4,1.8,15.3,15.3,0,0,1-5.1,1.6l-3,.4h-2.4a6.1,6.1,0,0,0,.5-1.2,19.1,19.1,0,0,0,1-3.4,18.9,18.9,0,0,1,4.7-4.2,23.4,23.4,0,0,1,6.2-2.4,35.6,35.6,0,0,1,6.3-1.4h.2l1.9-.4c4.6-.6,8.7-1.8,11.3-4.1s6.6-3.3,10.8-5.1l1.3-.5A52.7,52.7,0,0,1,417.3,391.8Zm17.8-21.4a25.5,25.5,0,0,1-3.2,6.1,19.8,19.8,0,0,1-5.4,5,49.9,49.9,0,0,1-6.3,2.9l-2.1.9-6.2,2.4a16.6,16.6,0,0,0-4.9,2.8c-2.5,2.1-6.4,3.4-10.9,4l-1.2.2a46.3,46.3,0,0,1,2.9-5.3,19.8,19.8,0,0,1,3.7-4.9,22.4,22.4,0,0,1,5.7-3.5,49.6,49.6,0,0,1,5.9-2.5l2-.8a48.5,48.5,0,0,0,6.1-2.5,15.3,15.3,0,0,0,4.3-3.6,13.1,13.1,0,0,1,4.1-3.5l5.6-3.4,1.1-.7A30,30,0,0,1,435.1,370.4Zm11.6-17.7c-2,4.6-6.4,7.6-10.1,10h-.2l-1.7,1.1c-3.8,2.5-8,4.3-10,7.1a13.1,13.1,0,0,1-4.1,3.5,53.5,53.5,0,0,1-5.8,2.4l-1.2.5a38.1,38.1,0,0,1,1.9-5.7,19.6,19.6,0,0,1,2.8-5.6,17.2,17.2,0,0,1,4.9-4.4l5.3-3.6h.2l1.7-1a52.1,52.1,0,0,0,5.5-3.6,12.5,12.5,0,0,0,3.5-4.3,14.6,14.6,0,0,1,3.4-4.3c1.5-1.4,3.4-2.7,5-4.3l.9-.9A23.4,23.4,0,0,1,446.7,352.7Z"/><path class="cls-16" d="M307.3,427v0Z"/><path class="cls-17" d="M307.7,115.5v1.8c0,.9,0,1.8.6,2.3a3.1,3.1,0,0,0,2.1.5h.2v-1.5a4.4,4.4,0,0,0-.1-2,4.8,4.8,0,0,0-1.9-2.3c-.2-.2-.6-.7-.9-.4A10.8,10.8,0,0,0,307.7,115.5Z"/></svg>