<svg id="_1" data-name="1" xmlns="http://www.w3.org/2000/svg" viewBox="0 0 580 480"><defs><style>.cls-1{fill:#2b4751;}.cls-2{fill:#20e57e;}.cls-12,.cls-3{opacity:0.3;}.cls-4{fill:#ced9d7;}.cls-5{fill:#1a2e35;}.cls-6{fill:#375a64;}.cls-7{fill:#ffbf9d;}.cls-8{fill:#ff9a6c;}.cls-9{opacity:0.4;}.cls-10{fill:#fafafa;}.cls-11{opacity:0.2;}</style></defs><path class="cls-1" d="M237.1,84.9c1.1-7.7-9.7-14-17.8-14.6-3.9-.3-7.9.3-11.6-1-7.9-2.8-11.1-13-18.8-16.3-5.8-2.4-12.5-.3-18.1,2.6s-11.1,6.3-17.4,6.7-11.4-1.6-16.1,1-5.5,6.1-8.7,8.5-7.4,2.9-11.4,3.1-8.1.3-11.7,1.9-6.6,5.5-5.9,9.4Z"/><path class="cls-1" d="M134.8,142.4c-.2,0-3.2-5.5-6.9-12.5s-6.5-12.7-6.3-12.8,3.2,5.6,6.8,12.5S134.9,142.3,134.8,142.4Z"/><path class="cls-1" d="M188.1,161.1c-.1.1-3.2-5.5-6.8-12.5s-6.5-12.7-6.4-12.7,3.2,5.5,6.8,12.4S188.2,161,188.1,161.1Z"/><path class="cls-1" d="M241.4,179.8c-.1.1-3.2-5.5-6.8-12.5s-6.5-12.7-6.4-12.7,3.2,5.5,6.9,12.5S241.6,179.7,241.4,179.8Z"/><path class="cls-1" d="M294.8,198.5c-.2.1-3.2-5.5-6.9-12.5s-6.5-12.7-6.4-12.7,3.3,5.5,6.9,12.5S294.9,198.4,294.8,198.5Z"/><path class="cls-1" d="M348.1,217.2c-.1.1-3.2-5.5-6.9-12.5s-6.5-12.7-6.3-12.7,3.2,5.5,6.8,12.5S348.2,217.1,348.1,217.2Z"/><path class="cls-1" d="M401.4,235.9c-.1.1-3.2-5.5-6.8-12.5s-6.5-12.6-6.4-12.7,3.2,5.5,6.9,12.5S401.6,235.8,401.4,235.9Z"/><path class="cls-1" d="M360.7,178c-.1.1-3.2-5.5-6.8-12.5s-6.5-12.7-6.4-12.7,3.2,5.5,6.9,12.4S360.9,177.9,360.7,178Z"/><path class="cls-1" d="M251.2,250.2c-.2.1-3.2-5.5-6.9-12.5s-6.5-12.7-6.4-12.8,3.2,5.6,6.9,12.5S251.3,250.1,251.2,250.2Z"/><path class="cls-1" d="M181.4,216c-.1.1-3.2-5.5-6.8-12.5s-6.5-12.6-6.4-12.7,3.2,5.5,6.9,12.5S181.6,216,181.4,216Z"/><path class="cls-1" d="M302.7,150.9c-.2.1-3.2-5.5-6.9-12.4s-6.5-12.7-6.3-12.8,3.2,5.5,6.8,12.5S302.8,150.9,302.7,150.9Z"/><path class="cls-1" d="M367.4,128.6c-.2.1-3.2-5.5-6.9-12.5s-6.5-12.7-6.4-12.7,3.2,5.5,6.9,12.4S367.5,128.5,367.4,128.6Z"/><path class="cls-1" d="M421.4,124.2c-.1.1-3.2-5.5-6.8-12.5S408.1,99,408.2,99s3.2,5.5,6.9,12.5S421.6,124.1,421.4,124.2Z"/><path class="cls-1" d="M370.1,73.6c-.2.1-3.2-5.5-6.9-12.4s-6.5-12.7-6.3-12.8,3.2,5.5,6.8,12.5S370.2,73.6,370.1,73.6Z"/><path class="cls-1" d="M244.6,123.9c-.1.1-3.2-5.5-6.9-12.5s-6.5-12.7-6.3-12.7,3.2,5.5,6.8,12.5S244.7,123.8,244.6,123.9Z"/><path class="cls-1" d="M277.5,81.8c-.1.1-3.2-5.5-6.9-12.5s-6.5-12.7-6.3-12.7,3.2,5.5,6.8,12.4S277.6,81.7,277.5,81.8Z"/><path class="cls-1" d="M188.1,111.3c-.1.1-3.2-5.5-6.8-12.5s-6.5-12.7-6.4-12.7,3.2,5.5,6.8,12.4S188.2,111.2,188.1,111.3Z"/><path class="cls-1" d="M407.6,50.4c1.2-8.8-11.2-16-20.5-16.7-4.4-.4-9,.3-13.2-1.2-9.1-3.1-12.7-14.9-21.6-18.6-6.6-2.8-14.3-.3-20.7,2.9s-12.8,7.3-20,7.8-13-1.9-18.5,1.1-6.2,7-9.9,9.8-8.5,3.2-13.1,3.5-9.3.3-13.4,2.2S249.1,47.5,250,52Z"/><path class="cls-1" d="M371.7,105c.7-5.3-6.7-9.6-12.2-10-2.7-.2-5.4.2-8-.7-5.4-1.9-7.6-8.9-12.9-11.2s-8.5-.1-12.4,1.8-7.6,4.4-11.9,4.6-7.8-1.1-11.1.7-3.7,4.2-6,5.8-5,2-7.8,2.2-5.5.1-8,1.3-4.5,3.7-4,6.4Z"/><path class="cls-2" d="M132.4,364.7,111,397.8S70.2,387.3,65.6,393l62.8,43.7,35.4-50.3Z"/><path class="cls-3" d="M132.4,364.7,111,397.8S70.2,387.3,65.6,393l62.8,43.7,35.4-50.3Z"/><path class="cls-4" d="M132.4,408.6a3.2,3.2,0,0,1-.3,4.2,3.1,3.1,0,0,1-4.1-.2c-1-1.2-1-3.5.3-4.4s3.5-.7,4.2.7"/><path class="cls-4" d="M128.4,436.7l3.6-5L70.3,391.6s-3.6-.8-4.7,1.4Z"/><path class="cls-5" d="M110.3,396.8c-.3.3,1.2,1.5,2,3.6s.7,3.9,1.1,3.9,1.1-2,.1-4.4S110.4,396.5,110.3,396.8Z"/><path class="cls-5" d="M101.8,395c-.3.2.7,1.7.8,3.7s-.5,3.6-.2,3.8,1.7-1.4,1.5-3.9S102,394.7,101.8,395Z"/><path class="cls-5" d="M92.5,400.2c.3.3,1.8-.9,2.1-3.2s-.5-3.9-.8-3.7-.1,1.7-.4,3.5S92.3,400,92.5,400.2Z"/><path class="cls-5" d="M116,389.8c-.1.4,1.6.9,3.2,2.2s2.7,2.9,3,2.7-.2-2.1-2.2-3.7S116,389.5,116,389.8Z"/><path class="cls-5" d="M120.4,383.2c-.1.1,1,1.1,3.1,2.2a19,19,0,0,0,4,1.2,10.1,10.1,0,0,0,2.5.3,7.4,7.4,0,0,0,1.5,0,1.6,1.6,0,0,0,1.2-1.6,1.8,1.8,0,0,0-.8-1.6,5.6,5.6,0,0,0-1.3-.7l-2.4-.7a15.1,15.1,0,0,0-4.2-.1,8.1,8.1,0,0,0-3.7,1.3c.1.2,1.5-.3,3.7-.4a18.4,18.4,0,0,1,3.9.4l2.2.7c.8.3,1.4.7,1.3,1.1s0,.2-.3.3h-1l-2.4-.2a29.7,29.7,0,0,1-3.8-1C121.7,383.8,120.5,383,120.4,383.2Z"/><path class="cls-5" d="M120.5,383.9c.1.1,1.4-.6,2.9-2.5a10.8,10.8,0,0,0,2-3.7,18.4,18.4,0,0,0,.5-2.5,3.2,3.2,0,0,0-.9-3,1.8,1.8,0,0,0-1.9,0,5.3,5.3,0,0,0-1.1.9,6.2,6.2,0,0,0-1.5,2.2,8.1,8.1,0,0,0-.9,4.1c.1,2.5,1.1,3.8,1.2,3.7s-.5-1.4-.3-3.6a11.4,11.4,0,0,1,1-3.7,11,11,0,0,1,1.4-1.8c.5-.6,1.2-.9,1.4-.7a2,2,0,0,1,.3,1.8,9.3,9.3,0,0,1-.4,2.3,12.7,12.7,0,0,1-1.5,3.5C121.5,382.8,120.3,383.7,120.5,383.9Z"/><path class="cls-2" d="M139,395.3l-21.4,33.2s-40.8-10.6-45.4-4.8L135,467.3,170.4,417Z"/><path class="cls-4" d="M139,439.2a3.3,3.3,0,0,1-.3,4.2,3.1,3.1,0,0,1-4.1-.2c-1-1.2-1-3.5.3-4.4s3.5-.7,4.2.7"/><path class="cls-4" d="M135,467.3l3.6-5L76.9,422.2s-3.6-.7-4.7,1.5Z"/><path class="cls-5" d="M116.8,427.4c-.2.3,1.3,1.5,2.1,3.6s.7,3.9,1.1,3.9,1.1-2,.1-4.4S117,427.1,116.8,427.4Z"/><path class="cls-5" d="M108.4,425.6c-.3.2.7,1.7.8,3.7s-.5,3.6-.2,3.8,1.7-1.4,1.5-3.9S108.6,425.3,108.4,425.6Z"/><path class="cls-5" d="M99.1,430.9c.3.2,1.8-1,2.1-3.2s-.5-3.9-.9-3.8,0,1.7-.3,3.5S98.9,430.6,99.1,430.9Z"/><path class="cls-5" d="M122.6,420.4c-.1.4,1.6.9,3.2,2.3s2.7,2.8,3,2.6-.2-2.1-2.2-3.7S122.6,420.1,122.6,420.4Z"/><path class="cls-5" d="M127,413.8c-.1.1,1,1.2,3.1,2.2a19,19,0,0,0,4,1.2,10.1,10.1,0,0,0,2.5.3,3.8,3.8,0,0,0,1.5,0,1.6,1.6,0,0,0,1.2-1.6,1.8,1.8,0,0,0-.8-1.6l-1.3-.7-2.4-.7a21.2,21.2,0,0,0-4.3-.1,8,8,0,0,0-3.6,1.3c.1.2,1.5-.3,3.7-.3a13.6,13.6,0,0,1,3.9.3l2.2.7c.8.3,1.4.7,1.3,1.1s0,.2-.3.3h-1l-2.4-.2a29.7,29.7,0,0,1-3.8-1C128.3,414.4,127.1,413.6,127,413.8Z"/><path class="cls-5" d="M127.1,414.5c0,.1,1.4-.5,2.9-2.4a12.4,12.4,0,0,0,2-3.8,18.4,18.4,0,0,0,.5-2.5,2.9,2.9,0,0,0-.9-2.9,1.7,1.7,0,0,0-1.9-.1,3.6,3.6,0,0,0-1.1,1,5.1,5.1,0,0,0-1.5,2.1,8.2,8.2,0,0,0-.9,4.2c.1,2.4,1.1,3.7,1.2,3.6s-.5-1.4-.3-3.6a11.4,11.4,0,0,1,1-3.7,11,11,0,0,1,1.4-1.8c.5-.6,1.2-.9,1.4-.7a2,2,0,0,1,.3,1.8,8.5,8.5,0,0,1-.4,2.3,12.7,12.7,0,0,1-1.5,3.5C128.1,413.4,126.9,414.4,127.1,414.5Z"/><path class="cls-1" d="M130,402s18.3-34.5,15.9-31c-6.8,9.3,33-47.5,51.1-76.5a35.8,35.8,0,0,1,26.6-16.8h0a36,36,0,0,1,29.9,10.6L356.3,393.8l47.8,27.9s-11.8,25.1-49.7,30.3-61.3-25.4-80.4-45c-22.5-23-45.1-54-45.1-54L169,432.1S131.9,404.3,130,402Z"/><path class="cls-1" d="M203.7,283.9h0a60.7,60.7,0,0,0-34.8,23.4l-52.8,72.6,25.5,17.4Z"/><path class="cls-6" d="M194.9,292.2l-.2.2-.6.8-1.1,1.1-1.3,1.8c-1.9,2.5-4.5,6.4-7.6,11.3-6.1,9.8-14.1,23.6-22.7,39l-22.1,39.4c-2.9,5-5.2,9-6.8,11.9l-1.8,3.2-.5.8-.2.3a.8.8,0,0,1,.1-.3l.5-.8,1.7-3.3,6.6-12c5.6-10.1,13.3-24.1,22-39.5s16.7-29.1,22.9-38.9c3.2-4.8,5.7-8.7,7.8-11.3l1.3-1.7,1.1-1.1.6-.7Z"/><path class="cls-6" d="M227.4,333.7a13.6,13.6,0,0,1,.1,2.9,65.4,65.4,0,0,0,.4,7c.3,2.7.8,5.2,1.1,6.9a18.2,18.2,0,0,1,.6,2.9s-.4-1-.9-2.8a41.5,41.5,0,0,1-1.4-6.9,44.8,44.8,0,0,1-.2-7.1A12.1,12.1,0,0,1,227.4,333.7Z"/><path class="cls-6" d="M234.4,331.5a19,19,0,0,1-.9,3.1c-.5,1.9-1.3,4.5-1.9,7.5s-1.1,5.6-1.4,7.6-.4,3.2-.4,3.2a14.5,14.5,0,0,1,0-3.3c.2-1.9.6-4.7,1.2-7.7a62.8,62.8,0,0,1,2.2-7.4A18.5,18.5,0,0,1,234.4,331.5Z"/><path class="cls-7" d="M303.9,152.4l27.5,64.2a20.8,20.8,0,0,1-11.9,27.7h0A20.8,20.8,0,0,1,293.1,233c-2.1-4.8-3.8-8.9-4-9.4s-17.1,5.5-25.2-10.2c-3.9-7.6-10.7-23.8-16.7-38.6A33,33,0,0,1,263,133l1.5-.8C281.4,125,297,135.3,303.9,152.4Z"/><path class="cls-8" d="M288.9,223.4a41.3,41.3,0,0,0,17.7-16.2s.8,13.8-15.7,20.3Z"/><path class="cls-5" d="M256.9,184.5a2.7,2.7,0,0,0,3.4,1.2,2.5,2.5,0,0,0,1.3-3.2,2.4,2.4,0,0,0-3.3-1.2A2.5,2.5,0,0,0,256.9,184.5Z"/><path class="cls-5" d="M253.8,181.4c.4.2,1.5-1.9,3.9-3.1s4.9-.9,5-1.4-.5-.5-1.6-.7a7.1,7.1,0,0,0-7.1,3.6C253.6,180.7,253.6,181.4,253.8,181.4Z"/><path class="cls-5" d="M280.7,172.9a2.4,2.4,0,0,0,3.3,1.2,2.3,2.3,0,0,0,1.3-3.2,2.5,2.5,0,0,0-3.3-1.2A2.4,2.4,0,0,0,280.7,172.9Z"/><path class="cls-5" d="M278.4,169.5c.4.2,1.7-1.8,4.3-2.6s4.9-.3,5-.7-.4-.7-1.4-1a7.1,7.1,0,0,0-7.5,2.7C278.2,168.8,278.2,169.4,278.4,169.5Z"/><path class="cls-5" d="M278.8,191.7a23.1,23.1,0,0,0-4.3,1.3c-.7.2-1.3.4-1.6,0a3,3,0,0,1-.5-2l-.6-5.7c-.8-8-1.7-14.4-2-14.4s0,6.6.9,14.6l.6,5.6a3.9,3.9,0,0,0,.9,2.6,1.7,1.7,0,0,0,1.5.4l1.1-.4C277.3,192.6,278.9,191.8,278.8,191.7Z"/><path class="cls-5" d="M287.7,160c-.4-.7-3,.1-6.2.3s-5.9-.3-6.2.4.4.9,1.6,1.5a10.5,10.5,0,0,0,4.7.8,11,11,0,0,0,4.7-1.3C287.4,161,287.9,160.4,287.7,160Z"/><path class="cls-5" d="M257.4,172.6c-.7-.2-1.9,1.3-3.8,2.6s-3.7,1.9-3.7,2.7.6.7,1.6.8a6.9,6.9,0,0,0,3.7-1.3,6.4,6.4,0,0,0,2.4-3C257.9,173.4,257.7,172.7,257.4,172.6Z"/><path class="cls-7" d="M308.4,164.7c.2-.3,9.3-8.7,14.3,2.3s-6.9,13.8-7.1,13.5S308.4,164.7,308.4,164.7Z"/><path class="cls-8" d="M317,174.8c0-.1.3,0,.7,0a2,2,0,0,0,1.4-.6c1-.9,1.1-3.2.2-5.2a6.7,6.7,0,0,0-1.8-2.5,2.2,2.2,0,0,0-2.1-.8,1,1,0,0,0-.9,1c0,.4.2.6.1.6s-.3-.1-.4-.5a1.5,1.5,0,0,1,1-1.7,3,3,0,0,1,2.8.8,6.4,6.4,0,0,1,2.1,2.7c1,2.3.8,4.9-.6,6.1a2.5,2.5,0,0,1-1.9.5A1.1,1.1,0,0,1,317,174.8Z"/><path class="cls-5" d="M314.2,161.3c-1.8.4-3.9,3.4-3.8,5.3s.8,3.7.9,5.6-.9,4.1-2.7,4.5a3.7,3.7,0,0,1-3.5-1.3,12.8,12.8,0,0,1-1.8-3.5c-1.9-5.3-3.3-10.9-5.6-16s-5.8-10.1-10.6-13.1-11.3-3.7-16.2-.8c-3.2,2-5.4,5.3-8.5,7.4a14.9,14.9,0,0,1-12.8,1.8h-.7a3.3,3.3,0,0,1-2.7-2.9,1.9,1.9,0,0,1,.1-1.3c3.5-9.5,14.6-17.1,24.4-19.3s21.1-.1,29,6.2,12.5,18.2,14.5,27.5"/><path class="cls-5" d="M287.7,194.7c0,.2-.6.2-1.4.3a8.5,8.5,0,0,0-2.9,1.2,7.8,7.8,0,0,0-2.2,2.3c-.5.7-.7,1.2-.9,1.2s-.2-.6.2-1.5a6.5,6.5,0,0,1,2.3-2.9,5.7,5.7,0,0,1,3.5-1.1C287.2,194.3,287.8,194.6,287.7,194.7Z"/><path class="cls-8" d="M289.7,171.3a3.5,3.5,0,0,1-1.3,2.5c-1.2,1.1-2.6,1.2-2.6,1a8.8,8.8,0,0,0,2.2-1.4C289.1,172.4,289.5,171.3,289.7,171.3Z"/><path class="cls-8" d="M263.1,184.6c.2,0,0,1.4-1.3,2.5a3.6,3.6,0,0,1-2.5,1.1c-.1-.2,1.1-.5,2.2-1.5A10.4,10.4,0,0,0,263.1,184.6Z"/><path class="cls-7" d="M201.7,190.8l16.7-30.5,13.8-11.1,17.7,2.5s5.1,5.8,3.1,8.7-3.7,10.1-5.7,7.4-2.4-8.2-2.4-8.2l-4.7-.2v8.2l9.5,2.9s9.3-7.8,10.2-6.1.2,4.9-5.2,9.4-11.8,11.5-11.8,11.5l-8.4,2-7.5,12Z"/><path class="cls-2" d="M296,230.1l-87.7,26.6,20.6-58.5L201,189.5l-31.6,65c-9.6,22.5-7,32.4,1.9,42.2h0c7.1,7.8,25.9,4,36.3,2.1l76.7-12Z"/><path class="cls-9" d="M296,230.1l-87.7,26.6,20.6-58.5L201,189.5l-31.6,65c-9.6,22.5-7,32.4,1.9,42.2h0c7.1,7.8,25.9,4,36.3,2.1l76.5-12Z"/><path class="cls-10" d="M192.3,224.4c-.1.2-1.8.1-4-.1s-3.9-.5-3.9-.7a15.4,15.4,0,0,1,4,.2A19.9,19.9,0,0,1,192.3,224.4Z"/><path class="cls-10" d="M193.6,221.4a14.9,14.9,0,0,1-3.6-.8c-2-.6-3.5-1.1-3.5-1.3a14.3,14.3,0,0,1,3.7.8C192.1,220.6,193.7,221.2,193.6,221.4Z"/><path class="cls-2" d="M279.6,279.4s35.4,57,35.1,65.5,16.4,27.1,23.7,34.4,49.6,42.4,65.7,42.4c0,0,20.8-29.9,19.3-47.5S389.3,264,389.3,264s-25.3-53.1-48.7-58.3l-15.4-3.4c0,.5,1.4,12.1-10.4,19.2-16.4,10.1-36,17.3-36,17.3Z"/><path class="cls-2" d="M320.7,222.6l-52.9,15.2-46.2,9.7,20.6-58.6-29.4-9.1-30.1,65.4c-9.6,22.5-7,32.5,1.9,42.2h0c7.1,7.9,25.9,4,36.3,2.1l90.1-8.4Z"/><path class="cls-7" d="M215,180.2,231,151l13.8-11.1,17.7,2.5s5.1,5.8,3.2,8.7-3.8,10.1-5.8,7.4-2.4-8.2-2.4-8.2l-4.7-.2v8.3l9.4,2.8s9.3-7.7,10.3-6,.1,4.8-5.2,9.3S255.6,176,255.6,176l-8.4,2-6.6,10.5Z"/><path class="cls-8" d="M240.6,188.5v-.2l.3-.6,1.3-2,4.7-7.8h.1l8.4-2h-.1a157,157,0,0,1,12.9-12.5,21.2,21.2,0,0,0,3.4-3.9,6.3,6.3,0,0,0,.9-2.4,2.8,2.8,0,0,0,0-1.3l-.2-.5c-.1-.1-.2-.2-.4-.1a6.2,6.2,0,0,0-2.5,1.1l-2.4,1.5-4.6,3.6h-.3l-9.4-2.9h-.2v-8.8h.2l4.7.3h.3v.2a19.9,19.9,0,0,0,1.6,6.7,6.7,6.7,0,0,0,.6,1.2c.3.4.6.7.9.6s.6-.4.9-.7l.7-1.2c.8-1.6,1.5-3.4,2.4-5l.3-.7.4-.5v-1.2a5.4,5.4,0,0,0-.6-2.5,18.6,18.6,0,0,0-2.9-4.4h.2l-17.7-2.4h.1l-13.7,11.1h0l-11.7,21.3c-1.4,2.5-2.5,4.5-3.3,5.8a9.4,9.4,0,0,1-.8,1.5,1.1,1.1,0,0,1-.4.5l.3-.5.8-1.5c.7-1.4,1.8-3.4,3.2-5.9l11.5-21.4h.1l13.7-11.2h.2l17.8,2.4h.1a22.1,22.1,0,0,1,3,4.5,6.8,6.8,0,0,1,.7,2.8,1.7,1.7,0,0,1-.1.7v.7l-.4.6-.3.6c-.9,1.6-1.6,3.4-2.4,5.1a8.3,8.3,0,0,1-.8,1.2,2.4,2.4,0,0,1-1.2,1,1.2,1.2,0,0,1-.9-.3l-.5-.6a5.4,5.4,0,0,1-.7-1.3,24.2,24.2,0,0,1-1.7-6.8l.3.2-4.7-.2.3-.3v8.3l-.2-.3,9.5,2.9h-.3l4.7-3.6,2.4-1.6a12.8,12.8,0,0,1,2.7-1.1c.3,0,.7,0,.9.3l.3.7a3.8,3.8,0,0,1,0,1.5,9.3,9.3,0,0,1-1,2.5,17.1,17.1,0,0,1-3.5,4,175.9,175.9,0,0,0-12.9,12.4h-.1l-8.4,2h.1l-4.9,7.7a21.2,21.2,0,0,0-1.3,2l-.4.5Z"/><path class="cls-5" d="M315.8,294.4l-1.2-.9-1.5-1a17.4,17.4,0,0,0-2-1.3,34.9,34.9,0,0,0-5.5-2.9,50.1,50.1,0,0,0-7.2-2.5,63.4,63.4,0,0,0-13.6-1.7h-5.7l1.5-.2,4.2-.2a54,54,0,0,1,13.8,1.6,54.8,54.8,0,0,1,7.2,2.5,38.9,38.9,0,0,1,5.5,3l2,1.4,1.4,1.1C315.5,294,315.9,294.3,315.8,294.4Z"/><path class="cls-5" d="M310.1,225.3l-1.6.6-4.4,1.4-14.5,4.4L275,235.9l-4.5,1.2-1.6.4,1.6-.6,4.4-1.3c3.7-1.2,8.8-2.8,14.5-4.4l14.6-4.3,4.4-1.2Z"/><path class="cls-5" d="M393.5,377.2l-.6.6-.7.8-1.1.9a23.2,23.2,0,0,1-8.2,3.9,30,30,0,0,1-13.4.1,47.1,47.1,0,0,1-14.9-6.8,143.5,143.5,0,0,1-12.8-10.3c-3.8-3.4-7.2-6.3-10.3-8.6a56.5,56.5,0,0,0-7.5-5l-2.1-1.2-.8-.4.8.3,2.2,1.1a70.3,70.3,0,0,1,7.7,4.8c3,2.3,6.5,5.3,10.3,8.6a143.2,143.2,0,0,0,12.8,10.2,45.7,45.7,0,0,0,14.8,6.8,28.8,28.8,0,0,0,13.1,0,22.5,22.5,0,0,0,8.2-3.7l1.1-.8a4.5,4.5,0,0,1,.7-.7Z"/><path class="cls-5" d="M373.4,317.1h-3.9a27.6,27.6,0,0,1-4.2-.8,29.6,29.6,0,0,1-4.9-1.8,31.4,31.4,0,0,1-4.5-2.6,23.6,23.6,0,0,1-3.2-2.8,17.7,17.7,0,0,1-2-2.1c-.4-.6-.6-.9-.5-.9s1,1.1,2.7,2.7a23.9,23.9,0,0,0,3.3,2.7,26.5,26.5,0,0,0,4.4,2.5,28.8,28.8,0,0,0,4.8,1.8,29.2,29.2,0,0,0,4.2.9C371.9,317,373.4,317,373.4,317.1Z"/><g class="cls-11"><path d="M333.1,358.4c4.3-1.7,9.3-.4,13.2,2.1s7,6.1,10.6,9.1,7.7,5.7,12.3,5.8c6.7.2,12.8-4.8,19.5-4.7,2.5,0,5.4,1.3,5.6,3.8s-1.6,3.5-3.2,4.6c-7.2,4.8-12.1,8-28.1,1.9A135.3,135.3,0,0,1,333.1,358.4Z"/></g><path class="cls-5" d="M315.6,344.8c-.1.1-7.7-13.5-16.8-30.3s-16.5-30.6-16.4-30.6,7.7,13.5,16.8,30.3S315.7,344.7,315.6,344.8Z"/><path class="cls-10" d="M264.8,284.9l-.7-1.6q-.7-1.7-1.8-4.5a148.7,148.7,0,0,1-4.6-15.3,157,157,0,0,1-2.8-15.7c-.2-2-.3-3.7-.4-4.8s-.1-1.8-.1-1.8.2.6.3,1.8.3,2.7.6,4.8c.6,4,1.5,9.5,3,15.6s3.1,11.4,4.4,15.3c.6,1.9,1.2,3.4,1.6,4.5Z"/><path class="cls-10" d="M271,284.8a6.3,6.3,0,0,1-.7-1.7,38.6,38.6,0,0,1-1.7-4.7,125.9,125.9,0,0,1-4.3-16,153.4,153.4,0,0,1-2.4-16.3c-.2-2.1-.3-3.9-.4-5v-1.9a10.8,10.8,0,0,1,.3,1.8c.1,1.2.2,2.9.5,5a161.2,161.2,0,0,0,2.6,16.3,157.8,157.8,0,0,0,4.1,16l1.5,4.8Z"/><path class="cls-10" d="M350.3,307.3h-.5l-1.5.4-5.5,1.2c-4.6.8-11.1,1.8-18.3,2.4a151.6,151.6,0,0,1-18.5.4,39.7,39.7,0,0,1-5.6-.3H306a182.8,182.8,0,0,0,18.5-.6c7.1-.5,13.6-1.4,18.3-2.2l5.5-1,1.5-.3C350.1,307.3,350.3,307.2,350.3,307.3Z"/><path class="cls-10" d="M395,289.5l-1.4,1.1c-.9.7-2.2,1.7-3.9,2.8a102.9,102.9,0,0,1-13.7,7.9,108.7,108.7,0,0,1-14.6,5.9c-1.9.7-3.5,1.1-4.6,1.4l-1.7.4,1.6-.6,4.6-1.5a151.6,151.6,0,0,0,14.5-6.1c5.5-2.7,10.3-5.6,13.7-7.7l4-2.7Z"/><path class="cls-10" d="M394.1,280.2h-.2l-.7.5-2.4,1.8-1.8,1.3-2.2,1.4c-1.6,1-3.4,2.2-5.5,3.3l-3.3,1.9-3.6,1.8a88.4,88.4,0,0,1-8.1,3.7,145.3,145.3,0,0,1-19.3,6.5,149.3,149.3,0,0,1-20.1,3.5l-8.9.6h-7.8c-2.4,0-4.5-.2-6.4-.3l-2.6-.2-2.2-.3-3.1-.4h-.7c-.2,0-.3,0-.3-.1H296l3,.3,2.2.2,2.6.2,6.4.2h3.7a27.1,27.1,0,0,0,4-.1c2.8,0,5.8-.3,8.9-.6a162.2,162.2,0,0,0,20-3.5,161.6,161.6,0,0,0,19.3-6.4c2.9-1.3,5.7-2.4,8.1-3.7l3.6-1.8,3.3-1.8c2.1-1.1,3.9-2.3,5.5-3.3l2.2-1.3,1.8-1.3,2.6-1.7a1.5,1.5,0,0,0,.6-.4Z"/><path class="cls-10" d="M234.5,210.7c0,.2-7.1-1.8-15.9-4.3s-15.7-4.7-15.7-4.9,7.2,1.8,15.9,4.4S234.6,210.6,234.5,210.7Z"/><path class="cls-10" d="M233.1,214.7c0,.1-7.2-1.8-16.1-4.4s-16-4.8-16-5,7.3,1.9,16.2,4.5S233.2,214.6,233.1,214.7Z"/><g class="cls-12"><path d="M324.4,312c-.5-9.4-6.8-17.8-14.9-22.4s-17.6-5.9-26.9-5.3l23.8,41.2a32.1,32.1,0,0,0,8.2-.5,12,12,0,0,0,7.6-4.4A13.7,13.7,0,0,0,324.4,312Z"/></g><path class="cls-5" d="M451.4,395.7l.3-.7a17.8,17.8,0,0,0,.8-1.8A44,44,0,0,0,455,386c1.6-6.4,2.2-16.2-.2-27.8a143.9,143.9,0,0,0-5.2-18.7c-2.2-6.7-4.7-13.7-6.8-21.3s-3.7-15.9-3.3-24.5,2.8-17.3,5.7-25.9,5.7-17.1,6.6-25.5a40,40,0,0,0-4.7-23.6c-3.8-6.9-8.5-12.8-12-18.9a64.1,64.1,0,0,1-7.1-18.1,66.8,66.8,0,0,1-.5-28.1,56.4,56.4,0,0,1,2.9-9.9,3.2,3.2,0,0,1-.1.7,14.5,14.5,0,0,0-.6,1.9,63.9,63.9,0,0,0-1.1,35.3,64.6,64.6,0,0,0,7.2,17.9c3.5,6,8.2,11.8,12,18.8a40,40,0,0,1,4.8,24c-.9,8.7-3.8,17.1-6.6,25.8s-5.3,17.1-5.7,25.6,1.3,16.7,3.3,24.3,4.6,14.6,6.7,21.2a149.6,149.6,0,0,1,5.1,18.9c2.4,11.7,1.7,21.6-.1,28a53.7,53.7,0,0,1-2.6,7.2l-1,1.8Z"/><path class="cls-2" d="M439.9,205.8s-7.1-22.8,5.7-36.1a.7.7,0,0,1,1.3.4C447.6,173.8,448.5,185.3,439.9,205.8Z"/><path class="cls-5" d="M444.2,177.3a24.7,24.7,0,0,1-.5,4.2c-.5,2.9-1,6.3-1.6,10s-1.2,7.2-1.6,10.1a25.2,25.2,0,0,1-.8,4.2,20.5,20.5,0,0,1,.1-4.3c.3-2.6.7-6.2,1.4-10.1s1.3-7.5,1.9-10S444.1,177.2,444.2,177.3Z"/><path class="cls-2" d="M448.3,259.7s4.4-23.5,21.9-29.4a.8.8,0,0,1,1,1C470.1,235,465.5,245.5,448.3,259.7Z"/><path class="cls-5" d="M465.4,236.4c.1.1-.8,1.4-2.4,3.5s-3.8,5.1-6.1,8.1-4.4,5.8-6.1,8.2-2.5,3.4-2.6,3.3a15.4,15.4,0,0,1,2.1-3.7c1.4-2.2,3.5-5.1,5.9-8.3s4.7-6,6.3-8S465.3,236.3,465.4,236.4Z"/><path class="cls-2" d="M443.5,318.6s-2.6-23.7,12.5-34.4a.8.8,0,0,1,1.3.7C457.2,288.7,455.9,300.1,443.5,318.6Z"/><path class="cls-5" d="M453.2,291.4a21.6,21.6,0,0,1-1.3,4.1l-3.5,9.5-3.5,9.6a23.8,23.8,0,0,1-1.5,3.9,18.8,18.8,0,0,1,.9-4.1c.7-2.5,1.9-5.9,3.3-9.7s2.7-7.1,3.7-9.5A26.6,26.6,0,0,1,453.2,291.4Z"/><path class="cls-2" d="M456.8,378s-1.8-23.9,13.7-34a.8.8,0,0,1,1.2.7C471.5,348.5,469.7,359.9,456.8,378Z"/><path class="cls-5" d="M467.4,351.1a31.3,31.3,0,0,1-1.4,4c-1.1,2.7-2.4,5.9-3.9,9.4l-3.8,9.5a35.9,35.9,0,0,1-1.7,3.9,17.9,17.9,0,0,1,1.1-4.1c.8-2.5,2.1-5.9,3.6-9.6s3-7,4.1-9.4A17.8,17.8,0,0,1,467.4,351.1Z"/><path class="cls-2" d="M429.6,185.8s-21.1-11.1-21.6-29.6a.9.9,0,0,1,1.3-.7C412.4,157.7,421.2,165.2,429.6,185.8Z"/><path class="cls-5" d="M412.4,162.6c.1-.1,1.1,1.2,2.7,3.3l6,8.3,5.9,8.2a22.2,22.2,0,0,1,2.5,3.5c-.1.1-1.3-1.1-2.9-3.1s-3.9-4.9-6.3-8.1-4.3-6.2-5.7-8.4S412.3,162.7,412.4,162.6Z"/><path class="cls-2" d="M452.4,234.8S430.6,225,429,206.6a.9.9,0,0,1,1.2-.8C433.5,207.8,442.7,214.8,452.4,234.8Z"/><path class="cls-5" d="M433.8,212.7c.1-.1,1.2,1.1,2.9,3.1l6.4,7.9,6.5,7.9c1.7,2,2.7,3.2,2.6,3.3s-1.3-1-3.1-2.9-4.1-4.6-6.7-7.7-4.7-6-6.2-8.1S433.7,212.8,433.8,212.7Z"/><path class="cls-2" d="M439.8,289.5s-14.9-18.7-7.9-35.8a.8.8,0,0,1,1.4-.1C435.3,256.9,440.3,267.2,439.8,289.5Z"/><path class="cls-5" d="M433.4,261.3a29.1,29.1,0,0,1,1.1,4.1l2.1,10c.9,3.7,1.6,7.1,2.2,9.9s1,4.1.8,4.2a28.7,28.7,0,0,1-1.4-4c-.7-2.5-1.6-6-2.4-9.9s-1.5-7.5-2-10.1A18.5,18.5,0,0,1,433.4,261.3Z"/><path class="cls-2" d="M454.7,353.8s-21.7-10.1-22.9-28.6c0-.6.7-1.1,1.2-.7C436.2,326.5,445.3,333.6,454.7,353.8Z"/><path class="cls-5" d="M436.5,331.4c.1-.1,1.1,1.1,2.8,3.2l6.3,8c2.4,2.9,4.5,5.6,6.3,7.9s2.7,3.3,2.6,3.4-1.3-1-3-3-4.1-4.7-6.6-7.8-4.6-6-6.1-8.2A16.9,16.9,0,0,1,436.5,331.4Z"/><path class="cls-5" d="M497.8,259.8c.1,0,.1.2.1.5s-.1.9-.1,1.6-.1,3.3-.2,5.8c-.3,5-.7,12.2-1.2,20.7h0c-1.5,8.7-5.9,18.2-11.8,27.6-4.4,6.8-8.9,13.1-12.9,18.9a148.9,148.9,0,0,0-9.6,15.8,71.7,71.7,0,0,0-4.5,11.7c-.3,1.4-.6,2.5-.8,3.3l-.3,1.2a8.3,8.3,0,0,1,.1-1.2c.1-.8.4-1.9.7-3.4a60.6,60.6,0,0,1,4.3-11.8,106.3,106.3,0,0,1,9.5-16.1c3.9-5.8,8.4-12.1,12.7-18.9,5.9-9.3,10.3-18.7,11.9-27.2h0c.6-8.5,1.1-15.6,1.4-20.7.2-2.4.4-4.3.5-5.8a8.6,8.6,0,0,0,.1-1.5A1.8,1.8,0,0,0,497.8,259.8Z"/><path class="cls-2" d="M484.9,314.2s9.2-22.1-2.3-36.6a.8.8,0,0,0-1.4.3C480.2,281.6,478.3,292.9,484.9,314.2Z"/><path class="cls-5" d="M483.3,285.3a20.8,20.8,0,0,1,.7,4.2c.3,2.6.7,6.2,1,10.2s.4,7.6.4,10.2a16.4,16.4,0,0,1-.3,4.2,25.2,25.2,0,0,1-.3-4.2c-.2-2.9-.5-6.4-.7-10.2s-.5-7.2-.7-10.1S483.1,285.3,483.3,285.3Z"/><g class="cls-12"><path d="M484.9,314.2s9.2-22.1-2.3-36.6a.8.8,0,0,0-1.4.3C480.2,281.6,478.3,292.9,484.9,314.2Z"/></g><path class="cls-2" d="M456.5,367.4s7.4-22.8-5.3-36.2a.8.8,0,0,0-1.4.3C449.1,335.3,448.2,346.8,456.5,367.4Z"/><path class="cls-5" d="M452.5,338.8c.1-.1.6,1.5,1.1,4.1s1.2,6.1,1.8,10,1,7.6,1.2,10.2a19.4,19.4,0,0,1,.1,4.2,36.2,36.2,0,0,1-.7-4.2c-.4-2.9-.9-6.3-1.5-10s-1.1-7.2-1.5-10.1A24.7,24.7,0,0,1,452.5,338.8Z"/><g class="cls-12"><path d="M456.5,367.4s7.4-22.8-5.3-36.2a.8.8,0,0,0-1.4.3C449.1,335.3,448.2,346.8,456.5,367.4Z"/></g><path class="cls-2" d="M496.6,287.2s19.6-13.7,17.6-32.1a.7.7,0,0,0-1.3-.5C510.1,257.1,502.4,265.7,496.6,287.2Z"/><g class="cls-12"><path d="M496.6,287.2s19.6-13.7,17.6-32.1a.7.7,0,0,0-1.3-.5C510.1,257.1,502.4,265.7,496.6,287.2Z"/></g><path class="cls-5" d="M510.7,262a23,23,0,0,1-1.6,3.9c-1.2,2.3-2.8,5.6-4.7,9.1s-3.7,6.6-5.1,8.8a22.5,22.5,0,0,1-2.5,3.5,22.8,22.8,0,0,1,2-3.8l4.8-9c1.9-3.3,3.5-6.3,4.9-8.9S510.6,261.9,510.7,262Z"/><path class="cls-2" d="M464.4,344.8s23.6-3.7,30-21a.8.8,0,0,0-1-1.1C489.7,323.8,479.1,328.1,464.4,344.8Z"/><g class="cls-12"><path d="M464.4,344.8s23.6-3.7,30-21a.8.8,0,0,0-1-1.1C489.7,323.8,479.1,328.1,464.4,344.8Z"/></g><path class="cls-5" d="M488.2,328.4c0,.1-1.2,1.1-3.2,2.8s-4.9,3.8-8.2,6.1-6.2,4.3-8.5,5.7a25,25,0,0,1-3.7,2c-.1-.1,1.2-1.1,3.4-2.6l8.3-5.8,8.3-5.9A18,18,0,0,1,488.2,328.4Z"/><polygon class="cls-6" points="436.5 388.3 443.2 432.8 470.3 432.7 479.4 388.3 436.5 388.3"/><path class="cls-5" d="M475.5,405.5h-.3l-.7.4a9.8,9.8,0,0,1-3,.9,11.1,11.1,0,0,1-5-.4,10.2,10.2,0,0,1-5.3-3.9,7.8,7.8,0,0,1-1.3-3.7,4,4,0,0,1,1.9-3.9,4.3,4.3,0,0,1,4.5.4,6.7,6.7,0,0,1,2.6,4.1,16.7,16.7,0,0,1,.3,5,15,15,0,0,1-1.1,5.1,10.7,10.7,0,0,1-3.1,4.5,8.4,8.4,0,0,1-10.6.6,15.9,15.9,0,0,1-4.1-3.6,8.9,8.9,0,0,1-2-4.9,5.5,5.5,0,0,1,1.9-4.7,4.2,4.2,0,0,1,4.8-.3,5,5,0,0,1,2.7,3.6,6.6,6.6,0,0,1-3.4,7,9.1,9.1,0,0,1-6.5,1,15.9,15.9,0,0,1-4.7-1.8l-2.6-1.8-.8-.7.9.6a24,24,0,0,0,2.7,1.6,13,13,0,0,0,4.6,1.7,9.4,9.4,0,0,0,6.2-1,6.6,6.6,0,0,0,3-6.5,4.2,4.2,0,0,0-2.4-3.1,3.8,3.8,0,0,0-4.1.2,5.2,5.2,0,0,0-1.6,4.2,7.9,7.9,0,0,0,1.9,4.4,15.7,15.7,0,0,0,3.8,3.5,10,10,0,0,0,5,1.5,8.3,8.3,0,0,0,4.8-2,11,11,0,0,0,2.9-4.2,14.5,14.5,0,0,0,1.1-4.9,15.2,15.2,0,0,0-.3-4.8,5.5,5.5,0,0,0-2.3-3.7,3.5,3.5,0,0,0-3.8-.4,3.2,3.2,0,0,0-1.6,3.2,6.9,6.9,0,0,0,1.1,3.5,9.7,9.7,0,0,0,5.1,3.8,10.4,10.4,0,0,0,4.8.5C474.2,406.3,475.4,405.3,475.5,405.5Z"/></svg>