<svg id="_1" data-name="1" xmlns="http://www.w3.org/2000/svg" viewBox="0 0 580 480"><defs><style>.cls-1{fill:#20e57e;}.cls-2{fill:#ffbe9d;}.cls-3{opacity:0.6;}.cls-4{fill:#ced9d7;}.cls-5{fill:#2b4751;}.cls-6{fill:#455a64;}.cls-7{fill:#fafafa;}.cls-8{opacity:0.4;}.cls-9{fill:#eb996e;}.cls-10{fill:#dcdee0;}.cls-11{fill:#abafb2;}.cls-12{fill:#4d4d4d;}.cls-13{fill:#939393;}.cls-14{fill:#1ac699;}.cls-15{fill:#333;}</style></defs><g id="freepik--Character--inject-2"><path class="cls-1" d="M144.87,294.25c-10.71-9.93-29.7-8.77-39.12,2.4-3.71,4.4-6.24,10.17-11.34,12.83-7.79,4.1-17.29-1.07-26.09-.32C58,310,49.52,320.52,50.79,330.79c.57,4.64,2.77,9.57.59,13.7-2.77,5.27-10.81,5.48-14.19,10.38-3,4.43-.67,11,3.76,14s10.14,3.44,15.51,3.2,10.83-1,16.07.19c5.78,1.31,10.71,4.87,16.25,7.05,13.22,5.3,28.69,2.35,40.9-4.93s21.71-18.39,30-30"/><polyline class="cls-2" points="417.71 347.43 401.64 324.66 422.54 309.84 437.17 339.57 418.67 347.23"/><path class="cls-1" d="M436.3,335.5,447.67,356s24.66-4.67,27.13-1.09l-39,23.47-19-31.23Z"/><g class="cls-3"><path class="cls-4" d="M434.59,361.57a1.88,1.88,0,0,0,0,2.49,1.82,1.82,0,0,0,2.46,0,2,2,0,0,0,0-2.64,1.86,1.86,0,0,0-2.56.27"/></g><g class="cls-3"><path class="cls-4" d="M435.84,378.39l-1.79-3.22,38-21.29s2.19-.29,2.77,1Z"/></g><path class="cls-5" d="M448.18,355.42c.1.2-.79.86-1.38,2s-.6,2.28-.81,2.32-.61-1.25.11-2.65S448.11,355.23,448.18,355.42Z"/><path class="cls-5" d="M453.28,354.66c.15.15-.47,1-.64,2.17s.17,2.16,0,2.26-1-.89-.74-2.37S453.17,354.51,453.28,354.66Z"/><path class="cls-5" d="M458.56,358.16c-.16.14-1-.65-1.13-2s.5-2.29.67-2.18a11.59,11.59,0,0,1,.09,2.1C458.29,357.19,458.72,358,458.56,358.16Z"/><path class="cls-5" d="M445.07,351c0,.22-1,.48-2,1.2s-1.66,1.57-1.86,1.46.2-1.26,1.39-2.09S445.07,350.84,445.07,351Z"/><path class="cls-5" d="M442.7,346.94a4.74,4.74,0,0,1-2,1.17,10,10,0,0,1-3.9.68,2.51,2.51,0,0,1-.86-.1.93.93,0,0,1-.69-1,1.19,1.19,0,0,1,.57-.94,2.5,2.5,0,0,1,.79-.33,7.27,7.27,0,0,1,1.38-.32,8.19,8.19,0,0,1,2.52.09c1.39.29,2.15.82,2.11.91s-.85-.23-2.2-.37a9.57,9.57,0,0,0-2.33.07,7.62,7.62,0,0,0-1.39.34c-.48.14-.83.34-.83.59s0,.13.18.2a3.42,3.42,0,0,0,.64,0h1.39a13.08,13.08,0,0,0,2.33-.42A19.69,19.69,0,0,1,442.7,346.94Z"/><path class="cls-5" d="M442.62,347.37a4,4,0,0,1-1.66-1.58,7.12,7.12,0,0,1-1-2.29,6.88,6.88,0,0,1-.22-1.49,1.89,1.89,0,0,1,.65-1.73,1,1,0,0,1,1.14,0,2.76,2.76,0,0,1,.64.59,5.32,5.32,0,0,1,.79,1.31,5.22,5.22,0,0,1,.37,2.53,3.16,3.16,0,0,1-.86,2.11,19.92,19.92,0,0,0,.32-2,5.27,5.27,0,0,0-.48-2.21,4.81,4.81,0,0,0-.72-1.11c-.31-.37-.67-.61-.8-.47a1.3,1.3,0,0,0-.29,1,6.5,6.5,0,0,0,.15,1.39,8.17,8.17,0,0,0,.8,2.18C442.07,346.69,442.7,347.27,442.62,347.37Z"/><polyline class="cls-5" points="358.22 266.5 408.12 344.91 435.4 326.37 389.44 231.89"/><path class="cls-6" d="M362.26,249.3c.21.08-1.29,3.27-2,7.48s-.42,7.71-.64,7.73a21.81,21.81,0,0,1,2.64-15.27Z"/><path class="cls-6" d="M357.13,249.52c.21,0,0,3.44.57,7.61s1.61,7.41,1.39,7.48a25.76,25.76,0,0,1-2-15.09Z"/><path class="cls-5" d="M163.64,266.26,129.41,255.7c-41.29,52.57-38.53,110.35,27.94,144.54l36.91-41.35Z"/><path class="cls-4" d="M167,257.88c-21.91,12.78-32.81,39.7-30.14,66.08,2.93,28.91,22,57.09,57,64.88l235.37-47a71.53,71.53,0,0,0,56.11-84.17c-.4-2-.88-4-1.45-5.92h0a71.52,71.52,0,0,0-85.44-49.58Z"/><path class="cls-5" d="M167,257.88l2.18-.56,6.43-1.58,24.75-6,91.11-22.08,62.92-15.27,35.07-8.47,9.1-2.18,4.67-.89c.78-.15,1.56-.32,2.35-.44l2.39-.21c1.6-.12,3.19-.32,4.79-.4h4.86a39.54,39.54,0,0,1,4.86.33l2.44.25,1.22.14,1.21.24,4.85,1c1.61.38,3.18.92,4.77,1.39.79.25,1.6.47,2.39.75l2.32.93,2.32,1a16.31,16.31,0,0,1,2.3,1l4.49,2.33c1.48.82,2.87,1.8,4.31,2.78l2.13,1.38,2,1.59,2,1.59,1,.79.93.89a71.74,71.74,0,0,1-7.79,113.06,70.77,70.77,0,0,1-17,8.43c-6,2.09-12.23,3-18.3,4.29l-36.1,7.2L315.05,365,194,389.09h-.12A86.58,86.58,0,0,1,176,382.75a69.94,69.94,0,0,1-26.25-22.9,80.62,80.62,0,0,1-7.64-14.13c-.5-1.19-.89-2.43-1.39-3.62a32.91,32.91,0,0,1-1.18-3.6c-.35-1.21-.68-2.4-1-3.6l-.75-3.56a30.52,30.52,0,0,1-.63-3.54c-.15-1.17-.32-2.34-.47-3.49s-.17-2.3-.25-3.44-.15-2.27-.14-3.38a75.27,75.27,0,0,1,3.42-24.07,68.55,68.55,0,0,1,8.33-17.62,56.39,56.39,0,0,1,9.33-10.88c.72-.64,1.39-1.3,2-1.82l1.91-1.46L163,260.4l1.38-.9,2.57-1.61-2.52,1.68-1.39.92-1.61,1.25-1.84,1.45c-.65.55-1.3,1.18-2,1.84a56.66,56.66,0,0,0-9.24,10.9A68.69,68.69,0,0,0,140,293.5a75.78,75.78,0,0,0-3.34,24,27.14,27.14,0,0,0,.14,3.36c.13,1.12.13,2.28.27,3.43s.31,2.3.48,3.47a32.23,32.23,0,0,0,.62,3.51c.25,1.17.5,2.36.75,3.56s.68,2.36,1,3.56a37.66,37.66,0,0,0,1.18,3.59c.45,1.18.84,2.4,1.39,3.58a80,80,0,0,0,7.61,14,78.73,78.73,0,0,0,11.25,12.67,77.85,77.85,0,0,0,14.82,10A85.34,85.34,0,0,0,194,388.55h-.11l121-24.32,69-13.8,36.1-7.22c6.08-1.29,12.3-2.2,18.2-4.28A69.26,69.26,0,0,0,455,330.6a71.14,71.14,0,0,0,7.75-112l-.93-.87-1-.68-2-1.57-2-1.57c-.66-.51-1.38-.93-2.11-1.39-1.39-.89-2.77-1.87-4.26-2.68L446,207.53a23.29,23.29,0,0,0-2.28-1l-2.3-.93-2.31-1c-.78-.26-1.57-.48-2.36-.72-1.58-.46-3.14-1-4.73-1.39l-4.79-1-1.2-.25-1.22-.12-2.41-.25a37.08,37.08,0,0,0-4.82-.35h-4.81c-1.59.08-3.18.28-4.74.4l-2.38.21c-.78.11-1.55.28-2.33.43l-4.62.87-9.14,2.07L354.52,213l-62.93,15.18L200.44,250l-24.8,6-6.45,1.53Z"/><path class="cls-1" d="M193.89,388.81l-31,70.59S309.32,445.28,303.07,367Z"/><path class="cls-1" d="M277.83,231.16S207.4,162.83,117.9,191.61L167,257.88Z"/><path class="cls-1" d="M406.41,201.12c30.22,22.21,48.7,109.07,34.14,136.66,85.66-25.06,103.63-98.58,103.63-98.58C482.25,181.53,406.41,201.12,406.41,201.12Z"/><path class="cls-6" d="M149.83,356.53c.14.13-4.56,5.77-10.52,12.58s-10.91,12.24-11.11,12.1,4.56-5.77,10.53-12.58S149.7,356.4,149.83,356.53Z"/><path class="cls-5" d="M544.13,239.17s-.16.32-.52.94L542,242.8l-2.65,4.39c-.53.86-1.1,1.79-1.69,2.77L535.5,253c-1.51,2.15-3.17,4.56-5,7.15l-6.54,8.11c-1.24,1.38-2.57,2.77-3.92,4.29s-2.67,3-4.16,4.48c-3.08,2.92-6.25,6.09-9.94,9A133,133,0,0,1,480.27,303a127.4,127.4,0,0,1-15.77,6.75c-2.78,1-5.64,1.89-8.46,2.92a83.9,83.9,0,0,1-9,2.3c-24.27,5.37-51,10.87-79.14,16.66-56.19,11.61-107.07,22-143.92,29.41l-43.65,8.81-11.87,2.35-3.1.58c-.69.14-1,.18-1,.18l1-.25,3.08-.66,11.84-2.47,43.6-9L367.81,331c28.07-5.83,54.84-11.31,79.14-16.66a84.51,84.51,0,0,0,8.86-2.25c2.87-1.05,5.72-1.9,8.48-2.91A130.07,130.07,0,0,0,480,302.47a134.18,134.18,0,0,0,25.58-16.78c3.68-2.92,6.86-6.07,9.93-9,1.56-1.39,2.87-3,4.25-4.45s2.69-2.86,3.93-4.26l6.56-8.05c1.89-2.57,3.56-5,5.1-7.1l2.15-3,1.72-2.77,2.71-4.35c.74-1.15,1.29-2,1.68-2.66S544.13,239.17,544.13,239.17Z"/><path class="cls-5" d="M321.24,363.45a2.51,2.51,0,0,1-.25-.28l-.68-.86L317.77,359l-1.83-2.43c-.64-.9-1.28-1.93-2-3-1.39-2.17-3.14-4.59-4.71-7.45l-2.56-4.44c-.89-1.54-1.67-3.23-2.54-4.94-1.82-3.39-3.39-7.18-5.13-11.11A164.27,164.27,0,0,1,286.84,271c-.11-4.32-.31-8.41-.1-12.26.09-1.92,0-3.78.21-5.55s.31-3.49.45-5.11c.2-3.27.75-6.18,1.09-8.75.21-1.28.35-2.47.56-3.57s.43-2.07.62-3c.38-1.75.67-3.11.89-4.16l.25-1.07c.07-.3.1-.36.11-.35a2.29,2.29,0,0,1,0,.37,8.79,8.79,0,0,1-.18,1.07l-.75,4.17c-.16.9-.36,1.89-.57,3s-.3,2.29-.48,3.58c-.31,2.57-.81,5.47-1,8.72-.12,1.63-.26,3.33-.39,5.1s-.11,3.62-.16,5.55c-.18,3.83,0,7.91.15,12.22a166.88,166.88,0,0,0,12.06,54.42c1.71,3.94,3.25,7.74,5,11.11.88,1.71,1.64,3.39,2.5,4.94l2.53,4.44c1.53,2.88,3.22,5.31,4.59,7.49.71,1.09,1.39,2.12,2,3s1.24,1.71,1.77,2.46c1,1.38,1.84,2.59,2.44,3.41l.61.9A1.44,1.44,0,0,1,321.24,363.45Z"/><path class="cls-1" d="M255.13,290.64,107.5,321.19s-.65,14.42,3,14.53c3,.1,112.78-19.7,148.38-26.14a9.61,9.61,0,0,0,7.75-11.16,9.37,9.37,0,0,0-.39-1.47h0A9.72,9.72,0,0,0,255.13,290.64Z"/><ellipse class="cls-7" cx="368.18" cy="276.96" rx="32.79" ry="35.28" transform="translate(90.71 644.76) rotate(-89.92)"/><path class="cls-5" d="M403.48,277a2.53,2.53,0,0,1,0-.55c0-.41-.09-.93-.13-1.61a6.52,6.52,0,0,0-.08-1.2c-.08-.44-.15-.9-.25-1.39s-.18-1-.28-1.63-.33-1.2-.51-1.85a33,33,0,0,0-1.51-4.17A33.72,33.72,0,0,0,389,250.87a35.86,35.86,0,0,0-14.47-5.78,32.19,32.19,0,0,0-4.27-.44c-.74,0-1.47-.1-2.21-.09l-2.23.11H364.7l-1.14.16-2.27.33-2.27.54-1.15.26-1.11.39a34.73,34.73,0,0,0-16.25,11,30.57,30.57,0,0,0,0,39.25,34.76,34.76,0,0,0,16.21,11l1.12.39,1.15.28,2.27.54,2.27.33,1.13.17h1.14l2.23.11c.74,0,1.47,0,2.2-.07a32.19,32.19,0,0,0,4.27-.44,35.53,35.53,0,0,0,14.37-5.75,31.66,31.66,0,0,0,13.29-17.93c.17-.65.37-1.25.5-1.83s.21-1.14.29-1.65.18-1,.25-1.39,0-.83.08-1.18c.06-.68.1-1.23.13-1.62a3.31,3.31,0,0,1,.07-.55,5.23,5.23,0,0,1,0,.56v2.82a9.08,9.08,0,0,1-.22,1.39c-.09.47-.17,1.07-.25,1.66s-.32,1.2-.49,1.86a30.84,30.84,0,0,1-1.49,4.27,33.32,33.32,0,0,1-2.59,4.72,34.06,34.06,0,0,1-9.18,9.28,36,36,0,0,1-14.67,5.9,33.42,33.42,0,0,1-4.35.46c-.74,0-1.49.1-2.23.09l-2.27-.1h-1.15l-1.15-.17-2.32-.33-2.31-.54-1.16-.28-1.14-.39A35.3,35.3,0,0,1,340,297a31.17,31.17,0,0,1,0-40.14,35.44,35.44,0,0,1,16.66-11.11l1.13-.37,1.17-.28,2.32-.54,2.32-.34,1.14-.15h1.15l2.28-.1c.75,0,1.5.07,2.23.1a33.44,33.44,0,0,1,4.35.47,36,36,0,0,1,14.53,5.85,33.68,33.68,0,0,1,9.15,9.32,28.88,28.88,0,0,1,4.07,9c.17.65.35,1.27.47,1.86s.18,1.15.25,1.67.16,1,.22,1.39a6.75,6.75,0,0,1,0,1.19v1.63A2.9,2.9,0,0,1,403.48,277Z"/><path class="cls-6" d="M248.65,192.61c-11.35-.56-16.94,8-23.29,9.72s-13.27,2-19.37-.45c-7.91-3.22-13.31-10.51-20.24-15.49-13.88-10-34.5-9.41-47.8,1.39-.3,7.56,6.16,13.55,12.43,17.8s23.6,10.35,25.86,17.6c1.67,5.42-10,10-7.08,14.81s12.68,4.36,18.05,3.43c33.9-5.83,22,4.54,32.5,3.59,0,0,22-5.56,39.21-8.42"/><polyline class="cls-2" points="362.92 392.23 351.91 366.64 375.42 356.46 383.6 388.56 363.92 392.23"/><path class="cls-1" d="M383.58,384.4l6.94,22.42s25.09.53,26.77,4.56l-43,14.89L362.1,391.79Z"/><g class="cls-3"><path class="cls-4" d="M376.53,409.56A1.85,1.85,0,0,0,376,412a1.78,1.78,0,0,0,2.38.54A2,2,0,0,0,379,410a1.85,1.85,0,0,0-2.56-.29"/></g><g class="cls-3"><path class="cls-4" d="M374.25,426.27l-1.08-3.52,41.65-13s2.21.17,2.46,1.6Z"/></g><path class="cls-5" d="M391.09,406.36c0,.21-.95.67-1.75,1.7s-1,2.11-1.27,2.09-.32-1.38.66-2.56S391.07,406.16,391.09,406.36Z"/><path class="cls-5" d="M396.24,406.66c.12.19-.66.86-1.06,2s-.3,2.14-.5,2.21-.77-1.08-.24-2.48S396.18,406.46,396.24,406.66Z"/><path class="cls-5" d="M400.67,411.17c-.18.11-.83-.84-.69-2.18s1-2.13,1.11-2-.24,1-.33,2.07S400.88,411.07,400.67,411.17Z"/><path class="cls-5" d="M389,401.42c0,.22-1.09.26-2.25.76s-1.95,1.18-2.13,1.05.46-1.2,1.83-1.77S389,401.23,389,401.42Z"/><path class="cls-5" d="M387.48,396.92a4.12,4.12,0,0,1-2.16.74,10.92,10.92,0,0,1-2.49.1,11.85,11.85,0,0,1-1.45-.24,2.45,2.45,0,0,1-.84-.28,1,1,0,0,1-.48-1.08,1.25,1.25,0,0,1,.76-.81,3.39,3.39,0,0,1,.83-.16,9.39,9.39,0,0,1,1.5,0,8,8,0,0,1,2.45.61c1.38.58,1.93,1.25,1.87,1.32s-.79-.39-2.07-.81a8.48,8.48,0,0,0-2.29-.41,8.07,8.07,0,0,0-1.39,0c-.5,0-.89.16-.93.4s0,.12.14.23a2.12,2.12,0,0,0,.6.2,9.21,9.21,0,0,0,1.39.26,12.4,12.4,0,0,0,2.36.07A18.05,18.05,0,0,1,387.48,396.92Z"/><path class="cls-5" d="M387.32,397.33a4.62,4.62,0,0,1-1.29-1.89,7.18,7.18,0,0,1-.53-2.46,7.57,7.57,0,0,1,.1-1.5,1.81,1.81,0,0,1,1-1.55,1,1,0,0,1,1.09.27,3.2,3.2,0,0,1,.5.72,4.73,4.73,0,0,1,.5,1.39,5,5,0,0,1-.14,2.54,3.16,3.16,0,0,1-1.29,1.91c.29-.67.55-1.35.77-2a5.68,5.68,0,0,0,0-2.25,4.56,4.56,0,0,0-.48-1.24c-.22-.43-.52-.74-.68-.64a1.33,1.33,0,0,0-.5,1,8.19,8.19,0,0,0-.14,1.39,8.4,8.4,0,0,0,.34,2.29C386.91,396.55,387.41,397.26,387.32,397.33Z"/><path class="cls-5" d="M250.51,193.46s-20.37,40.33-6.68,49.78,77.62,57.5,77.62,57.5l32.62,87.09,30.54-12.5L359.16,273.4l-64.25-57.73Z"/><path class="cls-6" d="M328.94,284.76c.18.13-1.93,2.94-3.5,6.94s-2,7.45-2.22,7.43A21.86,21.86,0,0,1,328.94,284.76Z"/><path class="cls-6" d="M323.9,283.92c.2,0-.71,3.36-1,7.56s0,7.59-.18,7.62a20.29,20.29,0,0,1-.54-7.68A19.63,19.63,0,0,1,323.9,283.92Z"/><path class="cls-6" d="M357.15,386.52a1.69,1.69,0,0,1-.2-.43c-.14-.32-.3-.75-.52-1.3-.48-1.18-1.13-2.86-2-5-1.68-4.38-4.16-10.77-7.05-18.74s-6.43-17.54-10.08-28.34c-.91-2.69-1.82-5.48-2.71-8.33s-1.7-5.8-2.9-8.72c-2.33-5.79-5.12-11.65-8.17-17.59l.09.1c-3.43-2.9-7.05-5.94-10.77-9-2.9-2.39-5.78-4.73-8.68-6.94l-8.61-6.52c-5.63-4.29-11.1-8.42-16.39-12.18s-10.51-7.07-15.28-10.36a89.59,89.59,0,0,1-12.59-10.06,30.45,30.45,0,0,1-4.47-5.47,20.26,20.26,0,0,1-2.44-5.82,23.72,23.72,0,0,1-.13-10,35.72,35.72,0,0,1,1.78-6.09c.25-.68.49-1.18.62-1.53a4,4,0,0,1,.25-.51,1.34,1.34,0,0,1-.18.54,11.9,11.9,0,0,0-.55,1.54,39.07,39.07,0,0,0-1.64,6.11,23.79,23.79,0,0,0,.25,9.87,19.85,19.85,0,0,0,2.43,5.68,32,32,0,0,0,4.44,5.35,91.47,91.47,0,0,0,12.58,9.94c4.78,3.24,10,6.52,15.34,10.3s10.79,7.86,16.44,12.15l8.61,6.52c2.93,2.22,5.8,4.57,8.7,6.94,3.73,3.07,7.35,6.11,10.78,9h0v.07c3.05,6,5.84,11.84,8.18,17.67a90,90,0,0,1,2.88,8.73c.88,2.86,1.78,5.64,2.67,8.33,3.61,10.81,7,20.37,9.93,28.37l6.85,18.81c.8,2.18,1.39,3.89,1.85,5.08l.46,1.39A2.18,2.18,0,0,1,357.15,386.52Z"/><polygon class="cls-5" points="275.62 206.37 315 211.95 335.18 217.09 307.54 227 275.62 206.37"/><path class="cls-5" d="M227.42,203.52a4.63,4.63,0,0,1-.82.95,25.93,25.93,0,0,1-2.53,2.27,40.13,40.13,0,0,1-20.45,8.54,27.3,27.3,0,0,1-3.39.2,3.76,3.76,0,0,1-1.25-.09c0-.12,1.77-.18,4.57-.62a45.47,45.47,0,0,0,10.62-3,46.42,46.42,0,0,0,9.6-5.45C226,204.65,227.33,203.44,227.42,203.52Z"/><path class="cls-1" d="M255.69,145.88,248.09,203s25.24-1.66,43,4.26S319.87,213,319.87,213l-3.72-35.52,13.29-29.15,5.84,34.08,27.3,28.1,17.78-4-18.44-30.87-12.8-62.92h0a23.43,23.43,0,0,0-8.05-13.37l-.51-.42-26.8-14.94-9,.18a142.24,142.24,0,0,0-22.65,2.33A23,23,0,0,0,269.85,93h0a28.43,28.43,0,0,0-6.27,11.68Z"/><path class="cls-5" d="M340.81,122a10.94,10.94,0,0,1-.67,1.84l-2,4.89c-1.75,4.16-4.16,9.79-6.94,16l-7.11,16c-.89,1.93-1.64,3.54-2.2,4.81a14.19,14.19,0,0,1-.88,1.74,8,8,0,0,1,.61-1.85c.46-1.18,1.14-2.84,2-4.91,1.72-4.17,4.17-9.8,6.94-16.07s5.29-11.88,7.15-15.95l2.25-4.8A9,9,0,0,1,340.81,122Z"/><path class="cls-1" d="M265.07,112.05c5.22,14.56,15.27,47.78,20.16,60.59a23.39,23.39,0,0,0,7.27,9.9l54.15,38.31,12.5-16.26-40.59-39.15-21.88-64.83C293.6,92,280.81,87.27,272.87,91.9h0C266.85,95.46,262.72,105.39,265.07,112.05Z"/><path class="cls-5" d="M297.74,103.31s.15.37.42,1.11l1.16,3.3c1,2.93,2.47,7.17,4.32,12.57l15.27,45.05-.08-.12,40.65,39.11.22.22-.19.25-9,11.7c-1.21,1.56-2.4,3.13-3.51,4.57l-.21.28-.29-.21-41.57-29.95-9.32-6.7-2.23-1.61a20.9,20.9,0,0,1-2.17-1.71,21.16,21.16,0,0,1-3.44-4.17,23.51,23.51,0,0,1-2.26-4.65l-1.79-4.61c-1.14-3-2.22-5.91-3.22-8.7-4-11.11-6.95-20.19-8.92-26.46-1-3.13-1.72-5.56-2.25-7.24-.23-.8-.43-1.39-.55-1.89a4.77,4.77,0,0,1-.17-.65l.24.64c.15.43.34,1.07.62,1.86.54,1.67,1.39,4.08,2.38,7.19,2.06,6.25,5.06,15.27,9.12,26.38,1,2.78,2.11,5.67,3.26,8.68.6,1.5,1.19,3,1.81,4.59a22.51,22.51,0,0,0,2.23,4.54,20.79,20.79,0,0,0,3.36,4,16.66,16.66,0,0,0,2.11,1.65L296,184l9.34,6.73L347,220.57h-.48L350,216l9-11.69v.47l-40.57-39.09h0v-.07c-6.25-18.7-11.43-34.24-15.06-45.14l-4.17-12.62-1.07-3.32C297.84,103.7,297.74,103.31,297.74,103.31Z"/><path class="cls-5" d="M292.56,95.39c-.08.09-1-.86-2.78-2a15.65,15.65,0,0,0-15.39-.74c-1.86.92-2.85,1.78-2.93,1.68a8,8,0,0,1,2.69-2.14,14.93,14.93,0,0,1,15.91.77A8,8,0,0,1,292.56,95.39Z"/><path class="cls-5" d="M363.12,176.43c0,.23-2.57,0-5.56.7s-5.13,2.11-5.26,1.91a9.75,9.75,0,0,1,5.1-2.62A9.62,9.62,0,0,1,363.12,176.43Z"/><path class="cls-7" d="M272.19,133.94a2.37,2.37,0,0,1-.54.13,12.34,12.34,0,0,1-1.5.24,15,15,0,0,1-5-.32,14.8,14.8,0,0,1-5.77-3,2.47,2.47,0,0,1-.4-.39,20.28,20.28,0,0,0,6.24,3.11A21.75,21.75,0,0,0,272.19,133.94Z"/><path class="cls-7" d="M276.41,146.32a25.27,25.27,0,0,0-2.56-1.51,19.27,19.27,0,0,0-7-1.77,43.28,43.28,0,0,0-7.2.16l-2.18.2a5.47,5.47,0,0,1-.81,0,5.49,5.49,0,0,1,.79-.15c.52-.08,1.25-.18,2.18-.29a37.28,37.28,0,0,1,7.24-.25,18.47,18.47,0,0,1,6.94,1.87,13.83,13.83,0,0,1,1.86,1.17A3.18,3.18,0,0,1,276.41,146.32Z"/><g class="cls-8"><path d="M269.42,125.29s1.38,21.71,3,31.75,4.79,20.25,12,27.43S301.93,194.9,312,197c-3.25-2.45-6.41-5-9.54-7.55-4-3.34-9.9-6.6-13.13-10.71-6.22-7.9-7.57-17.88-10.78-27.41-2.94-8.8-6.15-17.17-9.1-26"/></g><path class="cls-7" d="M307.12,133.76a4.26,4.26,0,0,1-1.13.56,9.16,9.16,0,0,1-3.47.53c-3,0-6.95-1.39-11.45-1a24.42,24.42,0,0,0-10.81,3.47,26.55,26.55,0,0,0-2.85,2l-.72.61c-.17.14-.26.21-.26.19a17.52,17.52,0,0,1,3.72-3,24.08,24.08,0,0,1,10.91-3.59c4.55-.43,8.54,1.06,11.46,1.07a9.68,9.68,0,0,0,3.42-.41A4.28,4.28,0,0,0,307.12,133.76Z"/><path class="cls-7" d="M303.1,123.27a1.67,1.67,0,0,1-.28.18l-.79.46c-.7.4-1.72.93-3,1.54a54.69,54.69,0,0,1-21.62,5.14H274c.79,0,2,0,3.38-.07a58.49,58.49,0,0,0,11-1.53,61.05,61.05,0,0,0,10.53-3.58c1.29-.58,2.34-1.1,3-1.39l.82-.41C303,123.3,303.08,123.26,303.1,123.27Z"/><path class="cls-7" d="M333.85,134.66l-.37-.09a10.17,10.17,0,0,1-1.06-.36A12,12,0,0,1,329,132c-2.63-2.24-5.06-6.47-9.16-9.71A30.75,30.75,0,0,0,304,115.71l-1.09-.11a1.21,1.21,0,0,1-.38,0,22.67,22.67,0,0,1,5.56.66,30.28,30.28,0,0,1,12,5.83,34,34,0,0,1,5.15,5.31,42.34,42.34,0,0,0,4,4.49,12.44,12.44,0,0,0,3.31,2.3C333.34,134.52,333.86,134.62,333.85,134.66Z"/><path class="cls-7" d="M332.23,141.28a11.22,11.22,0,0,1-1.17-.33,10.9,10.9,0,0,1-2.78-1.71,28,28,0,0,1-3.4-3.49,32.7,32.7,0,0,0-4.16-4.16,11,11,0,0,0-5.35-2.29,20.28,20.28,0,0,0-4.8-.1c-1.39.13-2.49.29-3.25.39l-.89.13h-.31a.86.86,0,0,1,.3-.09l.87-.18c.76-.14,1.88-.33,3.25-.47a18.9,18.9,0,0,1,4.87,0,11.15,11.15,0,0,1,5.56,2.33,30.6,30.6,0,0,1,4.16,4.28,35.51,35.51,0,0,0,3.33,3.5,11.84,11.84,0,0,0,2.78,1.75C331.82,141.13,332.23,141.25,332.23,141.28Z"/><path class="cls-7" d="M353.5,136.81a9.48,9.48,0,0,0-3.09-.31,12.86,12.86,0,0,0-3.29.74c-1.19.42-2.47,1-3.81,1.64a21.3,21.3,0,0,1-3.95,1.39,9.88,9.88,0,0,1-3.43.18,6.54,6.54,0,0,1-2.2-.72,3.46,3.46,0,0,1-.63-.42,7.2,7.2,0,0,0,2.92,1,9.84,9.84,0,0,0,3.33-.24,20.73,20.73,0,0,0,3.89-1.39c1.38-.61,2.63-1.2,3.86-1.62a12.79,12.79,0,0,1,3.36-.69,7.14,7.14,0,0,1,2.3.22A3.3,3.3,0,0,1,353.5,136.81Z"/><path class="cls-7" d="M355.69,144.36a7,7,0,0,0-3.83-1.39,10.36,10.36,0,0,0-4.36.8,24.18,24.18,0,0,0-4.74,2.77,32.11,32.11,0,0,1-4.7,2.93,11.94,11.94,0,0,1-4.38,1.18,7.52,7.52,0,0,1-3-.44,4.79,4.79,0,0,1-1-.53,7.67,7.67,0,0,0,4,.76,12.06,12.06,0,0,0,4.28-1.2,37.45,37.45,0,0,0,4.65-2.93,24.19,24.19,0,0,1,4.8-2.78,10.51,10.51,0,0,1,4.47-.75,6.72,6.72,0,0,1,2.93.86A4.13,4.13,0,0,1,355.69,144.36Z"/><g class="cls-8"><path d="M332.6,166.72c2.78-11.38,3.39-23.69,3.79-35.39-1,4.09-3.5,7.63-5.05,11.56-.75,1.86-1.93,5.25-1.93,5.25l3.14,18.3"/></g><path class="cls-5" d="M314.27,33a5.72,5.72,0,0,1-3.84,4.61c-1.14.37-2.39.37-3.51.8a2.64,2.64,0,0,0-1.92,2.7c.19.89,1,1.45,1.68,2s1.28,1.54.89,2.35-1.71,1-2.38,1.71a2.3,2.3,0,0,0,.16,2.87A10.44,10.44,0,0,0,307.8,52a4.08,4.08,0,0,1,1.89,2.4"/><path class="cls-5" d="M355.45,51c3.06-6.45.84-14.49-3.93-19.82s-11.59-8.33-18.45-10.32c-1-.28-2.2-.48-2.9.28a2,2,0,0,0,.18,2.47A5.54,5.54,0,0,0,332.66,25a21.5,21.5,0,0,0-8.94-2.43,5.78,5.78,0,0,0-3.16.67A2.59,2.59,0,0,0,319.33,26a1.71,1.71,0,0,0,2.14,1.12,1.61,1.61,0,0,0,.52-.27,13.13,13.13,0,0,0-8.48,2c-1.78,1.13-3.4,3.11-3,5.17a32.22,32.22,0,0,0,1.55,3.38c.74,2.15-.33,4.45-1.15,6.56a20.42,20.42,0,0,0-1.39,10.39A12.06,12.06,0,0,0,315.11,63"/><path class="cls-2" d="M312.87,105.43A14.22,14.22,0,0,1,302.82,88a3.37,3.37,0,0,1,.1-.34l12.74-43.16a20.39,20.39,0,0,1,24.95-14.44l.56.16,1,.36A20.55,20.55,0,0,1,355,55.3c-2.63,9.59-5.65,20.17-7.53,25.16-3.87,10.31-14.81,8.17-14.81,8.17L330,96.37A14.19,14.19,0,0,1,312.87,105.43Z"/><path class="cls-9" d="M332.73,88.49a25.6,25.6,0,0,1-12.12-8.71s.5,8.6,11.1,11.41Z"/><path class="cls-5" d="M330.77,36.57c-.85-1.86-1.92-5.92-3.36-7.37s-3.79-1-5.76-.42A6.69,6.69,0,0,0,317.22,33c-2.78,7.45-3.06,14.5-5.08,21.83a2.65,2.65,0,0,0-.13,1.5c.39,1.24,1.75,1.68,3,1.88,3.18.46,4.81-1.86,6.31-4.65a35,35,0,0,0,1.11-5.17,14,14,0,0,1,7.85-11.59Z"/><path class="cls-2" d="M317.45,50.45c-.13-.14-6.35-4.68-8.69,2.49s5.35,8,5.43,7.83S317.45,50.45,317.45,50.45Z"/><path class="cls-9" d="M312.89,57.39a1.34,1.34,0,0,0-.41.09,1.39,1.39,0,0,1-.94-.29A3.23,3.23,0,0,1,311,54a4.42,4.42,0,0,1,.93-1.68,1.51,1.51,0,0,1,1.25-.65.7.7,0,0,1,.62.58v.39s.19-.07.24-.39a.93.93,0,0,0-.14-.54,1,1,0,0,0-.64-.4,1.88,1.88,0,0,0-1.67.69,4.61,4.61,0,0,0-1.08,1.85,3.43,3.43,0,0,0,.82,3.69,1.36,1.36,0,0,0,1.19.18C312.82,57.52,312.9,57.39,312.89,57.39Z"/><path class="cls-5" d="M328,38.11c3.52-2.42,7.16-1.22,9.59.19s4.48,3.42,6.94,4.71,5.75,1.74,8,0a7.62,7.62,0,0,0,2.54-5.55,15.17,15.17,0,0,0-3.64-11.11c-.68-.79-1.73-1.55-2.69-1.14-1.18.53-1,2.25-.61,3.49,0,0-12.05-4.46-19.44-1.89S328,38.11,328,38.11Z"/><path class="cls-6" d="M332.53,20.71a10.44,10.44,0,0,0,.52,1.39,10.89,10.89,0,0,0,2.29,3.21,18.21,18.21,0,0,0,4.8,3.36,15.25,15.25,0,0,0,3.28,1.1c1.18.26,2.44.44,3.72.79a8.51,8.51,0,0,1,3.48,1.76,7.68,7.68,0,0,1,2.1,3,6.8,6.8,0,0,1,.43,3.28,6.07,6.07,0,0,1-1,2.66,6.24,6.24,0,0,1-3.26,2.45,4.19,4.19,0,0,1-1.11.16h-.39a3.87,3.87,0,0,0,1.39-.37,6.29,6.29,0,0,0,3-2.44,6.06,6.06,0,0,0,.89-2.5,6.24,6.24,0,0,0-.46-3,7.16,7.16,0,0,0-2-2.78A8.2,8.2,0,0,0,347,31.17c-1.22-.34-2.48-.53-3.69-.81a14.66,14.66,0,0,1-3.39-1.18A17.25,17.25,0,0,1,335,25.61a10,10,0,0,1-2.19-3.42,5.11,5.11,0,0,1-.27-1.09A1.26,1.26,0,0,1,332.53,20.71Z"/><path class="cls-6" d="M324.58,22.88s.18.53.58,1.39a10.74,10.74,0,0,0,2.47,3.29,15,15,0,0,0,5.32,3,49.47,49.47,0,0,0,7.41,1.72,28.36,28.36,0,0,1,7.43,2.14,5.14,5.14,0,0,1,2.43,2.46,4.92,4.92,0,0,1,.17,3,6,6,0,0,1-2.57,3.4,5.33,5.33,0,0,1-1,.54,1.06,1.06,0,0,1-.39.13,13.25,13.25,0,0,0,1.28-.88,5.78,5.78,0,0,0,2.26-3.29,4.39,4.39,0,0,0-.18-2.68A4.59,4.59,0,0,0,347.54,35a28.78,28.78,0,0,0-7.27-2,47,47,0,0,1-7.49-1.81,14.84,14.84,0,0,1-5.43-3.22A10.11,10.11,0,0,1,325,24.39a5.41,5.41,0,0,1-.32-1.11A.79.79,0,0,1,324.58,22.88Z"/><path class="cls-5" d="M348.08,60.28A1.7,1.7,0,0,1,346,61.37a1.62,1.62,0,0,1-1.18-2,.14.14,0,0,1,0-.06,1.72,1.72,0,0,1,2.12-1.1,1.64,1.64,0,0,1,1.16,2Z"/><path class="cls-5" d="M351.15,59.37c-.28.13-1.18-1.18-2.93-1.78s-3.3-.18-3.41-.46.26-.43,1-.64a4.68,4.68,0,0,1,5.06,1.78C351.25,58.87,351.29,59.31,351.15,59.37Z"/><path class="cls-5" d="M330.92,55.34a1.7,1.7,0,0,1-2.12,1.08,1.63,1.63,0,0,1-1.17-2v0a1.71,1.71,0,0,1,2.12-1.1,1.63,1.63,0,0,1,1.17,2Z"/><path class="cls-5" d="M334,53.76c-.28.15-1.18-1.18-2.92-1.78s-3.32-.18-3.43-.46.28-.43,1-.64a4.71,4.71,0,0,1,2.78.1,4.5,4.5,0,0,1,2.23,1.68C334.06,53.23,334.1,53.7,334,53.76Z"/><path class="cls-5" d="M325.63,56c.29,0,1,.85,2.59,1.58s3.18,1,3.25,1.13-.32.12-1,0a9.71,9.71,0,0,1-2.66-.78,5.68,5.68,0,0,1-2-1.36C325.49,56.25,325.51,56,325.63,56Z"/><path class="cls-5" d="M342.91,60.73c.29,0,1,.84,2.59,1.57s3.18,1,3.25,1.13-.32.12-1,0a9.71,9.71,0,0,1-2.66-.78,5.81,5.81,0,0,1-1.95-1.35C342.77,60.94,342.78,60.72,342.91,60.73Z"/><path class="cls-5" d="M335.88,68.83a12.77,12.77,0,0,1,3,.48c.45.11.9.16,1.08-.11a2.46,2.46,0,0,0,.17-1.39c0-1.22-.1-2.5-.14-3.83a60.1,60.1,0,0,1,.12-9.86,63.57,63.57,0,0,1,.67,9.84v3.83a2.64,2.64,0,0,1-.38,1.82,1.15,1.15,0,0,1-.94.4,2.84,2.84,0,0,1-.81-.12A12.09,12.09,0,0,1,335.88,68.83Z"/><path class="cls-5" d="M333.09,76.28c-.28,0,.38-2-.78-3.86s-3.23-2.39-3.15-2.67.57-.2,1.39,0a5,5,0,0,1,2.67,2.12,4.3,4.3,0,0,1,.54,3.19C333.63,76,333.27,76.34,333.09,76.28Z"/><path class="cls-5" d="M336.79,47.11c-.34.41-2-.41-4.16-.88s-4-.47-4.08-1c0-.25.39-.6,1.21-.82A7.23,7.23,0,0,1,336,45.82C336.7,46.41,337,46.91,336.79,47.11Z"/><path class="cls-5" d="M352.27,54.12c-.44.29-1.49-.53-2.92-1.06s-2.78-.65-2.89-1.16c0-.24.27-.57.93-.77a4.57,4.57,0,0,1,4.69,1.79C352.44,53.51,352.54,54,352.27,54.12Z"/><path class="cls-6" d="M319.55,208.16A6.93,6.93,0,0,1,324,216l-9.38,3.71-2.14-9Z"/><path class="cls-6" d="M240.77,208.13s18.79-1.94,30.55,2.21,26.47,7.25,33,5.79a16.54,16.54,0,0,0,8.84-5.56s-18.71-2.24-27.53-5.09c-5.93-1.92-17.65-15.2-39.33-12Z"/><path class="cls-6" d="M316,214.93a12.76,12.76,0,0,0-3-4.54l.17.23a29.38,29.38,0,0,0-5.83.84,9.72,9.72,0,0,0-4.93,3.06,2.58,2.58,0,0,0-.7,1.75,3.11,3.11,0,0,0,1.48,2,17.45,17.45,0,0,0,5.9,3.52,6,6,0,0,0,6.3-1.63A5.71,5.71,0,0,0,316,214.93Z"/><path class="cls-5" d="M302.4,214.28a2.64,2.64,0,0,1,.6-1.07,6.28,6.28,0,0,1,2.78-1.76,10.48,10.48,0,0,1,4.91-.42,7.22,7.22,0,0,1,5,3.25,5.22,5.22,0,0,1,.79,3.06,5.29,5.29,0,0,1-1,2.77,4.61,4.61,0,0,1-2.15,1.57A5.66,5.66,0,0,1,311,222a11.27,11.27,0,0,1-3.23-.81,8.64,8.64,0,0,1-.83-.36.76.76,0,0,1-.28-.15l.3.1.85.3a11.4,11.4,0,0,0,3.21.71,4.71,4.71,0,0,0,4.16-1.79,4.83,4.83,0,0,0,.23-5.55,6.94,6.94,0,0,0-4.81-3.13,10.41,10.41,0,0,0-4.8.35,6.45,6.45,0,0,0-2.78,1.64A6,6,0,0,0,302.4,214.28Z"/><path class="cls-7" d="M306.37,214.59a9.48,9.48,0,0,0-1.11-1,9.93,9.93,0,0,0-1.38-.7,3.66,3.66,0,0,1,2.43,1.68Z"/><path class="cls-7" d="M309.42,214.73s-.44-.43-1-.92-1.09-.81-1.08-.83a3.41,3.41,0,0,1,1.18.72A3.63,3.63,0,0,1,309.42,214.73Z"/><path class="cls-7" d="M310.65,221.22s-.07-.32-.22-.82a7.63,7.63,0,0,0-.86-1.8,7.18,7.18,0,0,0-1.39-1.47c-.4-.34-.68-.5-.67-.52a4.93,4.93,0,0,1,.74.43,6.35,6.35,0,0,1,1.39,1.49,5.94,5.94,0,0,1,.83,1.85A4.06,4.06,0,0,1,310.65,221.22Z"/><path class="cls-7" d="M313.73,218.79c0-.26,0-.53,0-.8a9.6,9.6,0,0,0-.14-1.93,8.7,8.7,0,0,0-.54-1.85,7.81,7.81,0,0,1-.3-.75s0,0,.12.18a5.36,5.36,0,0,1,.28.53,7.79,7.79,0,0,1,.58,1.87,7.52,7.52,0,0,1,.1,2q0,.3,0,.6A1.24,1.24,0,0,1,313.73,218.79Z"/><path class="cls-5" d="M313.75,213a16.48,16.48,0,0,0-7.67,5.45,4.65,4.65,0,0,1,.78-1.18,12.62,12.62,0,0,1,5.55-3.92A4.82,4.82,0,0,1,313.75,213Z"/><path class="cls-5" d="M309.1,211.5a9.67,9.67,0,0,0-2.57,2.91,9.88,9.88,0,0,0-1,3.73,3.29,3.29,0,0,1,0-1.17,6.77,6.77,0,0,1,.81-2.7,7.21,7.21,0,0,1,1.82-2.18A2.8,2.8,0,0,1,309.1,211.5Z"/><path class="cls-5" d="M314.25,221.22a7,7,0,0,0-.36-1.12,6.22,6.22,0,0,0-1.66-2.24c-1.69-1.38-3.4-2.15-3.33-2.26a5.57,5.57,0,0,1,1.1.46,11.39,11.39,0,0,1,2.43,1.58,5.85,5.85,0,0,1,1.65,2.39A2.44,2.44,0,0,1,314.25,221.22Z"/><path class="cls-5" d="M274.79,211.3a9.59,9.59,0,0,1-1.85-.35c-1.18-.26-2.87-.64-5-1A116.65,116.65,0,0,0,251.3,208a30.65,30.65,0,0,0-9.11.74,18.87,18.87,0,0,0-6.64,3.29,25.65,25.65,0,0,0-4.72,5,6.84,6.84,0,0,1,.92-1.65,17.92,17.92,0,0,1,3.48-3.79,18.54,18.54,0,0,1,6.79-3.53,30.38,30.38,0,0,1,9.31-.82,97.47,97.47,0,0,1,16.75,2.17c2.11.47,3.81.93,5,1.28A7.9,7.9,0,0,1,274.79,211.3Z"/><path class="cls-5" d="M136.77,192.47a6.35,6.35,0,0,1,1-.75,16.63,16.63,0,0,1,3-1.67,20.06,20.06,0,0,1,12.59-1,18.8,18.8,0,0,1,7.85,4.06,40,40,0,0,1,6.59,7.69,106.55,106.55,0,0,0,6.64,8.9,80.24,80.24,0,0,0,8.33,8.47c6.13,5.34,12.77,9.72,19.43,11.85a30.86,30.86,0,0,0,9.81,1.63,15.33,15.33,0,0,0,8.26-2,19.73,19.73,0,0,0,5.16-4.9c1.29-1.68,2.31-3.23,3.14-4.47l1.9-2.89a7.68,7.68,0,0,1,.7-1,6.19,6.19,0,0,1-.59,1.07l-1.77,3c-.8,1.28-1.78,2.77-3.06,4.55a19.56,19.56,0,0,1-5.2,5.1,15.91,15.91,0,0,1-8.54,2.22,30.94,30.94,0,0,1-10-1.6c-6.85-2.19-13.57-6.55-19.76-11.94a79,79,0,0,1-8.41-8.56,103.63,103.63,0,0,1-6.64-9,41.15,41.15,0,0,0-6.44-7.62,18.44,18.44,0,0,0-7.58-4,20.11,20.11,0,0,0-12.36.74A27,27,0,0,0,136.77,192.47Z"/><path class="cls-7" d="M171.35,180.15h-1c-.64,0-1.54.09-2.66.21a35,35,0,0,0-16.25,6.26c-.9.66-1.62,1.23-2.11,1.63l-.75.62a25.79,25.79,0,0,1,2.78-2.33,33.48,33.48,0,0,1,16.29-6.27A28.14,28.14,0,0,1,171.35,180.15Z"/><path class="cls-7" d="M193.64,193.65l-1,.14c-.66.08-1.61.23-2.77.47a37.69,37.69,0,0,0-16.51,7.93c-.9.75-1.61,1.39-2.08,1.86l-.75.71a27.73,27.73,0,0,1,2.77-2.65,37.09,37.09,0,0,1,7.77-5,36.66,36.66,0,0,1,8.78-2.91A30.58,30.58,0,0,1,193.64,193.65Z"/><path class="cls-7" d="M193,225.26a9.6,9.6,0,0,1-.2-1.07,15.2,15.2,0,0,1-.09-2.94,21.9,21.9,0,0,1,2.77-9.26,46,46,0,0,1,5.76-7.83c1.66-1.87,2.78-3,2.78-3l-.71.82-1.94,2.21a47.6,47.6,0,0,0-5.68,7.84,22.46,22.46,0,0,0-2.87,9.19,16,16,0,0,0,0,2.94,7.29,7.29,0,0,0,.09.8Z"/><path class="cls-7" d="M217.39,211.27a6.77,6.77,0,0,1-.37-1.07,12,12,0,0,1-.1-5.42,6.51,6.51,0,0,1,.33-1.06s-.09.41-.23,1.09a13.08,13.08,0,0,0,.11,5.36C217.28,210.85,217.41,211.25,217.39,211.27Z"/><path class="cls-7" d="M221.67,228.17a18.14,18.14,0,0,1-2.22-1.67,21.6,21.6,0,0,1-6.94-11.27,16.46,16.46,0,0,1-.46-2.78,2.86,2.86,0,0,0,.14.73c.14.48.21,1.16.41,2a22.62,22.62,0,0,0,6.88,11.23c.5.45,1,.88,1.56,1.28Z"/><path class="cls-7" d="M240.4,209s-.71-.32-1.81-1a35,35,0,0,1-4.05-2.78,35.73,35.73,0,0,1-3.64-3.32c-.86-.91-1.39-1.54-1.39-1.54l.39.39,1,1.09a41.82,41.82,0,0,0,3.64,3.27,44.21,44.21,0,0,0,4,2.78l1.3.76Z"/><path class="cls-7" d="M253.71,207.13v-.54a11.89,11.89,0,0,0-.07-1.5,41.68,41.68,0,0,0-.44-4.9c-.25-1.9-.6-3.62-.87-4.85l-.34-1.45c-.08-.35-.11-.55-.11-.55a1.34,1.34,0,0,0,.17.53,12.74,12.74,0,0,1,.39,1.39c.29,1.22.63,2.94.9,4.86a47.55,47.55,0,0,1,.4,4.91v1.5A5.13,5.13,0,0,1,253.71,207.13Z"/><path class="cls-7" d="M271,197.62a1.77,1.77,0,0,1,0,.46c0,.43-.08.83-.11,1.22-.13,1-.34,2.47-.65,4s-.7,2.95-1,3.95c-.13.38-.25.77-.38,1.18s-.17.42-.17.42a2.2,2.2,0,0,1,.12-.44c.11-.41.22-.81.33-1.18.28-1,.64-2.41,1-4s.54-3,.69-4a11.26,11.26,0,0,1,.15-1.22Z"/><path class="cls-7" d="M282.77,209.1a19.08,19.08,0,0,1,.4-2.26,15.58,15.58,0,0,1,.55-2.24,21.57,21.57,0,0,1-.41,2.27A17.24,17.24,0,0,1,282.77,209.1Z"/><path class="cls-7" d="M302.24,215.56a5.54,5.54,0,0,1,.11-.93,14.83,14.83,0,0,0,.12-2.28v-3a1,1,0,0,1,0-.25,7.47,7.47,0,0,1,.09.94v2.3a21.48,21.48,0,0,1-.18,2.27A5.68,5.68,0,0,1,302.24,215.56Z"/><path class="cls-6" d="M306,220.08c-1.5-6-7.7-9.92-13.88-10.89s-12.41.29-18.59,1.08-12.78,1-18.31-1.89A21.39,21.39,0,0,0,252.62,219h3.25c.68,4.69,5,8.33,9.59,9.29s7.68,1,12-.85c4.55-2,10.45-5,14.92-6.58s9.42-2.34,13.89-.87"/><path class="cls-5" d="M258.42,209.82a8.9,8.9,0,0,1-.56,1.31,27.44,27.44,0,0,0-1.12,3.15,22.35,22.35,0,0,0-.68,3.33,10.74,10.74,0,0,1-.15,1.39,4.63,4.63,0,0,1,0-1.39,15.55,15.55,0,0,1,.59-3.38,18.37,18.37,0,0,1,1.24-3.21A5.09,5.09,0,0,1,258.42,209.82Z"/><path class="cls-5" d="M256.13,216.36a8.18,8.18,0,0,1-1.71-.15,9.1,9.1,0,0,1-1.72-.22,4,4,0,0,1,1.75,0A4.07,4.07,0,0,1,256.13,216.36Z"/><path class="cls-5" d="M256.82,212.62a9.45,9.45,0,0,0-1.48-.7c-.85-.3-1.58-.32-1.58-.4A3.24,3.24,0,0,1,256.82,212.62Z"/><path class="cls-5" d="M263.28,210.63H267a55.61,55.61,0,0,0,10.13-1,43.12,43.12,0,0,1,15.28-.42,20.59,20.59,0,0,1,8.41,3.38,15.36,15.36,0,0,1,5.77,7.84l.09.31-.29-.14a11.67,11.67,0,0,0-4.17-1.14,26.5,26.5,0,0,0-10.3,1.84,90.22,90.22,0,0,0-9.12,3.71c-1.39.67-2.78,1.39-4.17,1.92a24.55,24.55,0,0,1-4.08,1.48,20.34,20.34,0,0,1-7.77.31,14.66,14.66,0,0,1-6-2.26,11.73,11.73,0,0,1-3.34-3.5,11.36,11.36,0,0,1-1.24-2.78c-.18-.68-.24-1-.24-1a13.81,13.81,0,0,0,1.57,3.79,11.58,11.58,0,0,0,3.35,3.41,14.24,14.24,0,0,0,5.93,2.21,20.27,20.27,0,0,0,7.68-.34,23.31,23.31,0,0,0,4-1.49c1.38-.6,2.77-1.25,4.16-1.92a88.72,88.72,0,0,1,9.15-3.75,27.22,27.22,0,0,1,10.41-1.86,12.39,12.39,0,0,1,4.31,1.17l-.2.17a15.1,15.1,0,0,0-5.66-7.69,20.4,20.4,0,0,0-8.33-3.35,43.33,43.33,0,0,0-15.15.36,51.72,51.72,0,0,1-10.16.94C264.6,210.73,263.28,210.63,263.28,210.63Z"/><path class="cls-7" d="M263.06,227.53a3.81,3.81,0,0,1-.24-.64,16.1,16.1,0,0,1-.47-1.78,22.33,22.33,0,0,1,.85-12,16.68,16.68,0,0,1,.7-1.69,2.73,2.73,0,0,1,.34-.6s-.38.9-.85,2.36a24.69,24.69,0,0,0-1.17,5.9,25.12,25.12,0,0,0,.34,6C262.82,226.6,263.11,227.51,263.06,227.53Z"/><path class="cls-7" d="M275.08,219.35a6.53,6.53,0,0,1,.22,1.17c.11.72.32,1.7.6,2.77.57,2.15,1.12,3.89,1,3.92a5,5,0,0,1-.46-1.1,27.52,27.52,0,0,1-.86-2.78,18.79,18.79,0,0,1-.53-2.77A3.78,3.78,0,0,1,275.08,219.35Z"/><path class="cls-7" d="M273.4,214.64a21.45,21.45,0,0,1,.15,2.27c.1,1.23.31,2.22.23,2.24a8.35,8.35,0,0,1-.38-4.51Z"/><path class="cls-7" d="M276.34,209.8c.09,0-.29.93-.5,2.08s-.19,2.12-.27,2.12a4.47,4.47,0,0,1,0-2.18A4.35,4.35,0,0,1,276.34,209.8Z"/><path class="cls-7" d="M285.9,212.49a3.81,3.81,0,0,1-.85-3.5c.1,0,0,.83.26,1.79A15.33,15.33,0,0,1,285.9,212.49Z"/><path class="cls-7" d="M293.39,220.29a6.06,6.06,0,0,1-.79-1.09,20.06,20.06,0,0,1-1.51-2.91A22.08,22.08,0,0,1,290,213.2a5.94,5.94,0,0,1-.23-1.39,8,8,0,0,1,.43,1.28c.25.79.62,1.87,1.12,3s1,2.18,1.39,2.91A6.75,6.75,0,0,1,293.39,220.29Z"/><path class="cls-7" d="M295.48,210.21a3.53,3.53,0,0,1-.43.63c-.24.32-.38.61-.46.58s0-.39.22-.76S295.43,210.12,295.48,210.21Z"/><path class="cls-7" d="M306.46,220.56a4.55,4.55,0,0,1-.4-.35,11.33,11.33,0,0,0-6.46-2.78,19.28,19.28,0,0,0-8.19.89,92.09,92.09,0,0,0-9.43,3.89,30.53,30.53,0,0,1-9.72,2.78,23.87,23.87,0,0,1-8.33-.73,23.25,23.25,0,0,1-5.22-2.06,15.25,15.25,0,0,1-1.3-.8l-.45-.29.46.28c.29.18.74.44,1.32.75a24.33,24.33,0,0,0,13.47,2.78,30.61,30.61,0,0,0,9.72-2.78,86.29,86.29,0,0,1,9.44-3.89,19,19,0,0,1,8.24-.87,12.79,12.79,0,0,1,5.27,1.91A9.16,9.16,0,0,1,306.46,220.56Z"/><path class="cls-7" d="M283.3,214l-1,.43c-.63.26-1.55.62-2.77,1a28.54,28.54,0,0,1-9.47,1.56,34.6,34.6,0,0,1-9.47-1.59c-2.36-.68-3.8-1.2-3.8-1.2l1,.3,2.77.8a36.06,36.06,0,0,0,9.44,1.56,29.5,29.5,0,0,0,9.45-1.53c1.16-.39,2.09-.72,2.77-1Z"/><path class="cls-7" d="M297.39,212.55l-.35-.23a8.71,8.71,0,0,0-1-.58,14,14,0,0,0-4-1.39,21.78,21.78,0,0,0-6.19-.23c-2.35.22-4.89.75-7.57,1.25a41.22,41.22,0,0,1-13.88.38c-3.56-.5-5.7-1-5.7-1l1.53.28c1,.18,2.4.43,4.17.65a41.48,41.48,0,0,0,13.88-.41c2.68-.5,5.23-1,7.59-1.25a21.27,21.27,0,0,1,6.27.23,13.31,13.31,0,0,1,4,1.39A9.38,9.38,0,0,1,297.39,212.55Z"/><path class="cls-5" d="M306.14,219.83a24.32,24.32,0,0,0-3.82-4.16,15.77,15.77,0,0,0-5.34-2.86,16,16,0,0,0-7.38-.47,20.58,20.58,0,0,0-6.94,2.77c-2,1.17-3.8,2.31-5.43,3.07a14.25,14.25,0,0,1-4,1.39,6.29,6.29,0,0,1-1.14.11h-.4a20.24,20.24,0,0,0,5.33-1.87c1.56-.81,3.31-2,5.32-3.18a20.2,20.2,0,0,1,7.12-2.92,15.94,15.94,0,0,1,13.18,3.64,16.2,16.2,0,0,1,2.77,3.19A5.2,5.2,0,0,1,306.14,219.83Z"/><path class="cls-5" d="M286.85,212.75A29.41,29.41,0,0,1,269.74,214c0-.21,3.87.29,8.59,0S286.8,212.55,286.85,212.75Z"/><path class="cls-7" d="M280,208.49l-1.55-.66c-1-.43-2.56-1.06-4.54-1.78a57.73,57.73,0,0,0-17.47-3.63A37.76,37.76,0,0,0,244.24,204a29.19,29.19,0,0,0-12.12,7.09c-3.61,3.46-6.63,7.83-10.78,11.4a18,18,0,0,1-7.31,3.87,15.75,15.75,0,0,1-8.47-.5,23.33,23.33,0,0,1-7.44-4.16,36.63,36.63,0,0,1-5.7-6c-3.34-4.32-6-8.87-9-12.86a64,64,0,0,0-9.61-10.4,39.11,39.11,0,0,0-10.46-6.48,29.46,29.46,0,0,0-17.54-1.75,24.24,24.24,0,0,0-4.61,1.54l-1.53.77,1.52-.8a23.4,23.4,0,0,1,4.61-1.56,29.46,29.46,0,0,1,17.59,1.7,38.84,38.84,0,0,1,10.49,6.5,62.25,62.25,0,0,1,9.72,10.41c3,4,5.69,8.54,9,12.85a36.72,36.72,0,0,0,5.68,6,22.79,22.79,0,0,0,7.41,4.16,15.63,15.63,0,0,0,8.33.5,17.82,17.82,0,0,0,7.23-3.84c4.17-3.54,7.17-7.92,10.8-11.39a29.18,29.18,0,0,1,12.17-7.11,37.52,37.52,0,0,1,12.24-1.56A57.19,57.19,0,0,1,273.9,206C277.87,207.46,280,208.49,280,208.49Z"/><path class="cls-7" d="M211.85,212.55a8.94,8.94,0,0,1-2.19-.09,13.53,13.53,0,0,1-5.55-2.27A25.58,25.58,0,0,1,198,203.8a106,106,0,0,0-6.45-8.75,53.8,53.8,0,0,0-15.35-12.22,55.5,55.5,0,0,0-5.44-2.49l-2-.77s.75.24,2.08.72a52.52,52.52,0,0,1,5.46,2.48A53.22,53.22,0,0,1,191.68,195a102.15,102.15,0,0,1,6.44,8.76,25.56,25.56,0,0,0,6.1,6.39,13.78,13.78,0,0,0,5.45,2.3,12.65,12.65,0,0,0,1.61.14Z"/><path class="cls-7" d="M275.77,200.81l-.43-.23c-.26-.15-.66-.4-1.19-.68a40.53,40.53,0,0,0-37.22-1.18,39.24,39.24,0,0,0-4.44,2.47c-.52.32-.89.6-1.17.76l-.4.27s.52-.41,1.52-1.07a40.1,40.1,0,0,1,37.16-3.54,38,38,0,0,1,4.58,2.23A14.11,14.11,0,0,1,275.77,200.81Z"/><path class="cls-7" d="M247.55,207s-.07-.2-.17-.56-.26-.86-.46-1.48a37.88,37.88,0,0,0-1.95-4.75,35.75,35.75,0,0,0-2.63-4.42c-.37-.54-.68-1-.9-1.26s-.33-.46-.33-.46a19.36,19.36,0,0,1,1.32,1.67,32.31,32.31,0,0,1,4.59,9.19A18.47,18.47,0,0,1,247.55,207Z"/><path class="cls-7" d="M262.29,194.11s.09.76.11,2a30.59,30.59,0,0,1-.33,4.87,32.48,32.48,0,0,1-1.05,4.77c-.38,1.2-.68,1.91-.68,1.91a1.46,1.46,0,0,1,.15-.52c.15-.33.29-1,.43-1.39a40.85,40.85,0,0,0,1-4.77,35.86,35.86,0,0,0,.36-4.85v-2Z"/><path class="cls-7" d="M230.36,217.66c-.56-.32-1.1-.66-1.62-1a26.74,26.74,0,0,1-3.54-3,27.35,27.35,0,0,1-3-3.51c-.37-.53-.71-1.08-1-1.64a4.12,4.12,0,0,1,.31.43c.18.28.46.66.8,1.15a28.58,28.58,0,0,0,3,3.51,30.54,30.54,0,0,0,3.5,3l1.15.81Z"/><path class="cls-7" d="M208.88,213.34a11.22,11.22,0,0,1-.33-1.39,16.42,16.42,0,0,1-.18-3.57,15.73,15.73,0,0,1,.61-3.53,11.43,11.43,0,0,1,.51-1.38,2.38,2.38,0,0,1-.11.38c-.08.24-.18.59-.3,1a17.48,17.48,0,0,0-.57,3.51,18.32,18.32,0,0,0,.14,3.55c.07.45.12.81.18,1.06A1.86,1.86,0,0,1,208.88,213.34Z"/><path class="cls-7" d="M208.81,231.33a22.78,22.78,0,0,1-1-2.25,34,34,0,0,1-1.71-5.73,32.13,32.13,0,0,1-.64-5.94c0-.83,0-1.65.08-2.48v2.54a38,38,0,0,0,.7,5.92,35.6,35.6,0,0,0,1.65,5.72c.28.71.51,1.28.68,1.67Z"/><path class="cls-7" d="M225.13,202.41a9.43,9.43,0,0,0,.25,1.08c.22.57.55,1,.51,1a2,2,0,0,1-.64-.94A1.83,1.83,0,0,1,225.13,202.41Z"/><path class="cls-7" d="M198,197.22l-.91.5c-.58.3-1.39.78-2.43,1.39A49.31,49.31,0,0,0,181,211.42c-.71,1-1.27,1.74-1.63,2.28s-.59.85-.59.85a36.16,36.16,0,0,1,2.15-3.18A46.71,46.71,0,0,1,194.64,199,35.4,35.4,0,0,1,198,197.22Z"/><path class="cls-7" d="M181.32,183.29l-.86.21c-.57.13-1.39.33-2.36.6a50.19,50.19,0,0,0-7.52,2.77,49.35,49.35,0,0,0-6.94,3.93l-2,1.39-.72.52s1-.84,2.65-2a46.83,46.83,0,0,1,6.94-4,48.32,48.32,0,0,1,7.57-2.78C180.06,183.49,181.32,183.29,181.32,183.29Z"/><path class="cls-7" d="M294.63,207.76a3.59,3.59,0,0,1-.14.86,2.49,2.49,0,0,1-.28.82,2.72,2.72,0,0,1,.14-.86A2.35,2.35,0,0,1,294.63,207.76Z"/><path class="cls-2" d="M357.68,207.13s6.27,1.31,8.94,1.89c.87.19,1.76,0,2.63.21a32.3,32.3,0,0,0,11.6-.21c2.65-1,2.77,2.42-.1,3.87a14.64,14.64,0,0,1-4.62,1.63l6.94,5.55a1.89,1.89,0,0,1,.67,1.15l1.76,12.22a2.1,2.1,0,0,1-1.39,2.42,1,1,0,0,1-1.38-.46v0l.2,1.64a2.16,2.16,0,1,1-4.25.72.2.2,0,0,1,0-.11L376.24,239s-1.61,1.67-3.35-.65c-1.39-1.92-5.73-9.52-5.73-9.52s-18.3-7.71-18.05-10.79Z"/><path class="cls-9" d="M378.72,237.73a19.67,19.67,0,0,1-.5-3c-.27-1.8-.8-4.34-1.16-7.12-.25-1.39-.57-2.71-.88-3.8a2.15,2.15,0,0,0-1-1.14l-1.28-.81a12.36,12.36,0,0,1-2.44-1.75,11.34,11.34,0,0,1,2.77,1.31l1.32.74a2.75,2.75,0,0,1,1.31,1.38,31.23,31.23,0,0,1,.95,3.93c.38,2.78.81,5.32,1,7.18A10,10,0,0,1,378.72,237.73Z"/><path class="cls-9" d="M382.78,235.37c-.29,0-.75-4.39-1.88-9.72a8.42,8.42,0,0,0-1.16-3.44,21.36,21.36,0,0,0-2.25-2.11,11.85,11.85,0,0,0-1.7-1.2c-.43-.23-.69-.29-.69-.34s.31-.09.8.08a7.64,7.64,0,0,1,1.89,1.06,16.54,16.54,0,0,1,2.43,2.06,8.19,8.19,0,0,1,1.39,3.74,52.59,52.59,0,0,1,1,6.94A13.68,13.68,0,0,1,382.78,235.37Z"/><path class="cls-9" d="M367.81,223.81a8.85,8.85,0,0,1,2.39,1.12l1.16.64a4,4,0,0,1,1.39,1,3.9,3.9,0,0,1,.78,1.61q.25.85.54,1.74a55.66,55.66,0,0,1,2.29,8.72,56.6,56.6,0,0,1-3-8.49l-.52-1.73a3.36,3.36,0,0,0-.62-1.39,3.57,3.57,0,0,0-1.11-.86l-1.11-.72A9.49,9.49,0,0,1,367.81,223.81Z"/><path class="cls-9" d="M368.3,210.6c.08-.28,2.68.74,5.55,2.42s5,3.43,4.89,3.61-2.35-1.39-5.25-3l-3.68-2.14A7.44,7.44,0,0,1,368.3,210.6Z"/></g><path class="cls-10" d="M153.92,93.5,137.64,74.65l-.3.27,16.3,18.87a2.34,2.34,0,0,1,.27-.28Z"/><path class="cls-11" d="M153.91,93.51a2.34,2.34,0,0,0-.27.28,1.56,1.56,0,0,0-.41,1.42l8.16,9.44,1.24-1.07L155.25,95l-1.33-1.53Z"/><polygon class="cls-10" points="161.39 104.65 155.17 110.02 187.8 147.78 193.97 142.46 189.39 137.16 184.41 141.47 182.34 139.07 182.35 139.06 157.45 110.23 162.47 105.9 163.71 104.83 162.63 103.58 161.39 104.65"/><polygon class="cls-1" points="162.47 105.9 157.45 110.23 182.35 139.06 188.61 133.65 165.61 107.02 163.71 104.83 162.47 105.9"/><polygon class="cls-12" points="196.3 145.15 216.62 168.68 210.08 174.33 212.15 176.73 219.99 169.96 219.08 168.91 217.92 167.56 197.59 144.04 196.3 145.15"/><polygon class="cls-12" points="182.35 139.06 182.34 139.07 184.41 141.47 189.39 137.16 193.97 142.46 195.26 141.34 190.68 136.04 189.3 134.45 189.05 134.16 188.61 133.65 182.35 139.06"/><polygon class="cls-11" points="193.97 142.46 187.8 147.78 184.43 150.7 186.76 153.4 196.3 145.15 197.59 144.04 195.6 141.74 195.26 141.34 193.97 142.46"/><path class="cls-11" d="M154.32,93.21,138,74.33l-.37.32L153.92,93.5A3.07,3.07,0,0,1,154.32,93.21Z"/><path class="cls-13" d="M154.32,93.21a3.07,3.07,0,0,0-.4.29L155.25,95l7.38,8.55,1.31-1.13L155.78,93A1.65,1.65,0,0,0,154.32,93.21Z"/><polygon class="cls-11" points="163.94 102.45 162.63 103.58 163.71 104.83 165.02 103.7 170.04 99.36 194.94 128.18 194.95 128.17 197.02 130.57 191.98 134.93 196.55 140.22 202.78 134.84 170.16 97.07 163.94 102.45"/><polygon class="cls-14" points="165.02 103.7 163.71 104.83 165.61 107.02 188.61 133.65 194.94 128.18 170.04 99.36 165.02 103.7"/><polygon class="cls-15" points="219.21 166.45 198.88 142.92 197.59 144.04 217.92 167.56 219.08 168.91 219.99 169.96 227.84 163.18 225.77 160.78 219.21 166.45"/><polygon class="cls-15" points="194.94 128.18 188.61 133.65 189.05 134.16 189.3 134.45 190.68 136.04 195.26 141.34 196.55 140.22 191.98 134.93 197.02 130.57 194.95 128.17 194.94 128.18"/><polygon class="cls-13" points="202.78 134.84 196.55 140.22 195.26 141.34 195.6 141.74 197.59 144.04 198.88 142.92 208.49 134.62 206.16 131.92 202.78 134.84"/><rect class="cls-4" x="164.59" y="104.17" width="7.1" height="0.73" transform="translate(-27.43 135.36) rotate(-40.83)"/><rect class="cls-4" x="167.18" y="107.16" width="7.1" height="0.73" transform="translate(-28.76 137.79) rotate(-40.83)"/><rect class="cls-4" x="169.77" y="110.16" width="7.1" height="0.73" transform="translate(-30.09 140.21) rotate(-40.83)"/><rect class="cls-4" x="172.36" y="113.16" width="7.1" height="0.73" transform="translate(-31.42 142.63) rotate(-40.83)"/><rect class="cls-4" x="174.95" y="116.15" width="7.1" height="0.73" transform="translate(-32.74 145.05) rotate(-40.83)"/><rect class="cls-4" x="177.54" y="119.15" width="7.1" height="0.73" transform="translate(-34.07 147.47) rotate(-40.83)"/><rect class="cls-4" x="180.13" y="122.15" width="7.1" height="0.73" transform="translate(-35.4 149.9) rotate(-40.83)"/><rect class="cls-4" x="182.72" y="125.15" width="7.1" height="0.73" transform="translate(-36.73 152.32) rotate(-40.83)"/><rect class="cls-4" x="185.31" y="128.14" width="7.1" height="0.73" transform="translate(-38.06 154.74) rotate(-40.83)"/><path class="cls-10" d="M237.81,65.06l-1.49-12.54-.2,0,1.49,12.54a1.08,1.08,0,0,1,.19,0Z"/><path class="cls-11" d="M237.8,65.06a1.08,1.08,0,0,0-.19,0,.81.81,0,0,0-.57.49l.75,6.27.82-.09-.68-5.68-.12-1Z"/><polygon class="cls-10" points="237.79 71.85 233.65 72.35 236.64 97.46 240.74 96.97 240.32 93.45 237.01 93.84 236.82 92.25 236.83 92.25 234.55 73.08 237.88 72.68 238.71 72.59 238.61 71.76 237.79 71.85"/><polygon class="cls-1" points="237.88 72.68 234.55 73.08 236.83 92.25 240.99 91.75 238.88 74.05 238.71 72.59 237.88 72.68"/><polygon class="cls-12" points="240.95 98.76 242.81 114.41 238.46 114.92 238.65 116.52 243.86 115.9 243.78 115.2 243.67 114.3 241.81 98.66 240.95 98.76"/><polygon class="cls-12" points="236.83 92.25 236.82 92.25 237.01 93.84 240.32 93.45 240.74 96.97 241.6 96.86 241.18 93.34 241.05 92.28 241.03 92.09 240.99 91.75 236.83 92.25"/><polygon class="cls-11" points="240.74 96.97 236.64 97.46 234.4 97.72 234.61 99.52 240.95 98.76 241.81 98.66 241.63 97.13 241.6 96.86 240.74 96.97"/><path class="cls-11" d="M238.06,65.05,236.57,52.5l-.25,0,1.49,12.54A1.09,1.09,0,0,1,238.06,65.05Z"/><path class="cls-13" d="M238.06,65.05a1.09,1.09,0,0,0-.25,0l.12,1,.68,5.68.87-.11-.75-6.28A.84.84,0,0,0,238.06,65.05Z"/><polygon class="cls-11" points="239.48 71.65 238.61 71.76 238.71 72.59 239.58 72.48 242.92 72.08 245.2 91.25 245.21 91.25 245.4 92.84 242.04 93.24 242.46 96.76 246.6 96.27 243.62 71.16 239.48 71.65"/><polygon class="cls-14" points="239.58 72.48 238.71 72.59 238.88 74.05 240.99 91.75 245.2 91.25 242.92 72.08 239.58 72.48"/><polygon class="cls-15" points="244.53 114.2 242.67 98.56 241.81 98.66 243.67 114.3 243.78 115.2 243.86 115.9 249.08 115.28 248.89 113.68 244.53 114.2"/><polygon class="cls-15" points="245.2 91.25 240.99 91.75 241.03 92.09 241.05 92.28 241.18 93.34 241.6 96.86 242.46 96.76 242.04 93.24 245.4 92.84 245.21 91.25 245.2 91.25"/><polygon class="cls-13" points="246.6 96.27 242.46 96.76 241.6 96.86 241.63 97.13 241.81 98.66 242.67 98.56 249.06 97.8 248.84 96 246.6 96.27"/><rect class="cls-4" x="238.86" y="73.53" width="3.6" height="0.37" transform="translate(-7.02 28.95) rotate(-6.79)"/><rect class="cls-4" x="239.09" y="75.53" width="3.6" height="0.37" transform="translate(-7.26 28.99) rotate(-6.79)"/><rect class="cls-4" x="239.33" y="77.52" width="3.6" height="0.37" transform="translate(-7.49 29.04) rotate(-6.79)"/><rect class="cls-4" x="239.57" y="79.51" width="3.6" height="0.37" transform="translate(-7.73 29.08) rotate(-6.79)"/><rect class="cls-4" x="239.81" y="81.51" width="3.6" height="0.37" transform="translate(-7.96 29.12) rotate(-6.79)"/><rect class="cls-4" x="240.04" y="83.5" width="3.6" height="0.37" transform="translate(-8.19 29.16) rotate(-6.79)"/><rect class="cls-4" x="240.28" y="85.49" width="3.6" height="0.37" transform="translate(-8.43 29.2) rotate(-6.79)"/><rect class="cls-4" x="240.52" y="87.48" width="3.6" height="0.37" transform="translate(-8.66 29.25) rotate(-6.79)"/><rect class="cls-4" x="240.75" y="89.48" width="3.6" height="0.37" transform="translate(-8.89 29.29) rotate(-6.79)"/><path class="cls-10" d="M204.61,63.28l-1.49-12.53-.21,0,1.5,12.55.19,0Z"/><path class="cls-11" d="M204.6,63.28l-.19,0a.82.82,0,0,0-.58.48l.75,6.27.82-.09-.67-5.68-.12-1Z"/><polygon class="cls-10" points="204.58 70.08 200.44 70.57 203.43 95.68 207.53 95.19 207.11 91.67 203.8 92.06 203.61 90.47 203.62 90.47 201.34 71.3 204.68 70.91 205.5 70.81 205.4 69.98 204.58 70.08"/><polygon class="cls-1" points="204.68 70.91 201.34 71.3 203.62 90.47 207.78 89.97 205.68 72.27 205.5 70.81 204.68 70.91"/><polygon class="cls-12" points="207.75 96.98 209.61 112.63 205.26 113.14 205.45 114.74 210.66 114.12 210.57 113.42 210.47 112.52 208.61 96.88 207.75 96.98"/><polygon class="cls-12" points="203.62 90.47 203.61 90.47 203.8 92.06 207.11 91.67 207.53 95.19 208.39 95.09 207.97 91.57 207.85 90.5 207.82 90.31 207.78 89.97 203.62 90.47"/><polygon class="cls-11" points="207.53 95.19 203.43 95.68 201.19 95.94 201.4 97.74 207.75 96.98 208.61 96.88 208.42 95.35 208.39 95.09 207.53 95.19"/><path class="cls-11" d="M204.86,63.27l-1.5-12.55-.24,0,1.49,12.53A1.07,1.07,0,0,1,204.86,63.27Z"/><path class="cls-13" d="M204.86,63.27a1.07,1.07,0,0,0-.25,0l.12,1L205.4,70l.87-.11-.74-6.27A.86.86,0,0,0,204.86,63.27Z"/><polygon class="cls-11" points="206.27 69.87 205.4 69.98 205.5 70.81 206.37 70.7 209.71 70.31 211.99 89.47 212 89.47 212.19 91.06 208.83 91.46 209.25 94.98 213.4 94.49 210.41 69.38 206.27 69.87"/><polygon class="cls-14" points="206.37 70.7 205.5 70.81 205.68 72.27 207.78 89.97 211.99 89.47 209.71 70.31 206.37 70.7"/><polygon class="cls-15" points="211.33 112.42 209.47 96.78 208.61 96.88 210.47 112.52 210.57 113.42 210.66 114.12 215.88 113.5 215.69 111.9 211.33 112.42"/><polygon class="cls-15" points="211.99 89.47 207.78 89.97 207.82 90.31 207.85 90.5 207.97 91.57 208.39 95.09 209.25 94.98 208.83 91.46 212.19 91.06 212 89.47 211.99 89.47"/><polygon class="cls-13" points="213.4 94.49 209.25 94.98 208.39 95.09 208.42 95.35 208.61 96.88 209.47 96.78 215.85 96.02 215.64 94.22 213.4 94.49"/><rect class="cls-4" x="205.65" y="71.76" width="3.6" height="0.37" transform="translate(-7.05 25.01) rotate(-6.79)"/><rect class="cls-4" x="205.89" y="73.75" width="3.6" height="0.37" transform="translate(-7.28 25.06) rotate(-6.79)"/><rect class="cls-4" x="206.12" y="75.74" width="3.6" height="0.37" transform="translate(-7.51 25.1) rotate(-6.79)"/><rect class="cls-4" x="206.36" y="77.73" width="3.6" height="0.37" transform="translate(-7.75 25.14) rotate(-6.79)"/><rect class="cls-4" x="206.6" y="79.73" width="3.6" height="0.37" transform="translate(-7.98 25.18) rotate(-6.79)"/><rect class="cls-4" x="206.84" y="81.72" width="3.6" height="0.37" transform="translate(-8.22 25.22) rotate(-6.79)"/><rect class="cls-4" x="207.07" y="83.71" width="3.6" height="0.37" transform="translate(-8.45 25.27) rotate(-6.79)"/><rect class="cls-4" x="207.31" y="85.71" width="3.6" height="0.37" transform="translate(-8.68 25.31) rotate(-6.79)"/><rect class="cls-4" x="207.55" y="87.7" width="3.6" height="0.37" transform="translate(-8.92 25.35) rotate(-6.79)"/></svg>