<svg id="_1" data-name="1" xmlns="http://www.w3.org/2000/svg" viewBox="0 0 580 480"><defs><style>.cls-1{fill:#20e57e;}.cls-2{fill:#f5f5f5;}.cls-3{fill:#e0e0e0;}.cls-4{fill:#fff;}.cls-5{fill:#ebebeb;}.cls-6{fill:#2b4751;}.cls-7{fill:#263238;}.cls-8{opacity:0.3;}.cls-9{fill:#fafafa;}.cls-10{fill:#ffbe9d;}.cls-11{fill:#eb996e;}.cls-12{fill:#455a64;}.cls-13{opacity:0.78;}.cls-14{opacity:0.5;}.cls-15{fill:#009e9e;}</style></defs><path class="cls-1" d="M221.7,94.2c4.4,5.9,37,47,36.9,47.1s-33-40.8-37.4-46.7-7.9-10.7-7.7-10.7S217.2,88.4,221.7,94.2Z"/><g id="freepik--background-complete--inject-2"><polygon class="cls-2" points="151.5 433.1 151.5 479.9 220.1 479.9 295.7 479.9 295.7 433.1 151.5 433.1"/><polygon class="cls-3" points="145.5 420 145.5 433.1 300.7 433.1 300.7 420 220.1 420 145.5 420"/><polygon class="cls-3" points="223.1 479.9 295.7 479.9 295.7 433.1 300.7 433.1 300.7 420 220.1 420 220.1 431.9 223.1 479.9"/><rect class="cls-3" x="171.7" y="440.6" width="29.2" height="7.06"/><rect class="cls-4" x="167.9" y="456.5" width="37.5" height="14.9"/><polygon class="cls-2" points="168.1 383.9 168.1 420 220.8 420 278.8 420 278.8 383.9 168.1 383.9"/><polygon class="cls-3" points="163.4 373.9 163.4 383.9 282.7 383.9 282.7 373.9 220.8 373.9 163.4 373.9"/><polygon class="cls-5" points="223.1 420 278.8 420 278.8 383.9 282.7 383.9 282.7 373.9 220.8 373.9 220.8 383 223.1 420"/><rect class="cls-3" x="183.6" y="389.8" width="22.5" height="5.42"/><rect class="cls-4" x="180.7" y="402" width="28.8" height="11.45"/><path class="cls-2" d="M387.3,478.7c-24.3-16.5-30.1-47.7-29.4-75.8.1-4.6-.5-9.6,1.7-13.7s7.4-7,11.6-5.1,5,5.7,7,9a28.5,28.5,0,0,0,11.1,10.4c3,1.5,6.7,2.4,9.6.7s4.4-7.8,4.4-12.5c-.1-8.7-.3-17.3-.4-26-.1-4.7-.1-9.4,1.3-13.9s4.5-8.5,8.9-9.8,9.9,1.2,10.9,5.7c.5,1.9,0,3.9.2,5.8s1.1,4.1,3,4.6,3.7-.8,5-2.2c4.8-4.7,8-10.8,11-16.9s5.9-12.2,10.2-17.4,10.3-9.3,17-9.8,13.8,3.6,15.5,10.2-2,13.2-6.1,18.6a105.5,105.5,0,0,1-21.4,20.8c-1.5,1.1-3,2.2-3.6,3.9-1,3.2,2,6.2,5.1,7.2s7.2.7,10.9,1.1,7.6,1.9,9,5.4-2,9.7-5.9,13a86.8,86.8,0,0,1-26.2,15.5c-3.4,1.3-7,2.5-9.7,4.9s-4.4,6.6-2.7,9.9,6,4.2,9.6,3.5,6.8-2.6,10.2-4c6.3-2.5,14.6-2.1,18.8,3.4,2.7,3.6,3,8.7,1.7,13s-4.1,8.1-7,11.6c-10.1,12.1-23.1,21.9-37.9,27.3s-28.6,6.8-43.4,1.6"/><path class="cls-3" d="M394.3,461.1A424.4,424.4,0,0,1,410.4,416c1.6-3.9,3.3-7.8,4.8-11.6s3.2-7.6,5-11.2a199.4,199.4,0,0,1,11.4-20.1c3.9-6.2,7.8-11.9,11.6-17.3s7.3-10.2,10.8-14.6A161.9,161.9,0,0,1,471.8,322l5.4-4.8,1.4-1.1a1,1,0,0,1,.5-.4l-.5.4-1.3,1.3-5.3,4.8a178.2,178.2,0,0,0-17.5,19.4c-3.4,4.4-7,9.3-10.7,14.7s-7.6,11.1-11.5,17.3a197.1,197.1,0,0,0-11.3,20c-1.8,3.6-3.3,7.3-4.9,11.1l-4.9,11.7a415,415,0,0,0-16.1,45"/><path class="cls-3" d="M420.4,393.1a6.5,6.5,0,0,1-.4-1.9c-.3-1.3-.6-3.2-1-5.5-.7-4.7-1.4-11.1-2.2-18.2s-1.7-13.5-2.5-18.1c-.3-2.3-.7-4.2-.9-5.5a6.4,6.4,0,0,1-.3-2,6.6,6.6,0,0,1,.6,2,41.9,41.9,0,0,1,1.2,5.4c1,4.6,1.9,10.9,2.7,18.1l2,18.1c.3,2.2.5,4.1.7,5.5A7.4,7.4,0,0,1,420.4,393.1Z"/><path class="cls-3" d="M480.2,381.4l-2.4.3-6.5.7c-5.5.6-13,1.8-21.3,3.4s-15.6,3.5-20.9,5c-2.7.7-4.9,1.3-6.3,1.8l-2.4.6a10.2,10.2,0,0,1,2.2-.9q2.3-.9,6.3-2.1c5.3-1.6,12.7-3.5,20.9-5.2a195.6,195.6,0,0,1,21.5-3.2l6.5-.5Z"/><path class="cls-3" d="M395,460l-.4-.7c-.3-.6-.6-1.3-1.1-2.2s-2.1-4.7-3.6-8.1c-2.9-6.8-6.7-16.4-10.8-27s-7.7-20.1-10.5-27l-3.3-8.2-.9-2.2c-.2-.2-.2-.5-.3-.8a3,3,0,0,1,.4.8l1.1,2.2c.9,1.8,2.1,4.6,3.6,8,3,6.8,6.8,16.4,10.8,27s7.8,20.2,10.6,27.1l3.3,8.1.9,2.2A2.4,2.4,0,0,1,395,460Z"/><path class="cls-3" d="M474.3,433.5a1.1,1.1,0,0,1-.7.3l-2.3.8-8.5,2.9c-7.2,2.4-17.1,5.8-28,9.7s-20.8,7.1-28,9.4l-8.6,2.6-2.3.6-.9.2.8-.3,2.3-.8,8.5-2.9c7.2-2.4,17.1-5.8,28-9.7s20.8-7.1,28-9.4l8.6-2.6,2.3-.6Z"/></g><path class="cls-1" d="M370,83.9c.2,0-3.3,4.9-7.7,10.7s-37.3,46.8-37.4,46.7,32.5-41.2,36.9-47.1S369.9,83.8,370,83.9Z"/><path class="cls-1" d="M468.7,145.2c0,.2-26.9,2.4-60.1,5s-60.1,4.6-60.1,4.4,26.9-2.4,60.1-5S468.7,145.1,468.7,145.2Z"/><path class="cls-1" d="M394.4,211.3c-.1.1-11.5-5.5-25.5-12.7s-25.2-13-25.2-13.2,11.4,5.5,25.4,12.7S394.5,211.2,394.4,211.3Z"/><path class="cls-1" d="M239.6,161.1c0,.2-25.2-2-56.3-4.7s-56.2-5.2-56.2-5.4,25.3,2,56.3,4.8S239.6,160.9,239.6,161.1Z"/><path class="cls-1" d="M248.6,191.2c.1.1-14.9,6.7-33.4,14.5s-33.6,14.2-33.6,14,14.9-6.6,33.4-14.5S248.5,191.1,248.6,191.2Z"/><circle class="cls-1" cx="294.4" cy="161.1" r="54.8"/><circle class="cls-6" cx="294.4" cy="161.1" r="54.8"/><path class="cls-1" d="M127.1,146.7v-.6c0-.4-.1-1-.1-1.7a6.2,6.2,0,0,0-.1-1.3c-.1-.4-.1-.9-.2-1.5a24.5,24.5,0,0,0-.8-3.7,32,32,0,0,0-4-9.5,35.8,35.8,0,0,0-24.2-16.9,34.4,34.4,0,0,0-4.5-.5H87.3l-1.2.2-2.4.4a39.1,39.1,0,0,0-9.4,3.4,16.4,16.4,0,0,0-2.2,1.4,10.7,10.7,0,0,0-2.2,1.5,33.6,33.6,0,0,0-4.1,3.4c-1.2,1.3-2.4,2.7-3.5,4.1a37.2,37.2,0,0,0-5.1,9.9,35,35,0,0,0,0,22.6,37.2,37.2,0,0,0,5.1,9.9c1.1,1.4,2.3,2.8,3.5,4.1a44.7,44.7,0,0,0,4.1,3.5l2.2,1.5,2.2,1.3a26.7,26.7,0,0,0,4.6,2,29,29,0,0,0,4.8,1.4l2.4.4,1.2.2h5.9a23,23,0,0,0,4.5-.5,35.8,35.8,0,0,0,24.2-16.8,33.7,33.7,0,0,0,4-9.6,24.5,24.5,0,0,0,.8-3.7,8.9,8.9,0,0,0,.2-1.5c.1-.5,0-.9.1-1.3s.1-1.3.1-1.7v3a7.7,7.7,0,0,1-.2,1.5,25.3,25.3,0,0,1-.7,3.8,33.4,33.4,0,0,1-3.9,9.6,36.9,36.9,0,0,1-29.1,17.7H90.8l-2.4-.2H87.2l-1.2-.2-2.4-.4a36.1,36.1,0,0,1-9.6-3.5l-2.2-1.3-2.2-1.5a48.7,48.7,0,0,1-4.2-3.5q-2-2.1-3.6-4.2a38.7,38.7,0,0,1-5.2-10.1,35.9,35.9,0,0,1,0-22.9,36.6,36.6,0,0,1,5.2-10,36.2,36.2,0,0,1,3.6-4.2,44.7,44.7,0,0,1,4.1-3.5,10.7,10.7,0,0,1,2.2-1.5l2.3-1.4a27.6,27.6,0,0,1,4.7-2,39.7,39.7,0,0,1,4.9-1.5l2.4-.3,1.2-.2h6a24,24,0,0,1,4.6.5,36.4,36.4,0,0,1,24.4,17.2,33.4,33.4,0,0,1,3.9,9.6,23.2,23.2,0,0,1,.7,3.8,8.9,8.9,0,0,1,.2,1.5v3A1.5,1.5,0,0,0,127.1,146.7Z"/><path class="cls-1" d="M184.1,233a2.8,2.8,0,0,0-.1-.6,7.2,7.2,0,0,1-.1-1.7,6.2,6.2,0,0,0-.1-1.3c-.1-.4-.1-.9-.2-1.5a24.5,24.5,0,0,0-.8-3.7,34.3,34.3,0,0,0-4-9.7,35.9,35.9,0,0,0-9.2-10.2,34.9,34.9,0,0,0-19.8-7.3h-6l-1.2.2-2.4.4a27.5,27.5,0,0,0-4.9,1.4,48.4,48.4,0,0,0-4.7,2.1l-2.2,1.3c-.7.5-1.5.9-2.2,1.5a33.4,33.4,0,0,0-4,3.5,36.2,36.2,0,0,0-3.6,4.2,37.5,37.5,0,0,0-5.2,9.9,37,37,0,0,0,0,22.8,36.6,36.6,0,0,0,5.2,10,35.1,35.1,0,0,0,7.7,7.7l2.2,1.5,2.2,1.3a39.6,39.6,0,0,0,4.7,2.1,43.4,43.4,0,0,0,4.8,1.4l2.4.4,1.3.2h5.9l4.6-.5a37,37,0,0,0,24.4-17,34.3,34.3,0,0,0,4-9.7,24.5,24.5,0,0,0,.8-3.7,10,10,0,0,0,.2-1.6c0-.4.1-.9.1-1.2s.1-1.4.1-1.8a1.5,1.5,0,0,1,.1-.6v.6a13.6,13.6,0,0,1-.1,1.8,4.9,4.9,0,0,1-.1,1.2,10,10,0,0,1-.2,1.6,16.9,16.9,0,0,1-.7,3.8,34,34,0,0,1-3.9,9.7,37.1,37.1,0,0,1-29.3,17.9h-6.1l-1.2-.2-2.4-.4a27.5,27.5,0,0,1-4.9-1.4,34.8,34.8,0,0,1-4.8-2.1l-2.3-1.4a10.7,10.7,0,0,1-2.2-1.5,34,34,0,0,1-7.8-7.8,35.8,35.8,0,0,1-5.2-10.1,36.5,36.5,0,0,1,0-23.1,35.8,35.8,0,0,1,5.2-10.1,48.2,48.2,0,0,1,3.6-4.3,48.7,48.7,0,0,1,4.2-3.5,10.7,10.7,0,0,1,2.2-1.5l2.3-1.4a37.6,37.6,0,0,1,9.7-3.5l2.4-.4,1.3-.2h6a37.1,37.1,0,0,1,29.3,17.9,34,34,0,0,1,3.9,9.7,16.9,16.9,0,0,1,.7,3.8l.3,1.5v1.3a9.2,9.2,0,0,0,.1,1.8Z"/><path class="cls-1" d="M465.2,230.5a2.8,2.8,0,0,0-.1-.6,9.2,9.2,0,0,1-.1-1.8v-1.4c0-.4-.2-1-.2-1.5s-.5-2.7-.8-3.9a37.2,37.2,0,0,0-4.2-10.1,38,38,0,0,0-25.4-17.6l-4.8-.6h-6.2l-1.2.2-2.6.4a47.4,47.4,0,0,0-5,1.5,52.7,52.7,0,0,0-4.9,2.2l-2.3,1.4a18.8,18.8,0,0,0-2.3,1.6,36.2,36.2,0,0,0-4.2,3.6,30.8,30.8,0,0,0-3.7,4.4,38.9,38.9,0,0,0-5.4,10.3,37,37,0,0,0,0,23.7,40.5,40.5,0,0,0,5.4,10.3,30,30,0,0,0,3.7,4.3,29.3,29.3,0,0,0,4.2,3.7,15,15,0,0,0,2.3,1.5l2.3,1.4a35.2,35.2,0,0,0,4.9,2.2,47.4,47.4,0,0,0,5,1.5l2.6.4,1.2.2h6.2a39.1,39.1,0,0,0,4.8-.5,38.1,38.1,0,0,0,25.4-17.7,36.6,36.6,0,0,0,4.2-10c.3-1.3.6-2.6.8-3.9s.2-1.1.2-1.6a5.3,5.3,0,0,1,.1-1.3c0-.8.1-1.4.1-1.8a1.5,1.5,0,0,1,.1-.6v.6a13.6,13.6,0,0,1-.1,1.8,6.2,6.2,0,0,1-.1,1.3,10,10,0,0,1-.2,1.6,26.6,26.6,0,0,1-.7,3.9,36,36,0,0,1-4.2,10.1,37.6,37.6,0,0,1-25.5,18,38.6,38.6,0,0,1-4.9.6h-6.2l-1.3-.2-2.6-.4a41.3,41.3,0,0,1-5-1.5,31.6,31.6,0,0,1-5-2.2l-2.4-1.4a18.2,18.2,0,0,1-2.3-1.5,37.6,37.6,0,0,1-13.5-18.6,36.9,36.9,0,0,1,0-24.1,37.3,37.3,0,0,1,5.4-10.5,38.9,38.9,0,0,1,8.1-8.1,18.2,18.2,0,0,1,2.3-1.5l2.4-1.5a44.2,44.2,0,0,1,10-3.6l2.6-.4,1.3-.2h6.2a38.6,38.6,0,0,1,4.9.6,37.5,37.5,0,0,1,25.5,17.9,37.9,37.9,0,0,1,4.2,10.2,26.6,26.6,0,0,1,.7,3.9,10,10,0,0,1,.2,1.6c.1.5,0,.9.1,1.3a8.7,8.7,0,0,0,.1,1.8Z"/><path class="cls-1" d="M525.8,144.4v-.5a6.6,6.6,0,0,0-.1-1.3,3.4,3.4,0,0,0-.1-1,5,5,0,0,0-.2-1.2,15.9,15.9,0,0,0-.6-3,25.9,25.9,0,0,0-3.1-7.5,28.5,28.5,0,0,0-34-12.1l-3.7,1.6-3.4,2.2c-1.1.9-2.2,1.8-3.2,2.8a30.4,30.4,0,0,0-2.8,3.3,26.9,26.9,0,0,0-4,7.7,28.5,28.5,0,0,0,0,17.8,28.8,28.8,0,0,0,4,7.8,30.4,30.4,0,0,0,2.8,3.3,26.9,26.9,0,0,0,3.2,2.7,24.6,24.6,0,0,0,3.4,2.2,29.5,29.5,0,0,0,3.7,1.6,28.4,28.4,0,0,0,34-12,26.5,26.5,0,0,0,3.1-7.6,13.6,13.6,0,0,0,.6-2.9,5,5,0,0,0,.2-1.2c.1-.4,0-.7.1-1s.1-1,.1-1.3v-.5a.4.4,0,0,1,0,.5v2.3c0,.4-.1.8-.1,1.2a15.9,15.9,0,0,1-.6,3A24.4,24.4,0,0,1,522,159a28.7,28.7,0,0,1-19.3,13.5,27.8,27.8,0,0,1-15.1-1.2,24.3,24.3,0,0,1-3.7-1.6,27.4,27.4,0,0,1-3.6-2.3,39.2,39.2,0,0,1-3.3-2.7l-2.8-3.3a26.4,26.4,0,0,1-4.1-8,28.1,28.1,0,0,1,0-18.1,26.4,26.4,0,0,1,4.1-8c.9-1.1,1.8-2.2,2.8-3.2a40.9,40.9,0,0,1,3.3-2.8c1.2-.8,2.3-1.6,3.6-2.3l3.7-1.6a27.8,27.8,0,0,1,15.1-1.2,28.3,28.3,0,0,1,19.2,13.5,27.3,27.3,0,0,1,3.2,7.7c.2,1,.4,2,.5,3s.1.8.2,1.2v2.8Z"/><path class="cls-1" d="M425,72.8a3.2,3.2,0,0,0,.2-.6l.8-1.6a3.7,3.7,0,0,0,.5-1.1l.6-1.5a22.6,22.6,0,0,0,1.1-3.7,31.2,31.2,0,0,0,1.2-10.5,36.7,36.7,0,0,0-13.2-27.2,32.8,32.8,0,0,0-3.8-2.7l-2-1.2-2.2-1.1-1.1-.5-1.2-.5-2.3-.8a29.9,29.9,0,0,0-5-1.1,29.6,29.6,0,0,0-5.2-.5h-2.6l-2.7.2a45.2,45.2,0,0,0-5.3,1.1,39.9,39.9,0,0,0-5.2,1.9,35.7,35.7,0,0,0-9.5,6.3A36.6,36.6,0,0,0,356.8,48a36.3,36.3,0,0,0-.3,11.4,34.9,34.9,0,0,0,2.9,10.5,13.4,13.4,0,0,0,1.2,2.4l1.3,2.3c.9,1.4,2,2.8,3.1,4.2l3.6,3.6,2,1.5,1,.8,1,.6,2,1.3,2.2,1.1a32.5,32.5,0,0,0,4.3,1.8,36.5,36.5,0,0,0,30.1-3,32.7,32.7,0,0,0,8.3-6.5,24.8,24.8,0,0,0,2.5-3l1-1.2.7-1.1c.3-.6.7-1.1.9-1.5l.4-.5-.3.6-.9,1.5-.7,1.1-.9,1.2a24.8,24.8,0,0,1-2.5,3,35.9,35.9,0,0,1-8.4,6.7A37,37,0,0,1,381,90a33.8,33.8,0,0,1-4.4-1.8l-2.2-1.1-2-1.3a4.1,4.1,0,0,1-1.1-.7l-1-.7a15.6,15.6,0,0,0-2-1.6,41.7,41.7,0,0,1-3.6-3.7,33.2,33.2,0,0,1-3.2-4.2c-.5-.8-.9-1.6-1.4-2.3a18.9,18.9,0,0,1-1.1-2.5,45,45,0,0,1-2-5.1,55.4,55.4,0,0,1-1.1-5.6,34.2,34.2,0,0,1,.4-11.5,37.5,37.5,0,0,1,4-11.2,39.4,39.4,0,0,1,7.4-9.3,39.1,39.1,0,0,1,14.9-8.3A34.5,34.5,0,0,1,388,18a24.8,24.8,0,0,1,2.7-.3h2.7a46,46,0,0,1,5.2.6,28.9,28.9,0,0,1,5.1,1.1l2.4.9,1.1.4,1.2.6,2.2,1,2,1.3a34.8,34.8,0,0,1,3.9,2.8,37.2,37.2,0,0,1,13.2,27.5,35,35,0,0,1-1.3,10.6,26.5,26.5,0,0,1-1.2,3.7l-.6,1.4-.6,1.2-.8,1.5A3.2,3.2,0,0,1,425,72.8Z"/><path class="cls-7" d="M371.5,50.2h-.2v-.2"/><path class="cls-1" d="M158.3,72.2l-.8-1.5-.6-1.2-.6-1.4a26.5,26.5,0,0,1-1.2-3.7,35,35,0,0,1-1.3-10.6A37.2,37.2,0,0,1,167,26.3a34.8,34.8,0,0,1,3.9-2.8l2-1.3,2.2-1,1.2-.6,1.1-.4,2.4-.9a31,31,0,0,1,5.1-1.1,46,46,0,0,1,5.2-.6h2.7l2.7.3a34.5,34.5,0,0,1,5.4,1.1,39.1,39.1,0,0,1,14.9,8.3,37,37,0,0,1,7.4,9.3,37.5,37.5,0,0,1,4,11.2,34.2,34.2,0,0,1,.4,11.5,55.4,55.4,0,0,1-1.1,5.6,45,45,0,0,1-2,5.1,18.9,18.9,0,0,1-1.1,2.5c-.5.7-.9,1.5-1.4,2.3a33.2,33.2,0,0,1-3.2,4.2,41.7,41.7,0,0,1-3.6,3.7,15.6,15.6,0,0,0-2,1.6l-1,.7a4.1,4.1,0,0,1-1.1.7l-2,1.3-2.2,1.1a33.8,33.8,0,0,1-4.4,1.8,37,37,0,0,1-30.3-3.2,35.9,35.9,0,0,1-8.4-6.7,24.8,24.8,0,0,1-2.5-3l-.9-1.2-.7-1.1-.9-1.5-.3-.6.4.5.9,1.5.7,1.1,1,1.2a24.8,24.8,0,0,0,2.5,3,32.7,32.7,0,0,0,8.3,6.5,36.5,36.5,0,0,0,30.1,3,32.5,32.5,0,0,0,4.3-1.8l2.2-1.1,2-1.3,1.1-.6.9-.8,2-1.5,3.6-3.6c1.1-1.4,2.2-2.8,3.1-4.2l1.3-2.3a13.4,13.4,0,0,0,1.2-2.4A32.2,32.2,0,0,0,227,59.4a36.3,36.3,0,0,0-.3-11.4,36.6,36.6,0,0,0-11.3-20.2,35.7,35.7,0,0,0-9.5-6.3,39.9,39.9,0,0,0-5.2-1.9,45.2,45.2,0,0,0-5.3-1.1l-2.7-.2h-2.6a30.5,30.5,0,0,0-5.2.5,29.9,29.9,0,0,0-5,1.1l-2.3.8-1.2.5-1.1.5-2.2,1.1-2,1.2a32.8,32.8,0,0,0-3.8,2.7,36.7,36.7,0,0,0-13.2,27.2,31.2,31.2,0,0,0,1.2,10.5c.3,1.3.7,2.5,1.1,3.7l.6,1.5a3.7,3.7,0,0,0,.5,1.1l.8,1.6.2.6Z"/><g id="freepik--Character--inject-2"><path class="cls-1" d="M266.4,317.6l-1.6.5c-6.8,2.3-27.2,9.1-33.3,11.6,0,0,10.9,96.5,12.1,105.4s1.6,44.9,1.6,44.9H361.3s-.3-96.7,0-111.7c.4-19.4,2.8-38.6,2.8-38.6l-20.2-7.9-23.7-12.5Z"/><g class="cls-8"><path d="M292.2,338.5Q278,391.3,262.3,443.6c-1.3,4.1-2.5,8.6-.8,12.6a11.3,11.3,0,0,0,8.9,6.4,18.3,18.3,0,0,0,11-2.5c7.9-4.4,13-12.7,15.5-21.3s2.7-17.7,2.9-26.7l1.6-71.8Z"/></g><path class="cls-1" d="M231.5,329.7s-17.1,7.5-15.7,37.8a372.9,372.9,0,0,0,4,39.4l47.8-13.8-12.1-52.5Z"/><path class="cls-1" d="M345,378.4l-2.6,34.9,48.1-15.6s-10.3-61.6-26.6-68l-17.7,30.1Z"/><path class="cls-7" d="M350.4,368.3a1.7,1.7,0,0,1,.1.7,19.1,19.1,0,0,0,.2,2c.1,1.9.2,4.4.4,7.6.3,6.3.6,15.1.9,24.8s.6,18.4.8,24.8c.1,3.1.2,5.7.3,7.5v2.8a2,2,0,0,1-.1-.7,20.6,20.6,0,0,0-.2-2.1c-.1-1.8-.2-4.4-.4-7.5-.3-6.3-.6-15.1-.9-24.8s-.6-18.4-.8-24.8c-.1-3.2-.2-5.7-.3-7.6v-2.7Z"/><path class="cls-7" d="M255.3,353.6a4.1,4.1,0,0,1-.7-1.1l-1.5-3.1a53.2,53.2,0,0,0-6-9.6,22.8,22.8,0,0,0-8.9-6.8,38.1,38.1,0,0,0-4.5-1.3h1.2a18.9,18.9,0,0,1,3.4.9,22.2,22.2,0,0,1,9.2,6.8,45.1,45.1,0,0,1,6,9.9,26.9,26.9,0,0,1,1.3,3.1A6.1,6.1,0,0,1,255.3,353.6Z"/><path class="cls-7" d="M356.1,328.2c-1.2,2.7-2.2,5.4-3.1,8.1a83.6,83.6,0,0,0-1.4,8.5,7,7,0,0,1-.1-2.5,25.1,25.1,0,0,1,1-6.1,23.9,23.9,0,0,1,2.2-5.8A7.4,7.4,0,0,1,356.1,328.2Z"/><path class="cls-9" d="M249,343.3h-.4a1.5,1.5,0,0,0-1.1.8,3.7,3.7,0,0,0-.7,2,6.5,6.5,0,0,1-.4,1.3,2.2,2.2,0,0,1-1,1.3,3.2,3.2,0,0,1-3.5-.3,13.5,13.5,0,0,1-2.6-3.3,5,5,0,0,0-1.4-1.5,3.7,3.7,0,0,0-2-.7,2.1,2.1,0,0,0-1.6,1.1,4.6,4.6,0,0,0-.5,2.3c-.1.8-.1,1.6-.2,2.4a4.9,4.9,0,0,1-.8,2.4l-.4.5-.5.4a2.7,2.7,0,0,1-1.2.3,4.1,4.1,0,0,1-2.2-.4,9.3,9.3,0,0,1-3.1-2.8,11.4,11.4,0,0,0-2.4-2.5,4.1,4.1,0,0,0-2.6-.7,3.4,3.4,0,0,0-1.7,1.1,2,2,0,0,0-.4,1.3,1.2,1.2,0,0,0,.1.5c-.1-.2-.2-.3-.2-.5a1.7,1.7,0,0,1,.3-1.4,3.4,3.4,0,0,1,1.8-1.3,3.8,3.8,0,0,1,2.9.7,8.8,8.8,0,0,1,2.6,2.5,8.3,8.3,0,0,0,3,2.6,3.3,3.3,0,0,0,1.9.4,2.2,2.2,0,0,0,1.7-1c.9-1.2.8-2.9.9-4.6a6.4,6.4,0,0,1,.5-2.4,3,3,0,0,1,2.2-1.4,4.6,4.6,0,0,1,3.9,2.5,11.8,11.8,0,0,0,2.4,3.1,2.7,2.7,0,0,0,3,.4,3.6,3.6,0,0,0,1.3-2.4,5,5,0,0,1,.8-2,2.3,2.3,0,0,1,1.2-.8Z"/><path class="cls-9" d="M258.8,359.4v.7a4.9,4.9,0,0,1-.6,1.7,5.7,5.7,0,0,1-2.2,1.9,4.6,4.6,0,0,1-3.8-.1c-1.3-.6-2.3-1.8-3.8-2.2s-3.2.6-4.1,2-1.4,3.4-2.5,5.2a6.6,6.6,0,0,1-2.1,2.3,3.5,3.5,0,0,1-3.3.2,5.1,5.1,0,0,1-2.3-2.3c-.6-.9-1-1.8-1.6-2.6a3.7,3.7,0,0,0-2-1.7,3.1,3.1,0,0,0-2.5.5,9.9,9.9,0,0,0-3,4c-.6,1.4-1.3,2.8-2,4.1a7.1,7.1,0,0,1-5.3,3.6,3.9,3.9,0,0,1-1.8-.4.5.5,0,0,1-.4-.2h-.2a4.1,4.1,0,0,0,2.4.4,6.8,6.8,0,0,0,5-3.5,31.1,31.1,0,0,0,2-4.1,9.8,9.8,0,0,1,3.1-4.2,3.3,3.3,0,0,1,2.9-.6,4.1,4.1,0,0,1,2.4,1.9c.6.8,1,1.8,1.6,2.6a4.5,4.5,0,0,0,2,2.1,2.9,2.9,0,0,0,2.7-.2,4.5,4.5,0,0,0,2-2.1c1-1.7,1.4-3.6,2.5-5.2a6.1,6.1,0,0,1,2-1.9,4.2,4.2,0,0,1,2.7-.3,5,5,0,0,1,2.1,1.2l1.8,1.2a4,4,0,0,0,3.4.1A4.9,4.9,0,0,0,258.8,359.4Z"/><path class="cls-9" d="M253.2,382.9h-.4a1.5,1.5,0,0,0-1.1.4,3.1,3.1,0,0,0-1,1.5,4.9,4.9,0,0,0-.1,2.4,5.8,5.8,0,0,1-.3,3.2,3.2,3.2,0,0,1-3.2,1.8,4.8,4.8,0,0,1-3.7-1.7,15.8,15.8,0,0,1-2.4-3.9l.2.2a3.2,3.2,0,0,0-3,1.5,7.5,7.5,0,0,0-1.3,3.6c-.1,1-.3,2-.5,3a6,6,0,0,1-1.4,2.6,3.6,3.6,0,0,1-2.7,1.2,3.6,3.6,0,0,1-2.6-1.1,20.4,20.4,0,0,1-3-3.9,4.6,4.6,0,0,0-3.5-2,4.2,4.2,0,0,0-3.2,1.1,4.5,4.5,0,0,0-1.3,2.2,5.5,5.5,0,0,0-.1,2.2h-.1a.9.9,0,0,0-.1-.5,4.8,4.8,0,0,1,0-1.7,4.7,4.7,0,0,1,4.8-3.6,3.6,3.6,0,0,1,2,.6,5.2,5.2,0,0,1,1.8,1.5c1,1.2,1.7,2.7,3,3.8a3.7,3.7,0,0,0,2.3,1,2.8,2.8,0,0,0,2.2-1.1,5.6,5.6,0,0,0,1.3-2.4,29.3,29.3,0,0,0,.5-2.9,8,8,0,0,1,1.4-3.9,3.8,3.8,0,0,1,3.5-1.7h.2a16,16,0,0,0,2.3,3.8,4.4,4.4,0,0,0,3.4,1.6,2.8,2.8,0,0,0,2.8-1.5,7.7,7.7,0,0,0,.3-3,4.6,4.6,0,0,1,.2-2.6,3.3,3.3,0,0,1,1.1-1.5,1.4,1.4,0,0,1,1.2-.3Z"/><path class="cls-9" d="M386.4,378.2l-.5.2a2.6,2.6,0,0,0-1.3,1,6.4,6.4,0,0,0-1,2.4,10.7,10.7,0,0,1-.9,3.4,4.3,4.3,0,0,1-1.4,1.6,2.4,2.4,0,0,1-2.3,0,4.2,4.2,0,0,1-1.8-1.7l-1.2-2.2a6.6,6.6,0,0,0-1.4-2,2,2,0,0,0-3.7.9c-.1,1-.1,2-.1,2.9a8.5,8.5,0,0,1-2,5.5,4.8,4.8,0,0,1-5.2,1.2c-1.7-.7-2.7-2.2-3.8-3.1a3.9,3.9,0,0,0-3.7-1.2,4.9,4.9,0,0,0-2.6,1.9,12.2,12.2,0,0,0-1,2.4,17.1,17.1,0,0,1-.6,2.2V393a15.7,15.7,0,0,0,.3-1.6,10.9,10.9,0,0,1,1-2.5,4.8,4.8,0,0,1,2.8-2.2,3,3,0,0,1,2.1.1A6.2,6.2,0,0,1,360,388c1.2,1,2.2,2.3,3.7,3a4.2,4.2,0,0,0,4.6-1.2,7.4,7.4,0,0,0,1.9-5.1,13.8,13.8,0,0,1,.1-2.9,3.9,3.9,0,0,1,.6-1.5,2.5,2.5,0,0,1,1.4-.8,2.8,2.8,0,0,1,2.7,1,8.6,8.6,0,0,1,1.5,2.2,9.1,9.1,0,0,0,1.1,2.2,3.6,3.6,0,0,0,1.5,1.5,1.7,1.7,0,0,0,1.9,0,3.3,3.3,0,0,0,1.3-1.3,20.7,20.7,0,0,0,1-3.3,6.2,6.2,0,0,1,1.1-2.5,2.4,2.4,0,0,1,1.3-.9Z"/><path class="cls-9" d="M380.7,352.5c0,.1-.1.2-.2.4a7.2,7.2,0,0,0-.7,1.1,9.3,9.3,0,0,1-1.3,1.5,6.5,6.5,0,0,1-2.3,1.5,4.2,4.2,0,0,1-3.3-.3c-1.1-.7-1.7-2-2.7-2.7a1.5,1.5,0,0,0-1.6-.1,3.3,3.3,0,0,0-1.3,1.3,4.9,4.9,0,0,0-.5,2v2.3a6.4,6.4,0,0,1-.5,2.3,3.5,3.5,0,0,1-1.5,1.7,5.4,5.4,0,0,1-4.3-.3,13,13,0,0,1-3.1-2.1,15.1,15.1,0,0,0-2.8-1.5,3.6,3.6,0,0,0-2.5.2,3.3,3.3,0,0,0-1.5,1.1,2.4,2.4,0,0,0-.4,1.6.6.6,0,0,1-.1-.4,1.5,1.5,0,0,1,.3-1.3,2.9,2.9,0,0,1,1.6-1.3,4.2,4.2,0,0,1,2.7-.3,9,9,0,0,1,2.9,1.6,32.8,32.8,0,0,0,3.1,2,5.5,5.5,0,0,0,3.8.2,2.5,2.5,0,0,0,1.3-1.4,5.2,5.2,0,0,0,.4-2.1v-2.3a7.9,7.9,0,0,1,.6-2.2,3.1,3.1,0,0,1,1.6-1.6,2.2,2.2,0,0,1,2.2.2c1.1.9,1.6,2.1,2.5,2.7a3.9,3.9,0,0,0,3,.3,5,5,0,0,0,2.2-1.3,6.4,6.4,0,0,0,1.3-1.5Z"/><path class="cls-9" d="M352.7,415.6l-.6.7a3.3,3.3,0,0,1-2.4.3l-1.7-.5-1.8-1.1a8.2,8.2,0,0,0-2-1.2,3.6,3.6,0,0,0-2.5-.1,4.8,4.8,0,0,0-2.1,1.9,25.9,25.9,0,0,0-1.4,2.9,18.7,18.7,0,0,1-1.7,3.1,8.1,8.1,0,0,1-1.4,1.2l-.9.3h-1a3.2,3.2,0,0,1-1.9-.7,5,5,0,0,1-1.5-1.4c-.8-1-1.5-2.2-2.3-3.3a7.3,7.3,0,0,0-3.1-2.4,5.3,5.3,0,0,0-3.9.9,7.8,7.8,0,0,0-2.8,2.9c-.8,1.2-1.4,2.5-2.1,3.7a12.6,12.6,0,0,1-2.5,3.2,6.7,6.7,0,0,1-3.6,1.7,5.2,5.2,0,0,1-3.6-1.1,13.8,13.8,0,0,1-2.3-2.6c-1.3-1.9-2.4-3.7-4-4.7a4.8,4.8,0,0,0-2.4-.7,5.9,5.9,0,0,0-2.3.5,6.7,6.7,0,0,0-2.8,2.5,5.7,5.7,0,0,0-.7,2.2v.7c0-.2-.1-.5-.1-.7a6.2,6.2,0,0,1,.7-2.3,5.9,5.9,0,0,1,2.9-2.7,8.6,8.6,0,0,1,2.3-.6,5,5,0,0,1,2.7.8,15.6,15.6,0,0,1,4.1,4.7,13.7,13.7,0,0,0,2.3,2.5,4.2,4.2,0,0,0,3.2.9,5.2,5.2,0,0,0,3.3-1.6,9.9,9.9,0,0,0,2.4-3c.7-1.2,1.3-2.5,2.1-3.7a8.9,8.9,0,0,1,3-3.1,5.4,5.4,0,0,1,4.3-.9,6.8,6.8,0,0,1,3.4,2.6l2.3,3.3a4.6,4.6,0,0,0,3,1.9,3.8,3.8,0,0,0,2.9-1.5,17.3,17.3,0,0,0,1.6-3,26.4,26.4,0,0,1,1.5-2.9,4.5,4.5,0,0,1,2.3-2,3.9,3.9,0,0,1,2.8.1,11.3,11.3,0,0,1,2.1,1.2,10.4,10.4,0,0,0,1.7,1.2,4.4,4.4,0,0,0,1.6.6,3.1,3.1,0,0,0,2.3-.3Z"/><path class="cls-9" d="M350.6,379.1v.2a.9.9,0,0,1-.5.3,2.5,2.5,0,0,1-2.2-.2c-.9-.4-1.6-1.4-2.8-1.9a1.9,1.9,0,0,0-1.8.3,5.3,5.3,0,0,0-1.1,2.1,25.8,25.8,0,0,1-.8,2.6,5.2,5.2,0,0,1-1,1.1,3.4,3.4,0,0,1-1.5.6c-2.2.2-4.2-1.2-5.6-3a17.5,17.5,0,0,0-2.4-2.3,5.2,5.2,0,0,0-3.2-1.1,8.6,8.6,0,0,0-6.1,3.7c-1.6,2-2.6,4.3-4,6.4a10.6,10.6,0,0,1-5.5,4.5,5.7,5.7,0,0,1-3.4.2,5.7,5.7,0,0,1-2.7-1.6c-1.4-1.5-2.4-3.2-3.8-4.1a3.3,3.3,0,0,0-2.2-.5,3.4,3.4,0,0,0-1.9.7,7.5,7.5,0,0,0-2.2,2.5c-1.1,1.6-1.4,2.6-1.5,2.6l.3-.7a12.4,12.4,0,0,1,1-2,9.3,9.3,0,0,1,2.2-2.7,5.4,5.4,0,0,1,2.1-.8,3.9,3.9,0,0,1,2.4.6c1.6.9,2.5,2.6,3.9,4a4.7,4.7,0,0,0,2.5,1.5,5.4,5.4,0,0,0,3.1-.2,10.2,10.2,0,0,0,5.2-4.4,74.7,74.7,0,0,1,4-6.4,9.5,9.5,0,0,1,6.6-3.9,6.1,6.1,0,0,1,3.5,1.1,19.7,19.7,0,0,1,2.5,2.5,9.5,9.5,0,0,0,2.4,2.1,4.5,4.5,0,0,0,2.8.7,2.6,2.6,0,0,0,2.1-1.4,12.5,12.5,0,0,0,.9-2.5,5.7,5.7,0,0,1,1.1-2.2,2.5,2.5,0,0,1,2.2-.4c1.4.6,2,1.7,2.9,2.1a2.4,2.4,0,0,0,2,.3Z"/><path class="cls-9" d="M351.1,341.2a1.1,1.1,0,0,0-.5-.4,3.1,3.1,0,0,0-1.9-.1,3.3,3.3,0,0,0-2.2,1.8,20.3,20.3,0,0,0-1.4,3.9,9.1,9.1,0,0,1-1.1,2.2,4,4,0,0,1-2.2,1.6,4.5,4.5,0,0,1-2.8-.1,10.2,10.2,0,0,1-2.8-1.3c-1.7-1.1-3.3-2.5-5.5-2.9a4.5,4.5,0,0,0-3,.5,7.5,7.5,0,0,0-2.6,2.1c-1.6,1.6-2.6,3.7-4.1,5.4a10.7,10.7,0,0,1-2.5,2.2,6.3,6.3,0,0,1-3,1,9,9,0,0,1-5.4-2.2c-1.4-1.1-2.6-2.3-3.8-3.2a6.4,6.4,0,0,0-3.7-1.3,4.8,4.8,0,0,0-2.9.9,2.8,2.8,0,0,0-1.1,1.5c-.1.4-.1.6-.2.6a2,2,0,0,1,.1-.7,3.6,3.6,0,0,1,1.1-1.6,4.8,4.8,0,0,1,3-1.1,6.8,6.8,0,0,1,3.9,1.3c1.3.9,2.6,2.1,3.9,3.2a8.5,8.5,0,0,0,5.1,2,7.2,7.2,0,0,0,5.1-3c1.4-1.6,2.4-3.7,4.1-5.5a11.3,11.3,0,0,1,2.7-2.2,6,6,0,0,1,3.5-.5c2.3.4,3.9,1.9,5.6,3a6.8,6.8,0,0,0,5.2,1.4,4.5,4.5,0,0,0,1.9-1.4,6.7,6.7,0,0,0,1-2.1,22.6,22.6,0,0,1,1.5-3.9,3.7,3.7,0,0,1,1.2-1.3,3.1,3.1,0,0,1,1.3-.6,2.7,2.7,0,0,1,2,.2Z"/><path class="cls-9" d="M345.5,323.4a.6.6,0,0,1-.1.4,3.6,3.6,0,0,1-.4,1.1,3.3,3.3,0,0,1-1.1,1.5,2,2,0,0,1-2.5-.1,9,9,0,0,1-1.7-2.6,3.8,3.8,0,0,0-1.1-1.1,2.7,2.7,0,0,0-1.5-.5,5,5,0,0,0-3.3,1.2,15,15,0,0,0-2.3,3.3,17.4,17.4,0,0,1-1.1,1.8,2.5,2.5,0,0,1-2,.9,2.7,2.7,0,0,1-1.8-1.1,6.1,6.1,0,0,1-.9-1.8,7.1,7.1,0,0,0-1.4-2.9,2.4,2.4,0,0,0-1.3-.7,1.5,1.5,0,0,0-1.1.4,4.7,4.7,0,0,0-1.2,2,5.6,5.6,0,0,1-.9,1.7,2.4,2.4,0,0,1-1.1.6h-.4a2.1,2.1,0,0,0,1.3-.7,4,4,0,0,0,.8-1.6,4.6,4.6,0,0,1,1.2-2.3,2,2,0,0,1,1.5-.5,2.6,2.6,0,0,1,1.5.7,7.4,7.4,0,0,1,1.6,3.2,3.1,3.1,0,0,0,.8,1.5,2.2,2.2,0,0,0,1.4.9,2.4,2.4,0,0,0,1.6-.7,9.9,9.9,0,0,0,1.1-1.7,10,10,0,0,1,2.4-3.4,4.9,4.9,0,0,1,3.6-1.3,2.8,2.8,0,0,1,1.8.6,3.7,3.7,0,0,1,1.2,1.3,7.8,7.8,0,0,0,1.6,2.4,1.4,1.4,0,0,0,2,.2,2.8,2.8,0,0,0,1.1-1.3C345.3,324,345.4,323.4,345.5,323.4Z"/><path class="cls-9" d="M273.9,323.5a.9.9,0,0,1,.1.5,7.7,7.7,0,0,1,.2,1.5,9.3,9.3,0,0,1-.3,2.4,4,4,0,0,1-2.1,2.5,2.5,2.5,0,0,1-1.9.2,3,3,0,0,1-1.7-1.2,8.7,8.7,0,0,1-1.1-1.8,3.6,3.6,0,0,0-1.6-1.4,3.2,3.2,0,0,0-3.7,1.7,4.8,4.8,0,0,0-.7,2.3,11.3,11.3,0,0,0,0,2.6,8.2,8.2,0,0,1-.2,2.7,3.6,3.6,0,0,1-1.6,2.2,2.7,2.7,0,0,1-2.6.2,5.7,5.7,0,0,1-2.1-1.3c-1.1-1.2-1.8-2.5-2.7-3.4a4.3,4.3,0,0,0-3.3-1.4,4.5,4.5,0,0,0-2.7,1.2,3.1,3.1,0,0,0-1.1,2,6.5,6.5,0,0,0-.2,2,4.3,4.3,0,0,0-.1-.5,4.3,4.3,0,0,1,0-1.6,4.4,4.4,0,0,1,4-3.5,4.7,4.7,0,0,1,3.7,1.4c1,1,1.7,2.3,2.8,3.4a4.7,4.7,0,0,0,1.9,1.2,2.5,2.5,0,0,0,2.2-.2,3.3,3.3,0,0,0,1.3-1.9,7,7,0,0,0,.1-2.5,9.7,9.7,0,0,1,.7-5.3,3.9,3.9,0,0,1,4.5-1.9,3.5,3.5,0,0,1,1.7,1.7,8.7,8.7,0,0,1,1.1,1.8,3.3,3.3,0,0,0,1.5,1.1,3,3,0,0,0,1.6-.2,3.4,3.4,0,0,0,2-2.2,8.5,8.5,0,0,0,.4-2.3A15.7,15.7,0,0,0,273.9,323.5Z"/><path class="cls-7" d="M332.7,197.1c-7.4-1.6-14.4,5.5-21.9,4.7-4.6-.5-8.3-3.8-12.5-5.7-6.3-2.8-14.9-2.7-20.7,1s-9.6,7.3-9.8,14.2c-5.9-2.8-14.6,5-17.2,12.1s-1.2,14,1.2,21.1A100.4,100.4,0,0,0,271,277.9c.8.9,2,1.8,3,1.2a2.7,2.7,0,0,0,.9-2.1c.5-6.7-.9-13.4-2.1-20.1s-2-13.5-.4-20.1,6.1-12.8,12.6-14.7c4.7-1.3,9.9-.2,14.5,1.9s8.6,5,13,7.4,9.2,4.4,14.2,4.2,10.1-3,11.8-7.7-1.2-10.9-6.1-11.5a9.8,9.8,0,0,0,.3-19.2Z"/><path class="cls-10" d="M320.2,315.5l-1.9-14.3S337,296,334.9,277c-1-9.2-4.5-28-8-44.9a35.6,35.6,0,0,0-39.2-28.3l-1.8.2c-19.6,3.6-27.6,22.2-23.5,41.7l11,76.4A23.6,23.6,0,0,0,300.1,342h0A23.4,23.4,0,0,0,320.2,315.5Z"/><path class="cls-11" d="M318.3,301.2a44.5,44.5,0,0,1-25.6-4.1s7.5,13,26.3,9Z"/><path class="cls-7" d="M321.1,243.6a2.9,2.9,0,0,1-2.3,3.2,2.8,2.8,0,0,1-3.1-2.2h0a2.9,2.9,0,0,1,2.3-3.2,2.7,2.7,0,0,1,3.1,2.1Z"/><path class="cls-7" d="M324,243.1c-.3.4-2.6-.9-5.5-.5s-4.9,2.1-5.3,1.7.1-.8,1-1.6a7.6,7.6,0,0,1,4.1-1.8,7.4,7.4,0,0,1,4.4.8C323.7,242.3,324.1,242.9,324,243.1Z"/><path class="cls-7" d="M293.3,245.9a2.8,2.8,0,0,1-2.3,3.2,2.7,2.7,0,0,1-3.1-2.1h0a2.9,2.9,0,0,1,2.3-3.2,2.7,2.7,0,0,1,3.1,2.2Z"/><path class="cls-7" d="M295.9,245.4c-.3.4-2.5-.9-5.5-.5s-4.8,2-5.2,1.7.1-.8.9-1.6a7.3,7.3,0,0,1,4.2-1.8,7.5,7.5,0,0,1,4.4.8C295.7,244.6,296.1,245.2,295.9,245.4Z"/><path class="cls-7" d="M308.5,266.2c0-.2,1.8-.7,4.7-1.4.7-.2,1.4-.4,1.4-.9a3.4,3.4,0,0,0-.7-2.2l-2.8-5.4c-4.1-7.7-7.1-14.1-6.8-14.3s3.9,6,7.9,13.7l2.8,5.5a4.2,4.2,0,0,1,.7,2.9,1.6,1.6,0,0,1-1.1,1.2,2.7,2.7,0,0,1-1.2.3C310.4,266.1,308.6,266.4,308.5,266.2Z"/><path class="cls-7" d="M300.2,269.3c.4-.1.8,3,3.8,5s6.3,1.1,6.4,1.6-.7.7-2.1.9a8.3,8.3,0,0,1-5.3-1.2,6.8,6.8,0,0,1-3-4.2C299.7,270.1,300,269.3,300.2,269.3Z"/><path class="cls-7" d="M294.5,232c-.2.9-3.2.8-6.6,1.7s-6,2-6.5,1.4.1-1.1,1.1-2a11.7,11.7,0,0,1,10-2.4C293.8,231.1,294.6,231.6,294.5,232Z"/><path class="cls-7" d="M321.9,233.5c-.5.7-2.6.3-5,.6s-4.4.9-4.9.3,0-1,.8-1.7a7.1,7.1,0,0,1,8-.8C321.7,232.5,322,233.2,321.9,233.5Z"/><path class="cls-10" d="M265.6,259.5c-.3-.1-13.5-2.3-11.5,10.7s14.5,8.3,14.5,7.9S265.6,259.5,265.6,259.5Z"/><path class="cls-11" d="M263.9,273.8l-.6.4a2.5,2.5,0,0,1-1.7.3c-1.4-.3-2.9-2.3-3.3-4.6a9.2,9.2,0,0,1,.1-3.3,2.8,2.8,0,0,1,1.5-2,1.2,1.2,0,0,1,1.4.4,1.5,1.5,0,0,1,.2.6c.1.1.3-.2.1-.7a1.6,1.6,0,0,0-.6-.8,2,2,0,0,0-1.3-.1,3.4,3.4,0,0,0-2.1,2.4,7.7,7.7,0,0,0-.2,3.7c.5,2.6,2.2,4.8,4.1,5.1a2.4,2.4,0,0,0,2-.7C263.9,274.1,264,273.8,263.9,273.8Z"/><path class="cls-7" d="M330.5,227.6a27.6,27.6,0,0,1-25.1-2.6c-5.1-3.3-9.3-8.5-15.3-9.6a15.5,15.5,0,0,0-11.6,3,29.8,29.8,0,0,0-8,9.3c4.8,9.2,3.7,20.3,2.4,30.6a5.2,5.2,0,0,1-1.1,3.2c-1.4,1.4-3.8.7-5.3-.5s-3.7-5.1-4.6-8.1a53.9,53.9,0,0,1-2.4-21.1,36,36,0,0,1,7.8-19.5,34.6,34.6,0,0,1,23-12.1,42.6,42.6,0,0,1,25.6,5.8,25.7,25.7,0,0,1,9.1,8.2"/><path class="cls-12" d="M338.7,201.1a2,2,0,0,1,0,1.1,5.4,5.4,0,0,1-1.5,2.9,8,8,0,0,1-4.6,2.2,18.3,18.3,0,0,1-3.3.2,8,8,0,0,1-3.5-1.1,4.7,4.7,0,0,1-2.1-3.5,4.2,4.2,0,0,1,2.4-3.7,5.9,5.9,0,0,1,2.3-.5,3.9,3.9,0,0,1,2.3.7,5.6,5.6,0,0,1,2.5,4.3,6.5,6.5,0,0,1-1.5,5,10,10,0,0,1-4.3,3.3,17.5,17.5,0,0,1-11.3.1,50.3,50.3,0,0,1-10.3-4.7,73.9,73.9,0,0,0-9.4-4.5,20.1,20.1,0,0,0-9.1-1.1,17.9,17.9,0,0,0-7.6,3,23.3,23.3,0,0,0-7.7,8.8l-1.3,3a4.9,4.9,0,0,1-.4,1.1.4.4,0,0,1,.1-.3,3.1,3.1,0,0,1,.2-.8,26.8,26.8,0,0,1,1.2-3,23,23,0,0,1,7.7-9.2,19.3,19.3,0,0,1,7.7-3.1,20,20,0,0,1,9.4,1.1,64.1,64.1,0,0,1,9.5,4.6,48.7,48.7,0,0,0,10.2,4.5,16,16,0,0,0,10.8-.1,9.6,9.6,0,0,0,4.2-3,6.3,6.3,0,0,0,1.3-4.6,5.4,5.4,0,0,0-2.2-3.9,4,4,0,0,0-4.1-.1,3.7,3.7,0,0,0-2.1,3.1,4.3,4.3,0,0,0,1.9,3.2,6.1,6.1,0,0,0,3.3,1,10.8,10.8,0,0,0,3.1-.1,8.1,8.1,0,0,0,4.5-2,5,5,0,0,0,1.6-2.7A2.7,2.7,0,0,0,338.7,201.1Z"/><path class="cls-12" d="M249.6,234.8a14,14,0,0,0,4.1.6,10.8,10.8,0,0,0,4.3-1,17,17,0,0,0,4.6-2.9,14.9,14.9,0,0,0,4.8-8.4,19.9,19.9,0,0,0,.4-4.2,5.2,5.2,0,0,1,.2,1.1,10.6,10.6,0,0,1-.1,3.1A15.2,15.2,0,0,1,263,232a19.5,19.5,0,0,1-4.8,3,9.7,9.7,0,0,1-4.5.8,11.2,11.2,0,0,1-3.1-.5A2.4,2.4,0,0,1,249.6,234.8Z"/><path class="cls-12" d="M251.3,244.2c0-.1,1.6,0,4-.4a17.8,17.8,0,0,0,13.9-11.9,31.9,31.9,0,0,0,1.1-3.8,2,2,0,0,1,0,1.1,15,15,0,0,1-.6,2.9,17.1,17.1,0,0,1-14.2,12.1,15.1,15.1,0,0,1-3,.2Z"/><path class="cls-11" d="M287.1,259.4c-.2.1-.3-.1-.4-.2h0a.4.4,0,0,1,.2-.5h0c.2,0,.4.1.4.3s0,.3-.2.4Z"/><path class="cls-11" d="M292.5,257.5a.4.4,0,0,1-.4-.4.5.5,0,0,1,.2-.4c.2,0,.4.1.4.3A.4.4,0,0,1,292.5,257.5Z"/><path class="cls-11" d="M296.3,256.9a.5.5,0,0,1-.5-.4c0-.3,0-.6.2-.6a.7.7,0,0,1,.5.4C296.5,256.6,296.5,256.9,296.3,256.9Z"/><path class="cls-11" d="M290.3,262.5h-.4a.3.3,0,0,1,.3-.3c.2,0,.4,0,.4.2S290.5,262.5,290.3,262.5Z"/><path class="cls-11" d="M295.3,260.8l-.5-.2c-.1-.2,0-.5.2-.5a.4.4,0,0,1,.5.2h0A.8.8,0,0,1,295.3,260.8Z"/><path class="cls-11" d="M321.5,254.4a.3.3,0,0,1-.4-.2h0a.4.4,0,0,1,.2-.5h0l.4.2h0C321.8,254.1,321.7,254.3,321.5,254.4Z"/><path class="cls-11" d="M325.2,253.6a.5.5,0,0,1-.4-.3.5.5,0,0,1,.3-.5.4.4,0,0,1,.4.4C325.5,253.4,325.4,253.5,325.2,253.6Z"/><path class="cls-11" d="M318.1,254.9c-.1,0-.3-.1-.3-.2s0-.3.2-.4h0c.1-.1.3,0,.4.1s0,.4-.2.4Z"/><path class="cls-11" d="M321.4,258.4c-.2,0-.4,0-.5-.2s-.1-.3.1-.5.3-.1.5.1h0A.3.3,0,0,1,321.4,258.4Z"/><path class="cls-11" d="M324.6,257.3a.3.3,0,0,1-.3-.3c0-.2.2-.3.4-.2h0a.3.3,0,0,1,.3.3C324.9,257.3,324.8,257.4,324.6,257.3Z"/><path class="cls-7" d="M253.4,266.4a1.8,1.8,0,0,1-1.3-.8,2,2,0,0,1-.3-1.7,2.9,2.9,0,0,1,1.1-1.8,3.8,3.8,0,0,1,2.1-.5,3.7,3.7,0,0,1,1.6.7c.7.5.9,1.2.8,1.2a2.7,2.7,0,0,0-1.1-.9,2.9,2.9,0,0,0-3.1,0,2.3,2.3,0,0,0-.9,1.4,1.5,1.5,0,0,0,.1,1.3A3.6,3.6,0,0,0,253.4,266.4Z"/><path class="cls-10" d="M351.7,408.1l.9,28.4s-82.1,16.3-92.7,21.7-14.9,6.3-14.3,21.9l131.3-.2s16.2-6,15.9-23.6-4.8-60-4.8-60Z"/><path class="cls-10" d="M259.2,480.6l10.9-1,10.4-24.9c-1.6-.3-36.8-5.5-38.9-4.9l-8.4,30Z"/><path class="cls-10" d="M235.2,480.2l.6.2c2.9.3,16.3-.5,16.3-.5.6-1.8-.6-7-2.2-7.3s-15.9.7-15.9.7-2.2.3-2.8,4.1S235.2,480.2,235.2,480.2Z"/><path class="cls-10" d="M230.7,472.6h.6c2.9.4,15.5.2,16.1-1.3s-.4-6.1-2.1-6.4-15.9.7-15.9.7-2.2.3-2.8,4S230.7,472.6,230.7,472.6Z"/><path class="cls-10" d="M228.4,465.2h.6c2.9.3,15.6.2,16.1-1.4s-.3-6-2-6.3-15.9.6-15.9.6-2.2.3-2.8,4.1S228.4,465.2,228.4,465.2Z"/><path class="cls-10" d="M226.3,457.8h.6c2.9.3,15.6.2,16.1-1.4s-.3-6-2-6.3-15.9.6-15.9.6-2.2.3-2.8,4.1S226.3,457.8,226.3,457.8Z"/><path class="cls-11" d="M246.2,472.6c0,.2-2.8.4-6.2.5s-6.1,0-6.1-.2,2.8-.5,6.2-.6S246.2,472.3,246.2,472.6Z"/><path class="cls-11" d="M246.2,465.1c0,.2-3.9.5-8.7.7s-8.8.1-8.8-.2,3.9-.5,8.8-.6S246.2,464.9,246.2,465.1Z"/><g class="cls-13"><path class="cls-11" d="M245.6,457.5c0,.2-3.9.5-8.7.7s-8.8.1-8.8-.1,3.9-.6,8.8-.7S245.6,457.3,245.6,457.5Z"/></g><path class="cls-10" d="M266,452.8s-23.9-10.6-25.4-9.1-3.8,6.5-3.8,6.5Z"/><path class="cls-11" d="M371,461.2c-.1,0-.6-1.7-1.8-4.4a38.8,38.8,0,0,0-2.2-4.6,44.8,44.8,0,0,0-7.7-9.7,39,39,0,0,0-3.8-3.3c-2.3-1.7-3.9-2.6-3.9-2.7l1.1.5,3,1.9a41.2,41.2,0,0,1,4,3.3,45.8,45.8,0,0,1,4.2,4.6,60.6,60.6,0,0,1,3.5,5.3,40.2,40.2,0,0,1,2.2,4.7,30.1,30.1,0,0,1,1.1,3.2Z"/><path class="cls-10" d="M274.8,327.8,250,398.2l-27.8,8s10.1,42.7,20.4,50.3c3.5,2.6,9.2,5.5,15.1,5.1,11.1-.8,23.6-8.7,28.3-19.6s15.5-110.3,15.5-110.3Z"/><path class="cls-10" d="M301.2,334.7l1.4-17.2-4-13.7-1.5-5.3,3,3.1,5.5-5.9s-1.8-10.3-3.3-10.3a22.3,22.3,0,0,0-5.6,1.6l-1.9.7-4.6,2.4,4.7-7.1s4.7,4,7.2.5-5.1-8.6-7.7-10.7a3.1,3.1,0,0,0-2.1-.5l-2.7.6a3.9,3.9,0,0,0-4-3.6,6.1,6.1,0,0,0-5.3,3.1l-2.8.5A4.9,4.9,0,0,0,273,276l-6.3,17.1,8.1,34.7"/><path class="cls-11" d="M274.8,327.8a3.2,3.2,0,0,1-.2-.6,14.9,14.9,0,0,1-.4-1.9c-.4-1.6-1-3.9-1.7-6.9-1.5-6.1-3.5-14.7-6-25.3h0c1.2-3.4,2.6-7,3.9-10.7l2.1-5.8a5,5,0,0,1,1.8-2.7,4.6,4.6,0,0,1,3.2-1.1h0l2.8-.6-.2.2a7.3,7.3,0,0,1,2.1-2.2,5.4,5.4,0,0,1,3-1,4.5,4.5,0,0,1,3.1,1,3.5,3.5,0,0,1,1.5,2.9l-.3-.3,2-.4,1.1-.2a2.5,2.5,0,0,1,1.2.2,1.8,1.8,0,0,1,.9.6l.9.6,1.6,1.4c1.1,1,2.1,2,3.1,3.1a10.9,10.9,0,0,1,2.3,3.9,1.7,1.7,0,0,1,0,1.4,2.8,2.8,0,0,1-.8,1.1,3.5,3.5,0,0,1-2.5.9,8.7,8.7,0,0,1-4.6-2h.5l-4.7,7.1-.4-.4,4.7-2.3h0l4.7-1.7,2.3-.7h.7a1,1,0,0,1,.6.5,3,3,0,0,1,.6,1.1,56.3,56.3,0,0,1,2.2,9h-.1l-5.5,5.9H300l-3-3.1.4-.2c2.1,7.3,3.9,13.7,5.5,19h0c-.5,5.4-.9,9.7-1.1,12.6l-.4,3.4a1.9,1.9,0,0,1-.1.8v-.8c0-.8.1-2,.2-3.4.3-3,.6-7.2,1-12.7h0c-1.5-5.3-3.4-11.7-5.6-19l-.2-.9.6.7,3,3H300l5.5-5.8v.2a55.1,55.1,0,0,0-2.2-8.9,3.1,3.1,0,0,0-.5-1l-.3-.3h-.5l-2.3.7L295,288h0l-4.7,2.4-.9.5.6-.9,4.6-7.1.2-.3.2.2a8.8,8.8,0,0,0,4.3,1.9A2.7,2.7,0,0,0,302,283a2,2,0,0,0,0-1.1,9.7,9.7,0,0,0-2.2-3.6,28.3,28.3,0,0,0-3-3l-1.6-1.4a6.6,6.6,0,0,0-1.7-1.2,3.1,3.1,0,0,0-1.9,0l-2,.4h-.4v-.4a2.8,2.8,0,0,0-1.3-2.4,3.4,3.4,0,0,0-2.7-.9,5.7,5.7,0,0,0-4.6,3h-.2l-2.9.5h0a4.2,4.2,0,0,0-2.8,1,4.7,4.7,0,0,0-1.6,2.5c-.7,2-1.5,3.9-2.1,5.8-1.4,3.7-2.8,7.3-4,10.7h0l5.8,25.3,1.5,7c.2.7.3,1.3.4,1.8A1.5,1.5,0,0,1,274.8,327.8Z"/><path class="cls-11" d="M294.6,296.3a27.7,27.7,0,0,1,4.8-2.6l1.8-.9-1.5,1.4a4.4,4.4,0,0,0-1.5,3.8,4.7,4.7,0,0,0,.6,2c.4.6.9,1.1,1.3,1.6a4,4,0,0,1-1.6-1.4,4.3,4.3,0,0,1-.9-2.2,4.5,4.5,0,0,1,.6-2.8,5.3,5.3,0,0,1,1.1-1.4l.3.4A31.1,31.1,0,0,1,294.6,296.3Z"/><path class="cls-11" d="M281.4,287a13,13,0,0,1,1.4-2.6l3.6-6c.7-1.2,1.3-2.3,2-3.3a7.2,7.2,0,0,1,2.3-2.3,3.8,3.8,0,0,1,2.1-.5,1.1,1.1,0,0,1,.8.3h-.8a3.3,3.3,0,0,0-1.9.6c-1.5.9-2.6,3.2-4,5.5l-3.8,6A12.4,12.4,0,0,1,281.4,287Z"/><path class="cls-11" d="M272.9,287a9.9,9.9,0,0,1,.9-2.4c.5-1.4,1.4-3.3,2.4-5.4L279,274a11,11,0,0,1,1.4-2.1,14.7,14.7,0,0,1-1,2.2l-2.7,5.3-2.6,5.3A10.1,10.1,0,0,1,272.9,287Z"/><path class="cls-11" d="M253.1,391.3l-.4,1.3-1.3,3.4c-1.1,2.9-2.6,6.8-4.1,11.2s-3,8.5-3.9,11.4c-.5,1.3-.9,2.5-1.2,3.4a6.9,6.9,0,0,1-.5,1.3l.3-1.4c.2-.8.6-2,1-3.5s2.2-6.9,3.7-11.4,3.1-8.3,4.3-11.2l1.5-3.3A3.4,3.4,0,0,1,253.1,391.3Z"/><path class="cls-11" d="M289.7,423.8a.2.2,0,0,1,0,.3,3.4,3.4,0,0,1-.1.9c-.1.9-.3,2.1-.5,3.7s-.5,3.5-1,5.7a47.6,47.6,0,0,1-2,7.4,25.4,25.4,0,0,1-4.9,8,35.9,35.9,0,0,1-8.3,6.7,50.3,50.3,0,0,1-11,4.6,25.7,25.7,0,0,1-6.2.8,17.2,17.2,0,0,1-6.4-1.1,23.1,23.1,0,0,1-10.2-7.5,37.7,37.7,0,0,1-5.9-10.3,99.9,99.9,0,0,1-3.3-10.2c-1-3.1-1.9-6.1-2.8-8.8-1.7-5.5-3-9.9-3.8-13l-.9-3.5-.2-1v-.3a.4.4,0,0,1,.1.3l.3.9c.2.9.6,2.1,1,3.6.9,3,2.2,7.4,4,12.8.8,2.8,1.8,5.7,2.8,8.9s1.9,6.7,3.3,10.1a37.4,37.4,0,0,0,5.8,10.1,22.3,22.3,0,0,0,10,7.4,18,18,0,0,0,6.2,1.1,21.5,21.5,0,0,0,6.1-.9,48.1,48.1,0,0,0,10.8-4.4,37.1,37.1,0,0,0,8.2-6.6,24.2,24.2,0,0,0,4.8-7.8,47.1,47.1,0,0,0,2.2-7.3c.4-2.2.8-4.2,1.1-5.7s.5-2.8.6-3.6l.2-1Z"/></g><g id="freepik--Plant--inject-2"><path class="cls-1" d="M83.6,407.6c-1-3.4-3.1-6.7-6.4-8.1s-7.3-.7-10.8.6-6.9,3-10.6,3.2-7.9-1.5-9-5.1.9-6.8,3.5-9.3a21.9,21.9,0,0,1,31,.6,21.4,21.4,0,0,1,4.9,8"/><g class="cls-14"><path d="M83.6,407.6c-1-3.4-3.1-6.7-6.4-8.1s-7.3-.7-10.8.6-6.9,3-10.6,3.2-7.9-1.5-9-5.1.9-6.8,3.5-9.3a21.9,21.9,0,0,1,31,.6,21.4,21.4,0,0,1,4.9,8"/></g><path class="cls-1" d="M113,422.5c5.4-5.2,5.2-14.1,2.4-21.1s-8.6-12.4-15.2-16a48.6,48.6,0,0,0-42.1-1.3,20,20,0,0,1,16.2,9.5c3,4.9,3.6,10.9,6.1,16.1A25.4,25.4,0,0,0,113,422.5"/><path class="cls-1" d="M115.6,391.5c6-7.1,6.8-18.5,5.9-27.8s-3-18.6-1.5-27.8c.8-5.5,2.9-10.6,3.7-16.1s-.3-11.7-4.6-15.2-12.5-3.1-17.5.7-8,9.8-10.2,15.8c-4.7,13.1-6.4,27.6-2.6,41s13,25.3,26.4,29.4"/><path class="cls-7" d="M118.5,449.8v-3.2c-.1-2-.3-5-.7-8.6a111.7,111.7,0,0,0-2.4-12.6,55.4,55.4,0,0,0-5.7-14.6,61.4,61.4,0,0,0-19.2-20.7,44.5,44.5,0,0,0-4.2-2.6L83,385.8l-2.2-.9-.8-.3.7.4,2.2,1,3.3,1.8a29.9,29.9,0,0,1,4.1,2.6,60.5,60.5,0,0,1,18.9,20.7c5.5,9.6,7.1,19.8,8.2,27,.5,3.6.7,6.5.9,8.5V449A2.5,2.5,0,0,0,118.5,449.8Z"/><path class="cls-1" d="M170.4,363.5c11.1,6.7,11.1,12.8,9.2,18.7s-8.6,9.7-14.3,7.6c-3.2-1.2-5.5-4-7.5-6.8s-3.9-5.8-6.6-7.8-6.8-2.8-9.6-.8"/><g class="cls-14"><path d="M170.4,363.5c11.1,6.7,11.1,12.8,9.2,18.7s-8.6,9.7-14.3,7.6c-3.2-1.2-5.5-4-7.5-6.8s-3.9-5.8-6.6-7.8-6.8-2.8-9.6-.8"/></g><path class="cls-1" d="M178.7,370.8c-2.9-4-10.1-5.2-14.6-3.2s-7.9,6-10.9,10-5.8,8.2-10,11-9.8,3.8-14,1a12.3,12.3,0,0,1-4.7-8.3,26.5,26.5,0,0,1,.6-9.7c1-4.6,2.6-9.5,6.4-12.5s9.9-3.4,15.2-3.3,12.3.7,18,2.8,11.6,6.7,14,12.3"/><path class="cls-7" d="M127.8,440.9v-1c0-.7,0-1.6.1-2.8s.2-5.9.3-10.1.3-9.4.6-15.1.7-11.9,1.6-18.4a76.2,76.2,0,0,1,1.8-9.3,59,59,0,0,1,3.4-8.2,48.3,48.3,0,0,1,4.4-6.7,38.7,38.7,0,0,1,4.7-5.2,32.2,32.2,0,0,1,8.3-5.7l1.4-.6,1.1-.5.7-.2h0l-.7.2-1.1.4-1.5.7a36.4,36.4,0,0,0-8.5,5.5,46,46,0,0,0-4.7,5.2,41.5,41.5,0,0,0-4.4,6.8,50.3,50.3,0,0,0-3.5,8.3,58,58,0,0,0-1.9,9.4c-.8,6.5-1.2,12.7-1.5,18.4s-.5,10.8-.6,15.1-.1,7.7-.1,10.1v3.5A.4.4,0,0,0,127.8,440.9Z"/><path class="cls-7" d="M123.7,445.9a28.5,28.5,0,0,0,1.3-4.8,54.5,54.5,0,0,0,.5-13.4,91.7,91.7,0,0,0-4.3-19.5c-2.3-7.2-5.4-14.8-8-23.1a99.3,99.3,0,0,1-3.2-12.2,89.9,89.9,0,0,1-1.6-11.6,188.8,188.8,0,0,1-.4-19.9c.2-5.7.5-10.3.7-13.5.1-1.5.2-2.7.2-3.6v-1a.2.2,0,0,0,0-.3v.3a3.8,3.8,0,0,1-.1,1,28.7,28.7,0,0,1-.3,3.6c-.2,3.2-.6,7.8-.8,13.5a188.7,188.7,0,0,0,.2,19.9c.4,3.9.9,7.8,1.6,11.7a111.4,111.4,0,0,0,3.2,12.3c2.7,8.2,5.8,15.9,8.1,23a92.2,92.2,0,0,1,4.3,19.4,50.2,50.2,0,0,1-.3,13.4c-.3,1.5-.6,2.7-.8,3.5s-.1.7-.2,1Z"/><polygon class="cls-12" points="96.1 450.9 148.4 450.9 149.6 440.9 96.1 440.9 96.1 450.9"/><polygon class="cls-12" points="142.8 449.8 136.3 480 107.9 480 101.7 449.8 142.8 449.8"/><path class="cls-12" d="M96.1,450.9c0,.2,11.5.2,25.7.2s25.7-.2,25.7-.3-11.5-.2-25.7-.2S96.1,450.8,96.1,450.9Z"/><path class="cls-7" d="M105.1,465.8a25.9,25.9,0,0,1,4.6-2.6,15.5,15.5,0,0,1,5.6-1.1,18,18,0,0,1,6.9,1.3c2.4.8,4.6,1.7,6.8,2.2a16.2,16.2,0,0,0,5.8.2,12.9,12.9,0,0,0,3.8-1.2l.9-.6.3-.2-1.3.6a9.7,9.7,0,0,1-3.7,1,15.6,15.6,0,0,1-5.7-.2c-2.1-.6-4.3-1.5-6.8-2.3a18.5,18.5,0,0,0-7-1.3,15.8,15.8,0,0,0-5.7,1.3,14.5,14.5,0,0,0-3.4,2,2.7,2.7,0,0,0-.8.7Z"/><path class="cls-4" d="M105.5,467.8a24.3,24.3,0,0,1,4.4-2.6,16.2,16.2,0,0,1,5.4-1.1,22,22,0,0,1,6.7,1.2c2.3.8,4.4,1.7,6.5,2.2a16,16,0,0,0,5.7.7,10.2,10.2,0,0,0,3.7-1l.8-.6.3-.2-1.2.6a9.5,9.5,0,0,1-3.7.8,16.4,16.4,0,0,1-5.4-.7c-2.1-.6-4.2-1.5-6.5-2.3a17.9,17.9,0,0,0-6.9-1.1,14.5,14.5,0,0,0-8.7,3.2,2.7,2.7,0,0,0-.8.7Z"/><path class="cls-4" d="M104.6,463.8a27.8,27.8,0,0,1,4.7-2.8,18.9,18.9,0,0,1,5.7-1.3,17.6,17.6,0,0,1,7.2,1.2,57.3,57.3,0,0,0,7,2.3,20.1,20.1,0,0,0,6,0,12.7,12.7,0,0,0,3.9-1.2l.9-.6.3-.3-1.3.7a16.6,16.6,0,0,1-3.8,1.1,19.4,19.4,0,0,1-5.9-.1c-2.4-.7-4.7-1.4-7-2.3a18.2,18.2,0,0,0-7.3-1.3,18.4,18.4,0,0,0-9.3,3.6l-.9.8Z"/><path class="cls-7" d="M95.7,451c0,.1,11.7.2,26.2.2s26.3-.1,26.3-.2-11.8-.3-26.3-.3S95.7,450.8,95.7,451Z"/></g><path class="cls-15" d="M302.1,133.5a1.3,1.3,0,0,0-1.3,1.2,1.2,1.2,0,0,0,1.3,1.2,1.2,1.2,0,0,0,1.2-1.2A1.3,1.3,0,0,0,302.1,133.5Z"/><path class="cls-15" d="M289.9,133.5a1.3,1.3,0,0,0-1.3,1.2,1.2,1.2,0,0,0,1.3,1.2,1.2,1.2,0,0,0,1.2-1.2A1.3,1.3,0,0,0,289.9,133.5Z"/><path class="cls-15" d="M322.5,159.8a9.8,9.8,0,0,0,1.5-5.2,8.3,8.3,0,0,0-3.1-6.5,7.4,7.4,0,0,0,.7-3.2,9.3,9.3,0,0,0-4.9-8.1,7.4,7.4,0,0,0-5.6-8,8.8,8.8,0,0,0-7.8-5.4,8.5,8.5,0,0,0-7.3,4.4,8.7,8.7,0,0,0-7.4-4.4,8.9,8.9,0,0,0-7.8,5.4,7.3,7.3,0,0,0-5.5,8,8.7,8.7,0,0,0-4.3,11.3,8.3,8.3,0,0,0-3.1,6.5,9.1,9.1,0,0,0,1.6,5.2,8.9,8.9,0,0,0-1.6,4.9,8.3,8.3,0,0,0,2.6,6.1c-.9,5,3.2,10.2,8.4,10.2h.1a9.6,9.6,0,0,0,17-.5,9.8,9.8,0,0,0,8.5,5.4,9.7,9.7,0,0,0,8.4-4.9h.2a8.8,8.8,0,0,0,8.5-8.9,5.7,5.7,0,0,0-.1-1.3,8.6,8.6,0,0,0,2.5-6.1A8.8,8.8,0,0,0,322.5,159.8Zm-27.8-17.9a4,4,0,0,0-2.4-.7,1.2,1.2,0,0,0,0,2.4,2.4,2.4,0,0,1,2.4,2.5v23.2a9.3,9.3,0,0,0-7.3-3.3,1.2,1.2,0,1,0,0,2.4,7.3,7.3,0,0,1,7.3,7.3,7.6,7.6,0,0,1-7.3,7.7,7.4,7.4,0,0,1-6.6-4.2,1.1,1.1,0,0,0-1.2-.7h-.3c-3.5.5-7.4-3.5-6.3-7.9a1.4,1.4,0,0,0-.4-1.2,6.3,6.3,0,0,1-2.3-4.7,6.9,6.9,0,0,1,.9-3.1,8.3,8.3,0,0,0,5.2,1.9,1.2,1.2,0,1,0,0-2.4,6.4,6.4,0,0,1-6.1-6.5,6,6,0,0,1,2.9-5.1,1.4,1.4,0,0,0,.4-1.7,6,6,0,0,1-.8-2.9c0-3.3,2.7-6.5,6.1-6.5a6.5,6.5,0,0,1,6.1,6.5,1.2,1.2,0,1,0,2.4,0c0-4.9-3.9-9-8.5-9h-1.2a4.9,4.9,0,0,1,8.3-3.4,1.2,1.2,0,1,0,1.7-1.7,7.8,7.8,0,0,0-4-2.1,6.1,6.1,0,0,1,4.9-2.9,6.4,6.4,0,0,1,6.1,6.5Zm20.8,21.6a8.3,8.3,0,0,0,5.2-1.9,5.9,5.9,0,0,1,.9,3.1,6.2,6.2,0,0,1-2.2,4.7,1.1,1.1,0,0,0-.4,1.2,8.9,8.9,0,0,1,.2,1.5c0,3.8-3.5,6.8-6.6,6.4h-.2a1.3,1.3,0,0,0-1.3.7,7.4,7.4,0,0,1-6.6,4.2,7.6,7.6,0,0,1-7.3-7.7,7.3,7.3,0,0,1,7.3-7.3,1.2,1.2,0,1,0,0-2.4,9.5,9.5,0,0,0-7.3,3.3V146.1a2.5,2.5,0,0,1,2.4-2.5,1.2,1.2,0,0,0,0-2.4,4,4,0,0,0-2.4.7v-9.6a6.4,6.4,0,0,1,6.1-6.5,6.3,6.3,0,0,1,5,2.9,7.7,7.7,0,0,0-4.1,2.1,1.2,1.2,0,1,0,1.7,1.7,5.2,5.2,0,0,1,3.5-1.4,4.8,4.8,0,0,1,4.9,4.8h-1.2a8.9,8.9,0,0,0-8.6,9,1.3,1.3,0,0,0,1.2,1.2,1.2,1.2,0,0,0,1.2-1.2,6.5,6.5,0,0,1,6.2-6.5c3.4,0,6.1,3.2,6.1,6.5a5.2,5.2,0,0,1-.9,2.9,1.4,1.4,0,0,0,.4,1.7,6,6,0,0,1,2.9,5.1,6.4,6.4,0,0,1-6.1,6.5,1.2,1.2,0,0,0,0,2.4Z"/><path class="cls-15" d="M292,149.5a1.2,1.2,0,0,0-1.7-.1,6.1,6.1,0,0,1-10.2-4.5,1.2,1.2,0,1,0-2.4,0,8.6,8.6,0,0,0,7.1,8.4,3.6,3.6,0,0,1-3.5,2.5,1.3,1.3,0,0,0-1.2,1.3,1.3,1.3,0,0,0,1.2,1.2,6.1,6.1,0,0,0,6-5,8.1,8.1,0,0,0,4.6-2.1A1.2,1.2,0,0,0,292,149.5Z"/><path class="cls-15" d="M278.9,170.8a1.2,1.2,0,0,0-1.2,1.3,1.2,1.2,0,0,0,1.2,1.2,6.5,6.5,0,0,1,6.1,6.5,1.2,1.2,0,0,0,2.4,0C287.4,174.9,283.5,170.8,278.9,170.8Z"/><path class="cls-15" d="M288.6,161.1a11.1,11.1,0,0,0-9.5,5.5,1.3,1.3,0,0,0,.5,1.7,1.3,1.3,0,0,0,1.6-.4,8.5,8.5,0,0,1,7.4-4.4,1.2,1.2,0,1,0,0-2.4Z"/><path class="cls-15" d="M310.6,155.8a3.7,3.7,0,0,1-3.5-2.5,8.6,8.6,0,0,0,7.2-8.4,1.3,1.3,0,0,0-1.2-1.3,1.3,1.3,0,0,0-1.3,1.3,6.1,6.1,0,0,1-6.1,6.1,5.9,5.9,0,0,1-4-1.6,1.4,1.4,0,0,0-1.8.1,1.2,1.2,0,0,0,.1,1.7,8.1,8.1,0,0,0,4.6,2.1,6.2,6.2,0,0,0,6,5,1.2,1.2,0,0,0,1.2-1.2A1.2,1.2,0,0,0,310.6,155.8Z"/><path class="cls-15" d="M313.1,170.8a8.9,8.9,0,0,0-8.6,9,1.3,1.3,0,0,0,1.2,1.2,1.2,1.2,0,0,0,1.2-1.2,6.5,6.5,0,0,1,6.2-6.5,1.3,1.3,0,0,0,1.2-1.2A1.3,1.3,0,0,0,313.1,170.8Z"/><path class="cls-15" d="M312.8,166.6a11,11,0,0,0-9.5-5.5,1.2,1.2,0,0,0,0,2.4,8.4,8.4,0,0,1,7.4,4.4,1.4,1.4,0,0,0,1.7.4A1.2,1.2,0,0,0,312.8,166.6Z"/><circle class="cls-1" cx="190.8" cy="54.8" r="37"/><circle class="cls-1" cx="392.7" cy="54.7" r="37"/><ellipse class="cls-1" cx="90.9" cy="146.3" rx="35.9" ry="36.6"/><ellipse class="cls-1" cx="497.6" cy="145.2" rx="35.9" ry="36.6"/><ellipse class="cls-1" cx="147.9" cy="232.9" rx="36.2" ry="36.6"/><ellipse class="cls-1" cx="427.4" cy="230.5" rx="37.7" ry="37.8"/><path class="cls-6" d="M141.9,241.4h3.8V224.6h-3.9v-4.3h8.6v21.1h3.5v4.1h-12Z"/><path class="cls-6" d="M417.3,225.4c.1-5.4,5.1-7.7,9.7-7.7s10.6,2.1,10.6,8.1-4.9,7.6-10.2,7.6c-2,0-5.4.5-5.4,3.3v2.1h15.6v4.5H417.2v-6.7c0-5.8,5.3-7.5,10.2-7.5,1.9,0,5.4-.3,5.4-3.2s-2.4-4.1-5.7-4.1-5,1.3-5.1,3.6Z"/><path class="cls-6" d="M87.1,147.9V144h3.7c2.5,0,5.2-.7,5.2-3s-1.1-3.4-5.1-3.4c-2.3,0-5.3.8-5.3,3.1H80.9c0-5.4,5.4-7.4,10-7.4s9.9,2.3,9.9,7.7a5.1,5.1,0,0,1-3.5,4.9,6,6,0,0,1,4.1,5.3c0,6.2-5.8,8-10.6,8s-10.3-2-10.3-7.7h4.7c0,2.6,3.5,3.5,5.6,3.5s5.6-1,5.6-3.7-.8-3.4-5.4-3.4Z"/><path class="cls-6" d="M505.5,132.6v15.8h2.9V153h-2.9v4.8h-4.7V153H487.3l-.4-4.8,11.3-15.6Zm-4.7,15.8V136.8l-8.5,11.6Z"/><path class="cls-6" d="M198.5,46.8H184.9v4.4h4.9c5.3,0,10.1,2.2,10.1,8.1s-4.8,8.4-9.9,8.4-10.3-1.9-10.3-7.8h4.7c0,2.7,3.2,3.5,5.6,3.5s5.2-1.1,5.2-4.1-2.8-3.7-5.4-3.7h-9.6V42.3h18.3Z"/><path class="cls-6" d="M386.9,49.9v3.8c1.1-1.7,3.9-2.7,5.8-2.7,5.1,0,10.4,2.2,10.4,8.4s-5.3,8.4-10.4,8.4-10.5-2.8-10.5-8.4V50c0-5.7,5.2-8.3,10.4-8.3s10.3,2.2,10.3,7.5h-4.8c0-2.3-2.8-3.4-5.5-3.4s-5.7,1.5-5.7,4.3Zm11.5,9.5c0-2.7-2.5-4.2-5.7-4.2s-5.8,1.4-5.8,4.2,2.7,4.1,5.8,4.1S398.4,62.2,398.4,59.4Z"/></svg>