<svg id="_1" data-name="1" xmlns="http://www.w3.org/2000/svg" viewBox="0 0 580 480"><defs><style>.cls-1{fill:#ced9d7;}.cls-2{fill:#ebebeb;}.cls-3{fill:#2b4751;}.cls-4{fill:#20e57e;}.cls-5{opacity:0.3;}.cls-6{fill:#f5f5f5;}.cls-7{fill:#455a64;}.cls-8{fill:#b78876;}.cls-9{fill:#a36957;}.cls-10{fill:#ffbe9d;}.cls-11{fill:#009e9e;}.cls-12{fill:#eb996e;}.cls-13{fill:#fafafa;}.cls-14{opacity:0.2;}</style></defs><path class="cls-1" d="M113.37,432.25c1.16-4.9-1.87-9.79-5.24-13.32s-7.42-6.67-9.19-11.36c-2.81-7.52.88-17.44-4-23.76-2.81-3.69-8-4.91-10.52-8.88a21.66,21.66,0,0,1-2.26-7.11,74.14,74.14,0,0,0-17-33.55A66.21,66.21,0,0,0,72,366.66c2,4,4.4,7.85,5.07,12.28,1.1,7.22-2.64,14.69-.94,21.77C78,408.81,86.57,414.24,87,422.54c.38,7-5.35,13.29-4.88,20.34a20,20,0,0,0,3,8.34c5.15,9,12.65,15.26,24,15l13.93.44Z"/><path class="cls-1" d="M126,466.74a10.34,10.34,0,0,0,3.84-.11,21.58,21.58,0,0,0,4.51-1.25,18.56,18.56,0,0,0,5.62-3.3,8.36,8.36,0,0,0,2.29-3.28,15.94,15.94,0,0,0,.62-4.51,48.14,48.14,0,0,1,.31-4.81,13.69,13.69,0,0,1,1.62-4.81c1.63-3.1,4.33-6,5.18-10.22s.23-8.57-.45-13.05-1.32-9.32.26-14,4.5-8.89,6-14.15.75-11,1-16.63a23.71,23.71,0,0,1,1.77-8.28c1.11-2.64,2.66-5.14,3.87-7.92,2.44-5.62,2.81-12,3.48-18.21q.47-4.69,1-9.51a48.62,48.62,0,0,1,1.49-9.53,87.16,87.16,0,0,1,3.28-9.23,31,31,0,0,0,1.58-4.83c.23-1.7.37-3.41.43-5.12a63.28,63.28,0,0,0-.43-10.3c-.39-3.43-1-6.84-1.4-10.28v-.59l-.07-.69-.58.31a22,22,0,0,0-7.45,6.81,36.92,36.92,0,0,0-4.55,9.1c-2.3,6.42-3.1,13.12-4.22,19.54s-2.59,12.7-5.62,18c-1.52,2.65-3.35,5.08-4.95,7.68a21.72,21.72,0,0,0-3.42,8.51c-.79,6.3,2.49,11.8,1.84,17.39a20,20,0,0,1-2.5,7.75c-1.25,2.37-2.73,4.6-4.12,6.82a45.56,45.56,0,0,0-3.7,6.89,22.9,22.9,0,0,0-1.67,7.51c-.31,5,.38,9.79,0,14.28A34.28,34.28,0,0,1,127.49,425c-1.66,3.67-3.52,7-5.06,10.23-.78,1.54-1.47,3.13-2.1,4.75a24.36,24.36,0,0,0-1.19,4.72,31.76,31.76,0,0,0,0,8.49,22.35,22.35,0,0,0,4,10.81,11.68,11.68,0,0,0,1.14,1.29,5.19,5.19,0,0,0,.92.83c.52.4.8.59.8.59a18.69,18.69,0,0,1-2.72-2.83,22.61,22.61,0,0,1-3.82-10.73,31.42,31.42,0,0,1,.13-8.39,23.25,23.25,0,0,1,1.21-4.6c.63-1.6,1.34-3.17,2.12-4.69,1.56-3.19,3.44-6.5,5.14-10.19a35,35,0,0,0,3.49-12.48c.34-4.59-.34-9.37,0-14.27a22.36,22.36,0,0,1,1.63-7.23,44.06,44.06,0,0,1,3.61-6.79c1.41-2.21,2.81-4.44,4.22-6.87a21.41,21.41,0,0,0,2.61-8.06c.64-6-2.61-11.49-1.81-17.35a20.82,20.82,0,0,1,3.3-8.13c1.58-2.56,3.42-5,5-7.71,3.13-5.49,4.64-11.91,5.76-18.34s1.95-13.08,4.22-19.35a35.91,35.91,0,0,1,4.43-8.87,20.92,20.92,0,0,1,7.15-6.52L171,283v.6c.38,3.47,1,6.89,1.41,10.28a63.76,63.76,0,0,1,.42,10.15c-.08,1.65-.17,3.4-.39,5a32.51,32.51,0,0,1-1.55,4.65,92.17,92.17,0,0,0-3.3,9.33,52,52,0,0,0-1.52,9.7q-.47,4.8-.93,9.51c-.63,6.27-1,12.53-3.39,17.95-1.16,2.71-2.71,5.2-3.85,7.94a24.08,24.08,0,0,0-1.82,8.57c-.27,5.76.46,11.36-1,16.46s-4.43,9.32-5.94,14.13-.91,9.89-.22,14.33,1.4,8.84.52,12.8-3.42,6.9-5.08,10.09a14.59,14.59,0,0,0-1.78,5,43.89,43.89,0,0,0-.27,4.87,16.23,16.23,0,0,1-.56,4.33,8,8,0,0,1-2.15,3.15,18.55,18.55,0,0,1-5.43,3.31,21.85,21.85,0,0,1-4.45,1.32,16.68,16.68,0,0,1-2.82.32Z"/><path class="cls-1" d="M169.06,291.11a1.39,1.39,0,0,0-.14.45,7.36,7.36,0,0,1-.3,1.35c-.27,1.17-.59,3-1.1,5.16s-1.78,4.7-2.81,7.79-2.22,6.59-3.24,10.52-2,8.39-2.93,13.12a57,57,0,0,1-4.37,14.55c-1.13,2.44-2.4,4.89-3.4,7.52a36.13,36.13,0,0,0-2,8.55q-1,9.11-2.9,18c-2.72,12.21-5.32,23.84-7.69,34.44s-4.61,20.07-6.45,28.1-3.29,14.49-4.31,19c-.47,2.18-.85,3.91-1.11,5.17-.12.54-.2,1-.27,1.34a1.85,1.85,0,0,0,0,.47,1.15,1.15,0,0,1,.15-.44l.35-1.32,1.28-5.13c1.1-4.51,2.65-11,4.56-18.88s4.13-17.51,6.63-28.05,5-22.18,7.69-34.34a182.12,182.12,0,0,0,2.9-18,36.53,36.53,0,0,1,1.88-8.34c1-2.61,2.22-5.05,3.35-7.52a57.92,57.92,0,0,0,4.37-14.77c.93-4.75,1.8-9.14,2.81-13.11s2.05-7.52,3.11-10.52,2.22-5.61,2.73-7.9.71-4,.94-5.21l.21-1.36A2.29,2.29,0,0,0,169.06,291.11Z"/><path class="cls-2" d="M128.46,466.78c9.07-5.85,11.58-23.41,7.73-33.93s-10.54-20.14-11.63-31.4c-.83-8.65,1.78-17.54-.15-26-2.61-11.4-13.07-20.18-13-31.92,0-6.58,3.5-12.79,3.19-19.37-.39-8.06-6.21-14.44-9.84-21.52-5.54-10.84-6-23.7-7.91-35.88s-6.36-25.22-16.5-31.16c-1.41,10.37-4,17.48-3.07,31.49.31,5,5.83,14.66,6.64,25.69.47,6.6.83,13.2,1.23,19.8s.83,13,3,19c1.67,4.6,4.36,8.77,5.62,13.53,2.35,9-.63,18.66,1.28,27.71,1.62,7.66,6.62,14.25,7.69,22,1.41,10.93-5.09,22.34-1.64,32.76,1.71,5.17,5.72,9.31,6.89,14.66.9,4.15,0,8.54.77,12.7,1.32,6.7,13.33,12.3,19.68,11.85"/><path class="cls-1" d="M82.88,245.87a5.8,5.8,0,0,0,0,.59,15.37,15.37,0,0,0,.23,1.7c.21,1.5.46,3.68.94,6.52s1.93,6,3,9.94,2.36,8.3,3.41,13.29,2,10.52,2.9,16.43,2,12.4,4.76,18.58c1.3,3.1,2.75,6.19,3.83,9.5a45.78,45.78,0,0,1,2,10.52c.56,7.59,1.5,15.15,2.81,22.63l8.08,43.22c2.62,13.23,5,25.15,7,35.19s3.63,18,4.76,23.71l1.41,6.43c.14.69.27,1.25.37,1.67s.14,1,.15,1a8.85,8.85,0,0,0,0-1c-.07-.43-.17-1-.28-1.7-.28-1.5-.68-3.69-1.17-6.46-1.08-5.68-2.61-13.78-4.5-23.77s-4.21-22-6.76-35.23-5.17-27.89-8-43.21A226.91,226.91,0,0,1,105,332.85a46.23,46.23,0,0,0-2-10.7c-1.13-3.37-2.59-6.49-3.88-9.56-2.82-6.09-3.77-12.45-4.78-18.35s-1.92-11.46-3-16.45c-1-4.5-2.15-9-3.54-13.32-1.18-3.88-2.61-7.05-3.18-9.83s-.82-5-1.11-6.48c-.12-.69-.22-1.25-.29-1.68A1.88,1.88,0,0,0,82.88,245.87Z"/><g id="freepik--Plant--inject-2"><path class="cls-3" d="M448.92,439a3.76,3.76,0,0,0-.31-.87l-1-2.54a65.06,65.06,0,0,1-2.91-10.09c-1.87-9-2.21-22.55,1.4-38.55a217.51,217.51,0,0,1,7.47-25.67c3.09-9.1,6.67-18.75,9.67-29.19s5.4-21.77,5.34-33.75-3-24.06-6.31-36.08-6.71-23.86-7.49-35.63a57,57,0,0,1,7-32.42c5.11-9.36,11.44-17.29,16.23-25.56a93.78,93.78,0,0,0,10-24.77A99.73,99.73,0,0,0,489.8,105a77,77,0,0,0-3.39-13.86,6.18,6.18,0,0,0,.2.93c.17.64.39,1.5.69,2.64a103.66,103.66,0,0,1,2.05,10.36,101.1,101.1,0,0,1-2.08,38.55,93.75,93.75,0,0,1-10,24.45c-4.79,8.2-11.13,16.09-16.35,25.56a58,58,0,0,0-7.24,33.07c.79,12,4.22,23.84,7.52,35.88s6.23,24.06,6.3,35.78a121,121,0,0,1-5.26,33.37c-2.95,10.41-6.48,20.06-9.56,29.17a213.45,213.45,0,0,0-7.31,25.81c-3.54,16.13-3.07,29.85-1.06,38.84a60.52,60.52,0,0,0,3.14,10.09l1.13,2.48A5.14,5.14,0,0,0,448.92,439Z"/><path class="cls-4" d="M471.58,176.7s10.18-31.28-5.84-50.34a1,1,0,0,0-1.45-.1,1.16,1.16,0,0,0-.33.59C462.92,132,461.35,147.88,471.58,176.7Z"/><path class="cls-3" d="M467.23,137a29.25,29.25,0,0,0,.45,5.84c.47,4,1.05,8.78,1.68,14l1.66,14a34.19,34.19,0,0,0,.82,5.8,27.52,27.52,0,0,0,0-5.88c-.2-3.62-.65-8.59-1.33-14.08s-1.4-10.42-2-14A28.38,28.38,0,0,0,467.23,137Z"/><path class="cls-4" d="M458.52,250.86s-4.68-32.74-27.18-41.57a1,1,0,0,0-1.36.5,1.19,1.19,0,0,0-.05.81C431.34,215.71,436.89,230.5,458.52,250.86Z"/><path class="cls-3" d="M437.28,217.91a29.64,29.64,0,0,0,3,4.94l7.63,11.53,7.59,11.55a30.26,30.26,0,0,0,3.25,4.73,25.2,25.2,0,0,0-2.58-5.2c-1.75-3.11-4.33-7.29-7.32-11.8s-5.81-8.49-7.91-11.33A25.39,25.39,0,0,0,437.28,217.91Z"/><path class="cls-4" d="M462.26,332.73s4.4-32.79-14.73-48.23a1,1,0,0,0-1.44.19,1.2,1.2,0,0,0-.22.64C445.79,290.63,447.07,306.52,462.26,332.73Z"/><path class="cls-3" d="M451,294.59a31.34,31.34,0,0,0,1.49,5.65l4.21,13.41,4.14,13.41a32.15,32.15,0,0,0,1.82,5.52,26.37,26.37,0,0,0-1-5.78c-.84-3.5-2.17-8.31-3.82-13.53s-3.25-9.93-4.48-13.3A27.05,27.05,0,0,0,451,294.59Z"/><path class="cls-4" d="M442.7,414.28s3.3-32.94-16.34-47.64a1,1,0,0,0-1.43.27,1.14,1.14,0,0,0-.19.63C424.83,372.85,426.64,388.68,442.7,414.28Z"/><path class="cls-3" d="M430.06,376.61a29.06,29.06,0,0,0,1.67,5.57c1.32,3.82,2.88,8.3,4.61,13.25l4.57,13.24a32.43,32.43,0,0,0,2,5.46,25.91,25.91,0,0,0-1.24-5.73c-.95-3.49-2.44-8.24-4.21-13.41s-3.59-9.8-4.94-13.12A27.47,27.47,0,0,0,430.06,376.61Z"/><path class="cls-4" d="M485.68,149.4s27.89-14.4,29.2-40a1.08,1.08,0,0,0-1-1.16,1,1,0,0,0-.61.17C509.13,111.28,497.53,121.29,485.68,149.4Z"/><path class="cls-3" d="M508.92,118a28.38,28.38,0,0,0-3.56,4.51l-8,11.14-8.11,11.14a31,31,0,0,0-3.27,4.72,23.65,23.65,0,0,0,3.9-4.15c2.26-2.7,5.24-6.57,8.43-11s5.89-8.44,7.82-11.41A28.15,28.15,0,0,0,508.92,118Z"/><path class="cls-4" d="M454.21,216.25s28.66-12.55,31.42-38a1.08,1.08,0,0,0-.89-1.23.93.93,0,0,0-.63.13C479.78,179.74,467.63,189,454.21,216.25Z"/><path class="cls-3" d="M479.19,186.43a28,28,0,0,0-3.81,4.24l-8.69,10.63c-3.26,4-6.21,7.51-8.71,10.61a31.2,31.2,0,0,0-3.55,4.51,23.37,23.37,0,0,0,4.14-3.88c2.4-2.56,5.62-6.22,9-10.39s6.37-8,8.44-10.9A26.16,26.16,0,0,0,479.19,186.43Z"/><path class="cls-4" d="M468.24,292.5S488.4,267.35,480,243.34a1,1,0,0,0-1.31-.65,1.05,1.05,0,0,0-.5.41C475.45,247.52,468.56,261.67,468.24,292.5Z"/><path class="cls-3" d="M477.77,253.79a31.11,31.11,0,0,0-1.52,5.62c-.93,3.94-2,8.57-3.2,13.7s-2.32,9.74-3.25,13.68a34.58,34.58,0,0,0-1.24,5.71,25.58,25.58,0,0,0,2-5.46c1.05-3.46,2.33-8.27,3.58-13.63s2.24-10.26,2.81-13.82A28.22,28.22,0,0,0,477.77,253.79Z"/><path class="cls-4" d="M446.38,380.91s28.46-13.07,30.8-38.58a1.08,1.08,0,0,0-.88-1.21,1,1,0,0,0-.64.14C471.37,343.94,459.38,353.38,446.38,380.91Z"/><path class="cls-3" d="M470.88,350.66a29,29,0,0,0-3.74,4.3l-8.52,10.73-8.56,10.75A34.56,34.56,0,0,0,446.6,381a23,23,0,0,0,4.07-3.95c2.37-2.6,5.51-6.32,8.84-10.53s6.23-8.14,8.28-11A26.58,26.58,0,0,0,470.88,350.66Z"/><path class="cls-3" d="M394.37,248.87a2.24,2.24,0,0,0,0,.73v2.12c0,2,0,4.67.09,8,.16,7.06.37,16.91.62,28.71h0c1.65,12,7,25.56,14.24,38.66,5.34,9.7,11,18.52,15.82,26.73a188,188,0,0,1,11.75,22.48,97,97,0,0,1,5.34,16.34c.44,2,.76,3.54.94,4.61a8.75,8.75,0,0,0,.37,1.61,8.29,8.29,0,0,0-.13-1.65c-.11-1.09-.36-2.66-.73-4.68A89,89,0,0,0,437.63,376,179.8,179.8,0,0,0,426,353.38c-4.81-8.27-10.42-17.11-15.73-26.74-7.24-13.1-12.54-26.35-14.27-38.22v.08c-.42-11.79-.79-21.65-1-28.71-.15-3.35-.27-6-.37-8,0-.84-.09-1.5-.14-2.1A2.78,2.78,0,0,0,394.37,248.87Z"/><path class="cls-4" d="M408.84,324.71s-11-31,4.56-50.49a1,1,0,0,1,1.44-.14,1.07,1.07,0,0,1,.34.58C416.35,279.81,418.33,295.61,408.84,324.71Z"/><path class="cls-3" d="M412.19,284.85a26.7,26.7,0,0,0-1.11,5.75c-.53,3.58-1.15,8.54-1.69,14s-.84,10.52-.95,14.11a27.53,27.53,0,0,0,.15,5.88,33.36,33.36,0,0,0,.66-5.82c.38-4.06.82-8.81,1.3-14.05s.95-10,1.33-14.06A31,31,0,0,0,412.19,284.85Z"/><g class="cls-5"><path d="M408.84,324.71s-11-31,4.56-50.49a1,1,0,0,1,1.44-.14,1.07,1.07,0,0,1,.34.58C416.35,279.81,418.33,295.61,408.84,324.71Z"/></g><path class="cls-4" d="M443.45,399.64s-8.58-31.83,8.37-49.94a1,1,0,0,1,1.47,0,1.14,1.14,0,0,1,.29.58C454.35,355.53,455.16,371.45,443.45,399.64Z"/><path class="cls-3" d="M449.81,360.19a26.61,26.61,0,0,0-1.55,5.64c-.8,3.52-1.78,8.4-2.74,13.84s-1.64,10.39-2,14a24.64,24.64,0,0,0-.28,5.88,35.88,35.88,0,0,0,1.09-5.74c.68-4,1.48-8.7,2.35-13.89s1.71-9.89,2.4-13.89A31.65,31.65,0,0,0,449.81,360.19Z"/><g class="cls-5"><path d="M443.45,399.64s-8.58-31.83,8.37-49.94a1,1,0,0,1,1.47,0,1.14,1.14,0,0,1,.29.58C454.35,355.53,455.16,371.45,443.45,399.64Z"/></g><path class="cls-4" d="M394.82,286.85S370,267,373.34,241.61a1,1,0,0,1,1.13-1,1,1,0,0,1,.57.27C378.64,244.63,388.24,256.84,394.82,286.85Z"/><g class="cls-5"><path d="M394.82,286.85S370,267,373.34,241.61a1,1,0,0,1,1.13-1,1,1,0,0,1,.57.27C378.64,244.63,388.24,256.84,394.82,286.85Z"/></g><path class="cls-3" d="M377.64,251.28a28.53,28.53,0,0,0,1.95,5.5c1.41,3.32,3.32,7.86,5.62,12.81s4.54,9.33,6.27,12.46a25.14,25.14,0,0,0,3.1,4.87,33.13,33.13,0,0,0-2.38-5.29L386.28,269c-2.22-4.72-4.21-9-5.92-12.62A29.93,29.93,0,0,0,377.64,251.28Z"/><path class="cls-4" d="M434.15,368.07s-30.44-6.15-38-30.49a1.13,1.13,0,0,1,.63-1.4,1,1,0,0,1,.64,0C402.22,337.79,415.87,344.23,434.15,368.07Z"/><g class="cls-5"><path d="M434.15,368.07s-30.44-6.15-38-30.49a1.13,1.13,0,0,1,.63-1.4,1,1,0,0,1,.64,0C402.22,337.79,415.87,344.23,434.15,368.07Z"/></g><path class="cls-3" d="M404.08,344.23a24.93,24.93,0,0,0,4,4c2.58,2.35,6.21,5.49,10.33,8.84s7.93,6.25,10.77,8.24a22.93,22.93,0,0,0,4.76,2.93,28.58,28.58,0,0,0-4.3-3.64l-10.53-8.51-10.53-8.55A26.46,26.46,0,0,0,404.08,344.23Z"/><polygon class="cls-6" points="461.55 429.24 466.33 473.13 415.63 473.13 422.07 427.91 461.55 429.24"/><path class="cls-3" d="M419.26,447.73c0,.34,10,1,22.41,1.38s22.49.48,22.49.13-10-.94-22.41-1.36S419.28,447.4,419.26,447.73Z"/><path class="cls-3" d="M418,452.88c0,.35,10.35,1,23.14,1.4s23.17.51,23.18.17-10.36-1-23.15-1.4S418,452.46,418,452.88Z"/></g><g id="freepik--Characters--inject-2"><path class="cls-3" d="M225.93,45.36c-10.34-6-26.38-6-37.64,10.75-11.54,17.15-7.29,30.51-4.41,44.55,1.55,7.52,4.85,15.56,2,22.69-3,7.65-11.67,10.52-17.36,16.16a26.15,26.15,0,0,0-5.29,27.55c4.08,9.82,14.06,16.28,16.49,26.69,2.11,8.87-1.92,18.22-7.56,25.1s-12.86,12.1-18.85,18.61-11.06,15-10.57,24c.66,12,10.39,21.05,19.48,28.14,5.47,4.32,11.11,8.6,17.52,11,15.05,5.65,54.89,12.7,69.44,5.71,21.75-10.52,34.82-32.3,49.08-52.75,17.13-24.59,27.86-75.16,1.16-105.93"/><path class="cls-7" d="M150.87,277.4a21.54,21.54,0,0,1-1.06-2.22,17.21,17.21,0,0,1-1.58-7c0-3.21,1.87-6.87,4.81-10a39.6,39.6,0,0,1,11.68-8.45c4.72-2.43,10.18-4.33,15.84-6.81s11.63-5.66,16.11-11.21a24.44,24.44,0,0,0,4.94-9.67,21.16,21.16,0,0,0-.58-11.38,56.25,56.25,0,0,0-5.1-10.81,72.8,72.8,0,0,1-5.63-11.15,26,26,0,0,1-1.72-12.57,14.5,14.5,0,0,1,2.19-5.87,16.84,16.84,0,0,1,4.22-4.32c3.12-2.34,6.5-4,9.22-6.43a15.33,15.33,0,0,0,4.92-9.4,23.6,23.6,0,0,0-.93-10.43,45.34,45.34,0,0,0-4.09-9c-3.22-5.56-6.8-10.33-9.84-14.84a83.38,83.38,0,0,1-11.58-23.3,41.51,41.51,0,0,1-1.63-7,15.07,15.07,0,0,1-.19-2.51s.09.85.37,2.48A46.3,46.3,0,0,0,183,92.38a84.39,84.39,0,0,0,11.77,23c3.09,4.51,6.71,9.23,10,14.82a46.18,46.18,0,0,1,4.22,9.2,24.22,24.22,0,0,1,1,10.83,16,16,0,0,1-5.17,9.93c-2.81,2.57-6.24,4.23-9.25,6.51a15.69,15.69,0,0,0-4,4.09,13.37,13.37,0,0,0-2,5.5,25.14,25.14,0,0,0,1.67,12,72.48,72.48,0,0,0,5.63,11,57.17,57.17,0,0,1,5.17,11,22,22,0,0,1,.58,11.89,25.42,25.42,0,0,1-5.15,10c-4.64,5.7-10.8,8.88-16.45,11.36s-11.14,4.32-15.85,6.69a39.54,39.54,0,0,0-11.59,8.23c-2.94,3-4.76,6.54-4.82,9.65a17.93,17.93,0,0,0,1.41,6.91A20.54,20.54,0,0,1,150.87,277.4Z"/><path class="cls-7" d="M180.73,84.76a3,3,0,0,1-.21-.72,18.74,18.74,0,0,1-.39-2.09,29.7,29.7,0,0,1,0-7.88A33.09,33.09,0,0,1,183.6,63a27.15,27.15,0,0,1,21.7-15.15,27.63,27.63,0,0,1,10.88,1,25.34,25.34,0,0,1,6.75,3.16,14.81,14.81,0,0,1,1.63,1.23,3.09,3.09,0,0,1,.54.48A36.21,36.21,0,0,0,216,49.54a27.87,27.87,0,0,0-10.63-.84A26.8,26.8,0,0,0,184.3,63.43a33,33,0,0,0-3.55,10.75A41.63,41.63,0,0,0,180.73,84.76Z"/><path class="cls-8" d="M301.46,70l69.92,129.73-50.61,40.82L290,193.48s-26.23,13.84-43.14-11.22a442,442,0,0,1-31.36-57c-14.34-31.57-5.86-57.8,18.93-73.47h0C258.86,36.44,286.92,44.07,301.46,70Z"/><path class="cls-9" d="M289.37,193.14s15.8-9.93,24.67-32.53c0,0,4.68,23.67-20.41,39.09Z"/><path class="cls-3" d="M276.91,95.37c-.71-.19-2.13,3.69-5.89,6.21s-7.7,2.38-7.81,3.14c0,.36.88.93,2.64,1a10.71,10.71,0,0,0,6.61-1.9,11.62,11.62,0,0,0,4.33-5.55C277.39,96.59,277.25,95.45,276.91,95.37Z"/><path class="cls-3" d="M239.63,118.27c-.71-.18-2.13,3.7-5.89,6.22s-7.7,2.38-7.81,3.14c0,.35.88.93,2.64,1.05a10.84,10.84,0,0,0,6.61-1.9,11.56,11.56,0,0,0,4.33-5.57C240.1,119.5,240,118.34,239.63,118.27Z"/><path class="cls-9" d="M273.51,150.11a4.76,4.76,0,0,1-1.77-3.39,13.86,13.86,0,0,1,.3-4,9.64,9.64,0,0,1,1.65-4.73,6.56,6.56,0,0,1,3.69-2,6.67,6.67,0,0,1,4.45.24,6.14,6.14,0,0,1,2.9,6.28,8.36,8.36,0,0,1-4.09,5.79,13,13,0,0,1-6.81,1.5"/><path class="cls-3" d="M276.24,133.21c-.61.41,2.15,4.63.74,10.16s-5.91,8.22-5.62,8.84c.11.3,1.48.12,3.28-1.17a12.77,12.77,0,0,0,4.79-7.13,11.85,11.85,0,0,0-.87-8.34C277.62,133.74,276.49,133,276.24,133.21Z"/><path class="cls-3" d="M274.27,85c-.83-1-4.79,1.15-9.91,2.41s-9.56,1.37-9.84,2.71c-.11.63,1,1.5,3,2.07a16.88,16.88,0,0,0,15.06-3.89C274.06,86.8,274.58,85.5,274.27,85Z"/><path class="cls-3" d="M227.07,104.11c-1.28-.09-2.52,3.09-4.92,6.08s-5,5-4.7,6.29c.17.61,1.25.93,2.81.52A11.45,11.45,0,0,0,228,107C228.19,105.26,227.66,104.18,227.07,104.11Z"/><path class="cls-3" d="M264.12,139.51c-.1-.24-2.67.64-6.73,2.25-1,.44-2,.74-2.56.12a6.17,6.17,0,0,1-.84-3.42c-.33-3-.65-6.17-1-9.49-1.51-13.44-3.14-24.28-3.64-24.22s.31,11,1.81,24.48q.59,5,1.14,9.47a7.11,7.11,0,0,0,1.4,4.34,2.68,2.68,0,0,0,2.34.63,8.26,8.26,0,0,0,1.77-.67C261.83,141.07,264.22,139.75,264.12,139.51Z"/><path class="cls-3" d="M320.76,127.47c-1.21,7.51.14,16,.38,23.69s2.94,15.8,9,19.89,15.09,4.25,17.94,11.21c1.21,3,.85,6.39,1.68,9.49,1.2,4.51,4.87,7.9,8.92,9.72a21.91,21.91,0,0,0,3,1.12l5.5,10.08c6.79,12.48,14.33,25.66,26.58,31.69a25.79,25.79,0,0,0,21.4,1.14,21.65,21.65,0,0,0,12.92-17.6c.49-5.94-1.63-11.79-1.72-17.74-.18-12.42,8.44-24.31,5.63-36.33-3.49-14.69-21.39-19.66-28.41-32.82-2.93-5.49-3.74-12-6.6-17.54-5.35-10.34-16.56-15.14-26.64-20a75.1,75.1,0,0,1-9.91-5.69,14.69,14.69,0,0,0,1.41-1.64c4.22-5.62,4.41-14,1.15-20.34A23.2,23.2,0,0,0,346.85,64c-4.32-.84-9-.66-12.74-3.14-4.21-2.77-6.34-8.41-10.85-10.44-3.34-1.5-7.15-.58-10.78-.43-8,.34-16.63-5.79-26.18-12.88-6.81-6-14.48-11.26-23.18-11.76-10.33-.59-19.79,5.7-28.48,11.74-7.87,5.49-16.7,12.87-16.16,22.91h0c10.46,18.93,26.42,36.65,55,21.3,6.59-3.53,16.07-3.74,21,2.14,5.24,6.25,2.32,18.52,9.32,22.32a11.35,11.35,0,0,0,4.67,1.14,13.82,13.82,0,0,1,5.82,3S321.24,118.91,320.76,127.47Z"/><path class="cls-7" d="M334.17,101.33a6.61,6.61,0,0,0,.41-1.39,6.41,6.41,0,0,0-.68-4,8.14,8.14,0,0,0-4.59-4,52.44,52.44,0,0,0-8-1.81,14.21,14.21,0,0,1-4.57-1.78,11.39,11.39,0,0,1-3.69-4c-1.94-3.35-2.82-7.52-4.22-11.41A27.36,27.36,0,0,0,289.9,55.93a24,24,0,0,0-6.7-.68,27,27,0,0,0-6.47,1.2c-4.22,1.3-8,3.22-11.78,4.72A37.89,37.89,0,0,1,253.7,64a36.66,36.66,0,0,1-23.39-6.29,29.26,29.26,0,0,1-3.17-2.5,10.47,10.47,0,0,1-1-1,7,7,0,0,1,1.13.83,38.08,38.08,0,0,0,16.57,7.65,36.51,36.51,0,0,0,9.84.51,38.2,38.2,0,0,0,11-2.81c3.74-1.5,7.57-3.46,11.82-4.79a27.58,27.58,0,0,1,6.66-1.25,24.66,24.66,0,0,1,6.95.69,28.09,28.09,0,0,1,19.48,17.66c1.41,4.06,2.21,8.11,4,11.32A10.94,10.94,0,0,0,317,87.83a13.88,13.88,0,0,0,4.35,1.74,52,52,0,0,1,8,2,8.59,8.59,0,0,1,4.72,4.28,6.45,6.45,0,0,1,.54,4.17A3.6,3.6,0,0,1,334.17,101.33Z"/><path class="cls-7" d="M294.26,42.82a3.49,3.49,0,0,1-.37-.75,14.91,14.91,0,0,0-1-2.15,12.68,12.68,0,0,0-2.15-3,7.71,7.71,0,0,0-4.1-2c-3.42-.55-7.47,1.29-11.1,4.23s-8.16,5.76-12.76,8.77a45.7,45.7,0,0,1-26.61,6.66,41.47,41.47,0,0,1-8.27-1.34c-.95-.24-1.68-.51-2.18-.68a2.83,2.83,0,0,1-.74-.31,23.39,23.39,0,0,1,3,.64,48.49,48.49,0,0,0,8.23,1,46.72,46.72,0,0,0,26.14-6.81c4.56-3,9-5.79,12.66-8.65s8-4.87,11.66-4.19A8,8,0,0,1,291,36.53a12.19,12.19,0,0,1,2.13,3.16A13.64,13.64,0,0,1,294,42,3.26,3.26,0,0,1,294.26,42.82Z"/><path class="cls-10" d="M441,289.82c-15.56,7.52-22.22,11-37.79,13V303l-20.69-53.13c2.21-2.19,4.74-4.85,7.58-8.11a34.08,34.08,0,0,0,5.8-9.58c1.73-4.27,3.8-10,4-13.53.27-4.37,5.37-6.12,7.37-2.77s1.53,15.44-4.77,27.84,12.91,4,20,1Z"/><path class="cls-11" d="M315.35,218.38a45.16,45.16,0,0,1,31.47-18.64c11.16-1.39,20.45-2.72,31.35,2.47,24.29,11.57,28.11,26,41.06,50.78,10.09,19.3,16.45,53.56,13.24,88.12-3.23,35.1-9,79.67-9,79.67l31.68,53.39H291.31V372.89l-54.43-37.58Z"/><path class="cls-10" d="M425.78,256.69l-8.14,16.37c-1.32,2.66-3.2,5.7-6,5.64-2.58,0-4.46-2.94-4.57-5.69a17.64,17.64,0,0,1,2.2-7.8l9.23-19.92.52-1.85s3-5.42,6.46-3.54C428.66,241.6,429.94,248.31,425.78,256.69Z"/><path class="cls-10" d="M431.57,270.17q-4.05,8.18-8.12,16.37c-1.32,2.66-3.21,5.7-6,5.64-2.57,0-4.44-2.93-4.56-5.67a17.35,17.35,0,0,1,2.2-7.81l9.23-19.92.52-1.85s2.95-5.43,6.47-3.55C434.47,255.08,435.73,261.8,431.57,270.17Z"/><path class="cls-10" d="M437,284.06l-7.72,15.53c-1.25,2.51-3,5.4-5.7,5.34-2.43,0-4.22-2.77-4.33-5.38a16.52,16.52,0,0,1,2.09-7.4q4.37-9.43,8.75-18.88l.49-1.76s2.81-5.14,6.13-3.37C439.78,269.74,441,276.1,437,284.06Z"/><path class="cls-10" d="M442,290.84l-5.78,11.56c-.94,1.88-2.26,4-4.22,4a3.93,3.93,0,0,1-3.22-4,12.39,12.39,0,0,1,1.56-5.51l6.51-14.08.37-1.3s2.09-3.84,4.57-2.51S445,284.92,442,290.84Z"/><path class="cls-12" d="M426.85,253.55a16.61,16.61,0,0,1-1.08,2.57L422.53,263l-4.9,10.15a12.1,12.1,0,0,1-4.05,5.38,4.15,4.15,0,0,1-3.57.32,5.78,5.78,0,0,1-2.81-2.5,9.59,9.59,0,0,1-.48-7.32,48.55,48.55,0,0,1,2.7-6.18c1.85-3.76,3.53-7.18,5-10.12s2.53-5,3.4-6.78a15.76,15.76,0,0,1,1.41-2.42,15.82,15.82,0,0,1-1.06,2.59L415,253.05c-1.4,3-3,6.4-4.79,10.21a45.74,45.74,0,0,0-2.59,6,8.62,8.62,0,0,0,.33,6.63,3.88,3.88,0,0,0,5.25,1.85,11.61,11.61,0,0,0,3.73-5l5.07-10c1.41-2.74,2.59-5,3.49-6.74A16.61,16.61,0,0,1,426.85,253.55Z"/><path class="cls-12" d="M432.53,268a15.65,15.65,0,0,1-1.07,2.57c-.84,1.78-1.94,4.09-3.25,6.89l-4.9,10.15a12.1,12.1,0,0,1-4.05,5.38,4.12,4.12,0,0,1-3.57.31,5.71,5.71,0,0,1-2.81-2.49,9.6,9.6,0,0,1-.4-7.4,47.12,47.12,0,0,1,2.69-6.18c1.85-3.76,3.53-7.18,5-10.11s2.53-5,3.42-6.78a14.12,14.12,0,0,1,1.4-2.42,17,17,0,0,1-1.05,2.58l-3.16,6.93L416,277.63a44.48,44.48,0,0,0-2.6,6,8.66,8.66,0,0,0,.32,6.63,3.88,3.88,0,0,0,5.26,1.85,11.67,11.67,0,0,0,3.72-5c1.9-3.74,3.6-7.14,5.08-10.05l3.48-6.74A18.68,18.68,0,0,1,432.53,268Z"/><path class="cls-12" d="M439.05,278.7a20.43,20.43,0,0,1-1.07,2.61l-2.93,7.11c-1.24,3-2.67,6.62-4.52,10.52a14.2,14.2,0,0,1-3.88,5.61,4.19,4.19,0,0,1-3.55.69,5.52,5.52,0,0,1-3-2.28,9.25,9.25,0,0,1-.69-7.44,40,40,0,0,1,2.69-6.27c1.87-3.8,3.55-7.26,5-10.22s2.56-5.08,3.45-6.86a15.21,15.21,0,0,1,1.4-2.45,17.56,17.56,0,0,1-1.07,2.62l-3.19,7-4.85,10.32a40.6,40.6,0,0,0-2.57,6.12,8.34,8.34,0,0,0,.58,6.65,4.67,4.67,0,0,0,2.53,1.91,3.38,3.38,0,0,0,2.88-.56,13.26,13.26,0,0,0,3.61-5.23c1.87-3.83,3.36-7.4,4.67-10.37s2.4-5.37,3.22-7A13.71,13.71,0,0,1,439.05,278.7Z"/><path class="cls-10" d="M343.46,38.38l-5.38.56-30,63.69h0l-10.7,22.72a89.21,89.21,0,0,1-8.85,12.59c-12.46,14.59-48.59,35.3-48.59,35.3l69.5,40.8,37-27.31.1.09s26.88,12.32,42.52-13.67,46.67-89,46.67-89C415,52.11,379.71,34.6,343.46,38.38Z"/><path class="cls-12" d="M346.88,186.46c-14.71-6.48-25.46-20.32-28.72-37,0,0-4,28,21.82,42.09Z"/><path class="cls-10" d="M325.19,68.09c-.3-.47-13.71-16.54-23.66,1.67S312.07,95.51,312.39,95,325.19,68.09,325.19,68.09Z"/><path class="cls-12" d="M309.72,84.26c0-.1-.42,0-1.05,0a3.34,3.34,0,0,1-2.25-1.33c-1.41-1.84-1.27-5.84.44-9.19a12,12,0,0,1,3.31-4,3.8,3.8,0,0,1,3.57-1,1.87,1.87,0,0,1,1.28,2c0,.64-.35,1-.28,1s.54-.08.82-.92a2.56,2.56,0,0,0,0-1.5,2.66,2.66,0,0,0-1.41-1.51,4.61,4.61,0,0,0-4.65.89,12.37,12.37,0,0,0-3.81,4.51c-1.88,3.76-2,8.3,0,10.6a3.53,3.53,0,0,0,3,1.2C309.43,84.68,309.72,84.34,309.72,84.26Z"/><path class="cls-3" d="M394.46,108.65c.7-.26,2.42,3.47,6.37,5.63s7.87,1.66,8,2.41c.11.34-.8,1-2.54,1.29a10.61,10.61,0,0,1-6.74-1.29,11.19,11.19,0,0,1-4.76-5.13C394.07,109.91,394.07,108.75,394.46,108.65Z"/><path class="cls-3" d="M357.52,85.48c.72-.21,2.22,3.62,6,6s7.75,2.17,7.89,3c.07.35-.86,1-2.61,1.13a10.84,10.84,0,0,1-6.67-1.73,11.47,11.47,0,0,1-4.45-5.43C357,86.71,357.11,85.63,357.52,85.48Z"/><path class="cls-3" d="M368.29,132.89c.11-.24,2.71.89,6.8,2.92,1,.53,2.05.93,2.63.35a6.47,6.47,0,0,0,1.14-3.48q.84-4.63,1.74-9.74c2.59-13.78,5.09-24.86,5.62-24.74s-1.15,11.39-3.72,25.18l-1.9,9.69a7.18,7.18,0,0,1-1.85,4.36,2.65,2.65,0,0,1-2.48.45,7.4,7.4,0,0,1-1.77-.85C370.55,134.7,368.17,133.13,368.29,132.89Z"/><path class="cls-3" d="M355.58,128.25c.63.37-1.91,4.75-.24,10.19s6.31,7.88,6,8.51c-.1.32-1.41.19-3.33-1a12.69,12.69,0,0,1-5.15-6.85,11.84,11.84,0,0,1,.45-8.39C354.23,128.82,355.31,128,355.58,128.25Z"/><path class="cls-3" d="M382.33,78.76c-1,.86-4.47-2.18-9.22-4.51S364,70.75,364,69.38c0-.65,1.23-1.26,3.29-1.35a15.9,15.9,0,0,1,7.76,1.88,16.88,16.88,0,0,1,6.18,5.32C382.47,76.94,382.82,78.36,382.33,78.76Z"/><path class="cls-3" d="M415,105.35c-1.2.47-3.24-2.22-6.33-4.36s-6.11-3.23-6.16-4.6c0-.64,1-1.27,2.62-1.36a10.9,10.9,0,0,1,10.06,7.21C415.73,103.91,415.55,105.17,415,105.35Z"/><path class="cls-3" d="M457.33,75.63a12.06,12.06,0,0,0,1.73-10.86,7.46,7.46,0,0,0-8.71-4.9,9.92,9.92,0,0,0-.05-13.36q-.33-.34-.69-.66c-3.84-3-9.14-2-13.66-3.45s-7.9-5.08-10.6-9-4.84-8.41-7.68-12.3C405.23,4,382.22.77,366.09,13.91,361.79,8.53,354,7.36,347.82,10s-10.73,8.45-13.55,14.84a68.21,68.21,0,0,0-4.09,13.63c-.2.33-.42.65-.61,1C321.39,54,313,72,318.69,75.9,328.6,82.79,338,61,338,61c15.26,3.15,22.22-19.55,27-20.54s15.32-3.56,32.81,27.74c6.81,12.16,20.19,20.88,28.47,24.05l.72.29h.43a26,26,0,0,0,8.37,1.5,14.7,14.7,0,0,0,9.22-2.83,9.32,9.32,0,0,0,3.4-9.14A18.48,18.48,0,0,0,457.33,75.63Z"/><path class="cls-13" d="M437.25,68.79a3.78,3.78,0,0,1-1.18-1.11,7.21,7.21,0,0,1-1.23-4.6,8,8,0,0,1,.88-3.4,6.28,6.28,0,0,1,2.9-2.84,8,8,0,0,1,9,2,10.82,10.82,0,0,1,1.29,11.8,12.35,12.35,0,0,1-11.16,6.75,18.43,18.43,0,0,1-13.13-6.26,40.27,40.27,0,0,1-8.43-14c-2-5.29-3.5-10.61-5.19-15.64a59.59,59.59,0,0,0-6.2-13.75l-1-1.5c-.34-.48-.73-.91-1.1-1.36l-1.08-1.32c-.4-.4-.78-.81-1.18-1.19a26.65,26.65,0,0,0-5.11-3.83A25.22,25.22,0,0,0,369,19a28.23,28.23,0,0,0-3.67,2.71,10.9,10.9,0,0,1-1.22,1,20.84,20.84,0,0,1,4.71-4,25.46,25.46,0,0,1,15.88-4.24A26.57,26.57,0,0,1,401,21.73c.42.37.81.79,1.22,1.21l1.12,1.36c.37.45.78.88,1.13,1.38s.66,1,1,1.5a59.61,59.61,0,0,1,6.35,13.94C413.5,46.17,415,51.48,417,56.71a39.59,39.59,0,0,0,8.17,13.69,17.78,17.78,0,0,0,12.54,6,11.62,11.62,0,0,0,10.51-6.26,10.1,10.1,0,0,0-1.05-10.93,7.49,7.49,0,0,0-8.35-1.94,6.73,6.73,0,0,0-3.64,5.78,7.19,7.19,0,0,0,1.07,4.51A14.82,14.82,0,0,0,437.25,68.79Z"/><path class="cls-4" d="M291.31,368.43l44.45-144.5-10.57-21.49L261,157.89c-2.35,1.67-77.31,32.77-99.81,106-16.12,52.51-25.71,160.6-25.71,160.6L127,474.18H291.31V368.43"/><g class="cls-14"><path d="M163.24,421.43c11.83,8.86,23.79,17.8,37.3,23.21s28.93,7,42.17,1c6-2.69,11.87-6.93,18.28-6,7.66,1.07,12.65,8.9,19.16,13.35,3.47,2.38,7.45,5.44,10.6,2.59l.23-12.33c-.16-15.61.26-49.61.26-49.61-.11-1.7,0-.39-.55-.8-2.81-2.13-6.58-.43-9.19,2-12.16,11.34-22.38,25.56-36.9,33.08-12.56,6.5-27.18,7.21-40.91,4.75s-26.85-7.91-39.84-13.32"/></g><path class="cls-4" d="M277.39,214.1s-38.56,30.07-15.21,90.35,44.55,91.49,44.55,91.49l74.69-65.2L368,303.86a142.64,142.64,0,0,1-12.74-37.58c-3.19-17.11-11-43.52-29.67-58.63C314.15,198.53,297.51,201,277.39,214.1Z"/><path class="cls-13" d="M217.42,185.07a30.39,30.39,0,0,1,6.52.68,21.09,21.09,0,0,1,7.24,2.84,14.71,14.71,0,0,1,3.69,3.4,16.5,16.5,0,0,1,2.6,5.12,26.21,26.21,0,0,1,.63,13.19,24.37,24.37,0,0,1-7.2,13c-3.79,3.59-8.59,6-13.15,9.11a33.07,33.07,0,0,0-6.42,5.35,19,19,0,0,0-4.14,7.61c-1.6,5.82-1,11.92-1.41,17.72a34.88,34.88,0,0,1-1.4,8.5A30.85,30.85,0,0,1,201,279a30.14,30.14,0,0,1-10.6,10.11,25.09,25.09,0,0,1-12,3.15,27.58,27.58,0,0,1-16.87-5.78,25.79,25.79,0,0,1-3.65-3.44l-.83-1c-.18-.24-.27-.36-.25-.38a36.23,36.23,0,0,0,4.93,4.51,27.18,27.18,0,0,0,6.78,3.67,26.52,26.52,0,0,0,9.84,1.73A24.52,24.52,0,0,0,190,288.42a29.44,29.44,0,0,0,10.26-9.9A30.68,30.68,0,0,0,204.9,263c.36-5.71-.23-11.86,1.4-17.93a19.74,19.74,0,0,1,4.36-8,32.87,32.87,0,0,1,6.59-5.5c4.63-3,9.38-5.5,13.08-9a23.53,23.53,0,0,0,7-12.54,25.4,25.4,0,0,0-.51-12.81,16.36,16.36,0,0,0-2.43-5A15,15,0,0,0,230.9,189a21.56,21.56,0,0,0-7-3,45.75,45.75,0,0,0-4.76-.81l-1.27-.15A1,1,0,0,1,217.42,185.07Z"/><path class="cls-13" d="M253.2,172.26a4.58,4.58,0,0,1,.66-.36,12.39,12.39,0,0,1,2-.7,13.47,13.47,0,0,1,7.87.48,11.58,11.58,0,0,1,4.64,3.2,12.57,12.57,0,0,1,2.81,6.09,11.62,11.62,0,0,1-1,7.41,10.94,10.94,0,0,1-5.89,5,12.85,12.85,0,0,1-13.68-3.19,13,13,0,0,1-3.1-11.82,11.07,11.07,0,0,1,4.82-6.6,8.81,8.81,0,0,1,2-.88,2.45,2.45,0,0,1,.75-.12,21.35,21.35,0,0,0-2.57,1.3,11.13,11.13,0,0,0-4.39,6.48,12.26,12.26,0,0,0,3.08,11A12.06,12.06,0,0,0,264,192.5a10,10,0,0,0,5.42-4.51,10.88,10.88,0,0,0,1-6.81,12,12,0,0,0-2.56-5.71,11.47,11.47,0,0,0-4.33-3.12,13.83,13.83,0,0,0-7.58-.73C254.17,171.9,253.23,172.35,253.2,172.26Z"/><path class="cls-13" d="M285.83,357.72a9.52,9.52,0,0,0,9.84,4,20.4,20.4,0,0,0,11-7,36.89,36.89,0,0,0,4.84-7,40.27,40.27,0,0,0,3.3-9,38,38,0,0,0-1.29-21.95,43,43,0,0,0-6.09-10.52c-2.47-3.4-5.23-6.77-7.56-10.65a27.68,27.68,0,0,1-4.22-13.3,66.91,66.91,0,0,1,1.41-14.61,57.43,57.43,0,0,0,1.16-14.92,35.49,35.49,0,0,0-8.82-20.64,30.7,30.7,0,0,0-5.63-4.69,21.93,21.93,0,0,0-13.41-3.53,25.73,25.73,0,0,0-6.65,1.32,27.63,27.63,0,0,0-6,3,25.74,25.74,0,0,0-4.86,4.59,21.17,21.17,0,0,0-3.25,5.8,44,44,0,0,0-2.1,12.94,53.27,53.27,0,0,1-1.71,12.51,39.7,39.7,0,0,1-5.38,10.31c-2.07,3-4.15,5.91-5.82,8.84a24.06,24.06,0,0,0-3.2,9,22.54,22.54,0,0,0,.58,8.58,23.31,23.31,0,0,0,3.19,6.69,20.74,20.74,0,0,0,2.1,2.47l1.07,1.05,1.11.87a20.56,20.56,0,0,0,7.5,3.52c.93.2,1.65.26,2.13.36l.73.14a4.45,4.45,0,0,1-.73,0,14.91,14.91,0,0,1-2.17-.27,19.8,19.8,0,0,1-7.66-3.42l-1.14-.85L237,310.35a20.9,20.9,0,0,1-5.48-9.3,22.58,22.58,0,0,1-.66-8.81,24.52,24.52,0,0,1,3.22-9.27c1.65-3,3.75-5.87,5.79-8.92a39.11,39.11,0,0,0,5.24-10.13,53.26,53.26,0,0,0,1.63-12.33,45.44,45.44,0,0,1,2.11-13.21,22.72,22.72,0,0,1,3.37-6,25.89,25.89,0,0,1,5-4.77,27.85,27.85,0,0,1,6.19-3.17,26.05,26.05,0,0,1,6.87-1.39,23.94,23.94,0,0,1,7.1.65,25.39,25.39,0,0,1,6.7,2.92,30.37,30.37,0,0,1,5.78,4.85,34.63,34.63,0,0,1,4.53,6.3,37.29,37.29,0,0,1,4.54,14.9,58.51,58.51,0,0,1-1.18,15.17,66.74,66.74,0,0,0-1.41,14.38,27,27,0,0,0,4.11,12.9c4.57,7.52,10.88,13.53,13.65,21.39a38.59,38.59,0,0,1,1.22,22.39,41,41,0,0,1-3.42,9.2,36.19,36.19,0,0,1-5,7.06,20.65,20.65,0,0,1-11.25,7,10.11,10.11,0,0,1-8-2,8.34,8.34,0,0,1-1.53-1.66A5,5,0,0,1,285.83,357.72Z"/><path class="cls-13" d="M346.62,245.61a3,3,0,0,1-.4.75,12,12,0,0,1-1.41,1.95,17.19,17.19,0,0,1-7.29,4.85,17.72,17.72,0,0,1-12.66-.41,23.89,23.89,0,0,1-11.72-10.88,32.77,32.77,0,0,1-3.66-16.19c.15-5.15,1.16-9.88,3.29-13.16a10.6,10.6,0,0,1,7.13-5,6.63,6.63,0,0,1,2.35,0,2.28,2.28,0,0,1,.79.25,10.73,10.73,0,0,0-3.1,0,10.56,10.56,0,0,0-6.66,5,25.85,25.85,0,0,0-3,12.8,32.22,32.22,0,0,0,3.6,15.7,23.32,23.32,0,0,0,11.24,10.53,17.26,17.26,0,0,0,12.19.58,17.44,17.44,0,0,0,7.24-4.51C346,246.57,346.55,245.55,346.62,245.61Z"/><path class="cls-13" d="M361.54,290.35a12.07,12.07,0,0,0-2.64-2.51,10.32,10.32,0,0,0-9.25-.71c-3.81,1.5-7.24,5.76-9,11.21s-1.87,12-2.61,18.7-1.76,13.07-2.22,18.89a72.36,72.36,0,0,0,.15,15.43,44.27,44.27,0,0,0,2.45,10.06c.87,2.29,1.5,3.47,1.4,3.52a5,5,0,0,1-.52-.83,25.85,25.85,0,0,1-1.23-2.54,41.31,41.31,0,0,1-2.75-10.12,70.14,70.14,0,0,1-.33-15.6c.42-5.86,1.4-12.22,2.15-18.93s.83-13.21,2.71-18.86,5.46-10,9.52-11.56a10.47,10.47,0,0,1,9.64,1,8,8,0,0,1,2,1.95A3.21,3.21,0,0,1,361.54,290.35Z"/><path class="cls-13" d="M132.6,446.67s.29.84,1,2.36a28.19,28.19,0,0,0,3.89,6.13,23.16,23.16,0,0,0,3.76,3.52,10,10,0,0,0,11.93.51,68.64,68.64,0,0,0,6.74-4c4.59-3,9.72-6.61,16.11-8s13.21-1.67,19.76-4.69a35.24,35.24,0,0,0,15.76-16.17,65.57,65.57,0,0,0,6.3-24.57A72.67,72.67,0,0,0,216,376.27a37.4,37.4,0,0,0-4.93-10.87,26.06,26.06,0,0,0-8-7.68c-3.08-1.92-6.33-3.36-9.28-5.26a25.49,25.49,0,0,1-7.42-7.11c-3.88-5.55-6-11.6-8.28-16.82a44.48,44.48,0,0,0-7.79-13,18.78,18.78,0,0,0-9.42-5.62,13.06,13.06,0,0,0-6.85.18c-1.51.53-2.22,1-2.24,1a8.31,8.31,0,0,1,2.19-1.14,12.93,12.93,0,0,1,7-.36,18.92,18.92,0,0,1,9.7,5.61,44.88,44.88,0,0,1,8,13.13c2.34,5.24,4.47,11.25,8.3,16.64a24.65,24.65,0,0,0,7.24,6.87c2.89,1.85,6.13,3.28,9.28,5.22a26.91,26.91,0,0,1,8.28,7.91A38.73,38.73,0,0,1,216.93,376a73.76,73.76,0,0,1,1.87,25.81,67.28,67.28,0,0,1-6.42,24.93,36.09,36.09,0,0,1-16.2,16.53,39.75,39.75,0,0,1-10.2,2.91c-3.36.58-6.64,1-9.73,1.75-6.24,1.36-11.25,4.87-15.94,7.84a69.63,69.63,0,0,1-6.82,4,22.19,22.19,0,0,1-3.36,1.38c-.3.08-.58.18-.86.23l-.86.1a7.86,7.86,0,0,1-1.68,0,11.64,11.64,0,0,1-5.63-2.37,22,22,0,0,1-3.78-3.64,26.07,26.07,0,0,1-3.79-6.3A13.44,13.44,0,0,1,132.6,446.67Z"/><path class="cls-3" d="M381.42,330.74l-.34.33-1,.95-4,3.6-15.3,13.53L307,396.28l-.33.3-.24-.37c-2.81-4.32-5.39-9-8-13.74s-5.13-9.7-7.72-14.74c-5.13-10.1-10.22-20.7-15.23-31.67-4.88-10.66-9.45-21.17-13.63-31.42-2.06-5.14-4.07-10.2-5.82-15.26-.88-2.52-1.7-5.05-2.39-7.51-.29-1.29-.59-2.57-.87-3.84s-.43-2.57-.64-3.84a66.08,66.08,0,0,1,14.07-51,56.05,56.05,0,0,1,15.31-13.08,47.19,47.19,0,0,1,13.9-5.47,43.49,43.49,0,0,1,9.31-1l2.44.15a3.2,3.2,0,0,1,.82.08h-3.26a46.43,46.43,0,0,0-9.24,1.14,48.5,48.5,0,0,0-13.73,5.56,56.11,56.11,0,0,0-15.09,13.07A65.59,65.59,0,0,0,253,274.05c.21,1.25.42,2.51.64,3.79s.58,2.51.88,3.77c.67,2.51,1.49,5,2.36,7.52,1.75,5,3.76,10.09,5.83,15.2,4.22,10.23,8.74,20.73,13.62,31.37,5,11,10.1,21.57,15.21,31.66q3.87,7.51,7.69,14.72c2.56,4.76,5.09,9.41,7.87,13.69l-.57-.09c22-19.14,40.68-35.39,53.91-46.87l15.46-13.32L380,332l1.07-.89C381.29,330.81,381.42,330.66,381.42,330.74Z"/><path class="cls-10" d="M445.28,394.85c-3.73-19.3-15.8-23.9-15.8-23.9l-2.81,23.69L394.34,380.5,369.12,342,316,388.4S358.33,435,376.13,437s59.79-.13,59.79-.13S449,414.16,445.28,394.85Z"/><path class="cls-8" d="M245.28,341.19l-32.83,41.88-70.14-10.86.13-1,2.16-23.76c-20.91,3.27-24.17,20.53-25.12,32.56-1,13.3,14.29,25.76,17.48,28.2v.6s71,41,103.12,29.78c14.93-5.23,51.28-46.05,51.28-46.05V372.89Z"/><path class="cls-11" d="M236.09,335,291.31,380l3-5.34a759,759,0,0,1-31.8-69.52Z"/><path class="cls-8" d="M166,241l8.14,16.37c1.32,2.67,3.21,5.7,6,5.64,2.57,0,4.45-2.93,4.57-5.68a17.57,17.57,0,0,0-2.21-7.8q-4.6-10-9.22-19.92l-.52-1.85s-3-5.43-6.47-3.56C163.16,225.9,161.88,232.62,166,241Z"/><path class="cls-8" d="M160.25,254.48q4,8.18,8.13,16.37c1.32,2.66,3,6.58,5.86,6.52a6.23,6.23,0,0,0,5.21-5.77c.12-2.74-1.54-6.13-2.68-8.6l-9.24-19.92-.52-1.85s-2.95-5.42-6.46-3.54C157.35,239.39,156.09,246.11,160.25,254.48Z"/><path class="cls-8" d="M154.78,268.34l7.72,15.51c1.25,2.53,3,5.41,5.71,5.35,2.43,0,4.21-2.78,4.33-5.38a16.65,16.65,0,0,0-2.1-7.39l-8.74-18.9-.49-1.74s-2.82-5.15-6.13-3.37C152,254,150.87,260.4,154.78,268.34Z"/><path class="cls-8" d="M149.81,275.15l5.73,11.54c.94,1.88,2.26,4,4.22,4a3.92,3.92,0,0,0,3.22-4,12.31,12.31,0,0,0-1.56-5.52l-6.51-14.07-.37-1.31s-2.09-3.83-4.57-2.51C147.75,264.52,146.87,269.23,149.81,275.15Z"/><path class="cls-9" d="M164.93,237.84a17.58,17.58,0,0,1,1.41,2.42c.9,1.73,2.08,4,3.48,6.73s3.19,6.3,5.08,10.06a11.39,11.39,0,0,0,3.74,5,3.86,3.86,0,0,0,5.24-1.84,8.71,8.71,0,0,0,.32-6.65,45.68,45.68,0,0,0-2.58-6l-4.8-10.22-3.16-6.92a15.89,15.89,0,0,1-1-2.6,16.77,16.77,0,0,1,1.4,2.44l3.4,6.78,5,10.11a48.55,48.55,0,0,1,2.7,6.18,9.6,9.6,0,0,1-.41,7.4,5.64,5.64,0,0,1-2.81,2.48,4.15,4.15,0,0,1-3.57-.3,12,12,0,0,1-4-5.4l-4.91-10.13-3.27-6.87A16.54,16.54,0,0,1,164.93,237.84Z"/><path class="cls-9" d="M159.31,252.28a20,20,0,0,1,1.4,2.42l3.49,6.74,5.07,10.06a11.64,11.64,0,0,0,3.73,5,3.88,3.88,0,0,0,5.26-1.85,8.69,8.69,0,0,0,.32-6.64,47.93,47.93,0,0,0-2.6-6c-1.78-3.8-3.4-7.24-4.78-10.2L168,244.84a15.93,15.93,0,0,1-1.06-2.6,16,16,0,0,1,1.41,2.44c.88,1.74,2,4,3.42,6.78l5,10.11a45.77,45.77,0,0,1,2.68,6.18A9.55,9.55,0,0,1,179,275a5.6,5.6,0,0,1-2.81,2.48,4.12,4.12,0,0,1-3.57-.3,12,12,0,0,1-4.05-5.39l-4.91-10.14-3.23-6.88A15,15,0,0,1,159.31,252.28Z"/><path class="cls-9" d="M152.8,263a13.88,13.88,0,0,1,1.41,2.46c.81,1.63,1.91,4,3.21,7s2.82,6.54,4.67,10.37a13.58,13.58,0,0,0,3.61,5.24,3.43,3.43,0,0,0,2.82.55,4.69,4.69,0,0,0,2.53-1.91,8.35,8.35,0,0,0,.57-6.64,40.29,40.29,0,0,0-2.57-6.13c-1.81-3.84-3.44-7.33-4.85-10.32l-3.19-7a19.85,19.85,0,0,1-1.07-2.61,16.05,16.05,0,0,1,1.41,2.45c.88,1.77,2,4.07,3.44,6.85s3.14,6.42,5,10.22a41.34,41.34,0,0,1,2.68,6.27,9.25,9.25,0,0,1-.69,7.44,5.62,5.62,0,0,1-3,2.29,4.2,4.2,0,0,1-3.55-.71,14.13,14.13,0,0,1-3.88-5.59c-1.84-3.89-3.28-7.52-4.51-10.52l-2.94-7.11A21.84,21.84,0,0,1,152.8,263Z"/></g></svg>