<svg xmlns="http://www.w3.org/2000/svg" viewBox="0 0 580 480"><defs><style>.cls-1{isolation:isolate;}.cls-2{fill:#263238;}.cls-3{fill:#ebebeb;}.cls-4{fill:#e0e0e0;}.cls-5{fill:#455a64;}.cls-6{fill:#f5f5f5;}.cls-7{fill:#fafafa;}.cls-8{fill:#20e57e;}.cls-9{fill:#ffbf9d;}.cls-10{fill:#ff9a6c;}.cls-11{fill:#1a2e35;}.cls-12{fill:#375a64;}.cls-13{fill:#e6e7e8;mix-blend-mode:multiply;}.cls-14{fill:#e5e5e6;}.cls-15{fill:#48c2b5;}.cls-16{fill:#59595b;mix-blend-mode:screen;}.cls-17{fill:#ced9d7;}.cls-18{fill:#fff;}.cls-19{fill:#2b4751;}</style></defs><g class="cls-1"><g id="_1" data-name="1"><g id="freepik--Floor--inject-2"><path class="cls-2" d="M510.4,391.9c0,.2-99.4.3-221.9.3s-221.9-.1-221.9-.3,99.3-.2,221.9-.2S510.4,391.8,510.4,391.9Z"/></g><g id="freepik--background-complete--inject-2"><path class="cls-3" d="M138.2,320.9c-.3-2.2-10.8-12.9-19.6-18.3s-2.4,13.4-2.4,13.4l-3.9,4.9-6.6,4.6v6l8,10.2h1.7l14.7,3.4,9.8-3.4s2.1-9.2,2.1-10.2S138.6,323.1,138.2,320.9Z"/><path class="cls-4" d="M136.8,319.5a27.3,27.3,0,0,0-5,.5,20.4,20.4,0,0,0-10.2,6.2,30.5,30.5,0,0,0-6,10.5,32.5,32.5,0,0,0-1.1,3.5,6.5,6.5,0,0,1-.4,1.3,6.8,6.8,0,0,1,.2-1.4c.3-1.2.6-2.4,1-3.6a27.3,27.3,0,0,1,6-10.6,19.9,19.9,0,0,1,10.5-6.2,15,15,0,0,1,3.7-.4h1.3Z"/><path class="cls-4" d="M140,330.6l-3.8.9a44.8,44.8,0,0,0-8.7,3,56.7,56.7,0,0,0-8,4.5l-3.1,2.3c-.1-.1.2-.3.7-.8l2.2-1.8a43.4,43.4,0,0,1,16.8-7.6l2.8-.4Z"/><path class="cls-4" d="M132.2,332a5.5,5.5,0,0,1,.2,1.8,34.4,34.4,0,0,1-.3,4.6,22.3,22.3,0,0,1-1.3,4.4,5.6,5.6,0,0,1-.9,1.7c-.1-.1,1-2.7,1.6-6.2S132,332,132.2,332Z"/><path class="cls-4" d="M127.4,322.5a30,30,0,0,0-7.3-1.8,24.5,24.5,0,0,0-5.4.3,5,5,0,0,0-2,.8l.4-.4a3.3,3.3,0,0,1,1.6-.7,16.4,16.4,0,0,1,10.7.8A6.3,6.3,0,0,1,127.4,322.5Z"/><path class="cls-4" d="M128.4,311.5a21.1,21.1,0,0,0-7,1.3,20.7,20.7,0,0,0-5.8,4,7,7,0,0,1,1.3-1.7,14.1,14.1,0,0,1,9.4-3.8A5,5,0,0,1,128.4,311.5Z"/><rect class="cls-4" x="249.3" y="9.2" width="68.4" height="71.31"/><rect class="cls-5" x="244.7" y="9.2" width="68.4" height="71.31"/><path class="cls-6" d="M313.1,80.5H244.6V9.1h68.5Z"/><rect class="cls-7" x="253.8" y="18.7" width="50" height="52.14"/><path class="cls-4" d="M253.9,71.2a9.3,9.3,0,0,1-1.3,1.5l-3.1,3.2L246.2,79a5.7,5.7,0,0,1-1.5,1.2,8.6,8.6,0,0,1,1.3-1.4l3.2-3.2,3.2-3.2Z"/><path class="cls-4" d="M303.9,71.1l1.4,1.2,3.2,3.2,3.2,3.3,1.2,1.4a4.4,4.4,0,0,1-1.5-1.2c-.8-.8-2-1.9-3.2-3.2a42.6,42.6,0,0,1-3.1-3.3A5.3,5.3,0,0,1,303.9,71.1Z"/><path class="cls-4" d="M303.7,18.9a8.6,8.6,0,0,1,1.3-1.4l3.1-3.3,3.3-3.1a4.4,4.4,0,0,1,1.5-1.2,8.6,8.6,0,0,1-1.3,1.4l-3.1,3.3-3.3,3.1A8.8,8.8,0,0,1,303.7,18.9Z"/><path class="cls-4" d="M253.7,19a8.1,8.1,0,0,1-1.4-1.2c-.9-.8-2-1.9-3.2-3.2l-3.2-3.3-1.2-1.4a8.1,8.1,0,0,1,1.4,1.2l3.3,3.2,3.1,3.3A5.3,5.3,0,0,1,253.7,19Z"/><path class="cls-4" d="M303.7,70.9V56.5c0-9.2-.1-22.2-.1-37.8l.2.2H253.9l.2-.2V70.8h-.4V18.5h50.2v.2c0,15.7,0,28.7-.1,37.9v14A.4.4,0,0,1,303.7,70.9Z"/><path class="cls-6" d="M269.6,58.9a11,11,0,0,1-.5-14.5c1.4-1.6,3.3-2.8,4.6-4.4,2.8-3.7,2.7-9.4,6.6-11.8s6.9-.8,9,1.8a9.5,9.5,0,0,1,.9,9.5c-1,2.3-2.7,4.2-3.4,6.6s-.3,5-1.1,7.4-4,4.8-6.8,5.9a12.7,12.7,0,0,1-9.2-.5"/><path class="cls-4" d="M283.7,34.9a7.8,7.8,0,0,1-.5,1.4,36,36,0,0,1-1.5,3.6,99.1,99.1,0,0,1-6.2,11.6,115,115,0,0,1-7.6,10.7l-2.6,3-1,1a3.1,3.1,0,0,1,.9-1.1l2.4-3.1a128.7,128.7,0,0,0,7.5-10.7c2.3-3.8,4.4-7.6,6.3-11.5l1.7-3.6A5.2,5.2,0,0,1,283.7,34.9Z"/><path class="cls-4" d="M273.4,44a20.2,20.2,0,0,1,.4,2.6c.2,1.6.4,3.9.7,6.5h-.4l1.1-.7,6.4-3.7a24.4,24.4,0,0,1,2.8-1.4,19.2,19.2,0,0,1-2.6,1.7l-6.4,3.8-1.1.6-.3.2v-.4c-.2-2.6-.4-4.9-.5-6.5A11.5,11.5,0,0,1,273.4,44Z"/><path class="cls-4" d="M286.5,40.1a5.6,5.6,0,0,1-1.7.9,42.7,42.7,0,0,1-4.2,2l-.5.3h-.3v-.3q-.4-2.6-.6-4.2a5.5,5.5,0,0,1-.1-1.8,13.6,13.6,0,0,1,.4,1.7c.2,1.1.5,2.6.7,4.2h-.3l.5-.2,4.2-1.9Z"/><rect class="cls-4" x="114.9" y="51.8" width="99.5" height="103.75"/><rect class="cls-5" x="108.2" y="51.8" width="99.5" height="103.75"/><path class="cls-6" d="M207.7,155.6H108.2V51.8h99.5Z"/><rect class="cls-7" x="121.6" y="65.8" width="72.8" height="75.85"/><path class="cls-4" d="M121.6,142.1a19.6,19.6,0,0,1-1.8,2.1l-4.6,4.7-4.8,4.5a9.1,9.1,0,0,1-2.1,1.8,9.1,9.1,0,0,1,1.8-2.1l4.6-4.7c1.9-1.8,3.5-3.4,4.8-4.5A9.1,9.1,0,0,1,121.6,142.1Z"/><path class="cls-4" d="M194.3,141.9a9.1,9.1,0,0,1,2.1,1.8c1.3,1.1,2.9,2.8,4.7,4.6l4.6,4.8a12,12,0,0,1,1.7,2.1,16.8,16.8,0,0,1-2.1-1.8l-4.7-4.7-4.5-4.7A9.1,9.1,0,0,1,194.3,141.9Z"/><path class="cls-4" d="M194.1,66a19.6,19.6,0,0,1,1.8-2.1c1.2-1.3,2.8-2.9,4.7-4.7l4.7-4.6a12,12,0,0,1,2.1-1.7,16.8,16.8,0,0,1-1.8,2.1L201,59.7c-1.8,1.8-3.5,3.4-4.8,4.5A9.1,9.1,0,0,1,194.1,66Z"/><path class="cls-4" d="M121.4,66.1a9.1,9.1,0,0,1-2.1-1.8l-4.7-4.6L110,55l-1.7-2.1a9.1,9.1,0,0,1,2.1,1.8l4.7,4.6c1.8,1.9,3.4,3.5,4.5,4.8A11.2,11.2,0,0,1,121.4,66.1Z"/><path class="cls-4" d="M194.1,141.6v-21c0-13.3-.1-32.2-.2-54.8l.3.2H121.6l.4-.3v75.9l-.3-.3h52.6l-52.7.3h-.3v-.3c0-22,0-48-.1-75.8v-.4h73.2v.3c0,22.8-.1,41.7-.1,55.1,0,6.6,0,11.8-.1,15.4v5A.6.6,0,0,1,194.1,141.6Z"/><path class="cls-6" d="M166.1,119.7a48.2,48.2,0,0,0-6.7-15c-1.2-1.7-2.7-3.4-4.8-3.6a4.9,4.9,0,0,0-4,2.1,9.9,9.9,0,0,0-1.4,4.5c-3.5-1.8-7.9-2.5-11.4-.7s-5.7,6.4-3.9,10,6.3,4.6,10.2,5.2a4.4,4.4,0,0,0-1.1,5.4,6.6,6.6,0,0,0,4.8,3.3,10,10,0,0,0,5.9-.6,34.3,34.3,0,0,0,12.4-10.6"/><path class="cls-4" d="M180.1,121.5h-1.6l-4.2-.4c-3.6-.3-8.3-1-13.9-2s-10.2-2.1-13.6-3l-4.1-1.1-1.5-.5,1.6.2,4.1,1c3.5.8,8.3,1.8,13.7,2.8s10.2,1.7,13.8,2.2l4.2.5A8,8,0,0,1,180.1,121.5Z"/><path class="cls-4" d="M154.1,104.3l.6,1a31.5,31.5,0,0,1,1.3,2.9,45.2,45.2,0,0,1,2.7,10.2v.2h-.2l-.9.4a56.8,56.8,0,0,0-9.6,5.5c-2.3,1.7-3.6,2.9-3.7,2.8l.8-.9,2.6-2.2a47.2,47.2,0,0,1,9.6-5.8l.9-.4-.2.4a50.7,50.7,0,0,0-2.5-10.2C154.7,105.8,154,104.3,154.1,104.3Z"/><path class="cls-4" d="M145.4,108.5l1.5,2.4c.9,1.5,2.2,3.5,3.7,5.7l.3.4h-.4l-1,.2c-2.8.7-5.4,1.1-7.3,1.5l-3.1.4a17.1,17.1,0,0,1,3-.9l7.3-1.6.9-.2-.2.5a67.7,67.7,0,0,1-3.6-5.9A8.5,8.5,0,0,1,145.4,108.5Z"/><path class="cls-6" d="M172.1,100.5a47.3,47.3,0,0,0,4.5-15.7c.2-2,.1-4.4-1.4-5.8a4.4,4.4,0,0,0-4.4-1,8.5,8.5,0,0,0-4,2.5c-1.5-3.7-4.5-6.9-8.3-7.8s-8.5,1.3-9.4,5.1,1.9,7.5,4.5,10.5a4.4,4.4,0,0,0-4.3,3.5,6.2,6.2,0,0,0,1.6,5.5,9,9,0,0,0,4.9,3.4,34.6,34.6,0,0,0,16.3-.2"/><path class="cls-4" d="M172.1,80.2a4.9,4.9,0,0,1-.1,1.2c-.1.7-.2,1.8-.5,3.1a44.2,44.2,0,0,1-3.6,10l-.2.2h-.2l-.9-.2a58.5,58.5,0,0,0-11-1l-4.6.2,1.2-.3,3.4-.3a46.9,46.9,0,0,1,11.2.7l.9.2-.4.2a48.5,48.5,0,0,0,3.8-9.8A42.4,42.4,0,0,1,172.1,80.2Z"/><path class="cls-4" d="M163,77.5a12.3,12.3,0,0,1,.2,2.7v7.1h-.4L162,87l-6.9-2-2.8-1a13.5,13.5,0,0,1,2.9.5l7,1.9.8.2-.4.3c0-2.6.1-5,.2-6.7A24.5,24.5,0,0,1,163,77.5Z"/><path class="cls-4" d="M156.4,79.9a1,1,0,0,1,.5.4l1.3,1.3a21.2,21.2,0,0,1,2,2.1,26.3,26.3,0,0,1,2.5,2.9,76.2,76.2,0,0,1,5.6,8,98.4,98.4,0,0,1,5.8,10.6,107.3,107.3,0,0,1,4.5,11.1,84.6,84.6,0,0,1,2.7,9.5,11.8,11.8,0,0,0,.4,2l.3,1.8c.1,1.1.3,2,.3,2.8s.1,1.4.2,1.8v.7a1.4,1.4,0,0,1-.2-.6,14.1,14.1,0,0,0-.2-1.8c-.1-.7-.3-1.7-.5-2.8l-.3-1.8c-.2-.6-.3-1.2-.5-1.9-.7-3.2-1.7-6.3-2.7-9.4s-2.9-7.5-4.6-11.1a115,115,0,0,0-5.7-10.6,93.6,93.6,0,0,0-5.5-8.1,24.7,24.7,0,0,0-2.4-2.9l-1.8-2.2-1.2-1.3Z"/><path class="cls-3" d="M424.3,372.7c-23-14-29.8-42.4-30.5-68.1-.1-4.3-.8-8.8,1-12.7s6.4-6.8,10.4-5.2,4.9,4.9,6.8,7.9a25.9,25.9,0,0,0,10.7,9c2.8,1.2,6.2,1.9,8.9.2s3.7-7.4,3.4-11.6c-.6-8-1.1-16-1.6-23.9-.3-4.3-.6-8.6.5-12.8s3.8-8.1,7.8-9.4,9.1.6,10.2,4.7c.5,1.8.3,3.6.5,5.4s1.2,3.6,2.9,4,3.3-.9,4.5-2.2c4.2-4.6,6.8-10.3,9.3-16s4.8-11.5,8.5-16.5,9-9,15.2-9.7,12.8,2.6,14.7,8.5-1.2,12.3-4.7,17.4a96.7,96.7,0,0,1-18.7,20.1c-1.3,1-2.7,2.2-3.1,3.8s2.1,5.6,5,6.3,6.6.4,10,.6,7,1.4,8.5,4.5-1.4,9-4.8,12.2a81.1,81.1,0,0,1-23.3,15.5c-3.1,1.3-6.3,2.5-8.7,4.9s-3.7,6.3-2,9.2,5.7,3.6,9,2.8,6.1-2.8,9.1-4.1c5.8-2.6,13.4-2.7,17.4,2.2,2.7,3.2,3.2,7.8,2.2,11.8s-3.3,7.7-5.8,11c-8.8,11.6-20.3,21.2-33.6,26.8s-25.9,7.6-39.7,3.4"/><path class="cls-4" d="M425.1,391.8a186,186,0,0,1,4.9-35.6,384.4,384.4,0,0,1,12.6-42.1l3.9-10.9c1.3-3.6,2.6-7.1,4-10.5a185.4,185.4,0,0,1,9.5-18.9c3.3-5.9,6.7-11.4,9.9-16.5s6.2-9.7,9.2-13.9A150.9,150.9,0,0,1,494.6,225l4.7-4.6,1.2-1.2.5-.3c-.2.1-.3.3-.4.4l-1.2,1.2-4.6,4.7a160.1,160.1,0,0,0-15.2,18.6c-3,4.1-6,8.8-9.2,13.9s-6.5,10.6-9.7,16.4a208.7,208.7,0,0,0-9.5,18.9c-1.4,3.4-2.7,6.9-4,10.5l-3.9,10.8a413.9,413.9,0,0,0-12.7,42,194.6,194.6,0,0,0-5,35.5"/><path class="cls-4" d="M450.8,292.7a6.4,6.4,0,0,1-.6-1.8c-.3-1.2-.6-2.9-1.1-5-.8-4.2-1.8-10.1-2.9-16.6s-2.1-12.3-3.1-16.5c-.4-2.1-.8-3.8-1.1-4.9a5.8,5.8,0,0,1-.3-1.9,12.7,12.7,0,0,1,.6,1.8,47.5,47.5,0,0,1,1.4,4.9c1.1,4.2,2.2,10,3.3,16.5l2.7,16.6.8,5A5.8,5.8,0,0,1,450.8,292.7Z"/><path class="cls-4" d="M505.1,279.1l-2.2.4-5.9.9c-5,.9-11.9,2.3-19.4,4.2s-14.2,3.9-19,5.5l-5.7,1.9-2.1.7,2-1c1.3-.5,3.2-1.3,5.6-2.1a188.2,188.2,0,0,1,19-5.8q9.6-2.4,19.5-3.9c2.5-.4,4.5-.6,6-.7A7.9,7.9,0,0,1,505.1,279.1Z"/><path class="cls-4" d="M430.6,355.2l-.5-.7a18.2,18.2,0,0,0-1-1.9l-3.7-7.2c-3-6.2-7-14.8-11.2-24.3s-8-18.2-10.9-24.4l-3.4-7.3-1-2a1.4,1.4,0,0,1-.2-.7,4.3,4.3,0,0,1,.4.7l1,1.9c1,1.7,2.2,4.1,3.7,7.2,3,6.1,7,14.7,11.2,24.3s8,18.1,10.9,24.3l3.5,7.3.9,2Z"/><path class="cls-4" d="M502.1,327.2a1.5,1.5,0,0,1-.7.3l-2.1.9-7.6,3c-6.5,2.5-15.4,6.1-25.2,10.1s-18.8,7.6-25.3,10l-7.7,2.8-2.2.7-.7.2a1.5,1.5,0,0,1,.7-.3l2-.9,7.7-3c6.5-2.5,15.4-6.1,25.2-10.1s18.7-7.6,25.3-10l7.7-2.8,2.1-.7Z"/><path class="cls-6" d="M99.8,345.2l-7.9,3.3,1.4,9.1-.3,6,11,2.6,9.1-3.8,6.3,1,3.1-4.7-2.1-8.9-2.5-5.9-6.2-1.7s-4.1-6.5-4.5-6.3l-6.5,1.3-1.6,3.9.3,3.6"/><path class="cls-4" d="M104.1,366.1a11.2,11.2,0,0,1-1.6-2.8c-.9-1.7-1.8-4.3-3.2-6.9a19.1,19.1,0,0,0-2.4-3.4c-.8-.9-1.8-1.6-2.5-2.3l-1.6-1.6c-.4-.4-.6-.6-.6-.7a24.3,24.3,0,0,1,2.5,2c.7.7,1.7,1.3,2.6,2.3a14.8,14.8,0,0,1,2.5,3.5c1.3,2.7,2.2,5.2,3,7A30.7,30.7,0,0,1,104.1,366.1Z"/><path class="cls-4" d="M120,355.3c-.1.1-.9-.9-2.5-2.3a29.7,29.7,0,0,0-14.5-6.9l-3.4-.5h.9l2.5.2a26.3,26.3,0,0,1,14.7,7l1.7,1.8A4.2,4.2,0,0,1,120,355.3Z"/><path class="cls-4" d="M111.5,349.3a7.1,7.1,0,0,1,.2,2.5,24.6,24.6,0,0,1-.7,6,13.8,13.8,0,0,1-2.5,5.5,3.6,3.6,0,0,1-2.2,1.3,5.8,5.8,0,0,0,1.9-1.6,14.8,14.8,0,0,0,2.3-5.3c.4-2,.7-3.9.9-5.9A20.9,20.9,0,0,1,111.5,349.3Z"/><path class="cls-4" d="M107.4,337.2a9.4,9.4,0,0,1,0,4.7,9.5,9.5,0,0,1-1.4,4.3c-.1,0,.5-2,.9-4.4S107.3,337.3,107.4,337.2Z"/><path class="cls-4" d="M117.7,352.8a11.1,11.1,0,0,1-4.8,9.5A26.1,26.1,0,0,0,116,358,24.3,24.3,0,0,0,117.7,352.8Z"/><path class="cls-6" d="M123.1,340.3l8.3-2v-9.2l1.2-6-10.4-4.2-9.6,2.4-6-2-3.9,4.2.7,9.1,1.6,6.3,5.9,2.6s3.1,7,3.4,7l6.7-.4,2.1-3.6.3-3.6"/><path class="cls-4" d="M122.1,319a15.4,15.4,0,0,1,1.1,3c.6,1.9,1.2,4.5,2.1,7.3a21.2,21.2,0,0,0,1.8,3.7c.7,1.1,1.6,1.9,2.1,2.7l1.4,1.9.5.7a12.1,12.1,0,0,1-2.1-2.4c-.6-.8-1.5-1.5-2.3-2.6a19.3,19.3,0,0,1-1.9-3.8c-1-2.9-1.4-5.6-2-7.4A15.8,15.8,0,0,1,122.1,319Z"/><path class="cls-4" d="M104.7,327.2a21.7,21.7,0,0,1,2.1,2.6,29.2,29.2,0,0,0,13.3,9.1l3.3,1a3.3,3.3,0,0,1-1,0l-2.4-.6a26.5,26.5,0,0,1-13.5-9.2l-1.4-2.1A2,2,0,0,1,104.7,327.2Z"/><path class="cls-4" d="M112.2,334.4a7.1,7.1,0,0,1,.1-2.5,23.3,23.3,0,0,1,1.7-5.7,12.9,12.9,0,0,1,3.3-5,3.3,3.3,0,0,1,2.3-1,5.7,5.7,0,0,0-2.1,1.3,13.4,13.4,0,0,0-3,5,28.1,28.1,0,0,0-1.8,5.6C112.5,332.9,112.4,333.7,112.2,334.4Z"/><path class="cls-4" d="M114.3,347a12,12,0,0,1,.7-4.6,10.7,10.7,0,0,1,2.1-4.1c.1.1-.8,1.9-1.6,4.3S114.5,347,114.3,347Z"/><path class="cls-4" d="M106.6,330.1a9.1,9.1,0,0,1,2-5.2,8.7,8.7,0,0,1,4.3-3.5,23.4,23.4,0,0,0-3.9,3.8A22.3,22.3,0,0,0,106.6,330.1Z"/><path class="cls-7" d="M141.6,329l8.3-2.1v-9.2l1.2-5.9-10.5-4.2-9.5,2.4-6-2-3.9,4.2.7,9.1,1.6,6.3,5.8,2.6s3.1,7,3.5,7l6.6-.4,2.2-3.6.3-3.6"/><path class="cls-4" d="M140.5,307.7a18.8,18.8,0,0,1,1.2,3c.6,1.9,1.2,4.5,2.1,7.3a15.9,15.9,0,0,0,1.8,3.7c.7,1.1,1.5,1.9,2.1,2.7l1.4,1.9.5.7a23.9,23.9,0,0,1-2.2-2.3l-2.2-2.7a16.9,16.9,0,0,1-1.9-3.8c-1-2.9-1.5-5.5-2-7.4Z"/><path class="cls-4" d="M123.2,315.9a32.1,32.1,0,0,1,2.1,2.7,30.9,30.9,0,0,0,6,5.4,27.9,27.9,0,0,0,7.3,3.7l3.2,1h-.9l-2.4-.6a26.5,26.5,0,0,1-13.5-9.2l-1.4-2.1A2,2,0,0,1,123.2,315.9Z"/><path class="cls-4" d="M130.6,323.2a10.1,10.1,0,0,1,.2-2.5,22.8,22.8,0,0,1,1.7-5.8,12.9,12.9,0,0,1,3.3-5,3.2,3.2,0,0,1,2.3-.9,4.5,4.5,0,0,0-2.1,1.2,13.4,13.4,0,0,0-3,5,28.1,28.1,0,0,0-1.8,5.6A21,21,0,0,1,130.6,323.2Z"/><path class="cls-4" d="M132.8,335.7a9.9,9.9,0,0,1,.7-4.5,10.4,10.4,0,0,1,2.1-4.2c.1.1-.9,1.9-1.6,4.3S133,335.7,132.8,335.7Z"/><path class="cls-4" d="M125.1,318.8a10.9,10.9,0,0,1,6.2-8.7,22.8,22.8,0,0,0-3.8,3.8A22.3,22.3,0,0,0,125.1,318.8Z"/><path class="cls-3" d="M99.5,379.9c-2.2-1.9-7-7.7-3.3-14.6,1.4-2.5,4.3-3.7,6.9-4.8s5.4-2.1,7.6-3.9c4.1-3.5,5.2-9.3,7.9-13.9s8.9-9.3,15.1-9,12.9,6,15.5,12.6,2.8,13.8,2.9,20.9c0,3.9-.2,8.3-3,11s-6.7,2.5-10.3,2.4l-38.4-1.2"/><path class="cls-4" d="M173.1,274.2H71.9L90.1,382.8a12.3,12.3,0,0,0,8.7,9.7h.3l.9.2,2.1.2h45.6a9.9,9.9,0,0,0,2.4-.3,12.3,12.3,0,0,0,10.3-10.6l8.8-74.9.4-3h0l3.4-29.6ZM154,343.5H143.6l1.1-31.6h12Zm3.7-31.6h9.9l-3.7,31.6H155ZM128,378.4l-.6-27.4h14.9l-.9,27.4ZM111.9,351h14.5l.6,27.4H114Zm1.1,27.4H100.9c-1.2-7.4-2.7-17-4.3-27.4h14.3Zm-1.7-35-2.4-31.5h16.6l.7,31.5Zm15.9,0-.7-31.5h17.1l-1,31.5Zm-.9-39.1-.7-29.2h19.3l-1,29.2Zm-1,0H108.2L106,275.1h18.6Zm-18.1,0h-18c-.7-4-1.3-7.8-1.8-11.3-1.9-11.8-2.6-16.2-3-17.9H105Zm.7,7.6,2.4,31.5h-15l-1.4-9.6c-1.3-7.5-2.4-14.9-3.5-21.9ZM94.3,343.5H84.6l-5.3-31.6H89.4C90.9,321.7,92.6,332.5,94.3,343.5Zm1.2,7.5c1.5,9.5,3,18.8,4.3,27.4H90.4L85.9,351Zm46.9,27.4,1-27.4h10L151,378.4Zm2.5-74,1-29.2h14l-2.5,29.2ZM83.4,275.2c.4,2.1,2.3,13.6,4.8,29.2H78l-4.9-29.2Zm76.5,103.2H152l2.4-27.4h8.7Zm8.7-74H158.3l2.5-29.2h11.1Z"/></g><path class="cls-8" d="M349.3,121.6l-24.9-3.9-73.1,6.2s-26.2,60.1-24.6,61.8,21.5,67,21.5,67l-1.4,54.4s-7.5,9.2-8.7,15.7c-4,20.7,132.8,25.6,136.1,13.4V136.4Z"/><path class="cls-8" d="M251.3,123.9s-23.1,2.4-29.4,17.8-25.7,103.7-25.7,103.7-2.9,19.1,5.2,29.4,27.8,6.9,40.4,1.2c20.9-9.5,37.5-73.1,37.5-73.1l9.1-22-34-11.1L239,203.2Z"/><path class="cls-8" d="M334.2,119.4c1.2.4,41.2,6,48.4,12.6s6.4,65.6,6.4,65.6-6.4,74.3-12.4,79.1-32.2,22.7-46.9-11c-4.3-9.9-13.7-21.9-19.6-34.3a459.6,459.6,0,0,1-19-47.5l33.5-15.7,26,44L345.9,149Z"/><path class="cls-9" d="M247.7,71.5a35.7,35.7,0,0,1,26.4-40.6l1.8-.4c19.6-3.9,33.8,10.7,37,30.4l16.3,78.2a3.5,3.5,0,0,1-1.2,3.5L289.7,174l-8.9-41s-19.3,1.9-24.3-16.6C254.1,107.4,250.6,88.6,247.7,71.5Z"/><path class="cls-10" d="M280.6,133a46.1,46.1,0,0,0,22.5-13.3s-2.3,14.8-21.2,17.9Z"/><path class="cls-11" d="M265.6,82.5c-.4-.3-2.3,1.5-5.3,1.7s-5.2-.9-5.5-.5.3.7,1.3,1.3a7.4,7.4,0,0,0,4.5.9,7.1,7.1,0,0,0,4.1-1.8C265.5,83.4,265.7,82.7,265.6,82.5Z"/><path class="cls-11" d="M293.6,79.3c-.5-.2-2,1.9-4.8,2.7s-5.3.1-5.5.5.4.8,1.5,1.1a6.9,6.9,0,0,0,4.5,0,6.7,6.7,0,0,0,3.7-2.5C293.7,80.1,293.8,79.4,293.6,79.3Z"/><path class="cls-11" d="M278,99.7a24.6,24.6,0,0,0-4.9.4c-.7.1-1.5.1-1.7-.3a4.3,4.3,0,0,1-.1-2.3c.3-2,.5-4,.8-6.1.9-8.7,1.5-15.7,1.1-15.8s-1.4,7-2.4,15.7l-.6,6.1a4.3,4.3,0,0,0,.3,2.9,2.1,2.1,0,0,0,1.5.8l1.3-.2C276.2,100.4,278,99.9,278,99.7Z"/><path class="cls-11" d="M291.9,68.6c-.7-.6-3.1,1.1-6.4,2.3s-6.1,1.6-6.2,2.5.7.8,2.1,1a11.3,11.3,0,0,0,5.2-.7,12,12,0,0,0,4.4-2.9C291.9,69.7,292.2,68.9,291.9,68.6Z"/><path class="cls-11" d="M264.6,75.5c-.5-.8-3.1-.4-6-.8s-5.3-1.2-6-.6,0,1,1,1.8a10.3,10.3,0,0,0,4.7,1.8,10.4,10.4,0,0,0,5-.7C264.4,76.5,264.8,75.8,264.6,75.5Z"/><path class="cls-9" d="M313.6,75.4c.3-.3,11.8-7.1,14.7,5.7s-10.6,13-10.7,12.7Z"/><path class="cls-10" d="M319.3,88.3l.7.2a2,2,0,0,0,1.6-.3c1.3-.8,1.9-3.2,1.5-5.5a7.9,7.9,0,0,0-1.3-3.1,2.9,2.9,0,0,0-2.1-1.3,1.2,1.2,0,0,0-1.2.9c-.1.4.1.6,0,.7a.8.8,0,0,1-.3-.7,2.2,2.2,0,0,1,.3-1,2.3,2.3,0,0,1,1.2-.6,3.2,3.2,0,0,1,2.7,1.5,7.7,7.7,0,0,1,1.6,3.4c.5,2.6-.3,5.3-2,6.3a2.6,2.6,0,0,1-2.1.1C319.4,88.6,319.3,88.4,319.3,88.3Z"/><path class="cls-10" d="M279.1,75.1a2.8,2.8,0,0,1-1.3.1,4.6,4.6,0,0,1-2.9-1.5,4.7,4.7,0,0,1-1.1-3.1c0-.9.3-1.3.4-1.3s0,.5,0,1.3a5.2,5.2,0,0,0,1.2,2.7,5.1,5.1,0,0,0,2.5,1.5Z"/><path class="cls-11" d="M318.5,54.9a1.9,1.9,0,0,1,.2.8C321,66.7,318,81,318,81c-8.1,2-9.7-13.9-9.7-13.9-10.9-1.6-10.6-17.4-13.6-19.1s-9.5-5.9-28,9.6c-7.2,6-18.1,8.4-24.3,8.4h-.9a19.9,19.9,0,0,1-5.9-1.1,10.5,10.5,0,0,1-5.5-3.9,5.9,5.9,0,0,1-.3-6.5,13.6,13.6,0,0,1-4.5-6.1,7.4,7.4,0,0,1,1.2-7.2,5.4,5.4,0,0,1,6.9-1,6.3,6.3,0,0,1,3.6-8.6c3.2-1,6.5.9,9.9,1s6.4-1.3,9.1-3.2,5-4.1,7.8-5.9a26.4,26.4,0,0,1,19.6-3.6c6.7,1.4,12,3.1,15.7,8.8,4.1-2.4,9.7-.4,13.5,2.5,0,0,5.2,2.9,5.6,13.2S318.5,54.9,318.5,54.9Z"/><path class="cls-12" d="M234.2,37c.1-.1.7.6,2.1,1.6a17.8,17.8,0,0,0,6.4,2.6,27,27,0,0,0,10.3.2A81.7,81.7,0,0,0,265.3,38a73.9,73.9,0,0,1,12.4-3.6,28.6,28.6,0,0,1,10.5-.1,17.3,17.3,0,0,1,6.6,2.6l1.6,1.1.5.5c-.1.1-.8-.6-2.2-1.4a19.6,19.6,0,0,0-6.6-2.4,30,30,0,0,0-10.3.2,83.6,83.6,0,0,0-12.3,3.6A70.6,70.6,0,0,1,253.1,42a30,30,0,0,1-10.5-.3,21,21,0,0,1-6.5-2.9l-1.4-1.3Z"/><path class="cls-12" d="M296.1,42.4a14.1,14.1,0,0,0-2.3-1.3,17.6,17.6,0,0,0-6.8-1.5,28.9,28.9,0,0,0-10.2,1.9c-3.8,1.3-7.7,3.3-11.9,5a40.4,40.4,0,0,1-6.4,2.2,34.4,34.4,0,0,1-6.2.9,30.5,30.5,0,0,1-10.5-1.3,32.6,32.6,0,0,1-6.5-2.8l-1.7-1-.5-.4a16.1,16.1,0,0,1,2.3,1.2,30.9,30.9,0,0,0,6.5,2.6,33.1,33.1,0,0,0,16.5.2,38.8,38.8,0,0,0,6.3-2.1c4.2-1.8,8.1-3.8,11.9-5.1A29.3,29.3,0,0,1,287,39.2a16.1,16.1,0,0,1,6.9,1.7l1.7,1C295.9,42.2,296.1,42.3,296.1,42.4Z"/><path class="cls-12" d="M318.4,43.3a6.9,6.9,0,0,1-2.3,1.5,13.2,13.2,0,0,1-6.6.9c-2.7-.4-4.7-1.8-6.3-2.4s-2.5-.8-2.5-.9a5.1,5.1,0,0,1,2.7.5c1.6.5,3.6,1.8,6.1,2.1a13.8,13.8,0,0,0,6.4-.6C317.5,43.8,318.3,43.2,318.4,43.3Z"/><path class="cls-12" d="M318.7,46.6a6.2,6.2,0,0,1-2.4,1.3,19.3,19.3,0,0,1-6.5,1,16.5,16.5,0,0,1-6.4-1.3,8.6,8.6,0,0,1-2.3-1.3l2.5.9a23.9,23.9,0,0,0,6.3,1.1,21.6,21.6,0,0,0,6.3-.9C317.7,47,318.7,46.5,318.7,46.6Z"/><path class="cls-10" d="M269.5,71.5c.2-.1.6,1.5-.3,3.1a3.7,3.7,0,0,1-2.4,2.1,11.9,11.9,0,0,0,1.8-2.4A10.3,10.3,0,0,0,269.5,71.5Z"/><path class="cls-11" d="M232.4,217.7l.4-.8,1.2-2.5,4.4-9.7,15.8-35v-.2h.2l34.1,11.6h.3v.2l-16.5,41.7c-3.3,8.6-6.7,16.9-9.8,25.1a112.7,112.7,0,0,1-5.3,11.7,42.3,42.3,0,0,1-7.3,9.9,41.7,41.7,0,0,1-9.3,7.1,34.8,34.8,0,0,1-10.4,3.6,46.2,46.2,0,0,1-10.4.5,34.8,34.8,0,0,1-9.3-1.6,20.7,20.7,0,0,1-7.5-4.4,20.1,20.1,0,0,1-4.2-6.5,41.7,41.7,0,0,1-2.8-12,70.9,70.9,0,0,1-.1-7.8,18.7,18.7,0,0,1,.3-2.7v.7c-.1.5-.1,1.1-.2,2s0,4.4.3,7.8a44.7,44.7,0,0,0,2.8,11.9,21,21,0,0,0,4.2,6.3,17.7,17.7,0,0,0,7.3,4.3,34.2,34.2,0,0,0,9.3,1.5,44.2,44.2,0,0,0,10.2-.5,31.2,31.2,0,0,0,10.2-3.6,40.7,40.7,0,0,0,9.2-7,44.3,44.3,0,0,0,7.2-9.8,103.6,103.6,0,0,0,5.2-11.7c3.1-8.1,6.5-16.5,9.9-25l16.5-41.7.2.4L254.3,170h.3c-6.6,14.6-12.1,26.6-16,34.9-1.9,4.2-3.4,7.5-4.5,9.6l-1.2,2.5C232.6,217.5,232.4,217.8,232.4,217.7Z"/><path class="cls-11" d="M242.2,197.2l.3-1.4c.2-1,.5-2.2.8-3.7.8-3.2,1.8-7.5,3-12.3,2.2-8.5,3.6-14.3,4.4-17.3.4.1-1.4,7.9-3.8,17.5-1.2,4.8-2.3,9.1-3.2,12.2s-.7,2.8-1,3.7S242.3,197.2,242.2,197.2Z"/><path class="cls-10" d="M262.4,124.6l1.5-.4a6.6,6.6,0,0,0,3.7-1.9,3.2,3.2,0,0,0,1-2.5,2.5,2.5,0,0,0-1.8-2.2c-1.1-.2-2.3.4-3.5.9l-3.9,1.3-3.7,1.4a10.7,10.7,0,0,0-2.7,2.5l-2,2.8a17.7,17.7,0,0,0-1.7,2.4,13.3,13.3,0,0,0-1,4.1v1.5a4.8,4.8,0,0,1-.2-1.6,10.8,10.8,0,0,1,.8-4.2,5.7,5.7,0,0,1,.8-1.3l.9-1.2,2-2.8a8.1,8.1,0,0,1,2.8-2.7,25,25,0,0,1,3.8-1.5l3.9-1.3c1.2-.4,2.4-1.1,3.8-.8a2.7,2.7,0,0,1,1.6,1,3.5,3.5,0,0,1,.6,1.7,3.4,3.4,0,0,1-1.2,2.8,6.3,6.3,0,0,1-3.9,1.8Z"/><path class="cls-13" d="M284.3,164.7H269.6a5.5,5.5,0,0,1-5.5-5.6v-1.7h25.7v1.7A5.5,5.5,0,0,1,284.3,164.7Z"/><path class="cls-14" d="M265.9,109.7h22c-1.8-3-5.5-5.1-5.9-5.8h0a39.4,39.4,0,0,0-4.4-.3h-2.2l-3.5.3h-.1C271.4,104.7,267.9,106.6,265.9,109.7Z"/><path class="cls-14" d="M289.8,113.6V158a5.6,5.6,0,0,1-5.9,5.3H270a5.6,5.6,0,0,1-5.9-5.3V113.6l.5.2h24.7Z"/><path class="cls-14" d="M264.1,113.6V158c0,2.9,2.6,5.2,5.8,5.3h14a5.6,5.6,0,0,0,5.9-5.3V113.6l-.5.2H264.6Z"/><rect class="cls-15" x="264.1" y="113.6" width="25.8" height="24.96"/><path class="cls-16" d="M284.8,129.2h0a1.9,1.9,0,0,0-2.1,1.8v14.1a1.9,1.9,0,0,0,2.1,1.8h0a1.9,1.9,0,0,0,2.1-1.8V131A1.9,1.9,0,0,0,284.8,129.2Z"/><path class="cls-16" d="M284.8,119.7h0a1.9,1.9,0,0,0-2.1,1.8v3.3a1.9,1.9,0,0,0,2.1,1.7h0a1.9,1.9,0,0,0,2.1-1.7v-3.3A1.9,1.9,0,0,0,284.8,119.7Z"/><path class="cls-13" d="M265.9,109.7h4.3a22.6,22.6,0,0,1,5.2-6.1l-3.5.3h-.1C271.4,104.7,267.9,106.6,265.9,109.7Z"/><path class="cls-13" d="M264.1,113.6V158c0,2.9,2.6,5.2,5.8,5.3V113.9h-5.3Z"/><path class="cls-14" d="M290.7,111.8h0a2.3,2.3,0,0,1-.9,1.8l-.5.2H264.6l-.5-.2a2,2,0,0,1-.9-1.8h0a1.9,1.9,0,0,1,1.8-2.1h23.9A1.9,1.9,0,0,1,290.7,111.8Z"/><path class="cls-13" d="M264.1,112.6l.5.3h24.7l.5-.3a2,2,0,0,0,.8-1.3.9.9,0,0,1,.1.5h0a2.3,2.3,0,0,1-.9,1.8l-.5.2H264.6l-.5-.2a2,2,0,0,1-.9-1.8h0a.9.9,0,0,1,.1-.5A2,2,0,0,0,264.1,112.6Z"/><path class="cls-9" d="M293.4,181.9s-10.1-21.8-11.6-25.7-7.4-17.3-6.6-19.9,4.3,0,4.3,0-7.1-13.7-5-16.6a2.5,2.5,0,0,1,3.9-.3s-4.5-7.8-.7-10.2c1.9-1.2,5.2,3.5,5.2,3.5s3.1-3.4,5.9.9,14.6,23.6,14.6,23.6-.7-9.1.9-14.6c1.2-3.7,6.6-5.9,6.9,5.4.2,7.3,8.7,41.6,8.7,41.6Z"/><path class="cls-10" d="M293.4,181.9l.5-.3,1.4-.6,5.2-2.5,19.3-9.1v.3c-2.2-8.8-4.8-19.3-7.2-31.2-.5-3-1.2-6.1-1.5-9.3-.2-1.6-.2-3.2-.4-4.8l-.3-1.1-.4-1.2a4,4,0,0,0-1.3-1.8,1.8,1.8,0,0,0-2.1-.1,3.6,3.6,0,0,0-1.5,1.7,9,9,0,0,0-.8,2.3l-.3,2.5a61.2,61.2,0,0,0-.2,10.5.3.3,0,0,1-.3.3h-.3c-2.3-3.9-4.8-7.9-7.4-12l-5.5-9-1.4-2.2a5.4,5.4,0,0,0-1.5-1.8,2.5,2.5,0,0,0-2.2-.6,4.4,4.4,0,0,0-2,1.1.2.2,0,0,1-.4,0h-.1a11.4,11.4,0,0,0-3-3.2c-.6-.3-1.3-.6-1.8-.2a3,3,0,0,0-1.2,1.7,8.8,8.8,0,0,0,.4,4.2,18.8,18.8,0,0,0,1.6,3.9c.1.1,0,.3-.1.4h-.4a2.3,2.3,0,0,0-2.3-.7,2.8,2.8,0,0,0-1,.9,3.6,3.6,0,0,0-.4,1.1,16.8,16.8,0,0,0,1.1,5.4,87.5,87.5,0,0,0,4.2,9.8.2.2,0,0,1-.1.3h-.3a5.2,5.2,0,0,0-2.6-1,.9.9,0,0,0-1.1.5.8.8,0,0,0-.2.6v.6a34.1,34.1,0,0,0,1.4,5.5c1.3,3.5,2.6,6.7,3.8,9.8,2.3,6.2,4.8,11.4,6.7,15.8s3.5,7.7,4.5,10a17.3,17.3,0,0,1,1.2,2.6,1.3,1.3,0,0,1,.3.7v0a1.6,1.6,0,0,1-.3-.6l-1.3-2.6-4.7-10c-1.9-4.3-4.4-9.5-6.8-15.7-1.2-3.1-2.6-6.4-3.8-9.9a23.4,23.4,0,0,1-1.5-5.5v-.8a1.1,1.1,0,0,1,.3-.8,1.8,1.8,0,0,1,1.5-.8,6.2,6.2,0,0,1,2.9,1.2l-.4.3a87.5,87.5,0,0,1-4.2-9.8,15.1,15.1,0,0,1-1.1-5.6,2.3,2.3,0,0,1,.5-1.5,2.5,2.5,0,0,1,2.8-1.1l1.4.8-.5.4a18.6,18.6,0,0,1-1.7-4.1,8.5,8.5,0,0,1-.3-4.5,3.4,3.4,0,0,1,1.3-2,2.1,2.1,0,0,1,1.3-.3,4.3,4.3,0,0,1,1.2.5,17.2,17.2,0,0,1,3.3,3.3h-.5a4.8,4.8,0,0,1,2.3-1.3,3.4,3.4,0,0,1,2.7.7,8.2,8.2,0,0,1,1.7,2l1.3,2.2c1.8,3,3.7,6,5.6,9l7.3,11.9-.5.2a61.2,61.2,0,0,1,.2-10.5,20.2,20.2,0,0,1,.4-2.6,7.8,7.8,0,0,1,.7-2.5,4.6,4.6,0,0,1,1.9-2,2.4,2.4,0,0,1,2.6.2,4.7,4.7,0,0,1,1.6,2.1c.1.4.3.8.4,1.2l.2,1.2c.3,1.7.3,3.3.5,4.9a92.8,92.8,0,0,0,1.5,9.2c2.3,11.8,4.9,22.4,7,31.2,0,.1,0,.2-.1.2l-19.5,8.9-5.3,2.4-1.3.6Z"/><path class="cls-10" d="M295.8,139c-.1.1-3.1-5.7-6.7-13s-6.4-13.2-6.2-13.3,3.2,5.8,6.8,13S296,139,295.8,139Z"/><path class="cls-10" d="M289.8,144.5c-.1.1-2.8-5.5-6-12.4s-5.6-12.6-5.4-12.7,2.8,5.5,6,12.4S290,144.4,289.8,144.5Z"/><path class="cls-10" d="M286.4,151.9l-1.5-2a51.5,51.5,0,0,1-2.8-5.4,40,40,0,0,1-2.2-5.7l-.6-2.4c.2-.1,1.4,3.6,3.3,7.9S286.6,151.8,286.4,151.9Z"/><path class="cls-9" d="M268.7,119.3a3.2,3.2,0,0,0-3.7-1.5c-3.2.9-8.5,2.5-10,3.9s-6.8,7-6.8,10.4c0,1.1-1,3-1.4,4.8a10.1,10.1,0,0,0-.1,3.5,10.3,10.3,0,0,0,3,4.3c1.4,1.3,6.6,13.7,6.6,13.7l3.1,12.6,13.9,4.8,11.4,4s-.8-13.3-2.7-15.1-11.9,1.9-12.4-2.4l.8-18.1,2.7-5.1-.7-3.3-2.3-.7a2.8,2.8,0,0,0,.4-3.8l-2-1.7c2.5-.8,3.5-2.4,2.2-5.1-.7-.8-2-.9-3.5-.8A4.8,4.8,0,0,0,268.7,119.3Z"/><path class="cls-10" d="M268,159.8l-.4-.5-1-1.3a12.9,12.9,0,0,1-1.3-2.4,6.9,6.9,0,0,1-.6-3.6,8.4,8.4,0,0,1,1.6-4,37.3,37.3,0,0,1,3.3-3.8,13.1,13.1,0,0,0,2.8-4.5,4.2,4.2,0,0,0,.1-2.7,2.3,2.3,0,0,0-1.9-1.5,5.4,5.4,0,0,0-2.4,1.4l-2.1,2-4.1,3.6c-2.7,2.3-5,4.4-6.1,6.8a7.6,7.6,0,0,0-.7,5.9c.3,1.4.7,2.2.6,2.2l-.3-.5c-.1-.4-.4-.9-.6-1.6a7.2,7.2,0,0,1-.3-2.7,7.9,7.9,0,0,1,.9-3.5c1.1-2.5,3.5-4.7,6.1-7l4.1-3.7,2.1-1.9a4.9,4.9,0,0,1,2.8-1.6,2.8,2.8,0,0,1,2.5,1.9,5.4,5.4,0,0,1-.1,3.1,12.7,12.7,0,0,1-3,4.7,26.4,26.4,0,0,0-3.2,3.7,8.6,8.6,0,0,0-1.7,3.8,6.3,6.3,0,0,0,.5,3.4,17.8,17.8,0,0,0,1.2,2.4A10.6,10.6,0,0,1,268,159.8Z"/><path class="cls-10" d="M258.4,145.5l-.2-.2-.3-.6a3.5,3.5,0,0,1-.3-1.1,1.9,1.9,0,0,1,.2-1.6h.1l9.6-5.4a7.1,7.1,0,0,0,2.7-2.1,2.7,2.7,0,0,0,.6-1.6,2.4,2.4,0,0,0-.7-1.6,3.6,3.6,0,0,0-3.6-.7,25.6,25.6,0,0,0-4,1.6l-10.8,4.9a4.6,4.6,0,0,0-2,1.6,3.5,3.5,0,0,0-.6,2.2,14.3,14.3,0,0,0,1.2,4.3,37,37,0,0,0,2.8,5.9,23.5,23.5,0,0,1,1.1,2.1l-.4-.5-.9-1.5a30.3,30.3,0,0,1-3-5.8,14,14,0,0,1-1.3-4.5,3.9,3.9,0,0,1,.6-2.5,6.3,6.3,0,0,1,2.2-1.8l10.9-5a19.7,19.7,0,0,1,4-1.6,4.3,4.3,0,0,1,4.2.9,2.5,2.5,0,0,1,.9,2,3.2,3.2,0,0,1-.7,1.9,9.3,9.3,0,0,1-3,2.3l-9.7,5.1h.1a1.4,1.4,0,0,0-.3,1.4,3,3,0,0,0,.2,1A4.1,4.1,0,0,0,258.4,145.5Z"/><path class="cls-10" d="M248.2,135.3l.6-1.3a21.1,21.1,0,0,1,2.1-3.3,11.4,11.4,0,0,1,4.6-3.6,52.7,52.7,0,0,1,6.7-2.2l3.5-1a8.3,8.3,0,0,1,3.5-.5,3,3,0,0,1,1.5.7,3.1,3.1,0,0,1,.9,1.4,3.1,3.1,0,0,1-.7,2.7,4.9,4.9,0,0,1-3.4,1.8H266l1.4-.2a5.5,5.5,0,0,0,3.2-1.8,3.2,3.2,0,0,0,.5-2.4,2.3,2.3,0,0,0-2-1.6,7.4,7.4,0,0,0-3.2.5l-3.5,1c-2.4.7-4.7,1.3-6.7,2.1a13.5,13.5,0,0,0-4.5,3.3,38.4,38.4,0,0,0-2.2,3.2C248.5,134.9,248.3,135.3,248.2,135.3Z"/><path class="cls-11" d="M338.7,193.3l-.3-.4-.8-1.3-2.9-4.9c-2.5-4.4-6.1-10.7-10.6-18.4h.3l-33.5,15.8v-.3a372.2,372.2,0,0,0,14,34.8c5.9,13.1,12.3,25.1,18.3,35.9,3.1,5.4,6,10.6,8.8,15.3s6,8.8,9.7,11.6a19.7,19.7,0,0,0,5.9,3.1,16.9,16.9,0,0,0,5.8,1,20.8,20.8,0,0,0,9.2-1.6,17,17,0,0,0,5-3.4c.9-1,1.3-1.6,1.4-1.5l-.4.4a4.4,4.4,0,0,1-1,1.2,15.1,15.1,0,0,1-4.9,3.5,21.3,21.3,0,0,1-9.4,1.8,27,27,0,0,1-5.9-1,22.3,22.3,0,0,1-5.9-3.1c-3.8-2.9-7-7.1-9.9-11.8s-5.8-9.8-8.9-15.2c-6.1-10.8-12.4-22.9-18.4-35.9s-10.1-24-13.9-35v-.2h.2L324.2,168h.3l10.4,18.5c1.2,2.2,2.2,3.9,2.8,5.1a6.6,6.6,0,0,1,.8,1.3Z"/><path class="cls-17" d="M267,106.4a4,4,0,0,1-1.9-.1,7.8,7.8,0,0,1-3.8-2.4,7.9,7.9,0,0,1-1.9-4.1c-.1-1.2.1-1.9.2-1.9a10.8,10.8,0,0,1,.3,1.8,7.7,7.7,0,0,0,1.8,3.8,8.4,8.4,0,0,0,3.6,2.4A9.5,9.5,0,0,1,267,106.4Z"/><path class="cls-17" d="M287.1,95.9a5.1,5.1,0,0,1,.7,1,31.2,31.2,0,0,1,1.8,2.7,60.4,60.4,0,0,1,4.3,9.9,48.3,48.3,0,0,1,2.4,10.4,24.8,24.8,0,0,1,.3,3.3v1.2a41,41,0,0,1-.7-4.4,55.2,55.2,0,0,0-2.6-10.3,70.9,70.9,0,0,0-4.1-9.8A43.3,43.3,0,0,1,287.1,95.9Z"/><path class="cls-17" d="M266.5,108.6c0,.1-.7.2-2,0a10.3,10.3,0,0,1-4.4-1.6,12.7,12.7,0,0,1-3.6-3,10.6,10.6,0,0,1-1-1.7c.2-.2,1.8,2.4,4.9,4.2S266.5,108.4,266.5,108.6Z"/><path class="cls-8" d="M307.3,407.9l40.8,18.5s11.2,4.2,14.2,3.5,8.7-2.8,7-12.9-21-22.3-21-22.3Z"/><path class="cls-8" d="M301.9,376.5l-58.5,19.1c-3.5,1.1-7.6,4.8-6.4,9.5l22.9,65.7s7,2.3,5.7-40.4l49.5-16.3Z"/><path class="cls-18" d="M265.5,450.7c0,.2-2.7-1.4-6.3-1.3s-6.2,1.7-6.3,1.5a5,5,0,0,1,1.7-1,11.1,11.1,0,0,1,4.6-1.1,9.9,9.9,0,0,1,4.6.9C265,450.2,265.6,450.6,265.5,450.7Z"/><path class="cls-18" d="M247.7,394.8c0-.1.4,0,1.1.3a6.3,6.3,0,0,1,2,2.4,11.9,11.9,0,0,1,.8,4.4,21.7,21.7,0,0,1-.3,5.6,15.5,15.5,0,0,1-2,5.1,9.9,9.9,0,0,1-3.3,3.2,6.3,6.3,0,0,1-2.8,1.2l-1.1.2c-.1-.2,1.6-.3,3.7-1.7a11.7,11.7,0,0,0,3-3.2,14.3,14.3,0,0,0,1.9-4.9,26,26,0,0,0,.4-5.4,16.1,16.1,0,0,0-.7-4.3,5.4,5.4,0,0,0-1.8-2.4A2.6,2.6,0,0,0,247.7,394.8Z"/><path class="cls-18" d="M282.9,425.1c-.1.1-.4-.4-.8-1.3s-1.2-2.1-2-3.7c-1.7-3.2-3.9-7.6-6.2-12.5s-4.3-9.4-5.7-12.7c-.7-1.6-1.2-2.9-1.6-3.9l-.5-1.4c.1,0,.3.4.8,1.3s1,2.3,1.7,3.9c1.6,3.3,3.6,7.7,5.9,12.6l6,12.5,1.8,3.8Z"/><path class="cls-19" d="M436.5,328.4c-8.5-7.1-10.1-8.4-26.5-9.7s-43.4,2.3-43.4,2.3-51.2,15.8-75.6,12.9-46.7-16.6-46.7-16.6-58-1.5-66,.6-23.1,7.6-26.1,16.8-5,20.2,3.4,30.7,50.8,29.9,50.8,29.9l39.8-.7,26.5-8.3,17.5,37s123.1-39,128.6-39.4,29.9-15.1,29.9-22.7S444.9,335.6,436.5,328.4Z"/><path class="cls-12" d="M299.1,373.2h-.3l-.8-.2-3.3-1.1-11.9-4.1c-10-3.6-23.8-9-38.6-15.6s-28-13.4-37.4-18.5c-4.7-2.5-8.4-4.6-11-6.1l-3-1.7-.7-.5-.3-.2h.3l.8.4,3,1.7,11.1,5.9c9.4,5,22.6,11.7,37.4,18.3S273,363.6,283,367.3l11.8,4.3,3.2,1.2.9.3Z"/><path class="cls-12" d="M391.8,332.2c.1,0,0,.2,0,.4a10.4,10.4,0,0,0-.3,1.2c-.2,1.2-.6,2.7-1,4.7h-.1c-10.2,4.1-32.9,12.9-59.3,23.1l-59.5,22.7h.1l2.4,4.1a5.4,5.4,0,0,0,.6,1.1l.2.4-.3-.4a3.7,3.7,0,0,0-.6-1l-2.6-4.1h.1l59.3-23.1,59.5-22.7h-.1l1.2-4.7.3-1.2A1,1,0,0,0,391.8,332.2Z"/><path class="cls-11" d="M300.1,11.7c.2,0-1.5,3.7-2.1,8.5s.2,8.8,0,8.8a6.4,6.4,0,0,1-.6-2.5,27.2,27.2,0,0,1,0-6.4,25.8,25.8,0,0,1,1.5-6.1A8.2,8.2,0,0,1,300.1,11.7Z"/><path class="cls-11" d="M309.6,18.5c.1.2-3.5,1.5-7,4.7s-5.2,6.5-5.4,6.3a11.8,11.8,0,0,1,1.1-2.2,21.2,21.2,0,0,1,3.9-4.6,19.4,19.4,0,0,1,5-3.3A10.6,10.6,0,0,1,309.6,18.5Z"/><path class="cls-11" d="M254.1,15.9a4.5,4.5,0,0,0-2.6-.8,4.8,4.8,0,0,0-3,1.1,4.9,4.9,0,0,0-1.9,3.6,7.4,7.4,0,0,0,1.9,4.7,8.5,8.5,0,0,0,5.3,2.4,13.3,13.3,0,0,0,6.4-1.2,35.6,35.6,0,0,0,6.2-3.6,70.5,70.5,0,0,1,6.2-3.9,17.4,17.4,0,0,1,6.6-1.7,19.7,19.7,0,0,1,6.1.7,23.5,23.5,0,0,1,5.1,1.8,8.9,8.9,0,0,1,3.5,2.7,7.1,7.1,0,0,1,1.4,3.1,3.5,3.5,0,0,1-.1,2.1l-.2.7a7.7,7.7,0,0,0,.1-2.8,7,7,0,0,0-1.4-2.9,8.5,8.5,0,0,0-3.5-2.5,26.5,26.5,0,0,0-5-1.7,22.6,22.6,0,0,0-6-.6,14.5,14.5,0,0,0-6.3,1.7,43.9,43.9,0,0,0-6.1,3.8,37,37,0,0,1-6.3,3.7,14.9,14.9,0,0,1-6.8,1.2,8.5,8.5,0,0,1-3.1-.9,7.6,7.6,0,0,1-2.5-1.8,7.2,7.2,0,0,1-1.9-5,5.6,5.6,0,0,1,.7-2.3,5.6,5.6,0,0,1,1.4-1.6,5.4,5.4,0,0,1,3.2-1,3.8,3.8,0,0,1,2.1.5l.4.3Z"/><path class="cls-11" d="M247.7,67.8a8.5,8.5,0,0,0,2.1.2,17.8,17.8,0,0,0,5.5-.7,25.3,25.3,0,0,0,7.5-3.8,75.1,75.1,0,0,0,7.7-6.7,69,69,0,0,1,7.8-6.9,24.5,24.5,0,0,1,7.6-3.8,16.2,16.2,0,0,1,5.6-.8l1.6.2c.3.1.5.1.5.2a17,17,0,0,0-7.6.8,25.3,25.3,0,0,0-7.4,3.9,75.2,75.2,0,0,0-7.7,6.8,59.2,59.2,0,0,1-7.8,6.8,24.5,24.5,0,0,1-7.7,3.7,18,18,0,0,1-5.7.6l-1.5-.3C247.9,67.9,247.7,67.9,247.7,67.8Z"/><path class="cls-11" d="M319.6,35.5a18.9,18.9,0,0,0-1.8-3.1,12.5,12.5,0,0,0-6.9-4.7,13,13,0,0,0-8.3.8c-2,.9-3,1.9-3.1,1.8s.2-.3.7-.7a6.9,6.9,0,0,1,2.2-1.5,12.1,12.1,0,0,1,8.7-1,13.2,13.2,0,0,1,7.1,5,13.1,13.1,0,0,1,1.2,2.4C319.6,35.1,319.7,35.4,319.6,35.5Z"/><path class="cls-10" d="M264,92.4c.1.8-2,1.6-4.7,1.4s-4.6-1.3-4.4-2.1,2.3-1.2,4.7-1S264,91.5,264,92.4Z"/><path class="cls-10" d="M302.2,87c.3.8-3,3.2-7.8,4.7s-9,1.5-9.1.7,3.6-2.1,8.1-3.6S301.8,86.2,302.2,87Z"/></g></g></svg>