<svg id="_1" data-name="1" xmlns="http://www.w3.org/2000/svg" viewBox="0 0 580 480"><defs><style>.cls-1{fill:#2b4751;}.cls-2{fill:#20e57e;}.cls-3{fill:#e0e0e0;}.cls-4{fill:#ebebeb;}.cls-5{fill:#fff;}.cls-6{fill:#546e7a;}.cls-7{fill:#ffbe9d;}.cls-8{fill:#eb996e;}.cls-9{opacity:0.6;}.cls-10{opacity:0.3;}.cls-11{fill:#455a64;}.cls-12{fill:#fafafa;}.cls-13{fill:#cde2e7;}.cls-14{fill:#889699;}.cls-15{fill:#bcbec0;}.cls-16{fill:#0b6d53;}</style></defs><path class="cls-1" d="M485.53,134.3c1.47-13.86-8.28-26-21.78-27.19a24.2,24.2,0,0,0-7.4.51c.74,1.37,1.64,3.09,2.56,4.86l.56-.08a20.34,20.34,0,0,1,3.12-.09,19.84,19.84,0,0,1,3.08.42,18.84,18.84,0,0,1,2.88.89,17.47,17.47,0,0,1,2.59,1.31,16.36,16.36,0,0,1,2.27,1.61,18.78,18.78,0,0,1,3.47,3.82,19.78,19.78,0,0,1,2.07,4,18.36,18.36,0,0,1,1.14,6.44,6,6,0,0,1-.31,2.38h0l-.06.62c-1.09,10.32-10,18.05-20,17.57l-2.7,5.76c.44.07.91.12,1.36.16C471.92,158.46,484.06,148.15,485.53,134.3Z"/><path class="cls-2" d="M459.26,134.6l.6.59v-.39Z"/><path class="cls-2" d="M460.56,127.49l-1.49,2.31a5.38,5.38,0,0,0,1.22.67Z"/><path class="cls-2" d="M464.62,138c.1-1.05-.69-1.67-1.9-2.21l-.19,2.13,1.37,1.39A1.83,1.83,0,0,0,464.62,138Z"/><path class="cls-2" d="M479.52,130.85a20.15,20.15,0,0,0-1.52-6,18.77,18.77,0,0,0-2.1-3.7,17.7,17.7,0,0,0-3.33-3.48,16.37,16.37,0,0,0-2.13-1.46,17.54,17.54,0,0,0-5.1-2,19.18,19.18,0,0,0-2.81-.39,19.49,19.49,0,0,0-2.86.08l2.61,5.1,2,.15-.3,3.26a12.54,12.54,0,0,1,5.72,2.23l-1.82,3.56a11.58,11.58,0,0,0-4.3-1.87l-.46,5.08c3.14,1,6.58,2.36,6.2,6.56-.27,2.79-2.27,5.1-6,5.73l-3.53,7.72c10,.48,18.93-7.3,20-17.66V133A13.86,13.86,0,0,1,479.52,130.85Z"/><path class="cls-3" d="M459.62,113.86a20.22,20.22,0,0,1,2.91-.09,19.51,19.51,0,0,1,2.85.38,17.6,17.6,0,0,1,5.11,2,17.08,17.08,0,0,1,2.13,1.46,18.24,18.24,0,0,1,5.42,7.18,19.87,19.87,0,0,1,1.53,6,13.08,13.08,0,0,0,.24,2.34h0a5.89,5.89,0,0,0,.31-2.39,17.92,17.92,0,0,0-1.14-6.44,19.29,19.29,0,0,0-2.07-4,19,19,0,0,0-3.46-3.82,18.23,18.23,0,0,0-2.27-1.61,17.57,17.57,0,0,0-5.47-2.2,22.8,22.8,0,0,0-3.08-.42,21.2,21.2,0,0,0-3.65.16h0Z"/><path class="cls-1" d="M469.33,137.94c.38-4.2-3.06-5.57-6.2-6.56l.46-5.08a11.58,11.58,0,0,1,4.3,1.87l1.82-3.56a12.67,12.67,0,0,0-5.71-2.24l-3.4,5.13-.27,2.93a4.68,4.68,0,0,1-1.22-.67l-1.82,2.79,2,2.06.63.2v.39l2.67,2.67.19-2.13c1.21.54,2,1.17,1.91,2.21a1.91,1.91,0,0,1-.72,1.31l1,1-1.58,3.4C467.09,143,469.06,140.73,469.33,137.94Z"/><path class="cls-1" d="M462.24,119l1.72,3.4.29-3.25Z"/><path class="cls-1" d="M457.18,151.57h-1a20.23,20.23,0,0,1-3.1-.4,19.74,19.74,0,0,1-5.47-2,19.26,19.26,0,0,1-4.21-3.18,18.31,18.31,0,0,1-2.83-3.56,17.39,17.39,0,0,1-2.32-6.12,5.77,5.77,0,0,1-.12-2.41h0a2.11,2.11,0,0,0-.06-.61,19.5,19.5,0,0,1,17.56-20.7l-.3-.55-2.73-5a25.59,25.59,0,0,0-20.52,26.79,24.94,24.94,0,0,0,22.66,23l.24-.5Z"/><path class="cls-2" d="M438.11,133.29l.17.74c.11.34.26,1,.55,2a19.93,19.93,0,0,0,2.65,5.71,19,19,0,0,0,2.8,3.28,18.41,18.41,0,0,0,4,2.85,16.65,16.65,0,0,0,2.44,1.09,19.2,19.2,0,0,0,5.56,1.1h.79l1.12-.73,4.14-8.8-.18-.18a11.38,11.38,0,0,1-2.95,1l.29,3.31-3,.29-.28-3.25a13.67,13.67,0,0,1-6.24-1.23l1.19-3.82a12.13,12.13,0,0,0,4.71,1.11l-.34-3.92-1-1-.14-.15.09-.14c-3.1-.49-6.2-1.47-6.53-5.27-.26-3.1,1.78-6,6.43-7L454.1,117l3-.29.28,3.25a16.87,16.87,0,0,1,2.46.09l-4.16-7.56A19.51,19.51,0,0,0,438.11,133.29Z"/><path class="cls-4" d="M459.1,137.39l-.25-.24v.33Z"/><path class="cls-2" d="M452.75,126.55c.08,1,1,1.52,2.33,1.84l-.36-4.11C453.25,124.75,452.66,125.59,452.75,126.55Z"/><path class="cls-2" d="M458,127.41l2.21-3.27a11.93,11.93,0,0,0-2.52-.27Z"/><path class="cls-3" d="M453.41,149.74a18.22,18.22,0,0,1-2.69-.75,16.65,16.65,0,0,1-2.44-1.09,18.65,18.65,0,0,1-4-2.85,19.43,19.43,0,0,1-2.8-3.28,19.78,19.78,0,0,1-2.63-5.74,14.85,14.85,0,0,0-.66-2.25h0a5.77,5.77,0,0,0,.12,2.41,17.39,17.39,0,0,0,2.32,6.12,18.31,18.31,0,0,0,2.83,3.56,19.22,19.22,0,0,0,4.21,3.17,19.45,19.45,0,0,0,5.47,2.06,20.23,20.23,0,0,0,3.1.4h1l.49-1.05.2-.44H456.3A18.72,18.72,0,0,1,453.41,149.74Z"/><path class="cls-1" d="M451.18,136.74,450,140.56a13.8,13.8,0,0,0,6.24,1.23l.28,3.25,3-.29-.29-3.31a11.38,11.38,0,0,0,2.95-1l-2.05-2-1-1-.22.09v-.33l-2-2-1.3-1.28.34,3.93A12.28,12.28,0,0,1,451.18,136.74Z"/><path class="cls-1" d="M457.06,116.72l-3,.28.28,3.34c-4.65,1-6.69,3.93-6.43,7,.33,3.8,3.43,4.78,6.53,5.27l2.61-3.73,1-1.45-.31-3.56a12.63,12.63,0,0,1,2.53.26l1-1.51-.46-.83-.64-1.17-.31-.56a14.46,14.46,0,0,0-2.46-.09Zm-4.34,9.79c-.08-1,.5-1.78,2-2.27l.35,4.12c-1.3-.29-2.22-.77-2.3-1.81Z"/><path class="cls-1" d="M407.21,59.51c7.19-12.95,2.68-28.67-10-35.14A25.06,25.06,0,0,0,389.75,22c.15,1.63.32,3.66.48,5.75.2,0,.39.09.6.15A22.38,22.38,0,0,1,393.92,29a21,21,0,0,1,2.83,1.64,18.75,18.75,0,0,1,2.44,2,18.22,18.22,0,0,1,2,2.3,18.6,18.6,0,0,1,1.55,2.47,19.73,19.73,0,0,1,1.8,5.1,20.88,20.88,0,0,1,.36,4.73A19.28,19.28,0,0,1,403.34,54c-.67,1.5-1.2,2.25-1.3,2.21h0l-.29.59C396.4,66.4,384.55,70.45,375,66l-5,4.58c.4.24.82.47,1.25.69C383.93,77.74,400,72.47,407.21,59.51Z"/><path class="cls-4" d="M381.44,49.45l.32.81.2-.37Z"/><path class="cls-2" d="M385.64,43l-2.4,1.62a5.34,5.34,0,0,0,.93,1.13Z"/><path class="cls-2" d="M385.27,54.85c.53-1,0-1.91-.94-2.93l-1.07,2,.77,1.91A2,2,0,0,0,385.27,54.85Z"/><path class="cls-2" d="M402.78,53.78a21.55,21.55,0,0,0,1-6.52,20,20,0,0,0-.52-4.43,18.91,18.91,0,0,0-1.79-4.71,17.77,17.77,0,0,0-3.37-4.39,20.14,20.14,0,0,0-2.27-1.85,18.43,18.43,0,0,0-5.48-2.56c.17,2.16.32,4.29.44,6l1.92.94-1.64,3.06a13.05,13.05,0,0,1,4.66,4.44l-3.22,2.78a11.92,11.92,0,0,0-3.42-3.51l-2.53,4.77c2.66,2.22,5.45,4.9,3.33,8.85-1.4,2.63-4.32,4.1-8.23,3.23L375,66c9.58,4.44,21.49.35,26.81-9.36.08-.2.2-.54.29-.75S402.45,54.83,402.78,53.78Z"/><path class="cls-5" d="M391.63,31.17a18.68,18.68,0,0,1,5.46,2.56,20.14,20.14,0,0,1,2.27,1.85A17.73,17.73,0,0,1,402.72,40a18.56,18.56,0,0,1,1.8,4.71,20,20,0,0,1,.52,4.43,21.25,21.25,0,0,1-1,6.52,15,15,0,0,0-.73,2.37h0a10.16,10.16,0,0,0,1.29-2.21,19.27,19.27,0,0,0,1.55-6.73,20.88,20.88,0,0,0-.36-4.73,19.86,19.86,0,0,0-1.8-5.1,17.62,17.62,0,0,0-1.55-2.47,17.45,17.45,0,0,0-2-2.3,19.06,19.06,0,0,0-2.4-2,19.67,19.67,0,0,0-6.5-2.92h0Z"/><path class="cls-1" d="M389.88,56.67c2.12-4-.68-6.63-3.31-8.85l2.55-4.77a12,12,0,0,1,3.43,3.51l3.22-2.78a13.08,13.08,0,0,0-4.67-4.44L385.66,43l-1.49,2.76a5.78,5.78,0,0,1-.91-1.13l-3,2,1.15,2.81.52.44-.2.37,1.5,3.68,1.07-2c1,1,1.47,1.93.94,2.93a2,2,0,0,1-1.24,1l.55,1.36-2.94,2.7C385.56,60.77,388.48,59.3,389.88,56.67Z"/><path class="cls-3" d="M390.8,35.35c.17,2.34.28,4,.28,4l1.64-3.06Z"/><path class="cls-1" d="M372.38,65.19q-.48-.18-.93-.39a20.48,20.48,0,0,1-5.33-3.57,20.23,20.23,0,0,1-2-2.21A19.61,19.61,0,0,1,360,49.65a18.27,18.27,0,0,1,.27-6.91,6,6,0,0,1,.88-2.39h0c.06-.21.12-.41.19-.62a21.09,21.09,0,0,1,25.72-13.29l-.06-.63-.59-6a27.68,27.68,0,0,0-31.12,18.06,25.81,25.81,0,0,0,12.58,31.44l.43-.38Z"/><path class="cls-2" d="M361.32,39.85l-.15.78c0,.38-.17,1.13-.3,2.21a21.33,21.33,0,0,0,.22,6.62,20.07,20.07,0,0,0,1.39,4.31,19.1,19.1,0,0,0,2.74,4.37,19.31,19.31,0,0,0,6.91,5.29l.76.32,1.39-.25,7.7-7-.1-.25a11.84,11.84,0,0,1-3.31-.14l-1.1,3.34-3-.91,1.07-3.28a14.2,14.2,0,0,1-5.58-3.67l2.73-3.26a12.82,12.82,0,0,0,4.15,2.93l1.29-4-.6-1.38-.08-.2.15-.1c-2.82-1.69-5.45-3.87-4.19-7.72,1-3.13,4.19-5.16,9.18-4.32l1.1-3.38,3,.9-1.07,3.29a19.6,19.6,0,0,1,2.4,1.05l-.94-9A21.07,21.07,0,0,0,361.32,39.85Z"/><path class="cls-4" d="M380.12,52.13,380,51.8l-.11.33Z"/><path class="cls-2" d="M378.4,39c-.35,1.05.35,1.89,1.51,2.72l1.36-4.16C379.64,37.46,378.71,38,378.4,39Z"/><path class="cls-2" d="M383.18,41.93l3.53-2.34a14,14,0,0,0-2.36-1.25Z"/><path class="cls-5" d="M370.74,63.78A19.31,19.31,0,0,1,366.49,60a19.78,19.78,0,0,1-2.75-4.38,20.43,20.43,0,0,1-1.38-4.31,21,21,0,0,1-.22-6.62,14.27,14.27,0,0,0,.28-2.46h0a8.71,8.71,0,0,0-.88,2.39,18.27,18.27,0,0,0-.27,6.91,20.09,20.09,0,0,0,6.12,11.58,20.48,20.48,0,0,0,5.33,3.57c.3.14.6.27.93.39l.91-.82.38-.35c-.52-.19-1-.39-1.54-.62A19.72,19.72,0,0,1,370.74,63.78Z"/><path class="cls-1" d="M372.65,48.34l-2.73,3.26a14,14,0,0,0,5.58,3.67l-1.07,3.3,3,.9,1.1-3.35a11.48,11.48,0,0,0,3.31.15l-1.2-2.77-.6-1.38h-.25l.11-.32-1.15-2.71-.74-1.75-1.29,4A12.77,12.77,0,0,1,372.65,48.34Z"/><path class="cls-1" d="M386.71,31.12l-3-.9-1.1,3.37c-5-.84-8.16,1.17-9.18,4.33-1.25,3.84,1.37,6,4.19,7.72L381.62,43l1.56-1,1.17-3.58a14,14,0,0,1,2.36,1.25l1.61-1.07-.1-1-.14-1.41-.08-.67a18.88,18.88,0,0,0-2.39-1.06ZM378.4,39c.31-1,1.24-1.55,2.87-1.44l-1.36,4.16C378.78,40.9,378.05,40.06,378.4,39Z"/><polygon class="cls-3" points="320.17 290.85 322.56 434.48 330.79 434.48 330.79 290.85 320.17 290.85"/><polygon class="cls-3" points="423.02 287.99 423.02 434.52 431.02 434.56 431.02 287.99 423.02 287.99"/><rect class="cls-3" x="322.66" y="317.94" width="101.38" height="8.72"/><path class="cls-6" d="M304,267.49H446.81a5,5,0,0,1,5,4.91v14.87a5,5,0,0,1-5,4.91H304a5,5,0,0,1-5-4.91V272.4A5,5,0,0,1,304,267.49Z"/><path class="cls-7" d="M245.77,138.36l.79-39.29,12.5-27.42s1.64-2.89,2.93-1.41-.28,3.29-.28,3.29,2.87-.57,2.41,2-1.34,6.17-1.34,6.17.58,3.14-2.42,8.68-3.23,8-3.23,8,3.79,5.24,6.79,6.44a6.79,6.79,0,0,0,7.76-1.67,41.38,41.38,0,0,1,7.44-4.64l3.77,4.52s-5.78,6.14-6.86,8.26-4.29,10.12-7.63,12.89-4.14,12.23-4.14,12.23S262.58,146.29,245.77,138.36Z"/><path class="cls-8" d="M249.59,101.12a26,26,0,0,1,1.34-3.93c.93-2.38,2.24-5.65,3.74-9.25l2.15-5.06a7.2,7.2,0,0,1,1.34-2.11,3.72,3.72,0,0,1,1.95-1.11A2.33,2.33,0,0,1,262,80a2.09,2.09,0,0,1,.84,1.1c.21.77-.12,1.16-.14,1.12a2.25,2.25,0,0,0-.12-1,2,2,0,0,0-2.32-1.06,3.34,3.34,0,0,0-1.63,1,6.72,6.72,0,0,0-1.17,2c-.64,1.58-1.34,3.28-2.09,5.08-1.5,3.58-2.88,6.83-3.93,9.16A24,24,0,0,1,249.59,101.12Z"/><path class="cls-8" d="M260.34,73.89c.1.08-1,1.31-2.28,3.46a57.11,57.11,0,0,0-4,9.09,51.07,51.07,0,0,1-4.1,9.16,16.25,16.25,0,0,1-1.8,2.49c-.47.55-.75.83-.79.8s.93-1.31,2.16-3.53a67,67,0,0,0,3.88-9.17A45.33,45.33,0,0,1,257.62,77a14.15,14.15,0,0,1,1-1.42,8.34,8.34,0,0,1,.86-1C260,74.13,260.3,73.85,260.34,73.89Z"/><path class="cls-8" d="M261.56,118.64a4.73,4.73,0,0,1-.65-2.22,10.37,10.37,0,0,1,4.5-9.79,4.91,4.91,0,0,1,2.14-1c0,.11-.75.5-1.83,1.38a11.21,11.21,0,0,0-4.32,9.37C261.44,117.76,261.67,118.6,261.56,118.64Z"/><path class="cls-8" d="M260.34,125.79a3,3,0,0,0,0-1,18.41,18.41,0,0,0-.76-2.73c-.75-2.31-2-5.44-3.12-9a25.52,25.52,0,0,1-1.21-5.15,5.73,5.73,0,0,1,.29-2.36c.22-.65.42-1.28.61-1.88a6.5,6.5,0,0,0,.28-2.77c-.11-.64-.31-1-.26-1a1.71,1.71,0,0,1,.51,1,5.6,5.6,0,0,1,0,2.93c-.14.61-.35,1.25-.52,1.93a4.89,4.89,0,0,0-.21,2.15,27.85,27.85,0,0,0,1.22,5c1.14,3.51,2.3,6.68,2.94,9a13.27,13.27,0,0,1,.55,2.86C260.66,125.45,260.38,125.82,260.34,125.79Z"/><path class="cls-2" d="M237.21,381l2.45,36.09s-36.79,11.93-37,18.63l71.87.51-1.45-56.39Z"/><g class="cls-9"><path class="cls-5" d="M263,415.26a2.88,2.88,0,0,1,2.13,3.21,2.81,2.81,0,0,1-3.23,2.1,3,3,0,0,1-2.24-3.42,2.94,2.94,0,0,1,3.61-1.81"/></g><g class="cls-9"><path class="cls-5" d="M275.79,438.09l-.15-5.69-69.41,1.88a4.82,4.82,0,0,0-2.68,3.81Z"/></g><path class="cls-1" d="M238.48,416.77c0,.34,1.78.45,3.54,1.5s2.68,2.46,3,2.31-.27-2.1-2.41-3.33S238.4,416.46,238.48,416.77Z"/><path class="cls-1" d="M231,420c0,.35,1.47.88,2.68,2.3s1.62,2.93,2,2.9.51-2-1.06-3.7S231,419.71,231,420Z"/><path class="cls-1" d="M227,429c.32.07.76-1.66-.2-3.5s-2.68-2.54-2.76-2.26.91,1.31,1.67,2.79S226.68,428.94,227,429Z"/><path class="cls-1" d="M238.85,408.49c.17.3,1.76-.21,3.74-.15s3.56.64,3.73.34-1.34-1.48-3.7-1.53S238.65,408.17,238.85,408.49Z"/><g class="cls-10"><polygon points="237.7 388.15 238.13 394.58 273.41 393.22 273.28 387.42 237.7 388.15"/></g><path class="cls-1" d="M238.51,401.19a6.84,6.84,0,0,0,3.59-.12,16.11,16.11,0,0,0,3.72-1.24,15.64,15.64,0,0,0,2-1.14,4,4,0,0,0,1.06-.85A1.49,1.49,0,0,0,249,396a2,2,0,0,0-1.57-.74,5,5,0,0,0-1.34.23,12.45,12.45,0,0,0-2.21.81,12.79,12.79,0,0,0-3.26,2.22c-1.62,1.56-2.14,2.86-2,2.92s.93-1,2.6-2.29a13.72,13.72,0,0,1,5.2-2.54c.75-.21,1.34-.23,1.61.08s.08.18-.07.41a4.37,4.37,0,0,1-.79.63q-.9.6-1.86,1.11a20.17,20.17,0,0,1-3.44,1.4A28.05,28.05,0,0,0,238.51,401.19Z"/><path class="cls-1" d="M239,401.62a5.5,5.5,0,0,0,.85-3.41,11.29,11.29,0,0,0-1.6-5.93,3,3,0,0,0-2.34-1.72,1.71,1.71,0,0,0-1.48,1,4.94,4.94,0,0,0-.33,1.31,7.25,7.25,0,0,0,.08,2.37,7.89,7.89,0,0,0,1.65,3.58c1.46,1.78,2.93,2.15,3,2a14.94,14.94,0,0,1-2.27-2.52,8.18,8.18,0,0,1-1.23-3.27,6.91,6.91,0,0,1,0-2c.08-.75.35-1.31.65-1.31a2.59,2.59,0,0,1,1.34,1.11,11.89,11.89,0,0,1,1.75,5.37C239.11,400.32,238.77,401.62,239,401.62Z"/><path class="cls-1" d="M229.67,391.23s-2.8-123.41-.32-137.49,11.9-29.26,20.85-30.67,88.6-6.9,88.6-6.9h59.38L383,272.41l-72.39.64-22.51.51-7.26,117.73Z"/><path class="cls-11" d="M286.58,255a9,9,0,0,1,1.07,2.48,31.37,31.37,0,0,1,1.34,12.8,7.83,7.83,0,0,1-.52,2.62c-.22,0,.36-4.07-.2-9S286.36,255,286.58,255Z"/><path class="cls-11" d="M264.9,265.51a6.09,6.09,0,0,1,.93-.5,22.55,22.55,0,0,1,2.68-1,12.48,12.48,0,0,1,4.21-.6,9.88,9.88,0,0,1,4.9,1.73c3.05,2,5.73,3.8,7.67,5.13a20.8,20.8,0,0,1,3,2.31,22.26,22.26,0,0,1-3.32-1.9c-2-1.25-4.76-3-7.76-5a9.53,9.53,0,0,0-4.57-1.67,13,13,0,0,0-4,.43C266.32,265.08,264.94,265.62,264.9,265.51Z"/><path class="cls-11" d="M245.07,389.36c-.2,0-.34-28-.34-62.57s.14-62.57.34-62.57.35,28,.35,62.57S245.26,389.36,245.07,389.36Z"/><path class="cls-11" d="M275.88,228.9c0,.13-2.48.15-6.3,1.11a31.85,31.85,0,0,0-22.11,19.24c-1.42,3.61-1.71,6-1.86,6a6.85,6.85,0,0,1,.19-1.69,26.57,26.57,0,0,1,1.2-4.47,31,31,0,0,1,22.49-19.55,29.36,29.36,0,0,1,4.67-.67A7.07,7.07,0,0,1,275.88,228.9Z"/><path class="cls-11" d="M305,225.77a87.54,87.54,0,0,1-10.92,1.68,92.28,92.28,0,0,1-11,1A89.27,89.27,0,0,1,294,226.77,90.1,90.1,0,0,1,305,225.77Z"/><path class="cls-2" d="M373.86,381.54l-3.47,41.27L358,454.68a4.19,4.19,0,0,0,2.49,5.46l.31.11h0a4.32,4.32,0,0,0,3.9-.7c7.09-5.37,33.06-25.23,33.14-28.25.09-3.53,6.62-43.31,6.62-43.31Z"/><g class="cls-9"><path class="cls-5" d="M362.07,462.1l37.37-31.74-.19,1.76a6.24,6.24,0,0,1-2,3.92c-3,2.81-11.49,10.35-31.13,25.35a4.36,4.36,0,0,1-4,.69Z"/></g><g class="cls-9"><path class="cls-5" d="M392.19,416.19a2.6,2.6,0,0,0-1.09,3.26,2.55,2.55,0,0,0,3.3,1.07,2.68,2.68,0,0,0,1.13-3.46,2.71,2.71,0,0,0-3.55-.73"/></g><path class="cls-1" d="M372.37,443.25c-.24.09-1-2.16-3.35-3.59s-4.73-1.14-4.76-1.4.55-.37,1.56-.4a6.8,6.8,0,0,1,3.7,1,6.73,6.73,0,0,1,2.56,2.83C372.48,442.61,372.48,443.22,372.37,443.25Z"/><path class="cls-1" d="M368.78,448.46c-.23.16-1.44-1.31-3.54-2.16s-4-.68-4-.94,2-.89,4.41.1S369,448.37,368.78,448.46Z"/><path class="cls-1" d="M378.72,436.76c-.21.17-2.06-2.11-5.24-3.7s-6.11-1.78-6.1-2.07,3.15-.47,6.53,1.31S378.94,436.66,378.72,436.76Z"/><path class="cls-1" d="M380.86,424.29c-.14.24-2.36-1-5.37-1.37s-5.49,0-5.55-.21,2.46-1.17,5.7-.68S381,424.12,380.86,424.29Z"/><path class="cls-1" d="M382.2,412.2c-.16.23-2.36-1.38-5.57-1.57s-5.61,1-5.75.79.46-.56,1.49-1a9.67,9.67,0,0,1,8.5.59C381.82,411.59,382.26,412.1,382.2,412.2Z"/><path class="cls-1" d="M377,408.33a3.44,3.44,0,0,1,.1-1.56,11,11,0,0,1,1.7-3.93,5,5,0,0,1,2.36-2.07,1.81,1.81,0,0,1,1.92.58,2.74,2.74,0,0,1,.47,1.92,6.11,6.11,0,0,1-5.95,5,7.12,7.12,0,0,1-6.57-4.33,2.38,2.38,0,0,1,.09-2,1.76,1.76,0,0,1,1.89-.69,6.11,6.11,0,0,1,2.62,1.7,11.91,11.91,0,0,1,2.53,3.49,3.43,3.43,0,0,1,.5,1.48,19.73,19.73,0,0,0-3.47-4.51,5.64,5.64,0,0,0-2.34-1.42.93.93,0,0,0-1,.37,1.58,1.58,0,0,0,0,1.31,6.35,6.35,0,0,0,5.74,3.69,5.33,5.33,0,0,0,5.11-4.14,2,2,0,0,0-.27-1.31,1,1,0,0,0-1.06-.34,4.6,4.6,0,0,0-2,1.73A15.48,15.48,0,0,0,377,408.33Z"/><polygon class="cls-2" points="354.8 87.55 333.87 80.55 298.16 93.33 295.44 98.22 331.4 94.4 354.8 87.55"/><path class="cls-1" d="M417.6,237.11s-36.29,3.2-42.29,9.17-8.38,20.21-10,29.42-3.82,119.15-3.82,119.15l52.28,1.48,7.62-119s24.33-1.46,28.3-17.46-6-43.73-6-43.73l-27.46,6Z"/><path class="cls-11" d="M421.85,257.18a93.9,93.9,0,0,1-.16,11.38,93.46,93.46,0,0,1-.86,11.34,92,92,0,0,1,.16-11.38A91.64,91.64,0,0,1,421.85,257.18Z"/><path class="cls-11" d="M431.23,257.5a10.81,10.81,0,0,1,0,3.31,25.48,25.48,0,0,1-6.58,14.4,10.94,10.94,0,0,1-2.52,2.23,32.06,32.06,0,0,0,9.1-20Z"/><path class="cls-11" d="M363.12,328.51a6.61,6.61,0,0,1,0-.89v-2.5c0-2.27,0-5.41.07-9.25.09-7.85,0-18.59.82-30.51s3-22.64,6.18-29.85a40.23,40.23,0,0,1,2.34-4.75,26.58,26.58,0,0,1,2.12-3.41c.63-.84,1.13-1.52,1.53-2a3.69,3.69,0,0,1,.56-.68,3.57,3.57,0,0,1-.46.77l-1.4,2.09a31.23,31.23,0,0,0-2,3.45,42,42,0,0,0-2.24,4.75c-3.07,7.2-5.15,17.87-5.94,29.73s-.8,22.65-1,30.45c-.09,3.93-.18,7.06-.29,9.25,0,1-.09,1.87-.14,2.51A2.93,2.93,0,0,1,363.12,328.51Z"/><path class="cls-11" d="M384.58,387.1a2.16,2.16,0,0,1,0-.36v-1.05c0-1,0-2.33-.1-4.06-.08-3.52-.13-8.62-.1-14.93.07-12.59.56-30,2-49.19s3.53-36.49,5.36-49c.91-6.24,1.7-11.28,2.32-14.76.29-1.69.53-3,.69-3.93l.2-1a1.61,1.61,0,0,1,.1-.36,1.15,1.15,0,0,1,0,.37,9.33,9.33,0,0,1-.14,1c-.14,1-.33,2.3-.57,4-.54,3.48-1.26,8.52-2.09,14.77-1.69,12.49-3.7,29.77-5.15,49s-2,36.55-2.19,49.15c-.09,6.3-.13,11.39-.12,14.92v5.1A.71.71,0,0,0,384.58,387.1Z"/><path class="cls-7" d="M332.56,226.37s-17.75,8.95-21.76,12.3a233.68,233.68,0,0,0-17.17,17l-10.31,19.85s.25,10.88,1,13.55,4.78,3.23,4.78.15.28-10.35.28-10.35l4.86-7-2.57,6.72s-.72,14.4,2,15.37,3.91-.23,3.91-3.31.3-11.54.3-11.54l4.8-7.85-1,9s-1.14,11.18.29,12.86,4-1.11,4-1.11,3.44,6.43,4.86.27,2.3-12.58,2.3-12.58l7.73-19.08L328.28,249l12.59-4.46S343.43,228.89,332.56,226.37Z"/><path class="cls-8" d="M310.37,270.29a23.18,23.18,0,0,1-1.06,3.14A57.41,57.41,0,0,0,306.14,289a23.07,23.07,0,0,1-.26,3.31,11.17,11.17,0,0,1-.2-3.31,42.89,42.89,0,0,1,3.2-15.72A12.6,12.6,0,0,1,310.37,270.29Z"/><path class="cls-2" d="M344.8,87.79s28.15-2.06,39.09,1.73,28.15,10,31,24.08c0,0,14.74,44,16.21,52.28s7,35.09,7,35.09,8.81,7.23,8.81,14.4l-53.53,11.7s-40.86,1.31-54.6-11v-8.61a21.87,21.87,0,0,1-4.57-7.85l-2.12-8.27S305,169.66,301.47,162.79s-25.35-40.59-25.35-40.59,1.06-14.41,14.75-21.33S344.8,87.79,344.8,87.79Z"/><path class="cls-2" d="M301.47,162.79s-.17.68-.5,1.88c-2.52,9.52-14.11,51.87-20.77,54.76-7.52,3.26-23.34,7.76-34.2-6.11s-5.62-76.76-5.62-76.76l26.08-.46.8,23.81,8.93-37.71L304.06,155Z"/><path class="cls-1" d="M353.82,87.22a9.3,9.3,0,0,1,.1,1.75c0,1.23,0,2.86.1,4.89h0c-1.7,6.12-4.8,16.16-8.41,27.5-2.22,7-4.27,13.54-5.91,19l-.36,1.19-.2-1.22a10.39,10.39,0,0,0-2.8-5.47,11.83,11.83,0,0,0-4-2.74,14.56,14.56,0,0,0-4.17-.92,5.43,5.43,0,0,1,1.14,0,10.94,10.94,0,0,1,3.15.67,12.23,12.23,0,0,1,4.21,2.73,10.85,10.85,0,0,1,3,5.69h-.57c1.56-5.43,3.57-12,5.79-19,3.57-11.23,6.71-21.14,8.69-27.36h0c0-2,.07-3.66.09-4.9A11.86,11.86,0,0,1,353.82,87.22Z"/><path class="cls-1" d="M344.55,89.75a8.29,8.29,0,0,1-.6,1.64c-.47,1.16-1.08,2.62-1.81,4.38-1.53,3.7-3.58,8.83-5.74,14.54L330.92,125l-1.7,4.44a8.3,8.3,0,0,1-.71,1.58,9.57,9.57,0,0,1,.45-1.67c.41-1.19.9-2.7,1.49-4.51,1.34-3.78,3.13-9,5.3-14.73s4.29-10.83,5.94-14.49c.83-1.82,1.51-3.3,2-4.3A7.6,7.6,0,0,1,344.55,89.75Z"/><path class="cls-1" d="M298.61,112.91c.07,0-.38.67-.75,2a10.27,10.27,0,0,0,.11,5.58,16.46,16.46,0,0,0,4.53,7,76.78,76.78,0,0,0,8.15,6.68,104.38,104.38,0,0,0,13.78,8.38l-.4.28a13.55,13.55,0,0,1,1.18-7.85,11.9,11.9,0,0,1,1.14-1.91,3.05,3.05,0,0,1,.52-.61c.07,0-.61.91-1.34,2.62a13.88,13.88,0,0,0-.92,7.69l.09.52-.49-.23a93.41,93.41,0,0,1-13.95-8.32,73.06,73.06,0,0,1-8.2-6.78,16.61,16.61,0,0,1-4.54-7.35,10,10,0,0,1,.12-5.74,7.06,7.06,0,0,1,.67-1.45C298.48,113.06,298.59,112.9,298.61,112.91Z"/><path class="cls-1" d="M355.41,184.26a2.55,2.55,0,0,1-.61-.13,8.33,8.33,0,0,1-1.67-.67,14,14,0,0,1-4.89-4.26,26.58,26.58,0,0,1-4-8.69,80.74,80.74,0,0,0-3.5-11A81.19,81.19,0,0,0,335,149.39a71.71,71.71,0,0,1-4.73-8.31,27.52,27.52,0,0,1-2-6.1,16.71,16.71,0,0,1-.23-1.73,2,2,0,0,1,0-.6,22.17,22.17,0,0,1,.53,2.28,29.61,29.61,0,0,0,2.22,5.95,79,79,0,0,0,4.81,8.19,74,74,0,0,1,5.86,10.13,76.79,76.79,0,0,1,3.47,11.14,27.27,27.27,0,0,0,3.8,8.58,14.57,14.57,0,0,0,4.62,4.32A15.17,15.17,0,0,0,355.41,184.26Z"/><path class="cls-1" d="M392.26,185.66a11.27,11.27,0,0,1-2.06.67c-1.34.4-3.33.89-5.76,1.46a164.65,164.65,0,0,1-19.38,3.13,160.65,160.65,0,0,1-19.62.72c-2.52-.07-4.55-.17-5.95-.29a14.28,14.28,0,0,1-2.17-.25,13.22,13.22,0,0,1,2.18,0c1.41,0,3.43.08,5.94.08q9.8,0,19.54-.92t19.35-2.92c2.45-.5,4.44-.93,5.8-1.24A15.48,15.48,0,0,1,392.26,185.66Z"/><path class="cls-1" d="M399,207.83a8.55,8.55,0,0,1-1.95.26c-1.24.14-3.07.28-5.36.41-4.5.26-10.72.45-17.61.29s-13.1-.6-17.59-1.08c-2.24-.22-4-.44-5.3-.62a10.55,10.55,0,0,1-1.93-.34,10.68,10.68,0,0,1,2,.07l5.36.42c4.48.34,10.73.71,17.55.87s13.08,0,17.59-.09l5.36-.19A12.31,12.31,0,0,1,399,207.83Z"/><path class="cls-1" d="M368.46,209.36a7.31,7.31,0,0,1-2.54-1.85,14.18,14.18,0,0,1-3.6-14,7.06,7.06,0,0,1,1.34-2.8c.1,0-.43,1.1-.85,2.92a15,15,0,0,0,3.49,13.54C367.54,208.59,368.52,209.27,368.46,209.36Z"/><path class="cls-1" d="M332.11,191.33a4.81,4.81,0,0,1-.63-.38l-1.71-1.23-2.68-2c-1-.83-2.2-1.74-3.49-2.74A161.33,161.33,0,0,1,305,167.54a123,123,0,0,1-15.12-20.46c-1.64-2.82-2.8-5.18-3.58-6.81l-.85-1.91a3.35,3.35,0,0,1-.25-.69,2.75,2.75,0,0,1,.39.63l.95,1.85c.84,1.61,2.08,3.93,3.77,6.69a133.51,133.51,0,0,0,15.21,20.24,181.1,181.1,0,0,0,18.42,17.58l3.41,2.8,2.68,2c.67.54,1.2,1,1.65,1.31A4.41,4.41,0,0,1,332.11,191.33Z"/><path class="cls-1" d="M273.32,211.3s.23-1,.59-2.93a45.7,45.7,0,0,0,.78-8.08,68.87,68.87,0,0,0-1.06-12c-.77-4.48-1.93-9.35-3.26-14.41a104.22,104.22,0,0,1-3.26-14.51c-.56-4.54-.65-8.65-.75-12.09s0-6.24,0-8.16V136.9a2.83,2.83,0,0,1,.07-.77,2.84,2.84,0,0,1,.08.77v2.23c.07,2,.15,4.78.25,8.14s.3,7.55.89,12a109.58,109.58,0,0,0,3.31,14.4c1.34,5.09,2.47,10,3.2,14.51a64.54,64.54,0,0,1,.93,12.1,40.45,40.45,0,0,1-1,8.12,18.57,18.57,0,0,1-.59,2.14A2.52,2.52,0,0,1,273.32,211.3Z"/><path class="cls-1" d="M265.28,154.63a6.25,6.25,0,0,1-.9.47,18.29,18.29,0,0,1-2.58.89,29,29,0,0,1-8.94,1.1,30.22,30.22,0,0,1-8.84-1.63,22.2,22.2,0,0,1-2.51-1.06c-.58-.29-.89-.48-.86-.51s1.34.45,3.53,1.11a34.28,34.28,0,0,0,17.53.52C263.9,155,265.22,154.53,265.28,154.63Z"/><path class="cls-2" d="M379.53,146.87l7.52,59.52-69.71,22.83L329,253.66s88.82-12,91.83-18.33c2.48-5.24,4.58-18.33,4.58-18.33l-1-74.23s-15.66-48.45-28.59-44S377,126.49,379.53,146.87Z"/><path class="cls-1" d="M404.88,220.09a15.67,15.67,0,0,0-3.11-5.58,20.39,20.39,0,0,0-5.81-4.57,22.9,22.9,0,0,0-9.18-2.81h.11c-6.84,2-14.92,4.29-23.34,7.42-12.67,4.39-24.36,7.69-32.7,10.31-4.18,1.3-7.54,2.39-9.88,3.16l-2.68.89a4.32,4.32,0,0,1-1,.27,6,6,0,0,1,.9-.4c.6-.23,1.49-.59,2.68-1,2.31-.86,5.66-2,9.83-3.38,8.32-2.79,20-6.16,32.6-10.54,8.43-3.13,16.57-5.41,23.4-7.35h.11a23,23,0,0,1,9.39,3,20.87,20.87,0,0,1,5.83,4.78,13.39,13.39,0,0,1,2.41,4.15,6.38,6.38,0,0,1,.33,1.21A1.74,1.74,0,0,1,404.88,220.09Z"/><path class="cls-1" d="M379.09,132.66c.2,0,2.07,16.56,4.21,37.06s3.7,37.09,3.49,37.12-2.06-16.57-4.19-37.06S378.9,132.67,379.09,132.66Z"/><path class="cls-1" d="M420.72,133.66a6.53,6.53,0,0,1,.3,1l.74,2.85c.32,1.25.69,2.76,1.05,4.55s.85,3.79,1.22,6c.86,4.5,1.67,9.89,2.34,15.9s1.07,12.65,1.19,19.64-.17,13.63-.63,19.64-1.14,11.45-1.86,16c-.33,2.27-.73,4.3-1.05,6.08s-.64,3.33-.92,4.57-.5,2.15-.66,2.87a5.6,5.6,0,0,1-.28,1,6,6,0,0,1,.15-1c.12-.72.29-1.69.52-2.89s.52-2.79.8-4.59.66-3.82.94-6.08c.67-4.52,1.26-9.92,1.73-15.93s.64-12.65.56-19.64S426.31,170,425.72,164s-1.34-11.38-2.17-15.87c-.35-2.26-.79-4.27-1.12-6.07s-.66-3.3-.94-4.55-.46-2.15-.61-2.88A5.41,5.41,0,0,1,420.72,133.66Z"/><path class="cls-1" d="M345.43,251c-.14,0,.13-1.63.09-4.28a28.2,28.2,0,0,0-.44-4.59,30.09,30.09,0,0,0-4-10.48,31.59,31.59,0,0,0-2.75-3.77c-1.73-2-3-3.08-2.94-3.17s.38.2,1,.67a19.3,19.3,0,0,1,2.34,2.18,27.13,27.13,0,0,1,2.93,3.76,28.14,28.14,0,0,1,4.1,10.75,25.54,25.54,0,0,1,.29,4.7,17.63,17.63,0,0,1-.31,3.16A3.57,3.57,0,0,1,345.43,251Z"/><path class="cls-1" d="M400,103.81c0,.13-1.69.2-4.32.87a25.94,25.94,0,0,0-4.46,1.57,26.37,26.37,0,0,0-9.19,6.86,26.14,26.14,0,0,0-2.68,3.78c-1.34,2.3-1.88,3.93-2,3.84a3.48,3.48,0,0,1,.29-1.14,9,9,0,0,1,.49-1.31,14.67,14.67,0,0,1,.79-1.65,23.71,23.71,0,0,1,2.68-3.93,25.59,25.59,0,0,1,9.41-7,24.12,24.12,0,0,1,4.62-1.47,18.37,18.37,0,0,1,1.83-.3,8.39,8.39,0,0,1,1.41-.12A4.27,4.27,0,0,1,400,103.81Z"/><path class="cls-1" d="M370,221.28a13.48,13.48,0,0,1,2.38-11.51c.18.11-1.18,2.44-1.83,5.63A56.23,56.23,0,0,0,370,221.28Z"/><path class="cls-12" d="M410.73,114h-.3l-.83-.13c-.71-.13-1.75-.27-3-.39a41.52,41.52,0,0,0-19.88,2.8c-1.21.47-2.16.89-2.81,1.21l-.76.35a.86.86,0,0,1-.28.11.87.87,0,0,1,.26-.16l.72-.39a29.47,29.47,0,0,1,2.79-1.31,40.54,40.54,0,0,1,20-2.77c1.34.16,2.35.33,3.06.49l.82.18A.88.88,0,0,1,410.73,114Z"/><path class="cls-12" d="M422.38,139.1H422l-1.18-.17c-1-.17-2.52-.38-4.35-.6a105.32,105.32,0,0,0-28.92.52c-1.84.29-3.31.55-4.33.75l-1.18.22-.41.06a1.68,1.68,0,0,1,.4-.11l1.16-.28c1-.23,2.5-.52,4.32-.84A101.87,101.87,0,0,1,402,137.34a97.56,97.56,0,0,1,14.5.82c1.84.23,3.33.48,4.35.68l1.18.22A1.36,1.36,0,0,1,422.38,139.1Z"/><path class="cls-12" d="M427.08,162.12a1.62,1.62,0,0,1-.44,0l-1.26-.16c-1.08-.16-2.68-.35-4.61-.56a130.65,130.65,0,0,0-15.32-.75,132.88,132.88,0,0,0-15.31,1.07c-1.94.25-3.51.49-4.6.67l-1.25.2a1.62,1.62,0,0,1-.44,0l.43-.11,1.25-.23c1.07-.22,2.68-.47,4.58-.76a121.12,121.12,0,0,1,15.34-1.15,118.94,118.94,0,0,1,15.33.82c2,.24,3.54.46,4.61.66l1.25.21Z"/><path class="cls-12" d="M428.45,179.87H428l-1.26-.08c-1.1-.06-2.68-.15-4.65-.23-3.93-.17-9.39-.25-15.35,0A152.57,152.57,0,0,0,391.47,181c-2,.27-3.52.52-4.6.71l-1.25.21h-.43a1.3,1.3,0,0,1,.43-.11l1.23-.25c1.08-.22,2.69-.5,4.59-.8a147.78,147.78,0,0,1,30.67-1.54c2,.1,3.55.22,4.64.33l1.26.13A1.76,1.76,0,0,1,428.45,179.87Z"/><path class="cls-12" d="M427.69,203.32a1.41,1.41,0,0,1-.41-.07l-1.15-.27c-1-.24-2.42-.56-4.21-.93a110.27,110.27,0,0,0-28.32-2c-1.83.11-3.3.23-4.31.32l-1.18.1a1.34,1.34,0,0,1-.4,0l.4-.06,1.17-.16c1-.13,2.48-.27,4.3-.4a100.54,100.54,0,0,1,28.38,2c1.79.38,3.22.74,4.2,1l1.14.31Z"/><path class="cls-12" d="M420.89,238a1.06,1.06,0,0,0-.16-.45,7.42,7.42,0,0,1-.4-1.31,17.69,17.69,0,0,0-.7-2c-.32-.78-.62-1.68-1.09-2.62A31.26,31.26,0,0,0,417,228.6c-.57-1.1-1.34-2.19-2.08-3.36A47,47,0,0,0,409,218.4a46.45,46.45,0,0,0-7.24-5.52c-1.22-.69-2.35-1.38-3.51-1.9a33.15,33.15,0,0,0-3.17-1.4c-1-.43-1.92-.69-2.69-1s-1.5-.45-2.09-.6l-1.34-.34-.47-.13a2,2,0,0,1,.49.08l1.34.3a19.24,19.24,0,0,1,2.11.55,24.08,24.08,0,0,1,2.69.93,31.33,31.33,0,0,1,3.21,1.38c1.16.51,2.31,1.2,3.54,1.89a42.73,42.73,0,0,1,13.23,12.43,38.33,38.33,0,0,1,2.08,3.38,29.64,29.64,0,0,1,1.54,3.09c.47.94.75,1.86,1.06,2.62a14.62,14.62,0,0,1,.64,2l.37,1.31A1.82,1.82,0,0,0,420.89,238Z"/><path class="cls-12" d="M389,246.26a2.14,2.14,0,0,1-.06-.35,9.88,9.88,0,0,0-.11-1c-.1-.91-.27-2.19-.54-3.78A63,63,0,0,0,385,229a65.46,65.46,0,0,0-5.64-11.26c-.87-1.31-1.61-2.45-2.13-3.18-.23-.31-.43-.59-.61-.85a3.45,3.45,0,0,1-.2-.32,2.09,2.09,0,0,1,.24.28l.65.82c.56.72,1.34,1.8,2.21,3.15a59.34,59.34,0,0,1,8.95,23.43c.24,1.6.39,2.9.45,3.8a5.71,5.71,0,0,0,.06,1A1,1,0,0,1,389,246.26Z"/><path class="cls-12" d="M365,250.28V249c0-.83.08-2,0-3.5a56.12,56.12,0,0,0-1.59-11.39,55.43,55.43,0,0,0-3.85-10.88c-.63-1.31-1.21-2.4-1.62-3.12l-.48-.82a2.1,2.1,0,0,1-.15-.3,1.35,1.35,0,0,1,.2.27l.52.8a33.3,33.3,0,0,1,1.72,3.09A52.3,52.3,0,0,1,363.68,234a51.61,51.61,0,0,1,1.51,11.46,31.66,31.66,0,0,1-.11,3.51,3.16,3.16,0,0,1-.09.94A1.22,1.22,0,0,1,365,250.28Z"/><path class="cls-12" d="M417.3,227.68A126.34,126.34,0,0,1,405,233.11a308.15,308.15,0,0,1-31,10c-12.32,3.3-23.6,5.73-31.85,7.16s-13.4,1.95-13.4,1.95l.93-.16,2.69-.36c2.31-.34,5.65-.85,9.75-1.61,8.24-1.48,19.51-3.93,31.82-7.24q15.75-4.17,31-9.89c2-.75,3.71-1.41,5.23-2.08s2.85-1.17,3.9-1.68l2.42-1.11Z"/><path class="cls-12" d="M405.46,107.55s2,6.55,4.53,17.22c1.34,5.36,2.55,11.79,3.86,18.92s2.42,15.06,3.35,23.4,1.47,16.31,1.77,23.57.29,13.8,0,19.3c0,1.31-.08,2.62-.14,3.93s-.18,2.38-.25,3.48c-.13,2.18-.29,4-.48,5.58s-.29,2.62-.39,3.51-.16,1.22-.16,1.22a10,10,0,0,1,.11-1.22c.11-.8.19-2,.33-3.52s.31-3.4.43-5.58c.07-1.09.15-2.25.23-3.48s.08-2.54.14-3.93c.22-5.49.13-12-.08-19.27s-.9-15.22-1.8-23.57-2.11-16.23-3.33-23.39-2.54-13.56-3.8-18.92c-.58-2.62-1.18-5.09-1.72-7.22s-1-3.92-1.34-5.42-.68-2.61-.91-3.41S405.46,107.55,405.46,107.55Z"/><path class="cls-12" d="M396.22,211.9a5.7,5.7,0,0,1-.69.37l-2,1c-1.8.85-4.41,2.05-7.68,3.44-6.53,2.82-15.7,6.39-25.88,10.15s-19.46,7-26.16,9.26l-8.05,2.62-2.18.7-.77.23.75-.28,2.16-.76,8-2.75c6.7-2.33,16-5.59,26.19-9.33s19.36-7.3,25.9-10.06c3.28-1.37,5.9-2.54,7.71-3.36l2.07-1Z"/><path class="cls-12" d="M387.46,110.67c.08,0,3.05,23,6.7,51.34s6.45,51.38,6.37,51.38-3.06-23-6.7-51.34S387.38,110.68,387.46,110.67Z"/><path class="cls-12" d="M339,254.33a1.47,1.47,0,0,1-.08-.28,5.26,5.26,0,0,0-.16-.81c-.14-.71-.35-1.73-.65-3a67.05,67.05,0,0,0-7.38-18.61c-.65-1.13-1.18-2-1.57-2.62l-.44-.71a1.3,1.3,0,0,1-.14-.26,1.06,1.06,0,0,1,.19.23l.48.68c.42.59,1,1.48,1.65,2.61a61.85,61.85,0,0,1,7.41,18.69c.27,1.31.46,2.29.55,3l.12.82A.9.9,0,0,1,339,254.33Z"/><path class="cls-12" d="M342.66,162.22h-1.8c-1.11,0-2.68.09-4.73.12-4,0-9.53-.07-15.62-.5s-11.58-1.11-15.53-1.73c-2-.3-3.57-.56-4.67-.77l-1.26-.23-.44-.11a1.62,1.62,0,0,1,.44,0l1.27.18,4.7.7c4,.55,9.38,1.2,15.51,1.65s11.6.55,15.6.56h6.47Z"/><path class="cls-12" d="M382.51,156.76l-.37.13-1.1.3c-1,.27-2.35.61-4,1-3.45.8-8.25,1.75-13.61,2.5s-10.24,1.14-13.78,1.31c-1.77.09-3.21.13-4.2.14h-1.14l1.14-.06,4.18-.24c3.54-.22,8.41-.65,13.76-1.4s10.15-1.66,13.6-2.41l4.09-.91,1.12-.25Z"/><path class="cls-12" d="M333.15,147.74a1.85,1.85,0,0,1-.47,0h-6.31a115.64,115.64,0,0,1-16.3-1.7,117.42,117.42,0,0,1-15.89-3.93c-2-.67-3.58-1.23-4.66-1.66l-1.26-.5-.43-.2.46.15,1.27.44c1.1.41,2.68.95,4.69,1.59a124.17,124.17,0,0,0,32.17,5.68c2.09.09,3.8.13,5,.13h1.75Z"/><path class="cls-12" d="M379.8,136.89s-9.61,2.37-21.45,5.14-21.44,5-21.54,4.89,9.6-2.39,21.45-5.15S379.78,136.81,379.8,136.89Z"/><path class="cls-12" d="M379.19,117.65h-.31l-.89.11-3.27.39c-2.75.34-6.54.9-10.72,1.74s-7.86,1.81-10.52,2.62l-3.17.91-.86.24a1.38,1.38,0,0,1-.29.08.6.6,0,0,0,.28-.13l.84-.29c.74-.26,1.8-.6,3.14-1,2.68-.81,6.37-1.79,10.52-2.61s8-1.31,10.73-1.68c1.34-.14,2.51-.25,3.28-.3h.9A1,1,0,0,1,379.19,117.65Z"/><path class="cls-12" d="M393.52,105.84a1.42,1.42,0,0,1-.41-.08l-1.12-.3c-1-.28-2.4-.64-4.16-1.07-3.52-.87-8.42-1.92-13.9-2.7s-10.48-1.15-14.11-1.31c-1.81-.08-3.29-.12-4.29-.13h-1.18a1.41,1.41,0,0,1-.41,0h5.89A134,134,0,0,1,374,101.48a131,131,0,0,1,13.9,2.79c1.77.46,3.18.85,4.15,1.15l1.11.35Z"/><path class="cls-12" d="M345.31,124.08s-.53-.5-1.45-1.21a14.1,14.1,0,0,0-8.5-2.9,9.5,9.5,0,0,1-1.9,0,1.46,1.46,0,0,1,.5-.12,10,10,0,0,1,1.34-.13,13,13,0,0,1,4.58.71,12.81,12.81,0,0,1,4,2.24,9.08,9.08,0,0,1,1,1A1.6,1.6,0,0,1,345.31,124.08Z"/><path class="cls-12" d="M351.18,108.72s-.35-.62-1-1.52a13.55,13.55,0,0,0-3-3.1,14.23,14.23,0,0,0-3.9-2c-1.09-.34-1.79-.45-1.77-.5s.17,0,.49,0a8.39,8.39,0,0,1,1.34.29,12.53,12.53,0,0,1,7.06,5.24,7.8,7.8,0,0,1,.65,1.16A1.26,1.26,0,0,1,351.18,108.72Z"/><path class="cls-12" d="M349.64,90.65c.08,0-3,9.47-6.78,21.09s-7,21-7.05,21,3-9.46,6.78-21.1S349.57,90.62,349.64,90.65Z"/><path class="cls-12" d="M312.66,136.24a1.33,1.33,0,0,0-.11-.43,5.52,5.52,0,0,1-.08-1.22,9.17,9.17,0,0,1,3.5-7,5.92,5.92,0,0,1,1-.68,1.62,1.62,0,0,1,.42-.2s-.54.36-1.35,1a9.94,9.94,0,0,0-3.44,6.9C312.6,135.62,312.71,136.23,312.66,136.24Z"/><path class="cls-12" d="M301.42,127a1.31,1.31,0,0,0-.13-.46,5.78,5.78,0,0,1-.14-1.31,8.81,8.81,0,0,1,4.17-7.36,6.81,6.81,0,0,1,1.21-.6c.31-.11.47-.16.48-.13a15.23,15.23,0,0,0-1.58.89,9.24,9.24,0,0,0-2.89,3.14,8.87,8.87,0,0,0-1.18,4.06C301.32,126.27,301.48,127,301.42,127Z"/><path class="cls-12" d="M326.17,138.42s-.12,0-.34-.19l-.93-.56-3.4-2.13c-2.85-1.82-6.81-4.31-11.12-7.17a32.88,32.88,0,0,1-5.65-4.59,16.83,16.83,0,0,1-3.32-4.87,11.87,11.87,0,0,1-1-3.83,7,7,0,0,1,0-1.45,13.51,13.51,0,0,0,.11,1.44,13,13,0,0,0,1.07,3.76,17.23,17.23,0,0,0,3.34,4.78,33.25,33.25,0,0,0,5.62,4.54l11.07,7.23,3.35,2.2.9.61Z"/><path class="cls-12" d="M347.42,180.34a.76.76,0,0,1-.3,0h-.8c-.71,0-1.73.07-3,.08-2.54,0-6,0-9.88-.14s-7.35-.42-9.87-.67c-1.26-.12-2.28-.23-3-.31l-.81-.12h-.28a1.31,1.31,0,0,1,.28,0h.82l3,.22c2.52.2,6,.43,9.85.59s7.34.21,9.86.22h4.11Z"/><path class="cls-12" d="M383.36,180.75a1.32,1.32,0,0,1-.33.08l-.93.16c-.84.13-2,.3-3.49.48-2.95.38-7,.76-11.57.93s-8.64,0-11.61-.1c-1.49-.08-2.68-.16-3.51-.24L351,182h-.34a1,1,0,0,1,.34,0h.95l3.51.16c3,.1,7.07.17,11.6,0s8.6-.53,11.55-.84l3.49-.41.95-.1Z"/><path class="cls-12" d="M363.76,203.39h-.27l-.76.12c-.69.09-1.67.19-2.87.3a77.91,77.91,0,0,1-19-.8c-1.2-.21-2.16-.39-2.83-.54l-.75-.18-.27-.08h.27l.78.13c.67.12,1.63.28,2.84.45a92.15,92.15,0,0,0,9.38.9,93.69,93.69,0,0,0,9.48-.1l2.87-.21.78-.07Z"/><path class="cls-12" d="M383.36,201.5c0,.08-3.85.41-8.6.74s-8.62.53-8.62.47,3.84-.41,8.6-.75S383.36,201.43,383.36,201.5Z"/><path class="cls-12" d="M358.1,218.11a4.21,4.21,0,0,1-.71,0,16.18,16.18,0,0,1-1.93-.19,42.94,42.94,0,0,1-6.26-1.3,41,41,0,0,1-6-2.26c-.74-.35-1.34-.64-1.72-.86a2.65,2.65,0,0,1-.6-.38l.64.27,1.76.8a52.62,52.62,0,0,0,6,2.16,48.86,48.86,0,0,0,6.21,1.39l1.9.28A2.82,2.82,0,0,1,358.1,218.11Z"/><path class="cls-12" d="M373.25,191.2s-.42-1.44-1.07-4.06-1.57-6.42-2.59-11.13c-2-9.44-4.49-22.55-6.92-37.07a62.1,62.1,0,0,1-.78-10.72,37.32,37.32,0,0,1,1.61-9.89,52.08,52.08,0,0,1,7.79-15.1,95.45,95.45,0,0,1,7.31-8.9c1.85-2,2.92-3.06,2.92-3.06l-.72.81-2.14,2.38a100.06,100.06,0,0,0-7.23,9,52,52,0,0,0-7.69,15.06,37.15,37.15,0,0,0-1.56,9.82,62.51,62.51,0,0,0,.76,10.67c2.43,14.51,4.85,27.63,6.85,37.07,1,4.71,1.86,8.52,2.49,11.14.3,1.27.54,2.28.73,3Z"/><path class="cls-12" d="M373.22,208.21a4.08,4.08,0,0,1-.47-.46,11.79,11.79,0,0,1-1.15-1.39,16.64,16.64,0,0,1-3-11.17,13.18,13.18,0,0,1,.29-1.76,3.26,3.26,0,0,1,.18-.63c.07,0-.16.91-.27,2.41a17.69,17.69,0,0,0,3,11C372.63,207.49,373.26,208.17,373.22,208.21Z"/><path class="cls-12" d="M359.82,219.23a5,5,0,0,1-.7-1.31,15.37,15.37,0,0,1-1.22-7.08,6.15,6.15,0,0,1,.21-1.48,9.27,9.27,0,0,1,0,1.49,19.19,19.19,0,0,0,.29,3.55,18,18,0,0,0,.92,3.46A14.08,14.08,0,0,1,359.82,219.23Z"/><path class="cls-12" d="M345.82,209.1a4.73,4.73,0,0,1-.35-.56,16.75,16.75,0,0,1-.75-1.61,20,20,0,0,1-1-11.51,14.41,14.41,0,0,1,.47-1.71,3.22,3.22,0,0,1,.24-.61s-.24.9-.51,2.36a21.31,21.31,0,0,0,1,11.4C345.45,208.26,345.89,209.07,345.82,209.1Z"/><path class="cls-12" d="M346,221.84a2.77,2.77,0,0,1-.11-.48c0-.33-.13-.79-.2-1.31-.13-1.16-.26-2.77-.32-4.53s0-3.38.08-4.54a10.21,10.21,0,0,1,.12-1.37,1.71,1.71,0,0,1,.1-.5c0,.63,0,1.25,0,1.87v4.54c0,1.76.14,3.35.24,4.5A13.78,13.78,0,0,1,346,221.84Z"/><path class="cls-12" d="M308.85,136.87c.07,0,8.23,12.23,18.23,27.4s18.07,27.49,18,27.49-8.23-12.21-18.23-27.39S308.8,136.91,308.85,136.87Z"/><path class="cls-12" d="M340.71,141.3s.07.18.18.52l.47,1.51c.39,1.31,1,3.22,1.74,5.55,1.51,4.67,3.79,11.08,6.7,18s5.91,13,8.19,17.39c1.14,2.19,2.09,3.93,2.76,5.15l.76,1.4.25.48-.3-.45-.8-1.38c-.7-1.19-1.67-2.93-2.84-5.11-2.33-4.34-5.36-10.47-8.29-17.37s-5.14-13.36-6.62-18c-.74-2.35-1.34-4.26-1.66-5.58l-.42-1.53C340.74,141.48,340.71,141.3,340.71,141.3Z"/><path class="cls-12" d="M316.33,177.78s-.2-.17-.58-.54l-1.61-1.6c-.71-.69-1.58-1.54-2.52-2.61s-2.06-2.19-3.17-3.58-2.39-2.84-3.62-4.52-2.54-3.47-3.86-5.39a106.89,106.89,0,0,1-13.07-27.28c-.66-2.22-1.34-4.33-1.77-6.35s-.91-3.93-1.24-5.61-.56-3.29-.77-4.68-.35-2.62-.43-3.55l-.22-2.24v-.78a4.11,4.11,0,0,0,.11.77c.11.51.16,1.31.27,2.25s.24,2.16.48,3.54.42,2.94.81,4.66.72,3.6,1.26,5.59,1.14,4.11,1.79,6.34a119.08,119.08,0,0,0,5.58,14,115.36,115.36,0,0,0,7.47,13.16c1.34,1.93,2.54,3.78,3.83,5.41s2.45,3.17,3.59,4.53,2.21,2.54,3.14,3.6,1.77,1.93,2.48,2.62l1.59,1.64Z"/><path class="cls-12" d="M301.29,128.41a7.36,7.36,0,0,1-.94-.15l-2.52-.5c-2.13-.42-5.08-1-8.36-1.45s-6.26-.87-8.42-1.1l-2.56-.28-.94-.12a5,5,0,0,1,.95,0l2.57.2c2.16.18,5.15.51,8.44,1s6.23,1.07,8.36,1.54c1.06.23,1.92.43,2.51.58A7.3,7.3,0,0,1,301.29,128.41Z"/><path class="cls-12" d="M298.43,159.79l-.22.64c-.19.48-.42,1.09-.69,1.82-.6,1.57-1.34,3.93-2.25,6.76-1.78,5.74-3.54,13.87-5.71,22.79a106.77,106.77,0,0,1-7.67,22.26,58.08,58.08,0,0,1-3.58,6.21c-.95,1.4-1.53,2.13-1.53,2.13l.37-.56c.24-.38.63-.9,1.07-1.62A63.53,63.53,0,0,0,281.7,214a109.07,109.07,0,0,0,7.58-22.26c2.17-8.91,4-17,5.8-22.78A80.78,80.78,0,0,1,298.43,159.79Z"/><path class="cls-12" d="M286.56,142.23c.06,0-2.86,9-6.55,19.94s-6.7,19.89-6.82,19.86,2.86-8.95,6.56-19.94S286.48,142.2,286.56,142.23Z"/><path class="cls-12" d="M298.78,179.45a2.5,2.5,0,0,1-.21-.35l-.57-1c-.48-.89-1.22-2.18-2.18-3.72a70.29,70.29,0,0,0-19.6-20.55c-1.5-1-2.76-1.86-3.65-2.38l-1-.63a1.59,1.59,0,0,1-.34-.23,1.41,1.41,0,0,1,.37.18l1,.59c.9.5,2.17,1.31,3.7,2.32A66.73,66.73,0,0,1,296,174.26c.94,1.55,1.65,2.85,2.11,3.77.19.39.36.73.52,1A3.08,3.08,0,0,1,298.78,179.45Z"/><path class="cls-12" d="M289.93,205.08a2,2,0,0,1,0-.35v-1a7,7,0,0,0-.14-1.58c-.15-.62-.14-1.31-.3-2.1a32.61,32.61,0,0,0-1.42-5.32,34,34,0,0,0-7-11.54,35.05,35.05,0,0,0-4-3.78c-.62-.52-1.22-.91-1.74-1.31a13,13,0,0,0-1.34-.89l-.88-.55-.3-.2a26.27,26.27,0,0,1,4.39,2.75,33.11,33.11,0,0,1,11.18,15.4,29.92,29.92,0,0,1,1.34,5.37A24.46,24.46,0,0,1,289.93,205.08Z"/><path class="cls-12" d="M272.23,225.06l.08-.23.26-.69c.25-.57.57-1.42,1-2.48a68.7,68.7,0,0,0,2.52-8.4,69.89,69.89,0,0,0,1.34-8.64c.09-1.13.17-2,.2-2.62l.07-.72V202a19.44,19.44,0,0,1-.14,2.61,59.37,59.37,0,0,1-1.34,8.7,58.7,58.7,0,0,1-2.6,8.4c-.42,1.05-.78,1.89-1.05,2.45l-.3.66C272.28,225,272.24,225.07,272.23,225.06Z"/><path class="cls-12" d="M255,158.77s.18.94.43,2.61.52,4.25.75,7.36c.53,6.24.55,14.88,1.55,24.35a79.76,79.76,0,0,0,2.55,13.15,51.46,51.46,0,0,0,4,10.18,40.92,40.92,0,0,0,4.09,6.19,17.67,17.67,0,0,0,1.34,1.55,6.19,6.19,0,0,1,.46.55,17.59,17.59,0,0,1-1.83-1.93,39.92,39.92,0,0,1-4.17-6.16A51.84,51.84,0,0,1,260,206.43a79.45,79.45,0,0,1-2.56-13.21c-1-9.48-1-18.13-1.48-24.36-.21-3.1-.45-5.62-.66-7.36-.11-.8-.19-1.45-.26-2S255,158.77,255,158.77Z"/><path class="cls-12" d="M253.16,139.77a5.05,5.05,0,0,1,.22.69c.12.46.27,1.11.44,1.94a52,52,0,0,1,.86,6.45,51.13,51.13,0,0,1,0,6.55,12,12,0,0,1-.18,2,4.16,4.16,0,0,1-.1.72,2.89,2.89,0,0,1,0-.72,16.64,16.64,0,0,1,.08-2c0-1.65,0-3.93-.12-6.48a51.69,51.69,0,0,0-.79-6.46c-.12-.68-.25-1.31-.35-1.94A3,3,0,0,1,253.16,139.77Z"/><path class="cls-12" d="M269.72,168.06a20,20,0,0,1-4,2.1,25.65,25.65,0,0,1-4.72,1.41,27.41,27.41,0,0,1-12-.22,25.78,25.78,0,0,1-4.65-1.59,21,21,0,0,1-3.91-2.23.5.5,0,0,1,.28.14l.78.44a11.39,11.39,0,0,0,1.23.69c.5.23,1.05.55,1.7.79a27,27,0,0,0,4.63,1.52,31.85,31.85,0,0,0,5.92.74,30.59,30.59,0,0,0,6-.53,28.12,28.12,0,0,0,4.69-1.31c.65-.22,1.22-.52,1.73-.74s.85-.4,1.26-.63l.79-.42Z"/><path class="cls-12" d="M273.94,184.81a9.12,9.12,0,0,1-.83,1,15.1,15.1,0,0,1-2.68,2.43A23.55,23.55,0,0,1,259,192.12a48.83,48.83,0,0,1-12.07-.84c-1.53-.28-2.76-.53-3.61-.71l-1-.21-.34-.09a1,1,0,0,1,.35,0l1,.16L247,191a50.35,50.35,0,0,0,12.07.76,23.81,23.81,0,0,0,11.31-3.73,16.22,16.22,0,0,0,2.76-2.33C273.62,185.11,273.92,184.73,273.94,184.81Z"/><path class="cls-12" d="M275.5,200.8A10.23,10.23,0,0,1,275,202a13.83,13.83,0,0,1-1.86,3,19.52,19.52,0,0,1-9.85,6.14,35.91,35.91,0,0,1-11.73.92c-1.52-.11-2.69-.24-3.57-.36l-1-.13a1.28,1.28,0,0,1-.33-.06,1,1,0,0,1,.35,0l1,.07c.85.08,2.05.19,3.56.27a36.93,36.93,0,0,0,11.66-1,19.79,19.79,0,0,0,9.76-6A15.64,15.64,0,0,0,275,202C275.31,201.22,275.47,200.78,275.5,200.8Z"/><path class="cls-12" d="M443.18,207.66c0,.08-3.58,1.56-8,3.3s-8.16,3.13-8.19,3,3.59-1.55,8-3.3S443.16,207.59,443.18,207.66Z"/><path class="cls-12" d="M435.88,188.58a3.92,3.92,0,0,1-.91.71,12.79,12.79,0,0,1-2.55,1.24,11.94,11.94,0,0,1-2.76.66,3.89,3.89,0,0,1-1.18,0,31.74,31.74,0,0,0,3.85-.93A29.49,29.49,0,0,0,435.88,188.58Z"/><path class="cls-12" d="M432.63,169.1a7.57,7.57,0,0,1-2.06.32,8.12,8.12,0,0,1-2.09,0,7.56,7.56,0,0,1,2.06-.31A8.6,8.6,0,0,1,432.63,169.1Z"/><path class="cls-12" d="M428.85,156.84a4.35,4.35,0,0,1-1.34-.72,4.69,4.69,0,0,1-1.14-.94,3.7,3.7,0,0,1,1.34.72A3.85,3.85,0,0,1,428.85,156.84Z"/><path class="cls-12" d="M424.79,144.49s.08.27.2.75.31,1.31.51,2.15c.44,1.87,1,4.59,1.64,8A180.41,180.41,0,0,1,429.82,182a83.8,83.8,0,0,0,1.23,14.67,30.35,30.35,0,0,0,1.93,6.11c.82,1.84,1.76,3.49,2.51,5a16.35,16.35,0,0,1,2.12,7.86,8.62,8.62,0,0,1-.34,2.19,4.84,4.84,0,0,1-.25.73s.08-.26.2-.75a8.85,8.85,0,0,0,.28-2.17,16.39,16.39,0,0,0-2.19-7.71c-.76-1.55-1.7-3.18-2.54-5a29.67,29.67,0,0,1-2-6.16,82.28,82.28,0,0,1-1.26-14.7,188.75,188.75,0,0,0-2.68-26.62c-.58-3.38-1.13-6.1-1.53-8-.2-.88-.35-1.6-.47-2.16A2.32,2.32,0,0,1,424.79,144.49Z"/><g class="cls-10"><path d="M268,163.88a96.45,96.45,0,0,1,9,14.53,37.71,37.71,0,0,1,4,16.42c0,4.54-1.5,9.48-5.36,12a141.36,141.36,0,0,0-7.67-42.5"/></g><g class="cls-10"><path d="M299.19,123.09c0,4.48,3.53,8.12,6.81,11.23,6.46,6.14,13.41,12.56,22.28,14.29l.39-10.87a45.85,45.85,0,0,1,8.75,10.06,50.75,50.75,0,0,0,8.88-19.36,149.14,149.14,0,0,0,3.13-21.13L339,139.74a12.43,12.43,0,0,0-4.19-7,7.28,7.28,0,0,0-4.63-1.88,6.66,6.66,0,0,0-5.71,4.46,18.83,18.83,0,0,0-.84,7.49,103.3,103.3,0,0,1-24.24-19.3"/></g><g class="cls-10"><path d="M344.39,219.8a46.18,46.18,0,0,1,14.29-6.47c3.82-1,7.87-1.53,11.18-3.62,3.1-2,5.22-5.06,7.24-8.06a28,28,0,0,0,4.51-8.8,23.51,23.51,0,0,0,.21-7.76c-.7-7-2.28-13.8-3.07-20.76s-.68-14.11,1.7-20.66c1.89,21.06,4.45,42.15,6.34,63.21-13.79,4.27-28.24,8.49-42.05,12.76"/></g><path class="cls-7" d="M314.93,50c.19-.25,8.28-8.46,13.65,1.41s-5.9,13.1-6.08,12.82S314.93,50,314.93,50Z"/><path class="cls-8" d="M323.56,58.86h.62a2,2,0,0,0,1.34-.65c.86-.93.86-3.05,0-4.86a6.38,6.38,0,0,0-1.82-2.21,2.35,2.35,0,0,0-2.05-.63,1,1,0,0,0-.78,1c0,.34.19.51.13.55s-.29,0-.44-.5a1.19,1.19,0,0,1,0-.83,1.55,1.55,0,0,1,.83-.76,2.86,2.86,0,0,1,2.68.58A6.61,6.61,0,0,1,326.18,53c1,2,1,4.42-.26,5.6a2.09,2.09,0,0,1-1.74.56C323.71,59.08,323.54,58.89,323.56,58.86Z"/><path class="cls-1" d="M269.35,30.42c-5,2.95-10,5.95-14.24,12.81-2.68,4.32-3.13,8.94-2.78,14a23.84,23.84,0,0,0,4,11.43c2.24,3.18,3.68,5.49,6.92,7.7"/><path class="cls-7" d="M342.53,93.91,312.82,42.06a31.21,31.21,0,0,0-41-12h0a29.78,29.78,0,0,0-13.18,40.6l.22.4c6.81,12.31,14.3,25.55,18.48,32,9,13.79,24.59,7.33,24.59,7.33s2.26,4.33,5.11,9.67l21.26,11.49Z"/><path class="cls-8" d="M301.9,110.28a39.16,39.16,0,0,0,14.88-16.37s2,12.72-13,20.06Z"/><path class="cls-1" d="M270.33,77.39a2.42,2.42,0,0,0,3.18.81,2.22,2.22,0,0,0,1-3l0,0a2.42,2.42,0,0,0-3.23-.81,2.22,2.22,0,0,0-.92,3Z"/><path class="cls-1" d="M265.46,73.84c.42.11,1.25-1.94,3.44-3.25s4.46-1.23,4.54-1.63c0-.19-.51-.49-1.53-.57a6.61,6.61,0,0,0-3.83,1,6.27,6.27,0,0,0-2.54,2.9C265.14,73.2,265.21,73.8,265.46,73.84Z"/><path class="cls-1" d="M291.67,64.28a2.42,2.42,0,0,0,3.26.84h0a2.22,2.22,0,0,0,1-3l0,0a2.39,2.39,0,0,0-3.22-.81,2.18,2.18,0,0,0-1.06,3S291.66,64.25,291.67,64.28Z"/><path class="cls-1" d="M287.13,61.18c.41.1,1.26-1.94,3.44-3.25S295,56.7,295.1,56.3c0-.19-.51-.5-1.53-.57a6.68,6.68,0,0,0-3.83,1,6.15,6.15,0,0,0-2.52,2.91C286.91,60.59,286.91,61.18,287.13,61.18Z"/><path class="cls-1" d="M289.26,81.86a17.15,17.15,0,0,0-4,1.58c-.59.27-1.19.48-1.51.17a3.15,3.15,0,0,1-.66-1.83q-.47-2.46-1-5.15c-1.46-7.29-2.89-13.09-3.19-13.09s.65,6,2.11,13.3c.36,1.79.72,3.51,1.06,5.13a3.74,3.74,0,0,0,1.07,2.32,1.66,1.66,0,0,0,1.42.24,3.93,3.93,0,0,0,1-.45A16.3,16.3,0,0,0,289.26,81.86Z"/><path class="cls-1" d="M295.28,89.37c.39-.16-.83-2.62.43-5.37s4-3.78,3.91-4.14-.83-.18-2,.33a6.89,6.89,0,0,0-3.34,3.31,5.82,5.82,0,0,0-.2,4.43C294.54,89,295.12,89.46,295.28,89.37Z"/><path class="cls-1" d="M292.27,48.54c-.57-.45-2.68,1.12-5.36,2.32s-5.28,1.74-5.36,2.46c0,.36.71.68,1.89.76a10.32,10.32,0,0,0,8.15-3.64C292.27,49.51,292.53,48.77,292.27,48.54Z"/><path class="cls-1" d="M266.8,61.94c-.72,0-1.44,1.64-2.82,3.22s-2.89,2.62-2.69,3.34c.1.31.73.48,1.67.26a5.94,5.94,0,0,0,3-2,5.66,5.66,0,0,0,1.34-3.3C267.42,62.49,267.13,62,266.8,61.94Z"/><path class="cls-1" d="M315.75,46.33,318,51.07c.27.56,3.53,7,2.24,8.16s-4.32,1.37-7-.41-8.43-6.37-9.87-9.16a44.15,44.15,0,0,0-7.11-10.74,18.89,18.89,0,0,0-11.25-6.08,12.06,12.06,0,0,0-11.41,4.86c-1.42,2.24-1.85,4.95-3,7.35a9.92,9.92,0,0,1-4.95,5,6.65,6.65,0,0,1-6.84-.94,6.83,6.83,0,0,1-1.4-7.22,15.8,15.8,0,0,1,4.68-6.19,39.57,39.57,0,0,1,19.42-9.81A28.87,28.87,0,0,1,302.65,30c7,4.78,9.48,8.84,13.14,16.38"/><path class="cls-1" d="M258.31,48.4c-.59-.64-.61-1.19-1.21-1.23s-1,1.31-1.14,1.91c0,.18-.64,0-.83,0a3.09,3.09,0,0,1-.83-.78c-.26-.54.48-1.16.64-1.73a4.45,4.45,0,0,1,.89-1.55,1.48,1.48,0,0,1,1.34-.69,1.43,1.43,0,0,1,.88.77,3.14,3.14,0,0,1,.42,1.1,1.62,1.62,0,0,1-.25,1.13"/><path class="cls-8" d="M285.16,110a1.06,1.06,0,0,1-.45-.16,9.14,9.14,0,0,1-1.2-.63,18.49,18.49,0,0,1-3.84-3.15c-3-3-6-7.86-9.07-13.43s-5.91-10.47-7.91-14.08l-2.32-4.29a10.15,10.15,0,0,1-.78-1.63,9.38,9.38,0,0,1,1,1.5c.67,1.1,1.51,2.52,2.52,4.21,2.1,3.56,5,8.49,8,14s6,10.4,8.83,13.42A23.77,23.77,0,0,0,285.16,110Z"/><path class="cls-13" d="M167,375.65c-4-3.24-10.69-5.36-18.26-5.36s-14.23,2.12-18.26,5.36h-4v7.15c0,6.91,10,12.52,22.26,12.52s22.27-5.61,22.27-12.52v-7.15Z"/><ellipse class="cls-14" cx="148.78" cy="375.65" rx="22.27" ry="12.51"/><path class="cls-5" d="M165.6,377.51c0,4.61-7,8.34-15.55,8.34s-15.56-3.73-15.56-8.34,7-8.35,15.56-8.35S165.6,372.9,165.6,377.51Z"/><path class="cls-15" d="M148.78,371.28c7.32,0,13.43,2.71,15.09,6.36a4.65,4.65,0,0,0,.47-2c0-4.61-7-8.34-15.56-8.34s-15.55,3.73-15.55,8.34a4.79,4.79,0,0,0,.46,2C135.35,374,141.47,371.28,148.78,371.28Z"/><path class="cls-13" d="M167,364.33c-4-3.24-10.69-5.36-18.26-5.36s-14.23,2.12-18.26,5.36h-4v7.15c0,6.91,10,12.51,22.26,12.51s22.27-5.6,22.27-12.51v-7.15Z"/><ellipse class="cls-14" cx="148.78" cy="364.33" rx="22.27" ry="12.51"/><path class="cls-5" d="M165.6,366.18c0,4.61-7,8.35-15.55,8.35s-15.56-3.74-15.56-8.35,7-8.34,15.56-8.34S165.6,361.58,165.6,366.18Z"/><path class="cls-15" d="M148.78,360c7.32,0,13.43,2.71,15.09,6.35a4.61,4.61,0,0,0,.47-2c0-4.61-7-8.34-15.56-8.34s-15.55,3.73-15.55,8.34a4.74,4.74,0,0,0,.46,2C135.35,362.67,141.47,360,148.78,360Z"/><path class="cls-13" d="M167,353c-4-3.24-10.69-5.37-18.26-5.37s-14.23,2.13-18.26,5.37h-4v7.15c0,6.91,10,12.51,22.26,12.51s22.27-5.6,22.27-12.51V353Z"/><ellipse class="cls-14" cx="148.78" cy="353.01" rx="22.27" ry="12.51"/><path class="cls-5" d="M165.6,354.86c0,4.61-7,8.35-15.55,8.35s-15.56-3.74-15.56-8.35,7-8.34,15.56-8.34S165.6,350.25,165.6,354.86Z"/><path class="cls-15" d="M148.78,348.64c7.32,0,13.43,2.71,15.09,6.35a4.64,4.64,0,0,0,.47-2c0-4.61-7-8.35-15.56-8.35s-15.55,3.74-15.55,8.35a4.78,4.78,0,0,0,.46,2C135.35,351.35,141.47,348.64,148.78,348.64Z"/><path class="cls-13" d="M167,341.69c-4-3.25-10.69-5.37-18.26-5.37s-14.23,2.12-18.26,5.37h-4v7.15c0,6.91,10,12.51,22.26,12.51s22.27-5.6,22.27-12.51v-7.15Z"/><ellipse class="cls-14" cx="148.78" cy="341.69" rx="22.27" ry="12.51"/><path class="cls-5" d="M165.6,343.54c0,4.61-7,8.34-15.55,8.34s-15.56-3.73-15.56-8.34,7-8.34,15.56-8.34S165.6,338.93,165.6,343.54Z"/><path class="cls-15" d="M148.78,337.31c7.32,0,13.43,2.71,15.09,6.36a4.64,4.64,0,0,0,.47-2c0-4.61-7-8.35-15.56-8.35s-15.55,3.74-15.55,8.35a4.78,4.78,0,0,0,.46,2C135.35,340,141.47,337.31,148.78,337.31Z"/><path class="cls-13" d="M167,330.36c-4-3.24-10.69-5.36-18.26-5.36s-14.23,2.12-18.26,5.36h-4v7.15c0,6.91,10,12.52,22.26,12.52s22.27-5.61,22.27-12.52v-7.15Z"/><ellipse class="cls-14" cx="148.78" cy="330.36" rx="22.27" ry="12.51"/><path class="cls-5" d="M165.6,332.22c0,4.61-7,8.34-15.55,8.34s-15.56-3.73-15.56-8.34,7-8.34,15.56-8.34S165.6,327.61,165.6,332.22Z"/><path class="cls-15" d="M148.78,326c7.32,0,13.43,2.71,15.09,6.36a4.65,4.65,0,0,0,.47-2c0-4.61-7-8.34-15.56-8.34s-15.55,3.73-15.55,8.34a4.79,4.79,0,0,0,.46,2C135.35,328.7,141.47,326,148.78,326Z"/><path class="cls-13" d="M167,319c-4-3.24-10.69-5.36-18.26-5.36s-14.23,2.12-18.26,5.36h-4v7.15c0,6.91,10,12.52,22.26,12.52s22.27-5.61,22.27-12.52V319Z"/><ellipse class="cls-14" cx="148.78" cy="319.04" rx="22.27" ry="12.51"/><path class="cls-5" d="M165.6,320.9c0,4.61-7,8.34-15.55,8.34s-15.56-3.73-15.56-8.34,7-8.35,15.56-8.35S165.6,316.29,165.6,320.9Z"/><path class="cls-15" d="M148.78,314.67c7.32,0,13.43,2.71,15.09,6.36a4.65,4.65,0,0,0,.47-2c0-4.61-7-8.34-15.56-8.34s-15.55,3.73-15.55,8.34a4.79,4.79,0,0,0,.46,2C135.35,317.38,141.47,314.67,148.78,314.67Z"/><path class="cls-2" d="M134.85,412.9c-4-3.25-10.69-5.37-18.26-5.37s-14.23,2.12-18.26,5.37h-4v7.15c0,6.91,10,12.51,22.27,12.51s22.27-5.6,22.27-12.51V412.9Z"/><ellipse class="cls-16" cx="116.59" cy="412.9" rx="22.27" ry="12.51"/><path class="cls-5" d="M133.41,414.75c0,4.61-7,8.34-15.55,8.34s-15.56-3.73-15.56-8.34,7-8.34,15.56-8.34S133.41,410.14,133.41,414.75Z"/><path class="cls-15" d="M116.59,408.52c7.32,0,13.43,2.71,15.09,6.36a4.79,4.79,0,0,0,.47-2c0-4.61-7-8.35-15.56-8.35S101,408.29,101,412.9a4.78,4.78,0,0,0,.46,2C103.16,411.23,109.28,408.52,116.59,408.52Z"/><path class="cls-2" d="M134.85,401.57c-4-3.24-10.69-5.36-18.26-5.36s-14.23,2.12-18.26,5.36h-4v7.15c0,6.91,10,12.52,22.27,12.52s22.27-5.61,22.27-12.52v-7.15Z"/><ellipse class="cls-16" cx="116.59" cy="401.57" rx="22.27" ry="12.51"/><path class="cls-5" d="M133.41,403.43c0,4.61-7,8.34-15.55,8.34S102.3,408,102.3,403.43s7-8.34,15.56-8.34S133.41,398.82,133.41,403.43Z"/><path class="cls-15" d="M116.59,397.2c7.32,0,13.43,2.71,15.09,6.36a4.8,4.8,0,0,0,.47-2c0-4.61-7-8.34-15.56-8.34S101,397,101,401.57a4.79,4.79,0,0,0,.46,2C103.16,399.91,109.28,397.2,116.59,397.2Z"/><path class="cls-2" d="M134.85,390.25c-4-3.24-10.69-5.36-18.26-5.36s-14.23,2.12-18.26,5.36h-4v7.15c0,6.91,10,12.52,22.27,12.52s22.27-5.61,22.27-12.52v-7.15Z"/><ellipse class="cls-16" cx="116.59" cy="390.25" rx="22.27" ry="12.51"/><path class="cls-5" d="M133.41,392.11c0,4.61-7,8.34-15.55,8.34s-15.56-3.73-15.56-8.34,7-8.35,15.56-8.35S133.41,387.5,133.41,392.11Z"/><path class="cls-15" d="M116.59,385.88c7.32,0,13.43,2.71,15.09,6.36a4.8,4.8,0,0,0,.47-2c0-4.61-7-8.34-15.56-8.34S101,385.64,101,390.25a4.79,4.79,0,0,0,.46,2C103.16,388.59,109.28,385.88,116.59,385.88Z"/><path class="cls-2" d="M134.85,378.93c-4-3.24-10.69-5.36-18.26-5.36s-14.23,2.12-18.26,5.36h-4v7.15c0,6.91,10,12.51,22.27,12.51s22.27-5.6,22.27-12.51v-7.15Z"/><ellipse class="cls-16" cx="116.59" cy="378.93" rx="22.27" ry="12.51"/><path class="cls-5" d="M133.41,380.78c0,4.61-7,8.35-15.55,8.35s-15.56-3.74-15.56-8.35,7-8.34,15.56-8.34S133.41,376.18,133.41,380.78Z"/><path class="cls-15" d="M116.59,374.56c7.32,0,13.43,2.71,15.09,6.35a4.75,4.75,0,0,0,.47-2c0-4.61-7-8.34-15.56-8.34S101,374.32,101,378.93a4.74,4.74,0,0,0,.46,2C103.16,377.27,109.28,374.56,116.59,374.56Z"/><path class="cls-2" d="M134.85,367.61c-4-3.24-10.69-5.37-18.26-5.37s-14.23,2.13-18.26,5.37h-4v7.15c0,6.91,10,12.51,22.27,12.51s22.27-5.6,22.27-12.51v-7.15Z"/><ellipse class="cls-16" cx="116.59" cy="367.61" rx="22.27" ry="12.51"/><path class="cls-5" d="M133.41,369.46c0,4.61-7,8.34-15.55,8.34s-15.56-3.73-15.56-8.34,7-8.34,15.56-8.34S133.41,364.85,133.41,369.46Z"/><path class="cls-15" d="M116.59,363.24c7.32,0,13.43,2.7,15.09,6.35a4.79,4.79,0,0,0,.47-2c0-4.61-7-8.35-15.56-8.35S101,363,101,367.61a4.78,4.78,0,0,0,.46,2C103.16,365.94,109.28,363.24,116.59,363.24Z"/><path class="cls-2" d="M134.85,356.28c-4-3.24-10.69-5.36-18.26-5.36s-14.23,2.12-18.26,5.36h-4v7.16c0,6.91,10,12.51,22.27,12.51s22.27-5.6,22.27-12.51v-7.16Z"/><ellipse class="cls-16" cx="116.59" cy="356.28" rx="22.27" ry="12.51"/><path class="cls-5" d="M133.41,358.14c0,4.61-7,8.34-15.55,8.34s-15.56-3.73-15.56-8.34,7-8.34,15.56-8.34S133.41,353.53,133.41,358.14Z"/><path class="cls-15" d="M116.59,351.91c7.32,0,13.43,2.71,15.09,6.36a4.8,4.8,0,0,0,.47-2c0-4.6-7-8.34-15.56-8.34S101,351.68,101,356.28a4.79,4.79,0,0,0,.46,2C103.16,354.62,109.28,351.91,116.59,351.91Z"/><path class="cls-2" d="M134.85,345c-4-3.24-10.69-5.36-18.26-5.36s-14.23,2.12-18.26,5.36h-4v7.15c0,6.91,10,12.52,22.27,12.52s22.27-5.61,22.27-12.52V345Z"/><ellipse class="cls-16" cx="116.59" cy="344.96" rx="22.27" ry="12.51"/><path class="cls-5" d="M133.41,346.82c0,4.61-7,8.34-15.55,8.34s-15.56-3.73-15.56-8.34,7-8.34,15.56-8.34S133.41,342.21,133.41,346.82Z"/><path class="cls-15" d="M116.59,340.59c7.32,0,13.43,2.71,15.09,6.36a4.8,4.8,0,0,0,.47-2c0-4.61-7-8.34-15.56-8.34S101,340.35,101,345a4.79,4.79,0,0,0,.46,2C103.16,343.3,109.28,340.59,116.59,340.59Z"/><path class="cls-2" d="M134.85,333.64c-4-3.24-10.69-5.36-18.26-5.36s-14.23,2.12-18.26,5.36h-4v7.15c0,6.91,10,12.52,22.27,12.52s22.27-5.61,22.27-12.52v-7.15Z"/><ellipse class="cls-16" cx="116.59" cy="333.64" rx="22.27" ry="12.51"/><path class="cls-5" d="M133.41,335.5c0,4.6-7,8.34-15.55,8.34s-15.56-3.74-15.56-8.34,7-8.35,15.56-8.35S133.41,330.89,133.41,335.5Z"/><path class="cls-15" d="M116.59,329.27c7.32,0,13.43,2.71,15.09,6.36a4.84,4.84,0,0,0,.47-2c0-4.61-7-8.34-15.56-8.34S101,329,101,333.64a4.82,4.82,0,0,0,.46,2C103.16,332,109.28,329.27,116.59,329.27Z"/><path class="cls-2" d="M206,408.13c-4-3.24-10.69-5.37-18.26-5.37s-14.23,2.13-18.26,5.37h-4v7.15c0,6.91,10,12.51,22.26,12.51S210,422.19,210,415.28v-7.15Z"/><ellipse class="cls-16" cx="187.75" cy="408.13" rx="22.27" ry="12.51"/><ellipse class="cls-5" cx="189.02" cy="409.98" rx="15.55" ry="8.34"/><path class="cls-15" d="M187.75,403.76c7.32,0,13.43,2.71,15.09,6.35a4.61,4.61,0,0,0,.47-2c0-4.61-7-8.34-15.56-8.34s-15.55,3.73-15.55,8.34a4.74,4.74,0,0,0,.46,2C174.32,406.47,180.44,403.76,187.75,403.76Z"/><path class="cls-2" d="M206,396.81c-4-3.24-10.69-5.37-18.26-5.37s-14.23,2.13-18.26,5.37h-4V404c0,6.91,10,12.51,22.26,12.51S210,410.87,210,404v-7.15Z"/><ellipse class="cls-16" cx="187.75" cy="396.81" rx="22.27" ry="12.51"/><ellipse class="cls-5" cx="189.02" cy="398.66" rx="15.55" ry="8.34"/><path class="cls-15" d="M187.75,392.43c7.32,0,13.43,2.71,15.09,6.36a4.64,4.64,0,0,0,.47-2c0-4.61-7-8.35-15.56-8.35s-15.55,3.74-15.55,8.35a4.78,4.78,0,0,0,.46,2C174.32,395.14,180.44,392.43,187.75,392.43Z"/><path class="cls-2" d="M206,385.48c-4-3.24-10.69-5.36-18.26-5.36s-14.23,2.12-18.26,5.36h-4v7.15c0,6.92,10,12.52,22.26,12.52S210,399.55,210,392.63v-7.15Z"/><ellipse class="cls-16" cx="187.75" cy="385.48" rx="22.27" ry="12.51"/><ellipse class="cls-5" cx="189.02" cy="387.34" rx="15.55" ry="8.34"/><path class="cls-15" d="M187.75,381.11c7.32,0,13.43,2.71,15.09,6.36a4.65,4.65,0,0,0,.47-2c0-4.61-7-8.34-15.56-8.34s-15.55,3.73-15.55,8.34a4.79,4.79,0,0,0,.46,2C174.32,383.82,180.44,381.11,187.75,381.11Z"/><path class="cls-13" d="M179.09,418.46c-4-3.24-10.7-5.36-18.26-5.36s-14.24,2.12-18.26,5.36h-4v7.15c0,6.91,10,12.52,22.27,12.52s22.26-5.61,22.26-12.52v-7.15Z"/><ellipse class="cls-14" cx="160.83" cy="418.46" rx="22.27" ry="12.51"/><ellipse class="cls-5" cx="162.09" cy="420.32" rx="15.55" ry="8.34"/><path class="cls-15" d="M160.83,414.09c7.31,0,13.42,2.71,15.09,6.36a4.79,4.79,0,0,0,.46-2c0-4.61-7-8.34-15.55-8.34s-15.56,3.73-15.56,8.34a4.79,4.79,0,0,0,.46,2C147.4,416.8,153.51,414.09,160.83,414.09Z"/><path class="cls-13" d="M179.09,407.14c-4-3.24-10.7-5.36-18.26-5.36s-14.24,2.12-18.26,5.36h-4v7.15c0,6.91,10,12.51,22.27,12.51s22.26-5.6,22.26-12.51v-7.15Z"/><ellipse class="cls-14" cx="160.83" cy="407.14" rx="22.27" ry="12.51"/><ellipse class="cls-5" cx="162.09" cy="408.99" rx="15.55" ry="8.34"/><path class="cls-15" d="M160.83,402.77c7.31,0,13.42,2.71,15.09,6.35a4.74,4.74,0,0,0,.46-2c0-4.61-7-8.34-15.55-8.34s-15.56,3.73-15.56,8.34a4.74,4.74,0,0,0,.46,2C147.4,405.48,153.51,402.77,160.83,402.77Z"/><path class="cls-13" d="M179.09,395.82c-4-3.24-10.7-5.37-18.26-5.37s-14.24,2.13-18.26,5.37h-4V403c0,6.91,10,12.51,22.27,12.51s22.26-5.6,22.26-12.51v-7.15Z"/><ellipse class="cls-14" cx="160.83" cy="395.82" rx="22.27" ry="12.51"/><ellipse class="cls-5" cx="162.09" cy="397.67" rx="15.55" ry="8.34"/><path class="cls-15" d="M160.83,391.44c7.31,0,13.42,2.71,15.09,6.36a4.78,4.78,0,0,0,.46-2c0-4.61-7-8.35-15.55-8.35s-15.56,3.74-15.56,8.35a4.78,4.78,0,0,0,.46,2C147.4,394.15,153.51,391.44,160.83,391.44Z"/><path class="cls-13" d="M179.09,384.49c-4-3.24-10.7-5.36-18.26-5.36s-14.24,2.12-18.26,5.36h-4v7.16c0,6.91,10,12.51,22.27,12.51s22.26-5.6,22.26-12.51v-7.16Z"/><ellipse class="cls-14" cx="160.83" cy="384.49" rx="22.27" ry="12.51"/><ellipse class="cls-5" cx="162.09" cy="386.35" rx="15.55" ry="8.34"/><path class="cls-15" d="M160.83,380.12c7.31,0,13.42,2.71,15.09,6.36a4.79,4.79,0,0,0,.46-2c0-4.6-7-8.34-15.55-8.34s-15.56,3.74-15.56,8.34a4.79,4.79,0,0,0,.46,2C147.4,382.83,153.51,380.12,160.83,380.12Z"/><path class="cls-13" d="M179.09,373.17c-4-3.24-10.7-5.36-18.26-5.36s-14.24,2.12-18.26,5.36h-4v7.15c0,6.91,10,12.52,22.27,12.52s22.26-5.61,22.26-12.52v-7.15Z"/><ellipse class="cls-14" cx="160.83" cy="373.17" rx="22.27" ry="12.51"/><ellipse class="cls-5" cx="162.09" cy="375.03" rx="15.55" ry="8.34"/><path class="cls-15" d="M160.83,368.8c7.31,0,13.42,2.71,15.09,6.36a4.79,4.79,0,0,0,.46-2c0-4.61-7-8.34-15.55-8.34s-15.56,3.73-15.56,8.34a4.79,4.79,0,0,0,.46,2C147.4,371.51,153.51,368.8,160.83,368.8Z"/><path class="cls-13" d="M179.09,361.85c-4-3.24-10.7-5.36-18.26-5.36s-14.24,2.12-18.26,5.36h-4V369c0,6.91,10,12.51,22.27,12.51s22.26-5.6,22.26-12.51v-7.15Z"/><ellipse class="cls-14" cx="160.83" cy="361.85" rx="22.27" ry="12.51"/><ellipse class="cls-5" cx="162.09" cy="363.71" rx="15.55" ry="8.34"/><path class="cls-15" d="M160.83,357.48c7.31,0,13.42,2.71,15.09,6.36a4.82,4.82,0,0,0,.46-2c0-4.61-7-8.34-15.55-8.34s-15.56,3.73-15.56,8.34a4.82,4.82,0,0,0,.46,2C147.4,360.19,153.51,357.48,160.83,357.48Z"/><path class="cls-1" d="M165.8,213.09a12.07,12.07,0,0,0-3.87,2.15,11.39,11.39,0,0,0,.21-8.06A12,12,0,0,0,147,199.86a11.63,11.63,0,0,0-7.49,14.82,11.78,11.78,0,0,0,5.18,6.27,12.18,12.18,0,0,0-4.4.59,11.63,11.63,0,0,0-7.49,14.82A12,12,0,0,0,148,243.67a11.67,11.67,0,0,0,8-12.46c2,5.15,3.45,8.31-.78,16l14.7-4.86c-8.29-3.65-9-7-10.58-12.25a12,12,0,0,0,14.15,5.16A11.61,11.61,0,0,0,181,220.41,12,12,0,0,0,165.8,213.09Z"/><path class="cls-2" d="M216.8,128.57c-4.62,7.53-9.62,21.32-11.24,31-6.87-7.21-18.86-16-27-19.75,4.62-7.52,9.62-21.32,11.25-31C196.7,116,208.69,124.81,216.8,128.57Z"/><path class="cls-1" d="M187.3,27.14c-1-.37-2-.76-3-1.18A75.32,75.32,0,0,1,170,17.71a72.14,72.14,0,0,1-7.26,14.63c-.62.92-1.23,1.78-1.83,2.61-3.09,4.33-5.54,7.76-4.12,12.47a10.64,10.64,0,0,0,5.46,6.44,11.83,11.83,0,0,0,8.71.81l.11,0A11.18,11.18,0,0,0,177.89,49a46.32,46.32,0,0,1,.3,4.68A16.35,16.35,0,0,1,176,61l13.54-4a17,17,0,0,1-6-4.89,42.85,42.85,0,0,1-2.4-4.06A11.47,11.47,0,0,0,190,49l.11,0a11.55,11.55,0,0,0,6.79-5.39,10.36,10.36,0,0,0,.89-8.31C196.31,30.6,192.34,29.07,187.3,27.14Z"/></svg>