<svg id="_1" data-name="1" xmlns="http://www.w3.org/2000/svg" viewBox="0 0 580 763.52"><defs><style>.cls-1{fill:#263238;}.cls-2{fill:#455a64;}.cls-3{fill:#20e57e;}.cls-4{opacity:0.3;}.cls-5{fill:#fafafa;}.cls-6{fill:#ffbe9d;}.cls-7{fill:#eb996e;}.cls-8{fill:#e0e0e0;}</style></defs><g id="freepik--character-1--inject-2"><path class="cls-1" d="M259.28,45.72C280,27,306.45,43.09,320.58,53.85c28.52,21.77,23.24,57.15,34.47,87,7,17.89,20.71,34.11,23.85,52.75,3.34,19.66-5.48,40.42,1.71,59.37,7.62,20.88,37,37.82,32.4,62.44-10.41,32.42-65.1,43.16-97.64,41.61-93-7.32-44.64-110.27-34.5-167.1,8.38-46.41-3.34-100.15-21.66-144.3"/><path class="cls-2" d="M381.87,346.22c8.84-14.3,2-31.94-3.72-46.16a573.52,573.52,0,0,1-41.47-173.58c-1.28-31.35-8.3-74.8-45.6-79.55,36.83,6.3,43.36,48.14,44.55,79.69A552.48,552.48,0,0,0,344,189.79c7.54,44.88,24.53,87,40,129.44C386.41,328.13,386.51,338,381.87,346.22Z"/><path class="cls-3" d="M381.26,292.89l-87.46-3.7c-47.1,15.09-149.61,50.5-193.8,70.87l93.31,329.45-14.23,46H446.46l-12-249.88Z"/><g class="cls-4"><path d="M200.13,692.31q12.36-83.46,24.68-166.93c1.51-10.23,3.39-21.22,10.79-28.43,7-6.87,17.42-8.7,27.19-9.91,45.68-8.12,79.93,7,102.47,47.7,33,55.25,78.27,91.18,79.2,159C419.24,686,395.17,661.25,381.12,639c-21.51-29.57-52.91-136.88-102.76-104.89-23.71,52.49-11.17,125.14-61.64,164.23C210.36,705.09,197.15,704,200.13,692.31Z"/></g><path class="cls-3" d="M490.26,418.16c0-2.43-38.57-125.27-109-125.27L402.87,440Z"/><path class="cls-3" d="M100,360.06s-21.92,18.76-25.26,34.47-7.19,92.77-7.19,92.77l85.59-5.92Z"/><path class="cls-1" d="M395.17,357.14c5.32,46.51,21.32,110.61,28.73,156.84C418.68,467.55,402.94,403.18,395.17,357.14Z"/><path class="cls-1" d="M131.84,414c2.86,26.47,10.92,62.74,16,89C144.7,476.56,136.66,440.3,131.84,414Z"/><path class="cls-5" d="M97.93,363.57c13.35,11.88,33.55,15,50.16,8.74,16.26-6.67,32.14-24.72,52.14-20,45.65,13.7,77.16,25.76,114.5-15.45,7.14-7.94,17.06-13.7,27.94-13.71,21.89-.83,41.51,12.35,62.93,8.45,10-1.89,20.37-8.27,23-18.59-6.47,17.79-28.7,21.06-45,16.76-12.24-2.62-27.3-8.43-41-7.82-11.19,0-21.43,5.84-28.78,14-36.89,40.74-68.3,28.56-113.45,15.08-20.14-4.84-36.47,13.39-52.62,20.3C131.21,377.78,111.87,374.36,97.93,363.57Z"/><path class="cls-5" d="M408.45,409.76c26.65,7.61,41.89-49.24,68.34-24.22-8.46-13.49-27.13-5.3-35.28,4.49C432.32,399.82,423,411.54,408.45,409.76Z"/><path class="cls-5" d="M155.23,476.85c25.53,15.64,58.37,5,76.06-17.44,11.63-13.05,26.12-26.45,44.8-25.61,17.86.34,35.53,8.17,52.45,11.65,27.56,5.63,57.7,2.44,82.91-9.82-25.55,10.92-55.26,14.61-82.66,8.67-17-3.57-34.76-11.44-52.7-11.69a45.06,45.06,0,0,0-26.6,8.21c-13.51,9.7-22.65,24.13-36.37,33.55C196.18,485.68,173.1,486.51,155.23,476.85Z"/><path class="cls-5" d="M69.77,430.54c19.85,29.73,43.48-8.33,68.51,14.47C116.18,420.3,90.48,458.23,69.77,430.54Z"/><path class="cls-5" d="M163.05,550c41.49-2.54,71.88,41.26,112,5.26,15.87-14.16,38.28-10.08,55.59-1.44C374,577.64,405,558.58,434.76,525.43c-32,32.29-59.16,51.07-103.56,27.24-17.35-8.85-40.63-12.81-56.79,1.39C234.31,590.23,204,545.06,163.05,550Z"/><path class="cls-5" d="M191.14,669.87c8.18-11.28,23.24-16.49,36.72-13.3,19.57,3.68,27.34,32.11,49.5,27.77,24.27-4.22,34-34.76,59-37.51,36.43-4.48,74.79,43.8,107.24,10.79-33.41,31.14-70.45-16.66-107.19-12-25.18,2.5-35.12,33.11-59.08,37.55-21.79,4.07-29.5-24.1-49.09-27.36C214.6,652.62,199,658.13,191.14,669.87Z"/><g class="cls-4"><path d="M127,344.08c32.4-23.28,76.92-43.39,115.94-50.75,9.47,27.17,15.29,58.47,28.94,83.64,1.82,3.38,3.8,7.11,3,10.89-11.55,19.73-52.46,19.67-72,12.67l-.29,11.67C162.45,425.77,114.11,385.93,127,344.08Z"/></g><path class="cls-6" d="M176.18,73.93a17.88,17.88,0,0,0-15,18.88h0L183.52,333c1.82,28.43,44.16,42.36,74.57,40.17,31-2.55,30.92-16.72,30-45.73-1.52-44.79-2.44-61.25-2.38-60.58C340.73,256,332.94,164.35,325,106.12,305.39,4.69,238.39,60.47,176.18,73.93Z"/><path class="cls-1" d="M304.74,145.19c.66,8-12.14,9.5-12.93,1.34S304,137,304.74,145.19Z"/><path class="cls-1" d="M317.41,130.79c-.75.9-5.87-2.44-12.86-2.12s-11.94,4.12-12.74,3.31C294.2,122.93,314.26,121.93,317.41,130.79Z"/><path class="cls-1" d="M238.31,151.33c.66,8-12.14,9.5-12.94,1.34S237.52,143.16,238.31,151.33Z"/><path class="cls-1" d="M248.12,136c-.75.88-5.87-2.43-12.86-2.14s-11.94,4.14-12.74,3.31C225,128.1,245,127.07,248.12,136Z"/><path class="cls-1" d="M276.58,184.36c21.09-5.55,16.61-.37,7.5-23.14-19.52-44.39-16.6-45.57,2.78-1.17C295,179.05,300.92,185.19,276.58,184.36Z"/><path class="cls-7" d="M285.72,267a129.24,129.24,0,0,1-68.8-14.62s19,34.91,69.43,27.58Z"/><path class="cls-7" d="M274.56,201.37c-6.32-8.91-25.52-2.5-19.4,8.91,4.93,7.12,22.39-3.64,19.71-8.7"/><path class="cls-1" d="M255,191.77c1.12-.15,1.53,7.45,8.31,12.52s14.81,3.8,14.91,4.87c-3,3.56-13.79,1.61-17.57-1.8C256.38,204.92,251.91,195.24,255,191.77Z"/><path class="cls-1" d="M251,108.18c-.8,1.85-7.72.56-16,1.07s-15,2.44-16,.59C221.69,100.57,247.41,99.27,251,108.18Z"/><path class="cls-1" d="M316.51,121.87c-1.05,1.76-6.24.81-12.18,1.59s-10.89,2.6-12.18,1.12C291.68,115.6,315.13,112.79,316.51,121.87Z"/><path class="cls-6" d="M182.69,169.67c-4.29-22.45-33.94-15.56-29.82,9.26,2.73,30.48,32.74,21.44,32.72,20.56S184,182.27,182.69,169.67Z"/><path class="cls-7" d="M175.26,188.79c-6,4.7-11.52-2.34-12.45-9.89-1-4.25,1.92-16.11,7.67-11,1.3,4.41,1.93-3.81-3.6-2.66-10.63,4-6.69,24.57,2.73,26.34C171.52,192.24,175.28,190.78,175.26,188.79Z"/><path class="cls-1" d="M118.79,298.35c2.43-21-6-34.42-5.8-55.52,2.22-51.4,14-102.77,32.59-150.75C161.54,48.32,224,4.89,265.52,42c33.67-5.22,45.7,21.86,44.22,23.22-22.2-20.74-37.35-2.44-37.35-2.44-13.5-14-36-1.9-43.71,11.35-10.91,18.69-11.93,29.82-14.78,39.59-7.17,24.48-29.24,29.36-27.83,54.84,1.64,32.65,20.22,57.81,22.76,90.41a179.29,179.29,0,0,0,4,28.43c2.63,9.59,50.84,91.31,15.88,91.43L197,377.09l-25.53-16.37.81,16.73-41.88,2.83c-10.19-8.62-13.09-23.09-12-36.25S117.2,311.46,118.79,298.35Z"/><path class="cls-2" d="M273.7,60.16C248.31,7.25,213,80.62,203.23,106,215.56,81.72,246.76,9.94,273.7,60.16Z"/><path class="cls-2" d="M227,77c4.35-7.94,13.75-25.42,25-28.16,9.11-.63,13.85,9.16,20.37,13.86C267.31,57,260.9,46.75,251.8,47.59,239.22,51.7,231.58,65.29,227,77Z"/><path class="cls-2" d="M179,360.28c-41-73.68-24.33-166.23-.31-241.79C190.27,81.06,198,44.68,235.94,31.37c-38.71,11.84-46.35,49.92-58.34,86.9A671.82,671.82,0,0,0,160,185.82C148.2,243.67,148.22,308.12,179,360.28Z"/><path class="cls-2" d="M170.17,373.46c-59.36-67.18-29-165.63-6.12-240.67C175.46,93.43,181,60.6,210.46,34,180,59.55,174.64,93.41,163,132.47,139.87,208.09,109.21,307.57,170.17,373.46Z"/><path class="cls-2" d="M192.26,295.89c15.32-28.66-10.32-56-19.41-82.44-8.33-20.76.57-43.24,9.64-62,10.09-22,18.83-40.46,27.8-61.2-9.62,19.09-18.52,38.57-29.06,60.71-15,29-18.55,52.64-1.12,81.79C190.67,252.13,202.34,274.15,192.26,295.89Z"/><path class="cls-6" d="M478,421.23c8.12,37.43,45.5,177.39,31.18,223.65-8.45,20.27-36.2,32.45-53.11,28.23S337,522.92,337,519.44h0l33-37.18,54.94,37.18-14.43-81.32Z"/><rect class="cls-2" x="239.23" y="328.39" width="85.9" height="163.69" rx="8.62"/><path class="cls-6" d="M269.27,422.91c16.81-1,47.15,5.88,62.64,7.31l-13.18-16.3s-36-6.43-43.49-8.57-1.89-12.68,4.36-11.79l49.31,1.05,33.81,29.52v43.46l9.75,16.5L338.7,520.36c-3.74-2.57-30.95-14.31-27-26.48L283,484.14a7.79,7.79,0,0,1-5.12-8.55l36.54-2.71L274.63,466a5.14,5.14,0,0,1,.39-10.18l46.29-4.41-38.49-12.91a155.12,155.12,0,0,1-18.91-6.95C260.45,429.76,262.13,424.21,269.27,422.91Z"/><path class="cls-7" d="M417.88,514.69c18.3,14,49,33.46,60.37,55C466.62,544.9,438.76,528.35,417.88,514.69Z"/><path class="cls-8" d="M277.68,348a3.94,3.94,0,0,0,3.94,3.95c5.12.07,5.12-8,0-7.9A3.94,3.94,0,0,0,277.68,348Z"/><path class="cls-6" d="M197.82,430.61l21.78-33.45S269,380.84,275.19,382c5.34,1.16,5.49,8.92,5.46,12.52l-6.36,4.29-29,5.34-17.05,11.66,11.65-5.45,34.1-5.29c4.87-.91,12.47,1.95,12.35,7.55-2.13,8.41-32.38,13-39.39,16.18l-9,16.57,31.47-9.75s19.35,6.41,20.61,8.92c.11,5.21-34.35,16.39-39,19.78l23.1.95L299,469.91l-10.21,4.87-19.49,2.44-16.71,8.16.78,15.15S246.08,516.1,239.21,520s-34.82-34.11-34.82-34.11l-1.94-18.27-4.66-17.05C200.41,439.29,200.91,442,197.82,430.61Z"/><path class="cls-6" d="M239.23,520,203.49,687.44s-10.86,35.25-50.11,35.25c-63.17-5.86-64.32-192.63-80.59-235.75L143,480.77l19.27,99.3,42.09-94.25Z"/><path class="cls-7" d="M138.08,674.14a139.36,139.36,0,0,1,26-98.67C141.66,602.11,131.78,640,138.08,674.14Z"/><path class="cls-1" d="M67.55,487.3c3.21-28.74,4.39-62.73,8.77-96.18,4.38-14,17-23.49,27.92-32.4,2.74-1.23,11.68-4.85,14.18-6.21-2.55.65-11.79,4.53-14.47,5.5-11.37,8.82-24.28,18.49-28.67,32.79C70.89,424.49,69.41,458.21,67.55,487.3Z"/></g></svg>