<svg xmlns="http://www.w3.org/2000/svg" viewBox="0 0 580 480"><defs><style>.cls-1{isolation:isolate;}.cls-2{fill:#20e57e;}.cls-3{fill:#ced9d7;}.cls-4{fill:#2b4751;}.cls-5{fill:#ffbe9d;}.cls-6{fill:#eb996e;}.cls-7{fill:#455a64;}.cls-8{opacity:0.2;}.cls-9{fill:#fafafa;}.cls-10{opacity:0.6;mix-blend-mode:multiply;}.cls-11{fill:#231f20;}</style></defs><g class="cls-1"><g id="_1" data-name="1"><g id="freepik--Puff--inject-2"><path class="cls-2" d="M185.1,361.08c-13.18-1.36-55.45-2.26-68.49.07S88.58,375.37,83,386c-6.27,11.9-5.2,34.68,4.73,44.36s27.76,6.8,42.46,8.86,29.69,1.31,44.59.92c93.55-2.43,187.81,9.71,280.34-3.15,11.8-1.63,24.33-4,32.68-11.56,9.23-8.34,11.05-20.82,12.39-32.34,1.05-9.11,1.85-19.13-4.2-26.56-4-4.85-10.37-7.75-17.14-9,10.83-13.21,16.14-23,16.7-34.21,1-19.91-4.22-34.66-5.4-54.35s-1.21-39.8,4.53-58.66c3.5-11.49,8.71-25.23.88-34.33-4.51-5.25-11.91-6.77-18.75-7.89-81.91-13.34-165.47-13.58-248.24-7.69-9.88.71-20.82,2-27.24,9.55-5.15,6.07-6,14.71-5,22.61s3.49,15.55,4.17,23.47c3.22,37.61-50.16,102-15.37,145"/><path class="cls-3" d="M185.1,361.08c-13.18-1.36-55.45-2.26-68.49.07S88.58,375.37,83,386c-6.27,11.9-5.2,34.68,4.73,44.36s27.76,6.8,42.46,8.86,29.69,1.31,44.59.92c93.55-2.43,187.81,9.71,280.34-3.15,11.8-1.63,24.33-4,32.68-11.56,9.23-8.34,11.05-20.82,12.39-32.34,1.05-9.11,1.85-19.13-4.2-26.56-4-4.85-10.37-7.75-17.14-9,10.83-13.21,16.14-23,16.7-34.21,1-19.91-4.22-34.66-5.4-54.35s-1.21-39.8,4.53-58.66c3.5-11.49,8.71-25.23.88-34.33-4.51-5.25-11.91-6.77-18.75-7.89-81.91-13.34-165.47-13.58-248.24-7.69-9.88.71-20.82,2-27.24,9.55-5.15,6.07-6,14.71-5,22.61s3.49,15.55,4.17,23.47c3.22,37.61-50.16,102-15.37,145"/><path class="cls-4" d="M202,169.2s1.39-.82,4.19-2.08a52.51,52.51,0,0,1,12.85-3.88c5.76-1,12.92-1.21,21.19-1.67s17.7-.8,28.13-1.16c20.84-.7,45.69-1.09,73.27-.85s57.9,1.22,89.67,3.12l11.84.77a93.25,93.25,0,0,1,11.67,1.21,26.33,26.33,0,0,1,10.77,4.26,17.8,17.8,0,0,1,4.08,4.09,20.32,20.32,0,0,1,2.55,5.13,28,28,0,0,1,1.21,11.13A57.24,57.24,0,0,1,471.3,200c-1,3.49-2.12,6.87-3,10.27s-1.73,6.79-2.42,10.16a148,148,0,0,0-2.55,38.89,146.09,146.09,0,0,0,2.24,17.56c1,5.59,2.43,10.91,3.64,15.94,2.63,10.08,4.85,19.3,5.58,27.58a62.22,62.22,0,0,1-1.45,21.15,49,49,0,0,1-2.56,7.27,42.34,42.34,0,0,1-2.74,5l-1.16,1.67-.91,1.14c-.49.62-.76.93-.76.93s.23-.34.71-1c.23-.32.54-.71.89-1.22l1.12-1.68a41.14,41.14,0,0,0,2.66-5,48.94,48.94,0,0,0,2.52-7.28,62.67,62.67,0,0,0,1.33-21.06c-.74-8.24-3-17.41-5.65-27.5-1.3-5-2.7-10.34-3.75-15.95a147.91,147.91,0,0,1,.22-56.65c.69-3.38,1.45-6.8,2.42-10.21s2-6.81,3-10.28a56,56,0,0,0,2.12-10.65,27.26,27.26,0,0,0-1.21-10.91,19.9,19.9,0,0,0-2.42-5,17.7,17.7,0,0,0-3.93-3.94,26.16,26.16,0,0,0-10.53-4.16A96,96,0,0,0,443.1,164l-11.83-.77c-31.77-1.9-62.07-2.88-89.64-3.16s-52.41.07-73.25.71c-10.42.32-19.85.68-28.13,1.07s-15.42.57-21.17,1.55a54.61,54.61,0,0,0-12.83,3.75c-1.41.61-2.43,1.11-3.17,1.46Z"/><path class="cls-4" d="M500.88,400.55l-1.06.31-3.13.8-12,3.09L476,406.93c-3.19.76-6.69,1.47-10.42,2.3-7.5,1.57-16,3.63-25.48,5.21l-14.88,2.72c-2.58.51-5.24.85-7.95,1.27L409,419.65l-8.55,1.28c-1.45.21-2.91.45-4.38.64l-4.46.53-18.51,2.19c-25.36,2.57-53.38,4.42-82.78,4.75s-57.47-1.22-82.87-3.39l-18.58-1.9-4.48-.46c-1.48-.16-2.93-.38-4.39-.57l-8.58-1.15-8.28-1.1c-2.71-.38-5.38-.67-8-1.14l-14.92-2.43c-9.54-1.45-18.06-3.33-25.57-4.85-3.76-.76-7.28-1.42-10.47-2.12l-8.75-2-12.13-2.85-3.14-.75c-.7-.17-1.07-.28-1.07-.28s.38.06,1.08.22l3.15.69,12.14,2.73,8.8,1.94c3.22.68,6.72,1.32,10.47,2.06,7.52,1.42,16.05,3.28,25.58,4.7l14.93,2.42c2.59.47,5.26.76,8,1.13l8.28,1.08,8.56,1.13c1.46.18,2.92.4,4.4.56l4.47.45L207.44,425c25.39,2.13,53.37,3.5,82.81,3.34s57.38-2.16,82.72-4.7l18.5-2.15,4.46-.53c1.47-.18,2.93-.42,4.38-.63l8.5-1.27,8.26-1.21c2.7-.42,5.37-.74,7.94-1.22l14.92-2.67c9.5-1.57,18-3.56,25.48-5.11,3.73-.81,7.28-1.51,10.43-2.24l8.71-2.13,12.06-2.93,3.14-.74Z"/><path class="cls-4" d="M185.1,361.08h.76l2.2.13,8.49.58c3.64.27,8.18.61,13.42.88s11.19.7,17.77.94,13.81.64,21.56.82c3.87.11,7.88.26,12,.32l12.74.21c17.43.2,36.61.12,56.72-.34,40.25-1,76.64-3,103-4.51l31.18-1.8,8.5-.46,2.19-.11h.7l-.74.09-2.2.16-8.49.59-31.19,2c-26.33,1.59-62.73,3.71-103,4.69-20.13.47-39.31.53-56.75.3l-12.74-.24c-4.13-.07-8.14-.24-12-.35-7.75-.22-15-.59-21.55-.89s-12.55-.74-17.78-1.05-9.7-.68-13.34-1l-8.49-.69-2.21-.21Z"/><path class="cls-4" d="M420.37,433.39c-.2,0-.55-3.64-1.82-7.84s-2.92-7.47-2.75-7.57a7.83,7.83,0,0,1,1.22,2,33.77,33.77,0,0,1,3.25,11A7.67,7.67,0,0,1,420.37,433.39Z"/><path class="cls-4" d="M431.09,428.38a50.45,50.45,0,0,0-1.57-6.53,48,48,0,0,0-3-6,16.34,16.34,0,0,1,4.61,12.51Z"/><path class="cls-4" d="M457.93,302.51a15.27,15.27,0,0,0,12.33-3.22,6.36,6.36,0,0,1-1.36,1.44,11.88,11.88,0,0,1-9.07,2.43A4.49,4.49,0,0,1,457.93,302.51Z"/><path class="cls-4" d="M457.19,288c.1-.17,2.25.93,5.1,1.63s5.25.78,5.25,1A15.15,15.15,0,0,1,457.19,288Z"/></g><g id="freepik--Character--inject-2"><path class="cls-4" d="M373,110.07a15.66,15.66,0,0,1,8-7.53,10.56,10.56,0,0,1,10.56,1.59,8,8,0,0,1,1.59,10.15A11.08,11.08,0,1,1,388.67,134a8.26,8.26,0,0,1-9.74,6.45,8.38,8.38,0,0,1-3.46-1.6c-5.58-4.37-4.31-14.56-10.52-18"/><path class="cls-2" d="M368.69,126.47a21.84,21.84,0,0,0,5.74-18.38,4.44,4.44,0,0,1,0-2.7c.7-1.46,3-1.51,4.18-.43a6.84,6.84,0,0,1,1.85,4.41,29.14,29.14,0,0,1-1.22,12.81,13,13,0,0,1-2.42,4.55,6.21,6.21,0,0,1-4.5,2.24,3.64,3.64,0,0,1-3.72-2.5"/><path class="cls-4" d="M365,62.77c-2.31-6.43-13.34-11.93-19.33-15.15-9-4.79-17.19-3.49-22.09,1.22-9.4-7.37-21.67-14.33-33.11-10.92S270,53.43,272.53,65.09C274,72,279,78,279,85.05c0,4.79-2.43,9.19-4.3,13.61s-3.26,9.52-1.31,13.9c1.82,4.07,6.07,6.51,8.49,10.28,1.93,3.07,2.49,6.8,3.78,10.19,4.76,12.6,20,19.23,33.23,16.55s23.91-13,29.79-25.16,7.48-25.85,7.76-39.31"/><path class="cls-5" d="M315.47,60.15A21.84,21.84,0,0,0,290.9,78.86l-.09.79c-1.42,14.7-2.62,33.17-1.21,44.38,2.78,21.84,19.41,25.15,19.41,25.15s-.14,8.13-.32,17.61a23.58,23.58,0,0,0,22.2,24h0a23.57,23.57,0,0,0,24.91-22.15c0-.5.05-1,0-1.5l-.49-94.76"/><path class="cls-6" d="M308.92,149.18A57.84,57.84,0,0,0,338.44,142s-7.83,15.24-29.52,12.5Z"/><path class="cls-4" d="M322.58,81.88c.28.82,3.29.53,6.79,1.07s6.34,1.57,6.82.86c.22-.34-.24-1.13-1.37-2a12,12,0,0,0-10.37-1.47C323.14,80.86,322.47,81.49,322.58,81.88Z"/><path class="cls-4" d="M294.87,83.53c.51.7,2.6.06,5.09.11s4.58.59,5.08-.1c.23-.35-.09-1-1-1.71a7.34,7.34,0,0,0-8.2,0C295,82.5,294.66,83.19,294.87,83.53Z"/><path class="cls-6" d="M321.8,106.4a.81.81,0,0,0,1.61,0,.81.81,0,0,0-.82-.79h0a.8.8,0,0,0-.77.81Z"/><path class="cls-6" d="M299.22,103.25a.78.78,0,0,0,.78.77h0a.81.81,0,0,0,.78-.8h0a.82.82,0,0,0-.7-.9.8.8,0,0,0-.89.7.67.67,0,0,0,0,.2Z"/><path class="cls-6" d="M294.85,105.47a.77.77,0,1,0,1.52-.13.76.76,0,0,0-1.52.08Z"/><path class="cls-6" d="M293.41,102.19a.79.79,0,0,0,.81.78.8.8,0,0,0,.79-.81.81.81,0,0,0-.82-.79h0a.79.79,0,0,0-.76.82Z"/><path class="cls-6" d="M325.55,109.79a.8.8,0,1,0,.8-.8A.8.8,0,0,0,325.55,109.79Z"/><path class="cls-6" d="M328.43,106.49a.8.8,0,1,0,.8-.8.8.8,0,0,0-.8.8Z"/><path class="cls-4" d="M316.49,56.74a46.47,46.47,0,0,0,32.66,37.08c-5.11,7.89-1.22,22.46-1,34.71.25,11.41.36,14.66,7.94,20.23,6.15,1.21,9.11-15.57,13.49-20.38s8.49-10.73,8-17.22c-.27-3-1.55-5.89-1.82-8.93-.29-3.36.68-6.69,1.21-10,2.15-14.78-6-30.32-19.05-37.6s-30.14-6.16-42.57,2.12"/><path class="cls-7" d="M375.2,100.62a4,4,0,0,0,.52-.63,6.13,6.13,0,0,0,.94-2.16,12.58,12.58,0,0,0-1.54-8.38,16.63,16.63,0,0,0-3.64-4.73,32.35,32.35,0,0,0-5.35-4.27,28,28,0,0,0-6.88-3.16c-2.51-.76-5.17-1.34-7.87-1.92s-5.35-1.16-7.83-1.93a48.92,48.92,0,0,1-7-2.76,50.82,50.82,0,0,1-16.63-13c-.65-.77-1.14-1.4-1.47-1.81a3.54,3.54,0,0,0-.53-.63,5.1,5.1,0,0,0,.45.69c.3.44.76,1.08,1.4,1.87A47.28,47.28,0,0,0,325.76,64a49.63,49.63,0,0,0,10.63,7.09,48.9,48.9,0,0,0,7,2.8c2.5.8,5.15,1.37,7.86,2s5.35,1.14,7.84,1.89a27.89,27.89,0,0,1,6.83,3.11A33.48,33.48,0,0,1,371.26,85a16.6,16.6,0,0,1,3.64,4.61,12.59,12.59,0,0,1,1.67,8.18A7.55,7.55,0,0,1,375.2,100.62Z"/><path class="cls-7" d="M318,55.23a4,4,0,0,0,.47.53c.32.35.8.83,1.44,1.45a55.91,55.91,0,0,0,5.68,4.85,38.85,38.85,0,0,0,9.71,5.41,36.06,36.06,0,0,0,6.4,1.5c2.25.38,4.59.65,7,.92A77.33,77.33,0,0,1,362,72.24a29,29,0,0,1,9.71,5,18.91,18.91,0,0,1,4.85,5.57,17,17,0,0,1,.86,1.83,3.69,3.69,0,0,0,.29.64,3.31,3.31,0,0,0-.2-.68,13.32,13.32,0,0,0-.78-1.88A18.14,18.14,0,0,0,372,76.93a28.72,28.72,0,0,0-9.81-5.13,74.55,74.55,0,0,0-13.34-2.43c-2.43-.28-4.72-.56-6.95-.91A37.84,37.84,0,0,1,335.54,67a40.33,40.33,0,0,1-9.64-5.27,72,72,0,0,1-5.76-4.7l-1.49-1.39A4.29,4.29,0,0,0,318,55.23Z"/><path class="cls-7" d="M293,37.11c0,.12,1.87.12,4.85.78a23.58,23.58,0,0,1,2.36.67c.85.26,1.7.63,2.62,1a28.88,28.88,0,0,1,10.24,7.59c.61.71,1.18,1.45,1.72,2.22a19.44,19.44,0,0,1,1.32,2.06c1.49,2.6,2,4.39,2.15,4.36a5.5,5.5,0,0,0-.38-1.21,11,11,0,0,0-.56-1.44,18.32,18.32,0,0,0-.89-1.84,21.72,21.72,0,0,0-1.3-2.11,25.56,25.56,0,0,0-1.71-2.28,28.09,28.09,0,0,0-10.41-7.73c-.88-.37-1.77-.69-2.68-1a18,18,0,0,0-2.43-.62,16.84,16.84,0,0,0-2-.33,10,10,0,0,0-1.54-.12A6.1,6.1,0,0,0,293,37.11Z"/><path class="cls-7" d="M280.38,120.29l-.15-.2-.47-.51c-.43-.46-1-1.11-1.76-2A11.79,11.79,0,0,1,276,113.9a6.37,6.37,0,0,1-.28-2.57,7.06,7.06,0,0,1,.89-2.75,45.16,45.16,0,0,1,4.11-5.42,30.49,30.49,0,0,0,3.86-6.89,31.14,31.14,0,0,0,2.1-8.5,66.18,66.18,0,0,0-.09-9.34,32.27,32.27,0,0,1,.55-9.2A18.17,18.17,0,0,1,291,61.68,18.68,18.68,0,0,1,297.05,57a17.48,17.48,0,0,1,6.5-1.73,19.12,19.12,0,0,1,11.91,3.08l.58.39c.14.08.21.12.21.1a13.6,13.6,0,0,0-3.05-2,19,19,0,0,0-9.7-2,18.11,18.11,0,0,0-6.66,1.71,19.3,19.3,0,0,0-10.28,12.54,33.25,33.25,0,0,0-.55,9.34,65.3,65.3,0,0,1,.09,9.28,30.78,30.78,0,0,1-5.81,15.14,49,49,0,0,0-4.09,5.5,7.46,7.46,0,0,0-.88,2.9,6.76,6.76,0,0,0,.33,2.68,11.76,11.76,0,0,0,2.16,3.7,21.22,21.22,0,0,0,1.88,2l.51.48A.83.83,0,0,0,280.38,120.29Z"/><path class="cls-4" d="M374.11,101.87a.5.5,0,0,0,.23-.11l.64-.37a16.42,16.42,0,0,0,2.33-1.71,20.24,20.24,0,0,0,5.88-8.79,20,20,0,0,0-7.55-22.42,27.86,27.86,0,0,0-9.12-4.08,50.15,50.15,0,0,0-9.9-1.47c-3.23-.2-6.35-.24-9.31-.34a80.33,80.33,0,0,1-8.34-.67,36.59,36.59,0,0,1-7-1.67A25.17,25.17,0,0,1,322.92,55,21.47,21.47,0,0,1,321,52.83l-.46-.6a1,1,0,0,0-.17-.19,14.62,14.62,0,0,0,2.43,3.05,24.72,24.72,0,0,0,9.06,5.48A37.3,37.3,0,0,0,339,62.31a75.94,75.94,0,0,0,8.39.71c5.91.28,12.48.11,19.08,1.84a27.48,27.48,0,0,1,9,4,19.56,19.56,0,0,1,7.47,21.91,20.33,20.33,0,0,1-5.65,8.75,21.47,21.47,0,0,1-2.26,1.77l-.62.42A.75.75,0,0,0,374.11,101.87Z"/><path class="cls-4" d="M294.9,96.89c.33.37,2.42-1.22,5.46-1.08s5.15,1.6,5.49,1.21c.16-.16-.18-.83-1.11-1.54a7.65,7.65,0,0,0-4.4-1.45A7.43,7.43,0,0,0,296,95.34C295.06,96.07,294.73,96.72,294.9,96.89Z"/><path class="cls-4" d="M325.46,97.38c.34.37,2.48-1.21,5.47-1.09s5.15,1.61,5.49,1.21c.16-.15-.18-.81-1.13-1.52a7.57,7.57,0,0,0-4.38-1.46,7.22,7.22,0,0,0-4.36,1.32C325.63,96.56,325.3,97.21,325.46,97.38Z"/><path class="cls-4" d="M314.16,115.43c0-.17-1.83-.52-4.85-1-.76-.09-1.49-.25-1.6-.79a3.91,3.91,0,0,1,.54-2.24c.77-1.84,1.56-3.76,2.43-5.77,3.3-8.23,5.71-15,5.37-15.13s-3.27,6.43-6.57,14.65c-.8,2-1.55,4-2.28,5.81a4.48,4.48,0,0,0-.46,3,2,2,0,0,0,1.21,1.14,5.69,5.69,0,0,0,1.3.21C312.27,115.55,314.15,115.6,314.16,115.43Z"/><path class="cls-6" d="M315.29,122.67a5.35,5.35,0,0,1,4.85-1.9,4.85,4.85,0,0,1,3.37,1.89,3.12,3.12,0,0,1,.16,3.57,3.64,3.64,0,0,1-3.94.91,11,11,0,0,1-3.77-2.35,3.59,3.59,0,0,1-.84-.9,1,1,0,0,1,0-1.12"/><path class="cls-4" d="M312.2,127c.42.24,2.06-2.52,5.63-3.08s6.37,1.49,6.61,1.12c.16-.15-.33-.94-1.57-1.71a8.06,8.06,0,0,0-5.42-1.11,7.06,7.06,0,0,0-4.55,2.7C312.11,126.07,312,126.93,312.2,127Z"/><path class="cls-4" d="M297.65,320.71,264.45,332l-2.67,8.31s-92.63-33.35-99.2-36.86S122.11,292.18,111,320c-9.4,23.41,9.28,46.88,39.08,60s87.63,18.84,87.63,18.84l38.05,6.59,84.18,1.1a84,84,0,0,0,64.81-29.32c13.27-15.47,27-33,29.58-42.11,5.05-17.74.48-40.74-26-43s-69.36,28-69.36,28l-16.29-4.47Z"/><path class="cls-7" d="M295,374.7a4,4,0,0,1,.14-.57,2.55,2.55,0,0,0-.2-1.65c-.63-1.39-2.73-2.64-5.54-3.36h0c-5.71-2.32-14.31-5.92-24.49-11s-22-11.4-34.62-18.19c-9.14-4.85-17.85-9.53-25.91-13.44s-15.43-7.28-21.74-9.71c-1.58-.63-3.07-1.21-4.5-1.81l-4.05-1.48-3.5-1.34-3-1-4.17-1.36-1.06-.38-.37-.14.38.08,1.09.32,4.2,1.21,3,.93,3.55,1.22,4.08,1.43c1.44.53,2.93,1.21,4.51,1.76,6.35,2.42,13.73,5.76,21.84,9.7s16.82,8.49,26,13.42c12.62,6.79,24.39,13.2,34.54,18.26s18.71,8.78,24.37,11.18h0c2.86.78,5,2.09,5.62,3.58a2.58,2.58,0,0,1,.12,1.73A2.26,2.26,0,0,1,295,374.7Z"/><path class="cls-7" d="M419,298l-.38.06-1.1.15a24.86,24.86,0,0,0-4.2.69,48.06,48.06,0,0,0-14.4,6,74.72,74.72,0,0,0-8.84,6.22,94.48,94.48,0,0,0-9.14,8.41,277,277,0,0,1-20.35,20.05c-3.8,3.36-7.62,6.53-11.49,9.36a49.06,49.06,0,0,1-12,6.83,78.41,78.41,0,0,1-12.24,2.42,63.77,63.77,0,0,0-10.57,2.26,31,31,0,0,0-8,3.81,13.94,13.94,0,0,0-4.53,4.85,10.76,10.76,0,0,0-1.21,4v1.1a1.27,1.27,0,0,1,0,.39,1.21,1.21,0,0,1,0-.38v-1.11a10.85,10.85,0,0,1,1.11-4.14,14.07,14.07,0,0,1,4.55-5,31,31,0,0,1,8.07-3.94,63.27,63.27,0,0,1,10.63-2.36,76.14,76.14,0,0,0,12.13-2.5,48.87,48.87,0,0,0,11.82-6.78c3.85-2.8,7.65-6,11.44-9.31,7.55-6.74,14.4-13.53,20.36-20a93.07,93.07,0,0,1,9.22-8.42,73.44,73.44,0,0,1,8.95-6.19,47.29,47.29,0,0,1,14.56-5.87,23.25,23.25,0,0,1,4.24-.57l1.12-.08Z"/><path class="cls-7" d="M303.85,364.72a9.52,9.52,0,0,1-.55-1.55,15.36,15.36,0,0,1-.43-1.9,21.46,21.46,0,0,1-.39-2.53,51.33,51.33,0,0,1-.28-6.67,73.82,73.82,0,0,1,.67-8.14,60.05,60.05,0,0,1,3.63-14.39c.4-.86.72-1.66,1.09-2.33s.68-1.21,1-1.67a7.56,7.56,0,0,1,1-1.28,7.67,7.67,0,0,1-.83,1.41c-.27.45-.54,1-.89,1.7s-.62,1.48-1,2.33a68.19,68.19,0,0,0-3.42,14.3c-.42,2.84-.59,5.58-.71,8.07a60.78,60.78,0,0,0,.15,6.61A59.47,59.47,0,0,0,303.85,364.72Z"/><path class="cls-2" d="M295,374.7s62.7,15.77,65.21,16.66c3.78,1.21,3.47,15-2.43,14.91-2.77,0-47.81,2.76-53.51,2.54s-21.18-5.94-21.18-5.94l9.49-22.38Z"/><path class="cls-4" d="M321.54,397.88c.31,0,.65-3.26,2.59-6.74s4.48-5.59,4.27-5.84-3.16,1.59-5.19,5.33S321.27,397.92,321.54,397.88Z"/><path class="cls-4" d="M315,395.05c.3,0,.87-2.92,2.42-6.2s3.5-5.62,3.27-5.83-2.56,1.9-4.2,5.38S314.71,395.05,315,395.05Z"/><path class="cls-4" d="M308.85,393.59c.31,0,0-3.13,1.31-6.61s3.48-5.68,3.25-5.9-2.88,1.75-4.23,5.55S308.59,393.69,308.85,393.59Z"/><path class="cls-4" d="M309.77,385.52a11.24,11.24,0,0,0,.56-4.64,22.17,22.17,0,0,0-.74-5.07,22.82,22.82,0,0,0-1-2.88,3.55,3.55,0,0,0-1-1.5,1.67,1.67,0,0,0-2.13.15,2.68,2.68,0,0,0-.79,1.79,11.36,11.36,0,0,0,0,1.65,14.13,14.13,0,0,0,.45,3,19.15,19.15,0,0,0,2,4.72,12.74,12.74,0,0,0,2.89,3.64c.15-.1-.93-1.53-2.23-4a20.48,20.48,0,0,1-1.75-4.6,13.55,13.55,0,0,1-.36-2.84c0-1,0-2.14.52-2.62a.58.58,0,0,1,.81-.08,2.57,2.57,0,0,1,.72,1.06,26.25,26.25,0,0,1,1,2.73,26.73,26.73,0,0,1,.93,4.86C309.84,383.73,309.6,385.5,309.77,385.52Z"/><path class="cls-4" d="M309.67,384.89a8.77,8.77,0,0,0-4-.56,17.81,17.81,0,0,0-4.41.65,9.19,9.19,0,0,0-2.53,1,2.64,2.64,0,0,0-1.34,2.88,3.09,3.09,0,0,0,2.3,2.17,6,6,0,0,0,2.79-.06,11,11,0,0,0,4-2.09A11.11,11.11,0,0,0,309.3,386a26.71,26.71,0,0,0-3.28,2.33,11,11,0,0,1-3.78,1.73,4.75,4.75,0,0,1-2.31,0,2.11,2.11,0,0,1-1.55-1.44,1.62,1.62,0,0,1,.89-1.76,9,9,0,0,1,2.24-.94,20.52,20.52,0,0,1,4.17-.82C308.12,384.84,309.65,385.06,309.67,384.89Z"/><path class="cls-4" d="M331.12,398.33c.32,0-.06-2.69,1.1-5.64s3.15-4.71,2.94-4.95-2.68,1.29-3.91,4.58S330.88,398.45,331.12,398.33Z"/><path class="cls-4" d="M287.72,402.2a14.13,14.13,0,0,0,2.42,1.07,53.07,53.07,0,0,0,7,2A98.6,98.6,0,0,0,321,407c9.35-.31,17.74-.93,23.84-1.31l7.21-.54a13.1,13.1,0,0,0,2.64-.36,14.88,14.88,0,0,0-2.67,0l-7.21.22-23.83,1a111.48,111.48,0,0,1-23.65-1.4C291.31,403.45,287.79,402,287.72,402.2Z"/><path class="cls-4" d="M285.87,403.66c.1.14,1.77-.9,4.62-2.22a21.82,21.82,0,0,1,11.75-2.23c4.7.61,8.11,3.7,10.32,5.83a39.08,39.08,0,0,0,3.64,3.64,19.25,19.25,0,0,0-3.14-4.1,24,24,0,0,0-4.22-3.77,14.82,14.82,0,0,0-6.49-2.59,20.67,20.67,0,0,0-12.22,2.6A16.68,16.68,0,0,0,285.87,403.66Z"/><path class="cls-4" d="M348.47,404.93c.11-.07-.44-.88-1-2.33a11.32,11.32,0,0,1,1.84-11.21c1-1.21,1.74-1.8,1.65-1.91a4.83,4.83,0,0,0-2.1,1.53,10.61,10.61,0,0,0-1.9,11.82C347.65,404.3,348.39,405,348.47,404.93Z"/><path class="cls-7" d="M442.49,349.31a5.32,5.32,0,0,1-.54.85l-1.69,2.35c-.75,1-1.63,2.29-2.73,3.64l-3.88,4.69c-1.44,1.72-3.19,3.45-5,5.41s-3.93,3.79-6.06,5.87a137.08,137.08,0,0,1-15.35,11.79,127.36,127.36,0,0,1-17,9.35,109.66,109.66,0,0,1-14.8,5.42c-2.16.64-4.16,1.06-5.9,1.46s-3.27.61-4.51.79l-2.89.3a7.41,7.41,0,0,1-1,.07,5.58,5.58,0,0,1,1-.19l2.87-.42c1.21-.22,2.73-.55,4.47-.89s3.7-.9,5.85-1.54a115.52,115.52,0,0,0,14.73-5.53,132.21,132.21,0,0,0,16.83-9.34,143.69,143.69,0,0,0,15.3-11.71c2.13-2.05,4.26-3.9,6.07-5.81s3.56-3.64,5-5.34l3.93-4.59c1.13-1.38,2-2.62,2.81-3.64l1.78-2.28A6.31,6.31,0,0,1,442.49,349.31Z"/><path class="cls-7" d="M282.49,367c-.09,0-1.08-1.51-2.84-3.92a76.68,76.68,0,0,0-7.56-8.84,77.51,77.51,0,0,0-8.84-7.54c-2.43-1.76-4-2.75-3.92-2.83a4.82,4.82,0,0,1,1.21.58c.74.4,1.78,1,3,1.88a62.13,62.13,0,0,1,9,7.45,59.84,59.84,0,0,1,7.47,9,31.62,31.62,0,0,1,1.89,3A5.32,5.32,0,0,1,282.49,367Z"/><path class="cls-7" d="M358.21,332.31c0,.09-1.37,1-3.53,2.64a54.13,54.13,0,0,0-7.7,7.28,53.07,53.07,0,0,0-6.07,8.64c-1.35,2.35-2,3.89-2.14,3.84a5,5,0,0,1,.38-1.13c.41-1,.87-2,1.37-2.93a45.75,45.75,0,0,1,13.94-16c1.13-.78,2.06-1.38,2.73-1.75A4.1,4.1,0,0,1,358.21,332.31Z"/><path class="cls-2" d="M374.06,313.1c16.91-13.52,48.72-20,48.72-20s-1.78-61.72-6.61-90.09c-.12-.67-.24-1.35-.38-2-4.34-21.84-23.73-35-45.81-38.12l-15-2.09-44.21,1.6-27,8.2s-31.91,7.14-36.77,51.94c-4.85,43.93-10.55,80.22-9.7,93.14.63,9.13,9.06,15.64,13.73,16.7,4.24,1,9.61,1.87,14.18-.89a23.33,23.33,0,0,0-3,8.49h27l21.15-18.6,19.32,13.87,25.89-10.92,17.78-12.13m-91.56-.89v-.17c3-14.88,3.37-19.25,3.37-19.25s-15.89-2-13.34-23.16l2.42-18.3,15.86,53.3S286.56,306.73,281.86,311.34Z"/><g class="cls-8"><path d="M338,290.81l4.94-12.49c-5.46-2.33-7.41-2.42-13.35-3.13a64.12,64.12,0,0,0-44.88,11.72l3.25,9.39H288a16.17,16.17,0,0,0,7.45.07,13.6,13.6,0,0,1,6.3-.53c2.7.67,4.64,3,7.07,4.38a11,11,0,0,0,14.56-4.17c1.12-2.07,2.15-4.93,4.5-4.86a5,5,0,0,1,3,1.59l8.4,7.37c3.36,2.94,6.72,5.9,10.32,8.56,4.23,3.12,9.1,5.92,14.35,5.75a5.47,5.47,0,0,0,5.48-5.19Z"/></g><path class="cls-5" d="M308.76,160.92,308,173.65a30.77,30.77,0,0,0,2,12.91l15.55,40.5s-2.43-23.64,7.6-32.37,22.51-7.84,22.68-21.33v-17l-21.47-4.24Z"/><path class="cls-4" d="M388.26,167.57a4.36,4.36,0,0,1-.82.45,25.93,25.93,0,0,0-2.28,1.32,23.73,23.73,0,0,0-6.61,7,29.24,29.24,0,0,0-4.28,13.55,65.06,65.06,0,0,0,.4,8.49c.28,3,.57,6.07.86,9.15,1.21,12.52,2.63,23.84,3.71,32,.54,4.09,1,7.4,1.35,9.71.16,1.09.29,2,.39,2.62a4.72,4.72,0,0,1,.11.92,4,4,0,0,1-.23-.9c-.14-.59-.29-1.48-.51-2.61-.42-2.27-1-5.57-1.56-9.7-1.21-8.17-2.62-19.48-3.89-32-.32-3.13-.61-6.19-.85-9.15a66.57,66.57,0,0,1-.36-8.59,28.84,28.84,0,0,1,4.49-13.74,22.7,22.7,0,0,1,6.85-7,15.91,15.91,0,0,1,2.36-1.21A4.58,4.58,0,0,1,388.26,167.57Z"/><path class="cls-4" d="M382.57,316.2a.63.63,0,0,1-.25-.08l-.69-.3c-.6-.27-1.5-.67-2.63-1.21-2.28-1.11-5.53-2.84-9.55-5.06-8.05-4.44-19.15-10.92-31.67-18.49l-.23-.13.11-.26,4.5-10.79c1.53-3.72,3-7.35,4.37-10.92q1-2.65,2-5.24c.3-.85.61-1.71.86-2.56.13-.43.26-.85.36-1.21a3.48,3.48,0,0,1,.14-.64v-.38h0s.06.08.11.07l.2-.55c5.43,2.43,10.25,5,14.56,7.39s8,4.48,11.18,6.15,5.67,3,7.4,3.82l2,1,.68.36a3.73,3.73,0,0,1-.73-.26c-.46-.2-1.15-.49-2-.89-1.77-.8-4.33-2-7.5-3.64s-7-3.71-11.25-6.06-9.14-4.85-14.56-7.28l.22-.55a.45.45,0,0,1,.22.19v.76a3.07,3.07,0,0,1-.14.67c-.11.45-.24.87-.36,1.31-.27.86-.56,1.72-.86,2.58-.62,1.74-1.21,3.48-1.95,5.25-1.37,3.56-2.84,7.2-4.37,10.92s-3.06,7.28-4.51,10.8l-.13-.39c12.5,7.59,23.56,14.13,31.54,18.67,4,2.27,7.21,4.05,9.45,5.21,1.12.61,2,1,2.59,1.34l.67.34Z"/><path class="cls-4" d="M273.89,250.41a8,8,0,0,1-.44-1.75c-.24-1.12-.54-2.77-.86-4.85a132.61,132.61,0,0,1-.92-32.28c.2-2.06.4-3.72.58-4.85a8.93,8.93,0,0,1,.34-1.77,11.87,11.87,0,0,1-.1,1.79c-.09,1.16-.23,2.82-.37,4.86-.29,4.12-.52,9.82-.34,16.12s.72,12,1.21,16.06c.27,2,.5,3.7.67,4.85A12.41,12.41,0,0,1,273.89,250.41Z"/><path class="cls-4" d="M271.32,260.58a11.37,11.37,0,0,1-1.14,1.52l-3.28,4L256,279.32l-10.79,13.26-3.29,4a12.26,12.26,0,0,1-1.27,1.42,8.84,8.84,0,0,1,1.08-1.58c.72-1,1.79-2.42,3.12-4.12,2.69-3.47,6.43-8.21,10.67-13.35s8.13-9.77,11-13.08c1.43-1.65,2.61-3,3.42-3.89A10.29,10.29,0,0,1,271.32,260.58Z"/><path class="cls-4" d="M283.45,299.84a6.52,6.52,0,0,1,0,1.53,13.45,13.45,0,0,1-.21,1.79c-.12.69-.21,1.49-.44,2.34a38.13,38.13,0,0,1-1.8,5.92,44.56,44.56,0,0,1-3.47,6.77,45.76,45.76,0,0,1-4.67,6,39.48,39.48,0,0,1-4.63,4.13,22.2,22.2,0,0,1-1.94,1.37,16,16,0,0,1-1.52.95,9.15,9.15,0,0,1-1.36.69c-.08-.11,1.83-1.21,4.55-3.36a45.31,45.31,0,0,0,4.47-4.18,43.13,43.13,0,0,0,8-12.57,44.31,44.31,0,0,0,1.93-5.8C283.17,302,283.34,299.83,283.45,299.84Z"/><path class="cls-4" d="M358.33,159.37a6.78,6.78,0,0,1,.45.84c.27.56.7,1.37,1.21,2.42a47.06,47.06,0,0,1,2.76,9.6,47.77,47.77,0,0,1,.1,14.81,46.65,46.65,0,0,1-6,17.08l-1.78,2.75-2,2.58-.16.21-.24-.14a17.5,17.5,0,0,0-15-1.29,19.14,19.14,0,0,0-12,15.77c-.19,2-.14,3.07-.2,3.07a5.16,5.16,0,0,1-.06-.79V224a18.91,18.91,0,0,1,2.42-8.13,19.21,19.21,0,0,1,3.8-4.58,18.75,18.75,0,0,1,5.84-3.64A17.94,17.94,0,0,1,353,209l-.41.08,1.88-2.5c.59-.89,1.21-1.81,1.76-2.72a47.15,47.15,0,0,0,6-16.86,47.91,47.91,0,0,0,0-14.64,49.45,49.45,0,0,0-2.53-9.59c-.43-1.09-.83-1.91-1-2.42A4.62,4.62,0,0,1,358.33,159.37Z"/><path class="cls-4" d="M323,221.65a3.14,3.14,0,0,1-.39-.69l-1-2c-.86-1.76-2.06-4.33-3.63-7.43a48,48,0,0,0-6.83-10.11,21.76,21.76,0,0,0-5.65-4.35,18.28,18.28,0,0,0-7.35-1.93c-1.05,0-2.08,0-3.05.07h-.4v-.36a86.06,86.06,0,0,1,3.42-13.61,102.58,102.58,0,0,1,4.12-10.56A56.8,56.8,0,0,1,305.9,164a12.91,12.91,0,0,1,1.21-1.69,3.31,3.31,0,0,1,.45-.54c.06,0-.53.82-1.42,2.36a67.31,67.31,0,0,0-3.38,6.74,109.8,109.8,0,0,0-4,10.55,87.16,87.16,0,0,0-3.43,13.49l-.34-.37c1,0,2.06-.09,3.14-.07a19.46,19.46,0,0,1,7.62,2,22.42,22.42,0,0,1,5.77,4.52,46.08,46.08,0,0,1,6.81,10.31c1.57,3.13,2.71,5.72,3.5,7.52.38.85.67,1.54.9,2.07A4.26,4.26,0,0,1,323,221.65Z"/><g class="cls-8"><path d="M325.52,226.28c1.35-4.25,3.05-5.77,5.37-8a12,12,0,0,1,8.65-3.64c2.69.16,5.23,1.53,7.92,1.58,3.14.07,6.07-1.67,8.42-3.73a30.6,30.6,0,0,0,7.36-35.32,47.88,47.88,0,0,1-10.55,32.14,18.36,18.36,0,0,0-18.6.44,19,19,0,0,0-8.57,16.54"/></g><path class="cls-4" d="M380.87,251.56a9.71,9.71,0,0,1,.33,1.69c.17,1.21.38,2.77.65,4.62.52,3.92,1.21,9.32,1.92,15.3q.19,1.69.39,3.3l-.25-.27A34.45,34.45,0,0,1,396,281.37a30.33,30.33,0,0,1,3.1,2.42,6.37,6.37,0,0,1,1,1c-.07.09-1.54-1.28-4.31-3.06a37.21,37.21,0,0,0-12-4.85h-.22v-.22c-.12-1.06-.25-2.17-.4-3.3-.71-6-1.32-11.39-1.73-15.3-.18-1.87-.34-3.44-.46-4.65A8.9,8.9,0,0,1,380.87,251.56Z"/><path class="cls-4" d="M342.81,306.56a3.3,3.3,0,0,1-.63.2l-1.83.46c-1.6.36-3.94.81-6.85,1.21a86.42,86.42,0,0,1-22.89-.13,85.13,85.13,0,0,1-12.35-2.66c-1.86-.59-3.64-1.09-5.24-1.78a8.54,8.54,0,0,1-3.79-3,12,12,0,0,1-1.63-3.64,21.39,21.39,0,0,1-.59-2.95c-.12-.81-.17-1.44-.2-1.88a2.43,2.43,0,0,1,0-.66s.17.89.46,2.5a23.78,23.78,0,0,0,.68,2.89,11.8,11.8,0,0,0,1.66,3.49,8,8,0,0,0,3.64,2.81c1.56.64,3.35,1.14,5.19,1.69a87,87,0,0,0,12.25,2.62,91.73,91.73,0,0,0,22.76.31c2.9-.33,5.24-.72,6.84-1l1.86-.34A2.45,2.45,0,0,1,342.81,306.56Z"/><path class="cls-4" d="M317.47,308.5c0,.11-.83.36-2.05,1.06a11.93,11.93,0,0,0-5.72,8.94c-.14,1.41,0,2.29-.1,2.32a5.06,5.06,0,0,1-.34-2.34,10.94,10.94,0,0,1,5.94-9.31A5.07,5.07,0,0,1,317.47,308.5Z"/><path class="cls-4" d="M323.48,226a3.36,3.36,0,0,1,.14.84c.08.61.16,1.43.28,2.42.22,2.11.51,5.17.78,9,.53,7.57.95,18.07.67,29.67-.15,5.8-.43,11.32-.79,16.33a67.92,67.92,0,0,1-2,13.21,27.31,27.31,0,0,1-3.74,8.2,20.08,20.08,0,0,1-1.55,1.9,5.85,5.85,0,0,1-.61.61c-.06,0,.78-.9,1.95-2.65a28.06,28.06,0,0,0,3.51-8.17A69.35,69.35,0,0,0,324,284.22c.34-5,.59-10.52.74-16.3.27-11.58,0-22.07-.49-29.64-.21-3.8-.42-6.85-.57-9-.07-1-.12-1.82-.17-2.42A4.83,4.83,0,0,1,323.48,226Z"/><path class="cls-3" d="M268.51,219.51a84.57,84.57,0,0,1-10.17,1.12,81.31,81.31,0,0,1-10.23.49A85,85,0,0,1,258.29,220,85.09,85.09,0,0,1,268.51,219.51Z"/><path class="cls-3" d="M323,241a11.08,11.08,0,0,1-2,.37c-1.27.22-3.14.43-5.46.61-2.71.19-5.44.26-8.16.18a92.41,92.41,0,0,1-10-.82,96.05,96.05,0,0,1-9.8-2c-3-.8-5.62-1.64-7.79-2.43s-3.92-1.54-5.08-2.1a11.41,11.41,0,0,1-1.81-.92,15.35,15.35,0,0,1,1.9.69c1.22.5,2.95,1.15,5.14,1.91s4.85,1.56,7.78,2.31a92.21,92.21,0,0,0,9.71,1.92c3.44.5,6.85.75,9.9.89s5.81.06,8.11-.06,4.19-.26,5.47-.4A12.89,12.89,0,0,1,323,241Z"/><path class="cls-3" d="M374.08,222.79a12.07,12.07,0,0,1-1.74,1.09c-1.13.68-2.81,1.59-4.94,2.62s-4.7,2.16-7.63,3.26a90.82,90.82,0,0,1-19.7,4.86c-3.1.4-5.9.63-8.27.7s-4.27.09-5.59,0a11.54,11.54,0,0,1-2-.16,12.66,12.66,0,0,1,2-.08c1.32,0,3.22-.08,5.57-.22s5.14-.41,8.21-.84a96.38,96.38,0,0,0,9.92-1.94c3.48-.86,6.73-1.9,9.71-2.93s5.5-2.14,7.64-3.12,3.86-1.82,5-2.43A14.55,14.55,0,0,1,374.08,222.79Z"/><path class="cls-3" d="M414.64,197.58a7.29,7.29,0,0,1-1.61.18c-1,.08-2.54.21-4.38.4a88.23,88.23,0,0,0-27.79,7.8c-1.68.79-3,1.46-3.95,1.94a7.34,7.34,0,0,1-1.48.68,8.59,8.59,0,0,1,1.36-.89c.89-.55,2.21-1.29,3.87-2.13a77.86,77.86,0,0,1,13.6-5.25,76.06,76.06,0,0,1,14.35-2.58c1.86-.15,3.37-.22,4.42-.21A7.22,7.22,0,0,1,414.64,197.58Z"/><path class="cls-3" d="M420.2,248.45a7.68,7.68,0,0,1-1.59-.08c-1-.09-2.49-.22-4.31-.32a105.44,105.44,0,0,0-14.22,0A111.31,111.31,0,0,0,386,250c-1.78.37-3.23.7-4.22.93a9.26,9.26,0,0,1-1.57.3,6.64,6.64,0,0,1,1.5-.51c1-.32,2.42-.7,4.18-1.13a90.29,90.29,0,0,1,28.43-2c1.82.17,3.29.37,4.31.54A7.08,7.08,0,0,1,420.2,248.45Z"/><path class="cls-3" d="M381.88,308.59c-.1,0,.47-1.77,1.1-4.65a53.17,53.17,0,0,0,1.21-11.39,52.36,52.36,0,0,0-1.37-11.36c-.67-2.87-1.28-4.59-1.21-4.63a4.9,4.9,0,0,1,.53,1.22,33.08,33.08,0,0,1,1.08,3.33,45.64,45.64,0,0,1,.18,22.95,28.41,28.41,0,0,1-1,3.37A4.57,4.57,0,0,1,381.88,308.59Z"/><path class="cls-3" d="M265.11,266.35a24.18,24.18,0,0,1-3.5.29,81.38,81.38,0,0,0-8.37,1,79.58,79.58,0,0,0-8.21,1.94,25.09,25.09,0,0,1-3.39.95,16.93,16.93,0,0,1,3.26-1.37,55.28,55.28,0,0,1,16.71-3A15.19,15.19,0,0,1,265.11,266.35Z"/><path class="cls-3" d="M273.61,317.29h-.46q-.66,0-1.32,0a22.37,22.37,0,0,1-4.8-.92,23.83,23.83,0,0,1-17-24.65,22.2,22.2,0,0,1,.85-4.86c.12-.41.26-.81.42-1.21a1.5,1.5,0,0,1,.21-.42,36.52,36.52,0,0,0-1,6.5A24.07,24.07,0,0,0,267.19,316,36,36,0,0,0,273.61,317.29Z"/><path class="cls-3" d="M301.19,325.26a112.15,112.15,0,0,1-11.56-2.6,116.42,116.42,0,0,1-11.41-3.21A111.71,111.71,0,0,1,289.79,322,114.74,114.74,0,0,1,301.19,325.26Z"/><path class="cls-3" d="M366,313.3a11.3,11.3,0,0,1-1.57.85c-1,.52-2.52,1.21-4.39,2.05a132.81,132.81,0,0,1-30.63,9.13c-2,.34-3.64.57-4.79.69a10.66,10.66,0,0,1-1.78.13,8.56,8.56,0,0,1,1.74-.37c1.12-.2,2.76-.5,4.76-.89,4-.77,9.51-2,15.49-3.79s11.26-3.75,15-5.29c1.89-.78,3.42-1.42,4.46-1.87A7.76,7.76,0,0,1,366,313.3Z"/><path class="cls-3" d="M322.94,278.74a6.59,6.59,0,0,1-1.39.43c-.91.26-2.26.56-3.92.88a71.69,71.69,0,0,1-13.16,1.14,69.91,69.91,0,0,1-13.15-1.33c-1.66-.32-3-.64-3.91-.91a5.67,5.67,0,0,1-1.39-.46,7.06,7.06,0,0,1,1.45.22c.93.2,2.26.45,3.92.72a85.65,85.65,0,0,0,13.08,1.13,86.88,86.88,0,0,0,13.09-1c1.66-.25,3-.49,3.93-.66A6.41,6.41,0,0,1,322.94,278.74Z"/><path class="cls-3" d="M342,278.93a7.22,7.22,0,0,1-2.23.95A26.56,26.56,0,0,1,334,281a25.31,25.31,0,0,1-5.83-.25,7.28,7.28,0,0,1-2.34-.6,71.08,71.08,0,0,0,8.13.22A70.25,70.25,0,0,0,342,278.93Z"/><path class="cls-3" d="M299.9,174.64c0,.11-1.74.29-4.52.77a80.52,80.52,0,0,0-10.72,2.5,83.9,83.9,0,0,0-10.26,4,42.41,42.41,0,0,1-4.15,1.93,4.2,4.2,0,0,1,1-.7c.66-.43,1.67-1,2.93-1.63a65.48,65.48,0,0,1,21.1-6.54c1.41-.17,2.55-.28,3.35-.31A5.82,5.82,0,0,1,299.9,174.64Z"/><path class="cls-3" d="M308.08,179.48a44,44,0,0,1-5.22,14c-.16-.09,1.21-3.13,2.64-7S307.9,179.45,308.08,179.48Z"/><path class="cls-3" d="M346.17,188.37c.19,0-.64,4.08-1.21,9.13s-.63,9.16-.82,9.16A10.72,10.72,0,0,1,344,204a62,62,0,0,1,.37-6.53A58.8,58.8,0,0,1,345.4,191,11.34,11.34,0,0,1,346.17,188.37Z"/><path class="cls-3" d="M360.68,188.82c-.18,0-.85-2.08-2.25-4.41s-3-3.94-2.84-4.08a10.16,10.16,0,0,1,3.38,3.75A9.89,9.89,0,0,1,360.68,188.82Z"/><path class="cls-5" d="M275,267.67a32,32,0,0,0-.12-12,21.6,21.6,0,0,1-.57-7.21c.35-2.43,2.42-5,4.85-4.86l4.36,17.22Z"/><path class="cls-4" d="M275,226.8l15.4,60.86,30.11-3.15-11.55-60.36a3.24,3.24,0,0,0-3.4-2.57L278,222.79a3.28,3.28,0,0,0-3.09,3.45A3.44,3.44,0,0,0,275,226.8Z"/><path class="cls-7" d="M309.59,241.28a10.28,10.28,0,0,1-.55-1.79l-1.21-4.92c-.51-2.12-1.1-4.6-1.75-7.28a8.79,8.79,0,0,0-.26-1,2,2,0,0,0-.57-.76,2.07,2.07,0,0,0-.88-.4,6.37,6.37,0,0,0-1.07,0l-4.76.18c-6.54.26-12.46.44-16.74.55l-5.07.1a11.68,11.68,0,0,1-1.87,0,11.5,11.5,0,0,1,1.85-.2l5.06-.29c4.28-.22,10.2-.47,16.74-.73l4.77-.17a6.12,6.12,0,0,1,1.21,0,2.75,2.75,0,0,1,1.16.54,2.51,2.51,0,0,1,.72,1,7,7,0,0,1,.28,1.09l1.63,7.36c.41,2,.76,3.64,1,5A11.52,11.52,0,0,1,309.59,241.28Z"/><path class="cls-9" d="M292.86,228.59A1.49,1.49,0,0,0,290,229a1.64,1.64,0,0,0,.9,1.49,1.5,1.5,0,0,0,1.71-.23A1.42,1.42,0,0,0,292.86,228.59Z"/><path class="cls-5" d="M292.84,247.15c-.68.2-16.31,9.14-16.31,9.14l-7.94,9.15s-2.79,5.23,0,13.05,6.87,10.45,16.15,12.32l17.24-3.5,12.13-7.55L310.53,266l-11.93,9.54-6.76,1.22-1.11-2.19,9.7-5.6,15.24-12.89L310.9,251l-14.11,9.12-12.13,6,1.73-5,14-11.34S301.39,244.62,292.84,247.15Z"/><path class="cls-5" d="M294,238.67s3.24-2,8.87,0,12.83,5.19,12.83,5.19l10.73,2.57-1.36-2.57s-10.42,1.52-10.25-6.07h6.32l5.29-3,11.1,9.9,4.94,12.45,6.83,5.21L341,283.61l-17.62-2.91-15,1.53-7.91-5.85-1.21-7.76-7.77-7.28s-1.11-3.76,2.31-4.27,12,7.28,12,7.28l8.28-.16s1.38-1.36.17-2.05-26.11-11.61-27.3-14.25-2.43-4.35,0-5.21,6.49.34,6.49.34S292.18,239.32,294,238.67Z"/><path class="cls-6" d="M314.82,252.76a110.57,110.57,0,0,1-11.09-4.59A113.09,113.09,0,0,1,292.9,243,113.89,113.89,0,0,1,304,247.6,114.34,114.34,0,0,1,314.82,252.76Z"/><path class="cls-6" d="M320.58,272a6.52,6.52,0,0,1-1.21.45c-.8.24-2,.59-3.44.92a23.41,23.41,0,0,1-5.27.6,15.34,15.34,0,0,1-6.35-1.47,27.54,27.54,0,0,1-9.11-7.39c-1-1.14-1.72-2.1-2.22-2.78a5.74,5.74,0,0,1-.74-1.08c1.16,1.14,2.25,2.33,3.29,3.57a29.63,29.63,0,0,0,9,7.11,15.49,15.49,0,0,0,6.06,1.45,25,25,0,0,0,5.18-.45C318.76,272.42,320.55,271.93,320.58,272Z"/><path class="cls-6" d="M349.3,262.3l-.46-.3-1.33-1-5.11-3.82h0c-1.31-3.24-3-7.43-5-12.43v.06l-11.11-9.9h.27l-5.29,3h-6.38l.25-.24a5.92,5.92,0,0,0,.74,3,5.35,5.35,0,0,0,2.43,2.06,13.69,13.69,0,0,0,6.77.74h.2l.09.16c.42.79.88,1.68,1.37,2.57l.29.55-.61-.15-10.73-2.54h0c-3.33-1.43-6.78-2.88-10.36-4.26a25.18,25.18,0,0,0-5.48-1.69,9.47,9.47,0,0,0-5.58.74h0c-.57.2-.79.94-.77,1.7a8.8,8.8,0,0,0,.44,2.34l.18.56-.57-.16a17.3,17.3,0,0,0-3.64-.6,5.36,5.36,0,0,0-3.44.66,1.2,1.2,0,0,0-.33,1.43,11.65,11.65,0,0,0,.71,1.75,5.7,5.7,0,0,0,.89,1.6,10.48,10.48,0,0,0,1.53,1.14,146.7,146.7,0,0,0,13.85,7.22l6.9,3.23,3.4,1.56.84.4a1.67,1.67,0,0,1,.86.71,1.36,1.36,0,0,1,0,1.15,3.23,3.23,0,0,1-.58.84l-.09.08h-.12l-8.29.16h-.12l-.08-.09a51,51,0,0,0-8.12-6.06c-1.4-.75-3-1.58-4.4-1a2.24,2.24,0,0,0-1.4,1.53,4.81,4.81,0,0,0,0,2.2l-.07-.14,7.75,7.28.08.06v.1c.39,2.68.8,5.26,1.21,7.76l-.1-.16,7.85,5.83h-.15l15-1.48h0l13,2.23,3.41.61.86.17.3.06h-.3l-.87-.13-3.42-.52-13.06-2.08h0l-15,1.57h-.16l-7.87-5.78h-.09v-.1c-.38-2.43-.78-5.08-1.21-7.76l.07.14q-3.7-3.45-7.77-7.28l-.06-.06v-.07a5,5,0,0,1,0-2.5,3.24,3.24,0,0,1,.62-1.21,2.73,2.73,0,0,1,1.1-.73,3.81,3.81,0,0,1,2.58,0,12.91,12.91,0,0,1,2.31,1,51.89,51.89,0,0,1,8.24,6.14l-.21-.07,8.29-.17-.22.08c.36-.36.7-1,.52-1.28s-.89-.55-1.41-.82l-3.4-1.56-6.9-3.22A147.51,147.51,0,0,1,289,249.93a12,12,0,0,1-1.61-1.22,2.66,2.66,0,0,1-.61-.9l-.42-.88a12.42,12.42,0,0,1-.74-1.86,2.72,2.72,0,0,1-.07-1.1,1.59,1.59,0,0,1,.6-1,5.91,5.91,0,0,1,3.89-.81,17,17,0,0,1,3.74.64l-.38.4a9.12,9.12,0,0,1-.47-2.54,3.66,3.66,0,0,1,.2-1.31,1.72,1.72,0,0,1,1-1H294a10,10,0,0,1,6-.83,26.3,26.3,0,0,1,5.62,1.73c3.64,1.39,7,2.84,10.38,4.29h0l10.72,2.57-.31.42L325,244l.28.15a14.19,14.19,0,0,1-7.07-.8,6.08,6.08,0,0,1-2.67-2.27,6.43,6.43,0,0,1-.8-3.32v-.26h6.46l5.3-3,.15-.09.12.11,11.07,9.93h0l4.85,12.5h0l5,3.91,1.3,1Z"/></g><g class="cls-10"><circle class="cls-11" cx="212.07" cy="68.35" r="22.47"/></g><circle class="cls-2" cx="212.07" cy="68.35" r="22.47" transform="translate(-10.03 50.55) rotate(-13.28)"/><path class="cls-4" d="M218.48,60V56l-4.41,0c-1.87,0-4.55,2.13-4.55,4.53V64.8h-3.87v4.58h3.82V80.75H214V69.33h4l.51-4.48H214V61.56A1.53,1.53,0,0,1,215.52,60Z"/><g class="cls-10"><circle class="cls-11" cx="239.94" cy="129.27" r="22.47"/></g><circle class="cls-2" cx="239.94" cy="129.27" r="22.47"/><path class="cls-4" d="M244.86,142.17H235a8,8,0,0,1-8-8v-9.85a8,8,0,0,1,8-8h9.85a8,8,0,0,1,8,8v9.85A8,8,0,0,1,244.86,142.17ZM235,119.26a5.09,5.09,0,0,0-5.09,5.09v9.85a5.09,5.09,0,0,0,5.09,5.09h9.85a5.1,5.1,0,0,0,5.1-5.09v-9.85a5.1,5.1,0,0,0-5.1-5.09Z"/><path class="cls-4" d="M239.94,135.86a6.59,6.59,0,1,1,6.59-6.59A6.59,6.59,0,0,1,239.94,135.86Zm0-10.59a4,4,0,1,0,4,4A4,4,0,0,0,239.94,125.27Z"/><circle class="cls-4" cx="246.86" cy="122.3" r="1.11"/><g class="cls-10"><circle class="cls-11" cx="446.58" cy="129.27" r="22.42"/></g><circle class="cls-2" cx="446.47" cy="129.27" r="22.42" transform="translate(-17.76 106.04) rotate(-13.28)"/><path class="cls-4" d="M457.9,135.23c-2-.91-4.41-4.33-4.34-5.07s4.5-.84,3.65-2.91c-.19-.48-.75-.57-1.73-.38-1.8.34-1.78.19-1.76.18s1-10.46-7.25-10.36c-8.26-.1-7.25,10.36-7.25,10.36s0,.16-1.77-.18c-1-.19-1.53-.1-1.73.38-.84,2.07,3.59,2.16,3.66,2.91s-2.34,4.16-4.34,5.07c-1.48.68-2,1-1.7,1.5.45.75,3,.36,3.45.8.31.28-.35,1.45.39,1.81s3.48-.18,4.49.17a4.71,4.71,0,0,1,2.42,1.66,4.45,4.45,0,0,0,4.76,0,4.68,4.68,0,0,1,2.41-1.66c1-.35,3.75.18,4.5-.17s.08-1.53.38-1.81c.47-.44,3-.05,3.46-.8C459.92,136.21,459.37,135.91,457.9,135.23Z"/><g class="cls-10"><circle class="cls-11" cx="465.28" cy="68.35" r="22.42"/></g><circle class="cls-2" cx="465.16" cy="68.35" r="22.42" transform="translate(-3.26 108.7) rotate(-13.28)"/><path class="cls-4" d="M478.21,60.61v4.47s-5.3.08-7.7-3V73.41a9.8,9.8,0,0,1-2.76,6.83,8.22,8.22,0,0,1-.61.57,10.15,10.15,0,0,1-1.34,1h0c-.23.14-.48.28-.73.4a9.87,9.87,0,0,1-1.55.63,10,10,0,0,1-2.85.43,5.83,5.83,0,0,1-.59,0,3,3,0,0,1-.42,0,8.28,8.28,0,0,1-.89-.13l-.27,0-.3-.08a2.64,2.64,0,0,1-.46-.13c-.16,0-.32-.1-.46-.15l-.45-.19a3.3,3.3,0,0,1-.43-.19,10.77,10.77,0,0,1-1.24-.71c-.26-.17-.51-.37-.75-.55a3.8,3.8,0,0,1-.37-.33l-.11-.11a0,0,0,0,1,0,0l-.26-.4c-.16-.27-.31-.54-.45-.83s-.2-.43-.28-.65a3.82,3.82,0,0,1-.18-.51,3.19,3.19,0,0,1-.11-.33,10.29,10.29,0,0,1-.37-2c0-.25,0-.5,0-.76a9.64,9.64,0,0,1,.6-3.37,4.7,4.7,0,0,1,.17-.45s0,0,0,0l.12-.26a.38.38,0,0,1,.06-.13h0a.47.47,0,0,1,.05-.1c.12-.25.25-.49.39-.73a10.56,10.56,0,0,1,.84-1.18,8.42,8.42,0,0,1,.64-.7,9.66,9.66,0,0,1,1.09-.94,2.68,2.68,0,0,1,.37-.26,9.21,9.21,0,0,1,2.19-1.11c.26-.1.51-.17.78-.25l.48-.11.38-.08.21,0,.45,0a3,3,0,0,1,.43,0,2.73,2.73,0,0,1,.41,0H462v4a4.29,4.29,0,0,0-1.34-.24,4.42,4.42,0,0,0-4.41,4.41,5.06,5.06,0,0,0,.05.68c0,.12.05.24.07.35l0,.11a2.53,2.53,0,0,0,.12.36,3.87,3.87,0,0,0,.27.62,4.48,4.48,0,0,0,.57.8,3.15,3.15,0,0,0,.37.36,2.21,2.21,0,0,0,.32.28l.08,0a.26.26,0,0,0,.05.09,3.81,3.81,0,0,0,.51.77,2.18,2.18,0,0,0,.25.28.76.76,0,0,0,.09.09,1.94,1.94,0,0,0,.26.23,2.7,2.7,0,0,0,.34.25A3.48,3.48,0,0,0,460,79l.38.19c.13,0,.27.11.41.15l.36.1h.08c.12,0,.25,0,.38.06a4,4,0,0,0,.48,0,4.41,4.41,0,0,0,4.41-4.41V53.43h4.38s0,.09.05.15a5.16,5.16,0,0,0,.23.6l.14.3a6.85,6.85,0,0,0,.34.65l.17.3c.16.22.32.46.5.69s.18.22.28.32l.2.22c.12.13.24.25.38.38l0,0s0,0,.05,0a0,0,0,0,0,0,0l.05.08a3.77,3.77,0,0,0,.31.42,7.54,7.54,0,0,0,1.81,1.74,8.46,8.46,0,0,0,.8.48,4.09,4.09,0,0,0,.42.2A10.55,10.55,0,0,0,478.21,60.61Z"/></g></g></svg>