<svg id="_1" data-name="1" xmlns="http://www.w3.org/2000/svg" viewBox="0 0 580 480"><defs><style>.cls-1{fill:#ebebeb;}.cls-2{fill:#e0e0e0;}.cls-3{fill:#2b4751;}.cls-4{fill:#20e57e;}.cls-5{opacity:0.3;}.cls-6{fill:#455a64;}.cls-7{fill:#263238;}.cls-8{opacity:0.6;}.cls-9{fill:#fff;}.cls-10{fill:#ffbe9d;}.cls-11{fill:#eb996e;}</style></defs><rect class="cls-1" x="416.6" y="317" width="124.2" height="32.88"/><path class="cls-2" d="M488.3,384.6v-8.8c0-5.7-.1-13.8-.2-24.1l.4.4-124.2.2.6-.6h0v32.9l-.6-.7,88.5.3,26.1.2h.3l-26,.2-88.9.2h-.7V351.7h0l.7-.6,124.2.2h.4v.4c0,10.4-.2,18.6-.2,24.3v8Z"/><path class="cls-2" d="M298,189.5V181c0-5.5,0-13.4-.2-23.3l.4.3-120.5.3.6-.6h0v31.8l-.6-.6,85.9.3H289l-25.2.2-86.3.3h-.6V157.7h0l.6-.6,120.5.2h.4v.4c0,10-.2,18.1-.2,23.6v7.8C298.1,189.2,298.1,189.4,298,189.5Z"/><path class="cls-2" d="M314.4,157.7V149c0-5.6-.2-13.5-.3-23.2l.5.4-72.5.2.7-.6h0v31.8l-.6-.6,51.8.3,15,.2h.3l-15.1.2-52.2.2h-.6V125.5h0l.6-.6,72.5.2h.4v.4c0,9.8-.2,17.8-.2,23.4v6.3Z"/><g id="freepik--Plant--inject-3"><path class="cls-3" d="M72.8,372.9a1.4,1.4,0,0,0,.2-.6l.8-1.6a37.2,37.2,0,0,0,2.2-6.4c1.5-5.7,2-14.4-.2-24.7a121.5,121.5,0,0,0-4.6-16.7c-1.9-5.9-4.2-12.1-6-18.9a72,72,0,0,1-3-21.7c.3-7.7,2.5-15.4,5.1-23s5-15.2,5.8-22.7A34.7,34.7,0,0,0,69,215.7c-3.4-6.1-7.5-11.3-10.7-16.7A58.6,58.6,0,0,1,52,182.9a59.7,59.7,0,0,1-.4-24.9,42.6,42.6,0,0,1,2.6-8.8c-.1.2-.1.4-.2.5l-.5,1.7a54.3,54.3,0,0,0-1.6,6.7,59.3,59.3,0,0,0,.7,24.8,58.6,58.6,0,0,0,6.3,15.9c3.2,5.3,7.3,10.5,10.7,16.7a34.3,34.3,0,0,1,4.3,21.3c-.8,7.7-3.4,15.2-5.9,22.8s-4.7,15.3-5,22.8a74.4,74.4,0,0,0,2.9,21.5c1.8,6.8,4,13,6,18.9a164.8,164.8,0,0,1,4.5,16.7c2.1,10.4,1.5,19.2,0,24.9a35.4,35.4,0,0,1-2.5,6.4l-.8,1.6Z"/><path class="cls-4" d="M62.6,204.4s-6.3-20.3,5-32.2a.8.8,0,0,1,1,0c.2.1.2.2.3.4C69.4,175.9,70.2,186.1,62.6,204.4Z"/><path class="cls-3" d="M66.4,179a15,15,0,0,1-.4,3.7q-.6,3.9-1.5,9c-.5,3.3-1,6.3-1.4,8.9a15.1,15.1,0,0,1-.7,3.7,16.2,16.2,0,0,1,.2-3.8c.2-2.3.6-5.5,1.2-9s1.2-6.6,1.6-8.9A16.1,16.1,0,0,1,66.4,179Z"/><path class="cls-4" d="M70.1,252.1s3.8-20.8,19.4-26a.8.8,0,0,1,.9.4.5.5,0,0,1,0,.5C89.4,230.2,85.3,239.6,70.1,252.1Z"/><path class="cls-3" d="M85.3,231.5a16,16,0,0,1-2.2,3.1l-5.4,7.3-5.4,7.2a17.6,17.6,0,0,1-2.4,3,13.5,13.5,0,0,1,1.9-3.3c1.2-1.9,3.1-4.6,5.3-7.4s4.1-5.3,5.6-7.1A17.3,17.3,0,0,1,85.3,231.5Z"/><path class="cls-4" d="M65.8,304.5s-2.3-21.1,11.1-30.6a.8.8,0,0,1,1,.2c.1.1.1.2.1.4C78,277.9,76.8,288,65.8,304.5Z"/><path class="cls-3" d="M74.4,280.3a18.9,18.9,0,0,1-1.1,3.6l-3.1,8.5L67,300.9a20.9,20.9,0,0,1-1.3,3.5,14.5,14.5,0,0,1,.8-3.6c.7-2.3,1.7-5.3,2.9-8.6s2.4-6.3,3.4-8.5A15,15,0,0,1,74.4,280.3Z"/><path class="cls-4" d="M77.6,357.1S76,336,89.7,327a.8.8,0,0,1,1,.2.6.6,0,0,1,.1.4C90.7,331,89.1,341.1,77.6,357.1Z"/><path class="cls-3" d="M87,333.3a20.6,20.6,0,0,1-1.2,3.5c-1,2.5-2.1,5.3-3.4,8.4s-2.5,6-3.4,8.4a20.7,20.7,0,0,1-1.5,3.4,16.1,16.1,0,0,1,1-3.6c.7-2.2,1.8-5.2,3.1-8.5s2.7-6.2,3.7-8.3A14.8,14.8,0,0,1,87,333.3Z"/><path class="cls-4" d="M53.5,186.6s-18.8-9.9-19.2-26.3a.7.7,0,0,1,.7-.7h.4C38.2,161.6,46,168.3,53.5,186.6Z"/><path class="cls-3" d="M38.2,166a16.8,16.8,0,0,1,2.4,2.9l5.3,7.3,5.3,7.3a16,16,0,0,1,2.2,3.1,13.9,13.9,0,0,1-2.6-2.8c-1.5-1.7-3.5-4.3-5.5-7.1s-3.9-5.6-5.2-7.5A20.7,20.7,0,0,1,38.2,166Z"/><path class="cls-4" d="M73.7,230.1S54.3,221.4,53,205a.6.6,0,0,1,.6-.7H54C56.9,206.1,65.1,212.3,73.7,230.1Z"/><path class="cls-3" d="M57.2,210.4a21.8,21.8,0,0,1,2.5,2.8l5.8,7,5.7,7a21.7,21.7,0,0,1,2.4,2.9,13.5,13.5,0,0,1-2.8-2.5c-1.6-1.7-3.7-4.1-5.9-6.9s-4.2-5.3-5.6-7.1A17.7,17.7,0,0,1,57.2,210.4Z"/><path class="cls-4" d="M62.6,278.6s-13.4-16.5-7.1-31.7a.7.7,0,0,1,.9-.4l.3.3C58.5,249.6,63,258.8,62.6,278.6Z"/><path class="cls-3" d="M56.8,253.6a16.1,16.1,0,0,1,1,3.6c.5,2.6,1.2,5.6,1.9,8.9s1.4,6.3,2,8.8a22,22,0,0,1,.7,3.7,10.9,10.9,0,0,1-1.2-3.6,86.1,86.1,0,0,1-2.2-8.8c-.8-3.4-1.3-6.6-1.7-8.9A15,15,0,0,1,56.8,253.6Z"/><path class="cls-4" d="M75.8,335.7s-19.3-9-20.3-25.4a.6.6,0,0,1,.6-.7c.1-.1.3,0,.4.1C59.4,311.5,67.4,317.8,75.8,335.7Z"/><path class="cls-3" d="M59.6,315.8a16.1,16.1,0,0,1,2.4,2.8l5.6,7.1,5.7,7.1a13.3,13.3,0,0,1,2.3,3,22.3,22.3,0,0,1-2.7-2.6c-1.5-1.8-3.6-4.2-5.8-7s-4.1-5.3-5.5-7.3A12.7,12.7,0,0,1,59.6,315.8Z"/><path class="cls-3" d="M114,252.3v1.8c0,1.3-.1,3-.2,5.1-.2,4.5-.6,10.9-1,18.4h0c-1.4,7.7-5.3,16.2-10.5,24.5-3.9,6-7.9,11.6-11.4,16.7a112.3,112.3,0,0,0-8.5,14.1,65.6,65.6,0,0,0-4,10.4c-.3,1.2-.6,2.2-.7,2.9l-.3,1a3.4,3.4,0,0,1,.1-1q.1-1.1.6-3a57,57,0,0,1,3.7-10.5,113.4,113.4,0,0,1,8.5-14.2c3.5-5.2,7.5-10.8,11.3-16.8,5.2-8.2,9.1-16.6,10.6-24.2h0c.5-7.5.9-13.8,1.3-18.3.1-2.2.3-3.9.4-5.2s.1-1,.1-1.3Z"/><path class="cls-4" d="M102.6,300.5s8.1-19.6-2.1-32.4a.7.7,0,0,0-1-.1c-.1.1-.2.2-.2.3C98.4,271.6,96.7,281.7,102.6,300.5Z"/><path class="cls-3" d="M101.1,274.9a11.9,11.9,0,0,1,.6,3.7c.3,2.3.7,5.5.9,9.1s.4,6.7.4,9a16.2,16.2,0,0,1-.2,3.8,16.4,16.4,0,0,1-.4-3.8c-.1-2.6-.4-5.6-.6-9s-.4-6.4-.6-9A16.1,16.1,0,0,1,101.1,274.9Z"/><g class="cls-5"><path d="M102.6,300.5s8.1-19.6-2.1-32.4a.7.7,0,0,0-1-.1c-.1.1-.2.2-.2.3C98.4,271.6,96.7,281.7,102.6,300.5Z"/></g><path class="cls-4" d="M77.4,347.7s6.5-20.1-4.8-32.1a.6.6,0,0,0-.9-.1c-.2.1-.2.3-.3.4C70.8,319.3,69.9,329.4,77.4,347.7Z"/><path class="cls-3" d="M73.8,322.3a15.6,15.6,0,0,1,1,3.7c.4,2.2,1,5.4,1.5,8.9s1,6.7,1.2,9a16.1,16.1,0,0,1,0,3.8,23.8,23.8,0,0,1-.6-3.7c-.4-2.6-.8-5.6-1.3-9s-1-6.3-1.4-8.9A15.8,15.8,0,0,1,73.8,322.3Z"/><g class="cls-5"><path d="M77.4,347.7s6.5-20.1-4.8-32.1a.6.6,0,0,0-.9-.1c-.2.1-.2.3-.3.4C70.8,319.3,69.9,329.4,77.4,347.7Z"/></g><path class="cls-4" d="M113,276.6s17.3-12.2,15.6-28.5a.8.8,0,0,0-.8-.7l-.4.2C124.9,249.9,118.1,257.5,113,276.6Z"/><g class="cls-5"><path d="M113,276.6s17.3-12.2,15.6-28.5a.8.8,0,0,0-.8-.7l-.4.2C124.9,249.9,118.1,257.5,113,276.6Z"/></g><path class="cls-3" d="M125.4,254.2a14.3,14.3,0,0,1-1.4,3.4c-1,2.1-2.4,5-4.1,8.1s-3.3,5.9-4.6,7.9a12.9,12.9,0,0,1-2.2,3,21.1,21.1,0,0,1,1.8-3.3l4.3-8,4.3-7.9A16.9,16.9,0,0,1,125.4,254.2Z"/><path class="cls-4" d="M84.4,327.8s20.9-3.3,26.6-18.7a.8.8,0,0,0-.4-.9h-.5C106.8,309,97.4,312.9,84.4,327.8Z"/><g class="cls-5"><path d="M84.4,327.8s20.9-3.3,26.6-18.7a.8.8,0,0,0-.4-.9h-.5C106.8,309,97.4,312.9,84.4,327.8Z"/></g><path class="cls-3" d="M105.5,313.1a17.4,17.4,0,0,1-2.9,2.5c-1.8,1.5-4.3,3.4-7.2,5.4s-5.6,3.9-7.5,5.1a17.3,17.3,0,0,1-3.3,1.7,23.2,23.2,0,0,1,3-2.2l7.4-5.2,7.3-5.3A24.9,24.9,0,0,1,105.5,313.1Z"/><polygon class="cls-6" points="59.6 366.3 65.6 405.8 89.6 405.7 97.7 366.3 59.6 366.3"/><path class="cls-3" d="M94.2,381.5s0,.1-.2.2l-.7.4a11.2,11.2,0,0,1-2.6.8,11.6,11.6,0,0,1-4.5-.5,9.4,9.4,0,0,1-4.7-3.4,5.7,5.7,0,0,1-1.1-3.3,3.5,3.5,0,0,1,1.6-3.4,3.8,3.8,0,0,1,4,.3,5.6,5.6,0,0,1,2.3,3.7,12.9,12.9,0,0,1,.3,4.4,12.3,12.3,0,0,1-1,4.6,9.8,9.8,0,0,1-2.7,4,7.9,7.9,0,0,1-4.7,1.9,9,9,0,0,1-4.8-1.4,14.2,14.2,0,0,1-3.6-3.3,7.7,7.7,0,0,1-1.9-4.3,5.3,5.3,0,0,1,1.8-4.2,3.8,3.8,0,0,1,4.2-.2,4.2,4.2,0,0,1,2.4,3.2,6.2,6.2,0,0,1-2.9,6.2,8.9,8.9,0,0,1-5.8.8,12.9,12.9,0,0,1-4.1-1.6,18.8,18.8,0,0,1-2.3-1.6l-.8-.6.8.5,2.5,1.5a13.8,13.8,0,0,0,4,1.5,8.1,8.1,0,0,0,5.5-.9,5.7,5.7,0,0,0,2.7-5.7,3.9,3.9,0,0,0-2.2-2.8,3.2,3.2,0,0,0-3.6.2,4.6,4.6,0,0,0-1.5,3.7,8.1,8.1,0,0,0,1.7,3.9,14.7,14.7,0,0,0,3.5,3.1,7.6,7.6,0,0,0,4.4,1.3,6.7,6.7,0,0,0,4.2-1.8A8.1,8.1,0,0,0,87,385a12.8,12.8,0,0,0,1-4.3,15.3,15.3,0,0,0-.3-4.3,5.4,5.4,0,0,0-2-3.3,3.2,3.2,0,0,0-3.4-.3,2.8,2.8,0,0,0-1.4,2.9,5.4,5.4,0,0,0,1,3,8.3,8.3,0,0,0,4.4,3.4,10.6,10.6,0,0,0,4.3.5A12.4,12.4,0,0,0,94.2,381.5Z"/></g><g id="freepik--Bag--inject-3"><path class="cls-4" d="M270.6,251.8c9.6,12.9,10.6,30,11.2,46.1s1.7,33.2,11.3,46.1c4.5,6.1,10.9,10.8,15.3,17a37.1,37.1,0,0,1,6.7,18.5,25,25,0,0,1-3.5,15.3c-4.5,6.7-13.2,9.6-21.2,8.7A40.2,40.2,0,0,1,269.1,393l4.8-6.8a13.6,13.6,0,0,0,25.1-7.4c-.1-8.3-7.3-14.4-13-20.6a67,67,0,0,1-17-36.9"/><g class="cls-5"><path d="M270.6,251.8c9.6,12.9,10.6,30,11.2,46.1s1.7,33.2,11.3,46.1c4.5,6.1,10.9,10.8,15.3,17a37.1,37.1,0,0,1,6.7,18.5,25,25,0,0,1-3.5,15.3c-4.5,6.7-13.2,9.6-21.2,8.7A40.2,40.2,0,0,1,269.1,393l4.8-6.8a13.6,13.6,0,0,0,25.1-7.4c-.1-8.3-7.3-14.4-13-20.6a67,67,0,0,1-17-36.9"/></g><path class="cls-4" d="M245.9,404.1a29.8,29.8,0,0,0,29.7-29.8v-.4l-1.5-103.7c-.1-8.6-.6-18.2-6.7-24.2-4.5-4.4-10.8-6-16.8-7.1-15.4-3-31.4-4.5-46.7-.6s-29.5,13.7-35.5,28.2c-7.3,17.7-1.3,38.6-8.3,56.4-3.1,7.9-8.6,14.7-11.6,22.7-4.8,12.8-2.5,26.7,2.7,39.7a29.9,29.9,0,0,0,27.6,18.8Z"/><path class="cls-3" d="M236.4,237.6a5.1,5.1,0,0,1,1.7-.7,7.7,7.7,0,0,1,5.2.6,11,11,0,0,1,5.7,6.1,34,34,0,0,1,2.1,10.9c1.6,16.2,2.9,38.7,3.8,63.5.4,12.4.8,24.3,1.2,35.1.2,5.4.3,10.5.5,15.3s.4,9.2.2,13.4a31.4,31.4,0,0,1-2,10.9,18.9,18.9,0,0,1-4.7,6.9,14.8,14.8,0,0,1-4.5,2.8l-1.8.4a15.1,15.1,0,0,0,6-3.5,19.7,19.7,0,0,0,4.5-6.8,31.9,31.9,0,0,0,1.8-10.6c0-4.1-.2-8.5-.4-13.3s-.4-9.9-.6-15.3c-.4-10.8-.9-22.6-1.3-35-.9-24.9-2.1-47.4-3.5-63.6a33.1,33.1,0,0,0-1.9-10.7,11.1,11.1,0,0,0-5.2-5.9,7.9,7.9,0,0,0-5-.8C237,237.4,236.5,237.7,236.4,237.6Z"/><path class="cls-3" d="M201.8,238.9s-3.3-8.2,1.9-11,19.4-6.3,22-2.8,3.3,11,3.3,11h-4.5s-1.1-7.1-4.1-7.1-13.9,1.3-14.8,3.2a11.4,11.4,0,0,0,0,5.8l-3.8,1.5"/><g class="cls-5"><path d="M154.3,334.2l84,1.4v57.7H156A51.4,51.4,0,0,1,145.9,362C145.8,342.4,154.3,334.2,154.3,334.2Z"/></g><path class="cls-3" d="M236.6,354.9c0,.3-20.2.6-45.3.6s-45.2-.3-45.2-.6,20.2-.6,45.2-.6S236.6,354.5,236.6,354.9Z"/><path class="cls-3" d="M232.9,355.2c.2,0,.4.9,1,2.3a18.7,18.7,0,0,0,1.2,2.5,2.8,2.8,0,0,1,.4,2,1.7,1.7,0,0,1-.6,1,1.7,1.7,0,0,1-1.3.4,2.3,2.3,0,0,1-1.8-1.3,4.1,4.1,0,0,1-.5-1.8,7.7,7.7,0,0,1,.3-3c.6-1.5,1.2-2.3,1.3-2.2a9.1,9.1,0,0,1-.5,2.6,10.5,10.5,0,0,0,0,2.5c.1.9.7,2.1,1.4,2.1s.9-.9.5-1.7a9.9,9.9,0,0,1-1-2.7C232.7,356.2,232.7,355.2,232.9,355.2Z"/><path class="cls-3" d="M207.7,240.7a5.3,5.3,0,0,1,1.7-.4l5-.9a42.5,42.5,0,0,1,8-.4,21.1,21.1,0,0,1,18.8,12.6,35.7,35.7,0,0,1,3.4,14.3,126.2,126.2,0,0,1-.8,16.3,144.4,144.4,0,0,0-.4,17.4c.4,11.9,1.9,23.2,3.1,33.4a254.7,254.7,0,0,1,2.2,27.5,126.8,126.8,0,0,1-1.1,18.5c-.4,2.3-.8,3.9-1,5a10.5,10.5,0,0,1-.4,1.7,8.8,8.8,0,0,1,.2-1.7c.1-1.2.5-2.9.7-5a126.7,126.7,0,0,0,.8-18.5c-.2-7.8-1.1-17.1-2.4-27.3s-2.7-21.6-3.2-33.6a145.5,145.5,0,0,1,.5-17.5,125.6,125.6,0,0,0,.8-16.2,35.8,35.8,0,0,0-3.2-14,20.4,20.4,0,0,0-17.9-12.3,51.8,51.8,0,0,0-7.9.2l-5,.6A12.5,12.5,0,0,1,207.7,240.7Z"/></g><g id="freepik--Floor--inject-2"><path class="cls-7" d="M558.3,403.3c0,.1-95.4.2-213.1.2l-323.5-.2c0-.1,205.8-.3,323.5-.3S558.3,403.2,558.3,403.3Z"/></g><g id="freepik--character-1--inject-3"><rect class="cls-4" x="322.3" y="139.4" width="155.8" height="119.82"/><path class="cls-3" d="M322.3,228s-23.4,64.4-23.4,91.3-7.1,63.2,47.9,82.3l102.7,1.2a62.3,62.3,0,0,0,54.3-31.4,101.2,101.2,0,0,0,10.1-21.6c6.3-21.2,16-122.6,10.4-129.9S322.3,228,322.3,228Z"/><path class="cls-6" d="M405.9,230.4c.1.2.1.5.2.7s.2,1.2.4,2.1.9,4.6,1.6,8.1c1.2,7,2.9,17.2,4.6,29.9s3.2,27.9,4.3,44.7c.2,4.2.5,8.5.7,12.9a39.5,39.5,0,0,1-.8,13.7,10.4,10.4,0,0,1-4.3,5.8,18.6,18.6,0,0,1-6.8,2.5c-4.8.9-9.5,1.2-14.4,1.7l-28.3,2.9a13.6,13.6,0,0,1-12-6.3,13,13,0,0,1-1.4-3.2c-.3-1.1-.5-2.2-.8-3.2s-.8-4.2-1.3-6.3a359.7,359.7,0,0,0-12.5-43.1c-2.1-6-4.2-11.4-5.5-16.3a43.8,43.8,0,0,1-1.7-13,25.4,25.4,0,0,1,1.6-8.1c.4-.8.8-1.7,1.3-2.5a28.3,28.3,0,0,0-2.4,10.7,45.4,45.4,0,0,0,1.9,12.7c1.3,4.9,3.5,10.1,5.7,16.2a360.6,360.6,0,0,1,12.7,43.1l1.4,6.3a14.7,14.7,0,0,0,2,6,12.3,12.3,0,0,0,10.8,5.7l28.3-2.9c4.8-.6,9.7-.9,14.3-1.7a18.1,18.1,0,0,0,6.3-2.5,10.2,10.2,0,0,0,3.8-5.1,39,39,0,0,0,.7-13.2q-.3-6.6-.6-12.9c-1-16.9-2.6-32-4.1-44.7s-3-22.8-4.1-29.9c-.6-3.5-1-6.2-1.4-8.2a11.8,11.8,0,0,0-.3-2.1A1.1,1.1,0,0,1,405.9,230.4Z"/><path class="cls-6" d="M416.6,320.2a25.7,25.7,0,0,1,.5-4c.5-2.5,1.2-6.3,2.3-10.8a301.7,301.7,0,0,1,10.9-34.6c2.6-6.6,4.8-12.9,7.2-18.6a100.1,100.1,0,0,1,7-14.8,61.6,61.6,0,0,1,6.3-9.1,25.3,25.3,0,0,1,2-2.2l.8-.7a19.9,19.9,0,0,1-2.4,3.3,67.4,67.4,0,0,0-5.9,9.1c-4.6,8.1-8.7,20.3-13.7,33.5a343.9,343.9,0,0,0-11.3,34.3c-1.2,4.5-2,8.2-2.6,10.7A28.5,28.5,0,0,1,416.6,320.2Z"/><path class="cls-6" d="M522.8,277.9a3.3,3.3,0,0,1-.7,1.3c-.5.9-1.3,2.1-2.2,3.5-2,3.1-4.9,7.4-8.7,12.7s-8.6,11.4-14.2,17.9-12.4,13.2-19.6,19.9-16.7,15.6-23.6,22.3l-.3.3-.4-.2-26.4-10.1-7.5-3-2.5-1.1a13.8,13.8,0,0,1,2.7.8l7.6,2.5,26.7,9.6-.7.2c6.9-6.8,15-14.4,23.6-22.4s13.9-13.4,19.6-19.8,10.4-12.5,14.3-17.7,7-9.4,9.1-12.4l2.5-3.4Z"/><path class="cls-4" d="M387.6,364.3v3.5s-60.1,22.1-61,33.4l118,2.8-.7-39.3C426,372.4,407.7,372.9,387.6,364.3Z"/><g class="cls-8"><path class="cls-9" d="M431.5,376.9a4.8,4.8,0,0,1,3.2,5.6,4.6,4.6,0,0,1-5.5,3.2,5,5,0,0,1-3.3-5.9,4.7,4.7,0,0,1,6.1-2.7"/></g><g class="cls-8"><path class="cls-9" d="M444.5,404l-.2-9.5-113.1.8s-5.3,2.1-4.7,5.9Z"/></g><path class="cls-3" d="M387.1,368.1c0,.6,2.9.9,5.7,2.8s4.2,4.4,4.7,4.2-.2-3.6-3.6-5.8S386.9,367.6,387.1,368.1Z"/><path class="cls-3" d="M374.6,372.9c-.2.6,2.3,1.6,4.2,4.1s2.5,5.1,3,5.1,1-3.3-1.4-6.4S374.6,372.4,374.6,372.9Z"/><path class="cls-3" d="M367.2,387.6c.5.1,1.4-2.8,0-5.9s-4-4.6-4.3-4.1,1.4,2.2,2.5,4.8S366.6,387.5,367.2,387.6Z"/><path class="cls-10" d="M443.8,364.7l4.5-11.7-31.7-11.7-11.2,28.3S422.4,376.6,443.8,364.7Z"/><path class="cls-10" d="M364.8,343.6l17.8,59,41.3-12.1-13.6-54.7a6.5,6.5,0,0,0-3.3-4.3c-5-2.7-17.3-6.9-37.1,1.4A8.8,8.8,0,0,0,364.8,343.6Z"/><path class="cls-4" d="M375.3,383.7s35.5,13.4,45.1-8.8l6.2,7.9,33.5,59.1a8.7,8.7,0,0,1-2.1,11.4,8.4,8.4,0,0,1-9.1.6c-15.4-8.5-71.8-40-72.9-46l-3.9-15.6a8.3,8.3,0,0,1,3.2-8.6Z"/><g class="cls-8"><path class="cls-9" d="M456.7,454.1l-82.1-51.6.9,3.4c.6,3.8,2.5,4.8,5.1,6.7,7,5.7,25.3,17.6,68.1,41.4a8.4,8.4,0,0,0,8,.1Z"/></g><g class="cls-8"><path class="cls-9" d="M381.3,389.9a5,5,0,0,1,3.1,6.2,5.1,5.1,0,0,1-6,3.1,5.6,5.6,0,0,1-3.3-6.5,5.1,5.1,0,0,1,6.7-2.6"/></g><path class="cls-3" d="M429,423.9c.5,0,1.2-4.5,5.4-8.1s8.8-3.7,8.8-4.2-1.2-.6-3.2-.3a12.7,12.7,0,0,0-6.8,3.2,12.2,12.2,0,0,0-4.1,6.3C428.6,422.7,428.8,423.9,429,423.9Z"/><path class="cls-3" d="M437.6,433.2c.5.2,2.3-3.1,6.2-5.4s7.6-2.5,7.6-3.1-4.2-1.1-8.5,1.6S437.1,433.1,437.6,433.2Z"/><path class="cls-3" d="M414.8,413c.4.3,3.3-4.8,9-8.9s11.2-5.4,11.1-5.9-6.2,0-12.2,4.4S414.3,412.9,414.8,413Z"/><path class="cls-3" d="M408.2,394c.4.5,4.3-2.5,10.2-4.3s10.6-1.6,10.7-2.1-5.1-1.6-11.3.3S407.9,393.7,408.2,394Z"/><path class="cls-3" d="M421.5,388.6a6,6,0,0,0-1.3-2.8,20.6,20.6,0,0,0-5.7-6.4,9.4,9.4,0,0,0-5.7-2.4,3.2,3.2,0,0,0-3.2,2.3,5.6,5.6,0,0,0,.4,4,12.1,12.1,0,0,0,14.3,5.5,14,14,0,0,0,9.3-12.4,5.1,5.1,0,0,0-1.6-3.8,3.5,3.5,0,0,0-3.9,0,12.8,12.8,0,0,0-3.7,4.9,24,24,0,0,0-2.4,8.3,8.6,8.6,0,0,0,0,3.2,37.6,37.6,0,0,1,3.5-10.9,11.2,11.2,0,0,1,3.3-4.2,2.2,2.2,0,0,1,2.2,0,3.5,3.5,0,0,1,.8,2.6,12.6,12.6,0,0,1-8.2,10.7,10.5,10.5,0,0,1-12.2-4.6,4.2,4.2,0,0,1-.4-2.7,1.9,1.9,0,0,1,1.8-1.3,8.4,8.4,0,0,1,4.8,1.9A33.7,33.7,0,0,1,421.5,388.6Z"/><path class="cls-4" d="M457.5,118.8a36,36,0,0,1,21.4,7.6c9.3,7.9,30.6,35.5,30.6,35.5l-40.6,8.9-28.1-19.6Z"/><path class="cls-4" d="M331.3,124.7c-3.8,1.4-23.8,7.4-31.1,28.7s-5.7,32.4-.8,45.3L341.6,164Z"/><path class="cls-11" d="M504.1,222.6c-.3,0-.5-.9-1.1-1.6s-1.1-1.2-1-1.6,1.3-.4,2.1.8S504.5,222.7,504.1,222.6Z"/><path class="cls-10" d="M296.8,190.5s0,10.6,12.9,26.3,12.5,14.9,32.2,16.9,121.8-9.3,121.8-9.3l15.2-24.7-110.1-1L339.1,164Z"/><path class="cls-10" d="M461.6,220.3s.5,7.1,11.9,8.2S494,230,494,230s12.7,9.1,13.5,10.8.7,7.1,2.8,8.2,4.9,2.1,5.4-2.1a46.1,46.1,0,0,0,0-10.5l-6-8.7-5.4-5.7,13.5,10.9-.3,4.4a7.8,7.8,0,0,0,5.2,7.8h0l2.6-8.9v-5.4a8.7,8.7,0,0,0,2.8-6.6c-.3-4-6.8-12.5-6.8-12.5l-2.6-2.3-.2-4.3-10.9-5.4-39,2Z"/><path class="cls-10" d="M460.8,166.5l-104.5,4.4s-21-8.5-30.1-3.3c-3.9,2.2-12.4,7.4-13.9,10.1s1.6,3.1,1.6,3.1-10.1,4.8-12.9,6.8a10,10,0,0,0-3.1,8.8h0a4.9,4.9,0,0,0,6,3.4h.4l2.1-.8a40.4,40.4,0,0,0-8,8.5c-1.8,3.4,1.2,6.8,5.1,6.4a27,27,0,0,0,9.4-3.6l-4.6,5.6a32.2,32.2,0,0,0-1.5,6.3c0,2,3.8,3.1,6.1,2.8s13.4-6.8,13.4-6.8l-4,5.4a7.4,7.4,0,0,0,0,5.1,5.1,5.1,0,0,0,6,3.4c2.9-.3,11.8-12.3,11.8-12.3s7.4-3.4,15.7-6.3S374.4,199,374.4,199l100.2,2.9,25.7-1.7c6.3-.3,12.2-20.8,7.5-38.2l.2-.5c-16.3-7.3-31.2-8.7-44-.9Z"/><path class="cls-11" d="M314.3,210a18.5,18.5,0,0,1-5.6,3.2,13.5,13.5,0,0,1-7.1,1.4l-1.1-.4-1-.7a14.3,14.3,0,0,1-1.5-1.8,4.2,4.2,0,0,1,.2-5h0l1.7-2.1a60.5,60.5,0,0,1,13.4-11.3,25.2,25.2,0,0,1,6.6-3.2c0,.3-2.4,1.5-6.1,4a63.6,63.6,0,0,0-12.9,11.4,15.6,15.6,0,0,0-1.6,2h0c-1.8,1.9.6,5.3,2.6,5.7a13.5,13.5,0,0,0,6.6-.9C312.1,211,314.2,209.8,314.3,210Z"/><path class="cls-11" d="M518.7,205.1l-.7-.2-2.1-1-8.2-3.9h.2l-20.5,1.2c-8.4.5-18.1.8-28.9.8s-22.6-.4-35.2-1.2l-19.5-1.4-10.2-.7a84.6,84.6,0,0,0-10.1-.3,16.8,16.8,0,0,0-10.8,3.9c-1.6,1.2-3,2.6-4.6,3.8a33.9,33.9,0,0,1-5,3.4,110.2,110.2,0,0,1-10.3,5.2,65.3,65.3,0,0,0-9.8,5.1,51.9,51.9,0,0,0-7.7,7.1l-3.9,3.5a7.4,7.4,0,0,1-4.8,2.2,5.6,5.6,0,0,1-4.6-2.3,4.5,4.5,0,0,1-1.1-5,32.3,32.3,0,0,1,5-7.6l.7.7a43.1,43.1,0,0,1-14.1,6.5,6.4,6.4,0,0,1-3.6-.5,5.2,5.2,0,0,1-2.2-2.8,7.8,7.8,0,0,1,1.2-6.1h0A59.3,59.3,0,0,1,320.8,205a24.2,24.2,0,0,1,3.9-2.1l1.4-.5-1.3.7a24.6,24.6,0,0,0-3.8,2.2A63.8,63.8,0,0,0,308.5,216h0a7.1,7.1,0,0,0-1.1,5.5,4.5,4.5,0,0,0,1.9,2.2,4.1,4.1,0,0,0,3.1.3,40.2,40.2,0,0,0,13.6-6.3l2.9-1.9-2.3,2.5a45.8,45.8,0,0,0-5,7.4,3.9,3.9,0,0,0,1,3.8,5.4,5.4,0,0,0,3.8,1.9,6.5,6.5,0,0,0,4-2.1l3.8-3.4a54.7,54.7,0,0,1,7.9-7.3,77.2,77.2,0,0,1,9.9-5.1c3.5-1.5,6.9-3.2,10.2-5q2.4-1.5,4.8-3.3c1.5-1.2,2.9-2.6,4.6-3.8a18.9,18.9,0,0,1,5.3-3.1,22,22,0,0,1,6.2-1.2,71.8,71.8,0,0,1,10.4.4l10.2.7,19.4,1.4c12.7.8,24.4,1.4,35.2,1.4s20.5-.2,28.8-.6l20.5-.9h.2l7.9,4.2,2.1,1.1Z"/><path class="cls-11" d="M304.8,200a4.1,4.1,0,0,1-1.8.5,5.9,5.9,0,0,1-4.6-2.1,6.4,6.4,0,0,1-1.3-3.3,9.1,9.1,0,0,1,.4-4,7.5,7.5,0,0,1,2.7-3.6l3.9-2.4c5.5-3.1,10.5-5.7,14.1-7.5a35.6,35.6,0,0,1,6.1-2.5,29.3,29.3,0,0,1-5.6,3.5l-13.9,7.7-3.8,2.3a7,7,0,0,0-2.4,3,8.6,8.6,0,0,0-.4,3.5,5.1,5.1,0,0,0,1,2.9,5.6,5.6,0,0,0,3.8,2.1C304.1,200.1,304.7,199.9,304.8,200Z"/><path class="cls-11" d="M507.3,212a1.9,1.9,0,0,1,1.1-.3,5.1,5.1,0,0,1,3,.9,43.4,43.4,0,0,1,7.2,7,32,32,0,0,1,6.1,8c1.1,2.5.5,4.2.4,4.1a16.3,16.3,0,0,0-1.3-3.7,49.4,49.4,0,0,0-6.2-7.5,75,75,0,0,0-6.7-7.1A7,7,0,0,0,507.3,212Z"/><path class="cls-11" d="M511.1,204.4c.1-.3,2.3.2,4.5,1.7s3.6,3.3,3.3,3.6-1.9-1.1-4-2.6S510.9,204.6,511.1,204.4Z"/><path class="cls-3" d="M336.4,165.7l-3.9-15.5a45.6,45.6,0,0,1-2.2-7.8c-3.6-16.9-13.6-76.4,21.5-82.8,0,0,25.1-25.6,54.9-16s52.7,32.9,54.9,56.4c1.6,18.2,2,48.1,2.1,60.5a6.1,6.1,0,0,1-5.7,6.2l-52.4,4.2H357A135.1,135.1,0,0,0,336.4,165.7Z"/><path class="cls-3" d="M402.9,155.1a43.9,43.9,0,0,1,5.3,36.8c-.4,1.7-.7,4.1,1,4.6a3.1,3.1,0,0,0,2.3-.6,31,31,0,0,0,11.4-12.7c-.5,3.2-.2,7.6,2.9,8.2a6.2,6.2,0,0,0,5.1-2.2,57,57,0,0,0,11.5-14.3l2.3,11.5A34.3,34.3,0,0,0,460,168.6a55.4,55.4,0,0,0,3.5-23.5c-.5-10.6-3.4-21.6-10.5-29.5a32.6,32.6,0,0,0-54.3,34.5"/><path class="cls-6" d="M423.3,166.4a18.7,18.7,0,0,1-.3-3.4c0-2.1-.3-5.2-.6-9a137.7,137.7,0,0,0-18.2-56.5c-2-3.3-3.6-6-4.8-7.8a16.1,16.1,0,0,1-1.7-2.8,12.7,12.7,0,0,1,2.1,2.5,88.3,88.3,0,0,1,5.1,7.6,125.8,125.8,0,0,1,18.4,56.7c.2,3,.3,6.1.2,9.1A14.5,14.5,0,0,1,423.3,166.4Z"/><path class="cls-6" d="M404,156.2a15,15,0,0,1-3-4,61,61,0,0,1-5.5-10.8,68.4,68.4,0,0,1-3.5-11.7,14.5,14.5,0,0,1-.5-5.1c.4,0,1.7,7.5,5.2,16.2S404.4,156,404,156.2Z"/><path class="cls-6" d="M348.8,124.2a7.3,7.3,0,0,1-.8-2.5,58.8,58.8,0,0,1-1.6-7,46.2,46.2,0,0,1,1.9-23.6,29.3,29.3,0,0,1,16.3-16.8,21.9,21.9,0,0,1,7.1-1.4,10.1,10.1,0,0,1,2.5.3,31,31,0,0,0-9.4,2,29.5,29.5,0,0,0-15.4,16.4,48.1,48.1,0,0,0-2.1,22.9C348.1,120.6,349,124.2,348.8,124.2Z"/><path class="cls-6" d="M366.2,124.5a20.2,20.2,0,0,1-1.7-6.4,58.9,58.9,0,0,1,3.6-31.9,22.5,22.5,0,0,1,3.2-5.9,96.9,96.9,0,0,0-5.9,21.7A99.6,99.6,0,0,0,366.2,124.5Z"/><path class="cls-6" d="M351.6,61.3a23.5,23.5,0,0,1,12.6.4,24.2,24.2,0,0,1,11.3,5.9A96.5,96.5,0,0,0,363.9,63,103.9,103.9,0,0,0,351.6,61.3Z"/><path class="cls-6" d="M404.6,48.6c0,.2-1.9,0-5,.5a29.5,29.5,0,0,0-19.8,12.2c-1.7,2.5-2.5,4.3-2.7,4.2a12.9,12.9,0,0,1,1.9-4.7,26.2,26.2,0,0,1,20.3-12.7A11.9,11.9,0,0,1,404.6,48.6Z"/><path class="cls-6" d="M434.4,71.4c-.1.2-2.5-2.2-6.9-4.9a38.2,38.2,0,0,0-38.8-.5c-4.5,2.5-6.9,4.9-7,4.7s.4-.7,1.5-1.7a30.7,30.7,0,0,1,5.1-3.8,36.8,36.8,0,0,1,39.7.5,32.5,32.5,0,0,1,5,4C434,70.7,434.5,71.4,434.4,71.4Z"/><path class="cls-6" d="M438.7,166.4c-.1,0,.7-1.7,1.6-4.8a56.7,56.7,0,0,0,2.7-13.5,99.3,99.3,0,0,0-.6-20.4,112.5,112.5,0,0,0-5.7-24.4,54.6,54.6,0,0,0-13-21,39.7,39.7,0,0,0-17.6-9.7,29.3,29.3,0,0,0-13.5-.5c-3.2.6-4.9,1.4-5,1.3a3.4,3.4,0,0,1,1.2-.6l3.6-1.2a29.7,29.7,0,0,1,13.9,0,39.5,39.5,0,0,1,18.2,9.8A55.3,55.3,0,0,1,438,102.8a108.4,108.4,0,0,1,5.6,24.6,89.6,89.6,0,0,1,.3,20.7,58.1,58.1,0,0,1-3,13.6l-1.6,3.5A3.4,3.4,0,0,1,438.7,166.4Z"/></g></svg>