<svg id="_1" data-name="1" xmlns="http://www.w3.org/2000/svg" viewBox="0 0 580 480"><defs><style>.cls-1{fill:#fafafa;}.cls-2{fill:#8c5249;}.cls-3{fill:#20e57e;}.cls-4{fill:#ffbe9d;}.cls-5{fill:#eb996e;}.cls-6{fill:#2b4751;}.cls-7{fill:#db764d;}.cls-8{fill:#455a64;}.cls-9{fill:#009e9e;}.cls-10{fill:#a86e63;}.cls-11{fill:#1a2e35;}.cls-12{fill:#ff9a6c;}</style></defs><path class="cls-1" d="M57,323.9a16.1,16.1,0,0,1-.9-2.9,39.1,39.1,0,0,0-2.7-6.7,39.4,39.4,0,0,0-3.9-6.1,21.1,21.1,0,0,1-1.9-2.3,10.4,10.4,0,0,1,2.1,2.1,31.3,31.3,0,0,1,6.7,12.9A13.3,13.3,0,0,1,57,323.9Z"/><path class="cls-1" d="M47.1,313.8c0-.1.5-.3,1.4-.3a5.9,5.9,0,0,1,3.2.6,6,6,0,0,1,2.7,2c.6.6.8,1.1.7,1.2a12.2,12.2,0,0,0-3.6-2.7A13.2,13.2,0,0,0,47.1,313.8Z"/><path class="cls-1" d="M55.7,307.7a29.9,29.9,0,0,0-1,4.3,32.5,32.5,0,0,0,.3,4.4A8.5,8.5,0,0,1,55.7,307.7Z"/><path class="cls-1" d="M53.6,304.6c.1-.1.6.7,1.1,1.8a3.8,3.8,0,0,1,.4,2.1,6.2,6.2,0,0,1-.9-1.9C53.8,305.5,53.4,304.7,53.6,304.6Z"/><path class="cls-1" d="M56.6,304.5a6,6,0,0,1-.4,2c-.3,1-.5,1.9-.7,1.8a3.9,3.9,0,0,1,.2-2A3.7,3.7,0,0,1,56.6,304.5Z"/><path class="cls-1" d="M59,306.8l-1.6.9c-.9.4-1.5.9-1.6.7s.4-.7,1.3-1.2A2.8,2.8,0,0,1,59,306.8Z"/><path class="cls-1" d="M58.5,309.6c-.1.1-.7-.2-1.5-.3s-1.5,0-1.6-.2a2,2,0,0,1,1.6-.4C58,308.9,58.6,309.4,58.5,309.6Z"/><path class="cls-1" d="M101.6,443.3a27.5,27.5,0,0,1-.9-2.9,38.1,38.1,0,0,0-2.7-6.6,35.1,35.1,0,0,0-3.9-6.1,19.7,19.7,0,0,1-1.8-2.4,10.4,10.4,0,0,1,2.1,2.1,32.6,32.6,0,0,1,6.7,12.9A10.5,10.5,0,0,1,101.6,443.3Z"/><path class="cls-1" d="M91.6,422.3a12.8,12.8,0,0,1,2.3,4.9,10.9,10.9,0,0,1-1.4-2.3A11.4,11.4,0,0,1,91.6,422.3Z"/><path class="cls-1" d="M90.4,423.4c.2-.1.9.6,1.7,1.4s1.6,1.5,1.5,1.7-1-.4-1.9-1.3S90.3,423.5,90.4,423.4Z"/><path class="cls-1" d="M89.6,425a5.7,5.7,0,0,1,2.2.7c1.1.5,2,1,1.9,1.2a5.2,5.2,0,0,1-2.1-.7C90.4,425.7,89.5,425.2,89.6,425Z"/><path class="cls-1" d="M89.5,427c0-.2.9-.3,2-.3a4.1,4.1,0,0,1,2,.3c0,.2-.9.3-2,.3A7,7,0,0,1,89.5,427Z"/><path class="cls-1" d="M91.7,433.3c0-.1.5-.3,1.4-.3a7.1,7.1,0,0,1,5.9,2.6c.6.6.8,1.1.7,1.1a13.8,13.8,0,0,0-3.6-2.6A13.2,13.2,0,0,0,91.7,433.3Z"/><path class="cls-1" d="M89.5,431.7c.1-.2,1,0,1.9.5s1.6,1.1,1.5,1.2a7.8,7.8,0,0,1-1.7-.7A6.7,6.7,0,0,1,89.5,431.7Z"/><path class="cls-1" d="M89,433.2a2.3,2.3,0,0,1,1.8-.4c1.1.1,1.9.5,1.8.6s-.8,0-1.8-.1S89,433.4,89,433.2Z"/><path class="cls-1" d="M89.4,435.3c-.1-.1.5-.6,1.3-1.2s1.4-.8,1.5-.7-.5.7-1.2,1.2S89.5,435.5,89.4,435.3Z"/><path class="cls-1" d="M91.6,435.8a2.7,2.7,0,0,1,.1-1.5c.3-.8.5-1.4.7-1.4a2.7,2.7,0,0,1-.1,1.5C92.1,435.2,91.8,435.8,91.6,435.8Z"/><path class="cls-1" d="M100.3,427.2a29.9,29.9,0,0,0-1,4.3,31.1,31.1,0,0,0,.3,4.3,7.4,7.4,0,0,1-.8-4.4A7.2,7.2,0,0,1,100.3,427.2Z"/><path class="cls-1" d="M98.2,424a4,4,0,0,1,1.1,1.9,3.6,3.6,0,0,1,.4,2.1,8.2,8.2,0,0,1-.9-1.9C98.4,425,98,424.1,98.2,424Z"/><path class="cls-1" d="M101.2,424c.2,0-.1.9-.4,1.9s-.5,1.9-.7,1.9a3.9,3.9,0,0,1,.2-2C100.6,424.7,101.1,423.9,101.2,424Z"/><path class="cls-1" d="M103.6,426.3l-1.5.9c-.9.4-1.5.8-1.7.7s.5-.7,1.4-1.2S103.6,426.1,103.6,426.3Z"/><path class="cls-1" d="M103.1,429c-.1.1-.7-.2-1.5-.3H100c0-.2.7-.5,1.6-.4S103.2,428.9,103.1,429Z"/><path class="cls-1" d="M109.9,325.2c-.1-.1.4-.6,1.2-1.2s1.5-.8,1.5-.7-.4.7-1.2,1.2S110,325.4,109.9,325.2Z"/><path class="cls-1" d="M112.1,325.6c-.2,0-.1-.7.1-1.4a3,3,0,0,1,.6-1.4,2.7,2.7,0,0,1-.1,1.5C112.5,325.1,112.2,325.7,112.1,325.6Z"/><path class="cls-1" d="M92.4,279.4c.1.1-.9.8-2.1,1.6a6.6,6.6,0,0,1-2.4,1.1c-.1-.1.9-.8,2.1-1.6A6.6,6.6,0,0,1,92.4,279.4Z"/><path class="cls-1" d="M82.9,278.2c.2,0,.1.9-.3,1.9s-1,1.7-1.1,1.6a6.2,6.2,0,0,1,.6-1.8C82.5,278.9,82.8,278.1,82.9,278.2Z"/><path class="cls-1" d="M81.3,277.7c.2,0,.6.7.6,1.8s-.3,2-.4,1.9,0-.8-.1-1.8A6.9,6.9,0,0,1,81.3,277.7Z"/><path class="cls-1" d="M79.3,278.4c.1-.1.7.4,1.3,1.1s1,1.4.9,1.5-.7-.4-1.3-1.1S79.2,278.5,79.3,278.4Z"/><path class="cls-1" d="M79.1,280.6a2.2,2.2,0,0,1,1.5,0c.7.2,1.4.4,1.3.5s-.6.2-1.4,0S79,280.8,79.1,280.6Z"/><path class="cls-1" d="M88.5,288.4a22,22,0,0,0-4.4-.5,21.4,21.4,0,0,0-4.3.7A8.7,8.7,0,0,1,88.5,288.4Z"/><path class="cls-1" d="M91.4,286c.1.1-.7.8-1.8,1.3s-2,.8-2.1.6.8-.6,1.9-1.1A6.1,6.1,0,0,1,91.4,286Z"/><path class="cls-1" d="M91.7,289c0,.2-.9,0-2-.2l-1.9-.5a3.8,3.8,0,0,1,2,0C90.9,288.5,91.8,288.9,91.7,289Z"/><path class="cls-1" d="M86.9,291.4c-.2-.1.1-.7.1-1.6s-.2-1.4,0-1.5.6.6.5,1.6S87,291.5,86.9,291.4Z"/><path class="cls-2" d="M68.2,295.9c-.1.1-.3,0-.4-.2a.3.3,0,0,1,0-.4.4.4,0,0,1,.4.2A.3.3,0,0,1,68.2,295.9Z"/><path class="cls-2" d="M72.9,297c-.1,0-.2-.3-.1-.7s.3-.5.4-.5.1.3.1.7S73,297,72.9,297Z"/><path class="cls-2" d="M77.5,296.8c-.1,0-.2-.2-.1-.4s.2-.3.3-.3.2.2.1.4S77.6,296.9,77.5,296.8Z"/><path class="cls-2" d="M70.3,301.2c-.2,0-.3-.1-.5-.4s-.1-.5,0-.6.3.1.5.4S70.4,301.1,70.3,301.2Z"/><path class="cls-2" d="M74.4,300.7c-.1,0-.2-.3,0-.5s.2-.3.4-.2.1.2,0,.4S74.5,300.8,74.4,300.7Z"/><path class="cls-2" d="M101.3,302.1c-.1,0-.3-.3-.4-.5s-.2-.5-.1-.6.4,0,.5.4S101.4,302.1,101.3,302.1Z"/><path class="cls-2" d="M104.4,302.6c-.1-.1,0-.4.2-.7s.4-.5.5-.4,0,.4-.1.7S104.5,302.7,104.4,302.6Z"/><path class="cls-2" d="M107.5,303.7c-.2,0-.1-.3,0-.5s.4-.4.5-.4a.5.5,0,0,1-.1.6C107.8,303.6,107.6,303.8,107.5,303.7Z"/><path class="cls-2" d="M101.3,307.2c-.1.1-.3,0-.4-.2s-.1-.5,0-.5.3.1.4.3S101.4,307.2,101.3,307.2Z"/><path class="cls-2" d="M104.5,306.9c-.1,0-.1-.2-.1-.4a.5.5,0,0,1,.4-.2c.1,0,.1.2.1.4S104.7,307,104.5,306.9Z"/><path class="cls-2" d="M96.1,300.8l-.2-.2h0a.2.2,0,0,1,.2-.2h0c.1,0,.2,0,.2.2A.2.2,0,0,1,96.1,300.8Z"/><path class="cls-2" d="M87.3,296.4c-.1,0-.2-.2-.3-.4s.1-.4.2-.4.3.2.3.4S87.4,296.4,87.3,296.4Z"/><path class="cls-2" d="M81.2,299.3c-.1,0-.2-.2-.1-.4s.2-.4.3-.4.2.3.1.5S81.3,299.4,81.2,299.3Z"/><path class="cls-2" d="M88.2,289c-.1,0-.2-.3-.1-.5s.2-.4.3-.3.2.2.1.4S88.3,289,88.2,289Z"/><path class="cls-3" d="M74.3,268.4c-6.9,13.2-56.6,94.4-57.7,98.9s-10.5,33,1,43.1l14.1,13.2,19-39.9c-.1,1.4,60.5-73.9,60.5-73.9l.9-65.9S82.7,252.5,74.3,268.4ZM50.7,383.2"/><path class="cls-1" d="M59.6,317.2a5.5,5.5,0,0,1,2.2.2,6,6,0,0,1,2.2.8,4.6,4.6,0,0,1-2.3-.3C60.5,317.7,59.6,317.4,59.6,317.2Z"/><path class="cls-1" d="M59.8,319.1a5.7,5.7,0,0,1,2-.6c1.1-.2,2-.3,2-.1a4.7,4.7,0,0,1-1.9.6C60.8,319.2,59.9,319.3,59.8,319.1Z"/><path class="cls-1" d="M60.9,323.7a3,3,0,0,1,1.9.1c1.1.4,1.8.8,1.7,1l-1.8-.4C61.7,324.1,60.8,323.9,60.9,323.7Z"/><path class="cls-1" d="M60.6,325.4c-.1-.2.6-.7,1.7-.8s2,.1,1.9.2-.8.2-1.8.3A6.9,6.9,0,0,1,60.6,325.4Z"/><path class="cls-1" d="M61.4,327.3c-.1-.1.4-.7,1-1.4s1.3-1.1,1.4-1-.3.7-1,1.4S61.5,327.4,61.4,327.3Z"/><path class="cls-1" d="M36.1,398c-.5-.9-1-1.8-1.4-2.7a48.1,48.1,0,0,0-4-6,48.9,48.9,0,0,0-5-5.2,21.1,21.1,0,0,1-2.3-1.9,10,10,0,0,1,2.4,1.6,31.5,31.5,0,0,1,9.1,11.4A11.8,11.8,0,0,1,36.1,398Z"/><path class="cls-1" d="M22.2,379.4a7,7,0,0,1,1.8,2,5.9,5.9,0,0,1,1.4,2.3,12.1,12.1,0,0,1-3.2-4.3Z"/><path class="cls-1" d="M21.2,380.7c.1-.1.9.4,1.9,1.1a9.6,9.6,0,0,1,1.8,1.2c-.1.2-1-.1-2.1-.8S21.1,380.8,21.2,380.7Z"/><path class="cls-1" d="M20.7,382.4a5.8,5.8,0,0,1,2.3.2c1.2.3,2.2.7,2.1.8a5.5,5.5,0,0,1-2.2-.2C21.6,382.9,20.7,382.6,20.7,382.4Z"/><path class="cls-1" d="M21,384.3c-.1-.2.8-.4,1.9-.6s2-.3,2-.1a4.7,4.7,0,0,1-1.9.6C21.9,384.4,21,384.5,21,384.3Z"/><path class="cls-1" d="M24.4,390.1c0-.1.5-.4,1.3-.6a7.1,7.1,0,0,1,6.3,1.3c.7.6,1,1,.9,1.1a12.3,12.3,0,0,0-4-1.9A11.4,11.4,0,0,0,24.4,390.1Z"/><path class="cls-1" d="M22,388.9a3.5,3.5,0,0,1,1.9.2c1.1.3,1.8.7,1.8.9a5.3,5.3,0,0,1-1.9-.4C22.8,389.3,22,389.1,22,388.9Z"/><path class="cls-1" d="M21.7,390.6a3.2,3.2,0,0,1,1.8-.8,3.1,3.1,0,0,1,1.9.3l-1.9.3A9.4,9.4,0,0,1,21.7,390.6Z"/><path class="cls-1" d="M22.6,392.6c-.1-.1.3-.8,1-1.4s1.2-1.2,1.3-1.1-.3.8-.9,1.4S22.7,392.7,22.6,392.6Z"/><path class="cls-1" d="M24.8,392.5c-.1.1-.2-.6-.2-1.4s.2-1.5.4-1.5a3.2,3.2,0,0,1,.2,1.5C25.1,391.9,25,392.5,24.8,392.5Z"/><path class="cls-1" d="M31.6,382.4a32.3,32.3,0,0,0-.1,4.4,29,29,0,0,0,1.2,4.2A8.6,8.6,0,0,1,31.6,382.4Z"/><path class="cls-1" d="M28.9,379.7a5.6,5.6,0,0,1,1.5,1.6,5,5,0,0,1,.8,2,6.2,6.2,0,0,1-1.3-1.7A6.5,6.5,0,0,1,28.9,379.7Z"/><path class="cls-1" d="M31.9,379.1a5.6,5.6,0,0,1,0,2,7,7,0,0,1-.3,2c-.2,0-.3-.9-.3-2.1S31.7,379.1,31.9,379.1Z"/><path class="cls-1" d="M34.7,380.9a14.6,14.6,0,0,1-1.4,1.2c-.7.6-1.3,1.1-1.4,1s.3-.8,1.1-1.5S34.6,380.7,34.7,380.9Z"/><path class="cls-1" d="M34.7,383.7a6.3,6.3,0,0,1-1.5,0,6.9,6.9,0,0,1-1.5.2c-.1-.2.5-.7,1.4-.7S34.8,383.5,34.7,383.7Z"/><path class="cls-1" d="M83.7,297.7l2.5-1.7a34.5,34.5,0,0,0,5.6-4.5,41.3,41.3,0,0,0,4.7-5.5l1.7-2.5a8.7,8.7,0,0,1-1.4,2.7,31.9,31.9,0,0,1-4.6,5.7,36,36,0,0,1-5.8,4.5A11.3,11.3,0,0,1,83.7,297.7Z"/><path class="cls-1" d="M99.5,281.3a5.9,5.9,0,0,1-.9,2c-.5,1-1,1.9-1.1,1.8s.1-1,.6-2.1S99.4,281.2,99.5,281.3Z"/><path class="cls-1" d="M97.7,281a4.1,4.1,0,0,1,0,2.2c-.2,1.3-.4,2.3-.6,2.2a8.1,8.1,0,0,1,0-2.2A5.1,5.1,0,0,1,97.7,281Z"/><path class="cls-1" d="M95.8,281.4c.2,0,.5.8.8,1.9a4.4,4.4,0,0,1,.3,1.9c-.1.1-.5-.7-.8-1.8S95.6,281.5,95.8,281.4Z"/><path class="cls-1" d="M90.5,285.4a2.7,2.7,0,0,1,.6,1.2,7.3,7.3,0,0,1-.7,6.4c-.5.7-.9,1.1-.9,1a15,15,0,0,0,1.5-4.2A13,13,0,0,0,90.5,285.4Z"/><path class="cls-1" d="M100.6,294.7c-.1.1-.6-.5-1.3-1.2s-1.3-1.2-1.2-1.3.8.1,1.6.9S100.7,294.6,100.6,294.7Z"/><path class="cls-1" d="M41,358.5l2.5-1.7a34.5,34.5,0,0,0,5.6-4.5,35.1,35.1,0,0,0,4.7-5.5c1.1-1.5,1.7-2.5,1.7-2.5a11.6,11.6,0,0,1-1.4,2.7,30.5,30.5,0,0,1-4.6,5.6,32.1,32.1,0,0,1-5.8,4.5A8.7,8.7,0,0,1,41,358.5Z"/><path class="cls-1" d="M58.2,342.9c.1.1-.7,1-1.7,2a8.9,8.9,0,0,1-2.2,1.6,14.1,14.1,0,0,1,4-3.7Z"/><path class="cls-1" d="M56.8,342a6.1,6.1,0,0,1-.8,2c-.6,1.1-1,2-1.2,1.9a4,4,0,0,1,.7-2.1A5.8,5.8,0,0,1,56.8,342Z"/><path class="cls-1" d="M55.1,341.7A6,6,0,0,1,55,344a4.2,4.2,0,0,1-.5,2.2,4.5,4.5,0,0,1,0-2.3C54.7,342.7,54.9,341.7,55.1,341.7Z"/><path class="cls-1" d="M53.2,342.2c.1-.1.5.7.8,1.8a4.9,4.9,0,0,1,.3,2c-.2,0-.5-.8-.8-1.8A4.9,4.9,0,0,1,53.2,342.2Z"/><path class="cls-1" d="M47.8,346.1c.1,0,.4.4.7,1.2a7.5,7.5,0,0,1,.4,3.3,8.8,8.8,0,0,1-1.2,3.2c-.4.7-.8,1-.9,1a15,15,0,0,0,1.5-4.2A13.8,13.8,0,0,0,47.8,346.1Z"/><path class="cls-1" d="M48.7,343.6a3.8,3.8,0,0,1,0,2,4,4,0,0,1-.7,1.8,5.2,5.2,0,0,1,.2-1.9C48.4,344.4,48.5,343.6,48.7,343.6Z"/><path class="cls-1" d="M47,343.5c.1-.1.7.6,1,1.6a3.2,3.2,0,0,1-.1,2c-.2-.1-.2-.9-.5-1.8A9.9,9.9,0,0,1,47,343.5Z"/><path class="cls-1" d="M45.1,344.5c.1-.1.8.3,1.5.9s1.3,1.1,1.2,1.2-.8-.2-1.5-.8S45,344.7,45.1,344.5Z"/><path class="cls-1" d="M45.4,346.8c-.1-.2.6-.3,1.4-.3s1.5,0,1.5.2-.6.3-1.5.3S45.4,346.9,45.4,346.8Z"/><path class="cls-1" d="M56.1,352.6a32.5,32.5,0,0,0-4.4.3,33.9,33.9,0,0,0-4.1,1.5A8.6,8.6,0,0,1,56.1,352.6Z"/><path class="cls-1" d="M58.5,349.6c.1.1-.5.9-1.4,1.6s-1.8,1.2-1.9,1,.6-.7,1.5-1.4S58.4,349.5,58.5,349.6Z"/><path class="cls-1" d="M59.4,352.5a4.7,4.7,0,0,1-1.9.2h-2c-.1-.2.8-.4,1.9-.4A3.1,3.1,0,0,1,59.4,352.5Z"/><path class="cls-1" d="M57.9,355.5c-.1.1-.6-.6-1.3-1.2s-1.3-1.2-1.2-1.4.8.2,1.6,1S58.1,355.4,57.9,355.5Z"/><path class="cls-1" d="M55.2,355.8c-.2-.1-.1-.8-.2-1.6s-.5-1.4-.3-1.5.7.5.8,1.4S55.3,355.9,55.2,355.8Z"/><path class="cls-4" d="M27,394a11.3,11.3,0,0,0-1.6,12.2c3.2,7.2,17.9,28.1,17.9,28.1S56,445.7,59.9,445.8s13.2-1.4,13.2-1.4.6-2.6-2.6-2.5-9.6-3.1-9.6-3.1l-9.1-8s12.3,6.5,16,6.9S85.1,436,85.1,436l3.3-11.4-4.4-6L74.8,416,59.5,405.6l-1-4.9,10.7,4.8s8.4,3.6,12.1-1.3l-9.3-5s-13.7-10-16.9-10.9-14.8-1.2-14.8-1.2Z"/><path class="cls-5" d="M86.2,430.7l-1.2.5-1.5.4a10.1,10.1,0,0,1-2,.4,23.2,23.2,0,0,1-5.3.5,30.7,30.7,0,0,1-12.6-2.7,33.5,33.5,0,0,1-4.5-2.7l-1.7-1.2-1.1-1-.9-1c.1-.1,1.4,1.3,3.9,2.9a28.5,28.5,0,0,0,4.5,2.5,33.5,33.5,0,0,0,6.1,2,33.9,33.9,0,0,0,6.4.7,30.8,30.8,0,0,0,5.2-.3C84.4,431.2,86.2,430.6,86.2,430.7Z"/><path class="cls-5" d="M87,427.3H82.1a35.7,35.7,0,0,1-11.7-2.2,24.6,24.6,0,0,1-5.6-3.4c-1.6-1.2-2.9-2.4-4.1-3.4s-2.2-1.7-2.9-2.1l-1.1-.8a3.4,3.4,0,0,1,1.2.6,22.3,22.3,0,0,1,3,2l4.2,3.3a28.4,28.4,0,0,0,5.6,3.3,34.1,34.1,0,0,0,11.4,2.3l3.6.2Z"/><path class="cls-5" d="M73.7,411.6a1.9,1.9,0,0,1,0,1.5,8.5,8.5,0,0,1-1.4,3.4,7.3,7.3,0,0,1-2.9,2.3,2.4,2.4,0,0,1-1.4.5,11.8,11.8,0,0,0,3.8-3.2A11.1,11.1,0,0,0,73.7,411.6Z"/><path class="cls-1" d="M421.9,463.4a31.5,31.5,0,0,0-4.2-.9,31.5,31.5,0,0,0-4.4.3A8.5,8.5,0,0,1,421.9,463.4Z"/><path class="cls-1" d="M412.4,461.2c1,.5,1.8,1,1.7,1.2a4.7,4.7,0,0,1-2-.8c-1-.5-1.7-1.2-1.6-1.3S411.4,460.6,412.4,461.2Z"/><path class="cls-1" d="M411.9,462.6a4.4,4.4,0,0,1,2,.1c0,.2-.9.3-1.9.5h-2C409.9,463.1,410.8,462.8,411.9,462.6Z"/><path class="cls-1" d="M412.6,464.3c.6-.9,1.3-1.3,1.4-1.2s-.4.7-1,1.5-.9,1.4-1.1,1.4A2.6,2.6,0,0,1,412.6,464.3Z"/><path class="cls-1" d="M414.1,464.3c0-1,.5-1.6.6-1.5s0,.7-.1,1.5a13.6,13.6,0,0,1,.1,1.6A2,2,0,0,1,414.1,464.3Z"/><path class="cls-1" d="M476.2,466.1a7.2,7.2,0,0,1,4.2,1.5,29.8,29.8,0,0,0-4.3-.9l-4.4.3A7.1,7.1,0,0,1,476.2,466.1Z"/><path class="cls-1" d="M470.9,465.3c1,.6,1.8,1.1,1.7,1.2s-1-.1-2-.7-1.8-1.2-1.7-1.4A7.9,7.9,0,0,1,470.9,465.3Z"/><path class="cls-1" d="M470.4,466.8c1.1-.1,2-.1,2,.1s-.9.3-2,.5-2,.2-2,0A4,4,0,0,1,470.4,466.8Z"/><path class="cls-1" d="M471.1,468.4c.6-.8,1.3-1.3,1.4-1.1s-.4.7-1,1.4a14.1,14.1,0,0,1-1.1,1.5C470.2,470.1,470.4,469.3,471.1,468.4Z"/><path class="cls-1" d="M472.6,468.5a2,2,0,0,1,.6-1.6c.2.1,0,.8-.1,1.6a13.6,13.6,0,0,1,.1,1.5C473,470.1,472.6,469.5,472.6,468.5Z"/><path class="cls-6" d="M397.8,157.8c-2.2,3.9-.1,9.1,3.3,11.8s8,3.9,12.3,5.1,8.7,2.7,11.6,6.1c5.5,6.2,3,14,8.2,21.8,2.8,4.2,6.2,7.1,12.3,7s5.6,1.3,7.4,7.2-1,9.7-4.4,14.6-5.7,10-4.8,15.8,7.3,5.3,7.6,9.6c.4,6.7-4.3,16.7-1.1,22.6s15.2,5.2,19,10.8c1.4,2,1.9,4.9,4.2,5.8a6.1,6.1,0,0,0,4.2-.3l21.2-6.1-.9-6.4a13.6,13.6,0,0,0,19.1,2.3,14.2,14.2,0,0,0,2.9-3.1,56.4,56.4,0,0,1-10.6-10.1,20.9,20.9,0,0,1-4.6-13.6c.5-5.9,4.4-11.5,3.3-17.4-1.6-8.3-12.1-11.6-16.2-19.1s-1.1-16.1-4.9-23S471,189.5,465.6,182c-3.6-5.1-3.8-11.8-6.2-17.6s-8.9-12.1-15.7-15.3a67.6,67.6,0,0,0-21.7-5.2c-5.6-.6-11.4-.8-16.6,1.3s-9.6,7.3-9.1,12.8"/><path class="cls-3" d="M255.3,299.3,249,281.8l-24.2-15.6-45.3-18-68.5-4-30.8,142s-13,83.2-14.3,93.8H226.5l6.8-52.7,12.3-78.2Z"/><path class="cls-7" d="M298,185.8c5.6-4,7.3-12.3,4.9-18.8s-8.3-11.3-14.6-14.1-13.3-4-20.1-5.1A22.1,22.1,0,0,0,242,130.6a22.5,22.5,0,0,0-12.1,6.9,14,14,0,0,0-24,6.4l20,26.1-4.2,68.5c3.6,12.5,17.4,21.2,30.2,19.2s23.3-14.5,23-27.6a20.9,20.9,0,0,0,7.2-2.3,23.9,23.9,0,0,0,17.2-6.3C309,212.2,308.3,194.4,298,185.8Z"/><path class="cls-4" d="M212.7,278.7c3.7-9.2,6.2-15.5,6.2-15.4s19.2,4,32.2-18.1c6.4-11,13.3-30.4,18.4-46.5,4.6-14.5,2-35.5-12.6-39.5l-48.4-6c-4.4-1.3-7.3,1.8-8.9,6.1l-1.2,1.9-24.2,68.3L163,259.8a26.4,26.4,0,0,0,13.8,33.1h0A26.7,26.7,0,0,0,212.2,280C212.4,279.6,212.5,279.2,212.7,278.7Z"/><path class="cls-6" d="M254,211.6a3.3,3.3,0,0,1-4.1,1.9,3.1,3.1,0,0,1-2.1-3.9h0a3.3,3.3,0,0,1,4.1-1.9A3.2,3.2,0,0,1,254,211.6Z"/><path class="cls-6" d="M261.1,207.7c-.6.2-2.2-2.4-5.4-3.6s-6.3-.6-6.5-1.1.5-.8,1.9-1.1a8,8,0,0,1,5.3.4,8.6,8.6,0,0,1,4.2,3.3C261.3,206.7,261.4,207.5,261.1,207.7Z"/><path class="cls-6" d="M221.5,200.3a3.2,3.2,0,1,1-2-3.9,3.1,3.1,0,0,1,2.1,3.8A.1.1,0,0,1,221.5,200.3Z"/><path class="cls-6" d="M229,196.4c-.6.2-2.1-2.4-5.4-3.6s-6.3-.6-6.5-1.1.5-.8,1.9-1.2a9.6,9.6,0,0,1,5.3.4,9.4,9.4,0,0,1,4.2,3.4C229.2,195.4,229.2,196.3,229,196.4Z"/><path class="cls-6" d="M231.6,223.9c.1-.2,2.3.3,5.7,1.1.9.2,1.7.4,2.1-.1a4.3,4.3,0,0,0,.4-2.7v-7.3c.1-10.3.5-18.7.9-18.7s.7,8.4.6,18.7c0,2.6-.1,5-.1,7.3a5.7,5.7,0,0,1-.8,3.4,2.3,2.3,0,0,1-1.9.7L237,226C233.6,224.9,231.6,224.1,231.6,223.9Z"/><path class="cls-5" d="M218.9,263.3a63.5,63.5,0,0,1-28.3-20.7s1.5,19.7,25.9,26.7Z"/><path class="cls-6" d="M233.2,186.3c-.7.7-3.7-1.1-7.7-2.3s-7.3-1.5-7.5-2.5.8-1.1,2.4-1.4a13.9,13.9,0,0,1,11.6,3.7C233.1,184.9,233.5,185.9,233.2,186.3Z"/><path class="cls-6" d="M263.8,199.1c-1,.5-3.3-1.3-6.5-2.6s-6.1-1.8-6.4-2.8.6-1.1,2-1.3a11.4,11.4,0,0,1,5.8.8,11.6,11.6,0,0,1,4.6,3.6C264.2,198,264.2,198.9,263.8,199.1Z"/><path class="cls-7" d="M226.6,145.2a17.3,17.3,0,0,0,9.7,22.5,15.8,15.8,0,0,0,3.1.9c3.8.8,8.5.5,10.8,3.6s.7,8.3,2.6,12c2.8,5.3,10.7,4.4,15.4,8.1s4.6,7.7,6,12,4.2,9,8.8,9.4a50.4,50.4,0,0,0,2.6-11.5,17.1,17.1,0,0,0-2.7-11.2c-1.2-1.8-2.9-3.2-4-5.1-2.3-4.1-1.2-9.1-1.8-13.7a19.1,19.1,0,0,0-10-14.2c-4.4-2.3-9.7-2.8-13.8-5.7s-5.1-5.5-8.2-7.4c-6.1-3.9-14.1-1.6-20.7,1.3"/><path class="cls-7" d="M243.9,162.9c-2.6-2-7.9-6.3-8.4-9.5-1.3-6.9-5.9-13.1-12.2-15.2a16.1,16.1,0,0,0-18,6.5,23.2,23.2,0,0,0-23.1,4.7,26.5,26.5,0,0,0-8.4,23.3,50,50,0,0,1,.1,6.7,36.6,36.6,0,0,0-6.8,2.9c-10.7,6.9-1.2,18.4-1.2,18.4-4.2,6.6,1.8,10.5,5.7,13s-.7,14.2,2.5,15.8l17.8-33.9a3.4,3.4,0,0,0,1.2,1.2c7.2,4.9,14.3-10.1,14.3-15.3a45.7,45.7,0,0,0,11.2-5.2c3.5-2.4,8.9-10.5,10-14.6C231.4,163,245.1,163.8,243.9,162.9Z"/><path class="cls-4" d="M191.9,198c1.7-5.1-2.4-10.6-7.8-9.8-2.9.5-5.8,2.5-7.7,8-4.9,14.4,10.6,16.4,10.7,16Z"/><path class="cls-5" d="M184.6,205.2h-.8a2.2,2.2,0,0,1-1.9-.6c-1.3-1-1.8-3.9-.9-6.5a8.8,8.8,0,0,1,1.9-3.4,3.3,3.3,0,0,1,2.6-1.3,1.5,1.5,0,0,1,1.2,1.2,1.1,1.1,0,0,1-.1.8c.1.1.4-.1.5-.8a1.2,1.2,0,0,0-.2-1,2.4,2.4,0,0,0-1.3-.9,4,4,0,0,0-3.4,1.4,8.7,8.7,0,0,0-2.2,3.7c-1,2.9-.4,6.2,1.5,7.5a2.9,2.9,0,0,0,2.4.4C184.5,205.6,184.7,205.3,184.6,205.2Z"/><path class="cls-8" d="M269.7,224.1a31.7,31.7,0,0,0,4.5-1,21.7,21.7,0,0,0,14.1-14.7,18.8,18.8,0,0,0,.1-9.7,21.6,21.6,0,0,0-15.4-15l-2.1-.4h-3.2l.5-.9a6.9,6.9,0,0,0,1.1-5,12.2,12.2,0,0,0-1.9-4.9,15.7,15.7,0,0,0-7.9-6c-6.1-2.2-12.2-2.8-16.7-5s-7.4-5.6-8.4-8.2a8.7,8.7,0,0,1-.6-3.2,4.1,4.1,0,0,1,.1-1.1,14.3,14.3,0,0,0,.9,4.1c1.1,2.5,3.9,5.6,8.3,7.6a36.1,36.1,0,0,0,7.7,2.4,67.5,67.5,0,0,1,9.1,2.4,20.8,20.8,0,0,1,4.7,2.4,16,16,0,0,1,3.8,4,12.8,12.8,0,0,1,2.1,5.3,8.1,8.1,0,0,1-1.3,5.9l-.5-.9H271l2.2.4a22.8,22.8,0,0,1,16.3,15.9,20,20,0,0,1-.2,10.3,22.2,22.2,0,0,1-4.3,7.8,21.4,21.4,0,0,1-10.7,7,18.6,18.6,0,0,1-3.4.6Z"/><path class="cls-8" d="M295.6,179a17.8,17.8,0,0,0-3.1-4,12.6,12.6,0,0,0-5.1-2.7,11.1,11.1,0,0,0-7.2.4l-.9.4.2-1a17.3,17.3,0,0,0-6-16.4c-3.9-3.2-9-3.8-13.4-4.1s-8.6-.3-12-1.2a16.7,16.7,0,0,1-7.3-3.6l-1.5-1.7c-.2-.4-.4-.7-.3-.7a22.5,22.5,0,0,0,2.1,2,17.4,17.4,0,0,0,7.2,3.2c3.2.8,7.3.8,11.8.9a41.8,41.8,0,0,1,7.1.9,17.6,17.6,0,0,1,7,3.4c5.6,4.6,7.7,12,6.3,17.5l-.7-.6a12.3,12.3,0,0,1,7.8-.2,11.5,11.5,0,0,1,5.2,3.1,8.7,8.7,0,0,1,2.3,3.1A5,5,0,0,1,295.6,179Z"/><path class="cls-7" d="M226,229.2a5.1,5.1,0,0,0-2.7-3.2,5.8,5.8,0,0,0-4.8.3h-.2a2.5,2.5,0,0,0-1.3,1.2,3.9,3.9,0,0,0,.3,3.9,5.3,5.3,0,0,0,5.5,2.5A4.2,4.2,0,0,0,226,229.2Z"/><path class="cls-6" d="M219.4,223.1c.2,0,0,.9.1,2.1a8,8,0,0,0,5.4,7.4c1.2.5,2,.5,2,.7s-.8.5-2.2.2a7.6,7.6,0,0,1-6.2-8.3C218.7,223.8,219.2,223,219.4,223.1Z"/><path class="cls-6" d="M183,212.2c.2,0,0,1.4-1.7,2.3a4.8,4.8,0,0,1-3.3.6,4.9,4.9,0,0,1-3.4-5.8l.3-.9a4.5,4.5,0,0,1,2.6-2.1c1.8-.7,2.9,0,2.9.1a6.9,6.9,0,0,0-2.6.6,4.4,4.4,0,0,0-1.9,1.9,3.8,3.8,0,0,0,2.1,5h.3a3.9,3.9,0,0,0,2.6-.2A6.5,6.5,0,0,0,183,212.2Z"/><path class="cls-1" d="M163.3,341.2a14,14,0,0,1-.9-2.9,42.7,42.7,0,0,0-2.7-6.7,38.5,38.5,0,0,0-3.9-6l-1.9-2.4a10.4,10.4,0,0,1,2.1,2.1,31,31,0,0,1,4.1,6.1,26.6,26.6,0,0,1,2.6,6.8A15.9,15.9,0,0,1,163.3,341.2Z"/><path class="cls-1" d="M153.3,320.2a12.6,12.6,0,0,1,2.3,4.8A11.9,11.9,0,0,1,153.3,320.2Z"/><path class="cls-1" d="M152.1,321.3c.1-.1.8.6,1.7,1.4s1.5,1.5,1.4,1.6-.9-.3-1.8-1.2S152,321.4,152.1,321.3Z"/><path class="cls-1" d="M151.3,322.9a6.3,6.3,0,0,1,2.2.7c1.1.5,2,1,1.9,1.1a5.4,5.4,0,0,1-2.2-.6C152.1,323.6,151.2,323,151.3,322.9Z"/><path class="cls-1" d="M151.2,324.8a5.4,5.4,0,0,1,2-.2,4.4,4.4,0,0,1,2,.3c0,.2-.9.3-2,.2S151.2,325,151.2,324.8Z"/><path class="cls-1" d="M153.4,331.1a3.2,3.2,0,0,1,1.4-.3,7.5,7.5,0,0,1,5.9,2.6c.6.7.8,1.2.7,1.2a12.2,12.2,0,0,0-3.6-2.7A16.3,16.3,0,0,0,153.4,331.1Z"/><path class="cls-1" d="M151.3,329.6c0-.2.9,0,1.8.5a4.1,4.1,0,0,1,1.6,1.2,6.2,6.2,0,0,1-1.8-.7C152,330.1,151.2,329.7,151.3,329.6Z"/><path class="cls-1" d="M150.7,331.1a2.6,2.6,0,0,1,1.9-.4,2.6,2.6,0,0,1,1.8.6c-.1.2-.9,0-1.9-.1Z"/><path class="cls-1" d="M151.1,333.2c-.1-.1.5-.7,1.2-1.2s1.5-.8,1.6-.7-.5.6-1.3,1.2S151.2,333.3,151.1,333.2Z"/><path class="cls-1" d="M153.3,333.6a2.6,2.6,0,0,1,.1-1.5,3,3,0,0,1,.6-1.3c.2,0,.1.7-.1,1.5S153.5,333.7,153.3,333.6Z"/><path class="cls-1" d="M162,325.1a14.8,14.8,0,0,0-.7,8.6A8.3,8.3,0,0,1,162,325.1Z"/><path class="cls-1" d="M159.8,321.9c.2-.1.7.7,1.2,1.8a4.5,4.5,0,0,1,.4,2.1,6.2,6.2,0,0,1-.9-1.9A4.9,4.9,0,0,1,159.8,321.9Z"/><path class="cls-1" d="M162.9,321.8a5.7,5.7,0,0,1-.4,2,7.5,7.5,0,0,1-.7,1.9c-.2-.1-.1-1,.2-2S162.7,321.8,162.9,321.8Z"/><path class="cls-1" d="M165.3,324.2a6.8,6.8,0,0,1-1.6.8c-.8.5-1.5.9-1.6.8s.4-.8,1.4-1.2S165.3,324,165.3,324.2Z"/><path class="cls-1" d="M164.8,326.9c-.1.1-.7-.2-1.5-.3h-1.6c0-.2.7-.6,1.6-.4S164.9,326.8,164.8,326.9Z"/><path class="cls-1" d="M149.1,281.2c-.1,0-.3-1.1-.9-2.9a38.1,38.1,0,0,0-2.7-6.6,35.1,35.1,0,0,0-3.9-6.1,19.7,19.7,0,0,1-1.8-2.4,10.4,10.4,0,0,1,2.1,2.1,33.9,33.9,0,0,1,6.7,12.9A15.7,15.7,0,0,1,149.1,281.2Z"/><path class="cls-1" d="M139.1,260.2a7.9,7.9,0,0,1,1.4,2.3,6.2,6.2,0,0,1,.9,2.6,7.9,7.9,0,0,1-1.4-2.3A11.4,11.4,0,0,1,139.1,260.2Z"/><path class="cls-1" d="M137.9,261.3c.2-.1.9.6,1.7,1.4s1.6,1.5,1.5,1.7-1-.4-1.9-1.3S137.8,261.5,137.9,261.3Z"/><path class="cls-1" d="M137.1,262.9a5.7,5.7,0,0,1,2.2.7c1.1.5,2,1.1,1.9,1.2a5.2,5.2,0,0,1-2.1-.7C137.9,263.6,137.1,263.1,137.1,262.9Z"/><path class="cls-1" d="M137,264.9c0-.2.9-.3,2-.3a4.4,4.4,0,0,1,2,.3c0,.2-.9.3-2,.3A4.4,4.4,0,0,1,137,264.9Z"/><path class="cls-1" d="M139.3,271.2c0-.1.4-.3,1.3-.3a7.2,7.2,0,0,1,5.9,2.5c.6.7.8,1.2.7,1.2a10.4,10.4,0,0,0-3.6-2.6A10.9,10.9,0,0,0,139.3,271.2Z"/><path class="cls-1" d="M137.1,269.6c0-.2.9,0,1.9.5s1.6,1.1,1.5,1.2a4,4,0,0,1-1.8-.7C137.8,270.1,137,269.7,137.1,269.6Z"/><path class="cls-1" d="M136.5,271.1c-.1-.1.7-.5,1.8-.4s1.9.5,1.8.6-.8,0-1.8-.1S136.5,271.3,136.5,271.1Z"/><path class="cls-1" d="M137,273.2c-.1-.1.4-.6,1.2-1.2s1.5-.8,1.6-.7a3.7,3.7,0,0,1-1.3,1.2C137.8,273,137,273.4,137,273.2Z"/><path class="cls-1" d="M139.1,273.7a2.6,2.6,0,0,1,.1-1.5c.3-.8.5-1.4.7-1.4a2.7,2.7,0,0,1-.1,1.5C139.6,273.1,139.3,273.7,139.1,273.7Z"/><path class="cls-1" d="M147.8,265.1a29.9,29.9,0,0,0-1,4.3,31.1,31.1,0,0,0,.3,4.3A8.6,8.6,0,0,1,147.8,265.1Z"/><path class="cls-1" d="M145.7,261.9a4.8,4.8,0,0,1,1.1,1.9c.4,1.1.6,2.1.4,2.1a8.2,8.2,0,0,1-.9-1.9C145.9,262.9,145.5,262,145.7,261.9Z"/><path class="cls-1" d="M148.7,261.9c.2,0-.1.9-.4,1.9s-.5,1.9-.7,1.9a3.9,3.9,0,0,1,.2-2C148.1,262.6,148.6,261.8,148.7,261.9Z"/><path class="cls-1" d="M151.1,264.2a12.7,12.7,0,0,1-1.5.9c-.9.4-1.5.9-1.7.7s.5-.7,1.4-1.2S151.1,264,151.1,264.2Z"/><path class="cls-1" d="M150.6,266.9c-.1.1-.7-.2-1.5-.3h-1.6a2,2,0,0,1,1.6-.4C150.1,266.2,150.7,266.8,150.6,266.9Z"/><path class="cls-1" d="M122,333.2l-.9-2.9a36.7,36.7,0,0,0-6.6-12.7l-1.8-2.4a10.4,10.4,0,0,1,2.1,2.1,32.6,32.6,0,0,1,6.7,12.9A10.5,10.5,0,0,1,122,333.2Z"/><path class="cls-1" d="M112.1,312.2a7.9,7.9,0,0,1,1.4,2.3,12.5,12.5,0,0,1,.9,2.5,5.2,5.2,0,0,1-1.4-2.2A6.2,6.2,0,0,1,112.1,312.2Z"/><path class="cls-1" d="M110.9,313.3c.1-.1.8.6,1.6,1.4s1.6,1.5,1.5,1.7-1-.4-1.8-1.3S110.8,313.4,110.9,313.3Z"/><path class="cls-1" d="M110,314.9a5.2,5.2,0,0,1,2.2.7c1.2.5,2,1,2,1.2a5.7,5.7,0,0,1-2.2-.7C110.9,315.6,110,315.1,110,314.9Z"/><path class="cls-1" d="M109.9,316.9c0-.2.9-.3,2-.3a4.4,4.4,0,0,1,2,.3c0,.2-.9.3-2,.3A7,7,0,0,1,109.9,316.9Z"/><path class="cls-1" d="M112.2,323.2c0-.1.5-.3,1.3-.4a7.5,7.5,0,0,1,3.3.7,8.3,8.3,0,0,1,2.7,1.9,6.4,6.4,0,0,1,.7,1.2,12.7,12.7,0,0,0-3.6-2.6A11.1,11.1,0,0,0,112.2,323.2Z"/><path class="cls-1" d="M110,321.5a3,3,0,0,1,1.9.6c1,.5,1.6,1.1,1.5,1.2s-.8-.3-1.7-.8S110,321.7,110,321.5Z"/><path class="cls-1" d="M109.4,323.1a2.6,2.6,0,0,1,1.9-.4,3.3,3.3,0,0,1,1.8.6c-.1.2-.9,0-1.9-.1S109.4,323.3,109.4,323.1Z"/><path class="cls-1" d="M120.7,317.1a31.5,31.5,0,0,0-.9,4.2,34,34,0,0,0,.3,4.5,6.4,6.4,0,0,1-.8-4.5A7.1,7.1,0,0,1,120.7,317.1Z"/><path class="cls-1" d="M118.6,313.9a7.5,7.5,0,0,1,1.6,4c-.2,0-.6-.9-1-1.9A6.7,6.7,0,0,1,118.6,313.9Z"/><path class="cls-1" d="M121.6,313.9c.2,0,0,.9-.3,1.9s-.6,1.9-.8,1.9a3.9,3.9,0,0,1,.2-2C121.1,314.6,121.5,313.8,121.6,313.9Z"/><path class="cls-1" d="M124.1,316.2c0,.1-.8.4-1.6.9s-1.5.8-1.6.7.4-.8,1.3-1.2S124,316,124.1,316.2Z"/><path class="cls-1" d="M123.5,318.9c-.1.1-.7-.2-1.5-.3a11.9,11.9,0,0,1-1.5-.1c-.1-.2.6-.5,1.6-.4S123.6,318.8,123.5,318.9Z"/><path class="cls-1" d="M195.9,320.7l2.8-1.1a43.1,43.1,0,0,0,6.4-3.3,40.9,40.9,0,0,0,5.6-4.5,21.8,21.8,0,0,1,2.2-2.1A13.7,13.7,0,0,1,211,312a35.8,35.8,0,0,1-5.6,4.7,33.5,33.5,0,0,1-6.6,3.2A9.6,9.6,0,0,1,195.9,320.7Z"/><path class="cls-1" d="M215.8,308.8c.1.2-.9.9-2.1,1.6a5.5,5.5,0,0,1-2.4,1.2c-.1-.2.9-.9,2.1-1.6A5.5,5.5,0,0,1,215.8,308.8Z"/><path class="cls-1" d="M214.6,307.7c.1.2-.5.9-1.2,1.8s-1.4,1.7-1.5,1.6a4.5,4.5,0,0,1,1-1.9C213.7,308.2,214.5,307.6,214.6,307.7Z"/><path class="cls-1" d="M212.9,307.1a4.3,4.3,0,0,1-.4,2.2c-.4,1.2-.8,2.1-1,2.1a4.6,4.6,0,0,1,.5-2.3C212.4,307.9,212.8,307,212.9,307.1Z"/><path class="cls-1" d="M211,307.1c.2,0,.4.9.4,2a4.4,4.4,0,0,1-.1,2,4.6,4.6,0,0,1-.4-1.9A4.8,4.8,0,0,1,211,307.1Z"/><path class="cls-1" d="M205,309.9a3.7,3.7,0,0,1,.4,1.4,7.3,7.3,0,0,1-2,6.1c-.6.6-1.1.9-1.1.8a10.1,10.1,0,0,0,2.7-8.3Z"/><path class="cls-1" d="M206.3,307.7c.2,0,.1.9-.3,1.9s-1,1.7-1.1,1.6.2-.8.6-1.8S206.2,307.6,206.3,307.7Z"/><path class="cls-1" d="M204.7,307.2c.2-.1.6.7.6,1.8a2.6,2.6,0,0,1-.4,1.9c-.2-.1,0-.9-.1-1.9A6.2,6.2,0,0,1,204.7,307.2Z"/><path class="cls-1" d="M202.7,307.8c.1-.1.7.4,1.3,1.1s1,1.4.9,1.5-.7-.4-1.3-1.2S202.6,308,202.7,307.8Z"/><path class="cls-1" d="M202.5,310.1a1.9,1.9,0,0,1,1.4,0c.8.2,1.5.3,1.4.5s-.6.2-1.4,0S202.4,310.2,202.5,310.1Z"/><path class="cls-1" d="M211.8,317.9a21,21,0,0,0-4.3-.5,22.4,22.4,0,0,0-4.4.7A8.7,8.7,0,0,1,211.8,317.9Z"/><path class="cls-1" d="M214.8,315.5a5.8,5.8,0,0,1-1.8,1.3c-1,.5-2,.8-2.1.6s.8-.6,1.8-1.1A7.1,7.1,0,0,1,214.8,315.5Z"/><path class="cls-1" d="M215.1,318.5c0,.2-.9,0-2-.2l-1.9-.5c0-.2.9-.2,2,0S215.2,318.4,215.1,318.5Z"/><path class="cls-1" d="M213,321.1c-.1.1-.5-.6-1-1.4s-1.1-1.5-.9-1.6.8.4,1.4,1.3S213.2,321.1,213,321.1Z"/><path class="cls-1" d="M210.3,320.9c-.2-.1.1-.8.1-1.6s-.2-1.4,0-1.5.6.6.5,1.5A2,2,0,0,1,210.3,320.9Z"/><path class="cls-1" d="M155.8,426.2l2.8-1.2a38.7,38.7,0,0,0,6.4-3.3,40.2,40.2,0,0,0,5.7-4.5l2.2-2.1a11.6,11.6,0,0,1-2,2.4,31.2,31.2,0,0,1-5.6,4.6,33.5,33.5,0,0,1-6.6,3.2A14,14,0,0,1,155.8,426.2Z"/><path class="cls-1" d="M175.8,414.2a6,6,0,0,1-2.2,1.6,5.5,5.5,0,0,1-2.4,1.2c-.1-.1.9-.9,2.1-1.6A8.2,8.2,0,0,1,175.8,414.2Z"/><path class="cls-1" d="M174.5,413.2c.2.1-.5.8-1.2,1.8s-1.3,1.6-1.5,1.6a4.2,4.2,0,0,1,1.1-2C173.7,413.7,174.4,413.1,174.5,413.2Z"/><path class="cls-1" d="M172.9,412.5a4.2,4.2,0,0,1-.5,2.2,7.5,7.5,0,0,1-.9,2.1,4,4,0,0,1,.4-2.2C172.3,413.4,172.7,412.5,172.9,412.5Z"/><path class="cls-1" d="M170.9,412.6c.2,0,.4.8.5,1.9a5.3,5.3,0,0,1-.1,2.1,4.6,4.6,0,0,1-.5-2A4.4,4.4,0,0,1,170.9,412.6Z"/><path class="cls-1" d="M164.9,415.4c.1,0,.3.4.4,1.3a7.3,7.3,0,0,1-2,6.1c-.6.6-1,.9-1.1.8a11.4,11.4,0,0,0,2.3-3.8A12.9,12.9,0,0,0,164.9,415.4Z"/><path class="cls-1" d="M166.3,413.1a3.7,3.7,0,0,1-.4,1.9c-.4,1-.9,1.7-1,1.6a6.2,6.2,0,0,1,.6-1.8C165.8,413.9,166.1,413.1,166.3,413.1Z"/><path class="cls-1" d="M164.7,412.6a3.3,3.3,0,0,1,.6,1.8c0,1.1-.4,2-.5,1.9a16.2,16.2,0,0,1-.1-1.8C164.6,413.5,164.5,412.7,164.7,412.6Z"/><path class="cls-1" d="M162.6,413.3c.1-.1.7.4,1.3,1.1s1,1.3.9,1.4-.7-.4-1.3-1.1S162.5,413.4,162.6,413.3Z"/><path class="cls-1" d="M162.4,415.5a3.2,3.2,0,0,1,1.5,0,3.6,3.6,0,0,1,1.4.5c-.1.2-.7.2-1.5,0S162.4,415.7,162.4,415.5Z"/><path class="cls-1" d="M171.8,423.3a22,22,0,0,0-4.4-.5,20.3,20.3,0,0,0-4.3.7,7.3,7.3,0,0,1,4.3-1.3A7.6,7.6,0,0,1,171.8,423.3Z"/><path class="cls-1" d="M174.7,420.9c.1.1-.7.8-1.7,1.3s-2,.8-2.1.6.8-.6,1.8-1.1A6.1,6.1,0,0,1,174.7,420.9Z"/><path class="cls-1" d="M175.1,423.9c0,.2-1,0-2-.1s-2-.4-2-.6,1-.2,2.1,0A4.1,4.1,0,0,1,175.1,423.9Z"/><path class="cls-1" d="M173,426.5c-.2.1-.5-.6-1.1-1.4s-1-1.4-.9-1.5.8.3,1.4,1.2S173.1,426.5,173,426.5Z"/><path class="cls-1" d="M170.2,426.3a12.4,12.4,0,0,1,.1-1.5,7.4,7.4,0,0,1,0-1.6c.2,0,.6.6.6,1.6S170.3,426.4,170.2,426.3Z"/><path class="cls-1" d="M187.6,458.7l2.7-1.2a38.7,38.7,0,0,0,6.4-3.3,40.2,40.2,0,0,0,5.7-4.5l2.2-2.1a11.6,11.6,0,0,1-2,2.4,31.2,31.2,0,0,1-5.6,4.6,33.1,33.1,0,0,1-6.5,3.3A15.7,15.7,0,0,1,187.6,458.7Z"/><path class="cls-1" d="M207.5,446.8a11.6,11.6,0,0,1-2.1,1.6,8,8,0,0,1-2.5,1.1,13.3,13.3,0,0,1,4.6-2.7Z"/><path class="cls-1" d="M206.3,445.7c.1.1-.6.9-1.3,1.8s-1.3,1.7-1.5,1.6a4.2,4.2,0,0,1,1.1-2C205.4,446.2,206.1,445.6,206.3,445.7Z"/><path class="cls-1" d="M204.6,445a4.6,4.6,0,0,1-.5,2.3c-.4,1.1-.8,2.1-.9,2a4.1,4.1,0,0,1,.4-2.2C204,445.9,204.4,445,204.6,445Z"/><path class="cls-1" d="M202.7,445.1a5.5,5.5,0,0,1,.4,2,4.4,4.4,0,0,1-.1,2c-.2,0-.4-.9-.5-2S202.5,445.1,202.7,445.1Z"/><path class="cls-1" d="M196.6,447.9c.1,0,.3.5.4,1.3a7.4,7.4,0,0,1-2,6.2c-.6.6-1,.9-1.1.8A9.7,9.7,0,0,0,196.6,447.9Z"/><path class="cls-1" d="M198,445.6a3.7,3.7,0,0,1-.4,1.9,4.5,4.5,0,0,1-1,1.7,5.6,5.6,0,0,1,.6-1.9C197.6,446.4,197.8,445.6,198,445.6Z"/><path class="cls-1" d="M196.4,445.1a3.5,3.5,0,0,1,.6,1.9c0,1.1-.4,1.9-.5,1.8a16.2,16.2,0,0,1-.1-1.8C196.4,446,196.2,445.2,196.4,445.1Z"/><path class="cls-1" d="M194.3,445.8c.1-.1.7.4,1.3,1.1s1,1.4.9,1.5-.7-.4-1.3-1.1S194.2,445.9,194.3,445.8Z"/><path class="cls-1" d="M194.1,448a3.2,3.2,0,0,1,1.5,0,3.6,3.6,0,0,1,1.4.5c0,.2-.7.2-1.5,0S194.1,448.2,194.1,448Z"/><path class="cls-1" d="M203.5,455.9a33.2,33.2,0,0,0-4.4-.6,32.1,32.1,0,0,0-4.3.7A8.5,8.5,0,0,1,203.5,455.9Z"/><path class="cls-1" d="M206.4,453.5c.1.1-.7.7-1.7,1.2a4,4,0,0,1-2.1.7c0-.2.8-.6,1.8-1.1S206.3,453.3,206.4,453.5Z"/><path class="cls-1" d="M206.8,456.5a5.7,5.7,0,0,1-2-.2c-1.1-.2-2-.4-2-.6a4.3,4.3,0,0,1,2.1,0C206,456,206.8,456.3,206.8,456.5Z"/><path class="cls-1" d="M204.7,459.1c-.2,0-.5-.7-1.1-1.5s-1-1.4-.9-1.5.8.3,1.4,1.2A2.6,2.6,0,0,1,204.7,459.1Z"/><path class="cls-1" d="M201.9,458.8a12.4,12.4,0,0,1,.1-1.5c.1-.8-.1-1.5,0-1.6s.6.6.6,1.6S202,458.9,201.9,458.8Z"/><path class="cls-1" d="M128.9,459.9l2.8-1.1a39.2,39.2,0,0,0,6.4-3.4,48.1,48.1,0,0,0,5.7-4.4,14.5,14.5,0,0,1,2.2-2.1,14.3,14.3,0,0,1-2,2.3,28.5,28.5,0,0,1-5.6,4.7,28.8,28.8,0,0,1-6.6,3.2A9.6,9.6,0,0,1,128.9,459.9Z"/><path class="cls-1" d="M148.9,448a6.2,6.2,0,0,1-2.1,1.6,6.4,6.4,0,0,1-2.5,1.2c-.1-.1.9-.9,2.1-1.6A8.2,8.2,0,0,1,148.9,448Z"/><path class="cls-1" d="M147.7,446.9c.1.1-.5.9-1.3,1.8s-1.3,1.7-1.5,1.6a3.7,3.7,0,0,1,1.1-1.9C146.8,447.5,147.5,446.8,147.7,446.9Z"/><path class="cls-1" d="M146,446.3a4.4,4.4,0,0,1-.5,2.2c-.4,1.2-.8,2.1-.9,2a4.3,4.3,0,0,1,.4-2.2C145.4,447.1,145.8,446.2,146,446.3Z"/><path class="cls-1" d="M144.1,446.3a5.5,5.5,0,0,1,.4,2,4.4,4.4,0,0,1-.1,2,4.6,4.6,0,0,1-.5-2C143.9,447.2,143.9,446.3,144.1,446.3Z"/><path class="cls-1" d="M138,449.2c.1,0,.3.4.5,1.3a9.3,9.3,0,0,1-.3,3.3,8.8,8.8,0,0,1-1.7,2.8c-.6.6-1.1.9-1.2.8a11.4,11.4,0,0,0,2.3-3.8A10.8,10.8,0,0,0,138,449.2Z"/><path class="cls-1" d="M139.4,446.9a3.7,3.7,0,0,1-.4,1.9c-.4,1-.9,1.7-1,1.6a4.8,4.8,0,0,1,.6-1.8C138.9,447.6,139.2,446.8,139.4,446.9Z"/><path class="cls-1" d="M137.8,446.4c.1-.1.5.7.6,1.8a3,3,0,0,1-.5,1.9c-.1-.1,0-.9-.1-1.9S137.6,446.4,137.8,446.4Z"/><path class="cls-1" d="M135.7,447.1c.1-.1.7.4,1.3,1.1s1,1.3.9,1.4-.7-.4-1.3-1.1S135.6,447.1,135.7,447.1Z"/><path class="cls-1" d="M135.5,449.3c0-.2.7-.2,1.5,0s1.4.3,1.4.5h-1.5Z"/><path class="cls-1" d="M144.9,457.1a33.2,33.2,0,0,0-4.4-.6,32.5,32.5,0,0,0-4.3.8,6.8,6.8,0,0,1,4.3-1.3A7.4,7.4,0,0,1,144.9,457.1Z"/><path class="cls-1" d="M147.8,454.7c.1.1-.7.7-1.7,1.3a4.6,4.6,0,0,1-2.1.6,7.1,7.1,0,0,1,1.8-1.1C146.9,454.9,147.7,454.5,147.8,454.7Z"/><path class="cls-1" d="M148.2,457.7a5.8,5.8,0,0,1-2-.2,7.1,7.1,0,0,1-2-.5c0-.2,1-.2,2.1,0S148.2,457.5,148.2,457.7Z"/><path class="cls-1" d="M146.1,460.3c-.2.1-.5-.7-1.1-1.5s-1-1.4-.9-1.5.8.4,1.4,1.2A2.7,2.7,0,0,1,146.1,460.3Z"/><path class="cls-1" d="M143.3,460.1a13.6,13.6,0,0,1,.1-1.6,6.3,6.3,0,0,1,0-1.5c.2-.1.6.6.6,1.5A2.2,2.2,0,0,1,143.3,460.1Z"/><path class="cls-1" d="M184.9,376.5l2.8-1.1a38.7,38.7,0,0,0,12.1-7.8l2.2-2.1a11,11,0,0,1-2,2.3,35.8,35.8,0,0,1-5.6,4.7,33.5,33.5,0,0,1-6.6,3.2A9.6,9.6,0,0,1,184.9,376.5Z"/><path class="cls-1" d="M204.9,364.6a6.5,6.5,0,0,1-2.1,1.6,6.4,6.4,0,0,1-2.5,1.2c-.1-.2.9-.9,2.1-1.6A6.4,6.4,0,0,1,204.9,364.6Z"/><path class="cls-1" d="M203.7,363.5c.1.2-.6.9-1.3,1.8s-1.3,1.7-1.5,1.6A4.7,4.7,0,0,1,202,365C202.8,364,203.5,363.4,203.7,363.5Z"/><path class="cls-1" d="M202,362.9a4.4,4.4,0,0,1-.5,2.2,5,5,0,0,1-.9,2.1,4.5,4.5,0,0,1,.4-2.3C201.4,363.7,201.8,362.8,202,362.9Z"/><path class="cls-1" d="M200.1,362.9a5.5,5.5,0,0,1,.4,2,4.4,4.4,0,0,1-.1,2c-.2,0-.4-.8-.5-1.9S199.9,362.9,200.1,362.9Z"/><path class="cls-1" d="M194,365.8c.1,0,.3.5.4,1.3a7.5,7.5,0,0,1-2,6.2,2.7,2.7,0,0,1-1.1.8,11.4,11.4,0,0,0,2.3-3.8A13.8,13.8,0,0,0,194,365.8Z"/><path class="cls-1" d="M195.4,363.5a3.7,3.7,0,0,1-.4,1.9c-.4,1-.9,1.7-1,1.6a6.2,6.2,0,0,1,.6-1.8C194.9,364.2,195.2,363.4,195.4,363.5Z"/><path class="cls-1" d="M193.8,363c.1-.1.5.7.6,1.8a3,3,0,0,1-.5,1.9c-.1,0,0-.9-.1-1.9S193.6,363.1,193.8,363Z"/><path class="cls-1" d="M191.7,363.7c.1-.1.7.4,1.3,1.1s1,1.4.9,1.5-.7-.4-1.3-1.1S191.6,363.8,191.7,363.7Z"/><path class="cls-1" d="M191.5,365.9a2.2,2.2,0,0,1,1.5,0l1.4.5c0,.2-.7.2-1.5,0S191.5,366.1,191.5,365.9Z"/><path class="cls-1" d="M200.9,373.7a22,22,0,0,0-4.4-.5,21.4,21.4,0,0,0-4.3.7,8.5,8.5,0,0,1,8.7-.2Z"/><path class="cls-1" d="M203.8,371.3c.1.1-.7.8-1.7,1.3s-2,.8-2.1.6a12.7,12.7,0,0,1,3.8-1.9Z"/><path class="cls-1" d="M204.1,374.3c0,.2-.9,0-1.9-.2l-2-.5c0-.2,1-.2,2.1,0S204.2,374.2,204.1,374.3Z"/><path class="cls-1" d="M202.1,376.9c-.2,0-.5-.6-1.1-1.4s-1-1.5-.9-1.6.8.4,1.4,1.3A2.4,2.4,0,0,1,202.1,376.9Z"/><path class="cls-1" d="M199.3,376.7a13.6,13.6,0,0,1,.1-1.6c.1-.8-.1-1.4,0-1.5s.6.6.6,1.6S199.4,376.8,199.3,376.7Z"/><path class="cls-1" d="M117.7,401.3c.3-.9.5-1.9.9-2.8a59.4,59.4,0,0,0,1.4-7.1,43.3,43.3,0,0,0,0-7.2c-.1-1-.2-2-.2-3a13.6,13.6,0,0,1,.6,2.9,29.8,29.8,0,0,1,.1,7.3,28.9,28.9,0,0,1-1.6,7.2A13.1,13.1,0,0,1,117.7,401.3Z"/><path class="cls-1" d="M120.9,378.3a13.6,13.6,0,0,1-.7,5.3,6.2,6.2,0,0,1,.1-2.7A5.8,5.8,0,0,1,120.9,378.3Z"/><path class="cls-1" d="M119.3,378.6a5.6,5.6,0,0,1,.6,2.1,7.3,7.3,0,0,1,.4,2.1c-.2,0-.6-.8-.9-2A4.1,4.1,0,0,1,119.3,378.6Z"/><path class="cls-1" d="M117.8,379.5c.1-.1.7.7,1.4,1.8a4.6,4.6,0,0,1,1,2c-.1.1-.8-.7-1.5-1.7S117.6,379.5,117.8,379.5Z"/><path class="cls-1" d="M116.6,381c.1-.1.9.3,1.8.9s1.6,1.3,1.5,1.4-.9-.3-1.8-.9S116.5,381.2,116.6,381Z"/><path class="cls-1" d="M115,387.5a2.9,2.9,0,0,1,1.3.5,7.6,7.6,0,0,1,2.4,2.3,8.4,8.4,0,0,1,1.2,3.1,3.2,3.2,0,0,1-.1,1.4,15,15,0,0,0-1.5-4.2A14,14,0,0,0,115,387.5Z"/><path class="cls-1" d="M114.1,385c.1-.1.7.5,1.3,1.5a3.6,3.6,0,0,1,.6,1.8c-.2.1-.6-.7-1.1-1.5S113.9,385.1,114.1,385Z"/><path class="cls-1" d="M112.7,386c0-.2,1,0,1.8.6s1.3,1.5,1.2,1.6l-1.5-1.1C113.4,386.6,112.6,386.1,112.7,386Z"/><path class="cls-1" d="M111.9,388c0-.2.8-.3,1.7-.4s1.7.1,1.7.3a3.1,3.1,0,0,1-1.7.3A4.1,4.1,0,0,1,111.9,388Z"/><path class="cls-1" d="M113.5,389.5a4.5,4.5,0,0,1,.9-1.1c.6-.6,1.2-.9,1.3-.8s-.3.6-.9,1.2S113.7,389.7,113.5,389.5Z"/><path class="cls-1" d="M125.5,387.1a30.2,30.2,0,0,0-3.1,3.1,20.8,20.8,0,0,0-2.2,3.8,6.4,6.4,0,0,1,1.8-4.1A6.9,6.9,0,0,1,125.5,387.1Z"/><path class="cls-1" d="M125.5,383.3a5.1,5.1,0,0,1-.1,2.1c-.3,1.2-.7,2.1-.8,2s0-.9.2-2.1S125.3,383.3,125.5,383.3Z"/><path class="cls-1" d="M128,385c.1.1-.5.7-1.4,1.4s-1.5,1.3-1.6,1.2.4-.9,1.3-1.6S127.9,384.8,128,385Z"/><path class="cls-1" d="M128.8,388.2c-.1.2-.9,0-1.8-.1a8.3,8.3,0,0,1-1.8-.2c0-.2.8-.5,1.8-.3A3,3,0,0,1,128.8,388.2Z"/><path class="cls-1" d="M126.8,390.2c-.1.1-.5-.5-1.1-1s-1.2-.8-1.2-1,.8-.1,1.6.5S127,390.2,126.8,390.2Z"/><path class="cls-1" d="M124.5,388.8c.1.1-9.1,6.8-20.5,14.9s-20.7,14.6-20.8,14.5,9.1-6.8,20.5-14.9S124.5,388.7,124.5,388.8Z"/><path class="cls-1" d="M237.6,326l2.8-1.2a35.1,35.1,0,0,0,6.4-3.3,40.2,40.2,0,0,0,5.7-4.5c1.4-1.2,2.1-2.1,2.2-2.1a11.2,11.2,0,0,1-1.9,2.4,31.9,31.9,0,0,1-5.7,4.6,36.1,36.1,0,0,1-6.5,3.3A14.7,14.7,0,0,1,237.6,326Z"/><path class="cls-1" d="M257.6,314c.1.2-.9.9-2.1,1.7a7.4,7.4,0,0,1-2.4,1.1,13.1,13.1,0,0,1,4.5-2.8Z"/><path class="cls-1" d="M256.4,313c.1.1-.5.8-1.3,1.8a9.2,9.2,0,0,1-1.4,1.6c-.2-.1.2-1,1-2S256.3,312.9,256.4,313Z"/><path class="cls-1" d="M254.7,312.3a5.4,5.4,0,0,1-.4,2.2,5.1,5.1,0,0,1-1,2.1,5.4,5.4,0,0,1,.4-2.2A6.3,6.3,0,0,1,254.7,312.3Z"/><path class="cls-1" d="M252.8,312.4a4.6,4.6,0,0,1,.4,1.9,5.3,5.3,0,0,1-.1,2.1,5.5,5.5,0,0,1-.4-2C252.6,313.3,252.6,312.4,252.8,312.4Z"/><path class="cls-1" d="M246.7,315.2c.1,0,.3.5.5,1.3a7.8,7.8,0,0,1-2,6.2,2.7,2.7,0,0,1-1.2.8,9.9,9.9,0,0,0,2.7-8.3Z"/><path class="cls-1" d="M248.1,312.9a3.1,3.1,0,0,1-.3,1.9c-.4,1-1,1.7-1.1,1.6a6.2,6.2,0,0,1,.6-1.8C247.7,313.7,247.9,312.9,248.1,312.9Z"/><path class="cls-1" d="M246.5,312.4a2.8,2.8,0,0,1,.6,1.9c0,1.1-.3,1.9-.5,1.8a9,9,0,0,1,0-1.8C246.5,313.3,246.3,312.5,246.5,312.4Z"/><path class="cls-1" d="M244.5,313.1c.1-.1.7.4,1.3,1.1s1,1.4.9,1.5-.7-.4-1.3-1.1S244.3,313.2,244.5,313.1Z"/><path class="cls-1" d="M244.2,315.3a3.2,3.2,0,0,1,1.5,0,3.6,3.6,0,0,1,1.4.5c0,.2-.7.2-1.5,0S244.2,315.5,244.2,315.3Z"/><path class="cls-1" d="M253.6,323.2a21.2,21.2,0,0,0-4.3-.6,31.1,31.1,0,0,0-4.4.7A8.5,8.5,0,0,1,253.6,323.2Z"/><path class="cls-1" d="M256.5,320.7c.1.1-.6.8-1.7,1.3s-2,.8-2.1.6.8-.6,1.8-1.1A6.1,6.1,0,0,1,256.5,320.7Z"/><path class="cls-1" d="M256.9,323.7c0,.2-.9,0-2-.1s-1.9-.4-1.9-.6a3.8,3.8,0,0,1,2,0A4.1,4.1,0,0,1,256.9,323.7Z"/><path class="cls-1" d="M254.8,326.4a8.5,8.5,0,0,1-1-1.5c-.6-.8-1.1-1.4-1-1.5s.8.3,1.4,1.2S255,326.3,254.8,326.4Z"/><path class="cls-1" d="M252,326.1c-.1-.1.1-.7.2-1.5s-.2-1.5,0-1.6a1.7,1.7,0,0,1,.5,1.6C252.7,325.5,252.2,326.2,252,326.1Z"/><path class="cls-1" d="M241.8,379.2l-1.7-2.5a34.8,34.8,0,0,0-4.3-5.8,61.7,61.7,0,0,0-5.4-4.8l-2.4-1.8a13.5,13.5,0,0,1,2.6,1.5,30.8,30.8,0,0,1,9.9,10.7A16.9,16.9,0,0,1,241.8,379.2Z"/><path class="cls-1" d="M226.6,361.6c.1-.1,1,.7,1.9,1.8a10.8,10.8,0,0,1,1.6,2.2c-.1.1-1-.7-2-1.8A6.6,6.6,0,0,1,226.6,361.6Z"/><path class="cls-1" d="M225.7,363a5.2,5.2,0,0,1,2,.9c1.1.6,1.9,1,1.9,1.2a4.3,4.3,0,0,1-2.2-.7A5.6,5.6,0,0,1,225.7,363Z"/><path class="cls-1" d="M225.4,364.8a4.1,4.1,0,0,1,2.2,0,4,4,0,0,1,2.2.6,6,6,0,0,1-2.3-.1A5,5,0,0,1,225.4,364.8Z"/><path class="cls-1" d="M225.8,366.6a4,4,0,0,1,1.8-.7,4.9,4.9,0,0,1,2-.3c.1.2-.8.5-1.8.8S225.8,366.8,225.8,366.6Z"/><path class="cls-1" d="M229.6,372.1a5.2,5.2,0,0,1,1.2-.6,7.3,7.3,0,0,1,6.4.9c.7.5,1.1.9,1,1a12.6,12.6,0,0,0-4.2-1.6A13.1,13.1,0,0,0,229.6,372.1Z"/><path class="cls-1" d="M227.1,371.2c0-.2.9-.3,1.9,0s1.9.6,1.8.7-.9,0-1.9-.2A13,13,0,0,1,227.1,371.2Z"/><path class="cls-1" d="M226.9,372.8c-.1-.1.6-.7,1.7-.9a2.9,2.9,0,0,1,1.9.1c0,.2-.8.2-1.8.4A9.9,9.9,0,0,1,226.9,372.8Z"/><path class="cls-1" d="M227.9,374.7c-.1-.1.3-.7.9-1.5s1.2-1.2,1.3-1.1-.3.8-.9,1.5S228,374.8,227.9,374.7Z"/><path class="cls-1" d="M230.1,374.5c-.1,0-.2-.6-.2-1.4a3.2,3.2,0,0,1,.2-1.5c.2,0,.3.7.3,1.5S230.3,374.5,230.1,374.5Z"/><path class="cls-1" d="M236.3,364a32.7,32.7,0,0,0,.1,4.4,28.6,28.6,0,0,0,1.5,4.1,7,7,0,0,1-2-4A6.4,6.4,0,0,1,236.3,364Z"/><path class="cls-1" d="M233.4,361.5c.1-.1.8.5,1.5,1.5a4,4,0,0,1,1,1.9c-.1.1-.7-.7-1.4-1.6S233.2,361.6,233.4,361.5Z"/><path class="cls-1" d="M236.3,360.6a7.2,7.2,0,0,1,.1,2c0,1.1,0,2-.2,2s-.3-.9-.3-2S236.1,360.6,236.3,360.6Z"/><path class="cls-1" d="M239.2,362.2c.1.2-.5.6-1.2,1.3s-1.3,1.3-1.4,1.2.2-.9,1-1.6S239.1,362.1,239.2,362.2Z"/><path class="cls-1" d="M239.4,365c0,.2-.7,0-1.5.2s-1.4.4-1.5.2.5-.7,1.4-.8S239.5,364.9,239.4,365Z"/><path class="cls-1" d="M189.3,440.9l-1.6-2.6a48.1,48.1,0,0,0-4.4-5.7,30.9,30.9,0,0,0-5.4-4.8l-2.4-1.8a8.7,8.7,0,0,1,2.7,1.4,33.4,33.4,0,0,1,9.8,10.7A10.2,10.2,0,0,1,189.3,440.9Z"/><path class="cls-1" d="M174.1,423.2a12.2,12.2,0,0,1,2,1.9,6.6,6.6,0,0,1,1.5,2.2c-.1.1-1-.7-1.9-1.8S174,423.4,174.1,423.2Z"/><path class="cls-1" d="M173.3,424.6a9.9,9.9,0,0,1,2,.9l1.8,1.2a3.8,3.8,0,0,1-2.1-.7C173.9,425.4,173.2,424.7,173.3,424.6Z"/><path class="cls-1" d="M172.9,426.4a9.9,9.9,0,0,1,4.5.7,5.9,5.9,0,0,1-2.3-.1A6.8,6.8,0,0,1,172.9,426.4Z"/><path class="cls-1" d="M173.3,428.3c0-.2.8-.5,1.9-.8s1.9-.4,2-.2a4.1,4.1,0,0,1-1.9.7A4.9,4.9,0,0,1,173.3,428.3Z"/><path class="cls-1" d="M177.1,433.7a5.2,5.2,0,0,1,1.2-.6,9.6,9.6,0,0,1,3.4-.3,9.1,9.1,0,0,1,3.1,1.2c.7.5,1,.9,1,1a12.6,12.6,0,0,0-4.2-1.6A13.7,13.7,0,0,0,177.1,433.7Z"/><path class="cls-1" d="M174.6,432.8a3.8,3.8,0,0,1,2,0,3.6,3.6,0,0,1,1.8.8,4.2,4.2,0,0,1-1.9-.3C175.5,433.1,174.6,433,174.6,432.8Z"/><path class="cls-1" d="M174.4,434.5c-.1-.2.7-.7,1.7-1s2,0,2,.2l-1.9.4A8.4,8.4,0,0,1,174.4,434.5Z"/><path class="cls-1" d="M175.5,436.4c-.2-.1.2-.8.8-1.5s1.2-1.2,1.3-1.1-.3.7-.9,1.4A3.8,3.8,0,0,1,175.5,436.4Z"/><path class="cls-1" d="M177.7,436.2c-.2,0-.3-.7-.3-1.5s.1-1.4.2-1.4.3.6.3,1.4A3.2,3.2,0,0,1,177.7,436.2Z"/><path class="cls-1" d="M183.8,425.6a21.3,21.3,0,0,0,.2,4.4,23,23,0,0,0,1.4,4.2A8.7,8.7,0,0,1,183.8,425.6Z"/><path class="cls-1" d="M180.9,423.2c.1-.2.9.5,1.6,1.4a4.1,4.1,0,0,1,.9,1.9c-.1.1-.7-.6-1.4-1.5S180.8,423.3,180.9,423.2Z"/><path class="cls-1" d="M183.8,422.3c.2,0,.2.9.2,2a5.4,5.4,0,0,1-.2,2c-.2,0-.4-.9-.4-2A3.8,3.8,0,0,1,183.8,422.3Z"/><path class="cls-1" d="M186.7,423.9c.1.1-.5.6-1.2,1.3s-1.2,1.2-1.4,1.1.2-.8,1-1.5S186.7,423.8,186.7,423.9Z"/><path class="cls-1" d="M187,426.7h-1.6c-.8.1-1.4.4-1.5.3s.5-.7,1.5-.8S187,426.5,187,426.7Z"/><path class="cls-1" d="M215,423.7a22,22,0,0,1,2-2.3,36.9,36.9,0,0,0,7.6-12.2c.3-.9.7-1.8,1.1-2.7a10.5,10.5,0,0,1-.8,2.9,31,31,0,0,1-7.6,12.3Z"/><path class="cls-1" d="M228,404.4a7,7,0,0,1-1.3,2.4,9.9,9.9,0,0,1-1.7,2.1,7,7,0,0,1,1.3-2.4C227.1,405.2,227.9,404.3,228,404.4Z"/><path class="cls-1" d="M226.4,403.9c.2.1-.1,1.1-.3,2.1s-.5,2.1-.7,2.1a4.1,4.1,0,0,1,.1-2.2A5.2,5.2,0,0,1,226.4,403.9Z"/><path class="cls-1" d="M224.7,404a10,10,0,0,1,.5,4.5,4.3,4.3,0,0,1-.6-2.2A6,6,0,0,1,224.7,404Z"/><path class="cls-1" d="M222.9,404.9c.2-.1.7.7,1.3,1.6a4.7,4.7,0,0,1,.7,1.9c-.1.1-.7-.6-1.2-1.6S222.8,405,222.9,404.9Z"/><path class="cls-1" d="M218.7,410.1a4.9,4.9,0,0,1,.9,1,7,7,0,0,1,.8,6.4c-.3.8-.6,1.3-.7,1.2a10.9,10.9,0,0,0,.5-4.4A15,15,0,0,0,218.7,410.1Z"/><path class="cls-1" d="M218.9,407.4c.2,0,.5.8.5,1.9s-.1,1.9-.3,1.9a18.2,18.2,0,0,1-.2-3.8Z"/><path class="cls-1" d="M217.3,407.6c.1-.1.8.5,1.3,1.4a2.8,2.8,0,0,1,.4,1.9c-.2,0-.4-.7-.9-1.6S217.1,407.8,217.3,407.6Z"/><path class="cls-1" d="M215.7,409.1a3.1,3.1,0,0,1,1.6.5,4.2,4.2,0,0,1,1.5.9c-.1.2-.8,0-1.7-.4S215.6,409.3,215.7,409.1Z"/><path class="cls-1" d="M216.4,411.2a3,3,0,0,1,1.4-.6,2.2,2.2,0,0,1,1.5-.2c0,.2-.6.5-1.4.7S216.5,411.4,216.4,411.2Z"/><path class="cls-1" d="M228.3,414.3a30.6,30.6,0,0,0-4.3,1.3l-3.6,2.5a8.6,8.6,0,0,1,7.8-3.8Z"/><path class="cls-1" d="M229.9,410.9a4,4,0,0,1-1,1.9c-.8.9-1.5,1.5-1.6,1.4s.4-.8,1.1-1.8S229.7,410.8,229.9,410.9Z"/><path class="cls-1" d="M231.5,413.5a7.5,7.5,0,0,1-1.9.7,7.4,7.4,0,0,1-2,.3c-.1-.2.8-.6,1.8-.9S231.5,413.3,231.5,413.5Z"/><path class="cls-1" d="M230.7,416.7c-.1.1-.7-.4-1.5-.9s-1.6-.8-1.5-1a2.4,2.4,0,0,1,1.7.6C230.3,415.9,230.8,416.6,230.7,416.7Z"/><path class="cls-1" d="M228.1,417.7c-.2,0-.2-.7-.6-1.5s-.7-1.3-.6-1.4.8.3,1.2,1.2A2.1,2.1,0,0,1,228.1,417.7Z"/><path class="cls-1" d="M122,444.7a20.9,20.9,0,0,1,2-2.2,42.1,42.1,0,0,0,4.4-5.8,47.8,47.8,0,0,0,3.2-6.4,23.3,23.3,0,0,1,1.1-2.8,9.6,9.6,0,0,1-.8,2.9,30.7,30.7,0,0,1-7.6,12.4A13.7,13.7,0,0,1,122,444.7Z"/><path class="cls-1" d="M135,425.4a7,7,0,0,1-1.3,2.4,9.9,9.9,0,0,1-1.7,2.1,7.2,7.2,0,0,1,1.2-2.3A11.1,11.1,0,0,1,135,425.4Z"/><path class="cls-1" d="M133.4,425a6.9,6.9,0,0,1-.4,2.1c-.2,1.1-.4,2.1-.6,2.1a4.1,4.1,0,0,1,.1-2.2C132.8,425.8,133.3,424.9,133.4,425Z"/><path class="cls-1" d="M131.6,425.1a8.5,8.5,0,0,1,.5,4.5A10,10,0,0,1,131.6,425.1Z"/><path class="cls-1" d="M129.9,426c.1-.1.7.6,1.2,1.6a4,4,0,0,1,.8,1.8c-.2.1-.7-.6-1.3-1.6A4.5,4.5,0,0,1,129.9,426Z"/><path class="cls-1" d="M125.6,431.1a3.8,3.8,0,0,1,1,1,7.6,7.6,0,0,1,.8,6.4c-.3.8-.6,1.3-.7,1.2a13,13,0,0,0,.5-4.4A12.6,12.6,0,0,0,125.6,431.1Z"/><path class="cls-1" d="M125.9,428.4a3.9,3.9,0,0,1,.5,1.9c.1,1.1-.1,2-.3,2a5.6,5.6,0,0,1-.2-1.9C125.8,429.3,125.7,428.5,125.9,428.4Z"/><path class="cls-1" d="M124.2,428.7c.1-.1.9.4,1.4,1.4s.5,1.9.3,1.9a9.1,9.1,0,0,1-.8-1.7C124.6,429.4,124.1,428.8,124.2,428.7Z"/><path class="cls-1" d="M122.7,430.2c0-.2.8,0,1.6.4s1.5.8,1.4,1a3.3,3.3,0,0,1-1.6-.5C123.2,430.7,122.6,430.3,122.7,430.2Z"/><path class="cls-1" d="M123.4,432.3c0-.2.6-.5,1.3-.7s1.5-.3,1.5-.1-.5.4-1.3.6A2.2,2.2,0,0,1,123.4,432.3Z"/><path class="cls-1" d="M135.2,435.4a33.8,33.8,0,0,0-4.2,1.3,32.7,32.7,0,0,0-3.6,2.5,8.6,8.6,0,0,1,7.8-3.8Z"/><path class="cls-1" d="M136.8,431.9c.2.1-.2,1-1,1.9s-1.5,1.6-1.6,1.5.5-.9,1.2-1.8A9.2,9.2,0,0,1,136.8,431.9Z"/><path class="cls-1" d="M138.4,434.5c0,.2-.8.4-1.8.7s-2,.5-2,.3.7-.6,1.8-.8S138.4,434.3,138.4,434.5Z"/><path class="cls-1" d="M137.7,437.8c-.1.1-.8-.4-1.6-.9a8.5,8.5,0,0,1-1.5-1c.1-.2.9,0,1.8.5S137.8,437.7,137.7,437.8Z"/><path class="cls-1" d="M135.1,438.7c-.2,0-.3-.7-.6-1.4s-.7-1.3-.6-1.4.7.3,1.1,1.1A1.9,1.9,0,0,1,135.1,438.7Z"/><path class="cls-9" d="M525.5,256.1c-2.3-7.2-85.1,13.7-100-9.5-10.2-15.9-20.1-55.6-22.5-55.4l-53.4-.4-41,10.3A22.6,22.6,0,0,1,288,225.6h-3.5a22.6,22.6,0,0,1-7.2,2.4c.4,13-10,25.5-22.9,27.5a27,27,0,0,1-10.6-.6v.2c-.4.4-2.8,2.5-8.3,4.7s-13.7,1.6-13.7,1.6l-.3.4,6.1,2.4L249,281.8l5.1,15,.9,3.5L221.4,480H398.6l14.1-185.5-1.9-25.1,93,14.4Z"/><path class="cls-1" d="M433.1,213h-.6l-1.6-.2a57.5,57.5,0,0,0-29.5,4.6,58.6,58.6,0,0,0-13.7,8.9,138.2,138.2,0,0,0-13,13.5c-4.3,5.1-8.6,10.6-13.7,15.7a64.8,64.8,0,0,1-18.2,12.9,38.9,38.9,0,0,1-10.9,3.2,29.6,29.6,0,0,1-11.1-.7,44.6,44.6,0,0,1-9.8-4.2l-8.8-5.1a42.9,42.9,0,0,0-17.7-5.7,49.1,49.1,0,0,0-16.2,1.2,54.7,54.7,0,0,0-12.5,5.1l-2.4,1.6c-.8.5-1.4,1.1-2.1,1.6s-2.4,1.9-3.6,3a8.6,8.6,0,0,0-1.4,1.3l-1.2,1.3c-.7.7-1.2,1.4-1.8,2.1l-1,1.3-.4.5.3-.5,1-1.4,1.7-2.1,1.2-1.3a18.5,18.5,0,0,1,1.4-1.4,26,26,0,0,1,3.6-3c.7-.5,1.3-1.1,2.1-1.6l2.4-1.6a47,47,0,0,1,12.5-5.1,47.8,47.8,0,0,1,16.4-1.4,43.9,43.9,0,0,1,17.9,5.8c2.9,1.6,5.8,3.4,8.8,5a39.3,39.3,0,0,0,9.7,4.1,28.6,28.6,0,0,0,10.9.7,36.5,36.5,0,0,0,10.7-3.1,59.4,59.4,0,0,0,18-12.9c5.1-5.1,9.5-10.5,13.8-15.5a120.3,120.3,0,0,1,13.1-13.6,55.7,55.7,0,0,1,37-13.7c2.1,0,4.3.2,6.4.4l1.7.3Z"/><path class="cls-1" d="M373,190.2a.8.8,0,0,1-.1.3,2.4,2.4,0,0,0-.3.7,23.7,23.7,0,0,1-1.4,2.9,77,77,0,0,1-6.2,9.8,74.7,74.7,0,0,1-12,12.5,71.2,71.2,0,0,1-48,15.9,72.6,72.6,0,0,1-19.4-3.5l-2.9-1.1-.8-.3h0l.8.2c.7.2,1.7.7,3,1a73.9,73.9,0,0,0,11.3,2.6,72,72,0,0,0,8,.7A72.8,72.8,0,0,0,352.7,216a76.9,76.9,0,0,0,12-12.2A90.8,90.8,0,0,0,371,194c.7-1.1,1.1-2.1,1.5-2.8l.3-.7Z"/><path class="cls-1" d="M411.8,302.7s0,.1-.3.3l-.9.9-1.6,1.3-2.2,1.6a48.7,48.7,0,0,1-16.4,7,77.4,77.4,0,0,1-26.3,1c-9.9-1.2-20.4-4.2-31.3-7.6s-21.4-6.7-31.2-8.3a82.3,82.3,0,0,0-26.2-.6,52.5,52.5,0,0,0-16.8,5.4l-2.4,1.3-1.8,1.2-1,.7-.4.2.3-.3,1.1-.7,1.7-1.2,2.4-1.4a53.4,53.4,0,0,1,16.9-5.6,82.9,82.9,0,0,1,26.3.5c9.9,1.6,20.3,4.8,31.3,8.2s21.4,6.5,31.3,7.7a76.3,76.3,0,0,0,26.1-.9,50.6,50.6,0,0,0,16.3-6.7l2.3-1.6a15.3,15.3,0,0,1,1.6-1.3l1-.8Z"/><path class="cls-1" d="M242.8,364.9l.4.3,1.1.8a7.5,7.5,0,0,0,1.6,1.3l2.4,1.7a46.1,46.1,0,0,0,17.2,6.5,73.2,73.2,0,0,0,27.2-.5c10.2-2,20.9-6.1,31.9-10.6s21.6-8.9,31.7-11.4a81.7,81.7,0,0,1,27.4-2.3,50.5,50.5,0,0,1,17.8,5.1l2.5,1.4,1.8,1.1,1.1.8.3.3-.3-.3-1.2-.7-1.8-1.1-2.5-1.3a50.3,50.3,0,0,0-17.8-4.9,83.2,83.2,0,0,0-27.2,2.4c-10,2.5-20.6,6.9-31.6,11.4s-21.8,8.6-32,10.6a74.2,74.2,0,0,1-27.4.4,46.6,46.6,0,0,1-17.2-6.8l-2.4-1.7-1.7-1.3-.9-.9Z"/><path class="cls-1" d="M399.3,437.2l-.4-.2-1.1-.6-1.9-1-2.6-1.2a77.1,77.1,0,0,0-17.6-5.1,130.3,130.3,0,0,0-27.2-1.4c-10.2.3-21.5,1.5-33.3,1.9a169,169,0,0,1-59.9-8.7,138.9,138.9,0,0,1-17.1-6.9l-4.4-2.2-1.2-.6-.4-.2.4.2,1.2.5c1,.5,2.5,1.3,4.5,2.1a155.3,155.3,0,0,0,17.1,6.7,170.8,170.8,0,0,0,59.7,8.6c11.9-.4,23.1-1.6,33.4-1.9a130.4,130.4,0,0,1,27.2,1.5,71.6,71.6,0,0,1,17.6,5.3A43,43,0,0,1,399.3,437.2Z"/><path class="cls-10" d="M241.3,132.6a43.9,43.9,0,0,1,22.4-55.2l2.1-1c22.8-9.1,43.3,5.1,51.8,28.2l37.9,90.7a4.6,4.6,0,0,1-.7,4.5l-38.9,46.8-20.3-47.4s-22.9,6.7-33.3-14.5C257.4,174.5,248.8,152.6,241.3,132.6Z"/><path class="cls-2" d="M295.4,199.3s14-5.6,24.1-21.4c0,0,.6,18.5-21.6,26.6Z"/><path class="cls-10" d="M321.9,121.9c.2-.3,12.6-11.3,18.9,3.6s-9.7,18.1-10,17.7Z"/><path class="cls-2" d="M331.7,136.3c0-.1.3,0,.9,0a2.4,2.4,0,0,0,1.9-.8c1.3-1.2,1.6-4.3.5-7a9.4,9.4,0,0,0-2.3-3.3,3.2,3.2,0,0,0-2.8-1.2,1.6,1.6,0,0,0-1.3,1.4c0,.5.3.7.2.8s-.4-.1-.6-.8a1.7,1.7,0,0,1,.2-1.2,2.1,2.1,0,0,1,1.3-.9,4,4,0,0,1,3.7,1.1,9.6,9.6,0,0,1,2.6,3.7c1.2,3,.9,6.5-1,8a3,3,0,0,1-2.5.7C331.9,136.6,331.6,136.3,331.7,136.3Z"/><path class="cls-6" d="M325.2,109.5c-1.8-8.6-3.4-17.5-8-25,0,0-6.2-8.1-14.5-10.9-10.4-3.5-27.2-6.2-43.9,2.2-21.6,10.9-24.8,27.7-20.7,38.1,1.9,4.7.4-23.2,23-12.1,4.2-12.6,10-16.7,22.1-18.6a15.5,15.5,0,0,1,7.1.4c6,1.9,6.3,5.7,7,7.6,5,17.4,18.6,20.4,18.6,20.4l4.9,11.5c1,3.6,4.1,6,5.7,5.6l.9-10.1S326.2,113.9,325.2,109.5Z"/><path class="cls-5" d="M467.3,235.1a.3.3,0,0,1-.3-.3.3.3,0,0,1,.3-.3c.1,0,.2.1.2.3S467.4,235.1,467.3,235.1Z"/><path class="cls-1" d="M485.5,326.5c-.2.1-1.1-2.2-2.5-5s-2.8-4.8-2.7-4.9A25.5,25.5,0,0,1,485.5,326.5Z"/><path class="cls-1" d="M503.8,298a28.1,28.1,0,0,1-5.4,1.7,34.8,34.8,0,0,1-5.6,1.2,28.1,28.1,0,0,1,5.4-1.7A26.6,26.6,0,0,1,503.8,298Z"/><path class="cls-1" d="M507.3,334.9c1-2.4,2.1-4.9,3.3-7.2a57.6,57.6,0,0,1,3.8-6.9,51.7,51.7,0,0,1-3.3,7.2A46.4,46.4,0,0,1,507.3,334.9Z"/><path class="cls-2" d="M497,278.4a29.6,29.6,0,0,0-8.3,11.2,4.6,4.6,0,0,1,.5-2,20.9,20.9,0,0,1,2.5-4.4,20.5,20.5,0,0,1,3.5-3.7A5.8,5.8,0,0,1,497,278.4Z"/><path class="cls-3" d="M378.6,351.5l28.8,82.3L386.9,480s162.9,1.4,162.8,0c-.7-10.6-9.8-80.6-9.8-80.6L516.3,256.1l-68.6.5-46.1,15.7-22.3,16.5L372,307.2Z"/><path class="cls-3" d="M514,259.1l-18.9,63.1s35.2,90,35.6,88.6l6.1,43.8,17.4-8.4c14-6.1,13.6-36.2,13.9-40.8s-22.7-97-25.4-111.7C539.6,276.1,514,259.1,514,259.1Zm16.8,151.3"/><path class="cls-6" d="M329.4,223.9a23.8,23.8,0,0,0,16.9,7.2,22.7,22.7,0,0,0,7.1,2.7c-1,13,8.7,26,21.5,28.6s26.9-5.3,31.2-17.6l-.8-68.6,21.3-25.1a13.9,13.9,0,0,0-3.8-7.4,14.1,14.1,0,0,0-19.9-.1,21.8,21.8,0,0,0-11.7-7.6,22.1,22.1,0,0,0-27,15.9c-6.9.8-13.9,1.5-20.4,4s-12.4,7.1-15.2,13.5-1.5,14.6,3.9,18.9C321.8,196.4,320.2,214.1,329.4,223.9Z"/><path class="cls-4" d="M413.5,286.7a26.6,26.6,0,0,0,34.6,14.8h0a26.6,26.6,0,0,0,15.5-32.4l-9.7-30.9-20.7-69.4-1.1-2c-1.3-4.4-4.1-7.5-8.6-6.6l-48.6,3.6c-14.9,3.3-18.5,24.1-14.6,38.8,4.3,16.4,10.2,36.2,16.1,47.5,11.8,22.7,31.2,19.7,31.2,19.6l5.4,15.8A6.1,6.1,0,0,0,413.5,286.7Z"/><path class="cls-6" d="M377.4,212.5a3.4,3.4,0,0,1,4,2.1h0a3.1,3.1,0,0,1-2.3,3.7,3.3,3.3,0,0,1-4-2.1A3.2,3.2,0,0,1,377.4,212.5Z"/><path class="cls-6" d="M368.9,210a7.6,7.6,0,0,1,4.3-3.1,8,8,0,0,1,5.3-.1c1.4.4,2,1,1.9,1.2s-3.2-.4-6.5.7-5.1,3.6-5.6,3.4S368.1,211.1,368.9,210Z"/><path class="cls-6" d="M408.1,206.6a3.2,3.2,0,0,1,2.3-3.8,3.4,3.4,0,0,1,4,2.2,3.1,3.1,0,0,1-2.3,3.8,3.2,3.2,0,0,1-4-2.1Z"/><path class="cls-6" d="M401.5,200.3a8.9,8.9,0,0,1,4.3-3.1,9,9,0,0,1,5.4-.1c1.3.4,1.9,1,1.8,1.2s-3.1-.4-6.5.7-5.1,3.6-5.6,3.4S400.7,201.4,401.5,200.3Z"/><path class="cls-6" d="M391.4,231.5l-1.5.3a2.4,2.4,0,0,1-1.9-.8,5,5,0,0,1-.6-3.4c.1-2.4.1-4.8.2-7.3.5-10.3,1.1-18.7,1.5-18.7s.4,8.4,0,18.7c-.1,2.6-.2,5-.3,7.3a4.9,4.9,0,0,0,.2,2.7c.4.5,1.3.4,2.1.2,3.5-.6,5.7-.9,5.7-.7S394.8,230.6,391.4,231.5Z"/><path class="cls-5" d="M409.6,275.9c24.8-5.8,27.3-25.4,27.3-25.4a64,64,0,0,1-29.3,19.2Z"/><path class="cls-6" d="M398.5,189.6a14.6,14.6,0,0,1,5.5-2.9,13.4,13.4,0,0,1,6.3-.1c1.6.3,2.4,1,2.3,1.4s-3.7,1.1-7.7,2.2-7.1,2.7-7.7,1.9S397.3,190.8,398.5,189.6Z"/><path class="cls-6" d="M366.6,201a10,10,0,0,1,4.8-3.2,11.4,11.4,0,0,1,5.8-.6c1.4.3,2.1.9,1.9,1.4s-3.3,1.4-6.5,2.5-5.7,2.8-6.6,2.3S365.7,202.2,366.6,201Z"/><path class="cls-6" d="M408,152.5c-6.5-3.2-14.3-5.9-20.6-2.4-3.2,1.8-5.5,5-8.6,7s-9.5,2.9-14.1,5a19,19,0,0,0-10.6,13.7c-.9,4.6,0,9.7-2.5,13.6-1.2,1.8-3,3.2-4.3,4.9a17.5,17.5,0,0,0-3.3,11.1,51.4,51.4,0,0,0,2.1,11.6c4.6-.2,7.6-4.7,9.2-9s2.9-9.1,6.7-11.7,12.7-2.2,15.7-7.3c2.1-3.5.5-8.6,3.2-11.8s7.1-2.5,11-3.1a15.5,15.5,0,0,0,3.1-.7,17.4,17.4,0,0,0,10.9-22"/><path class="cls-6" d="M403.1,167.8c.8,4.2,5.8,12.5,9.1,15a50.6,50.6,0,0,0,11,5.9c-.3,5.1,6,20.5,13.5,15.9a4.5,4.5,0,0,0,1.3-1.1l16,34.7c3.3-1.4-.7-13.3,3.3-15.6s10.3-5.9,6.4-12.7c0,0,10.1-11-.3-18.4a41.7,41.7,0,0,0-6.7-3.3,50.4,50.4,0,0,1,.5-6.7,26.3,26.3,0,0,0-7.2-23.7c-6.1-6-15.2-8.3-22.8-5.8a16.1,16.1,0,0,0-17.7-7.4c-6.4,1.8-11.3,7.7-12.9,14.5-.7,3.2-6.3,7.2-9,9.1S400.2,168.9,403.1,167.8Z"/><path class="cls-4" d="M441.9,220.3c.1.4,15.7-.8,11.5-15.5-1.6-5.5-4.4-7.7-7.3-8.3-5.3-1.1-9.7,4.2-8.3,9.4S441.8,220,441.9,220.3Z"/><path class="cls-5" d="M445.4,214.1a3.6,3.6,0,0,0,2.5-.3c1.9-1.3,2.6-4.5,1.9-7.4a9.2,9.2,0,0,0-2.1-3.9,3.9,3.9,0,0,0-3.3-1.5,2.2,2.2,0,0,0-1.3.8,2,2,0,0,0-.3,1.1c0,.6.3.8.4.8s-.1-.4,0-.8a1.4,1.4,0,0,1,1.3-1.2,3.5,3.5,0,0,1,2.5,1.4,8.8,8.8,0,0,1,1.7,3.5c.7,2.7.1,5.5-1.2,6.5a2.9,2.9,0,0,1-2,.5l-.8-.2C444.7,213.5,444.9,213.8,445.4,214.1Z"/><path class="cls-8" d="M357.6,228a20.9,20.9,0,0,1-3.4-.8,21.5,21.5,0,0,1-10.3-7.5,24.3,24.3,0,0,1-3.9-8.1,18.6,18.6,0,0,1,.4-10.2,22.3,22.3,0,0,1,17-15.1,16,16,0,0,1,2.3-.3h2.2l-.6.9a8.7,8.7,0,0,1-.9-5.9,13.4,13.4,0,0,1,2.4-5.3,15.7,15.7,0,0,1,4-3.7,18.2,18.2,0,0,1,4.7-2.2,69.7,69.7,0,0,1,9.3-2,44.3,44.3,0,0,0,7.8-1.9c4.5-1.9,7.4-4.8,8.6-7.2a11.9,11.9,0,0,0,1.1-4.1,4.5,4.5,0,0,1,.1,1.1,8.9,8.9,0,0,1-.8,3.2c-1.1,2.5-4,5.7-8.7,7.7s-10.8,2.3-17,4.2a16.2,16.2,0,0,0-8.2,5.6,12.2,12.2,0,0,0-2.1,4.8,7.1,7.1,0,0,0,.8,5.1l.5.9h-3.2l-2.1.3a21.6,21.6,0,0,0-16.2,14.2,18.8,18.8,0,0,0-.4,9.7,22.6,22.6,0,0,0,13.4,15.4,37.9,37.9,0,0,0,4.5,1.2Z"/><path class="cls-8" d="M335.8,180.4a9.9,9.9,0,0,1,2.4-3,12.4,12.4,0,0,1,5.3-2.8,11.6,11.6,0,0,1,7.8.6l-.7.6a18.3,18.3,0,0,1,7.2-17.2,17.2,17.2,0,0,1,7.2-3.1,41.7,41.7,0,0,1,7.1-.5c4.5.1,8.6.3,11.9-.3a19.1,19.1,0,0,0,7.3-2.8,14.7,14.7,0,0,0,2.2-1.9c.1,0-.1.2-.4.6a7.7,7.7,0,0,1-1.5,1.6,17.5,17.5,0,0,1-7.5,3.3c-3.4.7-7.6.6-12,.6s-9.6.4-13.6,3.4a17.2,17.2,0,0,0-6.9,16.1l.2,1-.9-.5a11.9,11.9,0,0,0-7.2-.7,12,12,0,0,0-5.1,2.4,17,17,0,0,0-3.3,3.8A3.1,3.1,0,0,1,335.8,180.4Z"/><path class="cls-3" d="M405.2,240.3a5.3,5.3,0,0,0,5.6-2.2,4.2,4.2,0,0,0,.5-3.9,2.5,2.5,0,0,0-1.2-1.3h-.3a5.9,5.9,0,0,0-4.7-.5,4.6,4.6,0,0,0-2.9,3A4.2,4.2,0,0,0,405.2,240.3Z"/><path class="cls-6" d="M409.9,231.7a7.6,7.6,0,0,1-6.6,8c-1.4.2-2.3-.1-2.3-.3s.9-.2,2.1-.6a8,8,0,0,0,5.8-7.1c.2-1.3,0-2.1.2-2.2S409.8,230.3,409.9,231.7Z"/><path class="cls-3" d="M448,222.2a4.6,4.6,0,0,0,2.6.4h.3a3.7,3.7,0,0,0,2.3-4.9,3.4,3.4,0,0,0-1.7-2,6.1,6.1,0,0,0-2.6-.7c0-.1,1.1-.8,2.9-.1a4.9,4.9,0,0,1,2.4,2.3,1.6,1.6,0,0,1,.3.9,4.5,4.5,0,0,1-6.9,4.9c-1.6-1-1.8-2.4-1.6-2.4A8.1,8.1,0,0,0,448,222.2Z"/><path class="cls-1" d="M459.9,347.4a26.9,26.9,0,0,1,3-6.7,35.6,35.6,0,0,1,4.3-5.9,20.9,20.9,0,0,1,2.2-2,21.1,21.1,0,0,1-1.9,2.3,35.1,35.1,0,0,0-4.2,5.9,48.5,48.5,0,0,0-3.1,6.5,23.1,23.1,0,0,1-1,2.8A13.7,13.7,0,0,1,459.9,347.4Z"/><path class="cls-1" d="M467.7,334.6a13.3,13.3,0,0,1,2.5-4.7A14.2,14.2,0,0,1,467.7,334.6Z"/><path class="cls-1" d="M470,332.8a3.7,3.7,0,0,1-1.9,1.1c-.1-.1.6-.8,1.5-1.5s1.6-1.5,1.8-1.4S470.9,332,470,332.8Z"/><path class="cls-1" d="M470.1,333.7a5.4,5.4,0,0,1-2.2.6c-.1-.1.8-.6,2-1.1s2.1-.7,2.2-.5S471.2,333.3,470.1,333.7Z"/><path class="cls-1" d="M470.1,334.8a4.4,4.4,0,0,1-2-.3c0-.2.9-.3,2-.2s2,.1,2,.3S471.2,334.8,470.1,334.8Z"/><path class="cls-1" d="M465.1,341.4a14.7,14.7,0,0,0-3.7,2.4,3.7,3.7,0,0,1,.8-1.1,7.2,7.2,0,0,1,6-2.3,2.3,2.3,0,0,1,1.4.4A11.7,11.7,0,0,0,465.1,341.4Z"/><path class="cls-1" d="M470.1,340.2a6.2,6.2,0,0,1-1.8.7c-.1-.1.6-.7,1.6-1.2a3.7,3.7,0,0,1,1.9-.4C471.8,339.5,471.1,339.8,470.1,340.2Z"/><path class="cls-1" d="M470.5,340.9c-1,.1-1.9.2-1.9,0s.8-.5,1.8-.5,1.9.3,1.9.5S471.4,340.8,470.5,340.9Z"/><path class="cls-1" d="M470.3,342.2c-.8-.6-1.3-1.2-1.2-1.3s.7.2,1.5.8,1.3,1.1,1.2,1.3S471,342.7,470.3,342.2Z"/><path class="cls-1" d="M469,341.9c-.2-.8-.2-1.5,0-1.5a2.4,2.4,0,0,1,.5,1.4,2.6,2.6,0,0,1,.1,1.5C469.4,343.3,469.2,342.7,469,341.9Z"/><path class="cls-1" d="M461.5,343a15.2,15.2,0,0,0-.2-8.7A8.3,8.3,0,0,1,461.5,343Z"/><path class="cls-1" d="M462.9,333.2a8.2,8.2,0,0,1-1,1.9c-.2,0,0-1,.5-2.1a4.8,4.8,0,0,1,1.2-1.8A4.9,4.9,0,0,1,462.9,333.2Z"/><path class="cls-1" d="M461.4,332.9a4.6,4.6,0,0,1,.1,2c-.2,0-.4-.8-.7-1.9s-.4-1.9-.2-2A5,5,0,0,1,461.4,332.9Z"/><path class="cls-1" d="M459.8,333.7c.9.5,1.5,1.2,1.3,1.3s-.7-.3-1.5-.8-1.6-.8-1.5-1S458.9,333.2,459.8,333.7Z"/><path class="cls-1" d="M459.9,335.2c1-.1,1.7.4,1.6.5H460c-.8,0-1.5.3-1.6.2S459,335.3,459.9,335.2Z"/><path class="cls-1" d="M477.1,288.2a31.4,31.4,0,0,1,7.3-12.6,20.9,20.9,0,0,1,2.2-2c.1.1-.7.9-1.9,2.3a35.1,35.1,0,0,0-4.2,5.9,42.9,42.9,0,0,0-3.1,6.5,21.8,21.8,0,0,1-1,2.9A9.4,9.4,0,0,1,477.1,288.2Z"/><path class="cls-1" d="M486.4,273.2a8.6,8.6,0,0,1-1.5,2.2,6,6,0,0,1,1-2.5,6.6,6.6,0,0,1,1.5-2.2A7.7,7.7,0,0,1,486.4,273.2Z"/><path class="cls-1" d="M487.2,273.6c-1,.8-1.8,1.2-1.9,1.1s.6-.8,1.5-1.5,1.6-1.4,1.7-1.3S488.1,272.8,487.2,273.6Z"/><path class="cls-1" d="M487.3,274.5a4.6,4.6,0,0,1-2.2.6c-.1-.1.8-.6,2-1.1a5.4,5.4,0,0,1,2.2-.5A6.5,6.5,0,0,1,487.3,274.5Z"/><path class="cls-1" d="M487.3,275.6a4.4,4.4,0,0,1-2-.3c0-.2.9-.3,2-.2a4.4,4.4,0,0,1,2,.3C489.3,275.6,488.4,275.7,487.3,275.6Z"/><path class="cls-1" d="M482.3,282.2a13.1,13.1,0,0,0-3.7,2.4c-.1,0,.2-.5.7-1.1a7.7,7.7,0,0,1,6.1-2.3c.9.1,1.3.3,1.3.4A10.9,10.9,0,0,0,482.3,282.2Z"/><path class="cls-1" d="M487.3,281c-1,.5-1.7.8-1.8.7s.6-.7,1.6-1.2a3.7,3.7,0,0,1,1.9-.4C489,280.3,488.2,280.6,487.3,281Z"/><path class="cls-1" d="M487.7,281.7c-1,0-1.8.2-1.9,0a3,3,0,0,1,1.9-.5c1.1,0,1.9.4,1.8.5A9,9,0,0,1,487.7,281.7Z"/><path class="cls-1" d="M487.4,283c-.8-.6-1.3-1.2-1.2-1.3s.8.3,1.5.8,1.3,1.2,1.2,1.3A4.1,4.1,0,0,1,487.4,283Z"/><path class="cls-1" d="M486.2,282.7a2.7,2.7,0,0,1-.1-1.5c.2,0,.4.6.6,1.4s.2,1.5,0,1.5A2.4,2.4,0,0,1,486.2,282.7Z"/><path class="cls-1" d="M478.7,283.8a22,22,0,0,0,.5-4.4,20.3,20.3,0,0,0-.7-4.3A8.7,8.7,0,0,1,478.7,283.8Z"/><path class="cls-1" d="M480.1,274c-.5,1.1-.9,1.9-1.1,1.9a7,7,0,0,1,1.8-3.9A7.5,7.5,0,0,1,480.1,274Z"/><path class="cls-1" d="M478.6,273.7c.2,1.1.2,2,0,2a7.8,7.8,0,0,1-.6-1.9,7.4,7.4,0,0,1-.3-2C477.9,271.8,478.3,272.6,478.6,273.7Z"/><path class="cls-1" d="M477,274.5c.9.5,1.4,1.2,1.3,1.3s-.7-.3-1.6-.8-1.5-.8-1.5-1A2.8,2.8,0,0,1,477,274.5Z"/><path class="cls-1" d="M477.1,276c1,0,1.7.4,1.6.5s-.7,0-1.6.1-1.4.3-1.5.2S476.1,276.1,477.1,276Z"/><path class="cls-1" d="M544.3,377.2a31.4,31.4,0,0,1,7.3-12.6,14.2,14.2,0,0,1,2.2-2,22,22,0,0,1-2,2.3,51.9,51.9,0,0,0-4.2,5.9,38.3,38.3,0,0,0-3,6.5,23.1,23.1,0,0,1-1,2.8A9.5,9.5,0,0,1,544.3,377.2Z"/><path class="cls-1" d="M553.5,362.2a6.2,6.2,0,0,1-1.5,2.2,7.1,7.1,0,0,1,1.1-2.5,5.4,5.4,0,0,1,1.5-2.2A6.2,6.2,0,0,1,553.5,362.2Z"/><path class="cls-1" d="M554.3,362.6a3.7,3.7,0,0,1-1.9,1.1c-.1-.1.7-.8,1.6-1.5s1.6-1.5,1.7-1.4S555.2,361.8,554.3,362.6Z"/><path class="cls-1" d="M554.4,363.5a4,4,0,0,1-2.2.6,8.3,8.3,0,0,1,2-1.1,5.9,5.9,0,0,1,2.2-.5C556.5,362.6,555.6,363.1,554.4,363.5Z"/><path class="cls-1" d="M554.5,364.6a4.4,4.4,0,0,1-2-.3c0-.2.9-.3,2-.2a4.4,4.4,0,0,1,2,.3C556.5,364.6,555.6,364.6,554.5,364.6Z"/><path class="cls-1" d="M549.5,371.2a11.8,11.8,0,0,0-3.7,2.4c-.1,0,.1-.5.7-1.1a6.4,6.4,0,0,1,2.8-1.8,7.4,7.4,0,0,1,3.3-.5c.8.1,1.3.3,1.3.4A10.9,10.9,0,0,0,549.5,371.2Z"/><path class="cls-1" d="M554.5,370a5.1,5.1,0,0,1-1.8.7c-.1-.1.6-.7,1.5-1.2a3.9,3.9,0,0,1,2-.4C556.2,369.3,555.4,369.6,554.5,370Z"/><path class="cls-1" d="M554.8,370.7c-.9,0-1.7.2-1.8,0s.8-.5,1.8-.5,1.9.3,1.9.5A10.2,10.2,0,0,1,554.8,370.7Z"/><path class="cls-1" d="M554.6,372c-.7-.6-1.3-1.2-1.2-1.3s.8.2,1.5.8,1.3,1.1,1.2,1.3S555.3,372.5,554.6,372Z"/><path class="cls-1" d="M553.3,371.7c-.1-.8-.2-1.5,0-1.5a3,3,0,0,1,.6,1.4,3.2,3.2,0,0,1,0,1.5C553.7,373.1,553.5,372.5,553.3,371.7Z"/><path class="cls-1" d="M545.9,372.8a22,22,0,0,0,.5-4.4,20.4,20.4,0,0,0-.8-4.3A8.5,8.5,0,0,1,545.9,372.8Z"/><path class="cls-1" d="M547.2,363.1c-.4,1-.8,1.8-1,1.8a5,5,0,0,1,.5-2.1,4.8,4.8,0,0,1,1.2-1.8C548.1,361.2,547.7,362,547.2,363.1Z"/><path class="cls-1" d="M545.7,362.7c.3,1.1.3,2,.1,2a4.7,4.7,0,0,1-.6-1.9,4.6,4.6,0,0,1-.3-2C545.1,360.8,545.5,361.6,545.7,362.7Z"/><path class="cls-1" d="M544.2,363.5c.9.5,1.4,1.2,1.3,1.3s-.7-.4-1.5-.9a5.4,5.4,0,0,1-1.6-.9A2.3,2.3,0,0,1,544.2,363.5Z"/><path class="cls-1" d="M544.3,365a1.9,1.9,0,0,1,1.6.5c-.1.2-.8,0-1.6.1s-1.4.3-1.5.2S543.3,365.1,544.3,365Z"/><path class="cls-1" d="M530.3,345.2a32.8,32.8,0,0,1,7.4-12.6,14.2,14.2,0,0,1,2.2-2,22,22,0,0,1-2,2.3,39.6,39.6,0,0,0-4.2,5.9,42.2,42.2,0,0,0-3,6.5c-.3,1-.7,1.9-1.1,2.9A22.1,22.1,0,0,1,530.3,345.2Z"/><path class="cls-1" d="M540.7,327.7a14.5,14.5,0,0,1-2.6,4.7,7.7,7.7,0,0,1,1-2.5,6.9,6.9,0,0,1,1.6-2.2Z"/><path class="cls-1" d="M540.4,330.6c-.9.8-1.8,1.3-1.9,1.1s.7-.7,1.6-1.5,1.6-1.4,1.7-1.3S541.3,329.8,540.4,330.6Z"/><path class="cls-1" d="M540.5,331.6a5.4,5.4,0,0,1-2.2.5,8.3,8.3,0,0,1,2-1.1,5.9,5.9,0,0,1,2.2-.5C542.6,330.6,541.7,331.1,540.5,331.6Z"/><path class="cls-1" d="M540.5,332.6c-1.1,0-2-.2-1.9-.3s.9-.3,2-.3,2,.2,2,.4S541.6,332.6,540.5,332.6Z"/><path class="cls-1" d="M535.6,339.2a13.6,13.6,0,0,0-3.8,2.4,3.7,3.7,0,0,1,.8-1.1,7.4,7.4,0,0,1,6.1-2.3c.8.1,1.3.3,1.3.4A10.9,10.9,0,0,0,535.6,339.2Z"/><path class="cls-1" d="M540.6,338.1a5.6,5.6,0,0,1-1.9.6,3.4,3.4,0,0,1,1.6-1.1,3.3,3.3,0,0,1,1.9-.5C542.3,337.3,541.5,337.6,540.6,338.1Z"/><path class="cls-1" d="M540.9,338.8h-1.8c-.1-.2.7-.6,1.8-.6a3,3,0,0,1,1.9.5C542.7,338.9,541.9,338.7,540.9,338.8Z"/><path class="cls-1" d="M540.7,340c-.8-.6-1.3-1.1-1.2-1.3s.8.3,1.5.9,1.3,1.1,1.2,1.2S541.4,340.6,540.7,340Z"/><path class="cls-1" d="M539.4,339.7c-.2-.8-.2-1.4,0-1.5a2.4,2.4,0,0,1,.5,1.4,2.6,2.6,0,0,1,.1,1.5C539.8,341.1,539.6,340.5,539.4,339.7Z"/><path class="cls-1" d="M532,340.8a32.9,32.9,0,0,0,.5-4.4,21.7,21.7,0,0,0-.8-4.3A8.5,8.5,0,0,1,532,340.8Z"/><path class="cls-1" d="M533.3,331.1a8.9,8.9,0,0,1-1,1.8,4.1,4.1,0,0,1,.5-2.1c.5-1.1,1.1-1.8,1.2-1.7S533.8,330,533.3,331.1Z"/><path class="cls-1" d="M531.8,330.7a3.3,3.3,0,0,1,.1,2,4.7,4.7,0,0,1-.6-1.9c-.3-1-.5-1.9-.3-1.9S531.6,329.6,531.8,330.7Z"/><path class="cls-1" d="M530.3,331.5c.9.5,1.4,1.2,1.3,1.3s-.8-.3-1.6-.8-1.5-.8-1.5-1A3,3,0,0,1,530.3,331.5Z"/><path class="cls-1" d="M530.4,333.1c.9-.1,1.6.3,1.5.5h-1.5l-1.5.2C528.8,333.7,529.4,333.2,530.4,333.1Z"/><path class="cls-1" d="M516.3,452.5a32.8,32.8,0,0,1,7.4-12.6,14.2,14.2,0,0,1,2.2-2,19.3,19.3,0,0,1-2,2.3,51.9,51.9,0,0,0-4.2,5.9,35,35,0,0,0-3,6.5,17.1,17.1,0,0,1-1,2.8A7.2,7.2,0,0,1,516.3,452.5Z"/><path class="cls-1" d="M525.6,437.5a6.2,6.2,0,0,1-1.5,2.2,5.7,5.7,0,0,1,1.1-2.5,5.4,5.4,0,0,1,1.5-2.2A8,8,0,0,1,525.6,437.5Z"/><path class="cls-1" d="M526.4,437.9a3.7,3.7,0,0,1-1.9,1.1,7.9,7.9,0,0,1,1.6-1.5c.9-.8,1.6-1.5,1.7-1.4S527.4,437.1,526.4,437.9Z"/><path class="cls-1" d="M526.5,438.8a4,4,0,0,1-2.2.6,8.3,8.3,0,0,1,2-1.1,5.9,5.9,0,0,1,2.3-.5A6.3,6.3,0,0,1,526.5,438.8Z"/><path class="cls-1" d="M526.5,439.9a4.4,4.4,0,0,1-2-.3c0-.2.9-.3,2-.2s2,.1,2,.3A5.4,5.4,0,0,1,526.5,439.9Z"/><path class="cls-1" d="M521.6,446.5a11.5,11.5,0,0,0-3.7,2.5c-.1-.1.1-.6.7-1.2a7.7,7.7,0,0,1,6.1-2.3c.8.1,1.3.3,1.3.4A10.9,10.9,0,0,0,521.6,446.5Z"/><path class="cls-1" d="M526.6,445.3a6.2,6.2,0,0,1-1.8.7c-.1-.1.6-.7,1.6-1.2a3.7,3.7,0,0,1,1.9-.4C528.3,444.6,527.6,444.9,526.6,445.3Z"/><path class="cls-1" d="M527,446c-1,.1-1.8.2-1.9,0s.8-.5,1.8-.5,1.9.3,1.9.5S527.9,445.9,527,446Z"/><path class="cls-1" d="M526.7,447.2c-.7-.5-1.3-1.1-1.2-1.2s.8.2,1.5.8,1.3,1.1,1.2,1.3S527.5,447.8,526.7,447.2Z"/><path class="cls-1" d="M525.4,447c-.1-.8-.2-1.5,0-1.5a3,3,0,0,1,.6,1.4,3.2,3.2,0,0,1,0,1.5A3,3,0,0,1,525.4,447Z"/><path class="cls-1" d="M519.1,443.7a7.6,7.6,0,0,1-1.1,4.4,22,22,0,0,0,.5-4.4,29.7,29.7,0,0,0-.7-4.3A7.1,7.1,0,0,1,519.1,443.7Z"/><path class="cls-1" d="M519.3,438.3c-.4,1.1-.8,1.9-1,1.9a5,5,0,0,1,.5-2.1c.5-1.1,1.1-1.8,1.3-1.8A6.1,6.1,0,0,1,519.3,438.3Z"/><path class="cls-1" d="M517.8,438c.3,1.1.3,2,.1,2a7.8,7.8,0,0,1-.6-1.9,4.7,4.7,0,0,1-.3-2A3.7,3.7,0,0,1,517.8,438Z"/><path class="cls-1" d="M516.3,438.8c.9.5,1.4,1.2,1.3,1.3s-.8-.3-1.6-.8-1.5-.8-1.5-1A3,3,0,0,1,516.3,438.8Z"/><path class="cls-1" d="M516.4,440.3a1.9,1.9,0,0,1,1.6.5h-1.6c-.8,0-1.4.3-1.5.2S515.4,440.4,516.4,440.3Z"/><path class="cls-1" d="M501.5,341.5a31.4,31.4,0,0,1,7.3-12.6,14.2,14.2,0,0,1,2.2-2,21.1,21.1,0,0,1-1.9,2.3,41,41,0,0,0-7.3,12.4,23.1,23.1,0,0,1-1,2.8A9.5,9.5,0,0,1,501.5,341.5Z"/><path class="cls-1" d="M510.8,326.5a10.7,10.7,0,0,1-1.5,2.2,5.5,5.5,0,0,1,1-2.5,8.6,8.6,0,0,1,1.5-2.2A7.7,7.7,0,0,1,510.8,326.5Z"/><path class="cls-1" d="M511.6,326.9a4.7,4.7,0,0,1-1.9,1.1c-.1-.1.6-.8,1.5-1.5s1.6-1.5,1.8-1.4S512.5,326.1,511.6,326.9Z"/><path class="cls-1" d="M511.7,327.8a4.6,4.6,0,0,1-2.2.6c-.1-.1.8-.6,2-1.1a5.4,5.4,0,0,1,2.2-.5A6.5,6.5,0,0,1,511.7,327.8Z"/><path class="cls-1" d="M511.7,328.9a4.4,4.4,0,0,1-2-.3c0-.2.9-.3,2-.2a4.4,4.4,0,0,1,2,.3C513.7,328.9,512.8,328.9,511.7,328.9Z"/><path class="cls-1" d="M506.7,335.5a14.7,14.7,0,0,0-3.7,2.4c-.1,0,.2-.5.8-1.1a6.1,6.1,0,0,1,2.7-1.8,7.6,7.6,0,0,1,3.3-.5c.9.1,1.4.3,1.4.4A11.7,11.7,0,0,0,506.7,335.5Z"/><path class="cls-1" d="M511.7,334.3a6.2,6.2,0,0,1-1.8.7c-.1-.2.6-.7,1.6-1.2s1.9-.6,1.9-.4S512.6,333.9,511.7,334.3Z"/><path class="cls-1" d="M512.1,335c-1,.1-1.8.2-1.9,0a3,3,0,0,1,1.9-.5c1.1,0,1.8.3,1.8.5A9,9,0,0,1,512.1,335Z"/><path class="cls-1" d="M511.9,336.3c-.8-.6-1.3-1.2-1.2-1.3s.7.3,1.5.8,1.3,1.2,1.2,1.3S512.6,336.8,511.9,336.3Z"/><path class="cls-1" d="M510.6,336a2.7,2.7,0,0,1-.1-1.5c.2,0,.4.6.6,1.4s.2,1.5,0,1.5A2.4,2.4,0,0,1,510.6,336Z"/><path class="cls-1" d="M504.2,332.7a7.6,7.6,0,0,1-1.1,4.4,33.2,33.2,0,0,0,.6-4.4,29.7,29.7,0,0,0-.8-4.3A7.3,7.3,0,0,1,504.2,332.7Z"/><path class="cls-1" d="M504.5,327.3c-.5,1.1-.9,1.9-1.1,1.9a7,7,0,0,1,1.8-3.9A4.9,4.9,0,0,1,504.5,327.3Z"/><path class="cls-1" d="M503,327a4.6,4.6,0,0,1,.1,2c-.2,0-.4-.8-.7-1.9s-.4-1.9-.2-2A5,5,0,0,1,503,327Z"/><path class="cls-1" d="M501.4,327.8c.9.5,1.4,1.2,1.3,1.3s-.7-.3-1.6-.8-1.5-.8-1.5-1A2.8,2.8,0,0,1,501.4,327.8Z"/><path class="cls-1" d="M501.5,329.3c1,0,1.7.4,1.6.5s-.7,0-1.5.1-1.5.3-1.6.2S500.5,329.4,501.5,329.3Z"/><path class="cls-1" d="M424.8,327.3a36.3,36.3,0,0,1-6.4-3.6,31.5,31.5,0,0,1-5.4-4.9,13.7,13.7,0,0,1-1.8-2.4,14.5,14.5,0,0,1,2.1,2.2,47.8,47.8,0,0,0,5.4,4.7A49.5,49.5,0,0,0,425,327c1.6.8,2.7,1.2,2.7,1.3A14.2,14.2,0,0,1,424.8,327.3Z"/><path class="cls-1" d="M410.7,316.6a9.9,9.9,0,0,1,2.1,1.7,6.8,6.8,0,0,1-2.4-1.2c-1.2-.9-2.1-1.6-2-1.8A7.6,7.6,0,0,1,410.7,316.6Z"/><path class="cls-1" d="M411.2,315.9a4.6,4.6,0,0,1,1,2c-.2,0-.7-.8-1.4-1.7s-1.3-1.8-1.2-1.9S410.5,314.9,411.2,315.9Z"/><path class="cls-1" d="M412.2,315.9a4.1,4.1,0,0,1,.3,2.2,6,6,0,0,1-.8-2.1,5.9,5.9,0,0,1-.4-2.3C411.5,313.7,411.9,314.6,412.2,315.9Z"/><path class="cls-1" d="M413.3,315.9a5.7,5.7,0,0,1-.6,2,5.8,5.8,0,0,1,0-2c.2-1.1.4-2,.6-2A5.6,5.6,0,0,1,413.3,315.9Z"/><path class="cls-1" d="M419.2,317a9.8,9.8,0,0,0,2.2,8.4c-.1.1-.5-.2-1.1-.8a7.6,7.6,0,0,1-1.6-6.3c.1-.8.4-1.3.5-1.3Z"/><path class="cls-1" d="M418.6,316.4a4.4,4.4,0,0,1,.5,1.9c-.1.1-.6-.7-1-1.7a3.5,3.5,0,0,1-.2-1.9C418.1,314.6,418.3,315.5,418.6,316.4Z"/><path class="cls-1" d="M419.4,316.1c-.2,1-.1,1.8-.2,1.9a2.6,2.6,0,0,1-.4-1.9c.1-1.1.6-1.9.7-1.8S419.5,315.1,419.4,316.1Z"/><path class="cls-1" d="M420.6,316.4c-.6.7-1.3,1.2-1.4,1s.3-.8,1-1.4,1.2-1.1,1.3-1S421.2,315.7,420.6,316.4Z"/><path class="cls-1" d="M420.2,317.7c-.8.2-1.4.1-1.5-.1a6.3,6.3,0,0,1,1.5-.4c.8-.1,1.4,0,1.4.1S421,317.6,420.2,317.7Z"/><path class="cls-1" d="M420.6,325.2a32.9,32.9,0,0,0-4.3-.9,31.5,31.5,0,0,0-4.4.3A8.7,8.7,0,0,1,420.6,325.2Z"/><path class="cls-1" d="M411.1,323c1,.6,1.8,1,1.7,1.2a4.8,4.8,0,0,1-2.1-.8c-1-.5-1.7-1.2-1.6-1.3S410.1,322.4,411.1,323Z"/><path class="cls-1" d="M410.5,324.4a4.4,4.4,0,0,1,2,.1c0,.2-.8.3-1.9.5h-2C408.5,324.9,409.4,324.6,410.5,324.4Z"/><path class="cls-1" d="M411.2,326.1c.6-.9,1.3-1.3,1.4-1.2s-.4.7-1,1.5-.9,1.4-1.1,1.4A2.6,2.6,0,0,1,411.2,326.1Z"/><path class="cls-1" d="M412.7,326.1c0-1,.5-1.6.6-1.5s0,.7,0,1.5.1,1.5,0,1.6A2,2,0,0,1,412.7,326.1Z"/><path class="cls-1" d="M535.5,293.4c1.1.8,2.1,1.6,2,1.7a6.8,6.8,0,0,1-2.4-1.2c-1.2-.9-2.1-1.6-2-1.7A6,6,0,0,1,535.5,293.4Z"/><path class="cls-1" d="M535.9,292.6c.8,1,1.1,1.9,1,2s-.7-.7-1.4-1.7-1.3-1.7-1.1-1.8S535.2,291.6,535.9,292.6Z"/><path class="cls-1" d="M536.9,292.6a5.9,5.9,0,0,1,.4,2.3c-.2,0-.6-.9-.9-2.1a4.6,4.6,0,0,1-.3-2.3A6,6,0,0,1,536.9,292.6Z"/><path class="cls-1" d="M538,292.7c-.2,1.1-.4,2-.5,1.9s-.2-.9-.1-2,.4-1.9.6-1.9S538.1,291.6,538,292.7Z"/><path class="cls-1" d="M535.8,299.7c1,.6,1.8,1.1,1.7,1.2s-1-.1-2-.7-1.8-1.3-1.7-1.4A7.9,7.9,0,0,1,535.8,299.7Z"/><path class="cls-1" d="M535.2,301.2a4.4,4.4,0,0,1,2,.1c.1.2-.8.3-1.9.4s-2,.3-2,.1A3.5,3.5,0,0,1,535.2,301.2Z"/><path class="cls-1" d="M535.9,302.8c.6-.8,1.3-1.3,1.5-1.2s-.4.8-1,1.5-1,1.5-1.2,1.4S535.3,303.7,535.9,302.8Z"/><path class="cls-1" d="M537.4,302.9c0-1,.5-1.6.7-1.6a13.6,13.6,0,0,1-.1,1.6c0,.8.2,1.5,0,1.5S537.4,303.8,537.4,302.9Z"/><path class="cls-1" d="M549.7,397.1a29.8,29.8,0,0,0-4.3-.9,31.1,31.1,0,0,0-4.3.3A8.8,8.8,0,0,1,549.7,397.1Z"/><path class="cls-1" d="M459.5,434.6a30.9,30.9,0,0,1-6.4-3.6,31.5,31.5,0,0,1-5.4-4.9,10.8,10.8,0,0,1-1.8-2.4,21.8,21.8,0,0,1,2.1,2.2,47.8,47.8,0,0,0,5.4,4.7,49.5,49.5,0,0,0,6.3,3.7c1.6.8,2.7,1.2,2.7,1.3A14.2,14.2,0,0,1,459.5,434.6Z"/><path class="cls-1" d="M445.4,423.9a9.9,9.9,0,0,1,2.1,1.7,6.8,6.8,0,0,1-2.4-1.2c-1.2-.9-2.1-1.6-2-1.7A5.7,5.7,0,0,1,445.4,423.9Z"/><path class="cls-1" d="M445.9,423.2a4.6,4.6,0,0,1,1,2c-.2,0-.7-.8-1.4-1.7s-1.3-1.8-1.2-1.9S445.2,422.2,445.9,423.2Z"/><path class="cls-1" d="M446.9,423.2a4.1,4.1,0,0,1,.3,2.2,6,6,0,0,1-.8-2.1,5.7,5.7,0,0,1-.4-2.2C446.2,421,446.6,422,446.9,423.2Z"/><path class="cls-1" d="M448,423.2a5.7,5.7,0,0,1-.6,2,5.6,5.6,0,0,1,0-2c.2-1.1.4-2,.6-2A5.6,5.6,0,0,1,448,423.2Z"/><path class="cls-1" d="M454,428.8a14.7,14.7,0,0,0,2.1,3.9c-.1.1-.5-.2-1.1-.8a7.6,7.6,0,0,1-1.6-6.3c.1-.8.4-1.3.5-1.3A13.6,13.6,0,0,0,454,428.8Z"/><path class="cls-1" d="M453.3,423.7a4.4,4.4,0,0,1,.5,1.9c-.1.1-.6-.7-1-1.7a3.5,3.5,0,0,1-.2-1.9C452.8,422,453,422.8,453.3,423.7Z"/><path class="cls-1" d="M454.1,423.4c-.2,1-.1,1.8-.2,1.9a2.6,2.6,0,0,1-.4-1.9c.1-1.1.6-1.9.7-1.8S454.2,422.4,454.1,423.4Z"/><path class="cls-1" d="M455.3,423.7c-.7.7-1.3,1.2-1.4,1.1s.3-.7,1-1.4,1.2-1.2,1.3-1.1S455.9,423.1,455.3,423.7Z"/><path class="cls-1" d="M454.9,425a2.3,2.3,0,0,1-1.5,0c0-.2.7-.4,1.5-.5s1.4,0,1.4.1S455.7,424.9,454.9,425Z"/><path class="cls-1" d="M451,431.1a6.8,6.8,0,0,1,4.3,1.5,22.3,22.3,0,0,0-4.3-1,31.5,31.5,0,0,0-4.4.3A7.4,7.4,0,0,1,451,431.1Z"/><path class="cls-1" d="M445.8,430.3c1,.6,1.8,1.1,1.7,1.2a5.6,5.6,0,0,1-2.1-.7c-1-.6-1.7-1.3-1.6-1.4A5.2,5.2,0,0,1,445.8,430.3Z"/><path class="cls-1" d="M445.2,431.7a4.4,4.4,0,0,1,2,.1c0,.2-.8.4-1.9.5a7.7,7.7,0,0,1-2,.1C443.2,432.2,444.1,431.9,445.2,431.7Z"/><path class="cls-1" d="M445.9,433.4c.6-.9,1.3-1.3,1.4-1.2s-.4.7-1,1.5-.9,1.4-1.1,1.4A2.6,2.6,0,0,1,445.9,433.4Z"/><path class="cls-1" d="M447.4,433.4c0-.9.5-1.6.6-1.5s0,.7,0,1.5.1,1.5,0,1.6A2,2,0,0,1,447.4,433.4Z"/><path class="cls-1" d="M426.2,465.5a36.3,36.3,0,0,1-6.4-3.6,31.5,31.5,0,0,1-5.4-4.9,13.7,13.7,0,0,1-1.8-2.4,24.8,24.8,0,0,1,2.1,2.2,47.8,47.8,0,0,0,5.4,4.7,56.3,56.3,0,0,0,6.2,3.7,11.3,11.3,0,0,1,2.7,1.3A13.3,13.3,0,0,1,426.2,465.5Z"/><path class="cls-1" d="M409.7,453.5a13.7,13.7,0,0,1,4.5,3,6.8,6.8,0,0,1-2.4-1.2c-1.2-.9-2.1-1.6-2-1.8Z"/><path class="cls-1" d="M412.6,454.1a4.6,4.6,0,0,1,1,2c-.2,0-.8-.8-1.4-1.7s-1.3-1.8-1.2-1.9S411.9,453.1,412.6,454.1Z"/><path class="cls-1" d="M413.6,454.1a4.1,4.1,0,0,1,.3,2.2,6,6,0,0,1-.8-2.1,4.5,4.5,0,0,1-.4-2.3C412.9,451.9,413.3,452.9,413.6,454.1Z"/><path class="cls-1" d="M414.7,454.1c-.2,1.1-.4,2-.6,2a5.6,5.6,0,0,1,0-2,7.1,7.1,0,0,1,.5-2C414.8,452.1,414.8,453,414.7,454.1Z"/><path class="cls-1" d="M422.8,463.7a3.8,3.8,0,0,1-1.1-.9,7.5,7.5,0,0,1-1.7-6.3,5.2,5.2,0,0,1,.5-1.3A10.4,10.4,0,0,0,422.8,463.7Z"/><path class="cls-1" d="M420,454.6a4.4,4.4,0,0,1,.5,1.9c-.1.1-.6-.7-1-1.7a3.5,3.5,0,0,1-.2-1.9C419.4,452.8,419.7,453.7,420,454.6Z"/><path class="cls-1" d="M420.8,454.3c-.2,1-.1,1.8-.2,1.9a2.6,2.6,0,0,1-.4-1.9c.1-1.1.6-1.9.7-1.8S420.9,453.3,420.8,454.3Z"/><path class="cls-1" d="M422,454.7c-.7.7-1.3,1.1-1.4,1s.3-.7,1-1.4,1.2-1.1,1.3-1S422.6,454.1,422,454.7Z"/><path class="cls-1" d="M421.6,455.9c-.8.2-1.5.1-1.5-.1a2.8,2.8,0,0,1,1.4-.4c.8-.1,1.5-.1,1.5.1A2.8,2.8,0,0,1,421.6,455.9Z"/><path class="cls-1" d="M484.7,469.7a36.3,36.3,0,0,1-6.4-3.6,31.5,31.5,0,0,1-5.4-4.9,14.4,14.4,0,0,1-1.8-2.5l2.1,2.3a35,35,0,0,0,5.4,4.7,38.5,38.5,0,0,0,6.2,3.6l2.7,1.3A13.1,13.1,0,0,1,484.7,469.7Z"/><path class="cls-1" d="M470.6,459c1.2.8,2.1,1.6,2,1.7a6.8,6.8,0,0,1-2.4-1.2c-1.1-.8-2.1-1.6-2-1.7A5.5,5.5,0,0,1,470.6,459Z"/><path class="cls-1" d="M471.1,458.2c.7,1,1.1,2,.9,2s-.7-.7-1.4-1.6-1.2-1.8-1.1-1.9S470.3,457.3,471.1,458.2Z"/><path class="cls-1" d="M472,458.2a4.5,4.5,0,0,1,.4,2.3c-.2,0-.5-.9-.9-2.1a4.5,4.5,0,0,1-.3-2.3A6,6,0,0,1,472,458.2Z"/><path class="cls-1" d="M473.1,458.3a4.6,4.6,0,0,1-.5,2,4.3,4.3,0,0,1,0-2.1,3.9,3.9,0,0,1,.5-1.9C473.3,456.3,473.3,457.2,473.1,458.3Z"/><path class="cls-1" d="M479.1,463.9a12.6,12.6,0,0,0,2.2,3.9c-.1.1-.6-.2-1.1-.8a7.4,7.4,0,0,1-1.7-6.3c.2-.8.4-1.3.5-1.3A13.6,13.6,0,0,0,479.1,463.9Z"/><path class="cls-1" d="M478.5,458.8a7.1,7.1,0,0,1,.5,1.9,3.4,3.4,0,0,1-1-1.7c-.4-1-.4-2-.2-1.9S478.1,457.8,478.5,458.8Z"/><path class="cls-1" d="M479.2,458.5a16.2,16.2,0,0,1-.1,1.8c-.2.1-.5-.8-.4-1.8s.5-1.9.7-1.8A4.8,4.8,0,0,1,479.2,458.5Z"/><path class="cls-1" d="M480.4,458.9c-.6.6-1.2,1.1-1.3,1s.3-.7.9-1.4,1.3-1.2,1.4-1.1S481.1,458.2,480.4,458.9Z"/><path class="cls-1" d="M480.1,460.1c-.8.1-1.5.1-1.5-.1a2.8,2.8,0,0,1,1.4-.4c.8-.1,1.5-.1,1.5.1A2.8,2.8,0,0,1,480.1,460.1Z"/><path class="cls-1" d="M432.9,383.6a35.5,35.5,0,0,1-6.3-3.6,36.4,36.4,0,0,1-5.5-4.9,10.1,10.1,0,0,1-1.7-2.5,22,22,0,0,1,2,2.3,40.5,40.5,0,0,0,11.7,8.4l2.7,1.2A14,14,0,0,1,432.9,383.6Z"/><path class="cls-1" d="M418.9,372.9c1.2.8,2.1,1.6,2,1.7a6.8,6.8,0,0,1-2.4-1.2,8.6,8.6,0,0,1-2-1.8A7,7,0,0,1,418.9,372.9Z"/><path class="cls-1" d="M419.3,372.1a3.9,3.9,0,0,1,1,2c-.1.1-.7-.7-1.4-1.6s-1.3-1.8-1.1-1.9S418.6,371.1,419.3,372.1Z"/><path class="cls-1" d="M420.3,372.1a5.9,5.9,0,0,1,.4,2.3,4.3,4.3,0,0,1-.9-2.1,4.5,4.5,0,0,1-.3-2.3A6,6,0,0,1,420.3,372.1Z"/><path class="cls-1" d="M421.4,372.2a4.6,4.6,0,0,1-.5,2,4.3,4.3,0,0,1,0-2.1c.1-1.1.3-1.9.5-1.9A3.8,3.8,0,0,1,421.4,372.2Z"/><path class="cls-1" d="M427.4,377.8a13.9,13.9,0,0,0,2.1,4,2.6,2.6,0,0,1-1-.9,7.4,7.4,0,0,1-1.7-6.2c.2-.9.4-1.3.5-1.3A12.9,12.9,0,0,0,427.4,377.8Z"/><path class="cls-1" d="M426.8,372.7a5.3,5.3,0,0,1,.4,1.9c-.1.1-.6-.7-.9-1.7a3.1,3.1,0,0,1-.3-1.9C426.2,370.9,426.4,371.7,426.8,372.7Z"/><path class="cls-1" d="M427.5,372.4c-.1,1,0,1.8-.2,1.9a3.1,3.1,0,0,1-.3-1.9c.1-1.1.5-1.9.7-1.8A10.2,10.2,0,0,1,427.5,372.4Z"/><path class="cls-1" d="M428.7,372.8c-.6.7-1.2,1.1-1.3,1s.3-.7.9-1.4,1.3-1.1,1.4-1S429.4,372.1,428.7,372.8Z"/><path class="cls-1" d="M428.4,374c-.9.2-1.5.1-1.5,0s.6-.4,1.4-.5,1.5-.1,1.5.1A2.8,2.8,0,0,1,428.4,374Z"/><path class="cls-1" d="M424.4,380a8,8,0,0,1,4.3,1.5,32.9,32.9,0,0,0-4.3-.9,32.5,32.5,0,0,0-4.4.3A7.5,7.5,0,0,1,424.4,380Z"/><path class="cls-1" d="M419.1,379.3c1,.5,1.8,1,1.8,1.2a4.3,4.3,0,0,1-2-.8c-1.1-.6-1.8-1.2-1.7-1.3S418.1,378.7,419.1,379.3Z"/><path class="cls-1" d="M418.6,380.7a5,5,0,0,1,2.1.1c0,.2-.9.3-2,.5a7.7,7.7,0,0,1-2,.1C416.7,381.2,417.5,380.9,418.6,380.7Z"/><path class="cls-1" d="M419.3,382.3c.6-.8,1.3-1.3,1.5-1.1s-.4.7-1,1.5-1,1.4-1.1,1.4S418.7,383.2,419.3,382.3Z"/><path class="cls-1" d="M420.8,382.4c0-1,.5-1.6.7-1.5a13.6,13.6,0,0,1-.1,1.5c0,.8.2,1.5,0,1.5S420.8,383.4,420.8,382.4Z"/><path class="cls-1" d="M500.6,409.9a30.1,30.1,0,0,1-1.2-7.2,35.4,35.4,0,0,1,.4-7.3,16.7,16.7,0,0,1,.8-3c-.1,1-.2,2-.4,3a43.4,43.4,0,0,0-.3,7.2,44.8,44.8,0,0,0,1.1,7.2,24.6,24.6,0,0,1,.7,2.9A9.6,9.6,0,0,1,500.6,409.9Z"/><path class="cls-1" d="M500.2,392.2a8.2,8.2,0,0,1-.1,2.7,13.9,13.9,0,0,1-.5-5.3A5.8,5.8,0,0,1,500.2,392.2Z"/><path class="cls-1" d="M501,392.1a4.4,4.4,0,0,1-.9,2c-.2,0,.1-1,.4-2.1a6.5,6.5,0,0,1,.7-2.1A3.4,3.4,0,0,1,501,392.1Z"/><path class="cls-1" d="M501.6,392.9a7,7,0,0,1-1.5,1.7,5.6,5.6,0,0,1,1.1-2c.7-1,1.4-1.8,1.5-1.7S502.4,391.9,501.6,392.9Z"/><path class="cls-1" d="M502.3,393.7c-1,.6-1.8,1-1.9.8s.6-.6,1.6-1.2,1.7-1,1.8-.8S503.2,393.2,502.3,393.7Z"/><path class="cls-1" d="M501.7,401.9a15.7,15.7,0,0,0-1.8,4.2,3.3,3.3,0,0,1,0-1.4,7.3,7.3,0,0,1,1.4-3.1,7.6,7.6,0,0,1,2.5-2.2,2.8,2.8,0,0,1,1.3-.4A13.7,13.7,0,0,0,501.7,401.9Z"/><path class="cls-1" d="M505.2,398.3c-.5.8-1,1.6-1.1,1.5a3,3,0,0,1,.7-1.8c.6-.9,1.2-1.5,1.3-1.4S505.8,397.4,505.2,398.3Z"/><path class="cls-1" d="M505.9,398.7c-.8.5-1.4,1-1.5.9s.3-.8,1.2-1.4,1.8-.8,1.8-.6S506.7,398.2,505.9,398.7Z"/><path class="cls-1" d="M506.4,399.8c-.9-.1-1.7-.3-1.6-.5s.7-.2,1.7-.1a3.6,3.6,0,0,1,1.6.4C508.1,399.8,507.3,399.8,506.4,399.8Z"/><path class="cls-1" d="M505.2,400.3c-.6-.6-.9-1.1-.8-1.2s.6.2,1.2.8.9,1.1.8,1.2S505.8,400.9,505.2,400.3Z"/><path class="cls-1" d="M498,401a6.6,6.6,0,0,1,1.5,4.2,23.3,23.3,0,0,0-1.9-3.9,30,30,0,0,0-3-3.2A7.4,7.4,0,0,1,498,401Z"/><path class="cls-1" d="M495.4,396.3c.2,1.2.3,2.1.1,2.2a4.9,4.9,0,0,1-.7-2.1c-.2-1.1-.1-2.1.1-2.1A7.1,7.1,0,0,1,495.4,396.3Z"/><path class="cls-1" d="M493.9,396.9c.8.8,1.3,1.6,1.2,1.7s-.8-.5-1.6-1.3-1.4-1.4-1.3-1.5S493.1,396.2,493.9,396.9Z"/><path class="cls-1" d="M493.1,398.5c1-.1,1.8.2,1.8.4h-1.8c-1,.1-1.8.2-1.8,0A2.6,2.6,0,0,1,493.1,398.5Z"/><path class="cls-1" d="M494,399.7a1.8,1.8,0,0,1,1.6-.5c0,.2-.7.4-1.3.9s-1,1.1-1.2,1S493.2,400.3,494,399.7Z"/><path class="cls-2" d="M546.8,310c-.1-.2,0-.4.1-.4a.3.3,0,0,1,.3.3c.1.2,0,.5-.1.4S546.8,310.2,546.8,310Z"/><path class="cls-2" d="M523.1,313.7c.2-.4.5-.5.5-.4s0,.4-.1.6-.3.5-.4.5S522.9,314.1,523.1,313.7Z"/><path class="cls-2" d="M519.4,314.3c-.2-.3-.2-.6-.1-.7a.6.6,0,0,1,.5.5c.2.3.2.5.1.6S519.6,314.6,519.4,314.3Z"/><path class="cls-2" d="M516.4,315.4c-.1-.3-.2-.5-.1-.6s.4.1.5.3.2.6,0,.6S516.5,315.6,516.4,315.4Z"/><path class="cls-2" d="M522.9,319.1a.5.5,0,0,1,.4-.3,1.1,1.1,0,0,1-.1.5c-.1.2-.2.3-.4.2S522.7,319.3,522.9,319.1Z"/><path class="cls-2" d="M519.3,318.8c-.1-.2,0-.4.1-.4a.3.3,0,0,1,.3.3c.1.2,0,.4-.1.4A.3.3,0,0,1,519.3,318.8Z"/><path class="cls-2" d="M528.1,313.1c0-.1.2-.2.3-.2h0l.2.3h0c-.1.1-.2.2-.3.1Z"/><path class="cls-2" d="M537.2,309c0-.2.1-.4.2-.4s.2.2.2.4-.1.4-.3.4S537.1,309.2,537.2,309Z"/><path class="cls-2" d="M543,312.3a.4.4,0,0,1,.1-.5c.1,0,.3.1.3.4s0,.5-.1.5A.4.4,0,0,1,543,312.3Z"/><path class="cls-2" d="M536.5,301.6a.7.7,0,0,1,.1-.5c.2,0,.3.2.4.4s0,.5-.2.5S536.6,301.8,536.5,301.6Z"/><path class="cls-1" d="M515.5,415.3c11.1,8.7,19.9,15.9,19.8,16s-9.1-6.8-20.1-15.5-19.8-15.9-19.7-16S504.5,406.6,515.5,415.3Z"/><path class="cls-3" d="M529.4,472.2l-95.5-5.1a68.3,68.3,0,0,1-59.4-49.7c-9.8-34.5-20.5-75.6-21.6-88.8-2.1-25.2,26.4-39.8,26.4-39.8L431.7,411l86.1,24.5Z"/><path class="cls-6" d="M393.9,449.3l1.4,1.6a39,39,0,0,0,6.3,5.1,62,62,0,0,0,11.4,6,68.6,68.6,0,0,0,16.6,4.2c12.6,1.7,27.8,2.9,44.7,3.8s35.5,1.6,55.1,2l-.2.3-1.7-5.3-10-31.4.2.2L474.2,423l-18.6-5.5-16.1-4.6a84.3,84.3,0,0,0-13.3-2.5,35,35,0,0,0-10.2.6l-1.9.5-1.6.5-2.5,1-1.4.8-.5.3.4-.3,1.5-.9,2.4-1.1,1.7-.5,1.9-.5a35.5,35.5,0,0,1,10.3-.6,76.9,76.9,0,0,1,13.4,2.4c4.9,1.3,10.3,2.9,16.1,4.6l18.6,5.4L518,435.3h.1c3.2,10,6.5,20.6,9.9,31.4l1.7,5.3v.4h-.3c-19.7-.4-38.3-1.1-55.2-2s-32.1-2.2-44.7-3.9a74.6,74.6,0,0,1-16.7-4.3,69.3,69.3,0,0,1-11.4-6.1,35.4,35.4,0,0,1-6.3-5.3l-1.8-2.2Z"/><path class="cls-6" d="M402.7,332.9l1,2.2c.9,1.9,2.1,4.8,3.6,8.4,2.9,7.1,6.6,17.1,10.5,28.2s7.5,21,10,28.3l3.1,8.6.9,2.4a1.9,1.9,0,0,1,.2.8l-.3-.8-1-2.3c-.8-2-1.9-4.9-3.2-8.5-2.8-7.2-6.4-17.2-10.2-28.3s-7.6-21.1-10.4-28.2c-1.4-3.6-2.6-6.5-3.4-8.5l-1-2.3a1.9,1.9,0,0,1-.2-.8C402.4,332.4,402.6,332.6,402.7,332.9Z"/><path class="cls-6" d="M503.5,325.6c.2.6.4,1.3.8,2.3s1.6,5,2.8,8.7c2.2,7.4,5.1,17.6,8,29l7.4,29.1,2.3,8.9.7,2.4c0,.3.1.5.1.8l-.3-.8c-.1-.6-.4-1.4-.7-2.4s-1.4-5-2.5-8.7c-2-7.5-4.7-17.8-7.6-29.1s-5.7-21.7-7.8-29.1q-1.6-5.6-2.7-8.7l-.7-2.4c-.1-.2-.1-.5-.2-.8Z"/><path class="cls-1" d="M382.8,330.4a29.1,29.1,0,0,1-6.4-3.6,31.1,31.1,0,0,1-5.4-4.9,10.8,10.8,0,0,1-1.8-2.4c.1,0,.8.9,2.1,2.2a41.3,41.3,0,0,0,5.5,4.7,35,35,0,0,0,6.2,3.7l2.7,1.3A10,10,0,0,1,382.8,330.4Z"/><path class="cls-1" d="M366.3,318.5a12,12,0,0,1,4.5,2.9,5.5,5.5,0,0,1-2.4-1.2c-1.2-.8-2.1-1.6-2-1.7Z"/><path class="cls-1" d="M369.2,319c.8,1,1.1,1.9,1,2s-.7-.7-1.4-1.7-1.3-1.8-1.2-1.9S368.5,318,369.2,319Z"/><path class="cls-1" d="M370.2,319a4.1,4.1,0,0,1,.3,2.2,4.9,4.9,0,0,1-.8-2.1,5.7,5.7,0,0,1-.4-2.2C369.5,316.8,369.9,317.8,370.2,319Z"/><path class="cls-1" d="M371.3,319a7.1,7.1,0,0,1-.5,2c-.2,0-.2-.9-.1-2s.4-2,.6-2A5.8,5.8,0,0,1,371.3,319Z"/><path class="cls-1" d="M377.3,324.6a13.9,13.9,0,0,0,2.1,4,2.6,2.6,0,0,1-1-.9,7.1,7.1,0,0,1-1.7-6.2c.1-.9.4-1.3.5-1.3A12.9,12.9,0,0,0,377.3,324.6Z"/><path class="cls-1" d="M376.6,319.6a3.8,3.8,0,0,1,.5,1.8c-.1.1-.6-.6-.9-1.7a3.1,3.1,0,0,1-.3-1.9C376.1,317.8,376.3,318.6,376.6,319.6Z"/><path class="cls-1" d="M377.4,319.2c-.1,1,0,1.9-.2,1.9a2.6,2.6,0,0,1-.4-1.9c.1-1.1.6-1.9.7-1.8S377.5,318.3,377.4,319.2Z"/><path class="cls-1" d="M378.5,319.6c-.6.7-1.2,1.2-1.3,1.1s.3-.8.9-1.5,1.3-1.1,1.4-1S379.2,318.9,378.5,319.6Z"/><path class="cls-1" d="M378.2,320.9c-.8.1-1.4,0-1.4-.1s.6-.3,1.4-.5a2.6,2.6,0,0,1,1.5.1C379.7,320.6,379,320.7,378.2,320.9Z"/><path class="cls-1" d="M378.6,328.4a22.3,22.3,0,0,0-4.3-1,21.2,21.2,0,0,0-4.4.4A8.5,8.5,0,0,1,378.6,328.4Z"/><path class="cls-1" d="M369.1,326.1c1,.6,1.8,1,1.7,1.2a5.6,5.6,0,0,1-2.1-.7c-1-.6-1.7-1.3-1.6-1.4A5.2,5.2,0,0,1,369.1,326.1Z"/><path class="cls-1" d="M368.5,327.6c1.1-.2,2-.1,2,.1s-.8.3-1.9.4a7.7,7.7,0,0,1-2,.1A3.5,3.5,0,0,1,368.5,327.6Z"/><path class="cls-1" d="M369.2,329.2c.6-.9,1.3-1.3,1.5-1.2s-.4.7-1,1.5-1,1.5-1.2,1.4A2.6,2.6,0,0,1,369.2,329.2Z"/><path class="cls-1" d="M370.7,329.2c0-.9.5-1.6.6-1.5s0,.7,0,1.5.2,1.5,0,1.6S370.7,330.2,370.7,329.2Z"/><path class="cls-1" d="M380.3,381.7a31.7,31.7,0,0,1,10.4-10.2,9.6,9.6,0,0,1,2.7-1.3l-2.5,1.6a41.2,41.2,0,0,0-10.3,10.1l-1.7,2.4A21.5,21.5,0,0,1,380.3,381.7Z"/><path class="cls-1" d="M393.3,369.6c-1,1.1-1.9,1.9-2,1.8a6,6,0,0,1,1.6-2.1c1-1.1,1.9-1.9,2.1-1.8A5.8,5.8,0,0,1,393.3,369.6Z"/><path class="cls-1" d="M394,370.2c-1.1.6-2.1.8-2.2.6a11.3,11.3,0,0,1,1.9-1.1,7,7,0,0,1,2-.8C395.8,369.1,395,369.7,394,370.2Z"/><path class="cls-1" d="M393.8,371.2a6,6,0,0,1-2.3-.1,8.6,8.6,0,0,1,4.5-.4A5.4,5.4,0,0,1,393.8,371.2Z"/><path class="cls-1" d="M393.5,372.2a5,5,0,0,1-1.8-.8,4.9,4.9,0,0,1,2,.3c1,.3,1.8.7,1.8.9A4.2,4.2,0,0,1,393.5,372.2Z"/><path class="cls-1" d="M387,377.3a12.3,12.3,0,0,0-4.2,1.4c-.1-.1.2-.5,1-.9a7.2,7.2,0,0,1,6.4-.6c.8.3,1.2.6,1.2.7A10.9,10.9,0,0,0,387,377.3Z"/><path class="cls-1" d="M392.1,377.5c-1,.2-1.9.3-1.9.1s.7-.5,1.8-.7a4.4,4.4,0,0,1,2,.1C394,377.2,393.1,377.3,392.1,377.5Z"/><path class="cls-1" d="M392.3,378.2l-1.8-.4c0-.2.9-.4,1.9-.1s1.8.9,1.7,1A6,6,0,0,1,392.3,378.2Z"/><path class="cls-1" d="M391.7,379.4c-.5-.8-.9-1.5-.8-1.6s.7.5,1.3,1.2a5.1,5.1,0,0,1,.8,1.5C392.8,380.6,392.3,380.1,391.7,379.4Z"/><path class="cls-1" d="M390.6,378.8c0-.8.2-1.5.3-1.4s.2.6.2,1.4-.2,1.5-.4,1.5A2.8,2.8,0,0,1,390.6,378.8Z"/><path class="cls-1" d="M385.3,373.9a7.3,7.3,0,0,1-2.2,3.9,28.3,28.3,0,0,0,1.7-4,32.7,32.7,0,0,0,.4-4.4A6.9,6.9,0,0,1,385.3,373.9Z"/><path class="cls-1" d="M387,368.8c-.8.9-1.4,1.6-1.5,1.5a4.5,4.5,0,0,1,1-1.8c.8-.9,1.6-1.5,1.7-1.4S387.7,367.9,387,368.8Z"/><path class="cls-1" d="M385.6,368.1c0,1.1-.2,2-.4,2s-.2-1-.1-2a5.4,5.4,0,0,1,.2-2C385.5,366.1,385.7,367,385.6,368.1Z"/><path class="cls-1" d="M383.9,368.5c.7.7,1,1.5.9,1.6s-.6-.6-1.3-1.3-1.3-1.2-1.2-1.3S383.2,367.7,383.9,368.5Z"/><path class="cls-1" d="M383.6,370c.9.1,1.5.7,1.4.8s-.7-.1-1.5-.3l-1.5-.2C381.9,370.1,382.7,369.8,383.6,370Z"/><path class="cls-1" d="M429.6,445.9A32.7,32.7,0,0,1,440,435.7a11.3,11.3,0,0,1,2.7-1.3l-2.5,1.6a41.2,41.2,0,0,0-10.3,10.1l-1.7,2.5A11.5,11.5,0,0,1,429.6,445.9Z"/><path class="cls-1" d="M442.6,433.9c-1,1-1.9,1.8-2.1,1.7a6.8,6.8,0,0,1,1.7-2.1c1-1.1,1.9-1.9,2-1.8A6.9,6.9,0,0,1,442.6,433.9Z"/><path class="cls-1" d="M443.3,434.5c-1.1.5-2.1.7-2.2.5a8.2,8.2,0,0,1,1.9-1c1.1-.5,1.9-1,2-.8S444.3,433.9,443.3,434.5Z"/><path class="cls-1" d="M443.1,435.4a4.5,4.5,0,0,1-2.3,0,9.8,9.8,0,0,1,4.5-.5C445.3,435.1,444.3,435.3,443.1,435.4Z"/><path class="cls-1" d="M442.8,436.5c-1-.4-1.9-.7-1.8-.9a4.9,4.9,0,0,1,2,.3c1,.4,1.8.7,1.8.9A4.9,4.9,0,0,1,442.8,436.5Z"/><path class="cls-1" d="M436.3,441.5a13.6,13.6,0,0,0-4.3,1.4c0-.1.3-.5,1.1-.9a6.8,6.8,0,0,1,3.1-1.1,7.2,7.2,0,0,1,3.3.5c.8.3,1.2.6,1.2.7A10.9,10.9,0,0,0,436.3,441.5Z"/><path class="cls-1" d="M441.4,441.7c-1,.2-1.9.3-1.9.1s.7-.5,1.8-.7a4.4,4.4,0,0,1,2,.1C443.3,441.4,442.4,441.5,441.4,441.7Z"/><path class="cls-1" d="M441.6,442.4a8,8,0,0,1-1.8-.4c0-.2.9-.4,1.9-.1s1.8.9,1.7,1S442.5,442.7,441.6,442.4Z"/><path class="cls-1" d="M441,443.6c-.5-.8-.9-1.4-.8-1.5s.7.4,1.3,1.2.9,1.4.8,1.5S441.6,444.3,441,443.6Z"/><path class="cls-1" d="M439.9,443c0-.8.2-1.5.3-1.4s.3.6.2,1.4-.2,1.5-.4,1.5A2.6,2.6,0,0,1,439.9,443Z"/><path class="cls-1" d="M432.4,442.1a29.5,29.5,0,0,0,1.7-4.1,32.7,32.7,0,0,0,.4-4.4A8.6,8.6,0,0,1,432.4,442.1Z"/><path class="cls-1" d="M436.3,433a13,13,0,0,1-1.5,1.6,4,4,0,0,1,1-1.9c.8-.9,1.6-1.5,1.7-1.4S437,432.2,436.3,433Z"/><path class="cls-1" d="M434.9,432.3a3.8,3.8,0,0,1-.4,2c-.2-.1-.2-.9-.1-2a5.4,5.4,0,0,1,.2-2C434.8,430.3,434.9,431.2,434.9,432.3Z"/><path class="cls-1" d="M433.2,432.7c.7.7,1,1.5.9,1.6s-.6-.5-1.3-1.2-1.3-1.2-1.2-1.4S432.5,431.9,433.2,432.7Z"/><path class="cls-1" d="M432.9,434.2c.9.2,1.5.7,1.4.9s-.7-.2-1.5-.4-1.5-.1-1.5-.2S431.9,434,432.9,434.2Z"/><path class="cls-1" d="M401.2,428a31.1,31.1,0,0,1-7-12.7,13.6,13.6,0,0,1-.6-2.9,13.1,13.1,0,0,1,.9,2.8,39.1,39.1,0,0,0,7,12.6,21.1,21.1,0,0,1,1.9,2.3A11,11,0,0,1,401.2,428Z"/><path class="cls-1" d="M393,412.4a6.6,6.6,0,0,1,1.1,2.4,10.5,10.5,0,0,1-1.6-2.2,6.6,6.6,0,0,1-1.1-2.4A7.9,7.9,0,0,1,393,412.4Z"/><path class="cls-1" d="M393.8,411.9a4.1,4.1,0,0,1,0,2.2c-.2,0-.4-1.1-.6-2.2s-.4-2-.2-2.1A6,6,0,0,1,393.8,411.9Z"/><path class="cls-1" d="M394.6,412.3a4.6,4.6,0,0,1-.6,2.2,9.7,9.7,0,0,1,.7-4.5A3.7,3.7,0,0,1,394.6,412.3Z"/><path class="cls-1" d="M395.6,412.8c-.6.9-1.2,1.6-1.3,1.5a4,4,0,0,1,.8-1.8c.6-.9,1.2-1.6,1.3-1.5S396.2,411.9,395.6,412.8Z"/><path class="cls-1" d="M398.7,420.5a13,13,0,0,0,.2,4.4c-.1,0-.4-.4-.6-1.2a7.6,7.6,0,0,1,1.1-6.4,3.8,3.8,0,0,1,1-1A12.8,12.8,0,0,0,398.7,420.5Z"/><path class="cls-1" d="M400.2,415.5a5.9,5.9,0,0,1-.3,1.9c-.2,0-.3-.8-.2-1.9a3.5,3.5,0,0,1,.6-1.9C400.5,413.7,400.4,414.5,400.2,415.5Z"/><path class="cls-1" d="M401,415.6c-.5.8-.8,1.6-.9,1.6s-.1-1,.4-1.9,1.4-1.4,1.4-1.3S401.5,414.7,401,415.6Z"/><path class="cls-1" d="M402,416.4a2.9,2.9,0,0,1-1.7.4c-.1-.2.6-.6,1.5-.9a4,4,0,0,1,1.6-.4C403.5,415.7,402.8,416.1,402,416.4Z"/><path class="cls-1" d="M401.1,417.4c-.8-.3-1.3-.6-1.3-.7s.7-.1,1.5.2,1.3.5,1.3.7A3.3,3.3,0,0,1,401.1,417.4Z"/><path class="cls-1" d="M390.7,420.1a8.5,8.5,0,0,1,7.6,4.2,29.7,29.7,0,0,0-3.5-2.7,29.9,29.9,0,0,0-4.2-1.5Z"/><path class="cls-1" d="M390.5,418.2c.7,1,1.2,1.7,1.1,1.8s-.8-.5-1.5-1.5a3.4,3.4,0,0,1-.9-1.9C389.3,416.5,389.9,417.3,390.5,418.2Z"/><path class="cls-1" d="M389.5,419.3c1,.4,1.8.8,1.8,1a5.7,5.7,0,0,1-2-.4l-1.8-.8C387.5,418.9,388.4,419,389.5,419.3Z"/><path class="cls-1" d="M389.4,421.1a3,3,0,0,1,1.8-.5c0,.2-.7.5-1.5.9s-1.5,1-1.6.9S388.5,421.6,389.4,421.1Z"/><path class="cls-1" d="M390.7,421.8c.5-.9,1.2-1.3,1.3-1.1s-.4.6-.8,1.3-.4,1.4-.6,1.4A1.7,1.7,0,0,1,390.7,421.8Z"/><path class="cls-1" d="M493,453.7a31.1,31.1,0,0,1-7-12.7,13.6,13.6,0,0,1-.6-2.9,13.1,13.1,0,0,1,.9,2.8,39.1,39.1,0,0,0,7,12.6,21.1,21.1,0,0,1,1.9,2.3A11,11,0,0,1,493,453.7Z"/><path class="cls-1" d="M484.9,438.1a6.6,6.6,0,0,1,1.1,2.4,7.6,7.6,0,0,1-1.6-2.2,6.8,6.8,0,0,1-1.2-2.4A7.1,7.1,0,0,1,484.9,438.1Z"/><path class="cls-1" d="M485.6,437.6a4.1,4.1,0,0,1,0,2.2,8.5,8.5,0,0,1-.5-2.2,8.4,8.4,0,0,1-.3-2.1C485,435.5,485.4,436.4,485.6,437.6Z"/><path class="cls-1" d="M485.8,440.2a9.7,9.7,0,0,1,.8-4.5A8.8,8.8,0,0,1,485.8,440.2Z"/><path class="cls-1" d="M487.4,438.5c-.6.9-1.1,1.6-1.3,1.5a5,5,0,0,1,.9-1.8c.6-.9,1.2-1.6,1.3-1.5A5,5,0,0,1,487.4,438.5Z"/><path class="cls-1" d="M490.5,446.1a13.7,13.7,0,0,0,.3,4.5c-.1,0-.4-.4-.6-1.2a7,7,0,0,1,1.1-6.4,3.8,3.8,0,0,1,1-1A16.5,16.5,0,0,0,490.5,446.1Z"/><path class="cls-1" d="M492.1,441.3c-.1,1-.2,1.8-.4,1.8s-.3-.8-.2-1.9.5-1.9.7-1.9A7.7,7.7,0,0,1,492.1,441.3Z"/><path class="cls-1" d="M492.9,441.3c-.5.8-.8,1.6-1,1.6a3.1,3.1,0,0,1,.5-1.9c.5-.9,1.3-1.4,1.4-1.3S493.4,440.4,492.9,441.3Z"/><path class="cls-1" d="M493.8,442.1a2.8,2.8,0,0,1-1.7.4c0-.2.6-.5,1.5-.9a4.3,4.3,0,0,1,1.7-.4C495.4,441.4,494.7,441.8,493.8,442.1Z"/><path class="cls-1" d="M493,443.1c-.8-.3-1.4-.6-1.3-.7s.7-.1,1.4.2a2.2,2.2,0,0,1,1.3.7C494.4,443.4,493.7,443.4,493,443.1Z"/><path class="cls-1" d="M482.5,445.8a8.7,8.7,0,0,1,7.6,4.2,31.8,31.8,0,0,0-3.5-2.6,20.5,20.5,0,0,0-4.1-1.6Z"/><path class="cls-1" d="M482.4,443.9c.7,1,1.2,1.7,1.1,1.8s-.9-.5-1.6-1.5a4.5,4.5,0,0,1-.9-1.9C481.2,442.2,481.7,443,482.4,443.9Z"/><path class="cls-1" d="M481.3,445c1.1.4,1.9.8,1.8,1a5.3,5.3,0,0,1-1.9-.4l-1.9-.8C479.3,444.6,480.3,444.7,481.3,445Z"/><path class="cls-1" d="M481.2,446.8c1-.5,1.8-.6,1.8-.5s-.6.5-1.5.9-1.5,1-1.6.9S480.3,447.3,481.2,446.8Z"/><path class="cls-1" d="M482.6,447.5c.4-.9,1.1-1.3,1.2-1.1s-.3.6-.7,1.3-.5,1.4-.6,1.4S482.2,448.4,482.6,447.5Z"/><path class="cls-4" d="M550.3,410.7l-11.4,4c-2,.7-20.7,22.3-20.7,22.3l10.2,32,23.6-.5,11.6-23.7,2-6.8-7.2-10-13.3-.7,10.2-9.4s6.8-3.9,7.8-7.6a12.5,12.5,0,0,0,.4-5.1,1.9,1.9,0,0,0-.2-.8,1.8,1.8,0,0,0-2.5-.5Z"/><path class="cls-5" d="M546.8,429.7a12.9,12.9,0,0,0,3.6,3.4,2.4,2.4,0,0,1-1.4-.5,8.1,8.1,0,0,1-2.7-2.5,8.2,8.2,0,0,1-1.3-3.5,2.6,2.6,0,0,1,.1-1.5A10.7,10.7,0,0,0,546.8,429.7Z"/><path class="cls-10" d="M475,265.4s14.1-7.8,16.4-10,12.4-6,12.4-6,5-3.5,17.4,1.4,14,23.4,14,23.4-2,26.4-4.7,25.9a3.7,3.7,0,0,1-3.5-3.9.7.7,0,0,0,.1-.5c.3-1.9,1.3-9.1,1.3-9.1l-3.5-7.3s-9,23.5-11.9,24.2-5.5-.8-5.1-3.6,8.5-21.9,8.3-22.8-11.6,20-11.6,20-3.3,4.9-5.8,4-3.7-3-2.5-5.1,9.9-26.2,9.9-26.2l-9.6,12.7-5.2,10.3a3.2,3.2,0,0,1-3.5,1.7,2.3,2.3,0,0,1-1.7-2.1c-.5-3.1,4.1-15.1,4.1-15.1l7.7-15.4-5.1,1.9s-7.4,3.8-10.6,4.3S475,265.4,475,265.4Z"/><path class="cls-11" d="M256.9,147.8a3.7,3.7,0,0,0,4.7,2.1,3.5,3.5,0,0,0,2.3-4.5,3.8,3.8,0,0,0-4.7-2.1A3.5,3.5,0,0,0,256.9,147.8Z"/><path class="cls-11" d="M250.3,138.9c.6.3,2.4-2.7,6.1-4.2s7.2-.8,7.4-1.4-.6-.9-2.1-1.2a10,10,0,0,0-6.2.6,9.8,9.8,0,0,0-4.7,3.8C250,137.9,250,138.8,250.3,138.9Z"/><path class="cls-11" d="M292.5,134.7a3.7,3.7,0,0,0,4.7,2,3.3,3.3,0,0,0,2.3-4.4,3.7,3.7,0,0,0-7,2.4Z"/><path class="cls-11" d="M287.6,131.1c.6.2,2.5-2.7,6.2-4.2s7.2-.8,7.4-1.4-.6-.9-2.2-1.3a11.3,11.3,0,0,0-6.1.6,10.5,10.5,0,0,0-4.7,3.9C287.4,130,287.3,131,287.6,131.1Z"/><path class="cls-11" d="M285.7,160.8c-.1-.2-2.6.3-6.5,1.4-1,.3-2,.4-2.4-.1s-.5-1.7-.5-3v-8.2c-.2-11.6-.7-21-1.2-20.9s-.7,9.4-.5,21c0,2.8.1,5.6.1,8.2s0,2.6,1,3.8a2.6,2.6,0,0,0,2.1.7l1.7-.4C283.4,161.9,285.7,161,285.7,160.8Z"/><path class="cls-11" d="M305.5,156.1c-1,.4.6,4.2-4,9.2s-12,7.4-11.8,8,1.9.1,5-1.1a27.4,27.4,0,0,0,9.9-6.4c2.8-3.1,3.4-5.9,2.9-7.5S305.9,155.9,305.5,156.1Z"/><path class="cls-11" d="M281.5,114.7c.8.8,4.3-1.1,8.9-2.4s8.5-1.5,8.7-2.7-.9-1.2-2.7-1.5a14.8,14.8,0,0,0-7.1.4,15.5,15.5,0,0,0-6.3,3.4C281.7,113.2,281.2,114.3,281.5,114.7Z"/><path class="cls-11" d="M248.5,131.6c1,.6,3.2-1.3,6.3-2.6s5.9-1.8,6.2-2.9-.7-1.1-2.1-1.5a9.3,9.3,0,0,0-5.7.8,9,9,0,0,0-4.3,3.7C248.1,130.3,248.1,131.3,248.5,131.6Z"/><path class="cls-12" d="M306.8,138.8c.3,0,.4-.2.4-.5a.5.5,0,0,0-.5-.4.5.5,0,0,0-.4.6C306.4,138.7,306.6,138.9,306.8,138.8Z"/><path class="cls-12" d="M299.1,140.2a.6.6,0,0,0,.3-.7c0-.3-.3-.5-.5-.4s-.4.3-.3.6A.5.5,0,0,0,299.1,140.2Z"/><path class="cls-12" d="M294.3,142c.2-.1.3-.4.2-.8a.7.7,0,0,0-.6-.6c-.2.1-.3.4-.2.8S294,142.1,294.3,142Z"/><path class="cls-12" d="M305.1,144.6c.2-.1.4-.3.3-.4s-.3-.2-.5-.1-.4.3-.3.4S304.9,144.7,305.1,144.6Z"/><path class="cls-12" d="M298,145.8c.2-.1.4-.4.3-.6a.6.6,0,0,0-.6-.4c-.2.1-.4.4-.3.6A.6.6,0,0,0,298,145.8Z"/><path class="cls-12" d="M262.5,155.6c.3,0,.4-.3.4-.6a.7.7,0,0,0-.6-.4.5.5,0,0,0-.3.6C262,155.5,262.3,155.6,262.5,155.6Z"/><path class="cls-12" d="M257.5,157.1c.2,0,.4-.3.3-.6s-.4-.5-.6-.4-.4.4-.3.6S257.3,157.2,257.5,157.1Z"/><path class="cls-12" d="M266.8,154a.5.5,0,0,0,.4-.5c0-.2-.3-.3-.5-.3a.7.7,0,0,0-.4.5A.5.5,0,0,0,266.8,154Z"/><path class="cls-12" d="M265.2,160.2c.2,0,.4-.3.4-.5a.5.5,0,0,0-.4-.5c-.2-.1-.4.2-.5.4A.6.6,0,0,0,265.2,160.2Z"/><path class="cls-12" d="M260.7,161c.2-.1.3-.4.1-.5s-.3-.2-.5,0a.4.4,0,0,0-.2.5A.4.4,0,0,0,260.7,161Z"/></svg>