<svg xmlns="http://www.w3.org/2000/svg" viewBox="0 0 580 480"><defs><style>.cls-1{isolation:isolate;}.cls-2,.cls-4{opacity:0.42;}.cls-3,.cls-4{fill:#fdfdfd;}.cls-5{fill:#dd3a1d;}.cls-6{fill:#dae7f0;}.cls-7{fill:#8492a1;}.cls-8{fill:#ced9d7;}.cls-9{fill:#e66d0b;}.cls-10{fill:#ba5809;}.cls-11{fill:#ffb67a;}.cls-12{fill:#fcc033;}.cls-13,.cls-24{fill:#889699;}.cls-13,.cls-19{opacity:0.3;}.cls-13,.cls-15,.cls-19{mix-blend-mode:multiply;}.cls-14{fill:#2b4751;}.cls-15{fill:#edd2b2;opacity:0.5;}.cls-16{fill:#ffbe9d;}.cls-17{fill:#eb996e;}.cls-18{fill:#20e57e;}.cls-19{fill:#52627a;}.cls-20{fill:#0b6d53;}.cls-21{fill:#455a64;}.cls-22{fill:#a2a5ad;opacity:0.6;}.cls-23{fill:#272f44;}</style></defs><g class="cls-1"><g id="_1" data-name="1"><g class="cls-2"><path class="cls-3" d="M144.33,61.82a49.92,49.92,0,0,0-5.66,7.51,36.88,36.88,0,0,0-3.84,8.24,27.2,27.2,0,0,0-1.31,8.67,15.52,15.52,0,0,0,.56,4.11,11.13,11.13,0,0,0,.69,1.83,12.11,12.11,0,0,0,1,1.67,28.76,28.76,0,0,0,3,3.22,24.19,24.19,0,0,1,3.36,4,14.31,14.31,0,0,1,2,5.09,18.23,18.23,0,0,1,.2,5.26,15.84,15.84,0,0,1-1.41,5,15.43,15.43,0,0,1-3,4.21,17.32,17.32,0,0,1-4,3,16.51,16.51,0,0,1-4.54,1.69,20.85,20.85,0,0,0,6.87-6.07,14.08,14.08,0,0,0,1.13-1.89,12.17,12.17,0,0,0,.8-2,14.13,14.13,0,0,0,.64-4.18,19,19,0,0,0-.14-2.12c-.06-.35-.09-.71-.17-1l-.1-.51c0-.17-.09-.33-.13-.5a11.16,11.16,0,0,0-1.68-3.59,21.6,21.6,0,0,0-2.92-3.15,30.17,30.17,0,0,1-3.49-3.73,15.86,15.86,0,0,1-1.44-2.38,14.67,14.67,0,0,1-.95-2.62,18.55,18.55,0,0,1-.53-5.29,26.76,26.76,0,0,1,2.26-9.88A31.66,31.66,0,0,1,136.92,68a32.84,32.84,0,0,1,3.48-3.4A27.53,27.53,0,0,1,144.33,61.82Z"/><path class="cls-3" d="M129.13,49.23a60.45,60.45,0,0,0-6.91,9.14,45.27,45.27,0,0,0-4.67,10.05A33.09,33.09,0,0,0,116,79a19.25,19.25,0,0,0,.68,5,14.21,14.21,0,0,0,.84,2.23,15.49,15.49,0,0,0,1.26,2,34.61,34.61,0,0,0,3.63,3.92A29.43,29.43,0,0,1,126.45,97a17.22,17.22,0,0,1,2.45,6.21,22.59,22.59,0,0,1,.25,6.4,19.31,19.31,0,0,1-1.73,6.16,18.58,18.58,0,0,1-3.62,5.13,21,21,0,0,1-4.89,3.61,20.1,20.1,0,0,1-5.53,2.06,25.47,25.47,0,0,0,8.38-7.4,15.78,15.78,0,0,0,1.36-2.3,17,17,0,0,0,1-2.43,17.59,17.59,0,0,0,.77-5.09,22.35,22.35,0,0,0-.17-2.58c-.07-.43-.11-.87-.2-1.28l-.13-.62c0-.21-.11-.41-.16-.61a13.14,13.14,0,0,0-2-4.38A26.06,26.06,0,0,0,118.61,96a37.58,37.58,0,0,1-4.25-4.54,21.06,21.06,0,0,1-1.75-2.9,18.77,18.77,0,0,1-1.16-3.19,22.77,22.77,0,0,1-.64-6.45,32.68,32.68,0,0,1,2.75-12,38.26,38.26,0,0,1,6.53-10.12,40.59,40.59,0,0,1,4.25-4.15A32,32,0,0,1,129.13,49.23Z"/></g><path class="cls-4" d="M143,41.15a26.46,26.46,0,0,0-4.18,2.51,18.79,18.79,0,0,0-3.44,3.21,13.94,13.94,0,0,0-2.32,3.92,8,8,0,0,0-.53,2.08,5.7,5.7,0,0,0,0,1,5.81,5.81,0,0,0,.17,1,14.6,14.6,0,0,0,.8,2.13,12.71,12.71,0,0,1,.85,2.55,7.48,7.48,0,0,1,0,2.83,9.51,9.51,0,0,1-.93,2.57,8.3,8.3,0,0,1-1.66,2.15,7.91,7.91,0,0,1-2.25,1.44,9.05,9.05,0,0,1-5,.58A10.81,10.81,0,0,0,129,67.55a7,7,0,0,0,.91-.69,8.4,8.4,0,0,0,.78-.8,7.34,7.34,0,0,0,1.11-1.89,7.44,7.44,0,0,0,.34-1,5.29,5.29,0,0,0,.13-.54l.05-.26a2.48,2.48,0,0,0,0-.27,5.43,5.43,0,0,0-.11-2.05,10.57,10.57,0,0,0-.79-2.08,16.76,16.76,0,0,1-1-2.47,9.55,9.55,0,0,1-.23-1.42,7.79,7.79,0,0,1,.06-1.45,9.5,9.5,0,0,1,.77-2.64,14,14,0,0,1,3-4.31,16.74,16.74,0,0,1,4.19-3,18.26,18.26,0,0,1,2.34-1A13.64,13.64,0,0,1,143,41.15Z"/><path class="cls-4" d="M151.92,57.42a25.4,25.4,0,0,0-3.08,3.77,18.89,18.89,0,0,0-2.15,4.19,13.93,13.93,0,0,0-.85,4.47A8.24,8.24,0,0,0,146,72a6,6,0,0,0,.32,1,5.93,5.93,0,0,0,.51.88,13.83,13.83,0,0,0,1.47,1.73A12.49,12.49,0,0,1,150,77.67a7.28,7.28,0,0,1,.94,2.68,9.25,9.25,0,0,1,0,2.73,8.18,8.18,0,0,1-.83,2.59,7.86,7.86,0,0,1-1.62,2.11,9,9,0,0,1-2.14,1.46A8.88,8.88,0,0,1,144,90a11,11,0,0,0,3.68-3,8.25,8.25,0,0,0,.62-1,7.54,7.54,0,0,0,.83-4.27c0-.18,0-.36-.06-.54l0-.27-.06-.26a5.68,5.68,0,0,0-.8-1.89,11,11,0,0,0-1.45-1.69,16,16,0,0,1-1.73-2,8.61,8.61,0,0,1-.7-1.26,7.63,7.63,0,0,1-.44-1.38,9.89,9.89,0,0,1-.17-2.75A13.74,13.74,0,0,1,145,64.68a16,16,0,0,1,2.94-4.2,16.59,16.59,0,0,1,1.87-1.69A13,13,0,0,1,151.92,57.42Z"/><rect class="cls-5" x="134.75" y="126.7" width="0.63" height="5.01"/><rect class="cls-6" x="135.38" y="126.7" width="38.8" height="5.01"/><rect class="cls-7" x="135.38" y="129.85" width="38.8" height="1.86"/><path class="cls-8" d="M159.9,127.11H139.84a.32.32,0,0,0,0,.64H159.9a.32.32,0,1,0,0-.64Z"/><path class="cls-8" d="M138.78,127.11h-2.42a.32.32,0,1,0,0,.64h2.42a.32.32,0,1,0,0-.64Z"/><rect class="cls-9" x="161.29" y="126.7" width="12.88" height="5.01"/><rect class="cls-10" x="161.29" y="129.85" width="12.88" height="1.86"/><path class="cls-11" d="M173.09,127.61h-8.9a.37.37,0,0,1-.2-.07.33.33,0,0,1-.12-.25h0a.29.29,0,0,1,.09-.22.33.33,0,0,1,.23-.1h8.9a.3.3,0,0,1,.32.32h0a.35.35,0,0,1-.08.22A.33.33,0,0,1,173.09,127.61Z"/><path class="cls-12" d="M162.72,127.92h-.44a.14.14,0,0,1-.12-.06.15.15,0,0,1,0-.11h0a.2.2,0,0,1,0-.11.22.22,0,0,1,.13-.06h.44a.18.18,0,0,1,.13.06.15.15,0,0,1,0,.11h0a.21.21,0,0,1,0,.12A.19.19,0,0,1,162.72,127.92Z"/><path class="cls-12" d="M165.6,128.72h-.44a.16.16,0,0,1-.13-.06.21.21,0,0,1,0-.11h0a.21.21,0,0,1,0-.11.2.2,0,0,1,.13-.06h.44a.2.2,0,0,1,.13.06.21.21,0,0,1,0,.11h0a.13.13,0,0,1-.05.11A.14.14,0,0,1,165.6,128.72Z"/><path class="cls-12" d="M170.07,129.33h-.44a.17.17,0,0,1-.12-.06.15.15,0,0,1,0-.11h0a.2.2,0,0,1,0-.11.2.2,0,0,1,.13-.06h.44a.2.2,0,0,1,.13.06.15.15,0,0,1,0,.11h0a.21.21,0,0,1,0,.11A.16.16,0,0,1,170.07,129.33Z"/><path class="cls-12" d="M167.71,131.12h-.45a.17.17,0,0,1-.12-.06.15.15,0,0,1,0-.11h0a.15.15,0,0,1,0-.11.17.17,0,0,1,.12-.06h.45a.17.17,0,0,1,.12.06.15.15,0,0,1,0,.11h0a.15.15,0,0,1,0,.11A.16.16,0,0,1,167.71,131.12Z"/><path class="cls-12" d="M163.3,131h-.44a.18.18,0,0,1-.13-.06.21.21,0,0,1,0-.11h0a.18.18,0,0,1,0-.1.16.16,0,0,1,.13-.06h.44a.19.19,0,0,1,.13,0,.15.15,0,0,1,0,.11h0a.21.21,0,0,1,0,.12A.21.21,0,0,1,163.3,131Z"/><path class="cls-12" d="M163.77,129.45h-.44a.2.2,0,0,1-.13-.06.21.21,0,0,1,0-.11h0a.15.15,0,0,1,0-.11.2.2,0,0,1,.13-.06h.44a.18.18,0,0,1,.13.06.21.21,0,0,1,0,.11h0a.16.16,0,0,1-.05.11A.14.14,0,0,1,163.77,129.45Z"/><path class="cls-12" d="M172,131h-.44a.16.16,0,0,1-.13-.06.21.21,0,0,1,0-.11h0a.18.18,0,0,1,0-.1.16.16,0,0,1,.13-.06H172a.19.19,0,0,1,.13,0,.21.21,0,0,1,0,.11h0a.17.17,0,0,1-.17.17Z"/><polygon class="cls-8" points="538.54 136.52 525.54 339.79 518.67 446.99 482.65 446.99 482.65 144.02 538.54 136.52"/><path class="cls-13" d="M525.54,339.79,518.67,447h-36V167.74C511.27,193.42,522,270,525.54,339.79Z"/><path class="cls-14" d="M395.42,391.65s-43.16,25.79-57.23-17.35-45-84.9-45-84.9,5.16,21.11,2.81,35.66-33.53,79.72-34.93,80.66-24.63,3.28-24.16-1.87c.15-1.62,3.53-19.05,8.22-42.38,7.21-36,17.54-85.92,23.9-113.26,2.67-11.44,4.64-18.91,5.4-19.77,3.76-4.22,23-8.91,33.31-6.09s68.94,71.75,77.85,123.34Z"/><path class="cls-14" d="M395.42,391.65s-43.16,25.79-57.23-17.35-45-84.9-45-84.9,5.16,21.11,2.81,35.66-33.53,79.72-34.93,80.66-24.63,3.28-24.16-1.87c.15-1.62,3.53-19.05,8.22-42.38,27.24,13.68,56.39-71,24.38-112.63-.17-.21-.32-.42-.48-.63,2.67-11.44,4.64-18.91,5.4-19.77,3.76-4.22,23-8.91,33.31-6.09s68.94,71.75,77.85,123.34Z"/><path class="cls-14" d="M399.64,449.34s-214.81.47-256.08-.46-94.73-11.26-94.73-11.26v-8s11.63-1.14,28.91-3c40.25-4.38,111.18-12.74,137.11-19.95,28.21-7.87,70.82-20.62,120.19-27.29,15.47-2.09,31.6-3.58,48.18-4.15Z"/><path class="cls-15" d="M399.64,449.34s-214.81.47-256.08-.46-94.73-11.26-94.73-11.26v-8s11.63-1.14,28.91-3c4.29,12.77,160.44,14.64,215.91,1.15C346,415,353.4,388.74,335,379.38c15.47-2.09,31.6-3.58,48.18-4.15Z"/><path class="cls-16" d="M444.5,157.42S431.73,185,430.84,185.93s-16.63,17.22-16.63,17.22l-9.33-24-6.71-17.28,4.16-35.94,6.17-2.1,6.9-2.35,3.26,7.72A283,283,0,0,0,444.5,157.42Z"/><path class="cls-17" d="M402.31,183.84l-7.95-20.48,4.93-42.56,7.3-2.49a39.13,39.13,0,0,1,4.3-.68C415.54,137,407.12,168.43,402.31,183.84Z"/><path class="cls-18" d="M501.65,350.15c-9.15,37.28-87.24,100.6-99.9,102s-31-30.25-31-50.65,12-46.43,14.07-54.17c2.07-7.57,20.27-11.78,21.08-50.09q0-1.31,0-2.67c0-40.81-6.33-59.8-16.18-68.95s-99.2,0-99.2-2.81S293.41,189,293.41,189l63.31-15.48,41.86-13,15.13,41.86,35.53-44.32s42.77,19.74,51.35,35.52a64.76,64.76,0,0,1,3.75,8.35C519,241.34,510.15,315.49,501.65,350.15Z"/><path class="cls-19" d="M501.65,350.15c-9.15,37.28-87.24,100.6-99.9,102s-31-30.25-31-50.65,12-46.43,14.07-54.17c2.07-7.57,20.27-11.78,21.08-50.09,22.68,6.5,49.28-76.54,49.28-76.54s35.17-6.33,35.17-3.52-1.41,26.74,7,40.1c8.2,13,13.08-13.2,6.91-55.32C519,241.34,510.15,315.49,501.65,350.15Z"/><polygon class="cls-20" points="397.29 186.23 409.49 227.5 418.87 226.56 441.85 189.51 436.69 186.23 416.05 220 411.36 220 401.05 184.82 397.29 186.23"/><path class="cls-20" d="M410.89,185.29A52.74,52.74,0,0,0,394,199.36l-3.75-18.76,8.32-20Z"/><polygon class="cls-20" points="404.8 216.71 425.43 218.59 419.34 237.35 408.55 235.94 404.8 216.71"/><path class="cls-20" d="M410,231.72c-1.88,54.41,10.78,107.4,10.78,107.4l13.61-13.6s-14.54-37-17.36-91.45C415.12,227,410,231.72,410,231.72Z"/><path class="cls-18" d="M460.61,198c-21.55,22.09-22,106.94-38.93,136.48,8,14.54,33.3,27.21,33.77,25.33s35.65-85.36,39.4-119.13S479.37,178.72,460.61,198Z"/><path class="cls-16" d="M444.19,380.87C394,415.1,318.5,436.21,318.5,436.21l-3.28-11.73s40.33-22,55.34-39.86,52.29-42.92,52.29-42.92l9.15-.23S448.88,368.67,444.19,380.87Z"/><path class="cls-16" d="M315.22,424.48s-6.1-10.31-10.79-11.72-11.26,0-11.26,0l.47,15S311,431.52,315.22,424.48Z"/><path class="cls-21" d="M48.82,437.62,29.59,449.34s.47-8-5.63-21.1-1.87-40.34-1.87-40.34a40.34,40.34,0,0,0,7,20.64c7,10.32,19.7,21.1,19.7,21.1Z"/><path class="cls-16" d="M289.5,228c-35.81-2.62-116.73-55.84-116.73-55.84L184,164.62s17.56,8.17,47.49,14.37c22.3,4.62,44.39,1.54,61.72,10.28C302.89,194.14,298.24,227.33,289.5,228Z"/><path class="cls-16" d="M184,164.62s1.23-12.9.42-19.34-7.65-14.07-9.43-19-7,1.38-2.24,9.4.77,14.67.77,14.67l-6.73-12.53s3-16.76.86-21.61-6.16-1.53-6.16-1.53-3.27,18-2.41,26.64,13.66,30.85,13.66,30.85l9.91-1.55Z"/><path class="cls-16" d="M315.22,424.48c-15.48-6.56-47.37-3.75-49.25-1.87s-1.41,4.22-.47,6.09,4.69.94,4.69.94,2.35,14.07,4.69,18.29,24.86,5.63,29.08,4.22,14.54-15.94,14.54-15.94l2.81-6.1Z"/><path class="cls-16" d="M404.71,158.31c-.6,14.85-16.93,41.88-29.4,37.72-6.59-2.2-11.93-12-15.51-20.78-.54-1.33-1-2.64-1.49-3.88-1.11-3-2-5.68-2.56-7.65s-.94-3.33-.94-3.33-7.72,3.86-10.39,1.78-3-12.47-2.38-23.16-3-20.79-5.34-26.73-3-21.38,3-41c0,0,21.08-17.52,37.12-18.12s20.79,29.4,17.82,38c-1.33,3.84,0,12.52,1.78,20.93,2.27,10.37,5.35,20.34,5.35,20.34A81.72,81.72,0,0,1,404.71,158.31Z"/><path class="cls-22" d="M404.71,158.31c-.6,14.85-16.93,41.88-29.4,37.72-6.59-2.2-11.93-12-15.51-20.78-.54-1.33-1-2.64-1.49-3.88-1.11-3-2-5.68-2.56-7.65,6.86-5.21,34.33-27.51,31.73-49.36l8.91-2.23c2.27,10.37,5.35,20.34,5.35,20.34A81.72,81.72,0,0,1,404.71,158.31Z"/><path class="cls-14" d="M433.51,68.92c-.89,13.66-14.85,60.29-14.85,60.29s-16.63-10.69-19.89-8-7.43,5.35-7.43,5.35l-11-23.47s3.73-14.76,4.33-26.44h0c.24-4.79-.06-9.05-1.36-11.56-4.45-8.61-31.77-.89-43.65,6.24-10.4-7.13-3.27-37.12,4.45-37.72s10.69,11,13.37,11.58,7.42-17.22,13.66-17.81,7.13,8,12.47,9.5,17.82-10.1,24.06-5.05-3.27,6.53-3,10.4,7.42-.9,13.66-.3c1.85.18,4,1.42,6.13,3.47A31.59,31.59,0,0,1,433.51,68.92Z"/><path class="cls-14" d="M433.51,68.92c-.89,13.66-14.85,60.29-14.85,60.29s-16.63-10.69-19.89-8-7.43,5.35-7.43,5.35l-11-23.47s3.73-14.76,4.33-26.44c21.45,7.5,20.94-17.78,15.57-23.15-4.45-4.45,17.2-3.9,24.25-8.11A31.59,31.59,0,0,1,433.51,68.92Z"/><path class="cls-14" d="M335.81,117c.7,7.68,22.57,2.68,24.05-2.37S335.21,110.5,335.81,117Z"/><path class="cls-23" d="M346.5,128s5.35,6.24,8.91,6.24S361.35,123,361.35,123s-5.64,7.13-7.13,7.72S346.5,128,346.5,128Z"/><path class="cls-16" d="M395.5,123.86c3.86-19.3,19-19.6,20.49-14s.6,26.72-16,23.75C396.09,128,395.5,123.86,395.5,123.86Z"/><path class="cls-16" d="M378.28,166.63s-14.56,3.69-18.48,8.62c-.54-1.33-1-2.64-1.49-3.88C365.81,162.55,378.28,166.63,378.28,166.63Z"/><path class="cls-20" d="M443.72,155.3c-4.69,15.95-16.41,29-16.41,29s13.13,7.51,15.48,18.76C460.14,181.54,459,162.9,459,162.9Z"/><path class="cls-20" d="M288,228.12l9.38.46c2.58-.48,3.51-38.9-1.41-41.41-2.44-1.25-25.33-5.66-28.14-4.25C275.82,186.67,281.92,202.64,288,228.12Z"/><path class="cls-20" d="M420.74,328.34c-.46,2.34-5.62,10.32-5.62,10.32s28.14,25.79,29.07,42.21c15.48-10.32,18.3-22.05,19.7-27.68S432,327.4,420.74,328.34Z"/><polygon class="cls-24" points="538.53 136.51 559.34 139.09 535.12 445.82 518.67 447 538.53 136.51"/></g></g></svg>