<svg id="_1" data-name="1" xmlns="http://www.w3.org/2000/svg" viewBox="0 0 580 480"><defs><style>.cls-1{fill:#ced9d7;}.cls-2{fill:#20e57e;}.cls-3{fill:#455a64;}.cls-4{fill:#2b4751;}.cls-5{fill:#ffbe9d;}.cls-6{fill:#eb996e;}.cls-7{opacity:0.3;}.cls-8{fill:#fafafa;}</style></defs><path class="cls-1" d="M365.2,148.28c-.08,0-.17-19.87-.17-44.38s.09-44.39.17-44.39.16,19.87.16,44.39S365.29,148.28,365.2,148.28Z"/><path class="cls-1" d="M365.2,148.42c-.07,0-.1,0-.12-.17h0c0-.32,0-1.19-.07-3.44s0-5.48,0-9.5V63a29.77,29.77,0,0,1,.07-3.44h0c0-.17,0-.17.12-.17s.1,0,.13.17h0v88.66h0C365.3,148.42,365.26,148.42,365.2,148.42Zm0-65.36V103.9c0-7.49,0-14.59,0-20.79Z"/><path class="cls-1" d="M361.77,63.25a23.17,23.17,0,0,1-5.52,0A24.26,24.26,0,0,1,361.77,63.25Z"/><path class="cls-1" d="M359,63.56c-2.91,0-2.91-.17-2.91-.31s0-.29,2.91-.29,2.89.16,2.89.29S361.91,63.56,359,63.56Zm-1.32-.31h0Z"/><path class="cls-1" d="M361.77,69.14a22.17,22.17,0,0,1-5.52,0A25.47,25.47,0,0,1,361.77,69.14Z"/><path class="cls-1" d="M359,69.41c-2.91,0-2.91-.17-2.91-.31s0-.29,2.91-.29,2.89.16,2.89.29S361.91,69.41,359,69.41Zm-1.33-.31"/><path class="cls-1" d="M361.77,75a24.26,24.26,0,0,1-5.52,0A25.47,25.47,0,0,1,361.77,75Z"/><path class="cls-1" d="M359,75.26c-2.91,0-2.91-.17-2.91-.31s0-.31,2.91-.31,2.89.17,2.89.31S361.91,75.26,359,75.26ZM357.7,75"/><path class="cls-1" d="M361.77,80.8a24.26,24.26,0,0,1-5.52,0A23.17,23.17,0,0,1,361.77,80.8Z"/><path class="cls-1" d="M359,81.1c-2.91,0-2.91-.17-2.91-.3s0-.3,2.91-.3,2.89.16,2.89.3S361.91,81.1,359,81.1Zm-1.32-.3"/><path class="cls-1" d="M361.77,86.65a24.26,24.26,0,0,1-5.52,0A23.17,23.17,0,0,1,361.77,86.65Z"/><path class="cls-1" d="M359,87c-2.91,0-2.91-.17-2.91-.3s0-.3,2.91-.3,2.89.16,2.89.3S361.91,87,359,87Zm-1.33-.3h0Z"/><path class="cls-1" d="M361.77,92.5a24.26,24.26,0,0,1-5.52,0A23.17,23.17,0,0,1,361.77,92.5Z"/><path class="cls-1" d="M359,92.8c-2.91,0-2.91-.17-2.91-.3s0-.3,2.91-.3,2.89.17,2.89.3S361.91,92.8,359,92.8Zm-1.32-.3h0Z"/><path class="cls-1" d="M361.77,98.34a22.17,22.17,0,0,1-5.52,0A25.47,25.47,0,0,1,361.77,98.34Z"/><path class="cls-1" d="M359,98.65c-2.91,0-2.91-.17-2.91-.31s0-.29,2.91-.29,2.89.17,2.89.29S361.91,98.65,359,98.65Zm-1.32-.31h0Z"/><path class="cls-1" d="M361.77,104.19a22.17,22.17,0,0,1-5.52,0A25.47,25.47,0,0,1,361.77,104.19Z"/><path class="cls-1" d="M359,104.5c-2.91,0-2.91-.17-2.91-.31s0-.29,2.91-.29,2.89.17,2.89.29S361.91,104.5,359,104.5Zm-1.33-.31h0Z"/><path class="cls-1" d="M361.77,110a22.17,22.17,0,0,1-5.52,0A25.47,25.47,0,0,1,361.77,110Z"/><path class="cls-1" d="M359,110.35c-2.91,0-2.91-.17-2.91-.31s0-.29,2.91-.29,2.89.17,2.89.29S361.91,110.35,359,110.35ZM357.7,110h0Z"/><path class="cls-1" d="M361.77,115.89a24.26,24.26,0,0,1-5.52,0A25.47,25.47,0,0,1,361.77,115.89Z"/><path class="cls-1" d="M359,116.2c-2.91,0-2.91-.17-2.91-.31s0-.29,2.91-.29,2.89.16,2.89.29S361.91,116.2,359,116.2Zm-1.32-.31"/><path class="cls-1" d="M361.77,121.75a25.47,25.47,0,0,1-5.52,0A22.17,22.17,0,0,1,361.77,121.75Z"/><path class="cls-1" d="M359,122c-2.91,0-2.91-.17-2.91-.29s0-.31,2.91-.31,2.89.17,2.89.31S361.91,122,359,122Zm-1.33-.29"/><path class="cls-1" d="M361.77,127.6a25.47,25.47,0,0,1-5.52,0A22.17,22.17,0,0,1,361.77,127.6Z"/><path class="cls-1" d="M359,127.89c-2.91,0-2.91-.17-2.91-.29s0-.31,2.91-.31,2.89.17,2.89.31S361.91,127.89,359,127.89Zm-1.32-.29h0Z"/><path class="cls-1" d="M361.77,133.45a25.47,25.47,0,0,1-5.52,0A22.17,22.17,0,0,1,361.77,133.45Z"/><path class="cls-1" d="M359,133.74c-2.91,0-2.91-.17-2.91-.29s0-.31,2.91-.31,2.89.17,2.89.31S361.91,133.74,359,133.74Zm-1.32-.29h0Z"/><path class="cls-1" d="M361.77,139.28a22.17,22.17,0,0,1-5.52,0A25.47,25.47,0,0,1,361.77,139.28Z"/><path class="cls-1" d="M359,139.59c-2.91,0-2.91-.17-2.91-.31s0-.29,2.91-.29,2.89.17,2.89.29S361.91,139.59,359,139.59Zm-1.33-.31h0Z"/><path class="cls-1" d="M361.77,145.14a23.17,23.17,0,0,1-5.52,0A24.26,24.26,0,0,1,361.77,145.14Z"/><path class="cls-1" d="M359,145.44c-2.91,0-2.91-.16-2.91-.3s0-.3,2.91-.3,2.89.17,2.89.3S361.91,145.44,359,145.44Zm-1.32-.3h0Z"/><path class="cls-2" d="M383.91,62.91c0,.09-3.21.16-7.17.16s-7.17-.07-7.17-.16,3.21-.16,7.17-.16S383.91,62.82,383.91,62.91Z"/><path class="cls-2" d="M376.74,63.21c-7.31,0-7.31-.14-7.31-.3s0-.3,7.31-.3,7.31.14,7.31.3S384.05,63.21,376.74,63.21Zm-3.4-.3h0Z"/><path class="cls-2" d="M383.91,145.14c0,.09-3.21.16-7.17.16a57.19,57.19,0,0,1-7.17-.16c0-.17,3.21-.16,7.17-.16S383.91,145.05,383.91,145.14Z"/><path class="cls-2" d="M376.74,145.44c-7.31,0-7.31-.14-7.31-.3s0-.3,7.31-.3,7.31.14,7.31.3S384.05,145.44,376.74,145.44Zm-3.38-.3h0Z"/><path class="cls-2" d="M403.87,75c0,.09-6,.16-13.41.16s-13.4-.07-13.4-.16,6-.15,13.4-.15S403.87,74.87,403.87,75Z"/><path class="cls-2" d="M390.46,75.26H381c-4.06,0-4.06,0-4.06-.25s0-.21,4.06-.25h19c4.07,0,4.07,0,4.07.25s0,.21-4.07.25C397.42,75.23,394,75.26,390.46,75.26ZM384.12,75"/><path class="cls-1" d="M434.88,75c0,.09-6,.16-13.4.16S408.07,75,408.07,75s6-.15,13.41-.15S434.88,74.87,434.88,75Z"/><path class="cls-1" d="M421.48,75.26H412c-4.08,0-4.08,0-4.08-.25s0-.21,4.08-.25h19c4.06,0,4.06,0,4.06.25s0,.21-4.06.25C428.43,75.23,425.05,75.26,421.48,75.26ZM415.14,75"/><path class="cls-1" d="M423,80.8c0,.09-8.84.16-19.76.16s-19.76-.07-19.76-.16,8.84-.16,19.76-.16S423,80.72,423,80.8Z"/><path class="cls-1" d="M403.27,81.1h-14c-5.92,0-5.92,0-5.92-.26s0-.2,5.92-.25h27.93c5.92,0,5.92,0,5.92.25s0,.21-5.92.26C413.52,81.08,408.55,81.1,403.27,81.1Zm-9.36-.3"/><path class="cls-1" d="M423,86.65c0,.09-8.84.16-19.76.16s-19.76-.07-19.76-.16,8.84-.16,19.76-.16S423,86.56,423,86.65Z"/><path class="cls-1" d="M403.27,87h-14c-5.92,0-5.92,0-5.92-.25s0-.21,5.92-.26h27.93c5.92,0,5.92,0,5.92.26s0,.19-5.92.25C413.52,86.93,408.55,87,403.27,87Zm-9.41-.3h0Z"/><path class="cls-1" d="M450.24,104.19c0,.1-8.85.17-19.76.17s-19.77-.07-19.77-.17,8.85-.14,19.84-.14S450.24,104.05,450.24,104.19Z"/><path class="cls-1" d="M430.55,104.5h-14c-5.93,0-5.93,0-5.93-.25s0-.2,5.93-.25h27.93c5.93,0,5.93,0,5.93.25s0,.21-5.93.25C440.72,104.49,435.76,104.5,430.55,104.5Zm-9.41-.31h0Z"/><path class="cls-1" d="M438.5,92.5c0,.09-8.85.16-19.76.16S399,92.59,399,92.5s8.85-.16,19.77-.16S438.5,92.41,438.5,92.5Z"/><path class="cls-1" d="M418.74,92.8h-14c-5.94,0-5.94,0-5.94-.25s0-.21,5.94-.27H432.7c5.93,0,5.93.07,5.93.27s0,.19-5.93.25C429,92.78,424,92.8,418.74,92.8Zm-9.36-.3h0Z"/><path class="cls-1" d="M486.8,92.5c0,.09-8.85.16-19.76.16s-19.77-.07-19.77-.16,8.85-.16,19.77-.16S486.8,92.41,486.8,92.5Z"/><path class="cls-1" d="M467,92.8h-14c-5.94,0-5.94,0-5.94-.25s0-.21,5.94-.27H481c5.92,0,5.92.07,5.92.27s0,.19-5.92.25C477.28,92.78,472.32,92.8,467,92.8Zm-9.35-.3h0Z"/><path class="cls-1" d="M470,80.8c0,.09-8.85.16-19.76.16s-19.76-.07-19.76-.16,8.84-.16,19.76-.16S470,80.72,470,80.8Z"/><path class="cls-1" d="M450.24,81.1h-14c-5.94,0-5.94,0-5.94-.26s0-.2,5.94-.25h27.93c5.92,0,5.92,0,5.92.25s0,.21-5.92.26C460.48,81.08,455.52,81.1,450.24,81.1Zm-9.35-.3"/><path class="cls-1" d="M497.3,104.19c0,.1-8.84.17-19.76.17s-19.76-.07-19.76-.17,8.84-.15,19.76-.15S497.3,104.05,497.3,104.19Z"/><path class="cls-1" d="M477.54,104.5h-14c-5.92,0-5.92,0-5.92-.25s0-.2,5.92-.25h27.93c5.92,0,5.92,0,5.92.25s0,.21-5.92.25C487.81,104.49,482.82,104.5,477.54,104.5Zm-9.41-.31h0Z"/><path class="cls-3" d="M491.86,86.65c0,.09-13.74.16-30.72.16s-30.73-.07-30.73-.16,13.73-.16,30.73-.16S491.86,86.56,491.86,86.65Z"/><path class="cls-3" d="M461.16,87h-21.7c-6.5,0-8.38,0-8.91-.13h0c-.18,0-.18,0-.18-.12s0-.1.18-.13h0c.53-.07,2.41-.08,8.91-.11h43.4c6.51,0,8.38,0,8.91.11h0c.19,0,.19.07.19.13s0,.08-.19.12h0c-.54.07-2.41.09-8.92.13C477.07,86.93,469.37,87,461.16,87Zm-14.48-.3h0Z"/><path class="cls-1" d="M383.91,69.14c0,.09-3.21.17-7.17.17s-7.17-.08-7.17-.17,3.21-.15,7.17-.15A70.26,70.26,0,0,1,383.91,69.14Z"/><path class="cls-1" d="M376.74,69.41c-7.31,0-7.31-.14-7.31-.31s0-.29,7.31-.29,7.31.14,7.31.29S384.05,69.41,376.74,69.41Zm-3.44-.27"/><path class="cls-1" d="M383.91,139.28c0,.1-3.21.17-7.17.17s-7.17,0-7.17-.17a58.59,58.59,0,0,1,7.17-.15C380.69,139.13,383.91,139.2,383.91,139.28Z"/><path class="cls-1" d="M376.74,139.59c-7.31,0-7.31-.14-7.31-.31s0-.29,7.31-.29,7.31.14,7.31.29S384.05,139.59,376.74,139.59Zm-3.4-.31h0Z"/><path class="cls-1" d="M391,92.5c0,.09-3.21.16-7.17.16s-7.16-.07-7.16-.16,3.21-.16,7.16-.16S391,92.41,391,92.5Z"/><path class="cls-1" d="M383.84,92.8c-7.3,0-7.3-.14-7.3-.3s0-.3,7.3-.3,7.31.14,7.31.3S391.15,92.8,383.84,92.8Zm-3.38-.3h0Z"/><path class="cls-2" d="M506,92.5c0,.09-3.21.16-7.18.16s-7.16-.07-7.16-.16,3.21-.16,7.16-.16S506,92.41,506,92.5Z"/><path class="cls-2" d="M498.73,92.8c-7.31,0-7.31-.14-7.31-.3s0-.3,7.31-.3,7.31.14,7.31.3S506,92.8,498.73,92.8Zm-3.38-.3h0Z"/><path class="cls-2" d="M403.87,115.87c0,.08-6,.15-13.41.15s-13.4,0-13.4-.15,6-.17,13.4-.17S403.87,115.77,403.87,115.87Z"/><path class="cls-2" d="M390.46,116.16H381c-4.06,0-4.06,0-4.06-.25s0-.21,4.06-.27h19c4.07,0,4.07,0,4.07.27s0,.19-4.07.25Zm-6.38-.29h0Z"/><path class="cls-1" d="M434.88,115.87c0,.08-6,.15-13.4.15s-13.41,0-13.41-.15,6-.17,13.41-.17S434.88,115.77,434.88,115.87Z"/><path class="cls-1" d="M421.48,116.16H412c-4.08,0-4.08,0-4.08-.25s0-.21,4.08-.27h19c4.06,0,4.06,0,4.06.27s0,.19-4.06.25Zm-6.38-.29h0Z"/><path class="cls-1" d="M423,121.7c0,.1-8.84.17-19.76.17s-19.76,0-19.76-.17,8.84-.15,19.76-.15S423,121.62,423,121.7Z"/><path class="cls-1" d="M403.27,122h-14c-5.92,0-5.92-.07-5.92-.26s0-.2,5.92-.26h27.93c5.92,0,5.92,0,5.92.26s0,.21-5.92.26C413.52,122,408.55,122,403.27,122Zm-9.36-.31h0Z"/><path class="cls-1" d="M423,127.55c0,.1-8.84.17-19.76.17s-19.76,0-19.76-.17,8.84-.15,19.76-.15S423,127.47,423,127.55Z"/><path class="cls-1" d="M403.27,127.86h-14c-5.92,0-5.92,0-5.92-.25s0-.19,5.92-.25h27.93c5.92,0,5.92,0,5.92.25s0,.21-5.92.25C413.52,127.79,408.55,127.86,403.27,127.86Zm-9.41-.31h0Z"/><path class="cls-1" d="M438.5,133.38c0,.08-8.85.17-19.76.17s-19.77-.09-19.77-.17,8.85-.16,19.77-.16S438.5,133.38,438.5,133.38Z"/><path class="cls-1" d="M418.74,133.71h-14c-5.94,0-5.94,0-5.94-.25s0-.21,5.94-.25H432.7c5.93,0,5.93,0,5.93.25s0,.21-5.93.25C429,133.7,424,133.71,418.74,133.71Zm-9.41-.33"/><path class="cls-1" d="M486.8,133.38c0,.08-8.85.17-19.76.17s-19.73-.06-19.73-.17,8.85-.16,19.77-.16S486.8,133.38,486.8,133.38Z"/><path class="cls-1" d="M467,133.71h-14c-5.94,0-5.94,0-5.94-.25s0-.21,5.94-.25H481c5.92,0,5.92,0,5.92.25s0,.21-5.92.25C477.28,133.7,472.32,133.71,467,133.71Zm-9.41-.3"/><path class="cls-1" d="M470,121.7c0,.1-8.85.17-19.76.17s-19.76,0-19.76-.17,8.84-.15,19.76-.15S470,121.62,470,121.7Z"/><path class="cls-1" d="M450.24,122h-14c-5.94,0-5.94-.07-5.94-.26s0-.2,5.94-.26h27.93c5.92,0,5.92,0,5.92.26s0,.21-5.92.26C460.48,122,455.52,122,450.24,122Zm-9.35-.31h0Z"/><path class="cls-3" d="M491.86,127.55c0,.1-13.74.17-30.72.17s-30.73,0-30.73-.17,13.73-.15,30.73-.15S491.86,127.47,491.86,127.55Z"/><path class="cls-3" d="M461.16,127.86h-21.7c-6.5,0-8.38,0-8.91-.11h0c-.18,0-.18,0-.18-.13s0-.08.18-.12h0c.53-.08,2.41-.08,8.91-.13h43.4c6.51,0,8.38,0,8.91.13h0c.19,0,.19,0,.19.12s0,.1-.19.13h0c-.54,0-2.41.08-8.92.11C477.07,127.79,469.37,127.86,461.16,127.86Zm-14.48-.31h0Z"/><path class="cls-1" d="M391,133.38c0,.08-3.21.17-7.17.17s-7.16-.09-7.16-.17,3.21-.16,7.16-.16S391,133.38,391,133.38Z"/><path class="cls-1" d="M383.84,133.71c-7.3,0-7.3-.14-7.3-.3s0-.3,7.3-.3,7.31.14,7.31.3S391.15,133.71,383.84,133.71Zm-3.4-.3"/><path class="cls-2" d="M506,133.38c0,.08-3.21.17-7.18.17s-7.16-.09-7.16-.17,3.21-.16,7.16-.16S506,133.38,506,133.38Z"/><path class="cls-2" d="M498.73,133.71c-7.31,0-7.31-.14-7.31-.3s0-.3,7.31-.3,7.31.14,7.31.3S506,133.71,498.73,133.71Zm-3.41-.3"/><path class="cls-1" d="M66.84,169.55c-.08,0-.15-18.87-.15-42.15s.07-42.11.15-42.11.16,18.88.16,42.15S66.93,169.55,66.84,169.55Z"/><path class="cls-1" d="M66.84,169.69s-.09,0-.12-.17h0c0-.31,0-1.12-.07-3.26s0-5.22,0-9V88.6a27.07,27.07,0,0,1,.07-3.27h0c0-.17,0-.17.12-.17s.1,0,.13.17h0v84.19h0C66.94,169.69,66.91,169.69,66.84,169.69Zm0-62.06V127.4C66.84,120.28,66.86,113.55,66.84,107.63Z"/><path class="cls-1" d="M63.59,88.8A11,11,0,0,1,61,89a11,11,0,0,1-2.63-.16A11.59,11.59,0,0,1,61,88.65,11.53,11.53,0,0,1,63.59,88.8Z"/><path class="cls-1" d="M61,89.1c-2.8,0-2.8-.17-2.8-.3s0-.27,2.8-.27,2.79.15,2.79.27S63.73,89.1,61,89.1Zm-1.25-.3"/><path class="cls-1" d="M63.59,94.36a11.54,11.54,0,0,1-2.62.16,11.59,11.59,0,0,1-2.63-.16A11.59,11.59,0,0,1,61,94.21,11.53,11.53,0,0,1,63.59,94.36Z"/><path class="cls-1" d="M61,94.64c-2.8,0-2.8-.15-2.8-.28s0-.29,2.8-.29,2.79.17,2.79.29S63.73,94.64,61,94.64Zm-1.25-.28"/><path class="cls-1" d="M63.59,99.92a12.13,12.13,0,0,1-2.62.14,12.19,12.19,0,0,1-2.63-.14A11.59,11.59,0,0,1,61,99.77,11.53,11.53,0,0,1,63.59,99.92Z"/><path class="cls-1" d="M61,100.2c-2.8,0-2.8-.15-2.8-.28s0-.29,2.8-.29,2.79.16,2.79.29S63.73,100.2,61,100.2Zm-1.25-.28h0Z"/><path class="cls-1" d="M63.59,105.46a11,11,0,0,1-2.62.16,11,11,0,0,1-2.63-.16,12.19,12.19,0,0,1,2.63-.14A12.13,12.13,0,0,1,63.59,105.46Z"/><path class="cls-1" d="M61,105.76c-2.8,0-2.8-.16-2.8-.3s0-.27,2.8-.27,2.79.15,2.79.27S63.73,105.76,61,105.76Zm-1.25-.3h0Z"/><path class="cls-1" d="M63.59,111a11.54,11.54,0,0,1-2.62.16,11.59,11.59,0,0,1-2.63-.16,11.59,11.59,0,0,1,2.63-.15A11.53,11.53,0,0,1,63.59,111Z"/><path class="cls-1" d="M61,111.32c-2.8,0-2.8-.17-2.8-.3s0-.28,2.8-.28,2.79.16,2.79.28S63.73,111.32,61,111.32Zm-1.25-.3"/><path class="cls-1" d="M63.59,116.58a11.53,11.53,0,0,1-2.62.15,11.59,11.59,0,0,1-2.63-.15,11.59,11.59,0,0,1,2.63-.15A11.53,11.53,0,0,1,63.59,116.58Z"/><path class="cls-1" d="M61,116.86c-2.8,0-2.8-.15-2.8-.28s0-.28,2.8-.28,2.79.15,2.79.28S63.73,116.86,61,116.86Zm-1.25-.28"/><path class="cls-1" d="M63.59,122.14a11.53,11.53,0,0,1-2.62.15,11.59,11.59,0,0,1-2.63-.15A11.59,11.59,0,0,1,61,122,11.54,11.54,0,0,1,63.59,122.14Z"/><path class="cls-1" d="M61,122.42c-2.8,0-2.8-.16-2.8-.28s0-.3,2.8-.3,2.79.17,2.79.3S63.73,122.42,61,122.42Zm-1.25-.28h0Z"/><path class="cls-1" d="M63.59,127.7a12.13,12.13,0,0,1-2.62.14,12.19,12.19,0,0,1-2.63-.14,11,11,0,0,1,2.63-.16A11,11,0,0,1,63.59,127.7Z"/><path class="cls-1" d="M61,128c-2.8,0-2.8-.15-2.8-.27s0-.3,2.8-.3,2.79.16,2.79.3S63.73,128,61,128Zm-1.25-.27h0Z"/><path class="cls-1" d="M63.59,133.24a11.53,11.53,0,0,1-2.62.15,11.59,11.59,0,0,1-2.63-.15,11.59,11.59,0,0,1,2.63-.15A11.53,11.53,0,0,1,63.59,133.24Z"/><path class="cls-1" d="M61,133.53c-2.8,0-2.8-.17-2.8-.29s0-.28,2.8-.28,2.79.15,2.79.28S63.73,133.53,61,133.53Zm-1.25-.29h0Z"/><path class="cls-1" d="M63.59,138.8A11.53,11.53,0,0,1,61,139a11.59,11.59,0,0,1-2.63-.15,11,11,0,0,1,2.63-.16A11,11,0,0,1,63.59,138.8Z"/><path class="cls-1" d="M61,139.09c-2.8,0-2.8-.17-2.8-.29s0-.28,2.8-.28,2.79.15,2.79.28S63.73,139.09,61,139.09Zm-1.25-.29"/><path class="cls-1" d="M63.59,144.35a11,11,0,0,1-2.62.16,11,11,0,0,1-2.63-.16A11.59,11.59,0,0,1,61,144.2,11.53,11.53,0,0,1,63.59,144.35Z"/><path class="cls-1" d="M61,144.63c-2.8,0-2.8-.15-2.8-.28s0-.29,2.8-.29,2.79.17,2.79.29S63.73,144.63,61,144.63Zm-1.25-.28"/><path class="cls-1" d="M63.59,149.91a11.54,11.54,0,0,1-2.62.16,11.59,11.59,0,0,1-2.63-.16,11.59,11.59,0,0,1,2.63-.15A11.53,11.53,0,0,1,63.59,149.91Z"/><path class="cls-1" d="M61,150.19c-2.8,0-2.8-.15-2.8-.28s0-.29,2.8-.29,2.79.17,2.79.29S63.73,150.19,61,150.19Zm-1.25-.28h0Z"/><path class="cls-1" d="M63.59,155.46a11.53,11.53,0,0,1-2.62.15,11.59,11.59,0,0,1-2.63-.15,11.58,11.58,0,0,1,2.63-.14A11.53,11.53,0,0,1,63.59,155.46Z"/><path class="cls-1" d="M61,155.75c-2.8,0-2.8-.15-2.8-.29s0-.28,2.8-.28,2.79.15,2.79.28S63.73,155.75,61,155.75Zm-1.25-.29h0Z"/><path class="cls-1" d="M63.59,161a11,11,0,0,1-2.62.16,11,11,0,0,1-2.63-.16,11.59,11.59,0,0,1,2.63-.15A11.53,11.53,0,0,1,63.59,161Z"/><path class="cls-1" d="M61,161.31c-2.8,0-2.8-.17-2.8-.3s0-.28,2.8-.28,2.79.16,2.79.28S63.73,161.31,61,161.31Zm-1.25-.3"/><path class="cls-1" d="M63.59,166.57a11.54,11.54,0,0,1-2.62.16,11.59,11.59,0,0,1-2.63-.16,11.59,11.59,0,0,1,2.63-.15A11.53,11.53,0,0,1,63.59,166.57Z"/><path class="cls-1" d="M61,166.85c-2.8,0-2.8-.15-2.8-.28s0-.28,2.8-.28,2.79.16,2.79.28S63.73,166.85,61,166.85Zm-1.25-.28"/><path class="cls-2" d="M84.62,88.48c0,.09-3.06.14-6.81.14a58.83,58.83,0,0,1-6.8-.14,57.38,57.38,0,0,1,6.8-.15C81.56,88.33,84.62,88.4,84.62,88.48Z"/><path class="cls-2" d="M77.81,88.76c-7,0-7-.12-7-.28s0-.29,7-.29,7,.14,7,.29S84.75,88.76,77.81,88.76Zm-3.23-.28h0Z"/><path class="cls-2" d="M84.62,166.57c0,.09-3.06.16-6.81.16a51.51,51.51,0,0,1-6.8-.16,54.92,54.92,0,0,1,6.8-.15C81.56,166.42,84.62,166.49,84.62,166.57Z"/><path class="cls-2" d="M77.81,166.85c-7,0-7-.12-7-.28s0-.28,7-.28,7,.13,7,.28S84.75,166.85,77.81,166.85Zm-3.22-.28"/><path class="cls-2" d="M103.57,99.92c0,.08-5.7.14-12.74.14s-12.73,0-12.73-.14,5.71-.15,12.73-.15S103.57,99.84,103.57,99.92Z"/><path class="cls-2" d="M90.83,100.2h-9c-3.86,0-3.86,0-3.86-.24s0-.19,3.86-.25h18c3.87,0,3.87,0,3.87.25s0,.2-3.87.24C97.44,100.19,94.24,100.2,90.83,100.2Zm-6-.28h0Z"/><path class="cls-1" d="M133,99.92c0,.08-5.7.14-12.73.14s-12.74,0-12.74-.14,5.71-.15,12.74-.15S133,99.84,133,99.92Z"/><path class="cls-1" d="M120.24,100.2h-9c-3.86,0-3.86,0-3.86-.24s0-.19,3.86-.25h18c3.87,0,3.87,0,3.87.25s0,.2-3.87.24C126.89,100.19,123.69,100.2,120.24,100.2Zm-6-.28h0Z"/><path class="cls-1" d="M121.77,105.46c0,.09-8.38.16-18.77.16s-18.77-.07-18.77-.16,8.38-.14,18.77-.14S121.77,105.38,121.77,105.46Z"/><path class="cls-1" d="M103,105.76H89.73c-5.58,0-5.58,0-5.58-.25s0-.2,5.58-.24h26.55c5.58,0,5.58,0,5.58.24s0,.19-5.58.25C112.73,105.74,108,105.76,103,105.76Zm-8.88-.3h0Z"/><path class="cls-1" d="M121.77,111c0,.09-8.38.16-18.77.16s-18.77,0-18.77-.16,8.38-.15,18.77-.15S121.77,110.94,121.77,111Z"/><path class="cls-1" d="M103,111.32H89.73c-5.58,0-5.58,0-5.58-.24s0-.2,5.58-.24h26.55c5.58,0,5.58,0,5.58.24s0,.19-5.58.24C112.73,111.3,108,111.32,103,111.32Zm-8.94-.3"/><path class="cls-1" d="M147.61,127.7c0,.08-8.38.14-18.76.14s-18.77,0-18.77-.14,8.38-.16,18.77-.16S147.61,127.61,147.61,127.7Z"/><path class="cls-1" d="M128.85,128H115.57c-5.59,0-5.59,0-5.59-.23s0-.2,5.59-.25h26.54c5.59,0,5.59,0,5.59.25s0,.19-5.59.23C138.56,128,133.86,128,128.85,128Zm-8.94-.27h0Z"/><path class="cls-1" d="M136.46,116.58c0,.08-8.38.15-18.77.15s-18.77-.07-18.77-.15,8.38-.15,18.77-.15S136.46,116.5,136.46,116.58Z"/><path class="cls-1" d="M117.69,116.86H104.42c-5.58,0-5.58,0-5.58-.24s0-.19,5.58-.24H131c5.58,0,5.58,0,5.58.24s0,.2-5.58.24C127.42,116.85,122.7,116.86,117.69,116.86Zm-8.88-.28"/><path class="cls-1" d="M182.33,116.58c0,.08-8.38.15-18.77.15s-18.77-.07-18.77-.15,8.38-.15,18.77-.15S182.33,116.5,182.33,116.58Z"/><path class="cls-1" d="M163.53,116.86H150.27c-5.59,0-5.59,0-5.59-.24s0-.19,5.59-.24H176.8c5.58,0,5.58,0,5.58.24s0,.2-5.58.24C173.31,116.85,168.57,116.86,163.53,116.86Zm-8.88-.28"/><path class="cls-1" d="M166.33,105.46c0,.09-8.38.16-18.77.16s-18.77-.07-18.77-.16,8.38-.14,18.77-.14S166.33,105.38,166.33,105.46Z"/><path class="cls-1" d="M147.61,105.76H134.33c-5.58,0-5.58,0-5.58-.25s0-.2,5.58-.24h26.55c5.59,0,5.59,0,5.59.24s0,.19-5.59.25C157.33,105.74,152.63,105.76,147.61,105.76Zm-8.88-.3h0Z"/><path class="cls-1" d="M192.31,127.7c0,.08-8.38.14-18.77.14s-18.78,0-18.78-.14,8.38-.16,18.78-.16S192.31,127.61,192.31,127.7Z"/><path class="cls-1" d="M173.54,128H160.26c-5.58,0-5.58,0-5.58-.23s0-.2,5.58-.25h26.55c5.59,0,5.59,0,5.59.25s0,.19-5.59.23C183.26,128,178.56,128,173.54,128Zm-8.93-.27h0Z"/><path class="cls-3" d="M187.13,111c0,.09-13,.16-29.14.16s-29.14,0-29.14-.16,13-.15,29.14-.15S187.13,110.94,187.13,111Z"/><path class="cls-3" d="M158,111.32H137.34c-6.19,0-8,0-8.47-.12h0c-.16,0-.16-.07-.16-.12s0-.09.16-.11h0c.51-.07,2.29-.09,8.47-.12h41.22c6.17,0,7.94,0,8.46.12h0c.17,0,.17.07.17.11s0,.08-.17.12h0c-.52,0-2.29.09-8.46.12C173.1,111.3,165.77,111.32,158,111.32Zm-13.76-.3"/><path class="cls-1" d="M84.62,94.36c0,.09-3.06.16-6.81.16s-6.8-.07-6.8-.16,3-.15,6.8-.15S84.62,94.28,84.62,94.36Z"/><path class="cls-1" d="M77.81,94.64c-7,0-7-.12-7-.28s0-.29,7-.29,7,.14,7,.29S84.75,94.64,77.81,94.64Zm-3.23-.28"/><path class="cls-1" d="M84.62,161c0,.09-3.06.16-6.81.16S71,161.1,71,161s3-.15,6.8-.15S84.62,160.93,84.62,161Z"/><path class="cls-1" d="M77.81,161.31c-7,0-7-.14-7-.3s0-.28,7-.28,7,.13,7,.28S84.75,161.31,77.81,161.31Zm-3.23-.3"/><path class="cls-1" d="M91.37,116.58c0,.08-3.06.15-6.82.15s-6.8-.07-6.8-.15,3-.15,6.8-.15S91.37,116.5,91.37,116.58Z"/><path class="cls-1" d="M84.55,116.86c-7,0-7-.13-7-.28s0-.28,7-.28,7,.13,7,.28S91.49,116.86,84.55,116.86Zm-3.21-.28"/><path class="cls-2" d="M200.47,116.58c0,.08-3.05.15-6.82.15s-6.8-.07-6.8-.15,3.05-.15,6.8-.15S200.47,116.5,200.47,116.58Z"/><path class="cls-2" d="M193.65,116.86c-7,0-7-.13-7-.28s0-.28,7-.28,7,.13,7,.28S200.59,116.86,193.65,116.86Zm-3.21-.28"/><path class="cls-2" d="M103.57,138.77c0,.08-5.7.15-12.74.15s-12.73,0-12.73-.15,5.71-.15,12.73-.15S103.57,138.69,103.57,138.77Z"/><path class="cls-2" d="M90.83,139.05h-9c-3.86,0-3.86,0-3.86-.24s0-.19,3.86-.25h18c3.87,0,3.87,0,3.87.25s0,.2-3.87.24C97.44,139,94.24,139.05,90.83,139.05Zm-6.06-.28h0Z"/><path class="cls-1" d="M133,138.77c0,.08-5.7.15-12.73.15s-12.74,0-12.74-.15,5.71-.15,12.74-.15S133,138.69,133,138.77Z"/><path class="cls-1" d="M120.24,139.05h-9c-3.86,0-3.86,0-3.86-.24s0-.19,3.86-.25h18c3.87,0,3.87,0,3.87.25s0,.2-3.87.24C126.89,139,123.69,139.05,120.24,139.05Zm-6.06-.28h0Z"/><path class="cls-1" d="M121.77,144.33c0,.08-8.38.14-18.77.14s-18.77,0-18.77-.14,8.38-.16,18.77-.16S121.77,144.24,121.77,144.33Z"/><path class="cls-1" d="M103,144.61H89.73c-5.58,0-5.58,0-5.58-.24s0-.2,5.58-.25h26.55c5.58,0,5.58,0,5.58.25s0,.19-5.58.24C112.73,144.59,108,144.61,103,144.61Zm-8.88-.28h0Z"/><path class="cls-1" d="M121.77,149.87c0,.08-8.38.15-18.77.15s-18.77-.07-18.77-.15,8.38-.15,18.77-.15S121.77,149.79,121.77,149.87Z"/><path class="cls-1" d="M103,150.16H89.73c-5.58,0-5.58,0-5.58-.25s0-.19,5.58-.23h26.55c5.58,0,5.58,0,5.58.23s0,.2-5.58.25Zm-8.94-.29h0Z"/><path class="cls-1" d="M136.46,155.43c0,.08-8.38.15-18.77.15s-18.77-.07-18.77-.15,8.38-.16,18.77-.16S136.46,155.34,136.46,155.43Z"/><path class="cls-1" d="M117.69,155.72H104.42c-5.58,0-5.58,0-5.58-.24s0-.19,5.58-.23H131c5.58,0,5.58,0,5.58.23s0,.2-5.58.24C127.42,155.69,122.7,155.72,117.69,155.72Zm-8.94-.29"/><path class="cls-1" d="M182.33,155.43c0,.08-8.38.15-18.77.15s-18.77-.07-18.77-.15,8.38-.16,18.77-.16S182.33,155.34,182.33,155.43Z"/><path class="cls-1" d="M163.53,155.72H150.27c-5.59,0-5.59,0-5.59-.24s0-.19,5.59-.23H176.8c5.58,0,5.58,0,5.58.23s0,.2-5.58.24C173.31,155.69,168.57,155.72,163.53,155.72Zm-8.93-.29"/><path class="cls-1" d="M166.33,144.33c0,.08-8.38.14-18.77.14s-18.77,0-18.77-.14,8.38-.16,18.77-.16S166.33,144.24,166.33,144.33Z"/><path class="cls-1" d="M147.61,144.61H134.33c-5.58,0-5.58,0-5.58-.24s0-.2,5.58-.25h26.55c5.59,0,5.59,0,5.59.25s0,.19-5.59.24C157.33,144.59,152.63,144.61,147.61,144.61Zm-8.88-.28h0Z"/><path class="cls-3" d="M187.13,149.87c0,.08-13,.15-29.14.15s-29.14-.07-29.14-.15,13-.15,29.14-.15S187.13,149.79,187.13,149.87Z"/><path class="cls-3" d="M158,150.16H137.34c-6.19,0-8,0-8.47-.12h0c-.16,0-.16-.07-.16-.13s0-.08.16-.11h0c.51,0,2.29-.08,8.47-.11h41.22c6.17,0,7.94,0,8.46.11h0c.17,0,.17.07.17.11s0,.1-.17.13h0c-.52,0-2.29.08-8.46.12Zm-13.76-.29h0Z"/><path class="cls-1" d="M91.37,155.43c0,.08-3.06.15-6.82.15s-6.8-.07-6.8-.15,3-.16,6.8-.16S91.37,155.34,91.37,155.43Z"/><path class="cls-1" d="M84.55,155.72c-7,0-7-.14-7-.29s0-.28,7-.28,7,.12,7,.28S91.49,155.72,84.55,155.72Zm-3.24-.29"/><path class="cls-2" d="M200.47,155.43c0,.08-3.05.15-6.82.15s-6.8-.07-6.8-.15,3.05-.16,6.8-.16S200.47,155.34,200.47,155.43Z"/><path class="cls-2" d="M193.65,155.72c-7,0-7-.14-7-.29s0-.28,7-.28,7,.12,7,.28S200.59,155.72,193.65,155.72Zm-3.22-.29"/><path class="cls-2" d="M170.47,213.28s-3.63.1-8.11.1-8.11,0-8.11-.1,3.63-.1,8.11-.1S170.47,213.22,170.47,213.28Z"/><path class="cls-2" d="M162.36,213.46h-5.74c-2.46,0-2.46,0-2.46-.15s0-.13,2.46-.16H168.1c2.46,0,2.46,0,2.46.16s0,.12-2.46.15Zm-3.84-.18"/><path class="cls-1" d="M189.24,213.28s-3.63.1-8.11.1-8.11,0-8.11-.1,3.63-.1,8.11-.1S189.24,213.22,189.24,213.28Z"/><path class="cls-1" d="M181.13,213.46h-5.74c-2.46,0-2.46,0-2.46-.15s0-.13,2.46-.16h11.48c2.46,0,2.46,0,2.46.16s0,.12-2.46.15Zm-3.84-.18"/><path class="cls-1" d="M182.08,216.81s-5.36.1-12,.1-12,0-12-.1,5.35-.08,12-.08S182.08,216.77,182.08,216.81Z"/><path class="cls-1" d="M170.11,217h-8.45c-3.59,0-3.59,0-3.59-.15s0-.11,3.59-.15h16.91c3.59,0,3.59,0,3.59.15s0,.12-3.59.15Zm-5.65-.18"/><path class="cls-1" d="M182.08,220.36s-5.36.1-12,.1-12,0-12-.1,5.35-.1,12-.1S182.08,220.3,182.08,220.36Z"/><path class="cls-1" d="M170.11,220.54h-8.45c-3.59,0-3.59,0-3.59-.15s0-.13,3.59-.16h16.91c3.59,0,3.59,0,3.59.16s0,.12-3.59.15Zm-5.68-.18"/><path class="cls-1" d="M198.53,231s-5.35.1-12,.1-11.95,0-11.95-.1,5.35-.1,11.95-.1S198.53,230.91,198.53,231Z"/><path class="cls-1" d="M186.57,231.15h-8.44c-3.59,0-3.59,0-3.59-.15s0-.13,3.59-.15H195c3.59,0,3.59,0,3.59.15s0,.12-3.59.15Zm-5.69-.18"/><path class="cls-1" d="M191.43,223.89s-5.36.1-12,.1-12,0-12-.1,5.35-.1,12-.1S191.43,223.85,191.43,223.89Z"/><path class="cls-1" d="M179.47,224.07h-8.38c-3.59,0-3.59,0-3.59-.15s0-.13,3.59-.15h16.84c3.59,0,3.59,0,3.59.15s0,.12-3.59.15Zm-5.59-.18"/><path class="cls-1" d="M220.66,223.89s-5.36.1-12,.1-11.95,0-11.95-.1,5.35-.1,11.95-.1S220.66,223.85,220.66,223.89Z"/><path class="cls-1" d="M208.69,224.07h-8.44c-3.59,0-3.59,0-3.59-.15s0-.13,3.59-.15h16.91c3.59,0,3.59,0,3.59.15s0,.12-3.59.15Zm-5.65-.18"/><path class="cls-1" d="M210.5,216.81s-5.37.1-12,.1-12,0-12-.1,5.35-.08,12-.08S210.5,216.77,210.5,216.81Z"/><path class="cls-1" d="M198.53,217h-8.45c-3.59,0-3.59,0-3.59-.15s0-.11,3.59-.15H207c3.59,0,3.59,0,3.59.15s0,.12-3.59.15Zm-5.66-.18"/><path class="cls-1" d="M227,231s-5.37.1-12,.1-12,0-12-.1,5.35-.1,12-.1S227,230.91,227,231Z"/><path class="cls-1" d="M215.06,231.15H206.6c-3.59,0-3.59,0-3.59-.15s0-.13,3.59-.15h16.84c3.59,0,3.59,0,3.59.15s0,.12-3.59.15Zm-5.7-.18"/><path class="cls-3" d="M223.66,220.36s-8.37.1-18.57.1-18.57,0-18.57-.1,8.31-.1,18.57-.1S223.66,220.3,223.66,220.36Z"/><path class="cls-3" d="M205.15,220.54H192c-3.94,0-5.07,0-5.4-.08h0c-.11,0-.11,0-.11-.07s0,0,.11-.07h0c.33,0,1.46,0,5.4-.07h26.25c3.94,0,5.07,0,5.39.07h0c.12,0,.12,0,.12.07s0,0-.12.07h0c-.32,0-1.39,0-5.39.08Zm-8.77-.18"/><path class="cls-1" d="M162.7,223.89s-1.95.1-4.35.1a33.35,33.35,0,0,1-4.33-.1,33.56,33.56,0,0,1,4.33-.1C160.74,223.79,162.7,223.85,162.7,223.89Z"/><path class="cls-1" d="M158.37,224.07c-4.43,0-4.43-.08-4.43-.18s0-.18,4.43-.18,4.41.08,4.41.18S162.78,224.07,158.37,224.07Zm-2.06-.18"/><path class="cls-2" d="M232.21,223.89s-1.94.1-4.33.1a33.67,33.67,0,0,1-4.34-.1,33.56,33.56,0,0,1,4.34-.1C230.28,223.79,232.21,223.85,232.21,223.89Z"/><path class="cls-2" d="M227.85,224.07c-4.42,0-4.42-.08-4.42-.18s0-.18,4.42-.18,4.42.08,4.42.18S232.29,224.07,227.85,224.07Zm-2-.18"/><path class="cls-2" d="M170.47,238s-3.63.09-8.11.09-8.11,0-8.11-.09,3.63-.1,8.11-.1S170.47,238,170.47,238Z"/><path class="cls-2" d="M162.36,238.22h-5.74c-2.46,0-2.46,0-2.46-.16s0-.12,2.46-.15H168.1c2.46,0,2.46,0,2.46.15s0,.12-2.46.16Zm-3.85-.18"/><path class="cls-1" d="M189.24,238s-3.63.09-8.11.09-8.11,0-8.11-.09,3.63-.1,8.11-.1S189.24,238,189.24,238Z"/><path class="cls-1" d="M181.13,238.22h-5.74c-2.46,0-2.46,0-2.46-.16s0-.12,2.46-.15h11.48c2.46,0,2.46,0,2.46.15s0,.12-2.46.16Zm-3.86-.18"/><path class="cls-1" d="M182.08,241.57s-5.36.1-12,.1-12,0-12-.1,5.35-.1,12-.1S182.08,241.49,182.08,241.57Z"/><path class="cls-1" d="M170.11,241.75h-8.45c-3.59,0-3.59,0-3.59-.15s0-.13,3.59-.16h16.91c3.59,0,3.59,0,3.59.16s0,.12-3.59.15Zm-5.65-.18"/><path class="cls-1" d="M182.08,245.1s-5.36.1-12,.1-12,0-12-.1,5.35-.08,12-.08S182.08,245.06,182.08,245.1Z"/><path class="cls-1" d="M170.11,245.3h-8.45c-3.59,0-3.59,0-3.59-.16s0-.11,3.59-.15h16.91c3.59,0,3.59,0,3.59.15s0,.13-3.59.16C176.31,245.28,173.31,245.3,170.11,245.3Zm-5.68-.2"/><path class="cls-1" d="M191.43,248.65s-5.36.1-12,.1-12,0-12-.1,5.35-.1,12-.1S191.43,248.59,191.43,248.65Z"/><path class="cls-1" d="M179.47,248.83h-8.38c-3.59,0-3.59,0-3.59-.15s0-.13,3.59-.16h16.84c3.59,0,3.59,0,3.59.16s0,.12-3.59.15Zm-5.69-.18"/><path class="cls-1" d="M220.66,248.65s-5.36.1-12,.1-11.95,0-11.95-.1,5.35-.1,11.95-.1S220.66,248.59,220.66,248.65Z"/><path class="cls-1" d="M208.69,248.83h-8.44c-3.59,0-3.59,0-3.59-.15s0-.13,3.59-.16h16.91c3.59,0,3.59,0,3.59.16s0,.12-3.59.15Zm-5.68-.18"/><path class="cls-1" d="M210.5,241.57s-5.37.1-12,.1-12,0-12-.1,5.35-.1,12-.1S210.5,241.49,210.5,241.57Z"/><path class="cls-1" d="M198.53,241.75h-8.45c-3.59,0-3.59,0-3.59-.15s0-.13,3.59-.16H207c3.59,0,3.59,0,3.59.16s0,.12-3.59.15Zm-5.66-.18"/><path class="cls-3" d="M223.66,245.1s-8.37.1-18.57.1-18.57,0-18.57-.1,8.31-.08,18.57-.08S223.66,245.06,223.66,245.1Z"/><path class="cls-3" d="M205.15,245.3H192c-3.94,0-5.07,0-5.4-.07h0c-.11,0-.11,0-.11-.09s0,0,.11,0h0c.33,0,1.46,0,5.4-.08h26.25c3.94,0,5.07,0,5.39.08h.12l-.12.09h0c-.32,0-1.39,0-5.39.07C214.77,245.28,210.1,245.3,205.15,245.3Zm-8.77-.2"/><path class="cls-1" d="M162.7,248.65s-1.95.1-4.35.1a33.35,33.35,0,0,1-4.33-.1,33.56,33.56,0,0,1,4.33-.1C160.74,248.55,162.7,248.59,162.7,248.65Z"/><path class="cls-1" d="M158.37,248.83c-4.43,0-4.43-.08-4.43-.18s0-.18,4.43-.18,4.41.08,4.41.18S162.78,248.83,158.37,248.83Zm-2.07-.18"/><path class="cls-2" d="M232.21,248.65s-1.94.1-4.33.1a33.67,33.67,0,0,1-4.34-.1,33.56,33.56,0,0,1,4.34-.1C230.28,248.55,232.21,248.59,232.21,248.65Z"/><path class="cls-2" d="M227.85,248.83c-4.42,0-4.42-.08-4.42-.18s0-.18,4.42-.18,4.42.08,4.42.18S232.29,248.83,227.85,248.83Zm-2.06-.18"/><g id="freepik--Character--inject-51"><path class="cls-4" d="M236.11,146.88a31.78,31.78,0,0,1-19.43-48.12c-6.13-12-1.39-28.32,10.15-35.18A30.7,30.7,0,0,0,233,59.66c3.27-3.2,3.86-8.16,5.59-12.4a23.39,23.39,0,0,1,37.07-8.93c6.71-3.32,13.63-6.64,21.09-7.23s15.65,2.21,19.45,8.64c2.08,3.55,2.8,8,5.87,10.74s7.71,2.94,11.38,4.88c7,3.71,9,12.76,9,20.68s-1.15,16.28,2.35,23.37c1.81,3.7,4.8,6.83,6,10.76a13.23,13.23,0,0,1-15.09,17c3,7,1.87,15.23-1.94,21.77s-10,11.41-16.76,14.84c-4.85,2.46-10.28,4.28-15.64,3.45-5-.75-9.39-3.7-13.07-7.13A49.86,49.86,0,0,1,273,130.37"/><path class="cls-5" d="M254.66,53a8.23,8.23,0,0,0-9,6.65h0L227,169.53c-2.57,12.9,14.68,24.18,28.51,26.82h0c14,2.68,15.9-4,18.7-16.24,4.69-20.37,6.33-28.05,6.31-27.93s18.16.84,26.73-21.32c4.19-11,7.67-29.84,10-45.33,2.06-14-3.45-32.77-17.47-34.24Z"/><path class="cls-4" d="M309,99.25a3,3,0,0,1-3.48,2.36,2.88,2.88,0,0,1-2.46-3.24v-.06a3,3,0,0,1,3.47-2.37A2.89,2.89,0,0,1,309,99.21Z"/><path class="cls-4" d="M311.11,96.26c-.45.31-2.32-1.83-5.49-2.49s-5.82.42-6.09,0c-.12-.21.39-.82,1.57-1.39a8.22,8.22,0,0,1,5-.45,7.87,7.87,0,0,1,4.26,2.46C311.14,95.38,311.32,96.15,311.11,96.26Z"/><path class="cls-4" d="M277.47,92.45A3,3,0,0,1,274,94.87h0a2.87,2.87,0,0,1-2.48-3.21s0-.05,0-.08a3,3,0,0,1,3.46-2.36,2.88,2.88,0,0,1,2.53,3.21Z"/><path class="cls-4" d="M279.87,89.28c-.45.3-2.32-1.82-5.49-2.49s-5.82.42-6.09,0c-.12-.21.39-.82,1.57-1.4a8.37,8.37,0,0,1,5-.44,7.88,7.88,0,0,1,4.26,2.45C279.9,88.3,280.09,89.07,279.87,89.28Z"/><path class="cls-4" d="M286.35,114.23a21.61,21.61,0,0,1,5.33.17c.84.08,1.64.1,1.89-.44a4.14,4.14,0,0,0,0-2.51c-.35-2.11-.7-4.33-1.08-6.66-1.39-9.47-2.31-17.19-1.94-17.23s1.87,7.57,3.33,17l1,6.68a4.85,4.85,0,0,1-.25,3.27,2.08,2.08,0,0,1-1.58.89,5.48,5.48,0,0,1-1.4-.1A21.06,21.06,0,0,1,286.35,114.23Z"/><path class="cls-6" d="M280.55,152.11a59.58,59.58,0,0,1-29-14.7s4.3,17.83,27.72,20.58Z"/><path class="cls-6" d="M283.39,121.57a5.86,5.86,0,0,0-4.67-3.21,5.36,5.36,0,0,0-4,1.16,3.36,3.36,0,0,0-1.05,3.72,3.88,3.88,0,0,0,3.92,1.94,12.47,12.47,0,0,0,4.56-1.55,3.87,3.87,0,0,0,1.1-.74,1.12,1.12,0,0,0,.25-1.19"/><path class="cls-4" d="M281.07,128.41c-.52-.09.21-3.52-2.21-6.6s-6.16-3.46-6.09-4c0-.22,1-.49,2.52-.21a8.79,8.79,0,0,1,5.12,3.12,7.6,7.6,0,0,1,1.63,5.47C281.86,127.68,281.3,128.41,281.07,128.41Z"/><path class="cls-4" d="M282.48,83.08c-.5.79-3.57-.3-7.39-.65s-7,0-7.34-.83c-.14-.42.54-1.12,1.94-1.69a12.08,12.08,0,0,1,5.74-.74A12.5,12.5,0,0,1,280.92,81C282.16,81.87,282.7,82.68,282.48,83.08Z"/><path class="cls-4" d="M311.9,90.57c-.71.6-2.79-.61-5.34-1.2s-4.95-.56-5.3-1.39c-.15-.42.35-1.06,1.47-1.54a7.92,7.92,0,0,1,8.57,2.11C312.07,89.47,312.21,90.28,311.9,90.57Z"/><path class="cls-4" d="M271.31,48.78a22.76,22.76,0,0,0-17.43-7.32c-6.49.45-12.75,4.86-14.3,11-1,4-.19,8.7-2.79,12s-7,3.6-10.5,5.48a14,14,0,0,0-6.75,15.85c1.53,5.14,6.06,9.64,5.38,14.92-.64,5-5.59,8.21-7.67,12.79-2.24,5-.5,11.17,2.95,15.58s6.1,13.55,10.88,16.54c3.73,2.33,9.41,4,14.31,2.12a23,23,0,0,0,11.79-12.26,17.9,17.9,0,0,0-1.79-14.86c-2.25-3.88-5.78-7.53-5.59-12,.34-7,9.46-10.67,10.42-17.52.49-3.53-1.39-7-2.79-10.23S255,73.68,257,70.68c2.53-3.89,8.38-3.79,12.37-6.18a10.52,10.52,0,0,0,5.07-9.77,10.86,10.86,0,0,0-6.79-8.87"/><path class="cls-4" d="M270,43A16,16,0,0,0,282.13,62.2a16.64,16.64,0,0,0,3,.38c3.65.11,7.86-.84,10.5,1.69s1.86,7.48,4.19,10.54c3.3,4.38,10.43,2.47,15.22,5.11,3.72,2,5.38,6.34,7.32,10.1s5.24,7.62,9.45,7.3a47,47,0,0,0,.7-10.91,16,16,0,0,0-4.19-9.9c-1.39-1.39-3.17-2.48-4.42-4-2.71-3.37-2.49-8.16-3.72-12.31A17.54,17.54,0,0,0,309,48.67c-4.41-1.4-9.36-1.08-13.5-3.14-3.08-1.51-5.46-4.19-8.62-5.59-6.14-2.6-13.1.71-18.74,4.3"/><path class="cls-2" d="M306.05,191.09a51.3,51.3,0,0,1,14.15,36.15c-.42,22.48,3.2,63.26,3.2,63.26l62.25,38L368.1,355.39,299.5,325l-14.39-29.42Z"/><path class="cls-2" d="M325,345.13s2.32-4.47-4.19-7.86H310.24l-20.64-35.6,16.45-110.58-28.14-21.37-62.26-5.58L193.89,276l27.82,50.86,55.16,22.68Z"/><path class="cls-2" d="M226.69,165l1.25-10.54a3.35,3.35,0,0,1,3.76-2.88,3,3,0,0,1,.43.09c15.36,12.08,31.29,18.15,48,13.39a4.37,4.37,0,0,1,3.08,5.25l-6.51,26.38-17.05,5.1-22.5-4.4L226.68,178Z"/><path class="cls-4" d="M280.62,172.28a11.25,11.25,0,0,1-2,1.21,34.87,34.87,0,0,1-5.9,2.43,39.81,39.81,0,0,1-39.29-8.86,36.7,36.7,0,0,1-4.27-4.72,11.43,11.43,0,0,1-1.29-2,79.9,79.9,0,0,0,6,6.23,40.86,40.86,0,0,0,38.68,8.73A77.09,77.09,0,0,0,280.62,172.28Z"/><g class="cls-7"><path d="M229.7,162.45a6.47,6.47,0,0,0,.76,6.18,18.58,18.58,0,0,0,4.72,4.47c6,4.5,12.32,9,19.55,11s15.71,1.29,21.26-3.78c1.6-1.48,2.86-4.19,1.18-5.59-1.24-1.05-3.12-.4-4.65.18a35.59,35.59,0,0,1-42-13"/></g><path class="cls-2" d="M221.11,282.14l101.7,54.54L286.1,358.87l-70-20.53c-37.13-9.77-47.27-25.25-46.89-41.16.13-5.8-.54-62.37,1.94-90.12,3.41-37.78,44.49-42.88,44.49-42.88L215,196.49l.46,39.47,1.4,36.21c3.71-1.86,4.63,5.11,4.63,5.11Z"/><path class="cls-4" d="M216.17,276.48c-.24,0-.56-13.68-.72-30.57s-.08-30.58.16-30.58.54,13.69.69,30.58S216.39,276.48,216.17,276.48Z"/><path class="cls-4" d="M220.75,284c-.12-.07.19-.69.36-1.72a5.67,5.67,0,0,0-3.73-6.38c-1-.38-1.68-.41-1.68-.53s.7-.31,1.85,0a5.58,5.58,0,0,1,4.31,6.62c0,.16-.08.31-.12.47C221.36,283.55,220.87,284.06,220.75,284Z"/><path class="cls-4" d="M220.75,284l.18.15a3.71,3.71,0,0,0,.6.38c.53.32,1.39.78,2.37,1.39,2.1,1.15,5.15,2.8,8.94,4.72l29.64,15.2L292.09,321l9,4.65,2.42,1.31a4.85,4.85,0,0,1,.82.5,4,4,0,0,1-.89-.35l-2.5-1.16-9.08-4.41c-7.65-3.77-18.15-9-29.78-14.95S240,295.19,232.49,291.18,220.48,284.33,220.75,284Z"/><path class="cls-4" d="M215.73,206c-.12,0-.35-2.29-.88-6a51.8,51.8,0,0,0-3.75-13.88,28,28,0,0,0-8.91-11.06,40.36,40.36,0,0,0-5.23-2.89,5,5,0,0,1,1.58.4,17.78,17.78,0,0,1,4,2,26.85,26.85,0,0,1,9.34,11.17,45.86,45.86,0,0,1,3.64,14.14c.2,1.87.3,3.38.32,4.43A6.17,6.17,0,0,1,215.73,206Z"/><g class="cls-7"><path d="M309.11,330.34c3.38-6.49,2.56-14.37.64-21.43s-4.8-14-5.34-21.24c-.49-6.33.83-12.64,2.1-18.86s2.5-12.56,1.85-18.85-3.48-12.69-8.79-16.17c2.11,5.24,4.19,10.54,4.95,16.16s-.17,11.63-3.58,16.13c-1.74,2.3-4.19,4.19-5.26,6.84-1.51,3.53-1.29,7.54-2.42,11.09-1.23,3.88-3.46,16.92-3.46,16.92-.16.73,3.85,8.1,7.83,13.37s8.77,10,11.65,15.93"/></g><path class="cls-4" d="M309.36,329.89a2.47,2.47,0,0,1-.42-.49c-.29-.39-.65-.89-1.11-1.49l-4.19-5.72L289.3,301.87l-.1-.13v-.17c1.6-7.84,3.41-16.75,5.33-26.19.21-1,.41-2,.6-3v-.13l.1-.08a32.17,32.17,0,0,0,9.43-22.35,30.19,30.19,0,0,0-6.52-17.72h0v-.08c-.26-4.19-.47-7.54-.62-9.94,0-1.09-.1-2-.14-2.64a4.61,4.61,0,0,1,0-.91,3.84,3.84,0,0,1,.14.89c.07.69.15,1.55.27,2.64.21,2.39.5,5.74.88,9.92l-.07-.16a30.4,30.4,0,0,1,6.87,18,29.07,29.07,0,0,1-2.28,11.93,34.22,34.22,0,0,1-7.26,11.09l.11-.21c-.2,1-.39,1.95-.6,3L290,301.84v-.29l14.12,20.5c1.66,2.44,3,4.41,3.94,5.83.42.63.75,1.15,1,1.57A2.82,2.82,0,0,1,309.36,329.89Z"/><g class="cls-7"><path d="M235.51,276.2c-1-.8-2.6.45-2.55,1.73a4.09,4.09,0,0,0,2.25,3,16.94,16.94,0,0,0,10.22,2A19.61,19.61,0,0,0,257.37,278a12.9,12.9,0,0,0,4-11.89,1.93,1.93,0,0,0-.42-1c-.83-.85-2.21.1-3,1a32.45,32.45,0,0,1-21.72,10"/></g><g class="cls-7"><path d="M215.66,275.49a9.55,9.55,0,0,0-11.17,2.79,3.37,3.37,0,0,0-.67,3.65,2.79,2.79,0,0,0,2.91,1,7.8,7.8,0,0,0,2.79-1.57c1.88-1.4,3.74-3,5.58-4.53a1.92,1.92,0,0,0,.63-.78.7.7,0,0,0-.29-.87"/></g><path class="cls-4" d="M207.06,284.08c-.1,0,0-.84.49-2.06a11.38,11.38,0,0,1,3-4.07A11.62,11.62,0,0,1,215,275.5c1.25-.33,2.06-.3,2.08-.19a17.37,17.37,0,0,0-6,3.28C208.26,281.13,207.3,284.17,207.06,284.08Z"/><path class="cls-3" d="M346.05,420c-.17.15-21.51-22.35-47.64-50.18s-47.19-50.59-47-50.74S272.89,341.4,299,369.22,346.23,419.81,346.05,420Z"/><path class="cls-8" d="M188.24,211.87a33.69,33.69,0,0,1-1-7,36,36,0,0,1-.28-7.11,36.61,36.61,0,0,1,1,7A36,36,0,0,1,188.24,211.87Z"/><path class="cls-8" d="M196,235.09a62.65,62.65,0,0,1,2-13.27,30,30,0,0,1-.62,6.69A30.77,30.77,0,0,1,196,235.09Z"/><path class="cls-8" d="M181.14,250.81a35.48,35.48,0,0,1-.72-7,32.57,32.57,0,0,1,0-7,34.88,34.88,0,0,1,.71,7A32.57,32.57,0,0,1,181.14,250.81Z"/><path class="cls-8" d="M202.72,270.48a23.76,23.76,0,0,1-3-5.13,25.1,25.1,0,0,1-2.36-5.45,24.61,24.61,0,0,1,3,5.13A25.6,25.6,0,0,1,202.72,270.48Z"/><path class="cls-8" d="M186.09,282.26a16.68,16.68,0,0,1-3.84,3.12,17.06,17.06,0,0,1-4.28,2.51,17.24,17.24,0,0,1,3.8-3.11A16.86,16.86,0,0,1,186.09,282.26Z"/><path class="cls-8" d="M219.75,292.05a13.66,13.66,0,0,1-2.05-3.91,13.45,13.45,0,0,1-1.4-4.19,26.87,26.87,0,0,1,3.45,8.1Z"/><path class="cls-8" d="M255.78,307.56a39.48,39.48,0,0,1-6.91-3,40.83,40.83,0,0,1-6.61-3.63,37.82,37.82,0,0,1,6.92,3A40.32,40.32,0,0,1,255.78,307.56Z"/><path class="cls-8" d="M264.37,327.16a20.34,20.34,0,0,1,2.58-4.68,19.25,19.25,0,0,1,3.16-4.33,20.67,20.67,0,0,1-2.54,4.72A19.74,19.74,0,0,1,264.37,327.16Z"/><path class="cls-8" d="M281.27,343.42a40.13,40.13,0,0,1-.12-7.75,42.55,42.55,0,0,1,.62-7.72A82.47,82.47,0,0,1,281.27,343.42Z"/><path class="cls-8" d="M227.57,181.08a16.12,16.12,0,0,1-5.18-1.92,16.59,16.59,0,0,1-4.65-3,28.44,28.44,0,0,1,5,2.32A30.49,30.49,0,0,1,227.57,181.08Z"/><path class="cls-8" d="M202.26,185.31a30.85,30.85,0,0,1-7.87-5.16,15.77,15.77,0,0,1,4.19,2.28A15.37,15.37,0,0,1,202.26,185.31Z"/><path class="cls-8" d="M226.78,215.19a72.63,72.63,0,0,1,5.65-13.25A70,70,0,0,1,226.78,215.19Z"/><path class="cls-8" d="M231.47,245.68a55.16,55.16,0,0,1-3.6-5.74,51.25,51.25,0,0,1-3.48-5.83,22.69,22.69,0,0,1,4.09,5.45A22.44,22.44,0,0,1,231.47,245.68Z"/><path class="cls-8" d="M258,212.06a26.06,26.06,0,0,1-4.56,4.09,25.71,25.71,0,0,1-5,3.51A52.76,52.76,0,0,1,258,212.06Z"/><path class="cls-8" d="M254.86,196.8a37.07,37.07,0,0,1-4-6.07,37.46,37.46,0,0,1-3.38-6.46,36.52,36.52,0,0,1,4,6.08A36.34,36.34,0,0,1,254.86,196.8Z"/><path class="cls-8" d="M276.1,184.23a24.91,24.91,0,0,1-2.44,5.48,25.37,25.37,0,0,1-3.1,5.14,25.42,25.42,0,0,1,2.45-5.48A25.06,25.06,0,0,1,276.1,184.23Z"/><path class="cls-8" d="M253.37,175.2a25,25,0,0,1,.57-3.67,28.8,28.8,0,0,1,.39-3.71,6.35,6.35,0,0,1,.33,3.8A6.2,6.2,0,0,1,253.37,175.2Z"/><path class="cls-8" d="M272.75,174.21a9.18,9.18,0,0,1-3.16-1.79A12.61,12.61,0,0,1,266.8,170a9.27,9.27,0,0,1,3.16,1.79C271.64,173,272.86,174.05,272.75,174.21Z"/><path class="cls-8" d="M236.9,161.21c0,.19-.93.36-2.09.36s-2.08-.17-2.08-.36.93-.37,2.08-.37S236.9,161,236.9,161.21Z"/><path class="cls-8" d="M297.35,195a30.68,30.68,0,0,1-4.88-4.44,30.81,30.81,0,0,1-4.38-5,30.33,30.33,0,0,1,4.89,4.44A30.33,30.33,0,0,1,297.35,195Z"/><path class="cls-8" d="M285.48,225.52a46.35,46.35,0,0,1,2.8-14.22,54.09,54.09,0,0,1-1.23,7.14A50,50,0,0,1,285.48,225.52Z"/><path class="cls-8" d="M271.21,239.53a60,60,0,0,1-1.46-8.08,65.75,65.75,0,0,1-1.14-8.15A61.21,61.21,0,0,1,271.21,239.53Z"/><path class="cls-8" d="M252.39,259.15a36.67,36.67,0,0,1-5.92-12.26,50.84,50.84,0,0,1,3,6.09A54,54,0,0,1,252.39,259.15Z"/><path class="cls-8" d="M239.89,270.81a36.19,36.19,0,0,1-7-1.66,36.19,36.19,0,0,1-6.79-2.37,35.49,35.49,0,0,1,7,1.67A34.56,34.56,0,0,1,239.89,270.81Z"/><path class="cls-8" d="M249.47,283.55a37.2,37.2,0,0,1-3.59,3,32.49,32.49,0,0,1-3.53,3.1A14.71,14.71,0,0,1,249.47,283.55Z"/><path class="cls-8" d="M266.21,298.74a28,28,0,0,1-1.2-6.34,29.42,29.42,0,0,1-.47-6.42A56.59,56.59,0,0,1,266.21,298.74Z"/><path class="cls-8" d="M285.27,293.54a22,22,0,0,1-9.58-4.66,32.56,32.56,0,0,1,4.82,2.26A32.14,32.14,0,0,1,285.27,293.54Z"/><path class="cls-8" d="M290.47,262.5a53.39,53.39,0,0,1-6.4,2.79,56.35,56.35,0,0,1-6.43,2.69,23.38,23.38,0,0,1,6.15-3.34A23.81,23.81,0,0,1,290.47,262.5Z"/><path class="cls-8" d="M294.63,253.5a31.85,31.85,0,0,1-4.54-5.09,31.79,31.79,0,0,1-4-5.58,31.3,31.3,0,0,1,4.54,5.08A32.78,32.78,0,0,1,294.63,253.5Z"/><path class="cls-8" d="M283.71,316.89a25.51,25.51,0,0,1-1.24-8.59A26.64,26.64,0,0,1,283.71,316.89Z"/><path class="cls-8" d="M314.29,289.33a32.66,32.66,0,0,1-4.7-4.92,31.24,31.24,0,0,1-4.19-5.4,32.66,32.66,0,0,1,4.69,4.93A31.34,31.34,0,0,1,314.29,289.33Z"/><path class="cls-8" d="M312.29,272.68a29.71,29.71,0,0,1,2.14-6.06,28.46,28.46,0,0,1,2.79-5.74,55.88,55.88,0,0,1-5,11.77Z"/><path class="cls-8" d="M314.58,242.16a21.79,21.79,0,0,1-3.53-4.19,20.85,20.85,0,0,1-2.94-4.61,21.15,21.15,0,0,1,3.53,4.19A19.52,19.52,0,0,1,314.58,242.16Z"/><path class="cls-8" d="M310.86,214.67a67.22,67.22,0,0,1-8.93-11A68.62,68.62,0,0,1,310.86,214.67Z"/><path class="cls-8" d="M319.7,318.37a32.24,32.24,0,0,1,3.12-6.07,31.8,31.8,0,0,1,3.77-5.7,31.94,31.94,0,0,1-3.14,6.06A31.78,31.78,0,0,1,319.7,318.37Z"/><path class="cls-8" d="M337.3,330.37a40.69,40.69,0,0,1-2.48-7.37,42.9,42.9,0,0,1-1.77-7.59,40.89,40.89,0,0,1,2.48,7.39A42.68,42.68,0,0,1,337.3,330.37Z"/><path class="cls-8" d="M357.44,327.18a27.83,27.83,0,0,1-3.48-8.32,27.72,27.72,0,0,1,3.51,8.38Z"/><path class="cls-4" d="M312.73,352l108.68-52.8a36.17,36.17,0,0,1,34.69,1.69h0a36.09,36.09,0,0,1,8.61,54.33l-47.08,55.12L297.39,427l-11.25-68.09,13.36-20.7Z"/><path class="cls-3" d="M378.37,374.54a11.27,11.27,0,0,1-1.39,1.1c-1,.67-2.2,1.58-3.83,2.7-3.25,2.23-7.83,5.22-13,8.37s-10,5.77-13.46,7.61c-1.75.93-3.17,1.64-4.19,2.11a6.71,6.71,0,0,1-1.59.67,6.62,6.62,0,0,1,1.39-1l4.25-2.44c3.42-2,8.13-4.71,13.29-7.82s9.78-6,13.13-8.1l4-2.47A7.32,7.32,0,0,1,378.37,374.54Z"/><path class="cls-4" d="M148.83,378.59s10.79-52.13,16.34-60.15,17.27-26,32.12-27.81,45,15.9,50.56,22.88c14,17.65,101.86,110.74,100.78,109.52L320.3,442.58l-29.94-9.49h-86S144.84,423,148.83,378.59Z"/><path class="cls-3" d="M290.32,433.09a9.84,9.84,0,0,1-1.33,0,27.6,27.6,0,0,1-3.73-.6,69.62,69.62,0,0,1-13.08-4.62,196,196,0,0,1-38.74-24.3c-14.17-10.87-26.53-21.41-34.63-29.86a87,87,0,0,1-9-10.55,28.63,28.63,0,0,1-2-3.2,6.42,6.42,0,0,1-.61-1.16,8.05,8.05,0,0,1,.77,1.07,32.05,32.05,0,0,0,2.19,3.1,98.82,98.82,0,0,0,9.16,10.34A360,360,0,0,0,234,402.9a205.84,205.84,0,0,0,38.39,24.31,77.2,77.2,0,0,0,12.91,4.85c1.21.31,2.44.56,3.68.75A8.37,8.37,0,0,1,290.32,433.09Z"/><path class="cls-3" d="M251.8,421.46a9,9,0,0,1-1.12.67l-3.28,1.81c-1.39.78-3.28,1.5-5.39,2.45-1,.49-2.23.81-3.46,1.27a30,30,0,0,1-4,1.27,78.75,78.75,0,0,1-20.18,3,84.19,84.19,0,0,1-24.75-3.2A76.84,76.84,0,0,1,167.12,418c-1.53-1.18-3.1-2.21-4.51-3.4a33.57,33.57,0,0,1-3.74-3.8,45.25,45.25,0,0,1-5.29-7.93,41.59,41.59,0,0,1-4.46-13,23.29,23.29,0,0,1-.33-3.73,7.06,7.06,0,0,1,0-1.3c.1,0,0,1.81.61,5a43.56,43.56,0,0,0,4.67,12.77,44.94,44.94,0,0,0,5.36,7.82,32.88,32.88,0,0,0,3.68,3.69c1.4,1.14,2.95,2.18,4.47,3.31A76.82,76.82,0,0,0,189.93,428a84.11,84.11,0,0,0,24.49,3.22,79.13,79.13,0,0,0,20-2.79c1.4-.29,2.7-.82,3.94-1.2a30.72,30.72,0,0,0,3.48-1.2c2.11-.91,4-1.56,5.42-2.3l3.33-1.65A7,7,0,0,1,251.8,421.46Z"/><path class="cls-2" d="M257.35,419.57s-19.43,7.92-17.4,17,12.05,13.26,22.19,12.3,28.78-9.33,28.78-9.33l9.6-5.08s-11.67-.18-17.58-2.29C276.11,429.68,257.35,419.57,257.35,419.57Z"/><path class="cls-3" d="M281.38,435.45l68.94,10.85L496,431.79l-79.84-21.9L281.42,429.26a3.14,3.14,0,0,0-2.68,3.1h0A3.13,3.13,0,0,0,281.38,435.45Z"/><path class="cls-3" d="M368.89,336.57l-16.76,98.68a8.54,8.54,0,0,0,7,9.85,8.22,8.22,0,0,0,2.27.08L496,431.79a8.56,8.56,0,0,0,7.57-7l18.15-99.9a8.56,8.56,0,0,0-6.9-10,8.25,8.25,0,0,0-2.43-.09l-136,14.59A8.55,8.55,0,0,0,368.89,336.57Z"/><path class="cls-4" d="M278.74,432.36a1.09,1.09,0,0,1,.36,0l1.06.13,4.09.57,15.2,2.28,51.48,8-.47.35c.84-5.14,1.72-10.5,2.62-16,4.05-24.28,7.73-46.25,10.39-62.24,1.4-7.9,2.48-14.32,3.26-18.84l.92-5.11.26-1.32a3.74,3.74,0,0,1,.12-.45v.46a13.62,13.62,0,0,1-.19,1.4l-.75,5.14c-.73,4.52-1.73,11-3,18.89-2.6,16-6.18,38-10.15,62.27-.89,5.47-1.79,10.82-2.64,16l-.07.42-.4-.07-51.45-8.25-15.15-2.53-4.08-.71-1-.2Z"/><path class="cls-8" d="M453,379.31c0,5.35-3.87,9.69-8.65,9.69s-8.64-4.34-8.64-9.69,3.87-9.7,8.64-9.7S453,374,453,379.31Z"/><path class="cls-5" d="M353.53,370.1c-4.75-4.26.59-9.23-8-17.33-6.41-6-18.54-16.41-42.06-24.26l-14.73,26.31,25.64,8.27-.25,16.75a6.11,6.11,0,0,0,6,6.2h.15l13.31-.15s-3.88,16.41-3.24,17.41a3.52,3.52,0,0,0,4.86,1.08,3.43,3.43,0,0,0,1.41-1.75c.53-2.22,11.48-28.74,11.48-28.74s7.16,6.19,8.17,2.64C356.24,376.51,358.21,374.37,353.53,370.1Z"/><path class="cls-6" d="M317.66,386.42c0-.1.63-.5,1.51-1.4a10.6,10.6,0,0,0,3-8.75,15.28,15.28,0,0,1-.32-2,4.27,4.27,0,0,1,.77,1.94,9.68,9.68,0,0,1-3.19,9.16A4.16,4.16,0,0,1,317.66,386.42Z"/><path class="cls-6" d="M326.22,385.86A13.74,13.74,0,0,0,329,375a3.37,3.37,0,0,1,.57,1.65,10.21,10.21,0,0,1-.18,4.19,10,10,0,0,1-1.88,3.79C326.82,385.54,326.26,385.92,326.22,385.86Z"/><path class="cls-6" d="M336.54,376.24a2.79,2.79,0,0,1,.26,1.4,8.83,8.83,0,0,1-2.72,6.38c-.67.61-1.17.88-1.23.81a12.93,12.93,0,0,0,3.69-8.63Z"/><path class="cls-3" d="M235.11,143.16h-.36l-1.06-.12a12,12,0,0,1-1.68-.39,13.8,13.8,0,0,1-2.23-.8,19.41,19.41,0,0,1-5.36-3.6,20.87,20.87,0,0,1-4.88-7.05,19.43,19.43,0,0,1-1.39-4.84,17.73,17.73,0,0,1,.14-5.44c.65-3.73,2.79-7.33,2.79-11.44a14.64,14.64,0,0,0-1.66-6,17.8,17.8,0,0,1-2-6.51,9.07,9.07,0,0,1,2.88-6.41,23.63,23.63,0,0,1,5.92-4.19,31.11,31.11,0,0,0,5.94-3.81A12.49,12.49,0,0,0,235.77,77c1.4-4.28,1.4-8.74,2.21-12.87a17.32,17.32,0,0,1,2.2-5.8,11.76,11.76,0,0,1,4.26-4,26.85,26.85,0,0,1,10-2.64,47.47,47.47,0,0,0,8.38-1.32,17,17,0,0,0,5.75-2.66,9.59,9.59,0,0,0,2.69-3c.44-.79.61-1.27.65-1.24a7,7,0,0,1-.53,1.31,9.06,9.06,0,0,1-2.64,3.13A17,17,0,0,1,263,50.69a46.56,46.56,0,0,1-8.38,1.4,26.86,26.86,0,0,0-9.77,2.65,11,11,0,0,0-4,3.83,16.47,16.47,0,0,0-2.09,5.58c-.84,4-.78,8.54-2.2,13a13.17,13.17,0,0,1-3.77,6A31.27,31.27,0,0,1,226.69,87a23.38,23.38,0,0,0-5.75,4,8.38,8.38,0,0,0-2.68,5.89c.17,4.41,3.66,8.06,3.57,12.57a19,19,0,0,1-1.21,6.06A43.73,43.73,0,0,0,219,121a17.84,17.84,0,0,0-.18,5.26,19.18,19.18,0,0,0,1.26,4.71,20.59,20.59,0,0,0,4.67,7,19.89,19.89,0,0,0,5.21,3.65A23.22,23.22,0,0,0,235.11,143.16Z"/><path class="cls-3" d="M342.43,92.67c-.1,0-.1-1.31-.66-3.59a21.13,21.13,0,0,0-4.58-8.69,20.44,20.44,0,0,0-12.56-7A82.27,82.27,0,0,1,315.94,72a13.12,13.12,0,0,1-7.67-5.51,42.9,42.9,0,0,1-4-8.58,32.46,32.46,0,0,0-3.81-7.75,21.74,21.74,0,0,0-12-7.91,22.28,22.28,0,0,0-9.78-.32,21.5,21.5,0,0,0-2.61.73,4.11,4.11,0,0,1-.91.26,4.87,4.87,0,0,1,.87-.4,16,16,0,0,1,2.59-.85,21.26,21.26,0,0,1,10,.08,22.08,22.08,0,0,1,12.42,8,33,33,0,0,1,4,7.89A42.41,42.41,0,0,0,309,66a12.45,12.45,0,0,0,7.26,5.22,78,78,0,0,0,8.6,1.4A21.31,21.31,0,0,1,342.08,88.9a15.48,15.48,0,0,1,.36,2.71A6.25,6.25,0,0,1,342.43,92.67Z"/></g><g id="freepik--speech-bubble--inject-51"><path class="cls-1" d="M426.15,212.4A43.37,43.37,0,0,0,358.8,176L341,172.13l5.37,16.5a43.37,43.37,0,1,0,79.82,23.74Z"/><path class="cls-1" d="M426.15,212.4v.74a19.87,19.87,0,0,1-.1,2.2A10.53,10.53,0,0,1,426,217c-.08.61-.18,1.25-.28,1.95s-.22,1.39-.34,2.26a24.43,24.43,0,0,1-.65,2.51,44.13,44.13,0,0,1-2,5.81l-1.53,3.16c-.53,1.09-1.26,2.13-1.93,3.26a43,43,0,0,1-38.5,19.82c-1-.07-2-.07-3-.2l-3-.47a44.19,44.19,0,0,1-31-23.35c-.49-1.09-1.06-2.14-1.48-3.25s-.83-2.28-1.23-3.41-.6-2.35-.91-3.53a34.18,34.18,0,0,1-.61-3.62c0-.61-.21-1.21-.24-1.83l-.08-1.86a35.53,35.53,0,0,1-.07-3.72,43.37,43.37,0,0,1,7-22.05v.3l-5.35-16.5-.18-.59.6.13,17.82,3.88h-.27a43.78,43.78,0,0,1,18.46-6.79,46.41,46.41,0,0,1,4.71-.35c1.55-.07,3.07.14,4.59.18a44.57,44.57,0,0,1,8.66,1.64,43.24,43.24,0,0,1,14.22,7.29,44.42,44.42,0,0,1,9.41,9.94,43.45,43.45,0,0,1,7,18c.13,1.12.34,2.11.35,3s0,1.58,0,2.17V212a1.77,1.77,0,0,1,0,.46,1.77,1.77,0,0,1,0-.46,6.94,6.94,0,0,0-.1-1.31c-.1-.56-.07-1.33-.12-2.16s-.26-1.85-.41-3a43.23,43.23,0,0,0-39.1-36.25c-1.49,0-3-.25-4.52-.17a40.08,40.08,0,0,0-4.64.35,43,43,0,0,0-18.24,6.83l-.11.08h-.14l-17.83-3.84.42-.46,5.35,16.51v.16l-.1.14a43,43,0,0,0-6.83,21.69,34.53,34.53,0,0,0,.07,3.67l.08,1.82a15.82,15.82,0,0,0,.23,1.8,32.67,32.67,0,0,0,.61,3.56c.3,1.16.56,2.33.88,3.48l1.2,3.35c.42,1.1,1,2.14,1.47,3.2a43.07,43.07,0,0,0,30.48,23l3,.47c1,.13,2,.14,3,.21a45.53,45.53,0,0,0,5.84-.08,43,43,0,0,0,32.3-19.34c.65-1.12,1.39-2.15,1.94-3.23l1.53-3.11a44.86,44.86,0,0,0,2-5.74l.67-2.5c.14-.8.27-1.55.38-2.25s.22-1.33.32-1.93.09-1.13.13-1.6c.07-.94.12-1.68.15-2.19A1.91,1.91,0,0,1,426.15,212.4Z"/><path class="cls-2" d="M379.84,196.37a4.57,4.57,0,0,0-.32-1.4,5.79,5.79,0,0,0-2.12-3,5.59,5.59,0,0,0-5.2-.72,5.46,5.46,0,0,0,0,10.23,5.59,5.59,0,0,0,5.2-.72,5.79,5.79,0,0,0,2.12-3c.25-.86.25-1.39.32-1.39a3,3,0,0,1,0,1.39,5.67,5.67,0,0,1-2.08,3.35,6,6,0,0,1-5.73,1,6.08,6.08,0,1,1,5.73-10.54,5.67,5.67,0,0,1,2.08,3.35A3.09,3.09,0,0,1,379.84,196.37Z"/><path class="cls-2" d="M379.84,227.61a5.78,5.78,0,1,1-5.78-5.79A5.78,5.78,0,0,1,379.84,227.61Z"/><path class="cls-2" d="M398.22,227.61c-.07,0-.07-.52-.32-1.4a5.87,5.87,0,0,0-2.13-3,5.48,5.48,0,1,0,0,8.79,5.81,5.81,0,0,0,2.13-3c.25-.85.25-1.4.32-1.4a3.3,3.3,0,0,1,0,1.4,5.83,5.83,0,0,1-2.1,3.35,6,6,0,0,1-5.72.95,6.09,6.09,0,0,1,0-11.48,6,6,0,0,1,5.72.94,5.84,5.84,0,0,1,2.1,3.41A3.36,3.36,0,0,1,398.22,227.61Z"/><path class="cls-2" d="M374.06,202.13a68.1,68.1,0,0,1,.36,9.89,67.72,67.72,0,0,1-.36,9.87,65,65,0,0,1-.36-9.87A65.38,65.38,0,0,1,374.06,202.13Z"/><path class="cls-2" d="M384.34,209.58a24.13,24.13,0,0,1-4.74-3.34.4.4,0,0,1,0-.52h0a35.41,35.41,0,0,1,4.68-3.5c.18.19-1.72,2-4.19,4.06h0v-.57A23.65,23.65,0,0,1,384.34,209.58Z"/><path class="cls-2" d="M379.84,205.86a19.06,19.06,0,0,1,3.62-.25c2.26,0,5.4-.1,9-.11a.36.36,0,0,1,.36.36h0v1.69c0,3.94,0,7.52-.11,10.1a23.52,23.52,0,0,1-.25,4.19,24.51,24.51,0,0,1-.27-4.19c0-2.58-.1-6.16-.1-10.1v-1.69l.37.37c-3.55,0-6.69,0-9-.13A20,20,0,0,1,379.84,205.86Z"/></g></svg>